%TF.GenerationSoftware,KiCad,Pcbnew,8.0.2-8.0.2-0~ubuntu22.04.1*%
%TF.CreationDate,2024-05-08T22:35:15+02:00*%
%TF.ProjectId,MailBox_LP_Notifier,4d61696c-426f-4785-9f4c-505f4e6f7469,rev?*%
%TF.SameCoordinates,Original*%
%TF.FileFunction,Drillmap*%
%TF.FilePolarity,Positive*%
%FSLAX45Y45*%
G04 Gerber Fmt 4.5, Leading zero omitted, Abs format (unit mm)*
G04 Created by KiCad (PCBNEW 8.0.2-8.0.2-0~ubuntu22.04.1) date 2024-05-08 22:35:15*
%MOMM*%
%LPD*%
G01*
G04 APERTURE LIST*
%ADD10C,0.100000*%
%ADD11C,0.200000*%
%ADD12C,0.300000*%
%ADD13C,0.320000*%
G04 APERTURE END LIST*
D10*
X11772900Y-10147300D02*
X11777980Y-5542280D01*
X15095220Y-5542280D02*
X15097760Y-10147300D01*
X11777980Y-5542280D02*
X15095220Y-5542280D01*
X15097760Y-10147300D02*
X11772900Y-10147300D01*
D11*
D10*
X11945600Y-8479100D02*
X12035600Y-8569100D01*
X12035600Y-8479100D02*
X11945600Y-8569100D01*
X11945600Y-8779100D02*
X12035600Y-8869100D01*
X12035600Y-8779100D02*
X11945600Y-8869100D01*
D12*
X13426580Y-9619180D02*
G75*
G02*
X13126580Y-9619180I-150000J0D01*
G01*
X13126580Y-9619180D02*
G75*
G02*
X13426580Y-9619180I150000J0D01*
G01*
D13*
X12075160Y-5702320D02*
X12075160Y-6022320D01*
X11915160Y-5862320D02*
X12235160Y-5862320D01*
X14790420Y-5692160D02*
X14790420Y-6012160D01*
X14630420Y-5852160D02*
X14950420Y-5852160D01*
X14795500Y-8958600D02*
X14795500Y-9278600D01*
X14635500Y-9118600D02*
X14955500Y-9118600D01*
D11*
X12028677Y-10463784D02*
X12028677Y-10263784D01*
X12028677Y-10263784D02*
X12076296Y-10263784D01*
X12076296Y-10263784D02*
X12104867Y-10273308D01*
X12104867Y-10273308D02*
X12123915Y-10292355D01*
X12123915Y-10292355D02*
X12133439Y-10311403D01*
X12133439Y-10311403D02*
X12142962Y-10349498D01*
X12142962Y-10349498D02*
X12142962Y-10378070D01*
X12142962Y-10378070D02*
X12133439Y-10416165D01*
X12133439Y-10416165D02*
X12123915Y-10435212D01*
X12123915Y-10435212D02*
X12104867Y-10454260D01*
X12104867Y-10454260D02*
X12076296Y-10463784D01*
X12076296Y-10463784D02*
X12028677Y-10463784D01*
X12228677Y-10463784D02*
X12228677Y-10330450D01*
X12228677Y-10368546D02*
X12238201Y-10349498D01*
X12238201Y-10349498D02*
X12247724Y-10339974D01*
X12247724Y-10339974D02*
X12266772Y-10330450D01*
X12266772Y-10330450D02*
X12285820Y-10330450D01*
X12352486Y-10463784D02*
X12352486Y-10330450D01*
X12352486Y-10263784D02*
X12342962Y-10273308D01*
X12342962Y-10273308D02*
X12352486Y-10282831D01*
X12352486Y-10282831D02*
X12362010Y-10273308D01*
X12362010Y-10273308D02*
X12352486Y-10263784D01*
X12352486Y-10263784D02*
X12352486Y-10282831D01*
X12476296Y-10463784D02*
X12457248Y-10454260D01*
X12457248Y-10454260D02*
X12447724Y-10435212D01*
X12447724Y-10435212D02*
X12447724Y-10263784D01*
X12581058Y-10463784D02*
X12562010Y-10454260D01*
X12562010Y-10454260D02*
X12552486Y-10435212D01*
X12552486Y-10435212D02*
X12552486Y-10263784D01*
X12809629Y-10463784D02*
X12809629Y-10263784D01*
X12809629Y-10263784D02*
X12876296Y-10406641D01*
X12876296Y-10406641D02*
X12942962Y-10263784D01*
X12942962Y-10263784D02*
X12942962Y-10463784D01*
X13123915Y-10463784D02*
X13123915Y-10359022D01*
X13123915Y-10359022D02*
X13114391Y-10339974D01*
X13114391Y-10339974D02*
X13095343Y-10330450D01*
X13095343Y-10330450D02*
X13057248Y-10330450D01*
X13057248Y-10330450D02*
X13038201Y-10339974D01*
X13123915Y-10454260D02*
X13104867Y-10463784D01*
X13104867Y-10463784D02*
X13057248Y-10463784D01*
X13057248Y-10463784D02*
X13038201Y-10454260D01*
X13038201Y-10454260D02*
X13028677Y-10435212D01*
X13028677Y-10435212D02*
X13028677Y-10416165D01*
X13028677Y-10416165D02*
X13038201Y-10397117D01*
X13038201Y-10397117D02*
X13057248Y-10387593D01*
X13057248Y-10387593D02*
X13104867Y-10387593D01*
X13104867Y-10387593D02*
X13123915Y-10378070D01*
X13219153Y-10330450D02*
X13219153Y-10530450D01*
X13219153Y-10339974D02*
X13238201Y-10330450D01*
X13238201Y-10330450D02*
X13276296Y-10330450D01*
X13276296Y-10330450D02*
X13295343Y-10339974D01*
X13295343Y-10339974D02*
X13304867Y-10349498D01*
X13304867Y-10349498D02*
X13314391Y-10368546D01*
X13314391Y-10368546D02*
X13314391Y-10425689D01*
X13314391Y-10425689D02*
X13304867Y-10444736D01*
X13304867Y-10444736D02*
X13295343Y-10454260D01*
X13295343Y-10454260D02*
X13276296Y-10463784D01*
X13276296Y-10463784D02*
X13238201Y-10463784D01*
X13238201Y-10463784D02*
X13219153Y-10454260D01*
X13400105Y-10444736D02*
X13409629Y-10454260D01*
X13409629Y-10454260D02*
X13400105Y-10463784D01*
X13400105Y-10463784D02*
X13390582Y-10454260D01*
X13390582Y-10454260D02*
X13400105Y-10444736D01*
X13400105Y-10444736D02*
X13400105Y-10463784D01*
X13400105Y-10339974D02*
X13409629Y-10349498D01*
X13409629Y-10349498D02*
X13400105Y-10359022D01*
X13400105Y-10359022D02*
X13390582Y-10349498D01*
X13390582Y-10349498D02*
X13400105Y-10339974D01*
X13400105Y-10339974D02*
X13400105Y-10359022D01*
D10*
X11677900Y-10747300D02*
X11767900Y-10837300D01*
X11767900Y-10747300D02*
X11677900Y-10837300D01*
D11*
X12066772Y-10683784D02*
X12085820Y-10683784D01*
X12085820Y-10683784D02*
X12104867Y-10693308D01*
X12104867Y-10693308D02*
X12114391Y-10702831D01*
X12114391Y-10702831D02*
X12123915Y-10721879D01*
X12123915Y-10721879D02*
X12133439Y-10759974D01*
X12133439Y-10759974D02*
X12133439Y-10807593D01*
X12133439Y-10807593D02*
X12123915Y-10845689D01*
X12123915Y-10845689D02*
X12114391Y-10864736D01*
X12114391Y-10864736D02*
X12104867Y-10874260D01*
X12104867Y-10874260D02*
X12085820Y-10883784D01*
X12085820Y-10883784D02*
X12066772Y-10883784D01*
X12066772Y-10883784D02*
X12047724Y-10874260D01*
X12047724Y-10874260D02*
X12038201Y-10864736D01*
X12038201Y-10864736D02*
X12028677Y-10845689D01*
X12028677Y-10845689D02*
X12019153Y-10807593D01*
X12019153Y-10807593D02*
X12019153Y-10759974D01*
X12019153Y-10759974D02*
X12028677Y-10721879D01*
X12028677Y-10721879D02*
X12038201Y-10702831D01*
X12038201Y-10702831D02*
X12047724Y-10693308D01*
X12047724Y-10693308D02*
X12066772Y-10683784D01*
X12219153Y-10864736D02*
X12228677Y-10874260D01*
X12228677Y-10874260D02*
X12219153Y-10883784D01*
X12219153Y-10883784D02*
X12209629Y-10874260D01*
X12209629Y-10874260D02*
X12219153Y-10864736D01*
X12219153Y-10864736D02*
X12219153Y-10883784D01*
X12323915Y-10883784D02*
X12362010Y-10883784D01*
X12362010Y-10883784D02*
X12381058Y-10874260D01*
X12381058Y-10874260D02*
X12390582Y-10864736D01*
X12390582Y-10864736D02*
X12409629Y-10836165D01*
X12409629Y-10836165D02*
X12419153Y-10798070D01*
X12419153Y-10798070D02*
X12419153Y-10721879D01*
X12419153Y-10721879D02*
X12409629Y-10702831D01*
X12409629Y-10702831D02*
X12400105Y-10693308D01*
X12400105Y-10693308D02*
X12381058Y-10683784D01*
X12381058Y-10683784D02*
X12342962Y-10683784D01*
X12342962Y-10683784D02*
X12323915Y-10693308D01*
X12323915Y-10693308D02*
X12314391Y-10702831D01*
X12314391Y-10702831D02*
X12304867Y-10721879D01*
X12304867Y-10721879D02*
X12304867Y-10769498D01*
X12304867Y-10769498D02*
X12314391Y-10788546D01*
X12314391Y-10788546D02*
X12323915Y-10798070D01*
X12323915Y-10798070D02*
X12342962Y-10807593D01*
X12342962Y-10807593D02*
X12381058Y-10807593D01*
X12381058Y-10807593D02*
X12400105Y-10798070D01*
X12400105Y-10798070D02*
X12409629Y-10788546D01*
X12409629Y-10788546D02*
X12419153Y-10769498D01*
X12542962Y-10683784D02*
X12562010Y-10683784D01*
X12562010Y-10683784D02*
X12581058Y-10693308D01*
X12581058Y-10693308D02*
X12590582Y-10702831D01*
X12590582Y-10702831D02*
X12600105Y-10721879D01*
X12600105Y-10721879D02*
X12609629Y-10759974D01*
X12609629Y-10759974D02*
X12609629Y-10807593D01*
X12609629Y-10807593D02*
X12600105Y-10845689D01*
X12600105Y-10845689D02*
X12590582Y-10864736D01*
X12590582Y-10864736D02*
X12581058Y-10874260D01*
X12581058Y-10874260D02*
X12562010Y-10883784D01*
X12562010Y-10883784D02*
X12542962Y-10883784D01*
X12542962Y-10883784D02*
X12523915Y-10874260D01*
X12523915Y-10874260D02*
X12514391Y-10864736D01*
X12514391Y-10864736D02*
X12504867Y-10845689D01*
X12504867Y-10845689D02*
X12495343Y-10807593D01*
X12495343Y-10807593D02*
X12495343Y-10759974D01*
X12495343Y-10759974D02*
X12504867Y-10721879D01*
X12504867Y-10721879D02*
X12514391Y-10702831D01*
X12514391Y-10702831D02*
X12523915Y-10693308D01*
X12523915Y-10693308D02*
X12542962Y-10683784D01*
X12733439Y-10683784D02*
X12752486Y-10683784D01*
X12752486Y-10683784D02*
X12771534Y-10693308D01*
X12771534Y-10693308D02*
X12781058Y-10702831D01*
X12781058Y-10702831D02*
X12790582Y-10721879D01*
X12790582Y-10721879D02*
X12800105Y-10759974D01*
X12800105Y-10759974D02*
X12800105Y-10807593D01*
X12800105Y-10807593D02*
X12790582Y-10845689D01*
X12790582Y-10845689D02*
X12781058Y-10864736D01*
X12781058Y-10864736D02*
X12771534Y-10874260D01*
X12771534Y-10874260D02*
X12752486Y-10883784D01*
X12752486Y-10883784D02*
X12733439Y-10883784D01*
X12733439Y-10883784D02*
X12714391Y-10874260D01*
X12714391Y-10874260D02*
X12704867Y-10864736D01*
X12704867Y-10864736D02*
X12695343Y-10845689D01*
X12695343Y-10845689D02*
X12685820Y-10807593D01*
X12685820Y-10807593D02*
X12685820Y-10759974D01*
X12685820Y-10759974D02*
X12695343Y-10721879D01*
X12695343Y-10721879D02*
X12704867Y-10702831D01*
X12704867Y-10702831D02*
X12714391Y-10693308D01*
X12714391Y-10693308D02*
X12733439Y-10683784D01*
X12885820Y-10883784D02*
X12885820Y-10750450D01*
X12885820Y-10769498D02*
X12895343Y-10759974D01*
X12895343Y-10759974D02*
X12914391Y-10750450D01*
X12914391Y-10750450D02*
X12942963Y-10750450D01*
X12942963Y-10750450D02*
X12962010Y-10759974D01*
X12962010Y-10759974D02*
X12971534Y-10779022D01*
X12971534Y-10779022D02*
X12971534Y-10883784D01*
X12971534Y-10779022D02*
X12981058Y-10759974D01*
X12981058Y-10759974D02*
X13000105Y-10750450D01*
X13000105Y-10750450D02*
X13028677Y-10750450D01*
X13028677Y-10750450D02*
X13047724Y-10759974D01*
X13047724Y-10759974D02*
X13057248Y-10779022D01*
X13057248Y-10779022D02*
X13057248Y-10883784D01*
X13152486Y-10883784D02*
X13152486Y-10750450D01*
X13152486Y-10769498D02*
X13162010Y-10759974D01*
X13162010Y-10759974D02*
X13181058Y-10750450D01*
X13181058Y-10750450D02*
X13209629Y-10750450D01*
X13209629Y-10750450D02*
X13228677Y-10759974D01*
X13228677Y-10759974D02*
X13238201Y-10779022D01*
X13238201Y-10779022D02*
X13238201Y-10883784D01*
X13238201Y-10779022D02*
X13247724Y-10759974D01*
X13247724Y-10759974D02*
X13266772Y-10750450D01*
X13266772Y-10750450D02*
X13295343Y-10750450D01*
X13295343Y-10750450D02*
X13314391Y-10759974D01*
X13314391Y-10759974D02*
X13323915Y-10779022D01*
X13323915Y-10779022D02*
X13323915Y-10883784D01*
X13714391Y-10674260D02*
X13542963Y-10931403D01*
X13971534Y-10683784D02*
X13990582Y-10683784D01*
X13990582Y-10683784D02*
X14009629Y-10693308D01*
X14009629Y-10693308D02*
X14019153Y-10702831D01*
X14019153Y-10702831D02*
X14028677Y-10721879D01*
X14028677Y-10721879D02*
X14038201Y-10759974D01*
X14038201Y-10759974D02*
X14038201Y-10807593D01*
X14038201Y-10807593D02*
X14028677Y-10845689D01*
X14028677Y-10845689D02*
X14019153Y-10864736D01*
X14019153Y-10864736D02*
X14009629Y-10874260D01*
X14009629Y-10874260D02*
X13990582Y-10883784D01*
X13990582Y-10883784D02*
X13971534Y-10883784D01*
X13971534Y-10883784D02*
X13952486Y-10874260D01*
X13952486Y-10874260D02*
X13942963Y-10864736D01*
X13942963Y-10864736D02*
X13933439Y-10845689D01*
X13933439Y-10845689D02*
X13923915Y-10807593D01*
X13923915Y-10807593D02*
X13923915Y-10759974D01*
X13923915Y-10759974D02*
X13933439Y-10721879D01*
X13933439Y-10721879D02*
X13942963Y-10702831D01*
X13942963Y-10702831D02*
X13952486Y-10693308D01*
X13952486Y-10693308D02*
X13971534Y-10683784D01*
X14123915Y-10864736D02*
X14133439Y-10874260D01*
X14133439Y-10874260D02*
X14123915Y-10883784D01*
X14123915Y-10883784D02*
X14114391Y-10874260D01*
X14114391Y-10874260D02*
X14123915Y-10864736D01*
X14123915Y-10864736D02*
X14123915Y-10883784D01*
X14257248Y-10683784D02*
X14276296Y-10683784D01*
X14276296Y-10683784D02*
X14295344Y-10693308D01*
X14295344Y-10693308D02*
X14304867Y-10702831D01*
X14304867Y-10702831D02*
X14314391Y-10721879D01*
X14314391Y-10721879D02*
X14323915Y-10759974D01*
X14323915Y-10759974D02*
X14323915Y-10807593D01*
X14323915Y-10807593D02*
X14314391Y-10845689D01*
X14314391Y-10845689D02*
X14304867Y-10864736D01*
X14304867Y-10864736D02*
X14295344Y-10874260D01*
X14295344Y-10874260D02*
X14276296Y-10883784D01*
X14276296Y-10883784D02*
X14257248Y-10883784D01*
X14257248Y-10883784D02*
X14238201Y-10874260D01*
X14238201Y-10874260D02*
X14228677Y-10864736D01*
X14228677Y-10864736D02*
X14219153Y-10845689D01*
X14219153Y-10845689D02*
X14209629Y-10807593D01*
X14209629Y-10807593D02*
X14209629Y-10759974D01*
X14209629Y-10759974D02*
X14219153Y-10721879D01*
X14219153Y-10721879D02*
X14228677Y-10702831D01*
X14228677Y-10702831D02*
X14238201Y-10693308D01*
X14238201Y-10693308D02*
X14257248Y-10683784D01*
X14390582Y-10683784D02*
X14514391Y-10683784D01*
X14514391Y-10683784D02*
X14447725Y-10759974D01*
X14447725Y-10759974D02*
X14476296Y-10759974D01*
X14476296Y-10759974D02*
X14495344Y-10769498D01*
X14495344Y-10769498D02*
X14504867Y-10779022D01*
X14504867Y-10779022D02*
X14514391Y-10798070D01*
X14514391Y-10798070D02*
X14514391Y-10845689D01*
X14514391Y-10845689D02*
X14504867Y-10864736D01*
X14504867Y-10864736D02*
X14495344Y-10874260D01*
X14495344Y-10874260D02*
X14476296Y-10883784D01*
X14476296Y-10883784D02*
X14419153Y-10883784D01*
X14419153Y-10883784D02*
X14400106Y-10874260D01*
X14400106Y-10874260D02*
X14390582Y-10864736D01*
X14695344Y-10683784D02*
X14600106Y-10683784D01*
X14600106Y-10683784D02*
X14590582Y-10779022D01*
X14590582Y-10779022D02*
X14600106Y-10769498D01*
X14600106Y-10769498D02*
X14619153Y-10759974D01*
X14619153Y-10759974D02*
X14666772Y-10759974D01*
X14666772Y-10759974D02*
X14685820Y-10769498D01*
X14685820Y-10769498D02*
X14695344Y-10779022D01*
X14695344Y-10779022D02*
X14704867Y-10798070D01*
X14704867Y-10798070D02*
X14704867Y-10845689D01*
X14704867Y-10845689D02*
X14695344Y-10864736D01*
X14695344Y-10864736D02*
X14685820Y-10874260D01*
X14685820Y-10874260D02*
X14666772Y-10883784D01*
X14666772Y-10883784D02*
X14619153Y-10883784D01*
X14619153Y-10883784D02*
X14600106Y-10874260D01*
X14600106Y-10874260D02*
X14590582Y-10864736D01*
X14876296Y-10750450D02*
X14876296Y-10883784D01*
X14828677Y-10674260D02*
X14781058Y-10817117D01*
X14781058Y-10817117D02*
X14904867Y-10817117D01*
X14971534Y-10683784D02*
X14971534Y-10721879D01*
X15047725Y-10683784D02*
X15047725Y-10721879D01*
X15342963Y-10959974D02*
X15333439Y-10950450D01*
X15333439Y-10950450D02*
X15314391Y-10921879D01*
X15314391Y-10921879D02*
X15304868Y-10902831D01*
X15304868Y-10902831D02*
X15295344Y-10874260D01*
X15295344Y-10874260D02*
X15285820Y-10826641D01*
X15285820Y-10826641D02*
X15285820Y-10788546D01*
X15285820Y-10788546D02*
X15295344Y-10740927D01*
X15295344Y-10740927D02*
X15304868Y-10712355D01*
X15304868Y-10712355D02*
X15314391Y-10693308D01*
X15314391Y-10693308D02*
X15333439Y-10664736D01*
X15333439Y-10664736D02*
X15342963Y-10655212D01*
X15409629Y-10702831D02*
X15419153Y-10693308D01*
X15419153Y-10693308D02*
X15438201Y-10683784D01*
X15438201Y-10683784D02*
X15485820Y-10683784D01*
X15485820Y-10683784D02*
X15504868Y-10693308D01*
X15504868Y-10693308D02*
X15514391Y-10702831D01*
X15514391Y-10702831D02*
X15523915Y-10721879D01*
X15523915Y-10721879D02*
X15523915Y-10740927D01*
X15523915Y-10740927D02*
X15514391Y-10769498D01*
X15514391Y-10769498D02*
X15400106Y-10883784D01*
X15400106Y-10883784D02*
X15523915Y-10883784D01*
X15762010Y-10883784D02*
X15762010Y-10683784D01*
X15847725Y-10883784D02*
X15847725Y-10779022D01*
X15847725Y-10779022D02*
X15838201Y-10759974D01*
X15838201Y-10759974D02*
X15819153Y-10750450D01*
X15819153Y-10750450D02*
X15790582Y-10750450D01*
X15790582Y-10750450D02*
X15771534Y-10759974D01*
X15771534Y-10759974D02*
X15762010Y-10769498D01*
X15971534Y-10883784D02*
X15952487Y-10874260D01*
X15952487Y-10874260D02*
X15942963Y-10864736D01*
X15942963Y-10864736D02*
X15933439Y-10845689D01*
X15933439Y-10845689D02*
X15933439Y-10788546D01*
X15933439Y-10788546D02*
X15942963Y-10769498D01*
X15942963Y-10769498D02*
X15952487Y-10759974D01*
X15952487Y-10759974D02*
X15971534Y-10750450D01*
X15971534Y-10750450D02*
X16000106Y-10750450D01*
X16000106Y-10750450D02*
X16019153Y-10759974D01*
X16019153Y-10759974D02*
X16028677Y-10769498D01*
X16028677Y-10769498D02*
X16038201Y-10788546D01*
X16038201Y-10788546D02*
X16038201Y-10845689D01*
X16038201Y-10845689D02*
X16028677Y-10864736D01*
X16028677Y-10864736D02*
X16019153Y-10874260D01*
X16019153Y-10874260D02*
X16000106Y-10883784D01*
X16000106Y-10883784D02*
X15971534Y-10883784D01*
X16152487Y-10883784D02*
X16133439Y-10874260D01*
X16133439Y-10874260D02*
X16123915Y-10855212D01*
X16123915Y-10855212D02*
X16123915Y-10683784D01*
X16304868Y-10874260D02*
X16285820Y-10883784D01*
X16285820Y-10883784D02*
X16247725Y-10883784D01*
X16247725Y-10883784D02*
X16228677Y-10874260D01*
X16228677Y-10874260D02*
X16219153Y-10855212D01*
X16219153Y-10855212D02*
X16219153Y-10779022D01*
X16219153Y-10779022D02*
X16228677Y-10759974D01*
X16228677Y-10759974D02*
X16247725Y-10750450D01*
X16247725Y-10750450D02*
X16285820Y-10750450D01*
X16285820Y-10750450D02*
X16304868Y-10759974D01*
X16304868Y-10759974D02*
X16314391Y-10779022D01*
X16314391Y-10779022D02*
X16314391Y-10798070D01*
X16314391Y-10798070D02*
X16219153Y-10817117D01*
X16390582Y-10874260D02*
X16409630Y-10883784D01*
X16409630Y-10883784D02*
X16447725Y-10883784D01*
X16447725Y-10883784D02*
X16466772Y-10874260D01*
X16466772Y-10874260D02*
X16476296Y-10855212D01*
X16476296Y-10855212D02*
X16476296Y-10845689D01*
X16476296Y-10845689D02*
X16466772Y-10826641D01*
X16466772Y-10826641D02*
X16447725Y-10817117D01*
X16447725Y-10817117D02*
X16419153Y-10817117D01*
X16419153Y-10817117D02*
X16400106Y-10807593D01*
X16400106Y-10807593D02*
X16390582Y-10788546D01*
X16390582Y-10788546D02*
X16390582Y-10779022D01*
X16390582Y-10779022D02*
X16400106Y-10759974D01*
X16400106Y-10759974D02*
X16419153Y-10750450D01*
X16419153Y-10750450D02*
X16447725Y-10750450D01*
X16447725Y-10750450D02*
X16466772Y-10759974D01*
X16542963Y-10959974D02*
X16552487Y-10950450D01*
X16552487Y-10950450D02*
X16571534Y-10921879D01*
X16571534Y-10921879D02*
X16581058Y-10902831D01*
X16581058Y-10902831D02*
X16590582Y-10874260D01*
X16590582Y-10874260D02*
X16600106Y-10826641D01*
X16600106Y-10826641D02*
X16600106Y-10788546D01*
X16600106Y-10788546D02*
X16590582Y-10740927D01*
X16590582Y-10740927D02*
X16581058Y-10712355D01*
X16581058Y-10712355D02*
X16571534Y-10693308D01*
X16571534Y-10693308D02*
X16552487Y-10664736D01*
X16552487Y-10664736D02*
X16542963Y-10655212D01*
X16904868Y-10959974D02*
X16895344Y-10950450D01*
X16895344Y-10950450D02*
X16876296Y-10921879D01*
X16876296Y-10921879D02*
X16866773Y-10902831D01*
X16866773Y-10902831D02*
X16857249Y-10874260D01*
X16857249Y-10874260D02*
X16847725Y-10826641D01*
X16847725Y-10826641D02*
X16847725Y-10788546D01*
X16847725Y-10788546D02*
X16857249Y-10740927D01*
X16857249Y-10740927D02*
X16866773Y-10712355D01*
X16866773Y-10712355D02*
X16876296Y-10693308D01*
X16876296Y-10693308D02*
X16895344Y-10664736D01*
X16895344Y-10664736D02*
X16904868Y-10655212D01*
X16981058Y-10750450D02*
X16981058Y-10883784D01*
X16981058Y-10769498D02*
X16990582Y-10759974D01*
X16990582Y-10759974D02*
X17009630Y-10750450D01*
X17009630Y-10750450D02*
X17038201Y-10750450D01*
X17038201Y-10750450D02*
X17057249Y-10759974D01*
X17057249Y-10759974D02*
X17066773Y-10779022D01*
X17066773Y-10779022D02*
X17066773Y-10883784D01*
X17190582Y-10883784D02*
X17171534Y-10874260D01*
X17171534Y-10874260D02*
X17162011Y-10864736D01*
X17162011Y-10864736D02*
X17152487Y-10845689D01*
X17152487Y-10845689D02*
X17152487Y-10788546D01*
X17152487Y-10788546D02*
X17162011Y-10769498D01*
X17162011Y-10769498D02*
X17171534Y-10759974D01*
X17171534Y-10759974D02*
X17190582Y-10750450D01*
X17190582Y-10750450D02*
X17219154Y-10750450D01*
X17219154Y-10750450D02*
X17238201Y-10759974D01*
X17238201Y-10759974D02*
X17247725Y-10769498D01*
X17247725Y-10769498D02*
X17257249Y-10788546D01*
X17257249Y-10788546D02*
X17257249Y-10845689D01*
X17257249Y-10845689D02*
X17247725Y-10864736D01*
X17247725Y-10864736D02*
X17238201Y-10874260D01*
X17238201Y-10874260D02*
X17219154Y-10883784D01*
X17219154Y-10883784D02*
X17190582Y-10883784D01*
X17314392Y-10750450D02*
X17390582Y-10750450D01*
X17342963Y-10683784D02*
X17342963Y-10855212D01*
X17342963Y-10855212D02*
X17352487Y-10874260D01*
X17352487Y-10874260D02*
X17371534Y-10883784D01*
X17371534Y-10883784D02*
X17390582Y-10883784D01*
X17609630Y-10750450D02*
X17609630Y-10950450D01*
X17609630Y-10759974D02*
X17628677Y-10750450D01*
X17628677Y-10750450D02*
X17666773Y-10750450D01*
X17666773Y-10750450D02*
X17685820Y-10759974D01*
X17685820Y-10759974D02*
X17695344Y-10769498D01*
X17695344Y-10769498D02*
X17704868Y-10788546D01*
X17704868Y-10788546D02*
X17704868Y-10845689D01*
X17704868Y-10845689D02*
X17695344Y-10864736D01*
X17695344Y-10864736D02*
X17685820Y-10874260D01*
X17685820Y-10874260D02*
X17666773Y-10883784D01*
X17666773Y-10883784D02*
X17628677Y-10883784D01*
X17628677Y-10883784D02*
X17609630Y-10874260D01*
X17819154Y-10883784D02*
X17800106Y-10874260D01*
X17800106Y-10874260D02*
X17790582Y-10855212D01*
X17790582Y-10855212D02*
X17790582Y-10683784D01*
X17981058Y-10883784D02*
X17981058Y-10779022D01*
X17981058Y-10779022D02*
X17971535Y-10759974D01*
X17971535Y-10759974D02*
X17952487Y-10750450D01*
X17952487Y-10750450D02*
X17914392Y-10750450D01*
X17914392Y-10750450D02*
X17895344Y-10759974D01*
X17981058Y-10874260D02*
X17962011Y-10883784D01*
X17962011Y-10883784D02*
X17914392Y-10883784D01*
X17914392Y-10883784D02*
X17895344Y-10874260D01*
X17895344Y-10874260D02*
X17885820Y-10855212D01*
X17885820Y-10855212D02*
X17885820Y-10836165D01*
X17885820Y-10836165D02*
X17895344Y-10817117D01*
X17895344Y-10817117D02*
X17914392Y-10807593D01*
X17914392Y-10807593D02*
X17962011Y-10807593D01*
X17962011Y-10807593D02*
X17981058Y-10798070D01*
X18047725Y-10750450D02*
X18123915Y-10750450D01*
X18076296Y-10683784D02*
X18076296Y-10855212D01*
X18076296Y-10855212D02*
X18085820Y-10874260D01*
X18085820Y-10874260D02*
X18104868Y-10883784D01*
X18104868Y-10883784D02*
X18123915Y-10883784D01*
X18266773Y-10874260D02*
X18247725Y-10883784D01*
X18247725Y-10883784D02*
X18209630Y-10883784D01*
X18209630Y-10883784D02*
X18190582Y-10874260D01*
X18190582Y-10874260D02*
X18181058Y-10855212D01*
X18181058Y-10855212D02*
X18181058Y-10779022D01*
X18181058Y-10779022D02*
X18190582Y-10759974D01*
X18190582Y-10759974D02*
X18209630Y-10750450D01*
X18209630Y-10750450D02*
X18247725Y-10750450D01*
X18247725Y-10750450D02*
X18266773Y-10759974D01*
X18266773Y-10759974D02*
X18276296Y-10779022D01*
X18276296Y-10779022D02*
X18276296Y-10798070D01*
X18276296Y-10798070D02*
X18181058Y-10817117D01*
X18447725Y-10883784D02*
X18447725Y-10683784D01*
X18447725Y-10874260D02*
X18428677Y-10883784D01*
X18428677Y-10883784D02*
X18390582Y-10883784D01*
X18390582Y-10883784D02*
X18371535Y-10874260D01*
X18371535Y-10874260D02*
X18362011Y-10864736D01*
X18362011Y-10864736D02*
X18352487Y-10845689D01*
X18352487Y-10845689D02*
X18352487Y-10788546D01*
X18352487Y-10788546D02*
X18362011Y-10769498D01*
X18362011Y-10769498D02*
X18371535Y-10759974D01*
X18371535Y-10759974D02*
X18390582Y-10750450D01*
X18390582Y-10750450D02*
X18428677Y-10750450D01*
X18428677Y-10750450D02*
X18447725Y-10759974D01*
X18523916Y-10959974D02*
X18533439Y-10950450D01*
X18533439Y-10950450D02*
X18552487Y-10921879D01*
X18552487Y-10921879D02*
X18562011Y-10902831D01*
X18562011Y-10902831D02*
X18571535Y-10874260D01*
X18571535Y-10874260D02*
X18581058Y-10826641D01*
X18581058Y-10826641D02*
X18581058Y-10788546D01*
X18581058Y-10788546D02*
X18571535Y-10740927D01*
X18571535Y-10740927D02*
X18562011Y-10712355D01*
X18562011Y-10712355D02*
X18552487Y-10693308D01*
X18552487Y-10693308D02*
X18533439Y-10664736D01*
X18533439Y-10664736D02*
X18523916Y-10655212D01*
X11767900Y-11056300D02*
G75*
G02*
X11567900Y-11056300I-100000J0D01*
G01*
X11567900Y-11056300D02*
G75*
G02*
X11767900Y-11056300I100000J0D01*
G01*
X12009629Y-10947784D02*
X12133439Y-10947784D01*
X12133439Y-10947784D02*
X12066772Y-11023974D01*
X12066772Y-11023974D02*
X12095343Y-11023974D01*
X12095343Y-11023974D02*
X12114391Y-11033498D01*
X12114391Y-11033498D02*
X12123915Y-11043022D01*
X12123915Y-11043022D02*
X12133439Y-11062070D01*
X12133439Y-11062070D02*
X12133439Y-11109689D01*
X12133439Y-11109689D02*
X12123915Y-11128736D01*
X12123915Y-11128736D02*
X12114391Y-11138260D01*
X12114391Y-11138260D02*
X12095343Y-11147784D01*
X12095343Y-11147784D02*
X12038201Y-11147784D01*
X12038201Y-11147784D02*
X12019153Y-11138260D01*
X12019153Y-11138260D02*
X12009629Y-11128736D01*
X12219153Y-11128736D02*
X12228677Y-11138260D01*
X12228677Y-11138260D02*
X12219153Y-11147784D01*
X12219153Y-11147784D02*
X12209629Y-11138260D01*
X12209629Y-11138260D02*
X12219153Y-11128736D01*
X12219153Y-11128736D02*
X12219153Y-11147784D01*
X12352486Y-10947784D02*
X12371534Y-10947784D01*
X12371534Y-10947784D02*
X12390582Y-10957308D01*
X12390582Y-10957308D02*
X12400105Y-10966831D01*
X12400105Y-10966831D02*
X12409629Y-10985879D01*
X12409629Y-10985879D02*
X12419153Y-11023974D01*
X12419153Y-11023974D02*
X12419153Y-11071593D01*
X12419153Y-11071593D02*
X12409629Y-11109689D01*
X12409629Y-11109689D02*
X12400105Y-11128736D01*
X12400105Y-11128736D02*
X12390582Y-11138260D01*
X12390582Y-11138260D02*
X12371534Y-11147784D01*
X12371534Y-11147784D02*
X12352486Y-11147784D01*
X12352486Y-11147784D02*
X12333439Y-11138260D01*
X12333439Y-11138260D02*
X12323915Y-11128736D01*
X12323915Y-11128736D02*
X12314391Y-11109689D01*
X12314391Y-11109689D02*
X12304867Y-11071593D01*
X12304867Y-11071593D02*
X12304867Y-11023974D01*
X12304867Y-11023974D02*
X12314391Y-10985879D01*
X12314391Y-10985879D02*
X12323915Y-10966831D01*
X12323915Y-10966831D02*
X12333439Y-10957308D01*
X12333439Y-10957308D02*
X12352486Y-10947784D01*
X12542962Y-10947784D02*
X12562010Y-10947784D01*
X12562010Y-10947784D02*
X12581058Y-10957308D01*
X12581058Y-10957308D02*
X12590582Y-10966831D01*
X12590582Y-10966831D02*
X12600105Y-10985879D01*
X12600105Y-10985879D02*
X12609629Y-11023974D01*
X12609629Y-11023974D02*
X12609629Y-11071593D01*
X12609629Y-11071593D02*
X12600105Y-11109689D01*
X12600105Y-11109689D02*
X12590582Y-11128736D01*
X12590582Y-11128736D02*
X12581058Y-11138260D01*
X12581058Y-11138260D02*
X12562010Y-11147784D01*
X12562010Y-11147784D02*
X12542962Y-11147784D01*
X12542962Y-11147784D02*
X12523915Y-11138260D01*
X12523915Y-11138260D02*
X12514391Y-11128736D01*
X12514391Y-11128736D02*
X12504867Y-11109689D01*
X12504867Y-11109689D02*
X12495343Y-11071593D01*
X12495343Y-11071593D02*
X12495343Y-11023974D01*
X12495343Y-11023974D02*
X12504867Y-10985879D01*
X12504867Y-10985879D02*
X12514391Y-10966831D01*
X12514391Y-10966831D02*
X12523915Y-10957308D01*
X12523915Y-10957308D02*
X12542962Y-10947784D01*
X12733439Y-10947784D02*
X12752486Y-10947784D01*
X12752486Y-10947784D02*
X12771534Y-10957308D01*
X12771534Y-10957308D02*
X12781058Y-10966831D01*
X12781058Y-10966831D02*
X12790582Y-10985879D01*
X12790582Y-10985879D02*
X12800105Y-11023974D01*
X12800105Y-11023974D02*
X12800105Y-11071593D01*
X12800105Y-11071593D02*
X12790582Y-11109689D01*
X12790582Y-11109689D02*
X12781058Y-11128736D01*
X12781058Y-11128736D02*
X12771534Y-11138260D01*
X12771534Y-11138260D02*
X12752486Y-11147784D01*
X12752486Y-11147784D02*
X12733439Y-11147784D01*
X12733439Y-11147784D02*
X12714391Y-11138260D01*
X12714391Y-11138260D02*
X12704867Y-11128736D01*
X12704867Y-11128736D02*
X12695343Y-11109689D01*
X12695343Y-11109689D02*
X12685820Y-11071593D01*
X12685820Y-11071593D02*
X12685820Y-11023974D01*
X12685820Y-11023974D02*
X12695343Y-10985879D01*
X12695343Y-10985879D02*
X12704867Y-10966831D01*
X12704867Y-10966831D02*
X12714391Y-10957308D01*
X12714391Y-10957308D02*
X12733439Y-10947784D01*
X12885820Y-11147784D02*
X12885820Y-11014450D01*
X12885820Y-11033498D02*
X12895343Y-11023974D01*
X12895343Y-11023974D02*
X12914391Y-11014450D01*
X12914391Y-11014450D02*
X12942963Y-11014450D01*
X12942963Y-11014450D02*
X12962010Y-11023974D01*
X12962010Y-11023974D02*
X12971534Y-11043022D01*
X12971534Y-11043022D02*
X12971534Y-11147784D01*
X12971534Y-11043022D02*
X12981058Y-11023974D01*
X12981058Y-11023974D02*
X13000105Y-11014450D01*
X13000105Y-11014450D02*
X13028677Y-11014450D01*
X13028677Y-11014450D02*
X13047724Y-11023974D01*
X13047724Y-11023974D02*
X13057248Y-11043022D01*
X13057248Y-11043022D02*
X13057248Y-11147784D01*
X13152486Y-11147784D02*
X13152486Y-11014450D01*
X13152486Y-11033498D02*
X13162010Y-11023974D01*
X13162010Y-11023974D02*
X13181058Y-11014450D01*
X13181058Y-11014450D02*
X13209629Y-11014450D01*
X13209629Y-11014450D02*
X13228677Y-11023974D01*
X13228677Y-11023974D02*
X13238201Y-11043022D01*
X13238201Y-11043022D02*
X13238201Y-11147784D01*
X13238201Y-11043022D02*
X13247724Y-11023974D01*
X13247724Y-11023974D02*
X13266772Y-11014450D01*
X13266772Y-11014450D02*
X13295343Y-11014450D01*
X13295343Y-11014450D02*
X13314391Y-11023974D01*
X13314391Y-11023974D02*
X13323915Y-11043022D01*
X13323915Y-11043022D02*
X13323915Y-11147784D01*
X13714391Y-10938260D02*
X13542963Y-11195403D01*
X13971534Y-10947784D02*
X13990582Y-10947784D01*
X13990582Y-10947784D02*
X14009629Y-10957308D01*
X14009629Y-10957308D02*
X14019153Y-10966831D01*
X14019153Y-10966831D02*
X14028677Y-10985879D01*
X14028677Y-10985879D02*
X14038201Y-11023974D01*
X14038201Y-11023974D02*
X14038201Y-11071593D01*
X14038201Y-11071593D02*
X14028677Y-11109689D01*
X14028677Y-11109689D02*
X14019153Y-11128736D01*
X14019153Y-11128736D02*
X14009629Y-11138260D01*
X14009629Y-11138260D02*
X13990582Y-11147784D01*
X13990582Y-11147784D02*
X13971534Y-11147784D01*
X13971534Y-11147784D02*
X13952486Y-11138260D01*
X13952486Y-11138260D02*
X13942963Y-11128736D01*
X13942963Y-11128736D02*
X13933439Y-11109689D01*
X13933439Y-11109689D02*
X13923915Y-11071593D01*
X13923915Y-11071593D02*
X13923915Y-11023974D01*
X13923915Y-11023974D02*
X13933439Y-10985879D01*
X13933439Y-10985879D02*
X13942963Y-10966831D01*
X13942963Y-10966831D02*
X13952486Y-10957308D01*
X13952486Y-10957308D02*
X13971534Y-10947784D01*
X14123915Y-11128736D02*
X14133439Y-11138260D01*
X14133439Y-11138260D02*
X14123915Y-11147784D01*
X14123915Y-11147784D02*
X14114391Y-11138260D01*
X14114391Y-11138260D02*
X14123915Y-11128736D01*
X14123915Y-11128736D02*
X14123915Y-11147784D01*
X14323915Y-11147784D02*
X14209629Y-11147784D01*
X14266772Y-11147784D02*
X14266772Y-10947784D01*
X14266772Y-10947784D02*
X14247725Y-10976355D01*
X14247725Y-10976355D02*
X14228677Y-10995403D01*
X14228677Y-10995403D02*
X14209629Y-11004927D01*
X14514391Y-11147784D02*
X14400106Y-11147784D01*
X14457248Y-11147784D02*
X14457248Y-10947784D01*
X14457248Y-10947784D02*
X14438201Y-10976355D01*
X14438201Y-10976355D02*
X14419153Y-10995403D01*
X14419153Y-10995403D02*
X14400106Y-11004927D01*
X14628677Y-11033498D02*
X14609629Y-11023974D01*
X14609629Y-11023974D02*
X14600106Y-11014450D01*
X14600106Y-11014450D02*
X14590582Y-10995403D01*
X14590582Y-10995403D02*
X14590582Y-10985879D01*
X14590582Y-10985879D02*
X14600106Y-10966831D01*
X14600106Y-10966831D02*
X14609629Y-10957308D01*
X14609629Y-10957308D02*
X14628677Y-10947784D01*
X14628677Y-10947784D02*
X14666772Y-10947784D01*
X14666772Y-10947784D02*
X14685820Y-10957308D01*
X14685820Y-10957308D02*
X14695344Y-10966831D01*
X14695344Y-10966831D02*
X14704867Y-10985879D01*
X14704867Y-10985879D02*
X14704867Y-10995403D01*
X14704867Y-10995403D02*
X14695344Y-11014450D01*
X14695344Y-11014450D02*
X14685820Y-11023974D01*
X14685820Y-11023974D02*
X14666772Y-11033498D01*
X14666772Y-11033498D02*
X14628677Y-11033498D01*
X14628677Y-11033498D02*
X14609629Y-11043022D01*
X14609629Y-11043022D02*
X14600106Y-11052546D01*
X14600106Y-11052546D02*
X14590582Y-11071593D01*
X14590582Y-11071593D02*
X14590582Y-11109689D01*
X14590582Y-11109689D02*
X14600106Y-11128736D01*
X14600106Y-11128736D02*
X14609629Y-11138260D01*
X14609629Y-11138260D02*
X14628677Y-11147784D01*
X14628677Y-11147784D02*
X14666772Y-11147784D01*
X14666772Y-11147784D02*
X14685820Y-11138260D01*
X14685820Y-11138260D02*
X14695344Y-11128736D01*
X14695344Y-11128736D02*
X14704867Y-11109689D01*
X14704867Y-11109689D02*
X14704867Y-11071593D01*
X14704867Y-11071593D02*
X14695344Y-11052546D01*
X14695344Y-11052546D02*
X14685820Y-11043022D01*
X14685820Y-11043022D02*
X14666772Y-11033498D01*
X14895344Y-11147784D02*
X14781058Y-11147784D01*
X14838201Y-11147784D02*
X14838201Y-10947784D01*
X14838201Y-10947784D02*
X14819153Y-10976355D01*
X14819153Y-10976355D02*
X14800106Y-10995403D01*
X14800106Y-10995403D02*
X14781058Y-11004927D01*
X14971534Y-10947784D02*
X14971534Y-10985879D01*
X15047725Y-10947784D02*
X15047725Y-10985879D01*
X15342963Y-11223974D02*
X15333439Y-11214450D01*
X15333439Y-11214450D02*
X15314391Y-11185879D01*
X15314391Y-11185879D02*
X15304868Y-11166831D01*
X15304868Y-11166831D02*
X15295344Y-11138260D01*
X15295344Y-11138260D02*
X15285820Y-11090641D01*
X15285820Y-11090641D02*
X15285820Y-11052546D01*
X15285820Y-11052546D02*
X15295344Y-11004927D01*
X15295344Y-11004927D02*
X15304868Y-10976355D01*
X15304868Y-10976355D02*
X15314391Y-10957308D01*
X15314391Y-10957308D02*
X15333439Y-10928736D01*
X15333439Y-10928736D02*
X15342963Y-10919212D01*
X15523915Y-11147784D02*
X15409629Y-11147784D01*
X15466772Y-11147784D02*
X15466772Y-10947784D01*
X15466772Y-10947784D02*
X15447725Y-10976355D01*
X15447725Y-10976355D02*
X15428677Y-10995403D01*
X15428677Y-10995403D02*
X15409629Y-11004927D01*
X15762010Y-11147784D02*
X15762010Y-10947784D01*
X15847725Y-11147784D02*
X15847725Y-11043022D01*
X15847725Y-11043022D02*
X15838201Y-11023974D01*
X15838201Y-11023974D02*
X15819153Y-11014450D01*
X15819153Y-11014450D02*
X15790582Y-11014450D01*
X15790582Y-11014450D02*
X15771534Y-11023974D01*
X15771534Y-11023974D02*
X15762010Y-11033498D01*
X15971534Y-11147784D02*
X15952487Y-11138260D01*
X15952487Y-11138260D02*
X15942963Y-11128736D01*
X15942963Y-11128736D02*
X15933439Y-11109689D01*
X15933439Y-11109689D02*
X15933439Y-11052546D01*
X15933439Y-11052546D02*
X15942963Y-11033498D01*
X15942963Y-11033498D02*
X15952487Y-11023974D01*
X15952487Y-11023974D02*
X15971534Y-11014450D01*
X15971534Y-11014450D02*
X16000106Y-11014450D01*
X16000106Y-11014450D02*
X16019153Y-11023974D01*
X16019153Y-11023974D02*
X16028677Y-11033498D01*
X16028677Y-11033498D02*
X16038201Y-11052546D01*
X16038201Y-11052546D02*
X16038201Y-11109689D01*
X16038201Y-11109689D02*
X16028677Y-11128736D01*
X16028677Y-11128736D02*
X16019153Y-11138260D01*
X16019153Y-11138260D02*
X16000106Y-11147784D01*
X16000106Y-11147784D02*
X15971534Y-11147784D01*
X16152487Y-11147784D02*
X16133439Y-11138260D01*
X16133439Y-11138260D02*
X16123915Y-11119212D01*
X16123915Y-11119212D02*
X16123915Y-10947784D01*
X16304868Y-11138260D02*
X16285820Y-11147784D01*
X16285820Y-11147784D02*
X16247725Y-11147784D01*
X16247725Y-11147784D02*
X16228677Y-11138260D01*
X16228677Y-11138260D02*
X16219153Y-11119212D01*
X16219153Y-11119212D02*
X16219153Y-11043022D01*
X16219153Y-11043022D02*
X16228677Y-11023974D01*
X16228677Y-11023974D02*
X16247725Y-11014450D01*
X16247725Y-11014450D02*
X16285820Y-11014450D01*
X16285820Y-11014450D02*
X16304868Y-11023974D01*
X16304868Y-11023974D02*
X16314391Y-11043022D01*
X16314391Y-11043022D02*
X16314391Y-11062070D01*
X16314391Y-11062070D02*
X16219153Y-11081117D01*
X16381058Y-11223974D02*
X16390582Y-11214450D01*
X16390582Y-11214450D02*
X16409630Y-11185879D01*
X16409630Y-11185879D02*
X16419153Y-11166831D01*
X16419153Y-11166831D02*
X16428677Y-11138260D01*
X16428677Y-11138260D02*
X16438201Y-11090641D01*
X16438201Y-11090641D02*
X16438201Y-11052546D01*
X16438201Y-11052546D02*
X16428677Y-11004927D01*
X16428677Y-11004927D02*
X16419153Y-10976355D01*
X16419153Y-10976355D02*
X16409630Y-10957308D01*
X16409630Y-10957308D02*
X16390582Y-10928736D01*
X16390582Y-10928736D02*
X16381058Y-10919212D01*
X16742963Y-11223974D02*
X16733439Y-11214450D01*
X16733439Y-11214450D02*
X16714391Y-11185879D01*
X16714391Y-11185879D02*
X16704868Y-11166831D01*
X16704868Y-11166831D02*
X16695344Y-11138260D01*
X16695344Y-11138260D02*
X16685820Y-11090641D01*
X16685820Y-11090641D02*
X16685820Y-11052546D01*
X16685820Y-11052546D02*
X16695344Y-11004927D01*
X16695344Y-11004927D02*
X16704868Y-10976355D01*
X16704868Y-10976355D02*
X16714391Y-10957308D01*
X16714391Y-10957308D02*
X16733439Y-10928736D01*
X16733439Y-10928736D02*
X16742963Y-10919212D01*
X16819153Y-11014450D02*
X16819153Y-11147784D01*
X16819153Y-11033498D02*
X16828677Y-11023974D01*
X16828677Y-11023974D02*
X16847725Y-11014450D01*
X16847725Y-11014450D02*
X16876296Y-11014450D01*
X16876296Y-11014450D02*
X16895344Y-11023974D01*
X16895344Y-11023974D02*
X16904868Y-11043022D01*
X16904868Y-11043022D02*
X16904868Y-11147784D01*
X17028677Y-11147784D02*
X17009630Y-11138260D01*
X17009630Y-11138260D02*
X17000106Y-11128736D01*
X17000106Y-11128736D02*
X16990582Y-11109689D01*
X16990582Y-11109689D02*
X16990582Y-11052546D01*
X16990582Y-11052546D02*
X17000106Y-11033498D01*
X17000106Y-11033498D02*
X17009630Y-11023974D01*
X17009630Y-11023974D02*
X17028677Y-11014450D01*
X17028677Y-11014450D02*
X17057249Y-11014450D01*
X17057249Y-11014450D02*
X17076296Y-11023974D01*
X17076296Y-11023974D02*
X17085820Y-11033498D01*
X17085820Y-11033498D02*
X17095344Y-11052546D01*
X17095344Y-11052546D02*
X17095344Y-11109689D01*
X17095344Y-11109689D02*
X17085820Y-11128736D01*
X17085820Y-11128736D02*
X17076296Y-11138260D01*
X17076296Y-11138260D02*
X17057249Y-11147784D01*
X17057249Y-11147784D02*
X17028677Y-11147784D01*
X17152487Y-11014450D02*
X17228677Y-11014450D01*
X17181058Y-10947784D02*
X17181058Y-11119212D01*
X17181058Y-11119212D02*
X17190582Y-11138260D01*
X17190582Y-11138260D02*
X17209630Y-11147784D01*
X17209630Y-11147784D02*
X17228677Y-11147784D01*
X17447725Y-11014450D02*
X17447725Y-11214450D01*
X17447725Y-11023974D02*
X17466773Y-11014450D01*
X17466773Y-11014450D02*
X17504868Y-11014450D01*
X17504868Y-11014450D02*
X17523915Y-11023974D01*
X17523915Y-11023974D02*
X17533439Y-11033498D01*
X17533439Y-11033498D02*
X17542963Y-11052546D01*
X17542963Y-11052546D02*
X17542963Y-11109689D01*
X17542963Y-11109689D02*
X17533439Y-11128736D01*
X17533439Y-11128736D02*
X17523915Y-11138260D01*
X17523915Y-11138260D02*
X17504868Y-11147784D01*
X17504868Y-11147784D02*
X17466773Y-11147784D01*
X17466773Y-11147784D02*
X17447725Y-11138260D01*
X17657249Y-11147784D02*
X17638201Y-11138260D01*
X17638201Y-11138260D02*
X17628677Y-11119212D01*
X17628677Y-11119212D02*
X17628677Y-10947784D01*
X17819154Y-11147784D02*
X17819154Y-11043022D01*
X17819154Y-11043022D02*
X17809630Y-11023974D01*
X17809630Y-11023974D02*
X17790582Y-11014450D01*
X17790582Y-11014450D02*
X17752487Y-11014450D01*
X17752487Y-11014450D02*
X17733439Y-11023974D01*
X17819154Y-11138260D02*
X17800106Y-11147784D01*
X17800106Y-11147784D02*
X17752487Y-11147784D01*
X17752487Y-11147784D02*
X17733439Y-11138260D01*
X17733439Y-11138260D02*
X17723915Y-11119212D01*
X17723915Y-11119212D02*
X17723915Y-11100165D01*
X17723915Y-11100165D02*
X17733439Y-11081117D01*
X17733439Y-11081117D02*
X17752487Y-11071593D01*
X17752487Y-11071593D02*
X17800106Y-11071593D01*
X17800106Y-11071593D02*
X17819154Y-11062070D01*
X17885820Y-11014450D02*
X17962011Y-11014450D01*
X17914392Y-10947784D02*
X17914392Y-11119212D01*
X17914392Y-11119212D02*
X17923915Y-11138260D01*
X17923915Y-11138260D02*
X17942963Y-11147784D01*
X17942963Y-11147784D02*
X17962011Y-11147784D01*
X18104868Y-11138260D02*
X18085820Y-11147784D01*
X18085820Y-11147784D02*
X18047725Y-11147784D01*
X18047725Y-11147784D02*
X18028677Y-11138260D01*
X18028677Y-11138260D02*
X18019154Y-11119212D01*
X18019154Y-11119212D02*
X18019154Y-11043022D01*
X18019154Y-11043022D02*
X18028677Y-11023974D01*
X18028677Y-11023974D02*
X18047725Y-11014450D01*
X18047725Y-11014450D02*
X18085820Y-11014450D01*
X18085820Y-11014450D02*
X18104868Y-11023974D01*
X18104868Y-11023974D02*
X18114392Y-11043022D01*
X18114392Y-11043022D02*
X18114392Y-11062070D01*
X18114392Y-11062070D02*
X18019154Y-11081117D01*
X18285820Y-11147784D02*
X18285820Y-10947784D01*
X18285820Y-11138260D02*
X18266773Y-11147784D01*
X18266773Y-11147784D02*
X18228677Y-11147784D01*
X18228677Y-11147784D02*
X18209630Y-11138260D01*
X18209630Y-11138260D02*
X18200106Y-11128736D01*
X18200106Y-11128736D02*
X18190582Y-11109689D01*
X18190582Y-11109689D02*
X18190582Y-11052546D01*
X18190582Y-11052546D02*
X18200106Y-11033498D01*
X18200106Y-11033498D02*
X18209630Y-11023974D01*
X18209630Y-11023974D02*
X18228677Y-11014450D01*
X18228677Y-11014450D02*
X18266773Y-11014450D01*
X18266773Y-11014450D02*
X18285820Y-11023974D01*
X18362011Y-11223974D02*
X18371535Y-11214450D01*
X18371535Y-11214450D02*
X18390582Y-11185879D01*
X18390582Y-11185879D02*
X18400106Y-11166831D01*
X18400106Y-11166831D02*
X18409630Y-11138260D01*
X18409630Y-11138260D02*
X18419154Y-11090641D01*
X18419154Y-11090641D02*
X18419154Y-11052546D01*
X18419154Y-11052546D02*
X18409630Y-11004927D01*
X18409630Y-11004927D02*
X18400106Y-10976355D01*
X18400106Y-10976355D02*
X18390582Y-10957308D01*
X18390582Y-10957308D02*
X18371535Y-10928736D01*
X18371535Y-10928736D02*
X18362011Y-10919212D01*
X11667900Y-11276300D02*
X11667900Y-11476300D01*
X11567900Y-11376300D02*
X11767900Y-11376300D01*
X12009629Y-11267784D02*
X12133439Y-11267784D01*
X12133439Y-11267784D02*
X12066772Y-11343974D01*
X12066772Y-11343974D02*
X12095343Y-11343974D01*
X12095343Y-11343974D02*
X12114391Y-11353498D01*
X12114391Y-11353498D02*
X12123915Y-11363022D01*
X12123915Y-11363022D02*
X12133439Y-11382069D01*
X12133439Y-11382069D02*
X12133439Y-11429688D01*
X12133439Y-11429688D02*
X12123915Y-11448736D01*
X12123915Y-11448736D02*
X12114391Y-11458260D01*
X12114391Y-11458260D02*
X12095343Y-11467784D01*
X12095343Y-11467784D02*
X12038201Y-11467784D01*
X12038201Y-11467784D02*
X12019153Y-11458260D01*
X12019153Y-11458260D02*
X12009629Y-11448736D01*
X12219153Y-11448736D02*
X12228677Y-11458260D01*
X12228677Y-11458260D02*
X12219153Y-11467784D01*
X12219153Y-11467784D02*
X12209629Y-11458260D01*
X12209629Y-11458260D02*
X12219153Y-11448736D01*
X12219153Y-11448736D02*
X12219153Y-11467784D01*
X12304867Y-11286831D02*
X12314391Y-11277308D01*
X12314391Y-11277308D02*
X12333439Y-11267784D01*
X12333439Y-11267784D02*
X12381058Y-11267784D01*
X12381058Y-11267784D02*
X12400105Y-11277308D01*
X12400105Y-11277308D02*
X12409629Y-11286831D01*
X12409629Y-11286831D02*
X12419153Y-11305879D01*
X12419153Y-11305879D02*
X12419153Y-11324927D01*
X12419153Y-11324927D02*
X12409629Y-11353498D01*
X12409629Y-11353498D02*
X12295343Y-11467784D01*
X12295343Y-11467784D02*
X12419153Y-11467784D01*
X12542962Y-11267784D02*
X12562010Y-11267784D01*
X12562010Y-11267784D02*
X12581058Y-11277308D01*
X12581058Y-11277308D02*
X12590582Y-11286831D01*
X12590582Y-11286831D02*
X12600105Y-11305879D01*
X12600105Y-11305879D02*
X12609629Y-11343974D01*
X12609629Y-11343974D02*
X12609629Y-11391593D01*
X12609629Y-11391593D02*
X12600105Y-11429688D01*
X12600105Y-11429688D02*
X12590582Y-11448736D01*
X12590582Y-11448736D02*
X12581058Y-11458260D01*
X12581058Y-11458260D02*
X12562010Y-11467784D01*
X12562010Y-11467784D02*
X12542962Y-11467784D01*
X12542962Y-11467784D02*
X12523915Y-11458260D01*
X12523915Y-11458260D02*
X12514391Y-11448736D01*
X12514391Y-11448736D02*
X12504867Y-11429688D01*
X12504867Y-11429688D02*
X12495343Y-11391593D01*
X12495343Y-11391593D02*
X12495343Y-11343974D01*
X12495343Y-11343974D02*
X12504867Y-11305879D01*
X12504867Y-11305879D02*
X12514391Y-11286831D01*
X12514391Y-11286831D02*
X12523915Y-11277308D01*
X12523915Y-11277308D02*
X12542962Y-11267784D01*
X12733439Y-11267784D02*
X12752486Y-11267784D01*
X12752486Y-11267784D02*
X12771534Y-11277308D01*
X12771534Y-11277308D02*
X12781058Y-11286831D01*
X12781058Y-11286831D02*
X12790582Y-11305879D01*
X12790582Y-11305879D02*
X12800105Y-11343974D01*
X12800105Y-11343974D02*
X12800105Y-11391593D01*
X12800105Y-11391593D02*
X12790582Y-11429688D01*
X12790582Y-11429688D02*
X12781058Y-11448736D01*
X12781058Y-11448736D02*
X12771534Y-11458260D01*
X12771534Y-11458260D02*
X12752486Y-11467784D01*
X12752486Y-11467784D02*
X12733439Y-11467784D01*
X12733439Y-11467784D02*
X12714391Y-11458260D01*
X12714391Y-11458260D02*
X12704867Y-11448736D01*
X12704867Y-11448736D02*
X12695343Y-11429688D01*
X12695343Y-11429688D02*
X12685820Y-11391593D01*
X12685820Y-11391593D02*
X12685820Y-11343974D01*
X12685820Y-11343974D02*
X12695343Y-11305879D01*
X12695343Y-11305879D02*
X12704867Y-11286831D01*
X12704867Y-11286831D02*
X12714391Y-11277308D01*
X12714391Y-11277308D02*
X12733439Y-11267784D01*
X12885820Y-11467784D02*
X12885820Y-11334450D01*
X12885820Y-11353498D02*
X12895343Y-11343974D01*
X12895343Y-11343974D02*
X12914391Y-11334450D01*
X12914391Y-11334450D02*
X12942963Y-11334450D01*
X12942963Y-11334450D02*
X12962010Y-11343974D01*
X12962010Y-11343974D02*
X12971534Y-11363022D01*
X12971534Y-11363022D02*
X12971534Y-11467784D01*
X12971534Y-11363022D02*
X12981058Y-11343974D01*
X12981058Y-11343974D02*
X13000105Y-11334450D01*
X13000105Y-11334450D02*
X13028677Y-11334450D01*
X13028677Y-11334450D02*
X13047724Y-11343974D01*
X13047724Y-11343974D02*
X13057248Y-11363022D01*
X13057248Y-11363022D02*
X13057248Y-11467784D01*
X13152486Y-11467784D02*
X13152486Y-11334450D01*
X13152486Y-11353498D02*
X13162010Y-11343974D01*
X13162010Y-11343974D02*
X13181058Y-11334450D01*
X13181058Y-11334450D02*
X13209629Y-11334450D01*
X13209629Y-11334450D02*
X13228677Y-11343974D01*
X13228677Y-11343974D02*
X13238201Y-11363022D01*
X13238201Y-11363022D02*
X13238201Y-11467784D01*
X13238201Y-11363022D02*
X13247724Y-11343974D01*
X13247724Y-11343974D02*
X13266772Y-11334450D01*
X13266772Y-11334450D02*
X13295343Y-11334450D01*
X13295343Y-11334450D02*
X13314391Y-11343974D01*
X13314391Y-11343974D02*
X13323915Y-11363022D01*
X13323915Y-11363022D02*
X13323915Y-11467784D01*
X13714391Y-11258260D02*
X13542963Y-11515403D01*
X13971534Y-11267784D02*
X13990582Y-11267784D01*
X13990582Y-11267784D02*
X14009629Y-11277308D01*
X14009629Y-11277308D02*
X14019153Y-11286831D01*
X14019153Y-11286831D02*
X14028677Y-11305879D01*
X14028677Y-11305879D02*
X14038201Y-11343974D01*
X14038201Y-11343974D02*
X14038201Y-11391593D01*
X14038201Y-11391593D02*
X14028677Y-11429688D01*
X14028677Y-11429688D02*
X14019153Y-11448736D01*
X14019153Y-11448736D02*
X14009629Y-11458260D01*
X14009629Y-11458260D02*
X13990582Y-11467784D01*
X13990582Y-11467784D02*
X13971534Y-11467784D01*
X13971534Y-11467784D02*
X13952486Y-11458260D01*
X13952486Y-11458260D02*
X13942963Y-11448736D01*
X13942963Y-11448736D02*
X13933439Y-11429688D01*
X13933439Y-11429688D02*
X13923915Y-11391593D01*
X13923915Y-11391593D02*
X13923915Y-11343974D01*
X13923915Y-11343974D02*
X13933439Y-11305879D01*
X13933439Y-11305879D02*
X13942963Y-11286831D01*
X13942963Y-11286831D02*
X13952486Y-11277308D01*
X13952486Y-11277308D02*
X13971534Y-11267784D01*
X14123915Y-11448736D02*
X14133439Y-11458260D01*
X14133439Y-11458260D02*
X14123915Y-11467784D01*
X14123915Y-11467784D02*
X14114391Y-11458260D01*
X14114391Y-11458260D02*
X14123915Y-11448736D01*
X14123915Y-11448736D02*
X14123915Y-11467784D01*
X14323915Y-11467784D02*
X14209629Y-11467784D01*
X14266772Y-11467784D02*
X14266772Y-11267784D01*
X14266772Y-11267784D02*
X14247725Y-11296355D01*
X14247725Y-11296355D02*
X14228677Y-11315403D01*
X14228677Y-11315403D02*
X14209629Y-11324927D01*
X14400106Y-11286831D02*
X14409629Y-11277308D01*
X14409629Y-11277308D02*
X14428677Y-11267784D01*
X14428677Y-11267784D02*
X14476296Y-11267784D01*
X14476296Y-11267784D02*
X14495344Y-11277308D01*
X14495344Y-11277308D02*
X14504867Y-11286831D01*
X14504867Y-11286831D02*
X14514391Y-11305879D01*
X14514391Y-11305879D02*
X14514391Y-11324927D01*
X14514391Y-11324927D02*
X14504867Y-11353498D01*
X14504867Y-11353498D02*
X14390582Y-11467784D01*
X14390582Y-11467784D02*
X14514391Y-11467784D01*
X14685820Y-11267784D02*
X14647725Y-11267784D01*
X14647725Y-11267784D02*
X14628677Y-11277308D01*
X14628677Y-11277308D02*
X14619153Y-11286831D01*
X14619153Y-11286831D02*
X14600106Y-11315403D01*
X14600106Y-11315403D02*
X14590582Y-11353498D01*
X14590582Y-11353498D02*
X14590582Y-11429688D01*
X14590582Y-11429688D02*
X14600106Y-11448736D01*
X14600106Y-11448736D02*
X14609629Y-11458260D01*
X14609629Y-11458260D02*
X14628677Y-11467784D01*
X14628677Y-11467784D02*
X14666772Y-11467784D01*
X14666772Y-11467784D02*
X14685820Y-11458260D01*
X14685820Y-11458260D02*
X14695344Y-11448736D01*
X14695344Y-11448736D02*
X14704867Y-11429688D01*
X14704867Y-11429688D02*
X14704867Y-11382069D01*
X14704867Y-11382069D02*
X14695344Y-11363022D01*
X14695344Y-11363022D02*
X14685820Y-11353498D01*
X14685820Y-11353498D02*
X14666772Y-11343974D01*
X14666772Y-11343974D02*
X14628677Y-11343974D01*
X14628677Y-11343974D02*
X14609629Y-11353498D01*
X14609629Y-11353498D02*
X14600106Y-11363022D01*
X14600106Y-11363022D02*
X14590582Y-11382069D01*
X14828677Y-11267784D02*
X14847725Y-11267784D01*
X14847725Y-11267784D02*
X14866772Y-11277308D01*
X14866772Y-11277308D02*
X14876296Y-11286831D01*
X14876296Y-11286831D02*
X14885820Y-11305879D01*
X14885820Y-11305879D02*
X14895344Y-11343974D01*
X14895344Y-11343974D02*
X14895344Y-11391593D01*
X14895344Y-11391593D02*
X14885820Y-11429688D01*
X14885820Y-11429688D02*
X14876296Y-11448736D01*
X14876296Y-11448736D02*
X14866772Y-11458260D01*
X14866772Y-11458260D02*
X14847725Y-11467784D01*
X14847725Y-11467784D02*
X14828677Y-11467784D01*
X14828677Y-11467784D02*
X14809629Y-11458260D01*
X14809629Y-11458260D02*
X14800106Y-11448736D01*
X14800106Y-11448736D02*
X14790582Y-11429688D01*
X14790582Y-11429688D02*
X14781058Y-11391593D01*
X14781058Y-11391593D02*
X14781058Y-11343974D01*
X14781058Y-11343974D02*
X14790582Y-11305879D01*
X14790582Y-11305879D02*
X14800106Y-11286831D01*
X14800106Y-11286831D02*
X14809629Y-11277308D01*
X14809629Y-11277308D02*
X14828677Y-11267784D01*
X14971534Y-11267784D02*
X14971534Y-11305879D01*
X15047725Y-11267784D02*
X15047725Y-11305879D01*
X15342963Y-11543974D02*
X15333439Y-11534450D01*
X15333439Y-11534450D02*
X15314391Y-11505879D01*
X15314391Y-11505879D02*
X15304868Y-11486831D01*
X15304868Y-11486831D02*
X15295344Y-11458260D01*
X15295344Y-11458260D02*
X15285820Y-11410641D01*
X15285820Y-11410641D02*
X15285820Y-11372546D01*
X15285820Y-11372546D02*
X15295344Y-11324927D01*
X15295344Y-11324927D02*
X15304868Y-11296355D01*
X15304868Y-11296355D02*
X15314391Y-11277308D01*
X15314391Y-11277308D02*
X15333439Y-11248736D01*
X15333439Y-11248736D02*
X15342963Y-11239212D01*
X15400106Y-11267784D02*
X15523915Y-11267784D01*
X15523915Y-11267784D02*
X15457248Y-11343974D01*
X15457248Y-11343974D02*
X15485820Y-11343974D01*
X15485820Y-11343974D02*
X15504868Y-11353498D01*
X15504868Y-11353498D02*
X15514391Y-11363022D01*
X15514391Y-11363022D02*
X15523915Y-11382069D01*
X15523915Y-11382069D02*
X15523915Y-11429688D01*
X15523915Y-11429688D02*
X15514391Y-11448736D01*
X15514391Y-11448736D02*
X15504868Y-11458260D01*
X15504868Y-11458260D02*
X15485820Y-11467784D01*
X15485820Y-11467784D02*
X15428677Y-11467784D01*
X15428677Y-11467784D02*
X15409629Y-11458260D01*
X15409629Y-11458260D02*
X15400106Y-11448736D01*
X15762010Y-11467784D02*
X15762010Y-11267784D01*
X15847725Y-11467784D02*
X15847725Y-11363022D01*
X15847725Y-11363022D02*
X15838201Y-11343974D01*
X15838201Y-11343974D02*
X15819153Y-11334450D01*
X15819153Y-11334450D02*
X15790582Y-11334450D01*
X15790582Y-11334450D02*
X15771534Y-11343974D01*
X15771534Y-11343974D02*
X15762010Y-11353498D01*
X15971534Y-11467784D02*
X15952487Y-11458260D01*
X15952487Y-11458260D02*
X15942963Y-11448736D01*
X15942963Y-11448736D02*
X15933439Y-11429688D01*
X15933439Y-11429688D02*
X15933439Y-11372546D01*
X15933439Y-11372546D02*
X15942963Y-11353498D01*
X15942963Y-11353498D02*
X15952487Y-11343974D01*
X15952487Y-11343974D02*
X15971534Y-11334450D01*
X15971534Y-11334450D02*
X16000106Y-11334450D01*
X16000106Y-11334450D02*
X16019153Y-11343974D01*
X16019153Y-11343974D02*
X16028677Y-11353498D01*
X16028677Y-11353498D02*
X16038201Y-11372546D01*
X16038201Y-11372546D02*
X16038201Y-11429688D01*
X16038201Y-11429688D02*
X16028677Y-11448736D01*
X16028677Y-11448736D02*
X16019153Y-11458260D01*
X16019153Y-11458260D02*
X16000106Y-11467784D01*
X16000106Y-11467784D02*
X15971534Y-11467784D01*
X16152487Y-11467784D02*
X16133439Y-11458260D01*
X16133439Y-11458260D02*
X16123915Y-11439212D01*
X16123915Y-11439212D02*
X16123915Y-11267784D01*
X16304868Y-11458260D02*
X16285820Y-11467784D01*
X16285820Y-11467784D02*
X16247725Y-11467784D01*
X16247725Y-11467784D02*
X16228677Y-11458260D01*
X16228677Y-11458260D02*
X16219153Y-11439212D01*
X16219153Y-11439212D02*
X16219153Y-11363022D01*
X16219153Y-11363022D02*
X16228677Y-11343974D01*
X16228677Y-11343974D02*
X16247725Y-11334450D01*
X16247725Y-11334450D02*
X16285820Y-11334450D01*
X16285820Y-11334450D02*
X16304868Y-11343974D01*
X16304868Y-11343974D02*
X16314391Y-11363022D01*
X16314391Y-11363022D02*
X16314391Y-11382069D01*
X16314391Y-11382069D02*
X16219153Y-11401117D01*
X16390582Y-11458260D02*
X16409630Y-11467784D01*
X16409630Y-11467784D02*
X16447725Y-11467784D01*
X16447725Y-11467784D02*
X16466772Y-11458260D01*
X16466772Y-11458260D02*
X16476296Y-11439212D01*
X16476296Y-11439212D02*
X16476296Y-11429688D01*
X16476296Y-11429688D02*
X16466772Y-11410641D01*
X16466772Y-11410641D02*
X16447725Y-11401117D01*
X16447725Y-11401117D02*
X16419153Y-11401117D01*
X16419153Y-11401117D02*
X16400106Y-11391593D01*
X16400106Y-11391593D02*
X16390582Y-11372546D01*
X16390582Y-11372546D02*
X16390582Y-11363022D01*
X16390582Y-11363022D02*
X16400106Y-11343974D01*
X16400106Y-11343974D02*
X16419153Y-11334450D01*
X16419153Y-11334450D02*
X16447725Y-11334450D01*
X16447725Y-11334450D02*
X16466772Y-11343974D01*
X16542963Y-11543974D02*
X16552487Y-11534450D01*
X16552487Y-11534450D02*
X16571534Y-11505879D01*
X16571534Y-11505879D02*
X16581058Y-11486831D01*
X16581058Y-11486831D02*
X16590582Y-11458260D01*
X16590582Y-11458260D02*
X16600106Y-11410641D01*
X16600106Y-11410641D02*
X16600106Y-11372546D01*
X16600106Y-11372546D02*
X16590582Y-11324927D01*
X16590582Y-11324927D02*
X16581058Y-11296355D01*
X16581058Y-11296355D02*
X16571534Y-11277308D01*
X16571534Y-11277308D02*
X16552487Y-11248736D01*
X16552487Y-11248736D02*
X16542963Y-11239212D01*
X16904868Y-11543974D02*
X16895344Y-11534450D01*
X16895344Y-11534450D02*
X16876296Y-11505879D01*
X16876296Y-11505879D02*
X16866773Y-11486831D01*
X16866773Y-11486831D02*
X16857249Y-11458260D01*
X16857249Y-11458260D02*
X16847725Y-11410641D01*
X16847725Y-11410641D02*
X16847725Y-11372546D01*
X16847725Y-11372546D02*
X16857249Y-11324927D01*
X16857249Y-11324927D02*
X16866773Y-11296355D01*
X16866773Y-11296355D02*
X16876296Y-11277308D01*
X16876296Y-11277308D02*
X16895344Y-11248736D01*
X16895344Y-11248736D02*
X16904868Y-11239212D01*
X16981058Y-11334450D02*
X16981058Y-11467784D01*
X16981058Y-11353498D02*
X16990582Y-11343974D01*
X16990582Y-11343974D02*
X17009630Y-11334450D01*
X17009630Y-11334450D02*
X17038201Y-11334450D01*
X17038201Y-11334450D02*
X17057249Y-11343974D01*
X17057249Y-11343974D02*
X17066773Y-11363022D01*
X17066773Y-11363022D02*
X17066773Y-11467784D01*
X17190582Y-11467784D02*
X17171534Y-11458260D01*
X17171534Y-11458260D02*
X17162011Y-11448736D01*
X17162011Y-11448736D02*
X17152487Y-11429688D01*
X17152487Y-11429688D02*
X17152487Y-11372546D01*
X17152487Y-11372546D02*
X17162011Y-11353498D01*
X17162011Y-11353498D02*
X17171534Y-11343974D01*
X17171534Y-11343974D02*
X17190582Y-11334450D01*
X17190582Y-11334450D02*
X17219154Y-11334450D01*
X17219154Y-11334450D02*
X17238201Y-11343974D01*
X17238201Y-11343974D02*
X17247725Y-11353498D01*
X17247725Y-11353498D02*
X17257249Y-11372546D01*
X17257249Y-11372546D02*
X17257249Y-11429688D01*
X17257249Y-11429688D02*
X17247725Y-11448736D01*
X17247725Y-11448736D02*
X17238201Y-11458260D01*
X17238201Y-11458260D02*
X17219154Y-11467784D01*
X17219154Y-11467784D02*
X17190582Y-11467784D01*
X17314392Y-11334450D02*
X17390582Y-11334450D01*
X17342963Y-11267784D02*
X17342963Y-11439212D01*
X17342963Y-11439212D02*
X17352487Y-11458260D01*
X17352487Y-11458260D02*
X17371534Y-11467784D01*
X17371534Y-11467784D02*
X17390582Y-11467784D01*
X17609630Y-11334450D02*
X17609630Y-11534450D01*
X17609630Y-11343974D02*
X17628677Y-11334450D01*
X17628677Y-11334450D02*
X17666773Y-11334450D01*
X17666773Y-11334450D02*
X17685820Y-11343974D01*
X17685820Y-11343974D02*
X17695344Y-11353498D01*
X17695344Y-11353498D02*
X17704868Y-11372546D01*
X17704868Y-11372546D02*
X17704868Y-11429688D01*
X17704868Y-11429688D02*
X17695344Y-11448736D01*
X17695344Y-11448736D02*
X17685820Y-11458260D01*
X17685820Y-11458260D02*
X17666773Y-11467784D01*
X17666773Y-11467784D02*
X17628677Y-11467784D01*
X17628677Y-11467784D02*
X17609630Y-11458260D01*
X17819154Y-11467784D02*
X17800106Y-11458260D01*
X17800106Y-11458260D02*
X17790582Y-11439212D01*
X17790582Y-11439212D02*
X17790582Y-11267784D01*
X17981058Y-11467784D02*
X17981058Y-11363022D01*
X17981058Y-11363022D02*
X17971535Y-11343974D01*
X17971535Y-11343974D02*
X17952487Y-11334450D01*
X17952487Y-11334450D02*
X17914392Y-11334450D01*
X17914392Y-11334450D02*
X17895344Y-11343974D01*
X17981058Y-11458260D02*
X17962011Y-11467784D01*
X17962011Y-11467784D02*
X17914392Y-11467784D01*
X17914392Y-11467784D02*
X17895344Y-11458260D01*
X17895344Y-11458260D02*
X17885820Y-11439212D01*
X17885820Y-11439212D02*
X17885820Y-11420165D01*
X17885820Y-11420165D02*
X17895344Y-11401117D01*
X17895344Y-11401117D02*
X17914392Y-11391593D01*
X17914392Y-11391593D02*
X17962011Y-11391593D01*
X17962011Y-11391593D02*
X17981058Y-11382069D01*
X18047725Y-11334450D02*
X18123915Y-11334450D01*
X18076296Y-11267784D02*
X18076296Y-11439212D01*
X18076296Y-11439212D02*
X18085820Y-11458260D01*
X18085820Y-11458260D02*
X18104868Y-11467784D01*
X18104868Y-11467784D02*
X18123915Y-11467784D01*
X18266773Y-11458260D02*
X18247725Y-11467784D01*
X18247725Y-11467784D02*
X18209630Y-11467784D01*
X18209630Y-11467784D02*
X18190582Y-11458260D01*
X18190582Y-11458260D02*
X18181058Y-11439212D01*
X18181058Y-11439212D02*
X18181058Y-11363022D01*
X18181058Y-11363022D02*
X18190582Y-11343974D01*
X18190582Y-11343974D02*
X18209630Y-11334450D01*
X18209630Y-11334450D02*
X18247725Y-11334450D01*
X18247725Y-11334450D02*
X18266773Y-11343974D01*
X18266773Y-11343974D02*
X18276296Y-11363022D01*
X18276296Y-11363022D02*
X18276296Y-11382069D01*
X18276296Y-11382069D02*
X18181058Y-11401117D01*
X18447725Y-11467784D02*
X18447725Y-11267784D01*
X18447725Y-11458260D02*
X18428677Y-11467784D01*
X18428677Y-11467784D02*
X18390582Y-11467784D01*
X18390582Y-11467784D02*
X18371535Y-11458260D01*
X18371535Y-11458260D02*
X18362011Y-11448736D01*
X18362011Y-11448736D02*
X18352487Y-11429688D01*
X18352487Y-11429688D02*
X18352487Y-11372546D01*
X18352487Y-11372546D02*
X18362011Y-11353498D01*
X18362011Y-11353498D02*
X18371535Y-11343974D01*
X18371535Y-11343974D02*
X18390582Y-11334450D01*
X18390582Y-11334450D02*
X18428677Y-11334450D01*
X18428677Y-11334450D02*
X18447725Y-11343974D01*
X18523916Y-11543974D02*
X18533439Y-11534450D01*
X18533439Y-11534450D02*
X18552487Y-11505879D01*
X18552487Y-11505879D02*
X18562011Y-11486831D01*
X18562011Y-11486831D02*
X18571535Y-11458260D01*
X18571535Y-11458260D02*
X18581058Y-11410641D01*
X18581058Y-11410641D02*
X18581058Y-11372546D01*
X18581058Y-11372546D02*
X18571535Y-11324927D01*
X18571535Y-11324927D02*
X18562011Y-11296355D01*
X18562011Y-11296355D02*
X18552487Y-11277308D01*
X18552487Y-11277308D02*
X18533439Y-11248736D01*
X18533439Y-11248736D02*
X18523916Y-11239212D01*
M02*
