%TF.GenerationSoftware,KiCad,Pcbnew,8.0.2-8.0.2-0~ubuntu22.04.1*%
%TF.CreationDate,2024-05-08T22:35:15+02:00*%
%TF.ProjectId,MailBox_LP_Notifier,4d61696c-426f-4785-9f4c-505f4e6f7469,rev?*%
%TF.SameCoordinates,Original*%
%TF.FileFunction,Drillmap*%
%TF.FilePolarity,Positive*%
%FSLAX45Y45*%
G04 Gerber Fmt 4.5, Leading zero omitted, Abs format (unit mm)*
G04 Created by KiCad (PCBNEW 8.0.2-8.0.2-0~ubuntu22.04.1) date 2024-05-08 22:35:15*
%MOMM*%
%LPD*%
G01*
G04 APERTURE LIST*
%ADD10C,0.100000*%
%ADD11C,0.200000*%
%ADD12C,0.102000*%
G04 APERTURE END LIST*
D10*
X11772900Y-10147300D02*
X11777980Y-5542280D01*
X15095220Y-5542280D02*
X15097760Y-10147300D01*
X11777980Y-5542280D02*
X15095220Y-5542280D01*
X15097760Y-10147300D02*
X11772900Y-10147300D01*
D11*
D10*
X13469100Y-6954290D02*
X13489100Y-6974290D01*
X13489100Y-6954290D02*
X13469100Y-6974290D01*
X13469100Y-7106790D02*
X13489100Y-7126790D01*
X13489100Y-7106790D02*
X13469100Y-7126790D01*
X13545350Y-6878040D02*
X13565350Y-6898040D01*
X13565350Y-6878040D02*
X13545350Y-6898040D01*
X13545350Y-7030540D02*
X13565350Y-7050540D01*
X13565350Y-7030540D02*
X13545350Y-7050540D01*
X13545350Y-7183040D02*
X13565350Y-7203040D01*
X13565350Y-7183040D02*
X13545350Y-7203040D01*
X13621600Y-6954290D02*
X13641600Y-6974290D01*
X13641600Y-6954290D02*
X13621600Y-6974290D01*
X13621600Y-7106790D02*
X13641600Y-7126790D01*
X13641600Y-7106790D02*
X13621600Y-7126790D01*
X13697850Y-6878040D02*
X13717850Y-6898040D01*
X13717850Y-6878040D02*
X13697850Y-6898040D01*
X13697850Y-7030540D02*
X13717850Y-7050540D01*
X13717850Y-7030540D02*
X13697850Y-7050540D01*
X13697850Y-7183040D02*
X13717850Y-7203040D01*
X13717850Y-7183040D02*
X13697850Y-7203040D01*
X13774100Y-6954290D02*
X13794100Y-6974290D01*
X13794100Y-6954290D02*
X13774100Y-6974290D01*
X13774100Y-7106790D02*
X13794100Y-7126790D01*
X13794100Y-7106790D02*
X13774100Y-7126790D01*
X11927520Y-7950200D02*
G75*
G02*
X11887520Y-7950200I-20000J0D01*
G01*
X11887520Y-7950200D02*
G75*
G02*
X11927520Y-7950200I20000J0D01*
G01*
X11930060Y-7447280D02*
G75*
G02*
X11890060Y-7447280I-20000J0D01*
G01*
X11890060Y-7447280D02*
G75*
G02*
X11930060Y-7447280I20000J0D01*
G01*
X12119320Y-7875240D02*
G75*
G02*
X12079320Y-7875240I-20000J0D01*
G01*
X12079320Y-7875240D02*
G75*
G02*
X12119320Y-7875240I20000J0D01*
G01*
X12189140Y-8653780D02*
G75*
G02*
X12149140Y-8653780I-20000J0D01*
G01*
X12149140Y-8653780D02*
G75*
G02*
X12189140Y-8653780I20000J0D01*
G01*
X12201840Y-9558020D02*
G75*
G02*
X12161840Y-9558020I-20000J0D01*
G01*
X12161840Y-9558020D02*
G75*
G02*
X12201840Y-9558020I20000J0D01*
G01*
X12301960Y-8899100D02*
G75*
G02*
X12261960Y-8899100I-20000J0D01*
G01*
X12261960Y-8899100D02*
G75*
G02*
X12301960Y-8899100I20000J0D01*
G01*
X12321220Y-7790180D02*
G75*
G02*
X12281220Y-7790180I-20000J0D01*
G01*
X12281220Y-7790180D02*
G75*
G02*
X12321220Y-7790180I20000J0D01*
G01*
X12332650Y-8233410D02*
G75*
G02*
X12292650Y-8233410I-20000J0D01*
G01*
X12292650Y-8233410D02*
G75*
G02*
X12332650Y-8233410I20000J0D01*
G01*
X12453300Y-6306040D02*
G75*
G02*
X12413300Y-6306040I-20000J0D01*
G01*
X12413300Y-6306040D02*
G75*
G02*
X12453300Y-6306040I20000J0D01*
G01*
X12514260Y-8448040D02*
G75*
G02*
X12474260Y-8448040I-20000J0D01*
G01*
X12474260Y-8448040D02*
G75*
G02*
X12514260Y-8448040I20000J0D01*
G01*
X12518100Y-8830280D02*
G75*
G02*
X12478100Y-8830280I-20000J0D01*
G01*
X12478100Y-8830280D02*
G75*
G02*
X12518100Y-8830280I20000J0D01*
G01*
X12563300Y-6306040D02*
G75*
G02*
X12523300Y-6306040I-20000J0D01*
G01*
X12523300Y-6306040D02*
G75*
G02*
X12563300Y-6306040I20000J0D01*
G01*
X12572680Y-7960360D02*
G75*
G02*
X12532680Y-7960360I-20000J0D01*
G01*
X12532680Y-7960360D02*
G75*
G02*
X12572680Y-7960360I20000J0D01*
G01*
X12747940Y-9794240D02*
G75*
G02*
X12707940Y-9794240I-20000J0D01*
G01*
X12707940Y-9794240D02*
G75*
G02*
X12747940Y-9794240I20000J0D01*
G01*
X12854620Y-8282940D02*
G75*
G02*
X12814620Y-8282940I-20000J0D01*
G01*
X12814620Y-8282940D02*
G75*
G02*
X12854620Y-8282940I20000J0D01*
G01*
X12877480Y-7574280D02*
G75*
G02*
X12837480Y-7574280I-20000J0D01*
G01*
X12837480Y-7574280D02*
G75*
G02*
X12877480Y-7574280I20000J0D01*
G01*
X12905420Y-7419340D02*
G75*
G02*
X12865420Y-7419340I-20000J0D01*
G01*
X12865420Y-7419340D02*
G75*
G02*
X12905420Y-7419340I20000J0D01*
G01*
X12953680Y-6306820D02*
G75*
G02*
X12913680Y-6306820I-20000J0D01*
G01*
X12913680Y-6306820D02*
G75*
G02*
X12953680Y-6306820I20000J0D01*
G01*
X12968920Y-9230360D02*
G75*
G02*
X12928920Y-9230360I-20000J0D01*
G01*
X12928920Y-9230360D02*
G75*
G02*
X12968920Y-9230360I20000J0D01*
G01*
X13048880Y-8296960D02*
G75*
G02*
X13008880Y-8296960I-20000J0D01*
G01*
X13008880Y-8296960D02*
G75*
G02*
X13048880Y-8296960I20000J0D01*
G01*
X13128940Y-7228840D02*
G75*
G02*
X13088940Y-7228840I-20000J0D01*
G01*
X13088940Y-7228840D02*
G75*
G02*
X13128940Y-7228840I20000J0D01*
G01*
X13215508Y-7685849D02*
G75*
G02*
X13175508Y-7685849I-20000J0D01*
G01*
X13175508Y-7685849D02*
G75*
G02*
X13215508Y-7685849I20000J0D01*
G01*
X13410880Y-7891780D02*
G75*
G02*
X13370880Y-7891780I-20000J0D01*
G01*
X13370880Y-7891780D02*
G75*
G02*
X13410880Y-7891780I20000J0D01*
G01*
X13647100Y-9387840D02*
G75*
G02*
X13607100Y-9387840I-20000J0D01*
G01*
X13607100Y-9387840D02*
G75*
G02*
X13647100Y-9387840I20000J0D01*
G01*
X13781788Y-8529803D02*
G75*
G02*
X13741788Y-8529803I-20000J0D01*
G01*
X13741788Y-8529803D02*
G75*
G02*
X13781788Y-8529803I20000J0D01*
G01*
X13939200Y-7736840D02*
G75*
G02*
X13899200Y-7736840I-20000J0D01*
G01*
X13899200Y-7736840D02*
G75*
G02*
X13939200Y-7736840I20000J0D01*
G01*
X13954010Y-9766730D02*
G75*
G02*
X13914010Y-9766730I-20000J0D01*
G01*
X13914010Y-9766730D02*
G75*
G02*
X13954010Y-9766730I20000J0D01*
G01*
X13992540Y-10022840D02*
G75*
G02*
X13952540Y-10022840I-20000J0D01*
G01*
X13952540Y-10022840D02*
G75*
G02*
X13992540Y-10022840I20000J0D01*
G01*
X14028100Y-7891780D02*
G75*
G02*
X13988100Y-7891780I-20000J0D01*
G01*
X13988100Y-7891780D02*
G75*
G02*
X14028100Y-7891780I20000J0D01*
G01*
X14035660Y-9349800D02*
G75*
G02*
X13995660Y-9349800I-20000J0D01*
G01*
X13995660Y-9349800D02*
G75*
G02*
X14035660Y-9349800I20000J0D01*
G01*
X14108060Y-8614460D02*
G75*
G02*
X14068060Y-8614460I-20000J0D01*
G01*
X14068060Y-8614460D02*
G75*
G02*
X14108060Y-8614460I20000J0D01*
G01*
X14152560Y-9822180D02*
G75*
G02*
X14112560Y-9822180I-20000J0D01*
G01*
X14112560Y-9822180D02*
G75*
G02*
X14152560Y-9822180I20000J0D01*
G01*
X14155100Y-6443980D02*
G75*
G02*
X14115100Y-6443980I-20000J0D01*
G01*
X14115100Y-6443980D02*
G75*
G02*
X14155100Y-6443980I20000J0D01*
G01*
X14225000Y-6300000D02*
G75*
G02*
X14185000Y-6300000I-20000J0D01*
G01*
X14185000Y-6300000D02*
G75*
G02*
X14225000Y-6300000I20000J0D01*
G01*
X14251999Y-6811901D02*
G75*
G02*
X14211999Y-6811901I-20000J0D01*
G01*
X14211999Y-6811901D02*
G75*
G02*
X14251999Y-6811901I20000J0D01*
G01*
X14256700Y-6954520D02*
G75*
G02*
X14216700Y-6954520I-20000J0D01*
G01*
X14216700Y-6954520D02*
G75*
G02*
X14256700Y-6954520I20000J0D01*
G01*
X14266149Y-6452498D02*
G75*
G02*
X14226149Y-6452498I-20000J0D01*
G01*
X14226149Y-6452498D02*
G75*
G02*
X14266149Y-6452498I20000J0D01*
G01*
X14266860Y-8031480D02*
G75*
G02*
X14226860Y-8031480I-20000J0D01*
G01*
X14226860Y-8031480D02*
G75*
G02*
X14266860Y-8031480I20000J0D01*
G01*
X14266860Y-8115300D02*
G75*
G02*
X14226860Y-8115300I-20000J0D01*
G01*
X14226860Y-8115300D02*
G75*
G02*
X14266860Y-8115300I20000J0D01*
G01*
X14287180Y-7112000D02*
G75*
G02*
X14247180Y-7112000I-20000J0D01*
G01*
X14247180Y-7112000D02*
G75*
G02*
X14287180Y-7112000I20000J0D01*
G01*
X14350680Y-9362440D02*
G75*
G02*
X14310680Y-9362440I-20000J0D01*
G01*
X14310680Y-9362440D02*
G75*
G02*
X14350680Y-9362440I20000J0D01*
G01*
X14457360Y-9954260D02*
G75*
G02*
X14417360Y-9954260I-20000J0D01*
G01*
X14417360Y-9954260D02*
G75*
G02*
X14457360Y-9954260I20000J0D01*
G01*
X14581820Y-6431280D02*
G75*
G02*
X14541820Y-6431280I-20000J0D01*
G01*
X14541820Y-6431280D02*
G75*
G02*
X14581820Y-6431280I20000J0D01*
G01*
X14584360Y-6306820D02*
G75*
G02*
X14544360Y-6306820I-20000J0D01*
G01*
X14544360Y-6306820D02*
G75*
G02*
X14584360Y-6306820I20000J0D01*
G01*
X14597060Y-9999980D02*
G75*
G02*
X14557060Y-9999980I-20000J0D01*
G01*
X14557060Y-9999980D02*
G75*
G02*
X14597060Y-9999980I20000J0D01*
G01*
X14795180Y-10002520D02*
G75*
G02*
X14755180Y-10002520I-20000J0D01*
G01*
X14755180Y-10002520D02*
G75*
G02*
X14795180Y-10002520I20000J0D01*
G01*
X14939960Y-9954260D02*
G75*
G02*
X14899960Y-9954260I-20000J0D01*
G01*
X14899960Y-9954260D02*
G75*
G02*
X14939960Y-9954260I20000J0D01*
G01*
X12205860Y-6375720D02*
X12205860Y-6450720D01*
X12168360Y-6413220D02*
X12243360Y-6413220D01*
X12205860Y-6575720D02*
X12205860Y-6650720D01*
X12168360Y-6613220D02*
X12243360Y-6613220D01*
X12205860Y-6775720D02*
X12205860Y-6850720D01*
X12168360Y-6813220D02*
X12243360Y-6813220D01*
X12205860Y-6975720D02*
X12205860Y-7050720D01*
X12168360Y-7013220D02*
X12243360Y-7013220D01*
X14576120Y-9775400D02*
X14576120Y-9850400D01*
X14538620Y-9812900D02*
X14613620Y-9812900D01*
X14776120Y-9775400D02*
X14776120Y-9850400D01*
X14738620Y-9812900D02*
X14813620Y-9812900D01*
X14879076Y-6468636D02*
X14879076Y-6397924D01*
X14808364Y-6397924D01*
X14808364Y-6468636D01*
X14879076Y-6468636D01*
X14879076Y-6722636D02*
X14879076Y-6651924D01*
X14808364Y-6651924D01*
X14808364Y-6722636D01*
X14879076Y-6722636D01*
X14879076Y-6976636D02*
X14879076Y-6905924D01*
X14808364Y-6905924D01*
X14808364Y-6976636D01*
X14879076Y-6976636D01*
X14879076Y-7230636D02*
X14879076Y-7159924D01*
X14808364Y-7159924D01*
X14808364Y-7230636D01*
X14879076Y-7230636D01*
X14879076Y-7484636D02*
X14879076Y-7413924D01*
X14808364Y-7413924D01*
X14808364Y-7484636D01*
X14879076Y-7484636D01*
X14879076Y-7738636D02*
X14879076Y-7667924D01*
X14808364Y-7667924D01*
X14808364Y-7738636D01*
X14879076Y-7738636D01*
X14879076Y-7992636D02*
X14879076Y-7921924D01*
X14808364Y-7921924D01*
X14808364Y-7992636D01*
X14879076Y-7992636D01*
D12*
X13276580Y-8938180D02*
X13327580Y-8887180D01*
X13276580Y-8836180D01*
X13225580Y-8887180D01*
X13276580Y-8938180D01*
X13276580Y-9238180D02*
X13327580Y-9187180D01*
X13276580Y-9136180D01*
X13225580Y-9187180D01*
X13276580Y-9238180D01*
D11*
X12028677Y-10463784D02*
X12028677Y-10263784D01*
X12028677Y-10263784D02*
X12076296Y-10263784D01*
X12076296Y-10263784D02*
X12104867Y-10273308D01*
X12104867Y-10273308D02*
X12123915Y-10292355D01*
X12123915Y-10292355D02*
X12133439Y-10311403D01*
X12133439Y-10311403D02*
X12142962Y-10349498D01*
X12142962Y-10349498D02*
X12142962Y-10378070D01*
X12142962Y-10378070D02*
X12133439Y-10416165D01*
X12133439Y-10416165D02*
X12123915Y-10435212D01*
X12123915Y-10435212D02*
X12104867Y-10454260D01*
X12104867Y-10454260D02*
X12076296Y-10463784D01*
X12076296Y-10463784D02*
X12028677Y-10463784D01*
X12228677Y-10463784D02*
X12228677Y-10330450D01*
X12228677Y-10368546D02*
X12238201Y-10349498D01*
X12238201Y-10349498D02*
X12247724Y-10339974D01*
X12247724Y-10339974D02*
X12266772Y-10330450D01*
X12266772Y-10330450D02*
X12285820Y-10330450D01*
X12352486Y-10463784D02*
X12352486Y-10330450D01*
X12352486Y-10263784D02*
X12342962Y-10273308D01*
X12342962Y-10273308D02*
X12352486Y-10282831D01*
X12352486Y-10282831D02*
X12362010Y-10273308D01*
X12362010Y-10273308D02*
X12352486Y-10263784D01*
X12352486Y-10263784D02*
X12352486Y-10282831D01*
X12476296Y-10463784D02*
X12457248Y-10454260D01*
X12457248Y-10454260D02*
X12447724Y-10435212D01*
X12447724Y-10435212D02*
X12447724Y-10263784D01*
X12581058Y-10463784D02*
X12562010Y-10454260D01*
X12562010Y-10454260D02*
X12552486Y-10435212D01*
X12552486Y-10435212D02*
X12552486Y-10263784D01*
X12809629Y-10463784D02*
X12809629Y-10263784D01*
X12809629Y-10263784D02*
X12876296Y-10406641D01*
X12876296Y-10406641D02*
X12942962Y-10263784D01*
X12942962Y-10263784D02*
X12942962Y-10463784D01*
X13123915Y-10463784D02*
X13123915Y-10359022D01*
X13123915Y-10359022D02*
X13114391Y-10339974D01*
X13114391Y-10339974D02*
X13095343Y-10330450D01*
X13095343Y-10330450D02*
X13057248Y-10330450D01*
X13057248Y-10330450D02*
X13038201Y-10339974D01*
X13123915Y-10454260D02*
X13104867Y-10463784D01*
X13104867Y-10463784D02*
X13057248Y-10463784D01*
X13057248Y-10463784D02*
X13038201Y-10454260D01*
X13038201Y-10454260D02*
X13028677Y-10435212D01*
X13028677Y-10435212D02*
X13028677Y-10416165D01*
X13028677Y-10416165D02*
X13038201Y-10397117D01*
X13038201Y-10397117D02*
X13057248Y-10387593D01*
X13057248Y-10387593D02*
X13104867Y-10387593D01*
X13104867Y-10387593D02*
X13123915Y-10378070D01*
X13219153Y-10330450D02*
X13219153Y-10530450D01*
X13219153Y-10339974D02*
X13238201Y-10330450D01*
X13238201Y-10330450D02*
X13276296Y-10330450D01*
X13276296Y-10330450D02*
X13295343Y-10339974D01*
X13295343Y-10339974D02*
X13304867Y-10349498D01*
X13304867Y-10349498D02*
X13314391Y-10368546D01*
X13314391Y-10368546D02*
X13314391Y-10425689D01*
X13314391Y-10425689D02*
X13304867Y-10444736D01*
X13304867Y-10444736D02*
X13295343Y-10454260D01*
X13295343Y-10454260D02*
X13276296Y-10463784D01*
X13276296Y-10463784D02*
X13238201Y-10463784D01*
X13238201Y-10463784D02*
X13219153Y-10454260D01*
X13400105Y-10444736D02*
X13409629Y-10454260D01*
X13409629Y-10454260D02*
X13400105Y-10463784D01*
X13400105Y-10463784D02*
X13390582Y-10454260D01*
X13390582Y-10454260D02*
X13400105Y-10444736D01*
X13400105Y-10444736D02*
X13400105Y-10463784D01*
X13400105Y-10339974D02*
X13409629Y-10349498D01*
X13409629Y-10349498D02*
X13400105Y-10359022D01*
X13400105Y-10359022D02*
X13390582Y-10349498D01*
X13390582Y-10349498D02*
X13400105Y-10339974D01*
X13400105Y-10339974D02*
X13400105Y-10359022D01*
D10*
X11747900Y-10782300D02*
X11767900Y-10802300D01*
X11767900Y-10782300D02*
X11747900Y-10802300D01*
D11*
X12066772Y-10683784D02*
X12085820Y-10683784D01*
X12085820Y-10683784D02*
X12104867Y-10693308D01*
X12104867Y-10693308D02*
X12114391Y-10702831D01*
X12114391Y-10702831D02*
X12123915Y-10721879D01*
X12123915Y-10721879D02*
X12133439Y-10759974D01*
X12133439Y-10759974D02*
X12133439Y-10807593D01*
X12133439Y-10807593D02*
X12123915Y-10845689D01*
X12123915Y-10845689D02*
X12114391Y-10864736D01*
X12114391Y-10864736D02*
X12104867Y-10874260D01*
X12104867Y-10874260D02*
X12085820Y-10883784D01*
X12085820Y-10883784D02*
X12066772Y-10883784D01*
X12066772Y-10883784D02*
X12047724Y-10874260D01*
X12047724Y-10874260D02*
X12038201Y-10864736D01*
X12038201Y-10864736D02*
X12028677Y-10845689D01*
X12028677Y-10845689D02*
X12019153Y-10807593D01*
X12019153Y-10807593D02*
X12019153Y-10759974D01*
X12019153Y-10759974D02*
X12028677Y-10721879D01*
X12028677Y-10721879D02*
X12038201Y-10702831D01*
X12038201Y-10702831D02*
X12047724Y-10693308D01*
X12047724Y-10693308D02*
X12066772Y-10683784D01*
X12219153Y-10864736D02*
X12228677Y-10874260D01*
X12228677Y-10874260D02*
X12219153Y-10883784D01*
X12219153Y-10883784D02*
X12209629Y-10874260D01*
X12209629Y-10874260D02*
X12219153Y-10864736D01*
X12219153Y-10864736D02*
X12219153Y-10883784D01*
X12304867Y-10702831D02*
X12314391Y-10693308D01*
X12314391Y-10693308D02*
X12333439Y-10683784D01*
X12333439Y-10683784D02*
X12381058Y-10683784D01*
X12381058Y-10683784D02*
X12400105Y-10693308D01*
X12400105Y-10693308D02*
X12409629Y-10702831D01*
X12409629Y-10702831D02*
X12419153Y-10721879D01*
X12419153Y-10721879D02*
X12419153Y-10740927D01*
X12419153Y-10740927D02*
X12409629Y-10769498D01*
X12409629Y-10769498D02*
X12295343Y-10883784D01*
X12295343Y-10883784D02*
X12419153Y-10883784D01*
X12542962Y-10683784D02*
X12562010Y-10683784D01*
X12562010Y-10683784D02*
X12581058Y-10693308D01*
X12581058Y-10693308D02*
X12590582Y-10702831D01*
X12590582Y-10702831D02*
X12600105Y-10721879D01*
X12600105Y-10721879D02*
X12609629Y-10759974D01*
X12609629Y-10759974D02*
X12609629Y-10807593D01*
X12609629Y-10807593D02*
X12600105Y-10845689D01*
X12600105Y-10845689D02*
X12590582Y-10864736D01*
X12590582Y-10864736D02*
X12581058Y-10874260D01*
X12581058Y-10874260D02*
X12562010Y-10883784D01*
X12562010Y-10883784D02*
X12542962Y-10883784D01*
X12542962Y-10883784D02*
X12523915Y-10874260D01*
X12523915Y-10874260D02*
X12514391Y-10864736D01*
X12514391Y-10864736D02*
X12504867Y-10845689D01*
X12504867Y-10845689D02*
X12495343Y-10807593D01*
X12495343Y-10807593D02*
X12495343Y-10759974D01*
X12495343Y-10759974D02*
X12504867Y-10721879D01*
X12504867Y-10721879D02*
X12514391Y-10702831D01*
X12514391Y-10702831D02*
X12523915Y-10693308D01*
X12523915Y-10693308D02*
X12542962Y-10683784D01*
X12733439Y-10683784D02*
X12752486Y-10683784D01*
X12752486Y-10683784D02*
X12771534Y-10693308D01*
X12771534Y-10693308D02*
X12781058Y-10702831D01*
X12781058Y-10702831D02*
X12790582Y-10721879D01*
X12790582Y-10721879D02*
X12800105Y-10759974D01*
X12800105Y-10759974D02*
X12800105Y-10807593D01*
X12800105Y-10807593D02*
X12790582Y-10845689D01*
X12790582Y-10845689D02*
X12781058Y-10864736D01*
X12781058Y-10864736D02*
X12771534Y-10874260D01*
X12771534Y-10874260D02*
X12752486Y-10883784D01*
X12752486Y-10883784D02*
X12733439Y-10883784D01*
X12733439Y-10883784D02*
X12714391Y-10874260D01*
X12714391Y-10874260D02*
X12704867Y-10864736D01*
X12704867Y-10864736D02*
X12695343Y-10845689D01*
X12695343Y-10845689D02*
X12685820Y-10807593D01*
X12685820Y-10807593D02*
X12685820Y-10759974D01*
X12685820Y-10759974D02*
X12695343Y-10721879D01*
X12695343Y-10721879D02*
X12704867Y-10702831D01*
X12704867Y-10702831D02*
X12714391Y-10693308D01*
X12714391Y-10693308D02*
X12733439Y-10683784D01*
X12885820Y-10883784D02*
X12885820Y-10750450D01*
X12885820Y-10769498D02*
X12895343Y-10759974D01*
X12895343Y-10759974D02*
X12914391Y-10750450D01*
X12914391Y-10750450D02*
X12942963Y-10750450D01*
X12942963Y-10750450D02*
X12962010Y-10759974D01*
X12962010Y-10759974D02*
X12971534Y-10779022D01*
X12971534Y-10779022D02*
X12971534Y-10883784D01*
X12971534Y-10779022D02*
X12981058Y-10759974D01*
X12981058Y-10759974D02*
X13000105Y-10750450D01*
X13000105Y-10750450D02*
X13028677Y-10750450D01*
X13028677Y-10750450D02*
X13047724Y-10759974D01*
X13047724Y-10759974D02*
X13057248Y-10779022D01*
X13057248Y-10779022D02*
X13057248Y-10883784D01*
X13152486Y-10883784D02*
X13152486Y-10750450D01*
X13152486Y-10769498D02*
X13162010Y-10759974D01*
X13162010Y-10759974D02*
X13181058Y-10750450D01*
X13181058Y-10750450D02*
X13209629Y-10750450D01*
X13209629Y-10750450D02*
X13228677Y-10759974D01*
X13228677Y-10759974D02*
X13238201Y-10779022D01*
X13238201Y-10779022D02*
X13238201Y-10883784D01*
X13238201Y-10779022D02*
X13247724Y-10759974D01*
X13247724Y-10759974D02*
X13266772Y-10750450D01*
X13266772Y-10750450D02*
X13295343Y-10750450D01*
X13295343Y-10750450D02*
X13314391Y-10759974D01*
X13314391Y-10759974D02*
X13323915Y-10779022D01*
X13323915Y-10779022D02*
X13323915Y-10883784D01*
X13714391Y-10674260D02*
X13542963Y-10931403D01*
X13971534Y-10683784D02*
X13990582Y-10683784D01*
X13990582Y-10683784D02*
X14009629Y-10693308D01*
X14009629Y-10693308D02*
X14019153Y-10702831D01*
X14019153Y-10702831D02*
X14028677Y-10721879D01*
X14028677Y-10721879D02*
X14038201Y-10759974D01*
X14038201Y-10759974D02*
X14038201Y-10807593D01*
X14038201Y-10807593D02*
X14028677Y-10845689D01*
X14028677Y-10845689D02*
X14019153Y-10864736D01*
X14019153Y-10864736D02*
X14009629Y-10874260D01*
X14009629Y-10874260D02*
X13990582Y-10883784D01*
X13990582Y-10883784D02*
X13971534Y-10883784D01*
X13971534Y-10883784D02*
X13952486Y-10874260D01*
X13952486Y-10874260D02*
X13942963Y-10864736D01*
X13942963Y-10864736D02*
X13933439Y-10845689D01*
X13933439Y-10845689D02*
X13923915Y-10807593D01*
X13923915Y-10807593D02*
X13923915Y-10759974D01*
X13923915Y-10759974D02*
X13933439Y-10721879D01*
X13933439Y-10721879D02*
X13942963Y-10702831D01*
X13942963Y-10702831D02*
X13952486Y-10693308D01*
X13952486Y-10693308D02*
X13971534Y-10683784D01*
X14123915Y-10864736D02*
X14133439Y-10874260D01*
X14133439Y-10874260D02*
X14123915Y-10883784D01*
X14123915Y-10883784D02*
X14114391Y-10874260D01*
X14114391Y-10874260D02*
X14123915Y-10864736D01*
X14123915Y-10864736D02*
X14123915Y-10883784D01*
X14257248Y-10683784D02*
X14276296Y-10683784D01*
X14276296Y-10683784D02*
X14295344Y-10693308D01*
X14295344Y-10693308D02*
X14304867Y-10702831D01*
X14304867Y-10702831D02*
X14314391Y-10721879D01*
X14314391Y-10721879D02*
X14323915Y-10759974D01*
X14323915Y-10759974D02*
X14323915Y-10807593D01*
X14323915Y-10807593D02*
X14314391Y-10845689D01*
X14314391Y-10845689D02*
X14304867Y-10864736D01*
X14304867Y-10864736D02*
X14295344Y-10874260D01*
X14295344Y-10874260D02*
X14276296Y-10883784D01*
X14276296Y-10883784D02*
X14257248Y-10883784D01*
X14257248Y-10883784D02*
X14238201Y-10874260D01*
X14238201Y-10874260D02*
X14228677Y-10864736D01*
X14228677Y-10864736D02*
X14219153Y-10845689D01*
X14219153Y-10845689D02*
X14209629Y-10807593D01*
X14209629Y-10807593D02*
X14209629Y-10759974D01*
X14209629Y-10759974D02*
X14219153Y-10721879D01*
X14219153Y-10721879D02*
X14228677Y-10702831D01*
X14228677Y-10702831D02*
X14238201Y-10693308D01*
X14238201Y-10693308D02*
X14257248Y-10683784D01*
X14447725Y-10683784D02*
X14466772Y-10683784D01*
X14466772Y-10683784D02*
X14485820Y-10693308D01*
X14485820Y-10693308D02*
X14495344Y-10702831D01*
X14495344Y-10702831D02*
X14504867Y-10721879D01*
X14504867Y-10721879D02*
X14514391Y-10759974D01*
X14514391Y-10759974D02*
X14514391Y-10807593D01*
X14514391Y-10807593D02*
X14504867Y-10845689D01*
X14504867Y-10845689D02*
X14495344Y-10864736D01*
X14495344Y-10864736D02*
X14485820Y-10874260D01*
X14485820Y-10874260D02*
X14466772Y-10883784D01*
X14466772Y-10883784D02*
X14447725Y-10883784D01*
X14447725Y-10883784D02*
X14428677Y-10874260D01*
X14428677Y-10874260D02*
X14419153Y-10864736D01*
X14419153Y-10864736D02*
X14409629Y-10845689D01*
X14409629Y-10845689D02*
X14400106Y-10807593D01*
X14400106Y-10807593D02*
X14400106Y-10759974D01*
X14400106Y-10759974D02*
X14409629Y-10721879D01*
X14409629Y-10721879D02*
X14419153Y-10702831D01*
X14419153Y-10702831D02*
X14428677Y-10693308D01*
X14428677Y-10693308D02*
X14447725Y-10683784D01*
X14581058Y-10683784D02*
X14714391Y-10683784D01*
X14714391Y-10683784D02*
X14628677Y-10883784D01*
X14800106Y-10883784D02*
X14838201Y-10883784D01*
X14838201Y-10883784D02*
X14857248Y-10874260D01*
X14857248Y-10874260D02*
X14866772Y-10864736D01*
X14866772Y-10864736D02*
X14885820Y-10836165D01*
X14885820Y-10836165D02*
X14895344Y-10798070D01*
X14895344Y-10798070D02*
X14895344Y-10721879D01*
X14895344Y-10721879D02*
X14885820Y-10702831D01*
X14885820Y-10702831D02*
X14876296Y-10693308D01*
X14876296Y-10693308D02*
X14857248Y-10683784D01*
X14857248Y-10683784D02*
X14819153Y-10683784D01*
X14819153Y-10683784D02*
X14800106Y-10693308D01*
X14800106Y-10693308D02*
X14790582Y-10702831D01*
X14790582Y-10702831D02*
X14781058Y-10721879D01*
X14781058Y-10721879D02*
X14781058Y-10769498D01*
X14781058Y-10769498D02*
X14790582Y-10788546D01*
X14790582Y-10788546D02*
X14800106Y-10798070D01*
X14800106Y-10798070D02*
X14819153Y-10807593D01*
X14819153Y-10807593D02*
X14857248Y-10807593D01*
X14857248Y-10807593D02*
X14876296Y-10798070D01*
X14876296Y-10798070D02*
X14885820Y-10788546D01*
X14885820Y-10788546D02*
X14895344Y-10769498D01*
X14971534Y-10683784D02*
X14971534Y-10721879D01*
X15047725Y-10683784D02*
X15047725Y-10721879D01*
X15342963Y-10959974D02*
X15333439Y-10950450D01*
X15333439Y-10950450D02*
X15314391Y-10921879D01*
X15314391Y-10921879D02*
X15304868Y-10902831D01*
X15304868Y-10902831D02*
X15295344Y-10874260D01*
X15295344Y-10874260D02*
X15285820Y-10826641D01*
X15285820Y-10826641D02*
X15285820Y-10788546D01*
X15285820Y-10788546D02*
X15295344Y-10740927D01*
X15295344Y-10740927D02*
X15304868Y-10712355D01*
X15304868Y-10712355D02*
X15314391Y-10693308D01*
X15314391Y-10693308D02*
X15333439Y-10664736D01*
X15333439Y-10664736D02*
X15342963Y-10655212D01*
X15523915Y-10883784D02*
X15409629Y-10883784D01*
X15466772Y-10883784D02*
X15466772Y-10683784D01*
X15466772Y-10683784D02*
X15447725Y-10712355D01*
X15447725Y-10712355D02*
X15428677Y-10731403D01*
X15428677Y-10731403D02*
X15409629Y-10740927D01*
X15600106Y-10702831D02*
X15609629Y-10693308D01*
X15609629Y-10693308D02*
X15628677Y-10683784D01*
X15628677Y-10683784D02*
X15676296Y-10683784D01*
X15676296Y-10683784D02*
X15695344Y-10693308D01*
X15695344Y-10693308D02*
X15704868Y-10702831D01*
X15704868Y-10702831D02*
X15714391Y-10721879D01*
X15714391Y-10721879D02*
X15714391Y-10740927D01*
X15714391Y-10740927D02*
X15704868Y-10769498D01*
X15704868Y-10769498D02*
X15590582Y-10883784D01*
X15590582Y-10883784D02*
X15714391Y-10883784D01*
X15952487Y-10883784D02*
X15952487Y-10683784D01*
X16038201Y-10883784D02*
X16038201Y-10779022D01*
X16038201Y-10779022D02*
X16028677Y-10759974D01*
X16028677Y-10759974D02*
X16009630Y-10750450D01*
X16009630Y-10750450D02*
X15981058Y-10750450D01*
X15981058Y-10750450D02*
X15962010Y-10759974D01*
X15962010Y-10759974D02*
X15952487Y-10769498D01*
X16162010Y-10883784D02*
X16142963Y-10874260D01*
X16142963Y-10874260D02*
X16133439Y-10864736D01*
X16133439Y-10864736D02*
X16123915Y-10845689D01*
X16123915Y-10845689D02*
X16123915Y-10788546D01*
X16123915Y-10788546D02*
X16133439Y-10769498D01*
X16133439Y-10769498D02*
X16142963Y-10759974D01*
X16142963Y-10759974D02*
X16162010Y-10750450D01*
X16162010Y-10750450D02*
X16190582Y-10750450D01*
X16190582Y-10750450D02*
X16209630Y-10759974D01*
X16209630Y-10759974D02*
X16219153Y-10769498D01*
X16219153Y-10769498D02*
X16228677Y-10788546D01*
X16228677Y-10788546D02*
X16228677Y-10845689D01*
X16228677Y-10845689D02*
X16219153Y-10864736D01*
X16219153Y-10864736D02*
X16209630Y-10874260D01*
X16209630Y-10874260D02*
X16190582Y-10883784D01*
X16190582Y-10883784D02*
X16162010Y-10883784D01*
X16342963Y-10883784D02*
X16323915Y-10874260D01*
X16323915Y-10874260D02*
X16314391Y-10855212D01*
X16314391Y-10855212D02*
X16314391Y-10683784D01*
X16495344Y-10874260D02*
X16476296Y-10883784D01*
X16476296Y-10883784D02*
X16438201Y-10883784D01*
X16438201Y-10883784D02*
X16419153Y-10874260D01*
X16419153Y-10874260D02*
X16409630Y-10855212D01*
X16409630Y-10855212D02*
X16409630Y-10779022D01*
X16409630Y-10779022D02*
X16419153Y-10759974D01*
X16419153Y-10759974D02*
X16438201Y-10750450D01*
X16438201Y-10750450D02*
X16476296Y-10750450D01*
X16476296Y-10750450D02*
X16495344Y-10759974D01*
X16495344Y-10759974D02*
X16504868Y-10779022D01*
X16504868Y-10779022D02*
X16504868Y-10798070D01*
X16504868Y-10798070D02*
X16409630Y-10817117D01*
X16581058Y-10874260D02*
X16600106Y-10883784D01*
X16600106Y-10883784D02*
X16638201Y-10883784D01*
X16638201Y-10883784D02*
X16657249Y-10874260D01*
X16657249Y-10874260D02*
X16666772Y-10855212D01*
X16666772Y-10855212D02*
X16666772Y-10845689D01*
X16666772Y-10845689D02*
X16657249Y-10826641D01*
X16657249Y-10826641D02*
X16638201Y-10817117D01*
X16638201Y-10817117D02*
X16609630Y-10817117D01*
X16609630Y-10817117D02*
X16590582Y-10807593D01*
X16590582Y-10807593D02*
X16581058Y-10788546D01*
X16581058Y-10788546D02*
X16581058Y-10779022D01*
X16581058Y-10779022D02*
X16590582Y-10759974D01*
X16590582Y-10759974D02*
X16609630Y-10750450D01*
X16609630Y-10750450D02*
X16638201Y-10750450D01*
X16638201Y-10750450D02*
X16657249Y-10759974D01*
X16733439Y-10959974D02*
X16742963Y-10950450D01*
X16742963Y-10950450D02*
X16762011Y-10921879D01*
X16762011Y-10921879D02*
X16771534Y-10902831D01*
X16771534Y-10902831D02*
X16781058Y-10874260D01*
X16781058Y-10874260D02*
X16790582Y-10826641D01*
X16790582Y-10826641D02*
X16790582Y-10788546D01*
X16790582Y-10788546D02*
X16781058Y-10740927D01*
X16781058Y-10740927D02*
X16771534Y-10712355D01*
X16771534Y-10712355D02*
X16762011Y-10693308D01*
X16762011Y-10693308D02*
X16742963Y-10664736D01*
X16742963Y-10664736D02*
X16733439Y-10655212D01*
D10*
X11767900Y-11056300D02*
G75*
G02*
X11727900Y-11056300I-20000J0D01*
G01*
X11727900Y-11056300D02*
G75*
G02*
X11767900Y-11056300I20000J0D01*
G01*
D11*
X12066772Y-10947784D02*
X12085820Y-10947784D01*
X12085820Y-10947784D02*
X12104867Y-10957308D01*
X12104867Y-10957308D02*
X12114391Y-10966831D01*
X12114391Y-10966831D02*
X12123915Y-10985879D01*
X12123915Y-10985879D02*
X12133439Y-11023974D01*
X12133439Y-11023974D02*
X12133439Y-11071593D01*
X12133439Y-11071593D02*
X12123915Y-11109689D01*
X12123915Y-11109689D02*
X12114391Y-11128736D01*
X12114391Y-11128736D02*
X12104867Y-11138260D01*
X12104867Y-11138260D02*
X12085820Y-11147784D01*
X12085820Y-11147784D02*
X12066772Y-11147784D01*
X12066772Y-11147784D02*
X12047724Y-11138260D01*
X12047724Y-11138260D02*
X12038201Y-11128736D01*
X12038201Y-11128736D02*
X12028677Y-11109689D01*
X12028677Y-11109689D02*
X12019153Y-11071593D01*
X12019153Y-11071593D02*
X12019153Y-11023974D01*
X12019153Y-11023974D02*
X12028677Y-10985879D01*
X12028677Y-10985879D02*
X12038201Y-10966831D01*
X12038201Y-10966831D02*
X12047724Y-10957308D01*
X12047724Y-10957308D02*
X12066772Y-10947784D01*
X12219153Y-11128736D02*
X12228677Y-11138260D01*
X12228677Y-11138260D02*
X12219153Y-11147784D01*
X12219153Y-11147784D02*
X12209629Y-11138260D01*
X12209629Y-11138260D02*
X12219153Y-11128736D01*
X12219153Y-11128736D02*
X12219153Y-11147784D01*
X12400105Y-11014450D02*
X12400105Y-11147784D01*
X12352486Y-10938260D02*
X12304867Y-11081117D01*
X12304867Y-11081117D02*
X12428677Y-11081117D01*
X12542962Y-10947784D02*
X12562010Y-10947784D01*
X12562010Y-10947784D02*
X12581058Y-10957308D01*
X12581058Y-10957308D02*
X12590582Y-10966831D01*
X12590582Y-10966831D02*
X12600105Y-10985879D01*
X12600105Y-10985879D02*
X12609629Y-11023974D01*
X12609629Y-11023974D02*
X12609629Y-11071593D01*
X12609629Y-11071593D02*
X12600105Y-11109689D01*
X12600105Y-11109689D02*
X12590582Y-11128736D01*
X12590582Y-11128736D02*
X12581058Y-11138260D01*
X12581058Y-11138260D02*
X12562010Y-11147784D01*
X12562010Y-11147784D02*
X12542962Y-11147784D01*
X12542962Y-11147784D02*
X12523915Y-11138260D01*
X12523915Y-11138260D02*
X12514391Y-11128736D01*
X12514391Y-11128736D02*
X12504867Y-11109689D01*
X12504867Y-11109689D02*
X12495343Y-11071593D01*
X12495343Y-11071593D02*
X12495343Y-11023974D01*
X12495343Y-11023974D02*
X12504867Y-10985879D01*
X12504867Y-10985879D02*
X12514391Y-10966831D01*
X12514391Y-10966831D02*
X12523915Y-10957308D01*
X12523915Y-10957308D02*
X12542962Y-10947784D01*
X12733439Y-10947784D02*
X12752486Y-10947784D01*
X12752486Y-10947784D02*
X12771534Y-10957308D01*
X12771534Y-10957308D02*
X12781058Y-10966831D01*
X12781058Y-10966831D02*
X12790582Y-10985879D01*
X12790582Y-10985879D02*
X12800105Y-11023974D01*
X12800105Y-11023974D02*
X12800105Y-11071593D01*
X12800105Y-11071593D02*
X12790582Y-11109689D01*
X12790582Y-11109689D02*
X12781058Y-11128736D01*
X12781058Y-11128736D02*
X12771534Y-11138260D01*
X12771534Y-11138260D02*
X12752486Y-11147784D01*
X12752486Y-11147784D02*
X12733439Y-11147784D01*
X12733439Y-11147784D02*
X12714391Y-11138260D01*
X12714391Y-11138260D02*
X12704867Y-11128736D01*
X12704867Y-11128736D02*
X12695343Y-11109689D01*
X12695343Y-11109689D02*
X12685820Y-11071593D01*
X12685820Y-11071593D02*
X12685820Y-11023974D01*
X12685820Y-11023974D02*
X12695343Y-10985879D01*
X12695343Y-10985879D02*
X12704867Y-10966831D01*
X12704867Y-10966831D02*
X12714391Y-10957308D01*
X12714391Y-10957308D02*
X12733439Y-10947784D01*
X12885820Y-11147784D02*
X12885820Y-11014450D01*
X12885820Y-11033498D02*
X12895343Y-11023974D01*
X12895343Y-11023974D02*
X12914391Y-11014450D01*
X12914391Y-11014450D02*
X12942963Y-11014450D01*
X12942963Y-11014450D02*
X12962010Y-11023974D01*
X12962010Y-11023974D02*
X12971534Y-11043022D01*
X12971534Y-11043022D02*
X12971534Y-11147784D01*
X12971534Y-11043022D02*
X12981058Y-11023974D01*
X12981058Y-11023974D02*
X13000105Y-11014450D01*
X13000105Y-11014450D02*
X13028677Y-11014450D01*
X13028677Y-11014450D02*
X13047724Y-11023974D01*
X13047724Y-11023974D02*
X13057248Y-11043022D01*
X13057248Y-11043022D02*
X13057248Y-11147784D01*
X13152486Y-11147784D02*
X13152486Y-11014450D01*
X13152486Y-11033498D02*
X13162010Y-11023974D01*
X13162010Y-11023974D02*
X13181058Y-11014450D01*
X13181058Y-11014450D02*
X13209629Y-11014450D01*
X13209629Y-11014450D02*
X13228677Y-11023974D01*
X13228677Y-11023974D02*
X13238201Y-11043022D01*
X13238201Y-11043022D02*
X13238201Y-11147784D01*
X13238201Y-11043022D02*
X13247724Y-11023974D01*
X13247724Y-11023974D02*
X13266772Y-11014450D01*
X13266772Y-11014450D02*
X13295343Y-11014450D01*
X13295343Y-11014450D02*
X13314391Y-11023974D01*
X13314391Y-11023974D02*
X13323915Y-11043022D01*
X13323915Y-11043022D02*
X13323915Y-11147784D01*
X13714391Y-10938260D02*
X13542963Y-11195403D01*
X13971534Y-10947784D02*
X13990582Y-10947784D01*
X13990582Y-10947784D02*
X14009629Y-10957308D01*
X14009629Y-10957308D02*
X14019153Y-10966831D01*
X14019153Y-10966831D02*
X14028677Y-10985879D01*
X14028677Y-10985879D02*
X14038201Y-11023974D01*
X14038201Y-11023974D02*
X14038201Y-11071593D01*
X14038201Y-11071593D02*
X14028677Y-11109689D01*
X14028677Y-11109689D02*
X14019153Y-11128736D01*
X14019153Y-11128736D02*
X14009629Y-11138260D01*
X14009629Y-11138260D02*
X13990582Y-11147784D01*
X13990582Y-11147784D02*
X13971534Y-11147784D01*
X13971534Y-11147784D02*
X13952486Y-11138260D01*
X13952486Y-11138260D02*
X13942963Y-11128736D01*
X13942963Y-11128736D02*
X13933439Y-11109689D01*
X13933439Y-11109689D02*
X13923915Y-11071593D01*
X13923915Y-11071593D02*
X13923915Y-11023974D01*
X13923915Y-11023974D02*
X13933439Y-10985879D01*
X13933439Y-10985879D02*
X13942963Y-10966831D01*
X13942963Y-10966831D02*
X13952486Y-10957308D01*
X13952486Y-10957308D02*
X13971534Y-10947784D01*
X14123915Y-11128736D02*
X14133439Y-11138260D01*
X14133439Y-11138260D02*
X14123915Y-11147784D01*
X14123915Y-11147784D02*
X14114391Y-11138260D01*
X14114391Y-11138260D02*
X14123915Y-11128736D01*
X14123915Y-11128736D02*
X14123915Y-11147784D01*
X14257248Y-10947784D02*
X14276296Y-10947784D01*
X14276296Y-10947784D02*
X14295344Y-10957308D01*
X14295344Y-10957308D02*
X14304867Y-10966831D01*
X14304867Y-10966831D02*
X14314391Y-10985879D01*
X14314391Y-10985879D02*
X14323915Y-11023974D01*
X14323915Y-11023974D02*
X14323915Y-11071593D01*
X14323915Y-11071593D02*
X14314391Y-11109689D01*
X14314391Y-11109689D02*
X14304867Y-11128736D01*
X14304867Y-11128736D02*
X14295344Y-11138260D01*
X14295344Y-11138260D02*
X14276296Y-11147784D01*
X14276296Y-11147784D02*
X14257248Y-11147784D01*
X14257248Y-11147784D02*
X14238201Y-11138260D01*
X14238201Y-11138260D02*
X14228677Y-11128736D01*
X14228677Y-11128736D02*
X14219153Y-11109689D01*
X14219153Y-11109689D02*
X14209629Y-11071593D01*
X14209629Y-11071593D02*
X14209629Y-11023974D01*
X14209629Y-11023974D02*
X14219153Y-10985879D01*
X14219153Y-10985879D02*
X14228677Y-10966831D01*
X14228677Y-10966831D02*
X14238201Y-10957308D01*
X14238201Y-10957308D02*
X14257248Y-10947784D01*
X14514391Y-11147784D02*
X14400106Y-11147784D01*
X14457248Y-11147784D02*
X14457248Y-10947784D01*
X14457248Y-10947784D02*
X14438201Y-10976355D01*
X14438201Y-10976355D02*
X14419153Y-10995403D01*
X14419153Y-10995403D02*
X14400106Y-11004927D01*
X14695344Y-10947784D02*
X14600106Y-10947784D01*
X14600106Y-10947784D02*
X14590582Y-11043022D01*
X14590582Y-11043022D02*
X14600106Y-11033498D01*
X14600106Y-11033498D02*
X14619153Y-11023974D01*
X14619153Y-11023974D02*
X14666772Y-11023974D01*
X14666772Y-11023974D02*
X14685820Y-11033498D01*
X14685820Y-11033498D02*
X14695344Y-11043022D01*
X14695344Y-11043022D02*
X14704867Y-11062070D01*
X14704867Y-11062070D02*
X14704867Y-11109689D01*
X14704867Y-11109689D02*
X14695344Y-11128736D01*
X14695344Y-11128736D02*
X14685820Y-11138260D01*
X14685820Y-11138260D02*
X14666772Y-11147784D01*
X14666772Y-11147784D02*
X14619153Y-11147784D01*
X14619153Y-11147784D02*
X14600106Y-11138260D01*
X14600106Y-11138260D02*
X14590582Y-11128736D01*
X14771534Y-10947784D02*
X14904867Y-10947784D01*
X14904867Y-10947784D02*
X14819153Y-11147784D01*
X14971534Y-10947784D02*
X14971534Y-10985879D01*
X15047725Y-10947784D02*
X15047725Y-10985879D01*
X15342963Y-11223974D02*
X15333439Y-11214450D01*
X15333439Y-11214450D02*
X15314391Y-11185879D01*
X15314391Y-11185879D02*
X15304868Y-11166831D01*
X15304868Y-11166831D02*
X15295344Y-11138260D01*
X15295344Y-11138260D02*
X15285820Y-11090641D01*
X15285820Y-11090641D02*
X15285820Y-11052546D01*
X15285820Y-11052546D02*
X15295344Y-11004927D01*
X15295344Y-11004927D02*
X15304868Y-10976355D01*
X15304868Y-10976355D02*
X15314391Y-10957308D01*
X15314391Y-10957308D02*
X15333439Y-10928736D01*
X15333439Y-10928736D02*
X15342963Y-10919212D01*
X15504868Y-11014450D02*
X15504868Y-11147784D01*
X15457248Y-10938260D02*
X15409629Y-11081117D01*
X15409629Y-11081117D02*
X15533439Y-11081117D01*
X15590582Y-10947784D02*
X15723915Y-10947784D01*
X15723915Y-10947784D02*
X15638201Y-11147784D01*
X15952487Y-11147784D02*
X15952487Y-10947784D01*
X16038201Y-11147784D02*
X16038201Y-11043022D01*
X16038201Y-11043022D02*
X16028677Y-11023974D01*
X16028677Y-11023974D02*
X16009630Y-11014450D01*
X16009630Y-11014450D02*
X15981058Y-11014450D01*
X15981058Y-11014450D02*
X15962010Y-11023974D01*
X15962010Y-11023974D02*
X15952487Y-11033498D01*
X16162010Y-11147784D02*
X16142963Y-11138260D01*
X16142963Y-11138260D02*
X16133439Y-11128736D01*
X16133439Y-11128736D02*
X16123915Y-11109689D01*
X16123915Y-11109689D02*
X16123915Y-11052546D01*
X16123915Y-11052546D02*
X16133439Y-11033498D01*
X16133439Y-11033498D02*
X16142963Y-11023974D01*
X16142963Y-11023974D02*
X16162010Y-11014450D01*
X16162010Y-11014450D02*
X16190582Y-11014450D01*
X16190582Y-11014450D02*
X16209630Y-11023974D01*
X16209630Y-11023974D02*
X16219153Y-11033498D01*
X16219153Y-11033498D02*
X16228677Y-11052546D01*
X16228677Y-11052546D02*
X16228677Y-11109689D01*
X16228677Y-11109689D02*
X16219153Y-11128736D01*
X16219153Y-11128736D02*
X16209630Y-11138260D01*
X16209630Y-11138260D02*
X16190582Y-11147784D01*
X16190582Y-11147784D02*
X16162010Y-11147784D01*
X16342963Y-11147784D02*
X16323915Y-11138260D01*
X16323915Y-11138260D02*
X16314391Y-11119212D01*
X16314391Y-11119212D02*
X16314391Y-10947784D01*
X16495344Y-11138260D02*
X16476296Y-11147784D01*
X16476296Y-11147784D02*
X16438201Y-11147784D01*
X16438201Y-11147784D02*
X16419153Y-11138260D01*
X16419153Y-11138260D02*
X16409630Y-11119212D01*
X16409630Y-11119212D02*
X16409630Y-11043022D01*
X16409630Y-11043022D02*
X16419153Y-11023974D01*
X16419153Y-11023974D02*
X16438201Y-11014450D01*
X16438201Y-11014450D02*
X16476296Y-11014450D01*
X16476296Y-11014450D02*
X16495344Y-11023974D01*
X16495344Y-11023974D02*
X16504868Y-11043022D01*
X16504868Y-11043022D02*
X16504868Y-11062070D01*
X16504868Y-11062070D02*
X16409630Y-11081117D01*
X16581058Y-11138260D02*
X16600106Y-11147784D01*
X16600106Y-11147784D02*
X16638201Y-11147784D01*
X16638201Y-11147784D02*
X16657249Y-11138260D01*
X16657249Y-11138260D02*
X16666772Y-11119212D01*
X16666772Y-11119212D02*
X16666772Y-11109689D01*
X16666772Y-11109689D02*
X16657249Y-11090641D01*
X16657249Y-11090641D02*
X16638201Y-11081117D01*
X16638201Y-11081117D02*
X16609630Y-11081117D01*
X16609630Y-11081117D02*
X16590582Y-11071593D01*
X16590582Y-11071593D02*
X16581058Y-11052546D01*
X16581058Y-11052546D02*
X16581058Y-11043022D01*
X16581058Y-11043022D02*
X16590582Y-11023974D01*
X16590582Y-11023974D02*
X16609630Y-11014450D01*
X16609630Y-11014450D02*
X16638201Y-11014450D01*
X16638201Y-11014450D02*
X16657249Y-11023974D01*
X16733439Y-11223974D02*
X16742963Y-11214450D01*
X16742963Y-11214450D02*
X16762011Y-11185879D01*
X16762011Y-11185879D02*
X16771534Y-11166831D01*
X16771534Y-11166831D02*
X16781058Y-11138260D01*
X16781058Y-11138260D02*
X16790582Y-11090641D01*
X16790582Y-11090641D02*
X16790582Y-11052546D01*
X16790582Y-11052546D02*
X16781058Y-11004927D01*
X16781058Y-11004927D02*
X16771534Y-10976355D01*
X16771534Y-10976355D02*
X16762011Y-10957308D01*
X16762011Y-10957308D02*
X16742963Y-10928736D01*
X16742963Y-10928736D02*
X16733439Y-10919212D01*
D10*
X11730400Y-11282800D02*
X11730400Y-11357800D01*
X11692900Y-11320300D02*
X11767900Y-11320300D01*
D11*
X12066772Y-11211784D02*
X12085820Y-11211784D01*
X12085820Y-11211784D02*
X12104867Y-11221308D01*
X12104867Y-11221308D02*
X12114391Y-11230831D01*
X12114391Y-11230831D02*
X12123915Y-11249879D01*
X12123915Y-11249879D02*
X12133439Y-11287974D01*
X12133439Y-11287974D02*
X12133439Y-11335593D01*
X12133439Y-11335593D02*
X12123915Y-11373688D01*
X12123915Y-11373688D02*
X12114391Y-11392736D01*
X12114391Y-11392736D02*
X12104867Y-11402260D01*
X12104867Y-11402260D02*
X12085820Y-11411784D01*
X12085820Y-11411784D02*
X12066772Y-11411784D01*
X12066772Y-11411784D02*
X12047724Y-11402260D01*
X12047724Y-11402260D02*
X12038201Y-11392736D01*
X12038201Y-11392736D02*
X12028677Y-11373688D01*
X12028677Y-11373688D02*
X12019153Y-11335593D01*
X12019153Y-11335593D02*
X12019153Y-11287974D01*
X12019153Y-11287974D02*
X12028677Y-11249879D01*
X12028677Y-11249879D02*
X12038201Y-11230831D01*
X12038201Y-11230831D02*
X12047724Y-11221308D01*
X12047724Y-11221308D02*
X12066772Y-11211784D01*
X12219153Y-11392736D02*
X12228677Y-11402260D01*
X12228677Y-11402260D02*
X12219153Y-11411784D01*
X12219153Y-11411784D02*
X12209629Y-11402260D01*
X12209629Y-11402260D02*
X12219153Y-11392736D01*
X12219153Y-11392736D02*
X12219153Y-11411784D01*
X12295343Y-11211784D02*
X12428677Y-11211784D01*
X12428677Y-11211784D02*
X12342962Y-11411784D01*
X12600105Y-11211784D02*
X12504867Y-11211784D01*
X12504867Y-11211784D02*
X12495343Y-11307022D01*
X12495343Y-11307022D02*
X12504867Y-11297498D01*
X12504867Y-11297498D02*
X12523915Y-11287974D01*
X12523915Y-11287974D02*
X12571534Y-11287974D01*
X12571534Y-11287974D02*
X12590582Y-11297498D01*
X12590582Y-11297498D02*
X12600105Y-11307022D01*
X12600105Y-11307022D02*
X12609629Y-11326069D01*
X12609629Y-11326069D02*
X12609629Y-11373688D01*
X12609629Y-11373688D02*
X12600105Y-11392736D01*
X12600105Y-11392736D02*
X12590582Y-11402260D01*
X12590582Y-11402260D02*
X12571534Y-11411784D01*
X12571534Y-11411784D02*
X12523915Y-11411784D01*
X12523915Y-11411784D02*
X12504867Y-11402260D01*
X12504867Y-11402260D02*
X12495343Y-11392736D01*
X12733439Y-11211784D02*
X12752486Y-11211784D01*
X12752486Y-11211784D02*
X12771534Y-11221308D01*
X12771534Y-11221308D02*
X12781058Y-11230831D01*
X12781058Y-11230831D02*
X12790582Y-11249879D01*
X12790582Y-11249879D02*
X12800105Y-11287974D01*
X12800105Y-11287974D02*
X12800105Y-11335593D01*
X12800105Y-11335593D02*
X12790582Y-11373688D01*
X12790582Y-11373688D02*
X12781058Y-11392736D01*
X12781058Y-11392736D02*
X12771534Y-11402260D01*
X12771534Y-11402260D02*
X12752486Y-11411784D01*
X12752486Y-11411784D02*
X12733439Y-11411784D01*
X12733439Y-11411784D02*
X12714391Y-11402260D01*
X12714391Y-11402260D02*
X12704867Y-11392736D01*
X12704867Y-11392736D02*
X12695343Y-11373688D01*
X12695343Y-11373688D02*
X12685820Y-11335593D01*
X12685820Y-11335593D02*
X12685820Y-11287974D01*
X12685820Y-11287974D02*
X12695343Y-11249879D01*
X12695343Y-11249879D02*
X12704867Y-11230831D01*
X12704867Y-11230831D02*
X12714391Y-11221308D01*
X12714391Y-11221308D02*
X12733439Y-11211784D01*
X12885820Y-11411784D02*
X12885820Y-11278450D01*
X12885820Y-11297498D02*
X12895343Y-11287974D01*
X12895343Y-11287974D02*
X12914391Y-11278450D01*
X12914391Y-11278450D02*
X12942963Y-11278450D01*
X12942963Y-11278450D02*
X12962010Y-11287974D01*
X12962010Y-11287974D02*
X12971534Y-11307022D01*
X12971534Y-11307022D02*
X12971534Y-11411784D01*
X12971534Y-11307022D02*
X12981058Y-11287974D01*
X12981058Y-11287974D02*
X13000105Y-11278450D01*
X13000105Y-11278450D02*
X13028677Y-11278450D01*
X13028677Y-11278450D02*
X13047724Y-11287974D01*
X13047724Y-11287974D02*
X13057248Y-11307022D01*
X13057248Y-11307022D02*
X13057248Y-11411784D01*
X13152486Y-11411784D02*
X13152486Y-11278450D01*
X13152486Y-11297498D02*
X13162010Y-11287974D01*
X13162010Y-11287974D02*
X13181058Y-11278450D01*
X13181058Y-11278450D02*
X13209629Y-11278450D01*
X13209629Y-11278450D02*
X13228677Y-11287974D01*
X13228677Y-11287974D02*
X13238201Y-11307022D01*
X13238201Y-11307022D02*
X13238201Y-11411784D01*
X13238201Y-11307022D02*
X13247724Y-11287974D01*
X13247724Y-11287974D02*
X13266772Y-11278450D01*
X13266772Y-11278450D02*
X13295343Y-11278450D01*
X13295343Y-11278450D02*
X13314391Y-11287974D01*
X13314391Y-11287974D02*
X13323915Y-11307022D01*
X13323915Y-11307022D02*
X13323915Y-11411784D01*
X13714391Y-11202260D02*
X13542963Y-11459403D01*
X13971534Y-11211784D02*
X13990582Y-11211784D01*
X13990582Y-11211784D02*
X14009629Y-11221308D01*
X14009629Y-11221308D02*
X14019153Y-11230831D01*
X14019153Y-11230831D02*
X14028677Y-11249879D01*
X14028677Y-11249879D02*
X14038201Y-11287974D01*
X14038201Y-11287974D02*
X14038201Y-11335593D01*
X14038201Y-11335593D02*
X14028677Y-11373688D01*
X14028677Y-11373688D02*
X14019153Y-11392736D01*
X14019153Y-11392736D02*
X14009629Y-11402260D01*
X14009629Y-11402260D02*
X13990582Y-11411784D01*
X13990582Y-11411784D02*
X13971534Y-11411784D01*
X13971534Y-11411784D02*
X13952486Y-11402260D01*
X13952486Y-11402260D02*
X13942963Y-11392736D01*
X13942963Y-11392736D02*
X13933439Y-11373688D01*
X13933439Y-11373688D02*
X13923915Y-11335593D01*
X13923915Y-11335593D02*
X13923915Y-11287974D01*
X13923915Y-11287974D02*
X13933439Y-11249879D01*
X13933439Y-11249879D02*
X13942963Y-11230831D01*
X13942963Y-11230831D02*
X13952486Y-11221308D01*
X13952486Y-11221308D02*
X13971534Y-11211784D01*
X14123915Y-11392736D02*
X14133439Y-11402260D01*
X14133439Y-11402260D02*
X14123915Y-11411784D01*
X14123915Y-11411784D02*
X14114391Y-11402260D01*
X14114391Y-11402260D02*
X14123915Y-11392736D01*
X14123915Y-11392736D02*
X14123915Y-11411784D01*
X14257248Y-11211784D02*
X14276296Y-11211784D01*
X14276296Y-11211784D02*
X14295344Y-11221308D01*
X14295344Y-11221308D02*
X14304867Y-11230831D01*
X14304867Y-11230831D02*
X14314391Y-11249879D01*
X14314391Y-11249879D02*
X14323915Y-11287974D01*
X14323915Y-11287974D02*
X14323915Y-11335593D01*
X14323915Y-11335593D02*
X14314391Y-11373688D01*
X14314391Y-11373688D02*
X14304867Y-11392736D01*
X14304867Y-11392736D02*
X14295344Y-11402260D01*
X14295344Y-11402260D02*
X14276296Y-11411784D01*
X14276296Y-11411784D02*
X14257248Y-11411784D01*
X14257248Y-11411784D02*
X14238201Y-11402260D01*
X14238201Y-11402260D02*
X14228677Y-11392736D01*
X14228677Y-11392736D02*
X14219153Y-11373688D01*
X14219153Y-11373688D02*
X14209629Y-11335593D01*
X14209629Y-11335593D02*
X14209629Y-11287974D01*
X14209629Y-11287974D02*
X14219153Y-11249879D01*
X14219153Y-11249879D02*
X14228677Y-11230831D01*
X14228677Y-11230831D02*
X14238201Y-11221308D01*
X14238201Y-11221308D02*
X14257248Y-11211784D01*
X14400106Y-11230831D02*
X14409629Y-11221308D01*
X14409629Y-11221308D02*
X14428677Y-11211784D01*
X14428677Y-11211784D02*
X14476296Y-11211784D01*
X14476296Y-11211784D02*
X14495344Y-11221308D01*
X14495344Y-11221308D02*
X14504867Y-11230831D01*
X14504867Y-11230831D02*
X14514391Y-11249879D01*
X14514391Y-11249879D02*
X14514391Y-11268927D01*
X14514391Y-11268927D02*
X14504867Y-11297498D01*
X14504867Y-11297498D02*
X14390582Y-11411784D01*
X14390582Y-11411784D02*
X14514391Y-11411784D01*
X14609629Y-11411784D02*
X14647725Y-11411784D01*
X14647725Y-11411784D02*
X14666772Y-11402260D01*
X14666772Y-11402260D02*
X14676296Y-11392736D01*
X14676296Y-11392736D02*
X14695344Y-11364165D01*
X14695344Y-11364165D02*
X14704867Y-11326069D01*
X14704867Y-11326069D02*
X14704867Y-11249879D01*
X14704867Y-11249879D02*
X14695344Y-11230831D01*
X14695344Y-11230831D02*
X14685820Y-11221308D01*
X14685820Y-11221308D02*
X14666772Y-11211784D01*
X14666772Y-11211784D02*
X14628677Y-11211784D01*
X14628677Y-11211784D02*
X14609629Y-11221308D01*
X14609629Y-11221308D02*
X14600106Y-11230831D01*
X14600106Y-11230831D02*
X14590582Y-11249879D01*
X14590582Y-11249879D02*
X14590582Y-11297498D01*
X14590582Y-11297498D02*
X14600106Y-11316546D01*
X14600106Y-11316546D02*
X14609629Y-11326069D01*
X14609629Y-11326069D02*
X14628677Y-11335593D01*
X14628677Y-11335593D02*
X14666772Y-11335593D01*
X14666772Y-11335593D02*
X14685820Y-11326069D01*
X14685820Y-11326069D02*
X14695344Y-11316546D01*
X14695344Y-11316546D02*
X14704867Y-11297498D01*
X14885820Y-11211784D02*
X14790582Y-11211784D01*
X14790582Y-11211784D02*
X14781058Y-11307022D01*
X14781058Y-11307022D02*
X14790582Y-11297498D01*
X14790582Y-11297498D02*
X14809629Y-11287974D01*
X14809629Y-11287974D02*
X14857248Y-11287974D01*
X14857248Y-11287974D02*
X14876296Y-11297498D01*
X14876296Y-11297498D02*
X14885820Y-11307022D01*
X14885820Y-11307022D02*
X14895344Y-11326069D01*
X14895344Y-11326069D02*
X14895344Y-11373688D01*
X14895344Y-11373688D02*
X14885820Y-11392736D01*
X14885820Y-11392736D02*
X14876296Y-11402260D01*
X14876296Y-11402260D02*
X14857248Y-11411784D01*
X14857248Y-11411784D02*
X14809629Y-11411784D01*
X14809629Y-11411784D02*
X14790582Y-11402260D01*
X14790582Y-11402260D02*
X14781058Y-11392736D01*
X14971534Y-11211784D02*
X14971534Y-11249879D01*
X15047725Y-11211784D02*
X15047725Y-11249879D01*
X15342963Y-11487974D02*
X15333439Y-11478450D01*
X15333439Y-11478450D02*
X15314391Y-11449879D01*
X15314391Y-11449879D02*
X15304868Y-11430831D01*
X15304868Y-11430831D02*
X15295344Y-11402260D01*
X15295344Y-11402260D02*
X15285820Y-11354641D01*
X15285820Y-11354641D02*
X15285820Y-11316546D01*
X15285820Y-11316546D02*
X15295344Y-11268927D01*
X15295344Y-11268927D02*
X15304868Y-11240355D01*
X15304868Y-11240355D02*
X15314391Y-11221308D01*
X15314391Y-11221308D02*
X15333439Y-11192736D01*
X15333439Y-11192736D02*
X15342963Y-11183212D01*
X15504868Y-11211784D02*
X15466772Y-11211784D01*
X15466772Y-11211784D02*
X15447725Y-11221308D01*
X15447725Y-11221308D02*
X15438201Y-11230831D01*
X15438201Y-11230831D02*
X15419153Y-11259403D01*
X15419153Y-11259403D02*
X15409629Y-11297498D01*
X15409629Y-11297498D02*
X15409629Y-11373688D01*
X15409629Y-11373688D02*
X15419153Y-11392736D01*
X15419153Y-11392736D02*
X15428677Y-11402260D01*
X15428677Y-11402260D02*
X15447725Y-11411784D01*
X15447725Y-11411784D02*
X15485820Y-11411784D01*
X15485820Y-11411784D02*
X15504868Y-11402260D01*
X15504868Y-11402260D02*
X15514391Y-11392736D01*
X15514391Y-11392736D02*
X15523915Y-11373688D01*
X15523915Y-11373688D02*
X15523915Y-11326069D01*
X15523915Y-11326069D02*
X15514391Y-11307022D01*
X15514391Y-11307022D02*
X15504868Y-11297498D01*
X15504868Y-11297498D02*
X15485820Y-11287974D01*
X15485820Y-11287974D02*
X15447725Y-11287974D01*
X15447725Y-11287974D02*
X15428677Y-11297498D01*
X15428677Y-11297498D02*
X15419153Y-11307022D01*
X15419153Y-11307022D02*
X15409629Y-11326069D01*
X15762010Y-11411784D02*
X15762010Y-11211784D01*
X15847725Y-11411784D02*
X15847725Y-11307022D01*
X15847725Y-11307022D02*
X15838201Y-11287974D01*
X15838201Y-11287974D02*
X15819153Y-11278450D01*
X15819153Y-11278450D02*
X15790582Y-11278450D01*
X15790582Y-11278450D02*
X15771534Y-11287974D01*
X15771534Y-11287974D02*
X15762010Y-11297498D01*
X15971534Y-11411784D02*
X15952487Y-11402260D01*
X15952487Y-11402260D02*
X15942963Y-11392736D01*
X15942963Y-11392736D02*
X15933439Y-11373688D01*
X15933439Y-11373688D02*
X15933439Y-11316546D01*
X15933439Y-11316546D02*
X15942963Y-11297498D01*
X15942963Y-11297498D02*
X15952487Y-11287974D01*
X15952487Y-11287974D02*
X15971534Y-11278450D01*
X15971534Y-11278450D02*
X16000106Y-11278450D01*
X16000106Y-11278450D02*
X16019153Y-11287974D01*
X16019153Y-11287974D02*
X16028677Y-11297498D01*
X16028677Y-11297498D02*
X16038201Y-11316546D01*
X16038201Y-11316546D02*
X16038201Y-11373688D01*
X16038201Y-11373688D02*
X16028677Y-11392736D01*
X16028677Y-11392736D02*
X16019153Y-11402260D01*
X16019153Y-11402260D02*
X16000106Y-11411784D01*
X16000106Y-11411784D02*
X15971534Y-11411784D01*
X16152487Y-11411784D02*
X16133439Y-11402260D01*
X16133439Y-11402260D02*
X16123915Y-11383212D01*
X16123915Y-11383212D02*
X16123915Y-11211784D01*
X16304868Y-11402260D02*
X16285820Y-11411784D01*
X16285820Y-11411784D02*
X16247725Y-11411784D01*
X16247725Y-11411784D02*
X16228677Y-11402260D01*
X16228677Y-11402260D02*
X16219153Y-11383212D01*
X16219153Y-11383212D02*
X16219153Y-11307022D01*
X16219153Y-11307022D02*
X16228677Y-11287974D01*
X16228677Y-11287974D02*
X16247725Y-11278450D01*
X16247725Y-11278450D02*
X16285820Y-11278450D01*
X16285820Y-11278450D02*
X16304868Y-11287974D01*
X16304868Y-11287974D02*
X16314391Y-11307022D01*
X16314391Y-11307022D02*
X16314391Y-11326069D01*
X16314391Y-11326069D02*
X16219153Y-11345117D01*
X16390582Y-11402260D02*
X16409630Y-11411784D01*
X16409630Y-11411784D02*
X16447725Y-11411784D01*
X16447725Y-11411784D02*
X16466772Y-11402260D01*
X16466772Y-11402260D02*
X16476296Y-11383212D01*
X16476296Y-11383212D02*
X16476296Y-11373688D01*
X16476296Y-11373688D02*
X16466772Y-11354641D01*
X16466772Y-11354641D02*
X16447725Y-11345117D01*
X16447725Y-11345117D02*
X16419153Y-11345117D01*
X16419153Y-11345117D02*
X16400106Y-11335593D01*
X16400106Y-11335593D02*
X16390582Y-11316546D01*
X16390582Y-11316546D02*
X16390582Y-11307022D01*
X16390582Y-11307022D02*
X16400106Y-11287974D01*
X16400106Y-11287974D02*
X16419153Y-11278450D01*
X16419153Y-11278450D02*
X16447725Y-11278450D01*
X16447725Y-11278450D02*
X16466772Y-11287974D01*
X16542963Y-11487974D02*
X16552487Y-11478450D01*
X16552487Y-11478450D02*
X16571534Y-11449879D01*
X16571534Y-11449879D02*
X16581058Y-11430831D01*
X16581058Y-11430831D02*
X16590582Y-11402260D01*
X16590582Y-11402260D02*
X16600106Y-11354641D01*
X16600106Y-11354641D02*
X16600106Y-11316546D01*
X16600106Y-11316546D02*
X16590582Y-11268927D01*
X16590582Y-11268927D02*
X16581058Y-11240355D01*
X16581058Y-11240355D02*
X16571534Y-11221308D01*
X16571534Y-11221308D02*
X16552487Y-11192736D01*
X16552487Y-11192736D02*
X16542963Y-11183212D01*
D10*
X11753256Y-11619656D02*
X11753256Y-11548944D01*
X11682544Y-11548944D01*
X11682544Y-11619656D01*
X11753256Y-11619656D01*
D11*
X12133439Y-11675784D02*
X12019153Y-11675784D01*
X12076296Y-11675784D02*
X12076296Y-11475784D01*
X12076296Y-11475784D02*
X12057248Y-11504355D01*
X12057248Y-11504355D02*
X12038201Y-11523403D01*
X12038201Y-11523403D02*
X12019153Y-11532927D01*
X12219153Y-11656736D02*
X12228677Y-11666260D01*
X12228677Y-11666260D02*
X12219153Y-11675784D01*
X12219153Y-11675784D02*
X12209629Y-11666260D01*
X12209629Y-11666260D02*
X12219153Y-11656736D01*
X12219153Y-11656736D02*
X12219153Y-11675784D01*
X12352486Y-11475784D02*
X12371534Y-11475784D01*
X12371534Y-11475784D02*
X12390582Y-11485308D01*
X12390582Y-11485308D02*
X12400105Y-11494831D01*
X12400105Y-11494831D02*
X12409629Y-11513879D01*
X12409629Y-11513879D02*
X12419153Y-11551974D01*
X12419153Y-11551974D02*
X12419153Y-11599593D01*
X12419153Y-11599593D02*
X12409629Y-11637688D01*
X12409629Y-11637688D02*
X12400105Y-11656736D01*
X12400105Y-11656736D02*
X12390582Y-11666260D01*
X12390582Y-11666260D02*
X12371534Y-11675784D01*
X12371534Y-11675784D02*
X12352486Y-11675784D01*
X12352486Y-11675784D02*
X12333439Y-11666260D01*
X12333439Y-11666260D02*
X12323915Y-11656736D01*
X12323915Y-11656736D02*
X12314391Y-11637688D01*
X12314391Y-11637688D02*
X12304867Y-11599593D01*
X12304867Y-11599593D02*
X12304867Y-11551974D01*
X12304867Y-11551974D02*
X12314391Y-11513879D01*
X12314391Y-11513879D02*
X12323915Y-11494831D01*
X12323915Y-11494831D02*
X12333439Y-11485308D01*
X12333439Y-11485308D02*
X12352486Y-11475784D01*
X12542962Y-11475784D02*
X12562010Y-11475784D01*
X12562010Y-11475784D02*
X12581058Y-11485308D01*
X12581058Y-11485308D02*
X12590582Y-11494831D01*
X12590582Y-11494831D02*
X12600105Y-11513879D01*
X12600105Y-11513879D02*
X12609629Y-11551974D01*
X12609629Y-11551974D02*
X12609629Y-11599593D01*
X12609629Y-11599593D02*
X12600105Y-11637688D01*
X12600105Y-11637688D02*
X12590582Y-11656736D01*
X12590582Y-11656736D02*
X12581058Y-11666260D01*
X12581058Y-11666260D02*
X12562010Y-11675784D01*
X12562010Y-11675784D02*
X12542962Y-11675784D01*
X12542962Y-11675784D02*
X12523915Y-11666260D01*
X12523915Y-11666260D02*
X12514391Y-11656736D01*
X12514391Y-11656736D02*
X12504867Y-11637688D01*
X12504867Y-11637688D02*
X12495343Y-11599593D01*
X12495343Y-11599593D02*
X12495343Y-11551974D01*
X12495343Y-11551974D02*
X12504867Y-11513879D01*
X12504867Y-11513879D02*
X12514391Y-11494831D01*
X12514391Y-11494831D02*
X12523915Y-11485308D01*
X12523915Y-11485308D02*
X12542962Y-11475784D01*
X12733439Y-11475784D02*
X12752486Y-11475784D01*
X12752486Y-11475784D02*
X12771534Y-11485308D01*
X12771534Y-11485308D02*
X12781058Y-11494831D01*
X12781058Y-11494831D02*
X12790582Y-11513879D01*
X12790582Y-11513879D02*
X12800105Y-11551974D01*
X12800105Y-11551974D02*
X12800105Y-11599593D01*
X12800105Y-11599593D02*
X12790582Y-11637688D01*
X12790582Y-11637688D02*
X12781058Y-11656736D01*
X12781058Y-11656736D02*
X12771534Y-11666260D01*
X12771534Y-11666260D02*
X12752486Y-11675784D01*
X12752486Y-11675784D02*
X12733439Y-11675784D01*
X12733439Y-11675784D02*
X12714391Y-11666260D01*
X12714391Y-11666260D02*
X12704867Y-11656736D01*
X12704867Y-11656736D02*
X12695343Y-11637688D01*
X12695343Y-11637688D02*
X12685820Y-11599593D01*
X12685820Y-11599593D02*
X12685820Y-11551974D01*
X12685820Y-11551974D02*
X12695343Y-11513879D01*
X12695343Y-11513879D02*
X12704867Y-11494831D01*
X12704867Y-11494831D02*
X12714391Y-11485308D01*
X12714391Y-11485308D02*
X12733439Y-11475784D01*
X12885820Y-11675784D02*
X12885820Y-11542450D01*
X12885820Y-11561498D02*
X12895343Y-11551974D01*
X12895343Y-11551974D02*
X12914391Y-11542450D01*
X12914391Y-11542450D02*
X12942963Y-11542450D01*
X12942963Y-11542450D02*
X12962010Y-11551974D01*
X12962010Y-11551974D02*
X12971534Y-11571022D01*
X12971534Y-11571022D02*
X12971534Y-11675784D01*
X12971534Y-11571022D02*
X12981058Y-11551974D01*
X12981058Y-11551974D02*
X13000105Y-11542450D01*
X13000105Y-11542450D02*
X13028677Y-11542450D01*
X13028677Y-11542450D02*
X13047724Y-11551974D01*
X13047724Y-11551974D02*
X13057248Y-11571022D01*
X13057248Y-11571022D02*
X13057248Y-11675784D01*
X13152486Y-11675784D02*
X13152486Y-11542450D01*
X13152486Y-11561498D02*
X13162010Y-11551974D01*
X13162010Y-11551974D02*
X13181058Y-11542450D01*
X13181058Y-11542450D02*
X13209629Y-11542450D01*
X13209629Y-11542450D02*
X13228677Y-11551974D01*
X13228677Y-11551974D02*
X13238201Y-11571022D01*
X13238201Y-11571022D02*
X13238201Y-11675784D01*
X13238201Y-11571022D02*
X13247724Y-11551974D01*
X13247724Y-11551974D02*
X13266772Y-11542450D01*
X13266772Y-11542450D02*
X13295343Y-11542450D01*
X13295343Y-11542450D02*
X13314391Y-11551974D01*
X13314391Y-11551974D02*
X13323915Y-11571022D01*
X13323915Y-11571022D02*
X13323915Y-11675784D01*
X13714391Y-11466260D02*
X13542963Y-11723403D01*
X13971534Y-11475784D02*
X13990582Y-11475784D01*
X13990582Y-11475784D02*
X14009629Y-11485308D01*
X14009629Y-11485308D02*
X14019153Y-11494831D01*
X14019153Y-11494831D02*
X14028677Y-11513879D01*
X14028677Y-11513879D02*
X14038201Y-11551974D01*
X14038201Y-11551974D02*
X14038201Y-11599593D01*
X14038201Y-11599593D02*
X14028677Y-11637688D01*
X14028677Y-11637688D02*
X14019153Y-11656736D01*
X14019153Y-11656736D02*
X14009629Y-11666260D01*
X14009629Y-11666260D02*
X13990582Y-11675784D01*
X13990582Y-11675784D02*
X13971534Y-11675784D01*
X13971534Y-11675784D02*
X13952486Y-11666260D01*
X13952486Y-11666260D02*
X13942963Y-11656736D01*
X13942963Y-11656736D02*
X13933439Y-11637688D01*
X13933439Y-11637688D02*
X13923915Y-11599593D01*
X13923915Y-11599593D02*
X13923915Y-11551974D01*
X13923915Y-11551974D02*
X13933439Y-11513879D01*
X13933439Y-11513879D02*
X13942963Y-11494831D01*
X13942963Y-11494831D02*
X13952486Y-11485308D01*
X13952486Y-11485308D02*
X13971534Y-11475784D01*
X14123915Y-11656736D02*
X14133439Y-11666260D01*
X14133439Y-11666260D02*
X14123915Y-11675784D01*
X14123915Y-11675784D02*
X14114391Y-11666260D01*
X14114391Y-11666260D02*
X14123915Y-11656736D01*
X14123915Y-11656736D02*
X14123915Y-11675784D01*
X14257248Y-11475784D02*
X14276296Y-11475784D01*
X14276296Y-11475784D02*
X14295344Y-11485308D01*
X14295344Y-11485308D02*
X14304867Y-11494831D01*
X14304867Y-11494831D02*
X14314391Y-11513879D01*
X14314391Y-11513879D02*
X14323915Y-11551974D01*
X14323915Y-11551974D02*
X14323915Y-11599593D01*
X14323915Y-11599593D02*
X14314391Y-11637688D01*
X14314391Y-11637688D02*
X14304867Y-11656736D01*
X14304867Y-11656736D02*
X14295344Y-11666260D01*
X14295344Y-11666260D02*
X14276296Y-11675784D01*
X14276296Y-11675784D02*
X14257248Y-11675784D01*
X14257248Y-11675784D02*
X14238201Y-11666260D01*
X14238201Y-11666260D02*
X14228677Y-11656736D01*
X14228677Y-11656736D02*
X14219153Y-11637688D01*
X14219153Y-11637688D02*
X14209629Y-11599593D01*
X14209629Y-11599593D02*
X14209629Y-11551974D01*
X14209629Y-11551974D02*
X14219153Y-11513879D01*
X14219153Y-11513879D02*
X14228677Y-11494831D01*
X14228677Y-11494831D02*
X14238201Y-11485308D01*
X14238201Y-11485308D02*
X14257248Y-11475784D01*
X14390582Y-11475784D02*
X14514391Y-11475784D01*
X14514391Y-11475784D02*
X14447725Y-11551974D01*
X14447725Y-11551974D02*
X14476296Y-11551974D01*
X14476296Y-11551974D02*
X14495344Y-11561498D01*
X14495344Y-11561498D02*
X14504867Y-11571022D01*
X14504867Y-11571022D02*
X14514391Y-11590069D01*
X14514391Y-11590069D02*
X14514391Y-11637688D01*
X14514391Y-11637688D02*
X14504867Y-11656736D01*
X14504867Y-11656736D02*
X14495344Y-11666260D01*
X14495344Y-11666260D02*
X14476296Y-11675784D01*
X14476296Y-11675784D02*
X14419153Y-11675784D01*
X14419153Y-11675784D02*
X14400106Y-11666260D01*
X14400106Y-11666260D02*
X14390582Y-11656736D01*
X14609629Y-11675784D02*
X14647725Y-11675784D01*
X14647725Y-11675784D02*
X14666772Y-11666260D01*
X14666772Y-11666260D02*
X14676296Y-11656736D01*
X14676296Y-11656736D02*
X14695344Y-11628165D01*
X14695344Y-11628165D02*
X14704867Y-11590069D01*
X14704867Y-11590069D02*
X14704867Y-11513879D01*
X14704867Y-11513879D02*
X14695344Y-11494831D01*
X14695344Y-11494831D02*
X14685820Y-11485308D01*
X14685820Y-11485308D02*
X14666772Y-11475784D01*
X14666772Y-11475784D02*
X14628677Y-11475784D01*
X14628677Y-11475784D02*
X14609629Y-11485308D01*
X14609629Y-11485308D02*
X14600106Y-11494831D01*
X14600106Y-11494831D02*
X14590582Y-11513879D01*
X14590582Y-11513879D02*
X14590582Y-11561498D01*
X14590582Y-11561498D02*
X14600106Y-11580546D01*
X14600106Y-11580546D02*
X14609629Y-11590069D01*
X14609629Y-11590069D02*
X14628677Y-11599593D01*
X14628677Y-11599593D02*
X14666772Y-11599593D01*
X14666772Y-11599593D02*
X14685820Y-11590069D01*
X14685820Y-11590069D02*
X14695344Y-11580546D01*
X14695344Y-11580546D02*
X14704867Y-11561498D01*
X14876296Y-11542450D02*
X14876296Y-11675784D01*
X14828677Y-11466260D02*
X14781058Y-11609117D01*
X14781058Y-11609117D02*
X14904867Y-11609117D01*
X14971534Y-11475784D02*
X14971534Y-11513879D01*
X15047725Y-11475784D02*
X15047725Y-11513879D01*
X15342963Y-11751974D02*
X15333439Y-11742450D01*
X15333439Y-11742450D02*
X15314391Y-11713879D01*
X15314391Y-11713879D02*
X15304868Y-11694831D01*
X15304868Y-11694831D02*
X15295344Y-11666260D01*
X15295344Y-11666260D02*
X15285820Y-11618641D01*
X15285820Y-11618641D02*
X15285820Y-11580546D01*
X15285820Y-11580546D02*
X15295344Y-11532927D01*
X15295344Y-11532927D02*
X15304868Y-11504355D01*
X15304868Y-11504355D02*
X15314391Y-11485308D01*
X15314391Y-11485308D02*
X15333439Y-11456736D01*
X15333439Y-11456736D02*
X15342963Y-11447212D01*
X15400106Y-11475784D02*
X15533439Y-11475784D01*
X15533439Y-11475784D02*
X15447725Y-11675784D01*
X15762010Y-11675784D02*
X15762010Y-11475784D01*
X15847725Y-11675784D02*
X15847725Y-11571022D01*
X15847725Y-11571022D02*
X15838201Y-11551974D01*
X15838201Y-11551974D02*
X15819153Y-11542450D01*
X15819153Y-11542450D02*
X15790582Y-11542450D01*
X15790582Y-11542450D02*
X15771534Y-11551974D01*
X15771534Y-11551974D02*
X15762010Y-11561498D01*
X15971534Y-11675784D02*
X15952487Y-11666260D01*
X15952487Y-11666260D02*
X15942963Y-11656736D01*
X15942963Y-11656736D02*
X15933439Y-11637688D01*
X15933439Y-11637688D02*
X15933439Y-11580546D01*
X15933439Y-11580546D02*
X15942963Y-11561498D01*
X15942963Y-11561498D02*
X15952487Y-11551974D01*
X15952487Y-11551974D02*
X15971534Y-11542450D01*
X15971534Y-11542450D02*
X16000106Y-11542450D01*
X16000106Y-11542450D02*
X16019153Y-11551974D01*
X16019153Y-11551974D02*
X16028677Y-11561498D01*
X16028677Y-11561498D02*
X16038201Y-11580546D01*
X16038201Y-11580546D02*
X16038201Y-11637688D01*
X16038201Y-11637688D02*
X16028677Y-11656736D01*
X16028677Y-11656736D02*
X16019153Y-11666260D01*
X16019153Y-11666260D02*
X16000106Y-11675784D01*
X16000106Y-11675784D02*
X15971534Y-11675784D01*
X16152487Y-11675784D02*
X16133439Y-11666260D01*
X16133439Y-11666260D02*
X16123915Y-11647212D01*
X16123915Y-11647212D02*
X16123915Y-11475784D01*
X16304868Y-11666260D02*
X16285820Y-11675784D01*
X16285820Y-11675784D02*
X16247725Y-11675784D01*
X16247725Y-11675784D02*
X16228677Y-11666260D01*
X16228677Y-11666260D02*
X16219153Y-11647212D01*
X16219153Y-11647212D02*
X16219153Y-11571022D01*
X16219153Y-11571022D02*
X16228677Y-11551974D01*
X16228677Y-11551974D02*
X16247725Y-11542450D01*
X16247725Y-11542450D02*
X16285820Y-11542450D01*
X16285820Y-11542450D02*
X16304868Y-11551974D01*
X16304868Y-11551974D02*
X16314391Y-11571022D01*
X16314391Y-11571022D02*
X16314391Y-11590069D01*
X16314391Y-11590069D02*
X16219153Y-11609117D01*
X16390582Y-11666260D02*
X16409630Y-11675784D01*
X16409630Y-11675784D02*
X16447725Y-11675784D01*
X16447725Y-11675784D02*
X16466772Y-11666260D01*
X16466772Y-11666260D02*
X16476296Y-11647212D01*
X16476296Y-11647212D02*
X16476296Y-11637688D01*
X16476296Y-11637688D02*
X16466772Y-11618641D01*
X16466772Y-11618641D02*
X16447725Y-11609117D01*
X16447725Y-11609117D02*
X16419153Y-11609117D01*
X16419153Y-11609117D02*
X16400106Y-11599593D01*
X16400106Y-11599593D02*
X16390582Y-11580546D01*
X16390582Y-11580546D02*
X16390582Y-11571022D01*
X16390582Y-11571022D02*
X16400106Y-11551974D01*
X16400106Y-11551974D02*
X16419153Y-11542450D01*
X16419153Y-11542450D02*
X16447725Y-11542450D01*
X16447725Y-11542450D02*
X16466772Y-11551974D01*
X16542963Y-11751974D02*
X16552487Y-11742450D01*
X16552487Y-11742450D02*
X16571534Y-11713879D01*
X16571534Y-11713879D02*
X16581058Y-11694831D01*
X16581058Y-11694831D02*
X16590582Y-11666260D01*
X16590582Y-11666260D02*
X16600106Y-11618641D01*
X16600106Y-11618641D02*
X16600106Y-11580546D01*
X16600106Y-11580546D02*
X16590582Y-11532927D01*
X16590582Y-11532927D02*
X16581058Y-11504355D01*
X16581058Y-11504355D02*
X16571534Y-11485308D01*
X16571534Y-11485308D02*
X16552487Y-11456736D01*
X16552487Y-11456736D02*
X16542963Y-11447212D01*
D12*
X11716900Y-11899300D02*
X11767900Y-11848300D01*
X11716900Y-11797300D01*
X11665900Y-11848300D01*
X11716900Y-11899300D01*
D11*
X12133439Y-11939784D02*
X12019153Y-11939784D01*
X12076296Y-11939784D02*
X12076296Y-11739784D01*
X12076296Y-11739784D02*
X12057248Y-11768355D01*
X12057248Y-11768355D02*
X12038201Y-11787403D01*
X12038201Y-11787403D02*
X12019153Y-11796927D01*
X12219153Y-11920736D02*
X12228677Y-11930260D01*
X12228677Y-11930260D02*
X12219153Y-11939784D01*
X12219153Y-11939784D02*
X12209629Y-11930260D01*
X12209629Y-11930260D02*
X12219153Y-11920736D01*
X12219153Y-11920736D02*
X12219153Y-11939784D01*
X12352486Y-11739784D02*
X12371534Y-11739784D01*
X12371534Y-11739784D02*
X12390582Y-11749308D01*
X12390582Y-11749308D02*
X12400105Y-11758831D01*
X12400105Y-11758831D02*
X12409629Y-11777879D01*
X12409629Y-11777879D02*
X12419153Y-11815974D01*
X12419153Y-11815974D02*
X12419153Y-11863593D01*
X12419153Y-11863593D02*
X12409629Y-11901688D01*
X12409629Y-11901688D02*
X12400105Y-11920736D01*
X12400105Y-11920736D02*
X12390582Y-11930260D01*
X12390582Y-11930260D02*
X12371534Y-11939784D01*
X12371534Y-11939784D02*
X12352486Y-11939784D01*
X12352486Y-11939784D02*
X12333439Y-11930260D01*
X12333439Y-11930260D02*
X12323915Y-11920736D01*
X12323915Y-11920736D02*
X12314391Y-11901688D01*
X12314391Y-11901688D02*
X12304867Y-11863593D01*
X12304867Y-11863593D02*
X12304867Y-11815974D01*
X12304867Y-11815974D02*
X12314391Y-11777879D01*
X12314391Y-11777879D02*
X12323915Y-11758831D01*
X12323915Y-11758831D02*
X12333439Y-11749308D01*
X12333439Y-11749308D02*
X12352486Y-11739784D01*
X12495343Y-11758831D02*
X12504867Y-11749308D01*
X12504867Y-11749308D02*
X12523915Y-11739784D01*
X12523915Y-11739784D02*
X12571534Y-11739784D01*
X12571534Y-11739784D02*
X12590582Y-11749308D01*
X12590582Y-11749308D02*
X12600105Y-11758831D01*
X12600105Y-11758831D02*
X12609629Y-11777879D01*
X12609629Y-11777879D02*
X12609629Y-11796927D01*
X12609629Y-11796927D02*
X12600105Y-11825498D01*
X12600105Y-11825498D02*
X12485820Y-11939784D01*
X12485820Y-11939784D02*
X12609629Y-11939784D01*
X12733439Y-11739784D02*
X12752486Y-11739784D01*
X12752486Y-11739784D02*
X12771534Y-11749308D01*
X12771534Y-11749308D02*
X12781058Y-11758831D01*
X12781058Y-11758831D02*
X12790582Y-11777879D01*
X12790582Y-11777879D02*
X12800105Y-11815974D01*
X12800105Y-11815974D02*
X12800105Y-11863593D01*
X12800105Y-11863593D02*
X12790582Y-11901688D01*
X12790582Y-11901688D02*
X12781058Y-11920736D01*
X12781058Y-11920736D02*
X12771534Y-11930260D01*
X12771534Y-11930260D02*
X12752486Y-11939784D01*
X12752486Y-11939784D02*
X12733439Y-11939784D01*
X12733439Y-11939784D02*
X12714391Y-11930260D01*
X12714391Y-11930260D02*
X12704867Y-11920736D01*
X12704867Y-11920736D02*
X12695343Y-11901688D01*
X12695343Y-11901688D02*
X12685820Y-11863593D01*
X12685820Y-11863593D02*
X12685820Y-11815974D01*
X12685820Y-11815974D02*
X12695343Y-11777879D01*
X12695343Y-11777879D02*
X12704867Y-11758831D01*
X12704867Y-11758831D02*
X12714391Y-11749308D01*
X12714391Y-11749308D02*
X12733439Y-11739784D01*
X12885820Y-11939784D02*
X12885820Y-11806450D01*
X12885820Y-11825498D02*
X12895343Y-11815974D01*
X12895343Y-11815974D02*
X12914391Y-11806450D01*
X12914391Y-11806450D02*
X12942963Y-11806450D01*
X12942963Y-11806450D02*
X12962010Y-11815974D01*
X12962010Y-11815974D02*
X12971534Y-11835022D01*
X12971534Y-11835022D02*
X12971534Y-11939784D01*
X12971534Y-11835022D02*
X12981058Y-11815974D01*
X12981058Y-11815974D02*
X13000105Y-11806450D01*
X13000105Y-11806450D02*
X13028677Y-11806450D01*
X13028677Y-11806450D02*
X13047724Y-11815974D01*
X13047724Y-11815974D02*
X13057248Y-11835022D01*
X13057248Y-11835022D02*
X13057248Y-11939784D01*
X13152486Y-11939784D02*
X13152486Y-11806450D01*
X13152486Y-11825498D02*
X13162010Y-11815974D01*
X13162010Y-11815974D02*
X13181058Y-11806450D01*
X13181058Y-11806450D02*
X13209629Y-11806450D01*
X13209629Y-11806450D02*
X13228677Y-11815974D01*
X13228677Y-11815974D02*
X13238201Y-11835022D01*
X13238201Y-11835022D02*
X13238201Y-11939784D01*
X13238201Y-11835022D02*
X13247724Y-11815974D01*
X13247724Y-11815974D02*
X13266772Y-11806450D01*
X13266772Y-11806450D02*
X13295343Y-11806450D01*
X13295343Y-11806450D02*
X13314391Y-11815974D01*
X13314391Y-11815974D02*
X13323915Y-11835022D01*
X13323915Y-11835022D02*
X13323915Y-11939784D01*
X13714391Y-11730260D02*
X13542963Y-11987403D01*
X13971534Y-11739784D02*
X13990582Y-11739784D01*
X13990582Y-11739784D02*
X14009629Y-11749308D01*
X14009629Y-11749308D02*
X14019153Y-11758831D01*
X14019153Y-11758831D02*
X14028677Y-11777879D01*
X14028677Y-11777879D02*
X14038201Y-11815974D01*
X14038201Y-11815974D02*
X14038201Y-11863593D01*
X14038201Y-11863593D02*
X14028677Y-11901688D01*
X14028677Y-11901688D02*
X14019153Y-11920736D01*
X14019153Y-11920736D02*
X14009629Y-11930260D01*
X14009629Y-11930260D02*
X13990582Y-11939784D01*
X13990582Y-11939784D02*
X13971534Y-11939784D01*
X13971534Y-11939784D02*
X13952486Y-11930260D01*
X13952486Y-11930260D02*
X13942963Y-11920736D01*
X13942963Y-11920736D02*
X13933439Y-11901688D01*
X13933439Y-11901688D02*
X13923915Y-11863593D01*
X13923915Y-11863593D02*
X13923915Y-11815974D01*
X13923915Y-11815974D02*
X13933439Y-11777879D01*
X13933439Y-11777879D02*
X13942963Y-11758831D01*
X13942963Y-11758831D02*
X13952486Y-11749308D01*
X13952486Y-11749308D02*
X13971534Y-11739784D01*
X14123915Y-11920736D02*
X14133439Y-11930260D01*
X14133439Y-11930260D02*
X14123915Y-11939784D01*
X14123915Y-11939784D02*
X14114391Y-11930260D01*
X14114391Y-11930260D02*
X14123915Y-11920736D01*
X14123915Y-11920736D02*
X14123915Y-11939784D01*
X14257248Y-11739784D02*
X14276296Y-11739784D01*
X14276296Y-11739784D02*
X14295344Y-11749308D01*
X14295344Y-11749308D02*
X14304867Y-11758831D01*
X14304867Y-11758831D02*
X14314391Y-11777879D01*
X14314391Y-11777879D02*
X14323915Y-11815974D01*
X14323915Y-11815974D02*
X14323915Y-11863593D01*
X14323915Y-11863593D02*
X14314391Y-11901688D01*
X14314391Y-11901688D02*
X14304867Y-11920736D01*
X14304867Y-11920736D02*
X14295344Y-11930260D01*
X14295344Y-11930260D02*
X14276296Y-11939784D01*
X14276296Y-11939784D02*
X14257248Y-11939784D01*
X14257248Y-11939784D02*
X14238201Y-11930260D01*
X14238201Y-11930260D02*
X14228677Y-11920736D01*
X14228677Y-11920736D02*
X14219153Y-11901688D01*
X14219153Y-11901688D02*
X14209629Y-11863593D01*
X14209629Y-11863593D02*
X14209629Y-11815974D01*
X14209629Y-11815974D02*
X14219153Y-11777879D01*
X14219153Y-11777879D02*
X14228677Y-11758831D01*
X14228677Y-11758831D02*
X14238201Y-11749308D01*
X14238201Y-11749308D02*
X14257248Y-11739784D01*
X14495344Y-11806450D02*
X14495344Y-11939784D01*
X14447725Y-11730260D02*
X14400106Y-11873117D01*
X14400106Y-11873117D02*
X14523915Y-11873117D01*
X14638201Y-11739784D02*
X14657248Y-11739784D01*
X14657248Y-11739784D02*
X14676296Y-11749308D01*
X14676296Y-11749308D02*
X14685820Y-11758831D01*
X14685820Y-11758831D02*
X14695344Y-11777879D01*
X14695344Y-11777879D02*
X14704867Y-11815974D01*
X14704867Y-11815974D02*
X14704867Y-11863593D01*
X14704867Y-11863593D02*
X14695344Y-11901688D01*
X14695344Y-11901688D02*
X14685820Y-11920736D01*
X14685820Y-11920736D02*
X14676296Y-11930260D01*
X14676296Y-11930260D02*
X14657248Y-11939784D01*
X14657248Y-11939784D02*
X14638201Y-11939784D01*
X14638201Y-11939784D02*
X14619153Y-11930260D01*
X14619153Y-11930260D02*
X14609629Y-11920736D01*
X14609629Y-11920736D02*
X14600106Y-11901688D01*
X14600106Y-11901688D02*
X14590582Y-11863593D01*
X14590582Y-11863593D02*
X14590582Y-11815974D01*
X14590582Y-11815974D02*
X14600106Y-11777879D01*
X14600106Y-11777879D02*
X14609629Y-11758831D01*
X14609629Y-11758831D02*
X14619153Y-11749308D01*
X14619153Y-11749308D02*
X14638201Y-11739784D01*
X14781058Y-11758831D02*
X14790582Y-11749308D01*
X14790582Y-11749308D02*
X14809629Y-11739784D01*
X14809629Y-11739784D02*
X14857248Y-11739784D01*
X14857248Y-11739784D02*
X14876296Y-11749308D01*
X14876296Y-11749308D02*
X14885820Y-11758831D01*
X14885820Y-11758831D02*
X14895344Y-11777879D01*
X14895344Y-11777879D02*
X14895344Y-11796927D01*
X14895344Y-11796927D02*
X14885820Y-11825498D01*
X14885820Y-11825498D02*
X14771534Y-11939784D01*
X14771534Y-11939784D02*
X14895344Y-11939784D01*
X14971534Y-11739784D02*
X14971534Y-11777879D01*
X15047725Y-11739784D02*
X15047725Y-11777879D01*
X15342963Y-12015974D02*
X15333439Y-12006450D01*
X15333439Y-12006450D02*
X15314391Y-11977879D01*
X15314391Y-11977879D02*
X15304868Y-11958831D01*
X15304868Y-11958831D02*
X15295344Y-11930260D01*
X15295344Y-11930260D02*
X15285820Y-11882641D01*
X15285820Y-11882641D02*
X15285820Y-11844546D01*
X15285820Y-11844546D02*
X15295344Y-11796927D01*
X15295344Y-11796927D02*
X15304868Y-11768355D01*
X15304868Y-11768355D02*
X15314391Y-11749308D01*
X15314391Y-11749308D02*
X15333439Y-11720736D01*
X15333439Y-11720736D02*
X15342963Y-11711212D01*
X15409629Y-11758831D02*
X15419153Y-11749308D01*
X15419153Y-11749308D02*
X15438201Y-11739784D01*
X15438201Y-11739784D02*
X15485820Y-11739784D01*
X15485820Y-11739784D02*
X15504868Y-11749308D01*
X15504868Y-11749308D02*
X15514391Y-11758831D01*
X15514391Y-11758831D02*
X15523915Y-11777879D01*
X15523915Y-11777879D02*
X15523915Y-11796927D01*
X15523915Y-11796927D02*
X15514391Y-11825498D01*
X15514391Y-11825498D02*
X15400106Y-11939784D01*
X15400106Y-11939784D02*
X15523915Y-11939784D01*
X15762010Y-11939784D02*
X15762010Y-11739784D01*
X15847725Y-11939784D02*
X15847725Y-11835022D01*
X15847725Y-11835022D02*
X15838201Y-11815974D01*
X15838201Y-11815974D02*
X15819153Y-11806450D01*
X15819153Y-11806450D02*
X15790582Y-11806450D01*
X15790582Y-11806450D02*
X15771534Y-11815974D01*
X15771534Y-11815974D02*
X15762010Y-11825498D01*
X15971534Y-11939784D02*
X15952487Y-11930260D01*
X15952487Y-11930260D02*
X15942963Y-11920736D01*
X15942963Y-11920736D02*
X15933439Y-11901688D01*
X15933439Y-11901688D02*
X15933439Y-11844546D01*
X15933439Y-11844546D02*
X15942963Y-11825498D01*
X15942963Y-11825498D02*
X15952487Y-11815974D01*
X15952487Y-11815974D02*
X15971534Y-11806450D01*
X15971534Y-11806450D02*
X16000106Y-11806450D01*
X16000106Y-11806450D02*
X16019153Y-11815974D01*
X16019153Y-11815974D02*
X16028677Y-11825498D01*
X16028677Y-11825498D02*
X16038201Y-11844546D01*
X16038201Y-11844546D02*
X16038201Y-11901688D01*
X16038201Y-11901688D02*
X16028677Y-11920736D01*
X16028677Y-11920736D02*
X16019153Y-11930260D01*
X16019153Y-11930260D02*
X16000106Y-11939784D01*
X16000106Y-11939784D02*
X15971534Y-11939784D01*
X16152487Y-11939784D02*
X16133439Y-11930260D01*
X16133439Y-11930260D02*
X16123915Y-11911212D01*
X16123915Y-11911212D02*
X16123915Y-11739784D01*
X16304868Y-11930260D02*
X16285820Y-11939784D01*
X16285820Y-11939784D02*
X16247725Y-11939784D01*
X16247725Y-11939784D02*
X16228677Y-11930260D01*
X16228677Y-11930260D02*
X16219153Y-11911212D01*
X16219153Y-11911212D02*
X16219153Y-11835022D01*
X16219153Y-11835022D02*
X16228677Y-11815974D01*
X16228677Y-11815974D02*
X16247725Y-11806450D01*
X16247725Y-11806450D02*
X16285820Y-11806450D01*
X16285820Y-11806450D02*
X16304868Y-11815974D01*
X16304868Y-11815974D02*
X16314391Y-11835022D01*
X16314391Y-11835022D02*
X16314391Y-11854069D01*
X16314391Y-11854069D02*
X16219153Y-11873117D01*
X16390582Y-11930260D02*
X16409630Y-11939784D01*
X16409630Y-11939784D02*
X16447725Y-11939784D01*
X16447725Y-11939784D02*
X16466772Y-11930260D01*
X16466772Y-11930260D02*
X16476296Y-11911212D01*
X16476296Y-11911212D02*
X16476296Y-11901688D01*
X16476296Y-11901688D02*
X16466772Y-11882641D01*
X16466772Y-11882641D02*
X16447725Y-11873117D01*
X16447725Y-11873117D02*
X16419153Y-11873117D01*
X16419153Y-11873117D02*
X16400106Y-11863593D01*
X16400106Y-11863593D02*
X16390582Y-11844546D01*
X16390582Y-11844546D02*
X16390582Y-11835022D01*
X16390582Y-11835022D02*
X16400106Y-11815974D01*
X16400106Y-11815974D02*
X16419153Y-11806450D01*
X16419153Y-11806450D02*
X16447725Y-11806450D01*
X16447725Y-11806450D02*
X16466772Y-11815974D01*
X16542963Y-12015974D02*
X16552487Y-12006450D01*
X16552487Y-12006450D02*
X16571534Y-11977879D01*
X16571534Y-11977879D02*
X16581058Y-11958831D01*
X16581058Y-11958831D02*
X16590582Y-11930260D01*
X16590582Y-11930260D02*
X16600106Y-11882641D01*
X16600106Y-11882641D02*
X16600106Y-11844546D01*
X16600106Y-11844546D02*
X16590582Y-11796927D01*
X16590582Y-11796927D02*
X16581058Y-11768355D01*
X16581058Y-11768355D02*
X16571534Y-11749308D01*
X16571534Y-11749308D02*
X16552487Y-11720736D01*
X16552487Y-11720736D02*
X16542963Y-11711212D01*
M02*
