M48
; DRILL file {KiCad 8.0.2-8.0.2-0~ubuntu22.04.1} date 2024-05-08T22:35:11+0200
; FORMAT={-:-/ absolute / inch / decimal}
; #@! TF.CreationDate,2024-05-08T22:35:11+02:00
; #@! TF.GenerationSoftware,Kicad,Pcbnew,8.0.2-8.0.2-0~ubuntu22.04.1
; #@! TF.FileFunction,Plated,1,4,PTH
FMAT,2
INCH
; #@! TA.AperFunction,Plated,PTH,ComponentDrill
T1C0.0079
; #@! TA.AperFunction,Plated,PTH,ViaDrill
T2C0.0157
; #@! TA.AperFunction,Plated,PTH,ComponentDrill
T3C0.0295
; #@! TA.AperFunction,Plated,PTH,ComponentDrill
T4C0.0394
; #@! TA.AperFunction,Plated,PTH,ComponentDrill
T5C0.0402
%
G90
G05
T1
X5.3067Y-2.7418
X5.3067Y-2.8019
X5.3368Y-2.7118
X5.3368Y-2.7719
X5.3368Y-2.8319
X5.3668Y-2.7418
X5.3668Y-2.8019
X5.3968Y-2.7118
X5.3968Y-2.7719
X5.3968Y-2.8319
X5.4268Y-2.7418
X5.4268Y-2.8019
T2
X4.688Y-3.13
X4.689Y-2.932
X4.7635Y-3.1005
X4.791Y-3.407
X4.796Y-3.763
X4.8354Y-3.5036
X4.843Y-3.067
X4.8475Y-3.2415
X4.895Y-2.4827
X4.919Y-3.326
X4.9205Y-3.4765
X4.9383Y-2.4827
X4.942Y-3.134
X5.011Y-3.856
X5.053Y-3.261
X5.062Y-2.982
X5.073Y-2.921
X5.092Y-2.483
X5.098Y-3.634
X5.1295Y-3.2665
X5.161Y-2.846
X5.1951Y-3.0259
X5.272Y-3.107
X5.365Y-3.696
X5.418Y-3.3582
X5.48Y-3.046
X5.4858Y-3.8452
X5.501Y-3.946
X5.515Y-3.107
X5.518Y-3.681
X5.5465Y-3.3915
X5.564Y-3.867
X5.565Y-2.537
X5.5925Y-2.4803
X5.6031Y-2.6819
X5.605Y-2.738
X5.6087Y-2.5404
X5.609Y-3.162
X5.609Y-3.195
X5.617Y-2.8
X5.642Y-3.686
X5.684Y-3.919
X5.733Y-2.532
X5.734Y-2.483
X5.739Y-3.937
X5.817Y-3.938
X5.874Y-3.919
T3
X4.8055Y-2.5249
X4.8055Y-2.6036
X4.8055Y-2.6824
X4.8055Y-2.7611
X5.7386Y-3.8633
X5.8174Y-3.8633
T4
X5.844Y-2.5328
X5.844Y-2.6328
X5.844Y-2.7328
X5.844Y-2.8328
X5.844Y-2.9328
X5.844Y-3.0328
X5.844Y-3.1328
T5
X5.227Y-3.4989
X5.227Y-3.617
M30
