%TF.GenerationSoftware,KiCad,Pcbnew,8.0.2-8.0.2-0~ubuntu22.04.1*%
%TF.CreationDate,2024-05-08T22:35:07+02:00*%
%TF.ProjectId,MailBox_LP_Notifier,4d61696c-426f-4785-9f4c-505f4e6f7469,rev?*%
%TF.SameCoordinates,Original*%
%TF.FileFunction,Legend,Bot*%
%TF.FilePolarity,Positive*%
%FSLAX46Y46*%
G04 Gerber Fmt 4.6, Leading zero omitted, Abs format (unit mm)*
G04 Created by KiCad (PCBNEW 8.0.2-8.0.2-0~ubuntu22.04.1) date 2024-05-08 22:35:07*
%MOMM*%
%LPD*%
G01*
G04 APERTURE LIST*
%ADD10C,0.150000*%
%ADD11C,0.120000*%
G04 APERTURE END LIST*
D10*
X119334647Y-89794152D02*
X118334647Y-89794152D01*
X118334647Y-89794152D02*
X118334647Y-90032247D01*
X118334647Y-90032247D02*
X118382266Y-90175104D01*
X118382266Y-90175104D02*
X118477504Y-90270342D01*
X118477504Y-90270342D02*
X118572742Y-90317961D01*
X118572742Y-90317961D02*
X118763218Y-90365580D01*
X118763218Y-90365580D02*
X118906075Y-90365580D01*
X118906075Y-90365580D02*
X119096551Y-90317961D01*
X119096551Y-90317961D02*
X119191789Y-90270342D01*
X119191789Y-90270342D02*
X119287028Y-90175104D01*
X119287028Y-90175104D02*
X119334647Y-90032247D01*
X119334647Y-90032247D02*
X119334647Y-89794152D01*
X119287028Y-91175104D02*
X119334647Y-91079866D01*
X119334647Y-91079866D02*
X119334647Y-90889390D01*
X119334647Y-90889390D02*
X119287028Y-90794152D01*
X119287028Y-90794152D02*
X119191789Y-90746533D01*
X119191789Y-90746533D02*
X118810837Y-90746533D01*
X118810837Y-90746533D02*
X118715599Y-90794152D01*
X118715599Y-90794152D02*
X118667980Y-90889390D01*
X118667980Y-90889390D02*
X118667980Y-91079866D01*
X118667980Y-91079866D02*
X118715599Y-91175104D01*
X118715599Y-91175104D02*
X118810837Y-91222723D01*
X118810837Y-91222723D02*
X118906075Y-91222723D01*
X118906075Y-91222723D02*
X119001313Y-90746533D01*
X119287028Y-91603676D02*
X119334647Y-91698914D01*
X119334647Y-91698914D02*
X119334647Y-91889390D01*
X119334647Y-91889390D02*
X119287028Y-91984628D01*
X119287028Y-91984628D02*
X119191789Y-92032247D01*
X119191789Y-92032247D02*
X119144170Y-92032247D01*
X119144170Y-92032247D02*
X119048932Y-91984628D01*
X119048932Y-91984628D02*
X119001313Y-91889390D01*
X119001313Y-91889390D02*
X119001313Y-91746533D01*
X119001313Y-91746533D02*
X118953694Y-91651295D01*
X118953694Y-91651295D02*
X118858456Y-91603676D01*
X118858456Y-91603676D02*
X118810837Y-91603676D01*
X118810837Y-91603676D02*
X118715599Y-91651295D01*
X118715599Y-91651295D02*
X118667980Y-91746533D01*
X118667980Y-91746533D02*
X118667980Y-91889390D01*
X118667980Y-91889390D02*
X118715599Y-91984628D01*
X119334647Y-92460819D02*
X118667980Y-92460819D01*
X118334647Y-92460819D02*
X118382266Y-92413200D01*
X118382266Y-92413200D02*
X118429885Y-92460819D01*
X118429885Y-92460819D02*
X118382266Y-92508438D01*
X118382266Y-92508438D02*
X118334647Y-92460819D01*
X118334647Y-92460819D02*
X118429885Y-92460819D01*
X118667980Y-93365580D02*
X119477504Y-93365580D01*
X119477504Y-93365580D02*
X119572742Y-93317961D01*
X119572742Y-93317961D02*
X119620361Y-93270342D01*
X119620361Y-93270342D02*
X119667980Y-93175104D01*
X119667980Y-93175104D02*
X119667980Y-93032247D01*
X119667980Y-93032247D02*
X119620361Y-92937009D01*
X119287028Y-93365580D02*
X119334647Y-93270342D01*
X119334647Y-93270342D02*
X119334647Y-93079866D01*
X119334647Y-93079866D02*
X119287028Y-92984628D01*
X119287028Y-92984628D02*
X119239408Y-92937009D01*
X119239408Y-92937009D02*
X119144170Y-92889390D01*
X119144170Y-92889390D02*
X118858456Y-92889390D01*
X118858456Y-92889390D02*
X118763218Y-92937009D01*
X118763218Y-92937009D02*
X118715599Y-92984628D01*
X118715599Y-92984628D02*
X118667980Y-93079866D01*
X118667980Y-93079866D02*
X118667980Y-93270342D01*
X118667980Y-93270342D02*
X118715599Y-93365580D01*
X118667980Y-93841771D02*
X119334647Y-93841771D01*
X118763218Y-93841771D02*
X118715599Y-93889390D01*
X118715599Y-93889390D02*
X118667980Y-93984628D01*
X118667980Y-93984628D02*
X118667980Y-94127485D01*
X118667980Y-94127485D02*
X118715599Y-94222723D01*
X118715599Y-94222723D02*
X118810837Y-94270342D01*
X118810837Y-94270342D02*
X119334647Y-94270342D01*
X119287028Y-95127485D02*
X119334647Y-95032247D01*
X119334647Y-95032247D02*
X119334647Y-94841771D01*
X119334647Y-94841771D02*
X119287028Y-94746533D01*
X119287028Y-94746533D02*
X119191789Y-94698914D01*
X119191789Y-94698914D02*
X118810837Y-94698914D01*
X118810837Y-94698914D02*
X118715599Y-94746533D01*
X118715599Y-94746533D02*
X118667980Y-94841771D01*
X118667980Y-94841771D02*
X118667980Y-95032247D01*
X118667980Y-95032247D02*
X118715599Y-95127485D01*
X118715599Y-95127485D02*
X118810837Y-95175104D01*
X118810837Y-95175104D02*
X118906075Y-95175104D01*
X118906075Y-95175104D02*
X119001313Y-94698914D01*
X119334647Y-96032247D02*
X118334647Y-96032247D01*
X119287028Y-96032247D02*
X119334647Y-95937009D01*
X119334647Y-95937009D02*
X119334647Y-95746533D01*
X119334647Y-95746533D02*
X119287028Y-95651295D01*
X119287028Y-95651295D02*
X119239408Y-95603676D01*
X119239408Y-95603676D02*
X119144170Y-95556057D01*
X119144170Y-95556057D02*
X118858456Y-95556057D01*
X118858456Y-95556057D02*
X118763218Y-95603676D01*
X118763218Y-95603676D02*
X118715599Y-95651295D01*
X118715599Y-95651295D02*
X118667980Y-95746533D01*
X118667980Y-95746533D02*
X118667980Y-95937009D01*
X118667980Y-95937009D02*
X118715599Y-96032247D01*
X120944591Y-89603677D02*
X119944591Y-89603677D01*
X120325543Y-89603677D02*
X120277924Y-89698915D01*
X120277924Y-89698915D02*
X120277924Y-89889391D01*
X120277924Y-89889391D02*
X120325543Y-89984629D01*
X120325543Y-89984629D02*
X120373162Y-90032248D01*
X120373162Y-90032248D02*
X120468400Y-90079867D01*
X120468400Y-90079867D02*
X120754114Y-90079867D01*
X120754114Y-90079867D02*
X120849352Y-90032248D01*
X120849352Y-90032248D02*
X120896972Y-89984629D01*
X120896972Y-89984629D02*
X120944591Y-89889391D01*
X120944591Y-89889391D02*
X120944591Y-89698915D01*
X120944591Y-89698915D02*
X120896972Y-89603677D01*
X120277924Y-90413201D02*
X120944591Y-90651296D01*
X120277924Y-90889391D02*
X120944591Y-90651296D01*
X120944591Y-90651296D02*
X121182686Y-90556058D01*
X121182686Y-90556058D02*
X121230305Y-90508439D01*
X121230305Y-90508439D02*
X121277924Y-90413201D01*
X120849352Y-91270344D02*
X120896972Y-91317963D01*
X120896972Y-91317963D02*
X120944591Y-91270344D01*
X120944591Y-91270344D02*
X120896972Y-91222725D01*
X120896972Y-91222725D02*
X120849352Y-91270344D01*
X120849352Y-91270344D02*
X120944591Y-91270344D01*
X120325543Y-91270344D02*
X120373162Y-91317963D01*
X120373162Y-91317963D02*
X120420781Y-91270344D01*
X120420781Y-91270344D02*
X120373162Y-91222725D01*
X120373162Y-91222725D02*
X120325543Y-91270344D01*
X120325543Y-91270344D02*
X120420781Y-91270344D01*
X119944591Y-92413201D02*
X119944591Y-93079867D01*
X119944591Y-93079867D02*
X120944591Y-92413201D01*
X120944591Y-92413201D02*
X120944591Y-93079867D01*
X120944591Y-93460820D02*
X120277924Y-93460820D01*
X119944591Y-93460820D02*
X119992210Y-93413201D01*
X119992210Y-93413201D02*
X120039829Y-93460820D01*
X120039829Y-93460820D02*
X119992210Y-93508439D01*
X119992210Y-93508439D02*
X119944591Y-93460820D01*
X119944591Y-93460820D02*
X120039829Y-93460820D01*
X120944591Y-94079867D02*
X120896972Y-93984629D01*
X120896972Y-93984629D02*
X120801733Y-93937010D01*
X120801733Y-93937010D02*
X119944591Y-93937010D01*
X120944591Y-94460820D02*
X120277924Y-94460820D01*
X119944591Y-94460820D02*
X119992210Y-94413201D01*
X119992210Y-94413201D02*
X120039829Y-94460820D01*
X120039829Y-94460820D02*
X119992210Y-94508439D01*
X119992210Y-94508439D02*
X119944591Y-94460820D01*
X119944591Y-94460820D02*
X120039829Y-94460820D01*
X120277924Y-94841772D02*
X120277924Y-95365581D01*
X120277924Y-95365581D02*
X120944591Y-94841772D01*
X120944591Y-94841772D02*
X120944591Y-95365581D01*
X120944591Y-95746534D02*
X120277924Y-95746534D01*
X119944591Y-95746534D02*
X119992210Y-95698915D01*
X119992210Y-95698915D02*
X120039829Y-95746534D01*
X120039829Y-95746534D02*
X119992210Y-95794153D01*
X119992210Y-95794153D02*
X119944591Y-95746534D01*
X119944591Y-95746534D02*
X120039829Y-95746534D01*
X120944591Y-96222724D02*
X119944591Y-96222724D01*
X119345952Y-97352029D02*
X120012619Y-97590124D01*
X120012619Y-97590124D02*
X119345952Y-97828219D01*
X119012619Y-98399648D02*
X119012619Y-98494886D01*
X119012619Y-98494886D02*
X119060238Y-98590124D01*
X119060238Y-98590124D02*
X119107857Y-98637743D01*
X119107857Y-98637743D02*
X119203095Y-98685362D01*
X119203095Y-98685362D02*
X119393571Y-98732981D01*
X119393571Y-98732981D02*
X119631666Y-98732981D01*
X119631666Y-98732981D02*
X119822142Y-98685362D01*
X119822142Y-98685362D02*
X119917380Y-98637743D01*
X119917380Y-98637743D02*
X119965000Y-98590124D01*
X119965000Y-98590124D02*
X120012619Y-98494886D01*
X120012619Y-98494886D02*
X120012619Y-98399648D01*
X120012619Y-98399648D02*
X119965000Y-98304410D01*
X119965000Y-98304410D02*
X119917380Y-98256791D01*
X119917380Y-98256791D02*
X119822142Y-98209172D01*
X119822142Y-98209172D02*
X119631666Y-98161553D01*
X119631666Y-98161553D02*
X119393571Y-98161553D01*
X119393571Y-98161553D02*
X119203095Y-98209172D01*
X119203095Y-98209172D02*
X119107857Y-98256791D01*
X119107857Y-98256791D02*
X119060238Y-98304410D01*
X119060238Y-98304410D02*
X119012619Y-98399648D01*
X119917380Y-99161553D02*
X119965000Y-99209172D01*
X119965000Y-99209172D02*
X120012619Y-99161553D01*
X120012619Y-99161553D02*
X119965000Y-99113934D01*
X119965000Y-99113934D02*
X119917380Y-99161553D01*
X119917380Y-99161553D02*
X120012619Y-99161553D01*
X119107857Y-99590124D02*
X119060238Y-99637743D01*
X119060238Y-99637743D02*
X119012619Y-99732981D01*
X119012619Y-99732981D02*
X119012619Y-99971076D01*
X119012619Y-99971076D02*
X119060238Y-100066314D01*
X119060238Y-100066314D02*
X119107857Y-100113933D01*
X119107857Y-100113933D02*
X119203095Y-100161552D01*
X119203095Y-100161552D02*
X119298333Y-100161552D01*
X119298333Y-100161552D02*
X119441190Y-100113933D01*
X119441190Y-100113933D02*
X120012619Y-99542505D01*
X120012619Y-99542505D02*
X120012619Y-100161552D01*
X139594648Y-64021619D02*
X139594648Y-64735904D01*
X139594648Y-64735904D02*
X139642267Y-64878761D01*
X139642267Y-64878761D02*
X139737505Y-64974000D01*
X139737505Y-64974000D02*
X139880362Y-65021619D01*
X139880362Y-65021619D02*
X139975600Y-65021619D01*
X138642267Y-65021619D02*
X139118457Y-65021619D01*
X139118457Y-65021619D02*
X139118457Y-64021619D01*
X137737505Y-64926380D02*
X137785124Y-64974000D01*
X137785124Y-64974000D02*
X137927981Y-65021619D01*
X137927981Y-65021619D02*
X138023219Y-65021619D01*
X138023219Y-65021619D02*
X138166076Y-64974000D01*
X138166076Y-64974000D02*
X138261314Y-64878761D01*
X138261314Y-64878761D02*
X138308933Y-64783523D01*
X138308933Y-64783523D02*
X138356552Y-64593047D01*
X138356552Y-64593047D02*
X138356552Y-64450190D01*
X138356552Y-64450190D02*
X138308933Y-64259714D01*
X138308933Y-64259714D02*
X138261314Y-64164476D01*
X138261314Y-64164476D02*
X138166076Y-64069238D01*
X138166076Y-64069238D02*
X138023219Y-64021619D01*
X138023219Y-64021619D02*
X137927981Y-64021619D01*
X137927981Y-64021619D02*
X137785124Y-64069238D01*
X137785124Y-64069238D02*
X137737505Y-64116857D01*
X137023219Y-64021619D02*
X137023219Y-64735904D01*
X137023219Y-64735904D02*
X137070838Y-64878761D01*
X137070838Y-64878761D02*
X137166076Y-64974000D01*
X137166076Y-64974000D02*
X137308933Y-65021619D01*
X137308933Y-65021619D02*
X137404171Y-65021619D01*
X136070838Y-65021619D02*
X136547028Y-65021619D01*
X136547028Y-65021619D02*
X136547028Y-64021619D01*
X135166076Y-64926380D02*
X135213695Y-64974000D01*
X135213695Y-64974000D02*
X135356552Y-65021619D01*
X135356552Y-65021619D02*
X135451790Y-65021619D01*
X135451790Y-65021619D02*
X135594647Y-64974000D01*
X135594647Y-64974000D02*
X135689885Y-64878761D01*
X135689885Y-64878761D02*
X135737504Y-64783523D01*
X135737504Y-64783523D02*
X135785123Y-64593047D01*
X135785123Y-64593047D02*
X135785123Y-64450190D01*
X135785123Y-64450190D02*
X135737504Y-64259714D01*
X135737504Y-64259714D02*
X135689885Y-64164476D01*
X135689885Y-64164476D02*
X135594647Y-64069238D01*
X135594647Y-64069238D02*
X135451790Y-64021619D01*
X135451790Y-64021619D02*
X135356552Y-64021619D01*
X135356552Y-64021619D02*
X135213695Y-64069238D01*
X135213695Y-64069238D02*
X135166076Y-64116857D01*
X134451790Y-64021619D02*
X134451790Y-64735904D01*
X134451790Y-64735904D02*
X134499409Y-64878761D01*
X134499409Y-64878761D02*
X134594647Y-64974000D01*
X134594647Y-64974000D02*
X134737504Y-65021619D01*
X134737504Y-65021619D02*
X134832742Y-65021619D01*
X133499409Y-65021619D02*
X133975599Y-65021619D01*
X133975599Y-65021619D02*
X133975599Y-64021619D01*
X132594647Y-64926380D02*
X132642266Y-64974000D01*
X132642266Y-64974000D02*
X132785123Y-65021619D01*
X132785123Y-65021619D02*
X132880361Y-65021619D01*
X132880361Y-65021619D02*
X133023218Y-64974000D01*
X133023218Y-64974000D02*
X133118456Y-64878761D01*
X133118456Y-64878761D02*
X133166075Y-64783523D01*
X133166075Y-64783523D02*
X133213694Y-64593047D01*
X133213694Y-64593047D02*
X133213694Y-64450190D01*
X133213694Y-64450190D02*
X133166075Y-64259714D01*
X133166075Y-64259714D02*
X133118456Y-64164476D01*
X133118456Y-64164476D02*
X133023218Y-64069238D01*
X133023218Y-64069238D02*
X132880361Y-64021619D01*
X132880361Y-64021619D02*
X132785123Y-64021619D01*
X132785123Y-64021619D02*
X132642266Y-64069238D01*
X132642266Y-64069238D02*
X132594647Y-64116857D01*
X131880361Y-64021619D02*
X131880361Y-64735904D01*
X131880361Y-64735904D02*
X131927980Y-64878761D01*
X131927980Y-64878761D02*
X132023218Y-64974000D01*
X132023218Y-64974000D02*
X132166075Y-65021619D01*
X132166075Y-65021619D02*
X132261313Y-65021619D01*
X130927980Y-65021619D02*
X131404170Y-65021619D01*
X131404170Y-65021619D02*
X131404170Y-64021619D01*
X130023218Y-64926380D02*
X130070837Y-64974000D01*
X130070837Y-64974000D02*
X130213694Y-65021619D01*
X130213694Y-65021619D02*
X130308932Y-65021619D01*
X130308932Y-65021619D02*
X130451789Y-64974000D01*
X130451789Y-64974000D02*
X130547027Y-64878761D01*
X130547027Y-64878761D02*
X130594646Y-64783523D01*
X130594646Y-64783523D02*
X130642265Y-64593047D01*
X130642265Y-64593047D02*
X130642265Y-64450190D01*
X130642265Y-64450190D02*
X130594646Y-64259714D01*
X130594646Y-64259714D02*
X130547027Y-64164476D01*
X130547027Y-64164476D02*
X130451789Y-64069238D01*
X130451789Y-64069238D02*
X130308932Y-64021619D01*
X130308932Y-64021619D02*
X130213694Y-64021619D01*
X130213694Y-64021619D02*
X130070837Y-64069238D01*
X130070837Y-64069238D02*
X130023218Y-64116857D01*
X125726675Y-70638200D02*
X125583818Y-70685819D01*
X125583818Y-70685819D02*
X125345723Y-70685819D01*
X125345723Y-70685819D02*
X125250485Y-70638200D01*
X125250485Y-70638200D02*
X125202866Y-70590580D01*
X125202866Y-70590580D02*
X125155247Y-70495342D01*
X125155247Y-70495342D02*
X125155247Y-70400104D01*
X125155247Y-70400104D02*
X125202866Y-70304866D01*
X125202866Y-70304866D02*
X125250485Y-70257247D01*
X125250485Y-70257247D02*
X125345723Y-70209628D01*
X125345723Y-70209628D02*
X125536199Y-70162009D01*
X125536199Y-70162009D02*
X125631437Y-70114390D01*
X125631437Y-70114390D02*
X125679056Y-70066771D01*
X125679056Y-70066771D02*
X125726675Y-69971533D01*
X125726675Y-69971533D02*
X125726675Y-69876295D01*
X125726675Y-69876295D02*
X125679056Y-69781057D01*
X125679056Y-69781057D02*
X125631437Y-69733438D01*
X125631437Y-69733438D02*
X125536199Y-69685819D01*
X125536199Y-69685819D02*
X125298104Y-69685819D01*
X125298104Y-69685819D02*
X125155247Y-69733438D01*
X124155247Y-70590580D02*
X124202866Y-70638200D01*
X124202866Y-70638200D02*
X124345723Y-70685819D01*
X124345723Y-70685819D02*
X124440961Y-70685819D01*
X124440961Y-70685819D02*
X124583818Y-70638200D01*
X124583818Y-70638200D02*
X124679056Y-70542961D01*
X124679056Y-70542961D02*
X124726675Y-70447723D01*
X124726675Y-70447723D02*
X124774294Y-70257247D01*
X124774294Y-70257247D02*
X124774294Y-70114390D01*
X124774294Y-70114390D02*
X124726675Y-69923914D01*
X124726675Y-69923914D02*
X124679056Y-69828676D01*
X124679056Y-69828676D02*
X124583818Y-69733438D01*
X124583818Y-69733438D02*
X124440961Y-69685819D01*
X124440961Y-69685819D02*
X124345723Y-69685819D01*
X124345723Y-69685819D02*
X124202866Y-69733438D01*
X124202866Y-69733438D02*
X124155247Y-69781057D01*
X123250485Y-70685819D02*
X123726675Y-70685819D01*
X123726675Y-70685819D02*
X123726675Y-69685819D01*
X145784219Y-68707095D02*
X145784219Y-69278523D01*
X146784219Y-68992809D02*
X145784219Y-68992809D01*
X145784219Y-69516619D02*
X146784219Y-70183285D01*
X145784219Y-70183285D02*
X146784219Y-69516619D01*
X145962019Y-73336305D02*
X145962019Y-73955352D01*
X145962019Y-73955352D02*
X146342971Y-73622019D01*
X146342971Y-73622019D02*
X146342971Y-73764876D01*
X146342971Y-73764876D02*
X146390590Y-73860114D01*
X146390590Y-73860114D02*
X146438209Y-73907733D01*
X146438209Y-73907733D02*
X146533447Y-73955352D01*
X146533447Y-73955352D02*
X146771542Y-73955352D01*
X146771542Y-73955352D02*
X146866780Y-73907733D01*
X146866780Y-73907733D02*
X146914400Y-73860114D01*
X146914400Y-73860114D02*
X146962019Y-73764876D01*
X146962019Y-73764876D02*
X146962019Y-73479162D01*
X146962019Y-73479162D02*
X146914400Y-73383924D01*
X146914400Y-73383924D02*
X146866780Y-73336305D01*
X145962019Y-74241067D02*
X146962019Y-74574400D01*
X146962019Y-74574400D02*
X145962019Y-74907733D01*
X145962019Y-75145829D02*
X145962019Y-75764876D01*
X145962019Y-75764876D02*
X146342971Y-75431543D01*
X146342971Y-75431543D02*
X146342971Y-75574400D01*
X146342971Y-75574400D02*
X146390590Y-75669638D01*
X146390590Y-75669638D02*
X146438209Y-75717257D01*
X146438209Y-75717257D02*
X146533447Y-75764876D01*
X146533447Y-75764876D02*
X146771542Y-75764876D01*
X146771542Y-75764876D02*
X146866780Y-75717257D01*
X146866780Y-75717257D02*
X146914400Y-75669638D01*
X146914400Y-75669638D02*
X146962019Y-75574400D01*
X146962019Y-75574400D02*
X146962019Y-75288686D01*
X146962019Y-75288686D02*
X146914400Y-75193448D01*
X146914400Y-75193448D02*
X146866780Y-75145829D01*
X145958838Y-78867095D02*
X145911219Y-78771857D01*
X145911219Y-78771857D02*
X145911219Y-78629000D01*
X145911219Y-78629000D02*
X145958838Y-78486143D01*
X145958838Y-78486143D02*
X146054076Y-78390905D01*
X146054076Y-78390905D02*
X146149314Y-78343286D01*
X146149314Y-78343286D02*
X146339790Y-78295667D01*
X146339790Y-78295667D02*
X146482647Y-78295667D01*
X146482647Y-78295667D02*
X146673123Y-78343286D01*
X146673123Y-78343286D02*
X146768361Y-78390905D01*
X146768361Y-78390905D02*
X146863600Y-78486143D01*
X146863600Y-78486143D02*
X146911219Y-78629000D01*
X146911219Y-78629000D02*
X146911219Y-78724238D01*
X146911219Y-78724238D02*
X146863600Y-78867095D01*
X146863600Y-78867095D02*
X146815980Y-78914714D01*
X146815980Y-78914714D02*
X146482647Y-78914714D01*
X146482647Y-78914714D02*
X146482647Y-78724238D01*
X146911219Y-79343286D02*
X145911219Y-79343286D01*
X145911219Y-79343286D02*
X146911219Y-79914714D01*
X146911219Y-79914714D02*
X145911219Y-79914714D01*
X146911219Y-80390905D02*
X145911219Y-80390905D01*
X145911219Y-80390905D02*
X145911219Y-80629000D01*
X145911219Y-80629000D02*
X145958838Y-80771857D01*
X145958838Y-80771857D02*
X146054076Y-80867095D01*
X146054076Y-80867095D02*
X146149314Y-80914714D01*
X146149314Y-80914714D02*
X146339790Y-80962333D01*
X146339790Y-80962333D02*
X146482647Y-80962333D01*
X146482647Y-80962333D02*
X146673123Y-80914714D01*
X146673123Y-80914714D02*
X146768361Y-80867095D01*
X146768361Y-80867095D02*
X146863600Y-80771857D01*
X146863600Y-80771857D02*
X146911219Y-80629000D01*
X146911219Y-80629000D02*
X146911219Y-80390905D01*
X125801285Y-68555400D02*
X125658428Y-68603019D01*
X125658428Y-68603019D02*
X125420333Y-68603019D01*
X125420333Y-68603019D02*
X125325095Y-68555400D01*
X125325095Y-68555400D02*
X125277476Y-68507780D01*
X125277476Y-68507780D02*
X125229857Y-68412542D01*
X125229857Y-68412542D02*
X125229857Y-68317304D01*
X125229857Y-68317304D02*
X125277476Y-68222066D01*
X125277476Y-68222066D02*
X125325095Y-68174447D01*
X125325095Y-68174447D02*
X125420333Y-68126828D01*
X125420333Y-68126828D02*
X125610809Y-68079209D01*
X125610809Y-68079209D02*
X125706047Y-68031590D01*
X125706047Y-68031590D02*
X125753666Y-67983971D01*
X125753666Y-67983971D02*
X125801285Y-67888733D01*
X125801285Y-67888733D02*
X125801285Y-67793495D01*
X125801285Y-67793495D02*
X125753666Y-67698257D01*
X125753666Y-67698257D02*
X125706047Y-67650638D01*
X125706047Y-67650638D02*
X125610809Y-67603019D01*
X125610809Y-67603019D02*
X125372714Y-67603019D01*
X125372714Y-67603019D02*
X125229857Y-67650638D01*
X124801285Y-68603019D02*
X124801285Y-67603019D01*
X124801285Y-67603019D02*
X124563190Y-67603019D01*
X124563190Y-67603019D02*
X124420333Y-67650638D01*
X124420333Y-67650638D02*
X124325095Y-67745876D01*
X124325095Y-67745876D02*
X124277476Y-67841114D01*
X124277476Y-67841114D02*
X124229857Y-68031590D01*
X124229857Y-68031590D02*
X124229857Y-68174447D01*
X124229857Y-68174447D02*
X124277476Y-68364923D01*
X124277476Y-68364923D02*
X124325095Y-68460161D01*
X124325095Y-68460161D02*
X124420333Y-68555400D01*
X124420333Y-68555400D02*
X124563190Y-68603019D01*
X124563190Y-68603019D02*
X124801285Y-68603019D01*
X123848904Y-68317304D02*
X123372714Y-68317304D01*
X123944142Y-68603019D02*
X123610809Y-67603019D01*
X123610809Y-67603019D02*
X123277476Y-68603019D01*
X125799694Y-65596419D02*
X125180647Y-65596419D01*
X125180647Y-65596419D02*
X125513980Y-65977371D01*
X125513980Y-65977371D02*
X125371123Y-65977371D01*
X125371123Y-65977371D02*
X125275885Y-66024990D01*
X125275885Y-66024990D02*
X125228266Y-66072609D01*
X125228266Y-66072609D02*
X125180647Y-66167847D01*
X125180647Y-66167847D02*
X125180647Y-66405942D01*
X125180647Y-66405942D02*
X125228266Y-66501180D01*
X125228266Y-66501180D02*
X125275885Y-66548800D01*
X125275885Y-66548800D02*
X125371123Y-66596419D01*
X125371123Y-66596419D02*
X125656837Y-66596419D01*
X125656837Y-66596419D02*
X125752075Y-66548800D01*
X125752075Y-66548800D02*
X125799694Y-66501180D01*
X124894932Y-65596419D02*
X124561599Y-66596419D01*
X124561599Y-66596419D02*
X124228266Y-65596419D01*
X123990170Y-65596419D02*
X123371123Y-65596419D01*
X123371123Y-65596419D02*
X123704456Y-65977371D01*
X123704456Y-65977371D02*
X123561599Y-65977371D01*
X123561599Y-65977371D02*
X123466361Y-66024990D01*
X123466361Y-66024990D02*
X123418742Y-66072609D01*
X123418742Y-66072609D02*
X123371123Y-66167847D01*
X123371123Y-66167847D02*
X123371123Y-66405942D01*
X123371123Y-66405942D02*
X123418742Y-66501180D01*
X123418742Y-66501180D02*
X123466361Y-66548800D01*
X123466361Y-66548800D02*
X123561599Y-66596419D01*
X123561599Y-66596419D02*
X123847313Y-66596419D01*
X123847313Y-66596419D02*
X123942551Y-66548800D01*
X123942551Y-66548800D02*
X123990170Y-66501180D01*
X146885819Y-66482980D02*
X146409628Y-66149647D01*
X146885819Y-65911552D02*
X145885819Y-65911552D01*
X145885819Y-65911552D02*
X145885819Y-66292504D01*
X145885819Y-66292504D02*
X145933438Y-66387742D01*
X145933438Y-66387742D02*
X145981057Y-66435361D01*
X145981057Y-66435361D02*
X146076295Y-66482980D01*
X146076295Y-66482980D02*
X146219152Y-66482980D01*
X146219152Y-66482980D02*
X146314390Y-66435361D01*
X146314390Y-66435361D02*
X146362009Y-66387742D01*
X146362009Y-66387742D02*
X146409628Y-66292504D01*
X146409628Y-66292504D02*
X146409628Y-65911552D01*
X145885819Y-66768695D02*
X145885819Y-67340123D01*
X146885819Y-67054409D02*
X145885819Y-67054409D01*
X146838200Y-67625838D02*
X146885819Y-67768695D01*
X146885819Y-67768695D02*
X146885819Y-68006790D01*
X146885819Y-68006790D02*
X146838200Y-68102028D01*
X146838200Y-68102028D02*
X146790580Y-68149647D01*
X146790580Y-68149647D02*
X146695342Y-68197266D01*
X146695342Y-68197266D02*
X146600104Y-68197266D01*
X146600104Y-68197266D02*
X146504866Y-68149647D01*
X146504866Y-68149647D02*
X146457247Y-68102028D01*
X146457247Y-68102028D02*
X146409628Y-68006790D01*
X146409628Y-68006790D02*
X146362009Y-67816314D01*
X146362009Y-67816314D02*
X146314390Y-67721076D01*
X146314390Y-67721076D02*
X146266771Y-67673457D01*
X146266771Y-67673457D02*
X146171533Y-67625838D01*
X146171533Y-67625838D02*
X146076295Y-67625838D01*
X146076295Y-67625838D02*
X145981057Y-67673457D01*
X145981057Y-67673457D02*
X145933438Y-67721076D01*
X145933438Y-67721076D02*
X145885819Y-67816314D01*
X145885819Y-67816314D02*
X145885819Y-68054409D01*
X145885819Y-68054409D02*
X145933438Y-68197266D01*
X124564638Y-77176171D02*
X122564638Y-77176171D01*
X122564638Y-77176171D02*
X123993209Y-77842838D01*
X123993209Y-77842838D02*
X122564638Y-78509504D01*
X122564638Y-78509504D02*
X124564638Y-78509504D01*
X124564638Y-80319028D02*
X123517019Y-80319028D01*
X123517019Y-80319028D02*
X123326542Y-80223790D01*
X123326542Y-80223790D02*
X123231304Y-80033314D01*
X123231304Y-80033314D02*
X123231304Y-79652361D01*
X123231304Y-79652361D02*
X123326542Y-79461885D01*
X124469400Y-80319028D02*
X124564638Y-80128552D01*
X124564638Y-80128552D02*
X124564638Y-79652361D01*
X124564638Y-79652361D02*
X124469400Y-79461885D01*
X124469400Y-79461885D02*
X124278923Y-79366647D01*
X124278923Y-79366647D02*
X124088447Y-79366647D01*
X124088447Y-79366647D02*
X123897971Y-79461885D01*
X123897971Y-79461885D02*
X123802733Y-79652361D01*
X123802733Y-79652361D02*
X123802733Y-80128552D01*
X123802733Y-80128552D02*
X123707495Y-80319028D01*
X124564638Y-81271409D02*
X123231304Y-81271409D01*
X122564638Y-81271409D02*
X122659876Y-81176171D01*
X122659876Y-81176171D02*
X122755114Y-81271409D01*
X122755114Y-81271409D02*
X122659876Y-81366647D01*
X122659876Y-81366647D02*
X122564638Y-81271409D01*
X122564638Y-81271409D02*
X122755114Y-81271409D01*
X124564638Y-82509504D02*
X124469400Y-82319028D01*
X124469400Y-82319028D02*
X124278923Y-82223790D01*
X124278923Y-82223790D02*
X122564638Y-82223790D01*
X123517019Y-83938076D02*
X123612257Y-84223790D01*
X123612257Y-84223790D02*
X123707495Y-84319028D01*
X123707495Y-84319028D02*
X123897971Y-84414266D01*
X123897971Y-84414266D02*
X124183685Y-84414266D01*
X124183685Y-84414266D02*
X124374161Y-84319028D01*
X124374161Y-84319028D02*
X124469400Y-84223790D01*
X124469400Y-84223790D02*
X124564638Y-84033314D01*
X124564638Y-84033314D02*
X124564638Y-83271409D01*
X124564638Y-83271409D02*
X122564638Y-83271409D01*
X122564638Y-83271409D02*
X122564638Y-83938076D01*
X122564638Y-83938076D02*
X122659876Y-84128552D01*
X122659876Y-84128552D02*
X122755114Y-84223790D01*
X122755114Y-84223790D02*
X122945590Y-84319028D01*
X122945590Y-84319028D02*
X123136066Y-84319028D01*
X123136066Y-84319028D02*
X123326542Y-84223790D01*
X123326542Y-84223790D02*
X123421780Y-84128552D01*
X123421780Y-84128552D02*
X123517019Y-83938076D01*
X123517019Y-83938076D02*
X123517019Y-83271409D01*
X124564638Y-85557123D02*
X124469400Y-85366647D01*
X124469400Y-85366647D02*
X124374161Y-85271409D01*
X124374161Y-85271409D02*
X124183685Y-85176171D01*
X124183685Y-85176171D02*
X123612257Y-85176171D01*
X123612257Y-85176171D02*
X123421780Y-85271409D01*
X123421780Y-85271409D02*
X123326542Y-85366647D01*
X123326542Y-85366647D02*
X123231304Y-85557123D01*
X123231304Y-85557123D02*
X123231304Y-85842838D01*
X123231304Y-85842838D02*
X123326542Y-86033314D01*
X123326542Y-86033314D02*
X123421780Y-86128552D01*
X123421780Y-86128552D02*
X123612257Y-86223790D01*
X123612257Y-86223790D02*
X124183685Y-86223790D01*
X124183685Y-86223790D02*
X124374161Y-86128552D01*
X124374161Y-86128552D02*
X124469400Y-86033314D01*
X124469400Y-86033314D02*
X124564638Y-85842838D01*
X124564638Y-85842838D02*
X124564638Y-85557123D01*
X124564638Y-86890457D02*
X123231304Y-87938076D01*
X123231304Y-86890457D02*
X124564638Y-87938076D01*
X124564638Y-90223791D02*
X122564638Y-90223791D01*
X122564638Y-90223791D02*
X124564638Y-91366648D01*
X124564638Y-91366648D02*
X122564638Y-91366648D01*
X124564638Y-92604743D02*
X124469400Y-92414267D01*
X124469400Y-92414267D02*
X124374161Y-92319029D01*
X124374161Y-92319029D02*
X124183685Y-92223791D01*
X124183685Y-92223791D02*
X123612257Y-92223791D01*
X123612257Y-92223791D02*
X123421780Y-92319029D01*
X123421780Y-92319029D02*
X123326542Y-92414267D01*
X123326542Y-92414267D02*
X123231304Y-92604743D01*
X123231304Y-92604743D02*
X123231304Y-92890458D01*
X123231304Y-92890458D02*
X123326542Y-93080934D01*
X123326542Y-93080934D02*
X123421780Y-93176172D01*
X123421780Y-93176172D02*
X123612257Y-93271410D01*
X123612257Y-93271410D02*
X124183685Y-93271410D01*
X124183685Y-93271410D02*
X124374161Y-93176172D01*
X124374161Y-93176172D02*
X124469400Y-93080934D01*
X124469400Y-93080934D02*
X124564638Y-92890458D01*
X124564638Y-92890458D02*
X124564638Y-92604743D01*
X123231304Y-93842839D02*
X123231304Y-94604743D01*
X122564638Y-94128553D02*
X124278923Y-94128553D01*
X124278923Y-94128553D02*
X124469400Y-94223791D01*
X124469400Y-94223791D02*
X124564638Y-94414267D01*
X124564638Y-94414267D02*
X124564638Y-94604743D01*
X124564638Y-95271410D02*
X123231304Y-95271410D01*
X122564638Y-95271410D02*
X122659876Y-95176172D01*
X122659876Y-95176172D02*
X122755114Y-95271410D01*
X122755114Y-95271410D02*
X122659876Y-95366648D01*
X122659876Y-95366648D02*
X122564638Y-95271410D01*
X122564638Y-95271410D02*
X122755114Y-95271410D01*
X123231304Y-95938077D02*
X123231304Y-96699981D01*
X124564638Y-96223791D02*
X122850352Y-96223791D01*
X122850352Y-96223791D02*
X122659876Y-96319029D01*
X122659876Y-96319029D02*
X122564638Y-96509505D01*
X122564638Y-96509505D02*
X122564638Y-96699981D01*
X124564638Y-97366648D02*
X123231304Y-97366648D01*
X122564638Y-97366648D02*
X122659876Y-97271410D01*
X122659876Y-97271410D02*
X122755114Y-97366648D01*
X122755114Y-97366648D02*
X122659876Y-97461886D01*
X122659876Y-97461886D02*
X122564638Y-97366648D01*
X122564638Y-97366648D02*
X122755114Y-97366648D01*
X124469400Y-99080934D02*
X124564638Y-98890458D01*
X124564638Y-98890458D02*
X124564638Y-98509505D01*
X124564638Y-98509505D02*
X124469400Y-98319029D01*
X124469400Y-98319029D02*
X124278923Y-98223791D01*
X124278923Y-98223791D02*
X123517019Y-98223791D01*
X123517019Y-98223791D02*
X123326542Y-98319029D01*
X123326542Y-98319029D02*
X123231304Y-98509505D01*
X123231304Y-98509505D02*
X123231304Y-98890458D01*
X123231304Y-98890458D02*
X123326542Y-99080934D01*
X123326542Y-99080934D02*
X123517019Y-99176172D01*
X123517019Y-99176172D02*
X123707495Y-99176172D01*
X123707495Y-99176172D02*
X123897971Y-98223791D01*
X124564638Y-100033315D02*
X123231304Y-100033315D01*
X123612257Y-100033315D02*
X123421780Y-100128553D01*
X123421780Y-100128553D02*
X123326542Y-100223791D01*
X123326542Y-100223791D02*
X123231304Y-100414267D01*
X123231304Y-100414267D02*
X123231304Y-100604744D01*
X125323504Y-63739038D02*
X125418742Y-63691419D01*
X125418742Y-63691419D02*
X125561599Y-63691419D01*
X125561599Y-63691419D02*
X125704456Y-63739038D01*
X125704456Y-63739038D02*
X125799694Y-63834276D01*
X125799694Y-63834276D02*
X125847313Y-63929514D01*
X125847313Y-63929514D02*
X125894932Y-64119990D01*
X125894932Y-64119990D02*
X125894932Y-64262847D01*
X125894932Y-64262847D02*
X125847313Y-64453323D01*
X125847313Y-64453323D02*
X125799694Y-64548561D01*
X125799694Y-64548561D02*
X125704456Y-64643800D01*
X125704456Y-64643800D02*
X125561599Y-64691419D01*
X125561599Y-64691419D02*
X125466361Y-64691419D01*
X125466361Y-64691419D02*
X125323504Y-64643800D01*
X125323504Y-64643800D02*
X125275885Y-64596180D01*
X125275885Y-64596180D02*
X125275885Y-64262847D01*
X125275885Y-64262847D02*
X125466361Y-64262847D01*
X124847313Y-64691419D02*
X124847313Y-63691419D01*
X124847313Y-63691419D02*
X124275885Y-64691419D01*
X124275885Y-64691419D02*
X124275885Y-63691419D01*
X123799694Y-64691419D02*
X123799694Y-63691419D01*
X123799694Y-63691419D02*
X123561599Y-63691419D01*
X123561599Y-63691419D02*
X123418742Y-63739038D01*
X123418742Y-63739038D02*
X123323504Y-63834276D01*
X123323504Y-63834276D02*
X123275885Y-63929514D01*
X123275885Y-63929514D02*
X123228266Y-64119990D01*
X123228266Y-64119990D02*
X123228266Y-64262847D01*
X123228266Y-64262847D02*
X123275885Y-64453323D01*
X123275885Y-64453323D02*
X123323504Y-64548561D01*
X123323504Y-64548561D02*
X123418742Y-64643800D01*
X123418742Y-64643800D02*
X123561599Y-64691419D01*
X123561599Y-64691419D02*
X123799694Y-64691419D01*
X149246429Y-94001037D02*
X149103572Y-94048656D01*
X149103572Y-94048656D02*
X149055953Y-94096275D01*
X149055953Y-94096275D02*
X149008334Y-94191513D01*
X149008334Y-94191513D02*
X149008334Y-94334370D01*
X149008334Y-94334370D02*
X149055953Y-94429608D01*
X149055953Y-94429608D02*
X149103572Y-94477228D01*
X149103572Y-94477228D02*
X149198810Y-94524847D01*
X149198810Y-94524847D02*
X149579762Y-94524847D01*
X149579762Y-94524847D02*
X149579762Y-93524847D01*
X149579762Y-93524847D02*
X149246429Y-93524847D01*
X149246429Y-93524847D02*
X149151191Y-93572466D01*
X149151191Y-93572466D02*
X149103572Y-93620085D01*
X149103572Y-93620085D02*
X149055953Y-93715323D01*
X149055953Y-93715323D02*
X149055953Y-93810561D01*
X149055953Y-93810561D02*
X149103572Y-93905799D01*
X149103572Y-93905799D02*
X149151191Y-93953418D01*
X149151191Y-93953418D02*
X149246429Y-94001037D01*
X149246429Y-94001037D02*
X149579762Y-94001037D01*
X148151191Y-94524847D02*
X148151191Y-94001037D01*
X148151191Y-94001037D02*
X148198810Y-93905799D01*
X148198810Y-93905799D02*
X148294048Y-93858180D01*
X148294048Y-93858180D02*
X148484524Y-93858180D01*
X148484524Y-93858180D02*
X148579762Y-93905799D01*
X148151191Y-94477228D02*
X148246429Y-94524847D01*
X148246429Y-94524847D02*
X148484524Y-94524847D01*
X148484524Y-94524847D02*
X148579762Y-94477228D01*
X148579762Y-94477228D02*
X148627381Y-94381989D01*
X148627381Y-94381989D02*
X148627381Y-94286751D01*
X148627381Y-94286751D02*
X148579762Y-94191513D01*
X148579762Y-94191513D02*
X148484524Y-94143894D01*
X148484524Y-94143894D02*
X148246429Y-94143894D01*
X148246429Y-94143894D02*
X148151191Y-94096275D01*
X147817857Y-93858180D02*
X147436905Y-93858180D01*
X147675000Y-93524847D02*
X147675000Y-94381989D01*
X147675000Y-94381989D02*
X147627381Y-94477228D01*
X147627381Y-94477228D02*
X147532143Y-94524847D01*
X147532143Y-94524847D02*
X147436905Y-94524847D01*
X147246428Y-93858180D02*
X146865476Y-93858180D01*
X147103571Y-93524847D02*
X147103571Y-94381989D01*
X147103571Y-94381989D02*
X147055952Y-94477228D01*
X147055952Y-94477228D02*
X146960714Y-94524847D01*
X146960714Y-94524847D02*
X146865476Y-94524847D01*
X146151190Y-94477228D02*
X146246428Y-94524847D01*
X146246428Y-94524847D02*
X146436904Y-94524847D01*
X146436904Y-94524847D02*
X146532142Y-94477228D01*
X146532142Y-94477228D02*
X146579761Y-94381989D01*
X146579761Y-94381989D02*
X146579761Y-94001037D01*
X146579761Y-94001037D02*
X146532142Y-93905799D01*
X146532142Y-93905799D02*
X146436904Y-93858180D01*
X146436904Y-93858180D02*
X146246428Y-93858180D01*
X146246428Y-93858180D02*
X146151190Y-93905799D01*
X146151190Y-93905799D02*
X146103571Y-94001037D01*
X146103571Y-94001037D02*
X146103571Y-94096275D01*
X146103571Y-94096275D02*
X146579761Y-94191513D01*
X145674999Y-94524847D02*
X145674999Y-93858180D01*
X145674999Y-94048656D02*
X145627380Y-93953418D01*
X145627380Y-93953418D02*
X145579761Y-93905799D01*
X145579761Y-93905799D02*
X145484523Y-93858180D01*
X145484523Y-93858180D02*
X145389285Y-93858180D01*
X145151189Y-93858180D02*
X144913094Y-94524847D01*
X144674999Y-93858180D02*
X144913094Y-94524847D01*
X144913094Y-94524847D02*
X145008332Y-94762942D01*
X145008332Y-94762942D02*
X145055951Y-94810561D01*
X145055951Y-94810561D02*
X145151189Y-94858180D01*
X148555951Y-95753838D02*
X147794047Y-95753838D01*
X145794046Y-95753838D02*
X145032142Y-95753838D01*
X145413094Y-96134791D02*
X145413094Y-95372886D01*
X146860419Y-71867733D02*
X146384228Y-71534400D01*
X146860419Y-71296305D02*
X145860419Y-71296305D01*
X145860419Y-71296305D02*
X145860419Y-71677257D01*
X145860419Y-71677257D02*
X145908038Y-71772495D01*
X145908038Y-71772495D02*
X145955657Y-71820114D01*
X145955657Y-71820114D02*
X146050895Y-71867733D01*
X146050895Y-71867733D02*
X146193752Y-71867733D01*
X146193752Y-71867733D02*
X146288990Y-71820114D01*
X146288990Y-71820114D02*
X146336609Y-71772495D01*
X146336609Y-71772495D02*
X146384228Y-71677257D01*
X146384228Y-71677257D02*
X146384228Y-71296305D01*
X145860419Y-72201067D02*
X146860419Y-72867733D01*
X145860419Y-72867733D02*
X146860419Y-72201067D01*
X146987419Y-63093743D02*
X145987419Y-63093743D01*
X145987419Y-63093743D02*
X145987419Y-63331838D01*
X145987419Y-63331838D02*
X146035038Y-63474695D01*
X146035038Y-63474695D02*
X146130276Y-63569933D01*
X146130276Y-63569933D02*
X146225514Y-63617552D01*
X146225514Y-63617552D02*
X146415990Y-63665171D01*
X146415990Y-63665171D02*
X146558847Y-63665171D01*
X146558847Y-63665171D02*
X146749323Y-63617552D01*
X146749323Y-63617552D02*
X146844561Y-63569933D01*
X146844561Y-63569933D02*
X146939800Y-63474695D01*
X146939800Y-63474695D02*
X146987419Y-63331838D01*
X146987419Y-63331838D02*
X146987419Y-63093743D01*
X145987419Y-63950886D02*
X145987419Y-64522314D01*
X146987419Y-64236600D02*
X145987419Y-64236600D01*
X146987419Y-65427076D02*
X146511228Y-65093743D01*
X146987419Y-64855648D02*
X145987419Y-64855648D01*
X145987419Y-64855648D02*
X145987419Y-65236600D01*
X145987419Y-65236600D02*
X146035038Y-65331838D01*
X146035038Y-65331838D02*
X146082657Y-65379457D01*
X146082657Y-65379457D02*
X146177895Y-65427076D01*
X146177895Y-65427076D02*
X146320752Y-65427076D01*
X146320752Y-65427076D02*
X146415990Y-65379457D01*
X146415990Y-65379457D02*
X146463609Y-65331838D01*
X146463609Y-65331838D02*
X146511228Y-65236600D01*
X146511228Y-65236600D02*
X146511228Y-64855648D01*
X139306009Y-87017857D02*
X139353628Y-87160714D01*
X139353628Y-87160714D02*
X139401247Y-87208333D01*
X139401247Y-87208333D02*
X139496485Y-87255952D01*
X139496485Y-87255952D02*
X139639342Y-87255952D01*
X139639342Y-87255952D02*
X139734580Y-87208333D01*
X139734580Y-87208333D02*
X139782200Y-87160714D01*
X139782200Y-87160714D02*
X139829819Y-87065476D01*
X139829819Y-87065476D02*
X139829819Y-86684524D01*
X139829819Y-86684524D02*
X138829819Y-86684524D01*
X138829819Y-86684524D02*
X138829819Y-87017857D01*
X138829819Y-87017857D02*
X138877438Y-87113095D01*
X138877438Y-87113095D02*
X138925057Y-87160714D01*
X138925057Y-87160714D02*
X139020295Y-87208333D01*
X139020295Y-87208333D02*
X139115533Y-87208333D01*
X139115533Y-87208333D02*
X139210771Y-87160714D01*
X139210771Y-87160714D02*
X139258390Y-87113095D01*
X139258390Y-87113095D02*
X139306009Y-87017857D01*
X139306009Y-87017857D02*
X139306009Y-86684524D01*
X138829819Y-87875000D02*
X138829819Y-88065476D01*
X138829819Y-88065476D02*
X138877438Y-88160714D01*
X138877438Y-88160714D02*
X138972676Y-88255952D01*
X138972676Y-88255952D02*
X139163152Y-88303571D01*
X139163152Y-88303571D02*
X139496485Y-88303571D01*
X139496485Y-88303571D02*
X139686961Y-88255952D01*
X139686961Y-88255952D02*
X139782200Y-88160714D01*
X139782200Y-88160714D02*
X139829819Y-88065476D01*
X139829819Y-88065476D02*
X139829819Y-87875000D01*
X139829819Y-87875000D02*
X139782200Y-87779762D01*
X139782200Y-87779762D02*
X139686961Y-87684524D01*
X139686961Y-87684524D02*
X139496485Y-87636905D01*
X139496485Y-87636905D02*
X139163152Y-87636905D01*
X139163152Y-87636905D02*
X138972676Y-87684524D01*
X138972676Y-87684524D02*
X138877438Y-87779762D01*
X138877438Y-87779762D02*
X138829819Y-87875000D01*
X138829819Y-88922619D02*
X138829819Y-89113095D01*
X138829819Y-89113095D02*
X138877438Y-89208333D01*
X138877438Y-89208333D02*
X138972676Y-89303571D01*
X138972676Y-89303571D02*
X139163152Y-89351190D01*
X139163152Y-89351190D02*
X139496485Y-89351190D01*
X139496485Y-89351190D02*
X139686961Y-89303571D01*
X139686961Y-89303571D02*
X139782200Y-89208333D01*
X139782200Y-89208333D02*
X139829819Y-89113095D01*
X139829819Y-89113095D02*
X139829819Y-88922619D01*
X139829819Y-88922619D02*
X139782200Y-88827381D01*
X139782200Y-88827381D02*
X139686961Y-88732143D01*
X139686961Y-88732143D02*
X139496485Y-88684524D01*
X139496485Y-88684524D02*
X139163152Y-88684524D01*
X139163152Y-88684524D02*
X138972676Y-88732143D01*
X138972676Y-88732143D02*
X138877438Y-88827381D01*
X138877438Y-88827381D02*
X138829819Y-88922619D01*
X138829819Y-89636905D02*
X138829819Y-90208333D01*
X139829819Y-89922619D02*
X138829819Y-89922619D01*
X141694819Y-75438095D02*
X142504342Y-75438095D01*
X142504342Y-75438095D02*
X142599580Y-75485714D01*
X142599580Y-75485714D02*
X142647200Y-75533333D01*
X142647200Y-75533333D02*
X142694819Y-75628571D01*
X142694819Y-75628571D02*
X142694819Y-75819047D01*
X142694819Y-75819047D02*
X142647200Y-75914285D01*
X142647200Y-75914285D02*
X142599580Y-75961904D01*
X142599580Y-75961904D02*
X142504342Y-76009523D01*
X142504342Y-76009523D02*
X141694819Y-76009523D01*
X141694819Y-76390476D02*
X141694819Y-77009523D01*
X141694819Y-77009523D02*
X142075771Y-76676190D01*
X142075771Y-76676190D02*
X142075771Y-76819047D01*
X142075771Y-76819047D02*
X142123390Y-76914285D01*
X142123390Y-76914285D02*
X142171009Y-76961904D01*
X142171009Y-76961904D02*
X142266247Y-77009523D01*
X142266247Y-77009523D02*
X142504342Y-77009523D01*
X142504342Y-77009523D02*
X142599580Y-76961904D01*
X142599580Y-76961904D02*
X142647200Y-76914285D01*
X142647200Y-76914285D02*
X142694819Y-76819047D01*
X142694819Y-76819047D02*
X142694819Y-76533333D01*
X142694819Y-76533333D02*
X142647200Y-76438095D01*
X142647200Y-76438095D02*
X142599580Y-76390476D01*
X145708019Y-83044067D02*
X146708019Y-83282162D01*
X146708019Y-83282162D02*
X145993733Y-83472638D01*
X145993733Y-83472638D02*
X146708019Y-83663114D01*
X146708019Y-83663114D02*
X145708019Y-83901210D01*
X146422304Y-84234543D02*
X146422304Y-84710733D01*
X146708019Y-84139305D02*
X145708019Y-84472638D01*
X145708019Y-84472638D02*
X146708019Y-84805971D01*
X146708019Y-85139305D02*
X145708019Y-85139305D01*
X146708019Y-85710733D02*
X146136590Y-85282162D01*
X145708019Y-85710733D02*
X146279447Y-85139305D01*
X146184209Y-86139305D02*
X146184209Y-86472638D01*
X146708019Y-86615495D02*
X146708019Y-86139305D01*
X146708019Y-86139305D02*
X145708019Y-86139305D01*
X145708019Y-86139305D02*
X145708019Y-86615495D01*
X145708019Y-87044067D02*
X146517542Y-87044067D01*
X146517542Y-87044067D02*
X146612780Y-87091686D01*
X146612780Y-87091686D02*
X146660400Y-87139305D01*
X146660400Y-87139305D02*
X146708019Y-87234543D01*
X146708019Y-87234543D02*
X146708019Y-87425019D01*
X146708019Y-87425019D02*
X146660400Y-87520257D01*
X146660400Y-87520257D02*
X146612780Y-87567876D01*
X146612780Y-87567876D02*
X146517542Y-87615495D01*
X146517542Y-87615495D02*
X145708019Y-87615495D01*
X146708019Y-88091686D02*
X145708019Y-88091686D01*
X145708019Y-88091686D02*
X145708019Y-88472638D01*
X145708019Y-88472638D02*
X145755638Y-88567876D01*
X145755638Y-88567876D02*
X145803257Y-88615495D01*
X145803257Y-88615495D02*
X145898495Y-88663114D01*
X145898495Y-88663114D02*
X146041352Y-88663114D01*
X146041352Y-88663114D02*
X146136590Y-88615495D01*
X146136590Y-88615495D02*
X146184209Y-88567876D01*
X146184209Y-88567876D02*
X146231828Y-88472638D01*
X146231828Y-88472638D02*
X146231828Y-88091686D01*
X131341019Y-86965018D02*
X130864828Y-86631685D01*
X131341019Y-86393590D02*
X130341019Y-86393590D01*
X130341019Y-86393590D02*
X130341019Y-86774542D01*
X130341019Y-86774542D02*
X130388638Y-86869780D01*
X130388638Y-86869780D02*
X130436257Y-86917399D01*
X130436257Y-86917399D02*
X130531495Y-86965018D01*
X130531495Y-86965018D02*
X130674352Y-86965018D01*
X130674352Y-86965018D02*
X130769590Y-86917399D01*
X130769590Y-86917399D02*
X130817209Y-86869780D01*
X130817209Y-86869780D02*
X130864828Y-86774542D01*
X130864828Y-86774542D02*
X130864828Y-86393590D01*
X130817209Y-87393590D02*
X130817209Y-87726923D01*
X131341019Y-87869780D02*
X131341019Y-87393590D01*
X131341019Y-87393590D02*
X130341019Y-87393590D01*
X130341019Y-87393590D02*
X130341019Y-87869780D01*
X131293400Y-88250733D02*
X131341019Y-88393590D01*
X131341019Y-88393590D02*
X131341019Y-88631685D01*
X131341019Y-88631685D02*
X131293400Y-88726923D01*
X131293400Y-88726923D02*
X131245780Y-88774542D01*
X131245780Y-88774542D02*
X131150542Y-88822161D01*
X131150542Y-88822161D02*
X131055304Y-88822161D01*
X131055304Y-88822161D02*
X130960066Y-88774542D01*
X130960066Y-88774542D02*
X130912447Y-88726923D01*
X130912447Y-88726923D02*
X130864828Y-88631685D01*
X130864828Y-88631685D02*
X130817209Y-88441209D01*
X130817209Y-88441209D02*
X130769590Y-88345971D01*
X130769590Y-88345971D02*
X130721971Y-88298352D01*
X130721971Y-88298352D02*
X130626733Y-88250733D01*
X130626733Y-88250733D02*
X130531495Y-88250733D01*
X130531495Y-88250733D02*
X130436257Y-88298352D01*
X130436257Y-88298352D02*
X130388638Y-88345971D01*
X130388638Y-88345971D02*
X130341019Y-88441209D01*
X130341019Y-88441209D02*
X130341019Y-88679304D01*
X130341019Y-88679304D02*
X130388638Y-88822161D01*
X130817209Y-89250733D02*
X130817209Y-89584066D01*
X131341019Y-89726923D02*
X131341019Y-89250733D01*
X131341019Y-89250733D02*
X130341019Y-89250733D01*
X130341019Y-89250733D02*
X130341019Y-89726923D01*
X130341019Y-90012638D02*
X130341019Y-90584066D01*
X131341019Y-90298352D02*
X130341019Y-90298352D01*
D11*
%TO.C,J3*%
X115698600Y-62072200D02*
X115698600Y-72192200D01*
X115698600Y-64632200D02*
X120058600Y-64632200D01*
X115698600Y-70432200D02*
X117958600Y-70432200D01*
X115698600Y-70932200D02*
X117958600Y-70932200D01*
X115698600Y-72192200D02*
X123518600Y-72192200D01*
X117958600Y-62832200D02*
X119558600Y-62832200D01*
X117958600Y-63832200D02*
X117958600Y-62832200D01*
X117958600Y-70432200D02*
X117958600Y-71432200D01*
X117958600Y-71432200D02*
X119558600Y-71432200D01*
X119558600Y-62832200D02*
X119558600Y-63832200D01*
X119558600Y-63832200D02*
X117958600Y-63832200D01*
X119558600Y-70432200D02*
X117958600Y-70432200D01*
X119558600Y-71432200D02*
X119558600Y-70432200D01*
X120058600Y-64632200D02*
X120058600Y-69632200D01*
X120058600Y-69632200D02*
X115698600Y-69632200D01*
X121918600Y-62992200D02*
X121918600Y-62072200D01*
X121918600Y-62992200D02*
X123518600Y-62992200D01*
X121918600Y-63272200D02*
X121918600Y-62992200D01*
X121918600Y-71272200D02*
X121918600Y-70992200D01*
X121918600Y-71272200D02*
X121918600Y-72192200D01*
X123133600Y-70992200D02*
X121918600Y-70992200D01*
X123518600Y-62072200D02*
X115698600Y-62072200D01*
X123518600Y-62992200D02*
X123518600Y-62072200D01*
X123518600Y-71272200D02*
X121918600Y-71272200D01*
X123518600Y-72192200D02*
X123518600Y-71272200D01*
%TO.C,SW4*%
X134421000Y-85332000D02*
X138121000Y-85332000D01*
X134421000Y-91452000D02*
X134421000Y-85332000D01*
X138121000Y-85332000D02*
X138121000Y-91452000D01*
X138121000Y-91452000D02*
X134421000Y-91452000D01*
%TO.C,R12*%
X132598900Y-84031858D02*
X132598900Y-83557342D01*
X133643900Y-84031858D02*
X133643900Y-83557342D01*
%TO.C,U3*%
X126516000Y-55455400D02*
X144756000Y-55455400D01*
X126516000Y-61870400D02*
X126516000Y-55455400D01*
X126516000Y-81195400D02*
X126516000Y-80415400D01*
X127516000Y-81195400D02*
X126516000Y-81195400D01*
X143756000Y-81195400D02*
X144756000Y-81195400D01*
X144756000Y-61615400D02*
X144756000Y-55455400D01*
X144756000Y-81195400D02*
X144756000Y-80415400D01*
X145261000Y-62340400D02*
X144761000Y-62340400D01*
X144761000Y-61840400D01*
X145261000Y-62340400D01*
G36*
X145261000Y-62340400D02*
G01*
X144761000Y-62340400D01*
X144761000Y-61840400D01*
X145261000Y-62340400D01*
G37*
%TO.C,SW3*%
X141431400Y-85306600D02*
X145131400Y-85306600D01*
X141431400Y-91426600D02*
X141431400Y-85306600D01*
X145131400Y-85306600D02*
X145131400Y-91426600D01*
X145131400Y-91426600D02*
X141431400Y-91426600D01*
%TO.C,R6*%
X136726664Y-94642000D02*
X136272536Y-94642000D01*
X136726664Y-96112000D02*
X136272536Y-96112000D01*
%TO.C,R8*%
X130871700Y-84031858D02*
X130871700Y-83557342D01*
X131916700Y-84031858D02*
X131916700Y-83557342D01*
%TO.C,J1*%
X143701200Y-96319000D02*
X143701200Y-101039000D01*
X143701200Y-101039000D02*
X149821200Y-101039000D01*
X144311200Y-96929000D02*
X144311200Y-100429000D01*
X144311200Y-97629000D02*
X143701200Y-97629000D01*
X144311200Y-98929000D02*
X143701200Y-98929000D01*
X144311200Y-100429000D02*
X149211200Y-100429000D01*
X146261200Y-96319000D02*
X146261200Y-96929000D01*
X146261200Y-96929000D02*
X144311200Y-96929000D01*
X146661200Y-99929000D02*
X146861200Y-99929000D01*
X146661200Y-100429000D02*
X146661200Y-99929000D01*
X146761200Y-99929000D02*
X146761200Y-100429000D01*
X146861200Y-99929000D02*
X146861200Y-100429000D01*
X147261200Y-96929000D02*
X147261200Y-96319000D01*
X148061200Y-96119000D02*
X148061200Y-96319000D01*
X148361200Y-96119000D02*
X148061200Y-96119000D01*
X148361200Y-96219000D02*
X148061200Y-96219000D01*
X148361200Y-96319000D02*
X148361200Y-96119000D01*
X149211200Y-96929000D02*
X147261200Y-96929000D01*
X149211200Y-97629000D02*
X149821200Y-97629000D01*
X149211200Y-98929000D02*
X149821200Y-98929000D01*
X149211200Y-100429000D02*
X149211200Y-96929000D01*
X149821200Y-96319000D02*
X143701200Y-96319000D01*
X149821200Y-101039000D02*
X149821200Y-96319000D01*
X150121200Y-96019000D02*
X148871200Y-96019000D01*
X150121200Y-97269000D02*
X150121200Y-96019000D01*
%TO.C,D3*%
X135448800Y-98851600D02*
X138133800Y-98851600D01*
X138133800Y-96931600D02*
X135448800Y-96931600D01*
X138133800Y-98851600D02*
X138133800Y-96931600D01*
%TO.C,SW5*%
X126267600Y-85332000D02*
X129967600Y-85332000D01*
X126267600Y-91452000D02*
X126267600Y-85332000D01*
X129967600Y-85332000D02*
X129967600Y-91452000D01*
X129967600Y-91452000D02*
X126267600Y-91452000D01*
%TD*%
M02*
