%TF.GenerationSoftware,KiCad,Pcbnew,8.0.2-8.0.2-0~ubuntu22.04.1*%
%TF.CreationDate,2024-05-08T22:35:07+02:00*%
%TF.ProjectId,MailBox_LP_Notifier,4d61696c-426f-4785-9f4c-505f4e6f7469,rev?*%
%TF.SameCoordinates,Original*%
%TF.FileFunction,Copper,L2,Inr*%
%TF.FilePolarity,Positive*%
%FSLAX46Y46*%
G04 Gerber Fmt 4.6, Leading zero omitted, Abs format (unit mm)*
G04 Created by KiCad (PCBNEW 8.0.2-8.0.2-0~ubuntu22.04.1) date 2024-05-08 22:35:07*
%MOMM*%
%LPD*%
G01*
G04 APERTURE LIST*
G04 Aperture macros list*
%AMRoundRect*
0 Rectangle with rounded corners*
0 $1 Rounding radius*
0 $2 $3 $4 $5 $6 $7 $8 $9 X,Y pos of 4 corners*
0 Add a 4 corners polygon primitive as box body*
4,1,4,$2,$3,$4,$5,$6,$7,$8,$9,$2,$3,0*
0 Add four circle primitives for the rounded corners*
1,1,$1+$1,$2,$3*
1,1,$1+$1,$4,$5*
1,1,$1+$1,$6,$7*
1,1,$1+$1,$8,$9*
0 Add four rect primitives between the rounded corners*
20,1,$1+$1,$2,$3,$4,$5,0*
20,1,$1+$1,$4,$5,$6,$7,0*
20,1,$1+$1,$6,$7,$8,$9,0*
20,1,$1+$1,$8,$9,$2,$3,0*%
G04 Aperture macros list end*
%TA.AperFunction,ComponentPad*%
%ADD10RoundRect,0.250001X0.499999X0.499999X-0.499999X0.499999X-0.499999X-0.499999X0.499999X-0.499999X0*%
%TD*%
%TA.AperFunction,ComponentPad*%
%ADD11C,1.500000*%
%TD*%
%TA.AperFunction,ComponentPad*%
%ADD12R,1.700000X1.700000*%
%TD*%
%TA.AperFunction,ComponentPad*%
%ADD13O,1.700000X1.700000*%
%TD*%
%TA.AperFunction,ComponentPad*%
%ADD14RoundRect,0.250000X0.625000X-0.350000X0.625000X0.350000X-0.625000X0.350000X-0.625000X-0.350000X0*%
%TD*%
%TA.AperFunction,ComponentPad*%
%ADD15O,1.750000X1.200000*%
%TD*%
%TA.AperFunction,HeatsinkPad*%
%ADD16C,0.600000*%
%TD*%
%TA.AperFunction,ComponentPad*%
%ADD17RoundRect,0.250000X0.350000X0.625000X-0.350000X0.625000X-0.350000X-0.625000X0.350000X-0.625000X0*%
%TD*%
%TA.AperFunction,ComponentPad*%
%ADD18O,1.200000X1.750000*%
%TD*%
%TA.AperFunction,ViaPad*%
%ADD19C,0.800000*%
%TD*%
%TA.AperFunction,Conductor*%
%ADD20C,0.250000*%
%TD*%
%TA.AperFunction,Conductor*%
%ADD21C,0.500000*%
%TD*%
G04 APERTURE END LIST*
D10*
%TO.N,Net-(D1-A)*%
%TO.C,SW1*%
X132765800Y-91871800D03*
D11*
%TO.N,VDD*%
X132765800Y-88871800D03*
%TD*%
D12*
%TO.N,DRT*%
%TO.C,J2*%
X148437200Y-64332800D03*
D13*
%TO.N,RTS*%
X148437200Y-66872800D03*
%TO.N,TX*%
X148437200Y-69412800D03*
%TO.N,RX*%
X148437200Y-71952800D03*
%TO.N,+3.3V*%
X148437200Y-74492800D03*
%TO.N,unconnected-(J2-Pin_6-Pad6)*%
X148437200Y-77032800D03*
%TO.N,GND*%
X148437200Y-79572800D03*
%TD*%
D14*
%TO.N,SCL*%
%TO.C,J3*%
X122058600Y-70132200D03*
D15*
%TO.N,SDA*%
X122058600Y-68132200D03*
%TO.N,+3.3V*%
X122058600Y-66132200D03*
%TO.N,GND*%
X122058600Y-64132200D03*
%TD*%
D16*
%TO.N,GND*%
%TO.C,U3*%
X137841000Y-71167900D03*
X137841000Y-69642900D03*
X137078500Y-71930400D03*
X137078500Y-70405400D03*
X137078500Y-68880400D03*
X136316000Y-71167900D03*
X136316000Y-69642900D03*
X135553500Y-71930400D03*
X135553500Y-70405400D03*
X135553500Y-68880400D03*
X134791000Y-71167900D03*
X134791000Y-69642900D03*
%TD*%
D17*
%TO.N,GND*%
%TO.C,J1*%
X147761200Y-98129000D03*
D18*
%TO.N,VDD*%
X145761200Y-98129000D03*
%TD*%
D19*
%TO.N,GND*%
X142468600Y-81153000D03*
X129336800Y-63068200D03*
X129489200Y-92303600D03*
X121818400Y-95580200D03*
X123126500Y-82334100D03*
X149199600Y-99542600D03*
X142468600Y-80314800D03*
X124333000Y-63060400D03*
X124981000Y-88302800D03*
X139340102Y-97667300D03*
X139725400Y-100228400D03*
X142050000Y-63000000D03*
X143306800Y-93624400D03*
X140880600Y-86144600D03*
X145643600Y-63068200D03*
X136271000Y-93878400D03*
X119100600Y-74472800D03*
X125433000Y-63060400D03*
X147751800Y-100025200D03*
X140156600Y-93498000D03*
%TO.N,VDD*%
X141325600Y-98221800D03*
X140081000Y-78917800D03*
X133908800Y-78917800D03*
X144373600Y-99542600D03*
X119075200Y-79502000D03*
X145770600Y-99999800D03*
X123012200Y-77901800D03*
X131089400Y-72288400D03*
%TO.N,V_SENSE*%
X142671800Y-71120000D03*
%TO.N,+3.3V*%
X124942600Y-84480400D03*
X122819600Y-88991000D03*
X142461490Y-64524985D03*
X145618200Y-64312800D03*
X130288800Y-82969600D03*
%TO.N,~{INT}*%
X120993200Y-78752400D03*
X128854200Y-74193400D03*
%TO.N,MCU_HOLD*%
X128574800Y-75742800D03*
%TO.N,TX*%
X142319988Y-68119012D03*
%TO.N,RX*%
X142367000Y-69545200D03*
%TO.N,IO0*%
X125526800Y-79603600D03*
%TO.N,RST*%
X141351000Y-64439800D03*
X128346200Y-82829400D03*
%TO.N,VCC_SW*%
X121691400Y-86537800D03*
X139192000Y-77368400D03*
%TO.N,C_REED*%
X127279400Y-97942400D03*
%TO.N,WU_BUT*%
X131955079Y-76858487D03*
%TO.N,Net-(Q2-G)*%
X137617878Y-85298033D03*
%TD*%
D20*
%TO.N,RST*%
X141351000Y-64439800D02*
X141351000Y-70367305D01*
X141351000Y-70367305D02*
X128888905Y-82829400D01*
X128888905Y-82829400D02*
X128346200Y-82829400D01*
D21*
%TO.N,VCC_SW*%
X139192000Y-77470000D02*
X139192000Y-77368400D01*
X130124200Y-86537800D02*
X139192000Y-77470000D01*
X121691400Y-86537800D02*
X130124200Y-86537800D01*
%TD*%
%TA.AperFunction,Conductor*%
%TO.N,GND*%
G36*
X150894390Y-55442802D02*
G01*
X150940883Y-55496458D01*
X150952269Y-55548731D01*
X150977530Y-101346931D01*
X150957566Y-101415062D01*
X150903936Y-101461585D01*
X150851530Y-101473000D01*
X117855139Y-101473000D01*
X117787018Y-101452998D01*
X117740525Y-101399342D01*
X117729139Y-101346861D01*
X117730257Y-100333717D01*
X117731130Y-99542600D01*
X143460096Y-99542600D01*
X143480057Y-99732527D01*
X143505189Y-99809872D01*
X143539073Y-99914156D01*
X143539076Y-99914161D01*
X143634558Y-100079541D01*
X143634565Y-100079551D01*
X143762344Y-100221464D01*
X143762347Y-100221466D01*
X143916848Y-100333718D01*
X144091312Y-100411394D01*
X144278113Y-100451100D01*
X144469087Y-100451100D01*
X144655888Y-100411394D01*
X144793526Y-100350113D01*
X144863891Y-100340680D01*
X144928188Y-100370786D01*
X144953892Y-100402220D01*
X145031560Y-100536744D01*
X145031562Y-100536747D01*
X145031565Y-100536751D01*
X145159344Y-100678664D01*
X145159347Y-100678666D01*
X145313848Y-100790918D01*
X145488312Y-100868594D01*
X145675113Y-100908300D01*
X145866087Y-100908300D01*
X146052888Y-100868594D01*
X146227352Y-100790918D01*
X146381853Y-100678666D01*
X146509640Y-100536744D01*
X146605127Y-100371356D01*
X146664142Y-100189728D01*
X146684104Y-99999800D01*
X146664142Y-99809872D01*
X146605127Y-99628244D01*
X146531890Y-99501394D01*
X146509641Y-99462857D01*
X146509640Y-99462855D01*
X146476107Y-99425613D01*
X146445389Y-99361606D01*
X146454154Y-99291152D01*
X146480648Y-99252208D01*
X146582748Y-99150108D01*
X146645060Y-99116082D01*
X146715875Y-99121147D01*
X146772711Y-99163694D01*
X146779084Y-99173057D01*
X146812563Y-99227336D01*
X146812570Y-99227345D01*
X146937854Y-99352629D01*
X146937860Y-99352634D01*
X147088674Y-99445657D01*
X147256878Y-99501393D01*
X147256881Y-99501394D01*
X147360683Y-99511999D01*
X147360683Y-99512000D01*
X147507200Y-99512000D01*
X147507200Y-98405330D01*
X147530945Y-98429075D01*
X147616455Y-98478444D01*
X147711830Y-98504000D01*
X147810570Y-98504000D01*
X147905945Y-98478444D01*
X147991455Y-98429075D01*
X148015200Y-98405330D01*
X148015200Y-99512000D01*
X148161717Y-99512000D01*
X148161716Y-99511999D01*
X148265518Y-99501394D01*
X148265521Y-99501393D01*
X148433725Y-99445657D01*
X148584539Y-99352634D01*
X148584545Y-99352629D01*
X148709829Y-99227345D01*
X148709834Y-99227339D01*
X148802857Y-99076525D01*
X148858593Y-98908321D01*
X148858594Y-98908318D01*
X148869199Y-98804516D01*
X148869200Y-98804516D01*
X148869200Y-98383000D01*
X148037530Y-98383000D01*
X148061275Y-98359255D01*
X148110644Y-98273745D01*
X148136200Y-98178370D01*
X148136200Y-98079630D01*
X148110644Y-97984255D01*
X148061275Y-97898745D01*
X148037530Y-97875000D01*
X148869200Y-97875000D01*
X148869200Y-97453483D01*
X148858594Y-97349681D01*
X148858593Y-97349678D01*
X148802857Y-97181474D01*
X148709834Y-97030660D01*
X148709829Y-97030654D01*
X148584545Y-96905370D01*
X148584539Y-96905365D01*
X148433725Y-96812342D01*
X148265521Y-96756606D01*
X148265518Y-96756605D01*
X148161716Y-96746000D01*
X148015200Y-96746000D01*
X148015200Y-97852670D01*
X147991455Y-97828925D01*
X147905945Y-97779556D01*
X147810570Y-97754000D01*
X147711830Y-97754000D01*
X147616455Y-97779556D01*
X147530945Y-97828925D01*
X147507200Y-97852670D01*
X147507200Y-96746000D01*
X147360683Y-96746000D01*
X147256881Y-96756605D01*
X147256878Y-96756606D01*
X147088674Y-96812342D01*
X146937860Y-96905365D01*
X146937854Y-96905370D01*
X146812570Y-97030654D01*
X146812565Y-97030660D01*
X146779084Y-97084943D01*
X146726298Y-97132421D01*
X146656223Y-97143824D01*
X146591108Y-97115532D01*
X146582748Y-97107891D01*
X146483344Y-97008487D01*
X146483341Y-97008485D01*
X146483339Y-97008483D01*
X146342181Y-96905926D01*
X146186716Y-96826712D01*
X146186713Y-96826711D01*
X146186711Y-96826710D01*
X146020777Y-96772796D01*
X146020774Y-96772795D01*
X145848441Y-96745500D01*
X145673959Y-96745500D01*
X145501626Y-96772795D01*
X145501623Y-96772795D01*
X145501622Y-96772796D01*
X145335688Y-96826710D01*
X145335682Y-96826713D01*
X145180215Y-96905928D01*
X145039058Y-97008485D01*
X145039055Y-97008487D01*
X144915687Y-97131855D01*
X144915685Y-97131858D01*
X144813128Y-97273015D01*
X144733913Y-97428482D01*
X144733910Y-97428488D01*
X144679996Y-97594422D01*
X144679995Y-97594426D01*
X144652957Y-97765142D01*
X144652700Y-97766762D01*
X144652700Y-98491241D01*
X144653833Y-98498398D01*
X144644729Y-98568809D01*
X144599004Y-98623120D01*
X144531174Y-98644088D01*
X144503186Y-98641348D01*
X144469087Y-98634100D01*
X144278113Y-98634100D01*
X144091311Y-98673806D01*
X143916847Y-98751482D01*
X143762344Y-98863735D01*
X143634565Y-99005648D01*
X143634558Y-99005658D01*
X143539076Y-99171038D01*
X143539073Y-99171045D01*
X143480057Y-99352672D01*
X143460096Y-99542600D01*
X117731130Y-99542600D01*
X117732895Y-97942400D01*
X126365896Y-97942400D01*
X126385857Y-98132327D01*
X126400818Y-98178370D01*
X126444873Y-98313956D01*
X126444876Y-98313961D01*
X126540358Y-98479341D01*
X126540365Y-98479351D01*
X126668144Y-98621264D01*
X126668147Y-98621266D01*
X126822648Y-98733518D01*
X126997112Y-98811194D01*
X127183913Y-98850900D01*
X127374887Y-98850900D01*
X127561688Y-98811194D01*
X127736152Y-98733518D01*
X127890653Y-98621266D01*
X127915785Y-98593354D01*
X128018434Y-98479351D01*
X128018435Y-98479349D01*
X128018440Y-98479344D01*
X128113927Y-98313956D01*
X128143871Y-98221800D01*
X140412096Y-98221800D01*
X140432057Y-98411727D01*
X140460219Y-98498398D01*
X140491073Y-98593356D01*
X140491076Y-98593361D01*
X140586558Y-98758741D01*
X140586565Y-98758751D01*
X140714344Y-98900664D01*
X140714347Y-98900666D01*
X140868848Y-99012918D01*
X141043312Y-99090594D01*
X141230113Y-99130300D01*
X141421087Y-99130300D01*
X141607888Y-99090594D01*
X141782352Y-99012918D01*
X141936853Y-98900666D01*
X141970107Y-98863734D01*
X142064634Y-98758751D01*
X142064635Y-98758749D01*
X142064640Y-98758744D01*
X142160127Y-98593356D01*
X142219142Y-98411728D01*
X142239104Y-98221800D01*
X142219142Y-98031872D01*
X142160127Y-97850244D01*
X142064640Y-97684856D01*
X142064638Y-97684854D01*
X142064634Y-97684848D01*
X141936855Y-97542935D01*
X141782352Y-97430682D01*
X141607888Y-97353006D01*
X141421087Y-97313300D01*
X141230113Y-97313300D01*
X141043311Y-97353006D01*
X140868847Y-97430682D01*
X140714344Y-97542935D01*
X140586565Y-97684848D01*
X140586558Y-97684858D01*
X140491076Y-97850238D01*
X140491073Y-97850244D01*
X140490191Y-97852958D01*
X140432057Y-98031872D01*
X140412096Y-98221800D01*
X128143871Y-98221800D01*
X128172942Y-98132328D01*
X128192904Y-97942400D01*
X128172942Y-97752472D01*
X128113927Y-97570844D01*
X128018440Y-97405456D01*
X128018438Y-97405454D01*
X128018434Y-97405448D01*
X127890655Y-97263535D01*
X127736152Y-97151282D01*
X127561688Y-97073606D01*
X127374887Y-97033900D01*
X127183913Y-97033900D01*
X126997111Y-97073606D01*
X126822647Y-97151282D01*
X126668144Y-97263535D01*
X126540365Y-97405448D01*
X126540358Y-97405458D01*
X126444876Y-97570838D01*
X126444873Y-97570845D01*
X126385857Y-97752472D01*
X126365896Y-97942400D01*
X117732895Y-97942400D01*
X117734953Y-96077063D01*
X131015300Y-96077063D01*
X131015300Y-96306536D01*
X131045250Y-96534031D01*
X131045252Y-96534038D01*
X131104642Y-96755687D01*
X131192456Y-96967688D01*
X131192457Y-96967689D01*
X131192462Y-96967700D01*
X131307186Y-97166408D01*
X131307191Y-97166415D01*
X131446873Y-97348452D01*
X131446892Y-97348473D01*
X131609126Y-97510707D01*
X131609147Y-97510726D01*
X131791184Y-97650408D01*
X131791191Y-97650413D01*
X131989899Y-97765137D01*
X131989903Y-97765138D01*
X131989912Y-97765144D01*
X132201913Y-97852958D01*
X132423562Y-97912348D01*
X132423566Y-97912348D01*
X132423568Y-97912349D01*
X132482198Y-97920067D01*
X132651066Y-97942300D01*
X132651073Y-97942300D01*
X132880527Y-97942300D01*
X132880534Y-97942300D01*
X133086145Y-97915230D01*
X133108031Y-97912349D01*
X133108031Y-97912348D01*
X133108038Y-97912348D01*
X133329687Y-97852958D01*
X133541688Y-97765144D01*
X133740412Y-97650411D01*
X133922461Y-97510719D01*
X134084719Y-97348461D01*
X134224411Y-97166412D01*
X134339144Y-96967688D01*
X134426958Y-96755687D01*
X134486348Y-96534038D01*
X134516300Y-96306534D01*
X134516300Y-96077066D01*
X134486348Y-95849562D01*
X134426958Y-95627913D01*
X134339144Y-95415912D01*
X134339138Y-95415903D01*
X134339137Y-95415899D01*
X134224413Y-95217191D01*
X134224408Y-95217184D01*
X134084726Y-95035147D01*
X134084707Y-95035126D01*
X133922473Y-94872892D01*
X133922452Y-94872873D01*
X133740415Y-94733191D01*
X133740408Y-94733186D01*
X133541700Y-94618462D01*
X133541692Y-94618458D01*
X133541688Y-94618456D01*
X133329687Y-94530642D01*
X133108038Y-94471252D01*
X133108031Y-94471250D01*
X132880536Y-94441300D01*
X132880534Y-94441300D01*
X132651066Y-94441300D01*
X132651063Y-94441300D01*
X132423568Y-94471250D01*
X132201913Y-94530642D01*
X131989910Y-94618457D01*
X131989899Y-94618462D01*
X131791191Y-94733186D01*
X131791184Y-94733191D01*
X131609147Y-94872873D01*
X131609126Y-94872892D01*
X131446892Y-95035126D01*
X131446873Y-95035147D01*
X131307191Y-95217184D01*
X131307186Y-95217191D01*
X131192462Y-95415899D01*
X131192457Y-95415910D01*
X131104642Y-95627913D01*
X131045250Y-95849568D01*
X131015300Y-96077063D01*
X117734953Y-96077063D01*
X117738985Y-92422352D01*
X131507299Y-92422352D01*
X131517912Y-92526221D01*
X131517912Y-92526223D01*
X131517913Y-92526225D01*
X131573685Y-92694538D01*
X131594287Y-92727938D01*
X131666770Y-92845451D01*
X131666775Y-92845457D01*
X131792142Y-92970824D01*
X131792148Y-92970829D01*
X131792149Y-92970830D01*
X131943062Y-93063915D01*
X132111375Y-93119687D01*
X132139706Y-93122581D01*
X132215248Y-93130300D01*
X132215256Y-93130300D01*
X133316352Y-93130300D01*
X133385598Y-93123224D01*
X133420225Y-93119687D01*
X133588538Y-93063915D01*
X133739451Y-92970830D01*
X133864830Y-92845451D01*
X133957915Y-92694538D01*
X134013687Y-92526225D01*
X134017224Y-92491598D01*
X134024300Y-92422352D01*
X134024300Y-91321247D01*
X134013687Y-91217378D01*
X134013687Y-91217375D01*
X133963100Y-91064709D01*
X146104500Y-91064709D01*
X146104500Y-91307290D01*
X146136160Y-91547782D01*
X146198944Y-91782095D01*
X146198945Y-91782097D01*
X146198946Y-91782100D01*
X146291776Y-92006212D01*
X146291777Y-92006213D01*
X146291782Y-92006224D01*
X146413061Y-92216285D01*
X146413063Y-92216288D01*
X146413064Y-92216289D01*
X146560735Y-92408738D01*
X146560739Y-92408742D01*
X146560744Y-92408748D01*
X146732251Y-92580255D01*
X146732256Y-92580259D01*
X146732262Y-92580265D01*
X146924711Y-92727936D01*
X146924714Y-92727938D01*
X147134775Y-92849217D01*
X147134779Y-92849218D01*
X147134788Y-92849224D01*
X147358900Y-92942054D01*
X147593211Y-93004838D01*
X147593215Y-93004838D01*
X147593217Y-93004839D01*
X147655202Y-93012999D01*
X147833712Y-93036500D01*
X147833719Y-93036500D01*
X148076281Y-93036500D01*
X148076288Y-93036500D01*
X148293637Y-93007885D01*
X148316782Y-93004839D01*
X148316782Y-93004838D01*
X148316789Y-93004838D01*
X148551100Y-92942054D01*
X148775212Y-92849224D01*
X148985289Y-92727936D01*
X149177738Y-92580265D01*
X149349265Y-92408738D01*
X149496936Y-92216289D01*
X149618224Y-92006212D01*
X149711054Y-91782100D01*
X149773838Y-91547789D01*
X149805500Y-91307288D01*
X149805500Y-91064712D01*
X149773838Y-90824211D01*
X149711054Y-90589900D01*
X149618224Y-90365788D01*
X149618218Y-90365779D01*
X149618217Y-90365775D01*
X149496938Y-90155714D01*
X149481125Y-90135106D01*
X149349265Y-89963262D01*
X149349259Y-89963256D01*
X149349255Y-89963251D01*
X149177748Y-89791744D01*
X149177742Y-89791739D01*
X149177738Y-89791735D01*
X148985289Y-89644064D01*
X148985288Y-89644063D01*
X148985285Y-89644061D01*
X148775224Y-89522782D01*
X148775216Y-89522778D01*
X148775212Y-89522776D01*
X148551100Y-89429946D01*
X148551097Y-89429945D01*
X148551095Y-89429944D01*
X148316782Y-89367160D01*
X148076290Y-89335500D01*
X148076288Y-89335500D01*
X147833712Y-89335500D01*
X147833709Y-89335500D01*
X147593217Y-89367160D01*
X147358904Y-89429944D01*
X147358900Y-89429946D01*
X147181446Y-89503450D01*
X147134786Y-89522777D01*
X147134775Y-89522782D01*
X146924714Y-89644061D01*
X146732262Y-89791735D01*
X146732251Y-89791744D01*
X146560744Y-89963251D01*
X146560735Y-89963262D01*
X146413061Y-90155714D01*
X146291782Y-90365775D01*
X146291777Y-90365786D01*
X146198946Y-90589900D01*
X146198944Y-90589904D01*
X146136160Y-90824217D01*
X146104500Y-91064709D01*
X133963100Y-91064709D01*
X133957915Y-91049062D01*
X133864830Y-90898149D01*
X133864829Y-90898148D01*
X133864824Y-90898142D01*
X133739457Y-90772775D01*
X133739451Y-90772770D01*
X133588538Y-90679685D01*
X133420225Y-90623913D01*
X133420223Y-90623912D01*
X133420221Y-90623912D01*
X133316352Y-90613300D01*
X133316344Y-90613300D01*
X132215256Y-90613300D01*
X132215248Y-90613300D01*
X132111378Y-90623912D01*
X131943062Y-90679685D01*
X131943060Y-90679686D01*
X131792148Y-90772770D01*
X131792142Y-90772775D01*
X131666775Y-90898142D01*
X131666770Y-90898148D01*
X131573686Y-91049060D01*
X131573685Y-91049062D01*
X131517912Y-91217378D01*
X131507300Y-91321247D01*
X131507300Y-92422352D01*
X131507299Y-92422352D01*
X117738985Y-92422352D01*
X117742770Y-88991000D01*
X121906096Y-88991000D01*
X121926057Y-89180927D01*
X121956126Y-89273470D01*
X121985073Y-89362556D01*
X121985076Y-89362561D01*
X122080558Y-89527941D01*
X122080565Y-89527951D01*
X122208344Y-89669864D01*
X122208347Y-89669866D01*
X122362848Y-89782118D01*
X122537312Y-89859794D01*
X122724113Y-89899500D01*
X122915087Y-89899500D01*
X123101888Y-89859794D01*
X123276352Y-89782118D01*
X123430853Y-89669866D01*
X123558640Y-89527944D01*
X123654127Y-89362556D01*
X123713142Y-89180928D01*
X123733104Y-88991000D01*
X123720576Y-88871800D01*
X131502493Y-88871800D01*
X131506235Y-88914578D01*
X131521685Y-89091170D01*
X131578679Y-89303873D01*
X131578681Y-89303879D01*
X131637466Y-89429944D01*
X131671744Y-89503454D01*
X131770199Y-89644061D01*
X131798051Y-89683838D01*
X131798054Y-89683842D01*
X131953757Y-89839545D01*
X131953761Y-89839548D01*
X131953762Y-89839549D01*
X132134146Y-89965856D01*
X132333724Y-90058920D01*
X132546429Y-90115915D01*
X132765800Y-90135107D01*
X132985171Y-90115915D01*
X133197876Y-90058920D01*
X133397454Y-89965856D01*
X133577838Y-89839549D01*
X133733549Y-89683838D01*
X133859856Y-89503454D01*
X133952920Y-89303876D01*
X134009915Y-89091171D01*
X134029107Y-88871800D01*
X134009915Y-88652429D01*
X133952920Y-88439724D01*
X133859856Y-88240147D01*
X133733549Y-88059762D01*
X133577838Y-87904051D01*
X133397454Y-87777744D01*
X133224061Y-87696890D01*
X133197879Y-87684681D01*
X133197873Y-87684679D01*
X133107978Y-87660591D01*
X132985171Y-87627685D01*
X132765800Y-87608493D01*
X132546429Y-87627685D01*
X132333726Y-87684679D01*
X132333720Y-87684681D01*
X132134146Y-87777744D01*
X131953765Y-87904048D01*
X131953759Y-87904053D01*
X131798053Y-88059759D01*
X131798048Y-88059765D01*
X131671744Y-88240146D01*
X131578681Y-88439720D01*
X131578679Y-88439726D01*
X131574839Y-88454058D01*
X131521685Y-88652429D01*
X131502493Y-88871800D01*
X123720576Y-88871800D01*
X123713142Y-88801072D01*
X123654127Y-88619444D01*
X123558640Y-88454056D01*
X123558638Y-88454054D01*
X123558634Y-88454048D01*
X123430855Y-88312135D01*
X123276352Y-88199882D01*
X123101888Y-88122206D01*
X122915087Y-88082500D01*
X122724113Y-88082500D01*
X122537311Y-88122206D01*
X122362847Y-88199882D01*
X122208344Y-88312135D01*
X122080565Y-88454048D01*
X122080558Y-88454058D01*
X121985076Y-88619438D01*
X121985073Y-88619444D01*
X121970599Y-88663986D01*
X121926057Y-88801072D01*
X121906096Y-88991000D01*
X117742770Y-88991000D01*
X117743673Y-88172004D01*
X119205500Y-88172004D01*
X119205500Y-88309995D01*
X119205926Y-88312135D01*
X119232420Y-88445328D01*
X119285225Y-88572811D01*
X119316385Y-88619445D01*
X119361885Y-88687541D01*
X119361890Y-88687547D01*
X119459452Y-88785109D01*
X119459458Y-88785114D01*
X119574189Y-88861775D01*
X119701672Y-88914580D01*
X119837007Y-88941500D01*
X119837008Y-88941500D01*
X119974992Y-88941500D01*
X119974993Y-88941500D01*
X120110328Y-88914580D01*
X120237811Y-88861775D01*
X120352542Y-88785114D01*
X120450114Y-88687542D01*
X120526775Y-88572811D01*
X120579580Y-88445328D01*
X120606500Y-88309993D01*
X120606500Y-88172007D01*
X120579580Y-88036672D01*
X120526775Y-87909189D01*
X120450114Y-87794458D01*
X120450109Y-87794452D01*
X120352547Y-87696890D01*
X120352541Y-87696885D01*
X120314471Y-87671447D01*
X120237811Y-87620225D01*
X120157421Y-87586926D01*
X120110331Y-87567421D01*
X120110328Y-87567420D01*
X119974995Y-87540500D01*
X119974993Y-87540500D01*
X119837007Y-87540500D01*
X119837004Y-87540500D01*
X119701671Y-87567420D01*
X119701668Y-87567421D01*
X119574189Y-87620225D01*
X119459458Y-87696885D01*
X119459452Y-87696890D01*
X119361890Y-87794452D01*
X119361885Y-87794458D01*
X119285225Y-87909189D01*
X119232421Y-88036668D01*
X119232420Y-88036671D01*
X119205500Y-88172004D01*
X117743673Y-88172004D01*
X117745476Y-86537800D01*
X120777896Y-86537800D01*
X120797857Y-86727727D01*
X120827926Y-86820270D01*
X120856873Y-86909356D01*
X120856876Y-86909361D01*
X120952358Y-87074741D01*
X120952365Y-87074751D01*
X121080144Y-87216664D01*
X121080147Y-87216666D01*
X121234648Y-87328918D01*
X121409112Y-87406594D01*
X121595913Y-87446300D01*
X121786887Y-87446300D01*
X121973688Y-87406594D01*
X122148152Y-87328918D01*
X122159924Y-87320364D01*
X122226791Y-87296506D01*
X122233987Y-87296300D01*
X130198901Y-87296300D01*
X130198905Y-87296300D01*
X130198906Y-87296300D01*
X130272176Y-87281725D01*
X130345447Y-87267151D01*
X130483484Y-87209974D01*
X130607715Y-87126966D01*
X132436648Y-85298033D01*
X136704374Y-85298033D01*
X136724335Y-85487960D01*
X136751905Y-85572810D01*
X136783351Y-85669589D01*
X136783354Y-85669594D01*
X136878836Y-85834974D01*
X136878843Y-85834984D01*
X137006622Y-85976897D01*
X137067877Y-86021401D01*
X137161126Y-86089151D01*
X137335590Y-86166827D01*
X137522391Y-86206533D01*
X137713365Y-86206533D01*
X137900166Y-86166827D01*
X138074630Y-86089151D01*
X138229131Y-85976899D01*
X138229133Y-85976897D01*
X138356912Y-85834984D01*
X138356913Y-85834982D01*
X138356918Y-85834977D01*
X138452405Y-85669589D01*
X138511420Y-85487961D01*
X138531382Y-85298033D01*
X138511420Y-85108105D01*
X138452405Y-84926477D01*
X138356918Y-84761089D01*
X138356916Y-84761087D01*
X138356912Y-84761081D01*
X138229133Y-84619168D01*
X138074630Y-84506915D01*
X137900166Y-84429239D01*
X137713365Y-84389533D01*
X137522391Y-84389533D01*
X137335589Y-84429239D01*
X137161125Y-84506915D01*
X137006622Y-84619168D01*
X136878843Y-84761081D01*
X136878836Y-84761091D01*
X136783354Y-84926471D01*
X136783351Y-84926478D01*
X136724335Y-85108105D01*
X136704374Y-85298033D01*
X132436648Y-85298033D01*
X138957079Y-78777600D01*
X139019389Y-78743576D01*
X139090204Y-78748641D01*
X139147040Y-78791188D01*
X139171851Y-78857708D01*
X139171482Y-78879864D01*
X139167496Y-78917797D01*
X139167496Y-78917798D01*
X139187457Y-79107727D01*
X139208569Y-79172701D01*
X139246473Y-79289356D01*
X139246476Y-79289361D01*
X139341958Y-79454741D01*
X139341965Y-79454751D01*
X139469744Y-79596664D01*
X139469747Y-79596666D01*
X139624248Y-79708918D01*
X139798712Y-79786594D01*
X139985513Y-79826300D01*
X140176487Y-79826300D01*
X140363288Y-79786594D01*
X140537752Y-79708918D01*
X140692253Y-79596666D01*
X140766459Y-79514252D01*
X140820034Y-79454751D01*
X140820035Y-79454749D01*
X140820040Y-79454744D01*
X140915527Y-79289356D01*
X140974542Y-79107728D01*
X140994504Y-78917800D01*
X140974542Y-78727872D01*
X140915527Y-78546244D01*
X140820040Y-78380856D01*
X140820038Y-78380854D01*
X140820034Y-78380848D01*
X140692255Y-78238935D01*
X140537752Y-78126682D01*
X140363288Y-78049006D01*
X140176487Y-78009300D01*
X140089259Y-78009300D01*
X140021138Y-77989298D01*
X139974645Y-77935642D01*
X139964541Y-77865368D01*
X139980140Y-77820300D01*
X140026527Y-77739956D01*
X140085542Y-77558328D01*
X140105504Y-77368400D01*
X140085542Y-77178472D01*
X140026527Y-76996844D01*
X139931040Y-76831456D01*
X139931038Y-76831454D01*
X139931034Y-76831448D01*
X139803255Y-76689535D01*
X139648752Y-76577282D01*
X139474288Y-76499606D01*
X139287487Y-76459900D01*
X139096513Y-76459900D01*
X138909711Y-76499606D01*
X138735247Y-76577282D01*
X138580744Y-76689535D01*
X138452965Y-76831448D01*
X138452958Y-76831458D01*
X138357476Y-76996838D01*
X138357473Y-76996845D01*
X138298459Y-77178467D01*
X138289922Y-77259687D01*
X138262908Y-77325343D01*
X138253707Y-77335610D01*
X129846924Y-85742395D01*
X129784612Y-85776421D01*
X129757829Y-85779300D01*
X122233987Y-85779300D01*
X122165866Y-85759298D01*
X122159924Y-85755235D01*
X122148154Y-85746683D01*
X121973688Y-85669006D01*
X121786887Y-85629300D01*
X121595913Y-85629300D01*
X121409111Y-85669006D01*
X121234647Y-85746682D01*
X121080144Y-85858935D01*
X120952365Y-86000848D01*
X120952358Y-86000858D01*
X120856876Y-86166238D01*
X120856873Y-86166245D01*
X120797857Y-86347872D01*
X120777896Y-86537800D01*
X117745476Y-86537800D01*
X117746982Y-85172004D01*
X119205500Y-85172004D01*
X119205500Y-85309995D01*
X119221196Y-85388900D01*
X119232420Y-85445328D01*
X119285225Y-85572811D01*
X119322970Y-85629300D01*
X119361885Y-85687541D01*
X119361890Y-85687547D01*
X119459452Y-85785109D01*
X119459458Y-85785114D01*
X119574189Y-85861775D01*
X119701672Y-85914580D01*
X119837007Y-85941500D01*
X119837008Y-85941500D01*
X119974992Y-85941500D01*
X119974993Y-85941500D01*
X120110328Y-85914580D01*
X120237811Y-85861775D01*
X120352542Y-85785114D01*
X120450114Y-85687542D01*
X120526775Y-85572811D01*
X120579580Y-85445328D01*
X120606500Y-85309993D01*
X120606500Y-85172007D01*
X120579580Y-85036672D01*
X120526775Y-84909189D01*
X120450114Y-84794458D01*
X120450109Y-84794452D01*
X120352547Y-84696890D01*
X120352541Y-84696885D01*
X120312794Y-84670327D01*
X120237811Y-84620225D01*
X120157421Y-84586926D01*
X120110331Y-84567421D01*
X120110328Y-84567420D01*
X119974995Y-84540500D01*
X119974993Y-84540500D01*
X119837007Y-84540500D01*
X119837004Y-84540500D01*
X119701671Y-84567420D01*
X119701668Y-84567421D01*
X119574189Y-84620225D01*
X119459458Y-84696885D01*
X119459452Y-84696890D01*
X119361890Y-84794452D01*
X119361885Y-84794458D01*
X119285225Y-84909189D01*
X119232421Y-85036668D01*
X119232420Y-85036671D01*
X119205500Y-85172004D01*
X117746982Y-85172004D01*
X117747745Y-84480400D01*
X124029096Y-84480400D01*
X124049057Y-84670327D01*
X124078546Y-84761081D01*
X124108073Y-84851956D01*
X124108076Y-84851961D01*
X124203558Y-85017341D01*
X124203565Y-85017351D01*
X124331344Y-85159264D01*
X124331347Y-85159266D01*
X124485848Y-85271518D01*
X124660312Y-85349194D01*
X124847113Y-85388900D01*
X125038087Y-85388900D01*
X125224888Y-85349194D01*
X125399352Y-85271518D01*
X125553853Y-85159266D01*
X125681640Y-85017344D01*
X125777127Y-84851956D01*
X125836142Y-84670328D01*
X125856104Y-84480400D01*
X125836142Y-84290472D01*
X125777127Y-84108844D01*
X125681640Y-83943456D01*
X125681638Y-83943454D01*
X125681634Y-83943448D01*
X125553855Y-83801535D01*
X125399352Y-83689282D01*
X125224888Y-83611606D01*
X125038087Y-83571900D01*
X124847113Y-83571900D01*
X124660311Y-83611606D01*
X124485847Y-83689282D01*
X124331344Y-83801535D01*
X124203565Y-83943448D01*
X124203558Y-83943458D01*
X124108076Y-84108838D01*
X124108073Y-84108845D01*
X124049057Y-84290472D01*
X124029096Y-84480400D01*
X117747745Y-84480400D01*
X117749566Y-82829400D01*
X127432696Y-82829400D01*
X127452657Y-83019327D01*
X127482726Y-83111870D01*
X127511673Y-83200956D01*
X127511676Y-83200961D01*
X127607158Y-83366341D01*
X127607165Y-83366351D01*
X127734944Y-83508264D01*
X127734947Y-83508266D01*
X127889448Y-83620518D01*
X128063912Y-83698194D01*
X128250713Y-83737900D01*
X128441687Y-83737900D01*
X128628488Y-83698194D01*
X128802952Y-83620518D01*
X128957453Y-83508266D01*
X128980551Y-83482612D01*
X129040995Y-83445374D01*
X129049591Y-83443348D01*
X129073690Y-83438555D01*
X129188980Y-83390800D01*
X129289246Y-83323803D01*
X129356999Y-83302589D01*
X129425466Y-83321372D01*
X129468367Y-83365568D01*
X129468815Y-83366344D01*
X129549760Y-83506544D01*
X129549762Y-83506547D01*
X129549765Y-83506551D01*
X129677544Y-83648464D01*
X129677547Y-83648466D01*
X129832048Y-83760718D01*
X130006512Y-83838394D01*
X130193313Y-83878100D01*
X130384287Y-83878100D01*
X130571088Y-83838394D01*
X130745552Y-83760718D01*
X130900053Y-83648466D01*
X130900055Y-83648464D01*
X131027834Y-83506551D01*
X131027835Y-83506549D01*
X131027840Y-83506544D01*
X131123327Y-83341156D01*
X131182342Y-83159528D01*
X131202304Y-82969600D01*
X131182342Y-82779672D01*
X131123327Y-82598044D01*
X131027840Y-82432656D01*
X131027838Y-82432654D01*
X131027834Y-82432648D01*
X130900055Y-82290735D01*
X130745552Y-82178482D01*
X130698653Y-82157601D01*
X130644558Y-82111622D01*
X130623909Y-82043694D01*
X130643261Y-81975386D01*
X130660804Y-81953404D01*
X133070996Y-79543211D01*
X133133306Y-79509188D01*
X133204121Y-79514252D01*
X133253725Y-79547998D01*
X133297544Y-79596664D01*
X133297547Y-79596666D01*
X133452048Y-79708918D01*
X133626512Y-79786594D01*
X133813313Y-79826300D01*
X134004287Y-79826300D01*
X134191088Y-79786594D01*
X134365552Y-79708918D01*
X134520053Y-79596666D01*
X134594259Y-79514252D01*
X134647834Y-79454751D01*
X134647835Y-79454749D01*
X134647840Y-79454744D01*
X134743327Y-79289356D01*
X134802342Y-79107728D01*
X134822304Y-78917800D01*
X134802342Y-78727872D01*
X134743327Y-78546244D01*
X134647840Y-78380856D01*
X134647838Y-78380854D01*
X134647834Y-78380848D01*
X134531465Y-78251607D01*
X134500747Y-78187600D01*
X134509512Y-78117146D01*
X134536003Y-78078205D01*
X141546389Y-71067819D01*
X141608699Y-71033795D01*
X141679514Y-71038860D01*
X141736350Y-71081407D01*
X141760792Y-71143746D01*
X141778257Y-71309927D01*
X141790900Y-71348837D01*
X141837273Y-71491556D01*
X141837276Y-71491561D01*
X141932758Y-71656941D01*
X141932765Y-71656951D01*
X142060544Y-71798864D01*
X142060547Y-71798866D01*
X142215048Y-71911118D01*
X142389512Y-71988794D01*
X142576313Y-72028500D01*
X142767287Y-72028500D01*
X142954088Y-71988794D01*
X143128552Y-71911118D01*
X143283053Y-71798866D01*
X143283055Y-71798864D01*
X143410834Y-71656951D01*
X143410835Y-71656949D01*
X143410840Y-71656944D01*
X143506327Y-71491556D01*
X143565342Y-71309928D01*
X143585304Y-71120000D01*
X143565342Y-70930072D01*
X143506327Y-70748444D01*
X143410840Y-70583056D01*
X143410838Y-70583054D01*
X143410834Y-70583048D01*
X143283055Y-70441135D01*
X143181765Y-70367544D01*
X143128552Y-70328882D01*
X143128550Y-70328881D01*
X143128549Y-70328880D01*
X143112323Y-70321656D01*
X143058228Y-70275676D01*
X143037579Y-70207749D01*
X143056932Y-70139441D01*
X143069931Y-70122246D01*
X143106040Y-70082144D01*
X143201527Y-69916756D01*
X143260542Y-69735128D01*
X143280504Y-69545200D01*
X143260542Y-69355272D01*
X143201527Y-69173644D01*
X143106040Y-69008256D01*
X143106038Y-69008254D01*
X143106034Y-69008248D01*
X142999841Y-68890309D01*
X142969123Y-68826302D01*
X142977888Y-68755848D01*
X142999837Y-68721693D01*
X143059028Y-68655956D01*
X143154515Y-68490568D01*
X143213530Y-68308940D01*
X143233492Y-68119012D01*
X143213530Y-67929084D01*
X143154515Y-67747456D01*
X143059028Y-67582068D01*
X143059026Y-67582066D01*
X143059022Y-67582060D01*
X142931243Y-67440147D01*
X142776740Y-67327894D01*
X142602276Y-67250218D01*
X142415475Y-67210512D01*
X142224501Y-67210512D01*
X142224500Y-67210512D01*
X142136697Y-67229175D01*
X142065906Y-67223773D01*
X142009273Y-67180956D01*
X141984780Y-67114318D01*
X141984500Y-67105928D01*
X141984500Y-66872800D01*
X147074044Y-66872800D01*
X147088262Y-67044386D01*
X147092637Y-67097175D01*
X147147902Y-67315412D01*
X147147903Y-67315413D01*
X147147904Y-67315416D01*
X147189419Y-67410061D01*
X147238341Y-67521593D01*
X147361475Y-67710065D01*
X147361479Y-67710070D01*
X147513962Y-67875708D01*
X147568531Y-67918181D01*
X147691624Y-68013989D01*
X147724880Y-68031986D01*
X147775271Y-68082000D01*
X147790623Y-68151316D01*
X147766062Y-68217929D01*
X147724880Y-68253613D01*
X147691626Y-68271610D01*
X147691624Y-68271611D01*
X147513962Y-68409891D01*
X147361479Y-68575529D01*
X147361475Y-68575534D01*
X147238341Y-68764006D01*
X147147903Y-68970186D01*
X147147902Y-68970187D01*
X147092637Y-69188424D01*
X147092636Y-69188430D01*
X147092636Y-69188432D01*
X147074044Y-69412800D01*
X147091857Y-69627772D01*
X147092637Y-69637175D01*
X147147902Y-69855412D01*
X147147903Y-69855413D01*
X147147904Y-69855416D01*
X147238340Y-70061591D01*
X147238341Y-70061593D01*
X147361475Y-70250065D01*
X147361479Y-70250070D01*
X147469623Y-70367544D01*
X147504473Y-70405401D01*
X147513962Y-70415708D01*
X147546631Y-70441135D01*
X147691624Y-70553989D01*
X147724880Y-70571986D01*
X147775271Y-70622000D01*
X147790623Y-70691316D01*
X147766062Y-70757929D01*
X147724880Y-70793613D01*
X147691626Y-70811610D01*
X147691624Y-70811611D01*
X147513962Y-70949891D01*
X147361479Y-71115529D01*
X147361475Y-71115534D01*
X147238341Y-71304006D01*
X147147903Y-71510186D01*
X147147902Y-71510187D01*
X147092637Y-71728424D01*
X147092636Y-71728430D01*
X147092636Y-71728432D01*
X147074044Y-71952800D01*
X147087180Y-72111329D01*
X147092637Y-72177175D01*
X147147902Y-72395412D01*
X147147903Y-72395413D01*
X147147904Y-72395416D01*
X147238340Y-72601591D01*
X147238341Y-72601593D01*
X147361475Y-72790065D01*
X147361479Y-72790070D01*
X147513962Y-72955708D01*
X147528812Y-72967266D01*
X147691624Y-73093989D01*
X147724880Y-73111986D01*
X147775271Y-73162000D01*
X147790623Y-73231316D01*
X147766062Y-73297929D01*
X147724880Y-73333613D01*
X147691626Y-73351610D01*
X147691624Y-73351611D01*
X147513962Y-73489891D01*
X147361479Y-73655529D01*
X147361475Y-73655534D01*
X147238341Y-73844006D01*
X147147903Y-74050186D01*
X147147902Y-74050187D01*
X147092637Y-74268424D01*
X147092636Y-74268430D01*
X147092636Y-74268432D01*
X147083115Y-74383328D01*
X147074044Y-74492800D01*
X147092637Y-74717175D01*
X147147902Y-74935412D01*
X147147903Y-74935413D01*
X147147904Y-74935416D01*
X147171578Y-74989387D01*
X147238341Y-75141593D01*
X147361475Y-75330065D01*
X147361479Y-75330070D01*
X147513962Y-75495708D01*
X147568531Y-75538181D01*
X147691624Y-75633989D01*
X147724880Y-75651986D01*
X147775271Y-75702000D01*
X147790623Y-75771316D01*
X147766062Y-75837929D01*
X147724880Y-75873613D01*
X147691626Y-75891610D01*
X147691624Y-75891611D01*
X147513962Y-76029891D01*
X147361479Y-76195529D01*
X147361475Y-76195534D01*
X147238341Y-76384006D01*
X147147903Y-76590186D01*
X147147902Y-76590187D01*
X147092637Y-76808424D01*
X147092636Y-76808430D01*
X147092636Y-76808432D01*
X147074044Y-77032800D01*
X147090388Y-77230043D01*
X147092637Y-77257175D01*
X147147902Y-77475412D01*
X147147903Y-77475413D01*
X147147904Y-77475416D01*
X147224309Y-77649604D01*
X147238341Y-77681593D01*
X147361475Y-77870065D01*
X147361479Y-77870070D01*
X147513962Y-78035708D01*
X147562561Y-78073534D01*
X147691624Y-78173989D01*
X147725405Y-78192270D01*
X147775796Y-78242282D01*
X147791149Y-78311599D01*
X147766589Y-78378212D01*
X147725409Y-78413896D01*
X147691904Y-78432028D01*
X147691898Y-78432032D01*
X147514297Y-78570265D01*
X147361874Y-78735841D01*
X147238780Y-78924251D01*
X147148379Y-79130343D01*
X147148376Y-79130350D01*
X147100655Y-79318799D01*
X147100656Y-79318800D01*
X148006497Y-79318800D01*
X147971275Y-79379807D01*
X147937200Y-79506974D01*
X147937200Y-79638626D01*
X147971275Y-79765793D01*
X148006497Y-79826800D01*
X147100655Y-79826800D01*
X147148376Y-80015249D01*
X147148379Y-80015256D01*
X147238780Y-80221348D01*
X147361874Y-80409758D01*
X147514297Y-80575334D01*
X147691898Y-80713567D01*
X147691899Y-80713568D01*
X147889828Y-80820682D01*
X147889830Y-80820683D01*
X148102683Y-80893755D01*
X148102692Y-80893757D01*
X148183200Y-80907191D01*
X148183200Y-80003502D01*
X148244207Y-80038725D01*
X148371374Y-80072800D01*
X148503026Y-80072800D01*
X148630193Y-80038725D01*
X148691200Y-80003502D01*
X148691200Y-80907190D01*
X148771707Y-80893757D01*
X148771716Y-80893755D01*
X148984569Y-80820683D01*
X148984571Y-80820682D01*
X149182500Y-80713568D01*
X149182501Y-80713567D01*
X149360102Y-80575334D01*
X149512525Y-80409758D01*
X149635619Y-80221348D01*
X149726020Y-80015256D01*
X149726023Y-80015249D01*
X149773744Y-79826800D01*
X148867903Y-79826800D01*
X148903125Y-79765793D01*
X148937200Y-79638626D01*
X148937200Y-79506974D01*
X148903125Y-79379807D01*
X148867903Y-79318800D01*
X149773744Y-79318800D01*
X149773744Y-79318799D01*
X149726023Y-79130350D01*
X149726020Y-79130343D01*
X149635619Y-78924251D01*
X149512525Y-78735841D01*
X149360102Y-78570265D01*
X149182501Y-78432032D01*
X149182500Y-78432031D01*
X149148991Y-78413897D01*
X149098601Y-78363883D01*
X149083250Y-78294566D01*
X149107812Y-78227953D01*
X149148990Y-78192272D01*
X149182776Y-78173989D01*
X149360440Y-78035706D01*
X149512922Y-77870068D01*
X149636060Y-77681591D01*
X149726496Y-77475416D01*
X149781764Y-77257168D01*
X149800356Y-77032800D01*
X149781764Y-76808432D01*
X149726496Y-76590184D01*
X149636060Y-76384009D01*
X149567945Y-76279751D01*
X149512924Y-76195534D01*
X149512920Y-76195529D01*
X149396770Y-76069359D01*
X149360440Y-76029894D01*
X149360439Y-76029893D01*
X149360437Y-76029891D01*
X149278582Y-75966181D01*
X149182776Y-75891611D01*
X149149519Y-75873613D01*
X149099129Y-75823602D01*
X149083776Y-75754285D01*
X149108336Y-75687672D01*
X149149520Y-75651986D01*
X149182776Y-75633989D01*
X149360440Y-75495706D01*
X149512922Y-75330068D01*
X149636060Y-75141591D01*
X149726496Y-74935416D01*
X149781764Y-74717168D01*
X149800356Y-74492800D01*
X149781764Y-74268432D01*
X149726496Y-74050184D01*
X149636060Y-73844009D01*
X149621575Y-73821838D01*
X149512924Y-73655534D01*
X149512920Y-73655529D01*
X149360437Y-73489891D01*
X149247877Y-73402282D01*
X149182776Y-73351611D01*
X149149519Y-73333613D01*
X149099129Y-73283602D01*
X149083776Y-73214285D01*
X149108336Y-73147672D01*
X149149520Y-73111986D01*
X149182776Y-73093989D01*
X149360440Y-72955706D01*
X149512922Y-72790068D01*
X149636060Y-72601591D01*
X149726496Y-72395416D01*
X149781764Y-72177168D01*
X149800356Y-71952800D01*
X149781764Y-71728432D01*
X149730782Y-71527110D01*
X149726497Y-71510187D01*
X149726496Y-71510186D01*
X149726496Y-71510184D01*
X149636060Y-71304009D01*
X149594698Y-71240699D01*
X149512924Y-71115534D01*
X149512920Y-71115529D01*
X149360437Y-70949891D01*
X149278582Y-70886181D01*
X149182776Y-70811611D01*
X149177378Y-70808690D01*
X149149520Y-70793614D01*
X149099129Y-70743602D01*
X149083776Y-70674285D01*
X149108336Y-70607672D01*
X149149520Y-70571986D01*
X149182776Y-70553989D01*
X149360440Y-70415706D01*
X149512922Y-70250068D01*
X149636060Y-70061591D01*
X149726496Y-69855416D01*
X149781764Y-69637168D01*
X149800356Y-69412800D01*
X149781764Y-69188432D01*
X149780433Y-69183175D01*
X149726497Y-68970187D01*
X149726496Y-68970186D01*
X149726496Y-68970184D01*
X149636060Y-68764009D01*
X149608410Y-68721687D01*
X149512924Y-68575534D01*
X149512920Y-68575529D01*
X149360437Y-68409891D01*
X149278582Y-68346181D01*
X149182776Y-68271611D01*
X149149519Y-68253613D01*
X149099129Y-68203602D01*
X149083776Y-68134285D01*
X149108336Y-68067672D01*
X149149520Y-68031986D01*
X149182776Y-68013989D01*
X149360440Y-67875706D01*
X149512922Y-67710068D01*
X149636060Y-67521591D01*
X149726496Y-67315416D01*
X149781764Y-67097168D01*
X149800356Y-66872800D01*
X149781764Y-66648432D01*
X149726496Y-66430184D01*
X149636060Y-66224009D01*
X149629340Y-66213724D01*
X149512924Y-66035534D01*
X149512919Y-66035529D01*
X149369724Y-65879979D01*
X149338303Y-65816314D01*
X149346290Y-65745768D01*
X149391148Y-65690739D01*
X149418383Y-65676589D01*
X149533404Y-65633689D01*
X149650461Y-65546061D01*
X149738089Y-65429004D01*
X149789189Y-65292001D01*
X149789761Y-65286687D01*
X149795699Y-65231449D01*
X149795700Y-65231432D01*
X149795700Y-63434167D01*
X149795699Y-63434150D01*
X149789190Y-63373603D01*
X149789188Y-63373595D01*
X149738089Y-63236597D01*
X149738087Y-63236592D01*
X149650461Y-63119538D01*
X149533407Y-63031912D01*
X149533402Y-63031910D01*
X149396404Y-62980811D01*
X149396396Y-62980809D01*
X149335849Y-62974300D01*
X149335838Y-62974300D01*
X147538562Y-62974300D01*
X147538550Y-62974300D01*
X147478003Y-62980809D01*
X147477995Y-62980811D01*
X147340997Y-63031910D01*
X147340992Y-63031912D01*
X147223938Y-63119538D01*
X147136312Y-63236592D01*
X147136310Y-63236597D01*
X147085211Y-63373595D01*
X147085209Y-63373603D01*
X147078700Y-63434150D01*
X147078700Y-65231449D01*
X147085209Y-65291996D01*
X147085211Y-65292004D01*
X147136310Y-65429002D01*
X147136312Y-65429007D01*
X147223938Y-65546061D01*
X147340991Y-65633686D01*
X147340992Y-65633686D01*
X147340996Y-65633689D01*
X147456010Y-65676587D01*
X147512842Y-65719132D01*
X147537653Y-65785652D01*
X147522562Y-65855026D01*
X147504675Y-65879979D01*
X147361480Y-66035529D01*
X147361475Y-66035534D01*
X147238341Y-66224006D01*
X147147903Y-66430186D01*
X147147902Y-66430187D01*
X147092637Y-66648424D01*
X147092636Y-66648430D01*
X147092636Y-66648432D01*
X147074044Y-66872800D01*
X141984500Y-66872800D01*
X141984500Y-65501115D01*
X142004502Y-65432994D01*
X142058158Y-65386501D01*
X142128432Y-65376397D01*
X142161750Y-65386009D01*
X142179199Y-65393778D01*
X142179200Y-65393778D01*
X142179202Y-65393779D01*
X142366003Y-65433485D01*
X142556977Y-65433485D01*
X142743778Y-65393779D01*
X142918242Y-65316103D01*
X143072743Y-65203851D01*
X143072745Y-65203849D01*
X143200524Y-65061936D01*
X143200525Y-65061934D01*
X143200530Y-65061929D01*
X143296017Y-64896541D01*
X143355032Y-64714913D01*
X143374994Y-64524985D01*
X143355032Y-64335057D01*
X143347800Y-64312800D01*
X144704696Y-64312800D01*
X144724657Y-64502727D01*
X144754726Y-64595270D01*
X144783673Y-64684356D01*
X144783676Y-64684361D01*
X144879158Y-64849741D01*
X144879165Y-64849751D01*
X145006944Y-64991664D01*
X145006947Y-64991666D01*
X145161448Y-65103918D01*
X145335912Y-65181594D01*
X145522713Y-65221300D01*
X145713687Y-65221300D01*
X145900488Y-65181594D01*
X146074952Y-65103918D01*
X146229453Y-64991666D01*
X146229455Y-64991664D01*
X146357234Y-64849751D01*
X146357235Y-64849749D01*
X146357240Y-64849744D01*
X146452727Y-64684356D01*
X146511742Y-64502728D01*
X146531704Y-64312800D01*
X146511742Y-64122872D01*
X146452727Y-63941244D01*
X146357240Y-63775856D01*
X146357238Y-63775854D01*
X146357234Y-63775848D01*
X146229455Y-63633935D01*
X146074952Y-63521682D01*
X145900488Y-63444006D01*
X145713687Y-63404300D01*
X145522713Y-63404300D01*
X145335911Y-63444006D01*
X145161447Y-63521682D01*
X145006944Y-63633935D01*
X144879165Y-63775848D01*
X144879158Y-63775858D01*
X144783676Y-63941238D01*
X144783673Y-63941245D01*
X144724657Y-64122872D01*
X144704696Y-64312800D01*
X143347800Y-64312800D01*
X143296017Y-64153429D01*
X143200530Y-63988041D01*
X143200528Y-63988039D01*
X143200524Y-63988033D01*
X143072745Y-63846120D01*
X142918242Y-63733867D01*
X142743778Y-63656191D01*
X142556977Y-63616485D01*
X142366003Y-63616485D01*
X142179199Y-63656191D01*
X142021752Y-63726291D01*
X141951385Y-63735725D01*
X141896443Y-63713120D01*
X141807752Y-63648682D01*
X141633288Y-63571006D01*
X141446487Y-63531300D01*
X141255513Y-63531300D01*
X141068711Y-63571006D01*
X140894247Y-63648682D01*
X140739744Y-63760935D01*
X140611965Y-63902848D01*
X140611958Y-63902858D01*
X140516476Y-64068238D01*
X140516473Y-64068245D01*
X140457457Y-64249872D01*
X140437496Y-64439800D01*
X140457457Y-64629727D01*
X140487526Y-64722270D01*
X140516473Y-64811356D01*
X140516476Y-64811361D01*
X140565657Y-64896546D01*
X140611960Y-64976744D01*
X140685137Y-65058015D01*
X140715853Y-65122020D01*
X140717500Y-65142324D01*
X140717500Y-70052710D01*
X140697498Y-70120831D01*
X140680595Y-70141805D01*
X128851153Y-81971246D01*
X128788841Y-82005272D01*
X128718026Y-82000207D01*
X128710820Y-81997262D01*
X128628488Y-81960606D01*
X128441687Y-81920900D01*
X128250713Y-81920900D01*
X128063911Y-81960606D01*
X127889447Y-82038282D01*
X127734944Y-82150535D01*
X127607165Y-82292448D01*
X127607158Y-82292458D01*
X127511676Y-82457838D01*
X127511673Y-82457845D01*
X127452657Y-82639472D01*
X127432696Y-82829400D01*
X117749566Y-82829400D01*
X117753237Y-79502000D01*
X118161696Y-79502000D01*
X118181657Y-79691927D01*
X118187178Y-79708917D01*
X118240673Y-79873556D01*
X118240676Y-79873561D01*
X118336158Y-80038941D01*
X118336165Y-80038951D01*
X118463944Y-80180864D01*
X118463947Y-80180866D01*
X118618448Y-80293118D01*
X118792912Y-80370794D01*
X118979713Y-80410500D01*
X119170687Y-80410500D01*
X119357488Y-80370794D01*
X119531952Y-80293118D01*
X119686453Y-80180866D01*
X119814240Y-80038944D01*
X119909727Y-79873556D01*
X119968742Y-79691928D01*
X119988704Y-79502000D01*
X119968742Y-79312072D01*
X119968742Y-79312070D01*
X119954925Y-79269548D01*
X119952896Y-79198581D01*
X119985480Y-79144541D01*
X119944595Y-79139851D01*
X119889633Y-79094909D01*
X119884523Y-79086789D01*
X119814241Y-78965058D01*
X119814234Y-78965048D01*
X119686455Y-78823135D01*
X119589097Y-78752400D01*
X120079696Y-78752400D01*
X120099657Y-78942327D01*
X120113475Y-78984852D01*
X120115503Y-79055820D01*
X120082917Y-79109857D01*
X120123803Y-79114548D01*
X120178765Y-79159488D01*
X120183876Y-79167609D01*
X120254160Y-79289344D01*
X120254162Y-79289347D01*
X120254165Y-79289351D01*
X120381944Y-79431264D01*
X120414271Y-79454751D01*
X120536448Y-79543518D01*
X120710912Y-79621194D01*
X120897713Y-79660900D01*
X121088687Y-79660900D01*
X121275488Y-79621194D01*
X121315005Y-79603600D01*
X124613296Y-79603600D01*
X124633257Y-79793527D01*
X124661292Y-79879807D01*
X124692273Y-79975156D01*
X124692276Y-79975161D01*
X124787758Y-80140541D01*
X124787765Y-80140551D01*
X124915544Y-80282464D01*
X124915547Y-80282466D01*
X125070048Y-80394718D01*
X125244512Y-80472394D01*
X125431313Y-80512100D01*
X125622287Y-80512100D01*
X125809088Y-80472394D01*
X125983552Y-80394718D01*
X126138053Y-80282466D01*
X126265840Y-80140544D01*
X126361327Y-79975156D01*
X126420342Y-79793528D01*
X126440304Y-79603600D01*
X126420342Y-79413672D01*
X126361327Y-79232044D01*
X126265840Y-79066656D01*
X126265838Y-79066654D01*
X126265834Y-79066648D01*
X126138055Y-78924735D01*
X125983552Y-78812482D01*
X125809088Y-78734806D01*
X125622287Y-78695100D01*
X125431313Y-78695100D01*
X125244511Y-78734806D01*
X125070047Y-78812482D01*
X124915544Y-78924735D01*
X124787765Y-79066648D01*
X124787758Y-79066658D01*
X124692276Y-79232038D01*
X124692273Y-79232045D01*
X124633257Y-79413672D01*
X124613296Y-79603600D01*
X121315005Y-79603600D01*
X121449952Y-79543518D01*
X121604453Y-79431266D01*
X121711776Y-79312072D01*
X121732234Y-79289351D01*
X121732235Y-79289349D01*
X121732240Y-79289344D01*
X121827727Y-79123956D01*
X121886742Y-78942328D01*
X121906704Y-78752400D01*
X121886742Y-78562472D01*
X121827727Y-78380844D01*
X121732240Y-78215456D01*
X121732238Y-78215454D01*
X121732234Y-78215448D01*
X121604455Y-78073535D01*
X121449952Y-77961282D01*
X121316353Y-77901800D01*
X122098696Y-77901800D01*
X122118657Y-78091727D01*
X122130015Y-78126682D01*
X122177673Y-78273356D01*
X122177676Y-78273361D01*
X122273158Y-78438741D01*
X122273165Y-78438751D01*
X122400944Y-78580664D01*
X122400947Y-78580666D01*
X122555448Y-78692918D01*
X122729912Y-78770594D01*
X122916713Y-78810300D01*
X123107687Y-78810300D01*
X123294488Y-78770594D01*
X123468952Y-78692918D01*
X123623453Y-78580666D01*
X123751240Y-78438744D01*
X123846727Y-78273356D01*
X123905742Y-78091728D01*
X123925704Y-77901800D01*
X123905742Y-77711872D01*
X123846727Y-77530244D01*
X123751240Y-77364856D01*
X123751238Y-77364854D01*
X123751234Y-77364848D01*
X123623455Y-77222935D01*
X123468952Y-77110682D01*
X123294488Y-77033006D01*
X123107687Y-76993300D01*
X122916713Y-76993300D01*
X122729911Y-77033006D01*
X122555447Y-77110682D01*
X122400944Y-77222935D01*
X122273165Y-77364848D01*
X122273158Y-77364858D01*
X122177676Y-77530238D01*
X122177673Y-77530245D01*
X122118657Y-77711872D01*
X122098696Y-77901800D01*
X121316353Y-77901800D01*
X121275488Y-77883606D01*
X121088687Y-77843900D01*
X120897713Y-77843900D01*
X120710911Y-77883606D01*
X120536447Y-77961282D01*
X120381944Y-78073535D01*
X120254165Y-78215448D01*
X120254158Y-78215458D01*
X120158676Y-78380838D01*
X120158673Y-78380844D01*
X120155276Y-78391300D01*
X120099657Y-78562472D01*
X120079696Y-78752400D01*
X119589097Y-78752400D01*
X119531952Y-78710882D01*
X119357488Y-78633206D01*
X119170687Y-78593500D01*
X118979713Y-78593500D01*
X118792911Y-78633206D01*
X118618447Y-78710882D01*
X118463944Y-78823135D01*
X118336165Y-78965048D01*
X118336158Y-78965058D01*
X118240731Y-79130343D01*
X118240673Y-79130444D01*
X118236093Y-79144541D01*
X118181657Y-79312072D01*
X118161696Y-79502000D01*
X117753237Y-79502000D01*
X117756153Y-76858487D01*
X131041575Y-76858487D01*
X131061536Y-77048414D01*
X131081769Y-77110682D01*
X131120552Y-77230043D01*
X131120555Y-77230048D01*
X131216037Y-77395428D01*
X131216044Y-77395438D01*
X131343823Y-77537351D01*
X131343826Y-77537353D01*
X131498327Y-77649605D01*
X131672791Y-77727281D01*
X131859592Y-77766987D01*
X132050566Y-77766987D01*
X132237367Y-77727281D01*
X132411831Y-77649605D01*
X132566332Y-77537353D01*
X132572733Y-77530244D01*
X132694113Y-77395438D01*
X132694114Y-77395436D01*
X132694119Y-77395431D01*
X132789606Y-77230043D01*
X132848621Y-77048415D01*
X132868583Y-76858487D01*
X132848621Y-76668559D01*
X132789606Y-76486931D01*
X132694119Y-76321543D01*
X132694117Y-76321541D01*
X132694113Y-76321535D01*
X132566334Y-76179622D01*
X132411831Y-76067369D01*
X132237367Y-75989693D01*
X132050566Y-75949987D01*
X131859592Y-75949987D01*
X131672790Y-75989693D01*
X131498326Y-76067369D01*
X131343823Y-76179622D01*
X131216044Y-76321535D01*
X131216037Y-76321545D01*
X131120555Y-76486925D01*
X131120552Y-76486932D01*
X131061536Y-76668559D01*
X131041575Y-76858487D01*
X117756153Y-76858487D01*
X117757384Y-75742800D01*
X127661296Y-75742800D01*
X127681257Y-75932727D01*
X127699767Y-75989693D01*
X127740273Y-76114356D01*
X127740276Y-76114361D01*
X127835758Y-76279741D01*
X127835765Y-76279751D01*
X127963544Y-76421664D01*
X127963547Y-76421666D01*
X128118048Y-76533918D01*
X128292512Y-76611594D01*
X128479313Y-76651300D01*
X128670287Y-76651300D01*
X128857088Y-76611594D01*
X129031552Y-76533918D01*
X129186053Y-76421666D01*
X129186055Y-76421664D01*
X129313834Y-76279751D01*
X129313835Y-76279749D01*
X129313840Y-76279744D01*
X129409327Y-76114356D01*
X129468342Y-75932728D01*
X129488304Y-75742800D01*
X129468342Y-75552872D01*
X129409327Y-75371244D01*
X129313840Y-75205856D01*
X129285838Y-75174757D01*
X129255122Y-75110750D01*
X129263886Y-75040296D01*
X129306328Y-74989387D01*
X129305610Y-74988399D01*
X129310952Y-74984518D01*
X129465453Y-74872266D01*
X129507607Y-74825449D01*
X129593234Y-74730351D01*
X129593235Y-74730349D01*
X129593240Y-74730344D01*
X129688727Y-74564956D01*
X129747742Y-74383328D01*
X129767704Y-74193400D01*
X129747742Y-74003472D01*
X129688727Y-73821844D01*
X129593240Y-73656456D01*
X129593238Y-73656454D01*
X129593234Y-73656448D01*
X129465455Y-73514535D01*
X129310952Y-73402282D01*
X129136488Y-73324606D01*
X128949687Y-73284900D01*
X128758713Y-73284900D01*
X128571911Y-73324606D01*
X128397447Y-73402282D01*
X128242944Y-73514535D01*
X128115165Y-73656448D01*
X128115158Y-73656458D01*
X128019676Y-73821838D01*
X128019673Y-73821845D01*
X127960657Y-74003472D01*
X127940696Y-74193400D01*
X127960657Y-74383327D01*
X127990726Y-74475870D01*
X128019673Y-74564956D01*
X128019676Y-74564961D01*
X128115158Y-74730341D01*
X128115165Y-74730351D01*
X128143160Y-74761442D01*
X128173878Y-74825449D01*
X128165113Y-74895903D01*
X128122670Y-74946810D01*
X128123390Y-74947801D01*
X127963544Y-75063935D01*
X127835765Y-75205848D01*
X127835758Y-75205858D01*
X127740276Y-75371238D01*
X127740273Y-75371245D01*
X127681257Y-75552872D01*
X127661296Y-75742800D01*
X117757384Y-75742800D01*
X117761195Y-72288400D01*
X130175896Y-72288400D01*
X130195857Y-72478327D01*
X130225926Y-72570870D01*
X130254873Y-72659956D01*
X130254876Y-72659961D01*
X130350358Y-72825341D01*
X130350365Y-72825351D01*
X130478144Y-72967264D01*
X130478147Y-72967266D01*
X130632648Y-73079518D01*
X130807112Y-73157194D01*
X130993913Y-73196900D01*
X131184887Y-73196900D01*
X131371688Y-73157194D01*
X131546152Y-73079518D01*
X131700653Y-72967266D01*
X131828440Y-72825344D01*
X131923927Y-72659956D01*
X131925522Y-72655046D01*
X135188062Y-72655046D01*
X135200699Y-72662987D01*
X135200708Y-72662991D01*
X135372559Y-72723125D01*
X135372570Y-72723127D01*
X135553500Y-72743512D01*
X135734429Y-72723127D01*
X135734437Y-72723126D01*
X135906291Y-72662990D01*
X135906301Y-72662985D01*
X135918934Y-72655046D01*
X136713062Y-72655046D01*
X136725699Y-72662987D01*
X136725708Y-72662991D01*
X136897559Y-72723125D01*
X136897570Y-72723127D01*
X137078500Y-72743512D01*
X137259429Y-72723127D01*
X137259437Y-72723126D01*
X137431291Y-72662990D01*
X137431301Y-72662985D01*
X137443936Y-72655045D01*
X137078501Y-72289610D01*
X137078500Y-72289610D01*
X136713062Y-72655046D01*
X135918934Y-72655046D01*
X135918936Y-72655045D01*
X135553501Y-72289610D01*
X135553500Y-72289610D01*
X135188062Y-72655046D01*
X131925522Y-72655046D01*
X131982942Y-72478328D01*
X132002904Y-72288400D01*
X131982942Y-72098472D01*
X131923927Y-71916844D01*
X131909899Y-71892546D01*
X134425562Y-71892546D01*
X134438199Y-71900487D01*
X134438208Y-71900491D01*
X134610060Y-71960625D01*
X134610072Y-71960628D01*
X134645659Y-71964637D01*
X134711112Y-71992139D01*
X134751307Y-72050662D01*
X134756762Y-72075738D01*
X134760772Y-72111329D01*
X134760773Y-72111337D01*
X134820911Y-72283199D01*
X134828852Y-72295835D01*
X134828853Y-72295836D01*
X135194290Y-71930399D01*
X135174400Y-71910509D01*
X135453500Y-71910509D01*
X135453500Y-71950291D01*
X135468724Y-71987045D01*
X135496855Y-72015176D01*
X135533609Y-72030400D01*
X135573391Y-72030400D01*
X135610145Y-72015176D01*
X135638276Y-71987045D01*
X135653500Y-71950291D01*
X135653500Y-71930399D01*
X135912710Y-71930399D01*
X135912710Y-71930401D01*
X136278144Y-72295835D01*
X136301896Y-72293160D01*
X136330107Y-72293160D01*
X136353853Y-72295835D01*
X136719290Y-71930399D01*
X136699400Y-71910509D01*
X136978500Y-71910509D01*
X136978500Y-71950291D01*
X136993724Y-71987045D01*
X137021855Y-72015176D01*
X137058609Y-72030400D01*
X137098391Y-72030400D01*
X137135145Y-72015176D01*
X137163276Y-71987045D01*
X137178500Y-71950291D01*
X137178500Y-71930399D01*
X137437710Y-71930399D01*
X137437710Y-71930401D01*
X137803145Y-72295836D01*
X137811085Y-72283201D01*
X137811090Y-72283191D01*
X137871226Y-72111336D01*
X137871228Y-72111327D01*
X137875237Y-72075740D01*
X137902739Y-72010287D01*
X137961262Y-71970092D01*
X137986340Y-71964637D01*
X138021927Y-71960628D01*
X138021936Y-71960626D01*
X138193791Y-71900490D01*
X138193801Y-71900485D01*
X138206436Y-71892545D01*
X137841001Y-71527110D01*
X137840999Y-71527110D01*
X137437710Y-71930399D01*
X137178500Y-71930399D01*
X137178500Y-71910509D01*
X137163276Y-71873755D01*
X137135145Y-71845624D01*
X137098391Y-71830400D01*
X137058609Y-71830400D01*
X137021855Y-71845624D01*
X136993724Y-71873755D01*
X136978500Y-71910509D01*
X136699400Y-71910509D01*
X136316001Y-71527110D01*
X136315999Y-71527110D01*
X135912710Y-71930399D01*
X135653500Y-71930399D01*
X135653500Y-71910509D01*
X135638276Y-71873755D01*
X135610145Y-71845624D01*
X135573391Y-71830400D01*
X135533609Y-71830400D01*
X135496855Y-71845624D01*
X135468724Y-71873755D01*
X135453500Y-71910509D01*
X135174400Y-71910509D01*
X134791001Y-71527110D01*
X134791000Y-71527110D01*
X134425562Y-71892546D01*
X131909899Y-71892546D01*
X131828440Y-71751456D01*
X131828438Y-71751454D01*
X131828434Y-71751448D01*
X131700655Y-71609535D01*
X131546152Y-71497282D01*
X131371688Y-71419606D01*
X131184887Y-71379900D01*
X130993913Y-71379900D01*
X130807111Y-71419606D01*
X130632647Y-71497282D01*
X130478144Y-71609535D01*
X130350365Y-71751448D01*
X130350358Y-71751458D01*
X130254876Y-71916838D01*
X130254873Y-71916845D01*
X130195857Y-72098472D01*
X130175896Y-72288400D01*
X117761195Y-72288400D01*
X117768082Y-66044959D01*
X120675100Y-66044959D01*
X120675100Y-66219441D01*
X120702395Y-66391774D01*
X120756312Y-66557716D01*
X120835526Y-66713181D01*
X120938083Y-66854339D01*
X120938085Y-66854341D01*
X120938087Y-66854344D01*
X121061454Y-66977711D01*
X121061457Y-66977713D01*
X121061461Y-66977717D01*
X121133786Y-67030264D01*
X121177139Y-67086487D01*
X121183214Y-67157223D01*
X121150082Y-67220015D01*
X121133786Y-67234136D01*
X121061454Y-67286688D01*
X120938087Y-67410055D01*
X120938085Y-67410058D01*
X120835528Y-67551215D01*
X120756313Y-67706682D01*
X120756310Y-67706688D01*
X120743064Y-67747457D01*
X120702395Y-67872626D01*
X120675100Y-68044959D01*
X120675100Y-68219441D01*
X120702395Y-68391774D01*
X120702396Y-68391777D01*
X120746526Y-68527599D01*
X120756312Y-68557716D01*
X120835526Y-68713181D01*
X120938083Y-68854339D01*
X120938085Y-68854341D01*
X120938087Y-68854344D01*
X121037127Y-68953384D01*
X121071153Y-69015696D01*
X121066088Y-69086511D01*
X121023541Y-69143347D01*
X121014179Y-69149720D01*
X120959947Y-69183170D01*
X120959941Y-69183175D01*
X120834575Y-69308541D01*
X120834570Y-69308547D01*
X120741485Y-69459462D01*
X120685713Y-69627772D01*
X120685712Y-69627779D01*
X120675100Y-69731646D01*
X120675100Y-70532744D01*
X120685712Y-70636625D01*
X120741485Y-70804938D01*
X120834570Y-70955852D01*
X120834575Y-70955858D01*
X120959941Y-71081224D01*
X120959947Y-71081229D01*
X120959948Y-71081230D01*
X121110862Y-71174315D01*
X121279174Y-71230087D01*
X121383055Y-71240700D01*
X122734144Y-71240699D01*
X122838026Y-71230087D01*
X123006338Y-71174315D01*
X123016738Y-71167900D01*
X133977887Y-71167900D01*
X133998272Y-71348829D01*
X133998273Y-71348837D01*
X134058411Y-71520699D01*
X134066352Y-71533335D01*
X134066353Y-71533336D01*
X134431790Y-71167899D01*
X134411900Y-71148009D01*
X134691000Y-71148009D01*
X134691000Y-71187791D01*
X134706224Y-71224545D01*
X134734355Y-71252676D01*
X134771109Y-71267900D01*
X134810891Y-71267900D01*
X134847645Y-71252676D01*
X134875776Y-71224545D01*
X134891000Y-71187791D01*
X134891000Y-71167899D01*
X135150210Y-71167899D01*
X135150210Y-71167901D01*
X135553499Y-71571190D01*
X135553501Y-71571190D01*
X135956790Y-71167901D01*
X135956790Y-71167899D01*
X135936900Y-71148009D01*
X136216000Y-71148009D01*
X136216000Y-71187791D01*
X136231224Y-71224545D01*
X136259355Y-71252676D01*
X136296109Y-71267900D01*
X136335891Y-71267900D01*
X136372645Y-71252676D01*
X136400776Y-71224545D01*
X136416000Y-71187791D01*
X136416000Y-71167899D01*
X136675210Y-71167899D01*
X136675210Y-71167901D01*
X137078499Y-71571190D01*
X137078501Y-71571190D01*
X137481790Y-71167901D01*
X137481790Y-71167899D01*
X137461900Y-71148009D01*
X137741000Y-71148009D01*
X137741000Y-71187791D01*
X137756224Y-71224545D01*
X137784355Y-71252676D01*
X137821109Y-71267900D01*
X137860891Y-71267900D01*
X137897645Y-71252676D01*
X137925776Y-71224545D01*
X137941000Y-71187791D01*
X137941000Y-71167899D01*
X138200210Y-71167899D01*
X138200210Y-71167901D01*
X138565645Y-71533336D01*
X138573585Y-71520701D01*
X138573590Y-71520691D01*
X138633726Y-71348837D01*
X138633727Y-71348829D01*
X138654112Y-71167900D01*
X138633727Y-70986970D01*
X138633725Y-70986959D01*
X138573591Y-70815108D01*
X138573587Y-70815099D01*
X138565646Y-70802463D01*
X138565646Y-70802462D01*
X138200210Y-71167899D01*
X137941000Y-71167899D01*
X137941000Y-71148009D01*
X137925776Y-71111255D01*
X137897645Y-71083124D01*
X137860891Y-71067900D01*
X137821109Y-71067900D01*
X137784355Y-71083124D01*
X137756224Y-71111255D01*
X137741000Y-71148009D01*
X137461900Y-71148009D01*
X137078501Y-70764610D01*
X137078499Y-70764610D01*
X136675210Y-71167899D01*
X136416000Y-71167899D01*
X136416000Y-71148009D01*
X136400776Y-71111255D01*
X136372645Y-71083124D01*
X136335891Y-71067900D01*
X136296109Y-71067900D01*
X136259355Y-71083124D01*
X136231224Y-71111255D01*
X136216000Y-71148009D01*
X135936900Y-71148009D01*
X135553501Y-70764610D01*
X135553499Y-70764610D01*
X135150210Y-71167899D01*
X134891000Y-71167899D01*
X134891000Y-71148009D01*
X134875776Y-71111255D01*
X134847645Y-71083124D01*
X134810891Y-71067900D01*
X134771109Y-71067900D01*
X134734355Y-71083124D01*
X134706224Y-71111255D01*
X134691000Y-71148009D01*
X134411900Y-71148009D01*
X134066354Y-70802463D01*
X134066352Y-70802463D01*
X134058412Y-70815100D01*
X134058411Y-70815101D01*
X133998273Y-70986962D01*
X133998272Y-70986970D01*
X133977887Y-71167900D01*
X123016738Y-71167900D01*
X123157252Y-71081230D01*
X123282630Y-70955852D01*
X123375715Y-70804938D01*
X123431487Y-70636626D01*
X123442100Y-70532745D01*
X123442100Y-70367546D01*
X134425562Y-70367546D01*
X134428238Y-70391300D01*
X134428238Y-70419511D01*
X134425562Y-70443253D01*
X134790999Y-70808690D01*
X134791001Y-70808690D01*
X135194290Y-70405401D01*
X135194290Y-70405399D01*
X135174400Y-70385509D01*
X135453500Y-70385509D01*
X135453500Y-70425291D01*
X135468724Y-70462045D01*
X135496855Y-70490176D01*
X135533609Y-70505400D01*
X135573391Y-70505400D01*
X135610145Y-70490176D01*
X135638276Y-70462045D01*
X135653500Y-70425291D01*
X135653500Y-70405399D01*
X135912710Y-70405399D01*
X135912710Y-70405401D01*
X136315999Y-70808690D01*
X136316001Y-70808690D01*
X136719290Y-70405401D01*
X136719290Y-70405399D01*
X136699400Y-70385509D01*
X136978500Y-70385509D01*
X136978500Y-70425291D01*
X136993724Y-70462045D01*
X137021855Y-70490176D01*
X137058609Y-70505400D01*
X137098391Y-70505400D01*
X137135145Y-70490176D01*
X137163276Y-70462045D01*
X137178500Y-70425291D01*
X137178500Y-70405399D01*
X137437710Y-70405399D01*
X137437710Y-70405401D01*
X137840999Y-70808690D01*
X137841000Y-70808690D01*
X138206435Y-70443253D01*
X138203760Y-70419507D01*
X138203760Y-70391296D01*
X138206435Y-70367544D01*
X137841001Y-70002110D01*
X137840999Y-70002110D01*
X137437710Y-70405399D01*
X137178500Y-70405399D01*
X137178500Y-70385509D01*
X137163276Y-70348755D01*
X137135145Y-70320624D01*
X137098391Y-70305400D01*
X137058609Y-70305400D01*
X137021855Y-70320624D01*
X136993724Y-70348755D01*
X136978500Y-70385509D01*
X136699400Y-70385509D01*
X136316001Y-70002110D01*
X136315999Y-70002110D01*
X135912710Y-70405399D01*
X135653500Y-70405399D01*
X135653500Y-70385509D01*
X135638276Y-70348755D01*
X135610145Y-70320624D01*
X135573391Y-70305400D01*
X135533609Y-70305400D01*
X135496855Y-70320624D01*
X135468724Y-70348755D01*
X135453500Y-70385509D01*
X135174400Y-70385509D01*
X134791001Y-70002110D01*
X134791000Y-70002110D01*
X134425562Y-70367546D01*
X123442100Y-70367546D01*
X123442099Y-69731656D01*
X123441692Y-69727676D01*
X123433032Y-69642900D01*
X133977887Y-69642900D01*
X133998272Y-69823829D01*
X133998273Y-69823837D01*
X134058411Y-69995699D01*
X134066352Y-70008335D01*
X134066353Y-70008336D01*
X134431790Y-69642899D01*
X134411900Y-69623009D01*
X134691000Y-69623009D01*
X134691000Y-69662791D01*
X134706224Y-69699545D01*
X134734355Y-69727676D01*
X134771109Y-69742900D01*
X134810891Y-69742900D01*
X134847645Y-69727676D01*
X134875776Y-69699545D01*
X134891000Y-69662791D01*
X134891000Y-69642899D01*
X135150210Y-69642899D01*
X135150210Y-69642901D01*
X135553499Y-70046190D01*
X135553501Y-70046190D01*
X135956790Y-69642901D01*
X135956790Y-69642899D01*
X135936900Y-69623009D01*
X136216000Y-69623009D01*
X136216000Y-69662791D01*
X136231224Y-69699545D01*
X136259355Y-69727676D01*
X136296109Y-69742900D01*
X136335891Y-69742900D01*
X136372645Y-69727676D01*
X136400776Y-69699545D01*
X136416000Y-69662791D01*
X136416000Y-69642899D01*
X136675210Y-69642899D01*
X136675210Y-69642901D01*
X137078499Y-70046190D01*
X137078501Y-70046190D01*
X137481790Y-69642901D01*
X137481790Y-69642899D01*
X137461900Y-69623009D01*
X137741000Y-69623009D01*
X137741000Y-69662791D01*
X137756224Y-69699545D01*
X137784355Y-69727676D01*
X137821109Y-69742900D01*
X137860891Y-69742900D01*
X137897645Y-69727676D01*
X137925776Y-69699545D01*
X137941000Y-69662791D01*
X137941000Y-69642899D01*
X138200210Y-69642899D01*
X138200210Y-69642901D01*
X138565645Y-70008336D01*
X138573585Y-69995701D01*
X138573590Y-69995691D01*
X138633726Y-69823837D01*
X138633727Y-69823829D01*
X138654112Y-69642900D01*
X138633727Y-69461970D01*
X138633725Y-69461959D01*
X138573591Y-69290108D01*
X138573587Y-69290099D01*
X138565646Y-69277463D01*
X138565646Y-69277462D01*
X138200210Y-69642899D01*
X137941000Y-69642899D01*
X137941000Y-69623009D01*
X137925776Y-69586255D01*
X137897645Y-69558124D01*
X137860891Y-69542900D01*
X137821109Y-69542900D01*
X137784355Y-69558124D01*
X137756224Y-69586255D01*
X137741000Y-69623009D01*
X137461900Y-69623009D01*
X137078501Y-69239610D01*
X137078499Y-69239610D01*
X136675210Y-69642899D01*
X136416000Y-69642899D01*
X136416000Y-69623009D01*
X136400776Y-69586255D01*
X136372645Y-69558124D01*
X136335891Y-69542900D01*
X136296109Y-69542900D01*
X136259355Y-69558124D01*
X136231224Y-69586255D01*
X136216000Y-69623009D01*
X135936900Y-69623009D01*
X135553501Y-69239610D01*
X135553499Y-69239610D01*
X135150210Y-69642899D01*
X134891000Y-69642899D01*
X134891000Y-69623009D01*
X134875776Y-69586255D01*
X134847645Y-69558124D01*
X134810891Y-69542900D01*
X134771109Y-69542900D01*
X134734355Y-69558124D01*
X134706224Y-69586255D01*
X134691000Y-69623009D01*
X134411900Y-69623009D01*
X134066354Y-69277463D01*
X134066352Y-69277463D01*
X134058412Y-69290100D01*
X134058411Y-69290101D01*
X133998273Y-69461962D01*
X133998272Y-69461970D01*
X133977887Y-69642900D01*
X123433032Y-69642900D01*
X123431487Y-69627774D01*
X123417729Y-69586255D01*
X123375715Y-69459462D01*
X123282630Y-69308548D01*
X123282629Y-69308547D01*
X123282624Y-69308541D01*
X123157258Y-69183175D01*
X123157252Y-69183170D01*
X123103018Y-69149718D01*
X123055542Y-69096934D01*
X123044139Y-69026860D01*
X123072431Y-68961744D01*
X123080061Y-68953394D01*
X123115203Y-68918252D01*
X134425563Y-68918252D01*
X134425563Y-68918254D01*
X134790999Y-69283690D01*
X134791001Y-69283690D01*
X135194290Y-68880401D01*
X135194290Y-68880399D01*
X135174400Y-68860509D01*
X135453500Y-68860509D01*
X135453500Y-68900291D01*
X135468724Y-68937045D01*
X135496855Y-68965176D01*
X135533609Y-68980400D01*
X135573391Y-68980400D01*
X135610145Y-68965176D01*
X135638276Y-68937045D01*
X135653500Y-68900291D01*
X135653500Y-68880399D01*
X135912710Y-68880399D01*
X135912710Y-68880401D01*
X136315999Y-69283690D01*
X136316001Y-69283690D01*
X136719290Y-68880401D01*
X136719290Y-68880399D01*
X136699400Y-68860509D01*
X136978500Y-68860509D01*
X136978500Y-68900291D01*
X136993724Y-68937045D01*
X137021855Y-68965176D01*
X137058609Y-68980400D01*
X137098391Y-68980400D01*
X137135145Y-68965176D01*
X137163276Y-68937045D01*
X137178500Y-68900291D01*
X137178500Y-68880399D01*
X137437710Y-68880399D01*
X137437710Y-68880401D01*
X137840999Y-69283690D01*
X137841000Y-69283690D01*
X138206436Y-68918253D01*
X138206435Y-68918252D01*
X138193798Y-68910311D01*
X138193799Y-68910311D01*
X138021937Y-68850173D01*
X138021929Y-68850172D01*
X137986338Y-68846162D01*
X137920885Y-68818659D01*
X137880692Y-68760135D01*
X137875237Y-68735059D01*
X137871228Y-68699472D01*
X137871224Y-68699456D01*
X137811091Y-68527608D01*
X137811087Y-68527599D01*
X137803146Y-68514963D01*
X137803146Y-68514962D01*
X137437710Y-68880399D01*
X137178500Y-68880399D01*
X137178500Y-68860509D01*
X137163276Y-68823755D01*
X137135145Y-68795624D01*
X137098391Y-68780400D01*
X137058609Y-68780400D01*
X137021855Y-68795624D01*
X136993724Y-68823755D01*
X136978500Y-68860509D01*
X136699400Y-68860509D01*
X136353853Y-68514962D01*
X136330111Y-68517638D01*
X136301900Y-68517638D01*
X136278146Y-68514962D01*
X135912710Y-68880399D01*
X135653500Y-68880399D01*
X135653500Y-68860509D01*
X135638276Y-68823755D01*
X135610145Y-68795624D01*
X135573391Y-68780400D01*
X135533609Y-68780400D01*
X135496855Y-68795624D01*
X135468724Y-68823755D01*
X135453500Y-68860509D01*
X135174400Y-68860509D01*
X134828854Y-68514963D01*
X134828852Y-68514963D01*
X134820912Y-68527600D01*
X134820911Y-68527601D01*
X134760776Y-68699456D01*
X134760771Y-68699473D01*
X134756761Y-68735064D01*
X134729257Y-68800517D01*
X134670732Y-68840708D01*
X134645664Y-68846161D01*
X134610073Y-68850171D01*
X134610059Y-68850175D01*
X134438201Y-68910311D01*
X134438200Y-68910312D01*
X134425563Y-68918252D01*
X123115203Y-68918252D01*
X123179117Y-68854339D01*
X123281674Y-68713181D01*
X123360888Y-68557716D01*
X123414805Y-68391774D01*
X123442100Y-68219441D01*
X123442100Y-68155752D01*
X135188063Y-68155752D01*
X135188063Y-68155754D01*
X135553499Y-68521190D01*
X135553500Y-68521190D01*
X135918936Y-68155753D01*
X135918935Y-68155752D01*
X136713063Y-68155752D01*
X136713063Y-68155754D01*
X137078499Y-68521190D01*
X137078500Y-68521190D01*
X137443936Y-68155753D01*
X137443935Y-68155752D01*
X137431298Y-68147811D01*
X137431299Y-68147811D01*
X137259437Y-68087673D01*
X137259429Y-68087672D01*
X137078500Y-68067287D01*
X136897570Y-68087672D01*
X136897562Y-68087673D01*
X136725701Y-68147811D01*
X136725700Y-68147812D01*
X136713063Y-68155752D01*
X135918935Y-68155752D01*
X135906298Y-68147811D01*
X135906299Y-68147811D01*
X135734437Y-68087673D01*
X135734429Y-68087672D01*
X135553500Y-68067287D01*
X135372570Y-68087672D01*
X135372562Y-68087673D01*
X135200701Y-68147811D01*
X135200700Y-68147812D01*
X135188063Y-68155752D01*
X123442100Y-68155752D01*
X123442100Y-68044959D01*
X123414805Y-67872626D01*
X123360888Y-67706684D01*
X123281674Y-67551219D01*
X123179117Y-67410061D01*
X123179114Y-67410058D01*
X123179112Y-67410055D01*
X123055744Y-67286687D01*
X123055741Y-67286685D01*
X123055739Y-67286683D01*
X122983413Y-67234135D01*
X122940060Y-67177914D01*
X122933985Y-67107178D01*
X122967116Y-67044386D01*
X122983414Y-67030264D01*
X123055739Y-66977717D01*
X123179117Y-66854339D01*
X123281674Y-66713181D01*
X123360888Y-66557716D01*
X123414805Y-66391774D01*
X123442100Y-66219441D01*
X123442100Y-66044959D01*
X123414805Y-65872626D01*
X123360888Y-65706684D01*
X123281674Y-65551219D01*
X123179117Y-65410061D01*
X123179114Y-65410058D01*
X123179112Y-65410055D01*
X123055741Y-65286684D01*
X122982988Y-65233826D01*
X122939634Y-65177603D01*
X122933559Y-65106867D01*
X122966691Y-65044075D01*
X122982989Y-65029953D01*
X123055418Y-64977330D01*
X123178730Y-64854018D01*
X123178732Y-64854015D01*
X123281243Y-64712921D01*
X123360422Y-64557525D01*
X123360425Y-64557519D01*
X123414314Y-64391665D01*
X123415180Y-64386200D01*
X122334930Y-64386200D01*
X122358675Y-64362455D01*
X122408044Y-64276945D01*
X122433600Y-64181570D01*
X122433600Y-64082830D01*
X122408044Y-63987455D01*
X122358675Y-63901945D01*
X122334930Y-63878200D01*
X123415180Y-63878200D01*
X123414314Y-63872734D01*
X123360425Y-63706880D01*
X123360422Y-63706874D01*
X123281243Y-63551478D01*
X123178732Y-63410384D01*
X123178730Y-63410381D01*
X123055418Y-63287069D01*
X123055415Y-63287067D01*
X122914321Y-63184556D01*
X122758925Y-63105377D01*
X122758919Y-63105374D01*
X122593060Y-63051484D01*
X122593064Y-63051484D01*
X122420798Y-63024200D01*
X122312600Y-63024200D01*
X122312600Y-63855870D01*
X122288855Y-63832125D01*
X122203345Y-63782756D01*
X122107970Y-63757200D01*
X122009230Y-63757200D01*
X121913855Y-63782756D01*
X121828345Y-63832125D01*
X121804600Y-63855870D01*
X121804600Y-63024200D01*
X121696402Y-63024200D01*
X121524137Y-63051484D01*
X121358280Y-63105374D01*
X121358274Y-63105377D01*
X121202878Y-63184556D01*
X121061784Y-63287067D01*
X121061781Y-63287069D01*
X120938469Y-63410381D01*
X120938467Y-63410384D01*
X120835956Y-63551478D01*
X120756777Y-63706874D01*
X120756774Y-63706880D01*
X120702885Y-63872734D01*
X120702020Y-63878200D01*
X121782270Y-63878200D01*
X121758525Y-63901945D01*
X121709156Y-63987455D01*
X121683600Y-64082830D01*
X121683600Y-64181570D01*
X121709156Y-64276945D01*
X121758525Y-64362455D01*
X121782270Y-64386200D01*
X120702020Y-64386200D01*
X120702885Y-64391665D01*
X120756774Y-64557519D01*
X120756777Y-64557525D01*
X120835956Y-64712921D01*
X120938467Y-64854015D01*
X120938469Y-64854018D01*
X121061781Y-64977330D01*
X121061784Y-64977332D01*
X121134211Y-65029954D01*
X121177565Y-65086176D01*
X121183640Y-65156912D01*
X121150509Y-65219704D01*
X121134212Y-65233825D01*
X121061461Y-65286682D01*
X121061455Y-65286687D01*
X120938087Y-65410055D01*
X120938085Y-65410058D01*
X120835528Y-65551215D01*
X120756313Y-65706682D01*
X120756310Y-65706688D01*
X120702396Y-65872622D01*
X120702395Y-65872626D01*
X120675100Y-66044959D01*
X117768082Y-66044959D01*
X117776403Y-58501909D01*
X118901100Y-58501909D01*
X118901100Y-58744490D01*
X118932760Y-58984982D01*
X118995544Y-59219295D01*
X118995545Y-59219297D01*
X118995546Y-59219300D01*
X119088376Y-59443412D01*
X119088377Y-59443413D01*
X119088382Y-59443424D01*
X119209661Y-59653485D01*
X119209663Y-59653488D01*
X119209664Y-59653489D01*
X119357335Y-59845938D01*
X119357339Y-59845942D01*
X119357344Y-59845948D01*
X119528851Y-60017455D01*
X119528856Y-60017459D01*
X119528862Y-60017465D01*
X119721311Y-60165136D01*
X119721314Y-60165138D01*
X119931375Y-60286417D01*
X119931379Y-60286418D01*
X119931388Y-60286424D01*
X120155500Y-60379254D01*
X120389811Y-60442038D01*
X120389815Y-60442038D01*
X120389817Y-60442039D01*
X120451802Y-60450199D01*
X120630312Y-60473700D01*
X120630319Y-60473700D01*
X120872881Y-60473700D01*
X120872888Y-60473700D01*
X121090237Y-60445085D01*
X121113382Y-60442039D01*
X121113382Y-60442038D01*
X121113389Y-60442038D01*
X121347700Y-60379254D01*
X121571812Y-60286424D01*
X121781889Y-60165136D01*
X121974338Y-60017465D01*
X122145865Y-59845938D01*
X122293536Y-59653489D01*
X122414824Y-59443412D01*
X122507654Y-59219300D01*
X122570438Y-58984989D01*
X122602100Y-58744488D01*
X122602100Y-58501912D01*
X122588724Y-58400309D01*
X146053700Y-58400309D01*
X146053700Y-58642890D01*
X146085360Y-58883382D01*
X146148144Y-59117695D01*
X146148145Y-59117697D01*
X146148146Y-59117700D01*
X146240976Y-59341812D01*
X146240977Y-59341813D01*
X146240982Y-59341824D01*
X146362261Y-59551885D01*
X146362263Y-59551888D01*
X146362264Y-59551889D01*
X146509935Y-59744338D01*
X146509939Y-59744342D01*
X146509944Y-59744348D01*
X146681451Y-59915855D01*
X146681456Y-59915859D01*
X146681462Y-59915865D01*
X146873911Y-60063536D01*
X146873914Y-60063538D01*
X147083975Y-60184817D01*
X147083979Y-60184818D01*
X147083988Y-60184824D01*
X147308100Y-60277654D01*
X147542411Y-60340438D01*
X147542415Y-60340438D01*
X147542417Y-60340439D01*
X147604402Y-60348599D01*
X147782912Y-60372100D01*
X147782919Y-60372100D01*
X148025481Y-60372100D01*
X148025488Y-60372100D01*
X148242837Y-60343485D01*
X148265982Y-60340439D01*
X148265982Y-60340438D01*
X148265989Y-60340438D01*
X148500300Y-60277654D01*
X148724412Y-60184824D01*
X148934489Y-60063536D01*
X149126938Y-59915865D01*
X149298465Y-59744338D01*
X149446136Y-59551889D01*
X149567424Y-59341812D01*
X149660254Y-59117700D01*
X149723038Y-58883389D01*
X149754700Y-58642888D01*
X149754700Y-58400312D01*
X149723038Y-58159811D01*
X149660254Y-57925500D01*
X149567424Y-57701388D01*
X149567418Y-57701379D01*
X149567417Y-57701375D01*
X149446138Y-57491314D01*
X149376425Y-57400462D01*
X149298465Y-57298862D01*
X149298459Y-57298856D01*
X149298455Y-57298851D01*
X149126948Y-57127344D01*
X149126942Y-57127339D01*
X149126938Y-57127335D01*
X148934489Y-56979664D01*
X148934488Y-56979663D01*
X148934485Y-56979661D01*
X148724424Y-56858382D01*
X148724416Y-56858378D01*
X148724412Y-56858376D01*
X148500300Y-56765546D01*
X148500297Y-56765545D01*
X148500295Y-56765544D01*
X148265982Y-56702760D01*
X148025490Y-56671100D01*
X148025488Y-56671100D01*
X147782912Y-56671100D01*
X147782909Y-56671100D01*
X147542417Y-56702760D01*
X147308104Y-56765544D01*
X147308100Y-56765546D01*
X147214395Y-56804360D01*
X147083986Y-56858377D01*
X147083975Y-56858382D01*
X146873914Y-56979661D01*
X146681462Y-57127335D01*
X146681451Y-57127344D01*
X146509944Y-57298851D01*
X146509935Y-57298862D01*
X146362261Y-57491314D01*
X146240982Y-57701375D01*
X146240977Y-57701386D01*
X146148146Y-57925500D01*
X146148144Y-57925504D01*
X146085360Y-58159817D01*
X146053700Y-58400309D01*
X122588724Y-58400309D01*
X122570438Y-58261411D01*
X122507654Y-58027100D01*
X122414824Y-57802988D01*
X122414818Y-57802979D01*
X122414817Y-57802975D01*
X122293538Y-57592914D01*
X122293536Y-57592911D01*
X122145865Y-57400462D01*
X122145859Y-57400456D01*
X122145855Y-57400451D01*
X121974348Y-57228944D01*
X121974342Y-57228939D01*
X121974338Y-57228935D01*
X121781889Y-57081264D01*
X121781888Y-57081263D01*
X121781885Y-57081261D01*
X121571824Y-56959982D01*
X121571816Y-56959978D01*
X121571812Y-56959976D01*
X121347700Y-56867146D01*
X121347697Y-56867145D01*
X121347695Y-56867144D01*
X121113382Y-56804360D01*
X120872890Y-56772700D01*
X120872888Y-56772700D01*
X120630312Y-56772700D01*
X120630309Y-56772700D01*
X120389817Y-56804360D01*
X120155504Y-56867144D01*
X120155500Y-56867146D01*
X119931386Y-56959977D01*
X119931375Y-56959982D01*
X119721314Y-57081261D01*
X119528862Y-57228935D01*
X119528851Y-57228944D01*
X119357344Y-57400451D01*
X119357335Y-57400462D01*
X119209661Y-57592914D01*
X119088382Y-57802975D01*
X119088377Y-57802986D01*
X118995546Y-58027100D01*
X118995544Y-58027104D01*
X118932760Y-58261417D01*
X118901100Y-58501909D01*
X117776403Y-58501909D01*
X117779661Y-55548660D01*
X117799738Y-55480562D01*
X117853445Y-55434129D01*
X117905661Y-55422800D01*
X150826269Y-55422800D01*
X150894390Y-55442802D01*
G37*
%TD.AperFunction*%
%TD*%
M02*
