%TF.GenerationSoftware,KiCad,Pcbnew,8.0.2-8.0.2-0~ubuntu22.04.1*%
%TF.CreationDate,2024-05-08T22:35:07+02:00*%
%TF.ProjectId,MailBox_LP_Notifier,4d61696c-426f-4785-9f4c-505f4e6f7469,rev?*%
%TF.SameCoordinates,Original*%
%TF.FileFunction,Copper,L4,Bot*%
%TF.FilePolarity,Positive*%
%FSLAX46Y46*%
G04 Gerber Fmt 4.6, Leading zero omitted, Abs format (unit mm)*
G04 Created by KiCad (PCBNEW 8.0.2-8.0.2-0~ubuntu22.04.1) date 2024-05-08 22:35:07*
%MOMM*%
%LPD*%
G01*
G04 APERTURE LIST*
G04 Aperture macros list*
%AMRoundRect*
0 Rectangle with rounded corners*
0 $1 Rounding radius*
0 $2 $3 $4 $5 $6 $7 $8 $9 X,Y pos of 4 corners*
0 Add a 4 corners polygon primitive as box body*
4,1,4,$2,$3,$4,$5,$6,$7,$8,$9,$2,$3,0*
0 Add four circle primitives for the rounded corners*
1,1,$1+$1,$2,$3*
1,1,$1+$1,$4,$5*
1,1,$1+$1,$6,$7*
1,1,$1+$1,$8,$9*
0 Add four rect primitives between the rounded corners*
20,1,$1+$1,$2,$3,$4,$5,0*
20,1,$1+$1,$4,$5,$6,$7,0*
20,1,$1+$1,$6,$7,$8,$9,0*
20,1,$1+$1,$8,$9,$2,$3,0*%
G04 Aperture macros list end*
%TA.AperFunction,ComponentPad*%
%ADD10RoundRect,0.250001X0.499999X0.499999X-0.499999X0.499999X-0.499999X-0.499999X0.499999X-0.499999X0*%
%TD*%
%TA.AperFunction,ComponentPad*%
%ADD11C,1.500000*%
%TD*%
%TA.AperFunction,ComponentPad*%
%ADD12R,1.700000X1.700000*%
%TD*%
%TA.AperFunction,ComponentPad*%
%ADD13O,1.700000X1.700000*%
%TD*%
%TA.AperFunction,ComponentPad*%
%ADD14RoundRect,0.250000X0.625000X-0.350000X0.625000X0.350000X-0.625000X0.350000X-0.625000X-0.350000X0*%
%TD*%
%TA.AperFunction,ComponentPad*%
%ADD15O,1.750000X1.200000*%
%TD*%
%TA.AperFunction,SMDPad,CuDef*%
%ADD16R,1.500000X1.500000*%
%TD*%
%TA.AperFunction,SMDPad,CuDef*%
%ADD17RoundRect,0.200000X-0.275000X0.200000X-0.275000X-0.200000X0.275000X-0.200000X0.275000X0.200000X0*%
%TD*%
%TA.AperFunction,SMDPad,CuDef*%
%ADD18R,1.500000X0.900000*%
%TD*%
%TA.AperFunction,SMDPad,CuDef*%
%ADD19R,0.900000X1.500000*%
%TD*%
%TA.AperFunction,SMDPad,CuDef*%
%ADD20R,1.050000X1.050000*%
%TD*%
%TA.AperFunction,HeatsinkPad*%
%ADD21C,0.600000*%
%TD*%
%TA.AperFunction,SMDPad,CuDef*%
%ADD22R,4.200000X4.200000*%
%TD*%
%TA.AperFunction,SMDPad,CuDef*%
%ADD23RoundRect,0.250000X-0.262500X-0.450000X0.262500X-0.450000X0.262500X0.450000X-0.262500X0.450000X0*%
%TD*%
%TA.AperFunction,ComponentPad*%
%ADD24RoundRect,0.250000X0.350000X0.625000X-0.350000X0.625000X-0.350000X-0.625000X0.350000X-0.625000X0*%
%TD*%
%TA.AperFunction,ComponentPad*%
%ADD25O,1.200000X1.750000*%
%TD*%
%TA.AperFunction,SMDPad,CuDef*%
%ADD26RoundRect,0.243750X0.243750X0.456250X-0.243750X0.456250X-0.243750X-0.456250X0.243750X-0.456250X0*%
%TD*%
%TA.AperFunction,ViaPad*%
%ADD27C,0.800000*%
%TD*%
%TA.AperFunction,Conductor*%
%ADD28C,0.500000*%
%TD*%
%TA.AperFunction,Conductor*%
%ADD29C,0.250000*%
%TD*%
%TA.AperFunction,Conductor*%
%ADD30C,1.000000*%
%TD*%
%TA.AperFunction,Conductor*%
%ADD31C,0.254000*%
%TD*%
G04 APERTURE END LIST*
D10*
%TO.P,SW1,1,1*%
%TO.N,Net-(D1-A)*%
X132765800Y-91871800D03*
D11*
%TO.P,SW1,2,2*%
%TO.N,VDD*%
X132765800Y-88871800D03*
%TD*%
D12*
%TO.P,J2,1,Pin_1*%
%TO.N,DRT*%
X148437200Y-64332800D03*
D13*
%TO.P,J2,2,Pin_2*%
%TO.N,RTS*%
X148437200Y-66872800D03*
%TO.P,J2,3,Pin_3*%
%TO.N,TX*%
X148437200Y-69412800D03*
%TO.P,J2,4,Pin_4*%
%TO.N,RX*%
X148437200Y-71952800D03*
%TO.P,J2,5,Pin_5*%
%TO.N,+3.3V*%
X148437200Y-74492800D03*
%TO.P,J2,6,Pin_6*%
%TO.N,unconnected-(J2-Pin_6-Pad6)*%
X148437200Y-77032800D03*
%TO.P,J2,7,Pin_7*%
%TO.N,GND*%
X148437200Y-79572800D03*
%TD*%
D14*
%TO.P,J3,1,Pin_1*%
%TO.N,SCL*%
X122058600Y-70132200D03*
D15*
%TO.P,J3,2,Pin_2*%
%TO.N,SDA*%
X122058600Y-68132200D03*
%TO.P,J3,3,Pin_3*%
%TO.N,+3.3V*%
X122058600Y-66132200D03*
%TO.P,J3,4,Pin_4*%
%TO.N,GND*%
X122058600Y-64132200D03*
%TD*%
D16*
%TO.P,SW4,1,1*%
%TO.N,GND*%
X136271000Y-92292000D03*
%TO.P,SW4,2,2*%
%TO.N,IO0*%
X136271000Y-84492000D03*
%TD*%
D17*
%TO.P,R12,1*%
%TO.N,+3.3V*%
X133121400Y-82969600D03*
%TO.P,R12,2*%
%TO.N,RST*%
X133121400Y-84619600D03*
%TD*%
D18*
%TO.P,U3,1,GND*%
%TO.N,GND*%
X144386000Y-63065400D03*
%TO.P,U3,2,VDD*%
%TO.N,+3.3V*%
X144386000Y-64335400D03*
%TO.P,U3,3,EN*%
%TO.N,RST*%
X144386000Y-65605400D03*
%TO.P,U3,4,SENSOR_VP*%
%TO.N,unconnected-(U3-SENSOR_VP-Pad4)*%
X144386000Y-66875400D03*
%TO.P,U3,5,SENSOR_VN*%
%TO.N,unconnected-(U3-SENSOR_VN-Pad5)*%
X144386000Y-68145400D03*
%TO.P,U3,6,IO34*%
%TO.N,unconnected-(U3-IO34-Pad6)*%
X144386000Y-69415400D03*
%TO.P,U3,7,IO35*%
%TO.N,V_SENSE*%
X144386000Y-70685400D03*
%TO.P,U3,8,IO32*%
%TO.N,unconnected-(U3-IO32-Pad8)*%
X144386000Y-71955400D03*
%TO.P,U3,9,IO33*%
%TO.N,unconnected-(U3-IO33-Pad9)*%
X144386000Y-73225400D03*
%TO.P,U3,10,IO25*%
%TO.N,unconnected-(U3-IO25-Pad10)*%
X144386000Y-74495400D03*
%TO.P,U3,11,IO26*%
%TO.N,unconnected-(U3-IO26-Pad11)*%
X144386000Y-75765400D03*
%TO.P,U3,12,IO27*%
%TO.N,unconnected-(U3-IO27-Pad12)*%
X144386000Y-77035400D03*
%TO.P,U3,13,IO14*%
%TO.N,unconnected-(U3-IO14-Pad13)*%
X144386000Y-78305400D03*
%TO.P,U3,14,IO12*%
%TO.N,unconnected-(U3-IO12-Pad14)*%
X144386000Y-79575400D03*
D19*
%TO.P,U3,15,GND*%
%TO.N,GND*%
X141346000Y-80825400D03*
%TO.P,U3,16,IO13*%
%TO.N,unconnected-(U3-IO13-Pad16)*%
X140076000Y-80825400D03*
%TO.P,U3,17,SHD/SD2*%
%TO.N,unconnected-(U3-SHD{slash}SD2-Pad17)*%
X138806000Y-80825400D03*
%TO.P,U3,18,SWP/SD3*%
%TO.N,unconnected-(U3-SWP{slash}SD3-Pad18)*%
X137536000Y-80825400D03*
%TO.P,U3,19,SCS/CMD*%
%TO.N,unconnected-(U3-SCS{slash}CMD-Pad19)*%
X136266000Y-80825400D03*
%TO.P,U3,20,SCK/CLK*%
%TO.N,unconnected-(U3-SCK{slash}CLK-Pad20)*%
X134996000Y-80825400D03*
%TO.P,U3,21,SDO/SD0*%
%TO.N,unconnected-(U3-SDO{slash}SD0-Pad21)*%
X133726000Y-80825400D03*
%TO.P,U3,22,SDI/SD1*%
%TO.N,unconnected-(U3-SDI{slash}SD1-Pad22)*%
X132456000Y-80825400D03*
%TO.P,U3,23,IO15*%
%TO.N,unconnected-(U3-IO15-Pad23)*%
X131186000Y-80825400D03*
%TO.P,U3,24,IO2*%
%TO.N,unconnected-(U3-IO2-Pad24)*%
X129916000Y-80825400D03*
D18*
%TO.P,U3,25,IO0*%
%TO.N,IO0*%
X126886000Y-79575400D03*
%TO.P,U3,26,IO4*%
%TO.N,unconnected-(U3-IO4-Pad26)*%
X126886000Y-78305400D03*
%TO.P,U3,27,IO16*%
%TO.N,C_REED*%
X126886000Y-77035400D03*
%TO.P,U3,28,IO17*%
%TO.N,MCU_HOLD*%
X126886000Y-75765400D03*
%TO.P,U3,29,IO5*%
%TO.N,unconnected-(U3-IO5-Pad29)*%
X126886000Y-74495400D03*
%TO.P,U3,30,IO18*%
%TO.N,L_IND*%
X126886000Y-73225400D03*
%TO.P,U3,31,IO19*%
%TO.N,WU_BUT*%
X126886000Y-71955400D03*
%TO.P,U3,32,NC*%
%TO.N,unconnected-(U3-NC-Pad32)*%
X126886000Y-70685400D03*
%TO.P,U3,33,IO21*%
%TO.N,SDA*%
X126886000Y-69415400D03*
%TO.P,U3,34,RXD0/IO3*%
%TO.N,RX*%
X126886000Y-68145400D03*
%TO.P,U3,35,TXD0/IO1*%
%TO.N,TX*%
X126886000Y-66875400D03*
%TO.P,U3,36,IO22*%
%TO.N,SCL*%
X126886000Y-65605400D03*
%TO.P,U3,37,IO23*%
%TO.N,unconnected-(U3-IO23-Pad37)*%
X126886000Y-64335400D03*
%TO.P,U3,38,GND*%
%TO.N,GND*%
X126886000Y-63065400D03*
D20*
%TO.P,U3,39,GND*%
X137841000Y-71930400D03*
D21*
X137841000Y-71167900D03*
D20*
X137841000Y-70405400D03*
D21*
X137841000Y-69642900D03*
D20*
X137841000Y-68880400D03*
D21*
X137078500Y-71930400D03*
X137078500Y-70405400D03*
X137078500Y-68880400D03*
D20*
X136316000Y-71930400D03*
D21*
X136316000Y-71167900D03*
D20*
X136316000Y-70405400D03*
D22*
X136316000Y-70405400D03*
D21*
X136316000Y-69642900D03*
D20*
X136316000Y-68880400D03*
D21*
X135553500Y-71930400D03*
X135553500Y-70405400D03*
X135553500Y-68880400D03*
D20*
X134791000Y-71930400D03*
D21*
X134791000Y-71167900D03*
D20*
X134791000Y-70405400D03*
D21*
X134791000Y-69642900D03*
D20*
X134791000Y-68880400D03*
%TD*%
D16*
%TO.P,SW3,1,1*%
%TO.N,GND*%
X143281400Y-92266600D03*
%TO.P,SW3,2,2*%
%TO.N,Net-(Q2-G)*%
X143281400Y-84466600D03*
%TD*%
D23*
%TO.P,R6,1*%
%TO.N,GND*%
X135587100Y-95377000D03*
%TO.P,R6,2*%
%TO.N,Net-(D3-K)*%
X137412100Y-95377000D03*
%TD*%
D17*
%TO.P,R8,1*%
%TO.N,+3.3V*%
X131394200Y-82969600D03*
%TO.P,R8,2*%
%TO.N,IO0*%
X131394200Y-84619600D03*
%TD*%
D24*
%TO.P,J1,1,Pin_1*%
%TO.N,GND*%
X147761200Y-98129000D03*
D25*
%TO.P,J1,2,Pin_2*%
%TO.N,VDD*%
X145761200Y-98129000D03*
%TD*%
D26*
%TO.P,D3,1,K*%
%TO.N,Net-(D3-K)*%
X137386300Y-97891600D03*
%TO.P,D3,2,A*%
%TO.N,L_IND*%
X135511300Y-97891600D03*
%TD*%
D16*
%TO.P,SW5,1,1*%
%TO.N,GND*%
X128117600Y-92292000D03*
%TO.P,SW5,2,2*%
%TO.N,RST*%
X128117600Y-84492000D03*
%TD*%
D27*
%TO.N,GND*%
X142468600Y-81153000D03*
X129336800Y-63068200D03*
X129489200Y-92303600D03*
X121818400Y-95580200D03*
X123126500Y-82334100D03*
X149199600Y-99542600D03*
X142468600Y-80314800D03*
X124333000Y-63060400D03*
X124981000Y-88302800D03*
X139340102Y-97667300D03*
X139725400Y-100228400D03*
X142050000Y-63000000D03*
X143306800Y-93624400D03*
X140880600Y-86144600D03*
X145643600Y-63068200D03*
X136271000Y-93878400D03*
X119100600Y-74472800D03*
X125433000Y-63060400D03*
X147751800Y-100025200D03*
X140156600Y-93498000D03*
%TO.N,VDD*%
X141325600Y-98221800D03*
X140081000Y-78917800D03*
X133908800Y-78917800D03*
X144373600Y-99542600D03*
X119075200Y-79502000D03*
X145770600Y-99999800D03*
X123012200Y-77901800D03*
X131089400Y-72288400D03*
%TO.N,V_SENSE*%
X142671800Y-71120000D03*
%TO.N,+3.3V*%
X124942600Y-84480400D03*
X122819600Y-88991000D03*
X142461490Y-64524985D03*
X145618200Y-64312800D03*
X130288800Y-82969600D03*
%TO.N,~{INT}*%
X120993200Y-78752400D03*
X128854200Y-74193400D03*
%TO.N,MCU_HOLD*%
X128574800Y-75742800D03*
%TO.N,TX*%
X142319988Y-68119012D03*
%TO.N,RX*%
X142367000Y-69545200D03*
%TO.N,IO0*%
X125526800Y-79603600D03*
%TO.N,RST*%
X141351000Y-64439800D03*
X128346200Y-82829400D03*
%TO.N,VCC_SW*%
X121691400Y-86537800D03*
X139192000Y-77368400D03*
%TO.N,C_REED*%
X127279400Y-97942400D03*
%TO.N,WU_BUT*%
X131955079Y-76858487D03*
%TO.N,Net-(Q2-G)*%
X137617878Y-85298033D03*
%TD*%
D28*
%TO.N,GND*%
X142468600Y-81153000D02*
X141933600Y-81153000D01*
D29*
X129489200Y-92303600D02*
X128129200Y-92303600D01*
X128129200Y-92303600D02*
X128117600Y-92292000D01*
D28*
X142050000Y-63000000D02*
X142110400Y-63060400D01*
D29*
X143332200Y-92317400D02*
X143281400Y-92266600D01*
D30*
X122963600Y-63060400D02*
X122047000Y-63977000D01*
X127136000Y-63060400D02*
X129319200Y-63060400D01*
D29*
X136271000Y-92292000D02*
X136271000Y-93878400D01*
X143306800Y-93624400D02*
X143332200Y-92317400D01*
X136271000Y-93878400D02*
X136271000Y-94693100D01*
D28*
X142468600Y-80314800D02*
X141606600Y-80314800D01*
X145635800Y-63060400D02*
X145643600Y-63068200D01*
D29*
X136271000Y-94693100D02*
X135587100Y-95377000D01*
D28*
X142110400Y-63060400D02*
X145635800Y-63060400D01*
D30*
X127136000Y-63060400D02*
X122963600Y-63060400D01*
D29*
%TO.N,V_SENSE*%
X142781200Y-70680400D02*
X144136000Y-70680400D01*
X142671800Y-70789800D02*
X142781200Y-70680400D01*
X142671800Y-71120000D02*
X142671800Y-70789800D01*
%TO.N,+3.3V*%
X133121400Y-82969600D02*
X131394200Y-82969600D01*
D28*
X145406015Y-64524985D02*
X145618200Y-64312800D01*
D29*
X131394200Y-82969600D02*
X130288800Y-82969600D01*
D28*
X142461490Y-64524985D02*
X145406015Y-64524985D01*
D29*
%TO.N,Net-(D3-K)*%
X137412100Y-97865800D02*
X137386300Y-97891600D01*
X137412100Y-95377000D02*
X137412100Y-97865800D01*
D28*
%TO.N,MCU_HOLD*%
X127153600Y-75742800D02*
X127136000Y-75760400D01*
X127162001Y-75734399D02*
X127136000Y-75760400D01*
X128574800Y-75742800D02*
X127153600Y-75742800D01*
%TO.N,TX*%
X138375976Y-64175000D02*
X142319988Y-68119012D01*
X130416400Y-64175000D02*
X138375976Y-64175000D01*
X127136000Y-66870400D02*
X127721000Y-66870400D01*
X127721000Y-66870400D02*
X130416400Y-64175000D01*
%TO.N,RX*%
X128509600Y-68140400D02*
X131275000Y-65375000D01*
X142120200Y-69545200D02*
X142367000Y-69545200D01*
X137950000Y-65375000D02*
X142120200Y-69545200D01*
X127136000Y-68140400D02*
X128509600Y-68140400D01*
X131275000Y-65375000D02*
X137950000Y-65375000D01*
D29*
%TO.N,SCL*%
X127102800Y-65633600D02*
X125501400Y-65633600D01*
X127136000Y-65600400D02*
X127102800Y-65633600D01*
X120827800Y-68757800D02*
X122047000Y-69977000D01*
X123291600Y-67106800D02*
X120827800Y-67106800D01*
X120827800Y-67106800D02*
X120827800Y-68757800D01*
X125501400Y-65633600D02*
X123291600Y-67106800D01*
%TO.N,SDA*%
X122047000Y-67977000D02*
X123480400Y-69410400D01*
X123480400Y-69410400D02*
X127136000Y-69410400D01*
%TO.N,IO0*%
X127102800Y-79603600D02*
X127136000Y-79570400D01*
X126161800Y-86055200D02*
X125653800Y-85547200D01*
X136271000Y-84492000D02*
X134707800Y-86055200D01*
D31*
X134707800Y-86055200D02*
X131445000Y-86055200D01*
D29*
X125526800Y-79603600D02*
X127102800Y-79603600D01*
X131445000Y-86055200D02*
X126161800Y-86055200D01*
X125653800Y-85547200D02*
X125667111Y-85533889D01*
X125667111Y-85533889D02*
X125667111Y-79743911D01*
X125667111Y-79743911D02*
X125526800Y-79603600D01*
X131394200Y-86004400D02*
X131445000Y-86055200D01*
X131394200Y-84619600D02*
X131394200Y-86004400D01*
%TO.N,RST*%
X132396880Y-83895080D02*
X128714520Y-83895080D01*
X133121400Y-84619600D02*
X132396880Y-83895080D01*
X128346200Y-84263400D02*
X128117600Y-84492000D01*
X128346200Y-82829400D02*
X128346200Y-84263400D01*
X128714520Y-83895080D02*
X128117600Y-84492000D01*
X142511600Y-65600400D02*
X141351000Y-64439800D01*
X144136000Y-65600400D02*
X142511600Y-65600400D01*
%TO.N,C_REED*%
X126415800Y-97942400D02*
X127279400Y-97942400D01*
X124218089Y-78698311D02*
X124218089Y-95744689D01*
X124218089Y-95744689D02*
X126415800Y-97942400D01*
X127136000Y-77030400D02*
X125886000Y-77030400D01*
X125886000Y-77030400D02*
X124218089Y-78698311D01*
%TO.N,L_IND*%
X122361452Y-85912452D02*
X123596400Y-87147400D01*
X134112000Y-99314000D02*
X135511300Y-97891600D01*
X123596400Y-96139718D02*
X126770682Y-99314000D01*
X122361452Y-85385148D02*
X122361452Y-85912452D01*
X127136000Y-73220400D02*
X125886000Y-73220400D01*
X126770682Y-99314000D02*
X134112000Y-99314000D01*
X122097800Y-76987400D02*
X122097800Y-85121496D01*
X122097800Y-85121496D02*
X122361452Y-85385148D01*
X123596400Y-87147400D02*
X123596400Y-96139718D01*
X125873911Y-73211289D02*
X122097800Y-76987400D01*
%TO.N,WU_BUT*%
X131955079Y-75940457D02*
X127965022Y-71950400D01*
X127965022Y-71950400D02*
X127136000Y-71950400D01*
X131955079Y-76858487D02*
X131955079Y-75940457D01*
D31*
%TO.N,Net-(Q2-G)*%
X137617878Y-85298033D02*
X138449311Y-84466600D01*
X138449311Y-84466600D02*
X143281400Y-84466600D01*
%TD*%
%TA.AperFunction,Conductor*%
%TO.N,VDD*%
G36*
X143739400Y-96951810D02*
G01*
X144791854Y-96964965D01*
X144859717Y-96985817D01*
X144905536Y-97040049D01*
X144914761Y-97110444D01*
X144892213Y-97165016D01*
X144813556Y-97273278D01*
X144734377Y-97428674D01*
X144734374Y-97428680D01*
X144680484Y-97594537D01*
X144653200Y-97766802D01*
X144653200Y-97875000D01*
X145484870Y-97875000D01*
X145461125Y-97898745D01*
X145411756Y-97984255D01*
X145386200Y-98079630D01*
X145386200Y-98178370D01*
X145411756Y-98273745D01*
X145461125Y-98359255D01*
X145484870Y-98383000D01*
X144653200Y-98383000D01*
X144653200Y-98491197D01*
X144680484Y-98663462D01*
X144734374Y-98829319D01*
X144734377Y-98829325D01*
X144813556Y-98984721D01*
X144916067Y-99125815D01*
X144916069Y-99125818D01*
X145039381Y-99249130D01*
X145039384Y-99249132D01*
X145180478Y-99351643D01*
X145335874Y-99430822D01*
X145335880Y-99430825D01*
X145501734Y-99484714D01*
X145507200Y-99485580D01*
X145507200Y-98405330D01*
X145530945Y-98429075D01*
X145616455Y-98478444D01*
X145711830Y-98504000D01*
X145810570Y-98504000D01*
X145905945Y-98478444D01*
X145991455Y-98429075D01*
X146015200Y-98405330D01*
X146015200Y-99485580D01*
X146020665Y-99484714D01*
X146186519Y-99430825D01*
X146186529Y-99430820D01*
X146228789Y-99409288D01*
X146298565Y-99396183D01*
X146364350Y-99422882D01*
X146405257Y-99480909D01*
X146411983Y-99519979D01*
X146429431Y-100915742D01*
X146410282Y-100984107D01*
X146357212Y-101031267D01*
X146305549Y-101043299D01*
X140798952Y-101135459D01*
X140730507Y-101116600D01*
X140683122Y-101063730D01*
X140670847Y-101008801D01*
X140674414Y-100347896D01*
X140679347Y-99434004D01*
X140685607Y-98274478D01*
X140685606Y-98274477D01*
X140685607Y-98274466D01*
X140674081Y-98163473D01*
X140662608Y-98110257D01*
X140627375Y-98004371D01*
X140548148Y-97881550D01*
X140529255Y-97859821D01*
X140501565Y-97827974D01*
X140445975Y-97779969D01*
X140407490Y-97720308D01*
X140402335Y-97683084D01*
X140409691Y-97076272D01*
X140430518Y-97008399D01*
X140484733Y-96962560D01*
X140535682Y-96951800D01*
X143737825Y-96951800D01*
X143739400Y-96951810D01*
G37*
%TD.AperFunction*%
%TD*%
%TA.AperFunction,Conductor*%
%TO.N,GND*%
G36*
X123542004Y-78741021D02*
G01*
X123579818Y-78801110D01*
X123584589Y-78835456D01*
X123584589Y-85935495D01*
X123564587Y-86003616D01*
X123510931Y-86050109D01*
X123440657Y-86060213D01*
X123376077Y-86030719D01*
X123369494Y-86024590D01*
X123031857Y-85686953D01*
X122997831Y-85624641D01*
X122994952Y-85597858D01*
X122994952Y-85322755D01*
X122994951Y-85322751D01*
X122992414Y-85309995D01*
X122970607Y-85200363D01*
X122922852Y-85085073D01*
X122853523Y-84981315D01*
X122768205Y-84895997D01*
X122734179Y-84833685D01*
X122731300Y-84806902D01*
X122731300Y-78926486D01*
X122751302Y-78858365D01*
X122804958Y-78811872D01*
X122875232Y-78801768D01*
X122883499Y-78803240D01*
X122916710Y-78810300D01*
X122916713Y-78810300D01*
X123107687Y-78810300D01*
X123294488Y-78770594D01*
X123407340Y-78720348D01*
X123477707Y-78710915D01*
X123542004Y-78741021D01*
G37*
%TD.AperFunction*%
%TA.AperFunction,Conductor*%
G36*
X150830168Y-61664355D02*
G01*
X150898213Y-61684601D01*
X150944512Y-61738424D01*
X150955711Y-61790284D01*
X150977488Y-101271419D01*
X150957524Y-101339550D01*
X150903894Y-101386073D01*
X150846526Y-101397390D01*
X147085438Y-101249169D01*
X147018158Y-101226500D01*
X146973814Y-101171055D01*
X146964400Y-101123267D01*
X146964400Y-99578966D01*
X146984402Y-99510845D01*
X147038058Y-99464352D01*
X147108332Y-99454248D01*
X147130033Y-99459362D01*
X147256869Y-99501392D01*
X147256881Y-99501394D01*
X147360683Y-99511999D01*
X147360683Y-99512000D01*
X147507200Y-99512000D01*
X147507200Y-98405330D01*
X147530945Y-98429075D01*
X147616455Y-98478444D01*
X147711830Y-98504000D01*
X147810570Y-98504000D01*
X147905945Y-98478444D01*
X147991455Y-98429075D01*
X148015200Y-98405330D01*
X148015200Y-99512000D01*
X148161717Y-99512000D01*
X148161716Y-99511999D01*
X148265518Y-99501394D01*
X148265521Y-99501393D01*
X148433725Y-99445657D01*
X148584539Y-99352634D01*
X148584545Y-99352629D01*
X148709829Y-99227345D01*
X148709834Y-99227339D01*
X148802857Y-99076525D01*
X148858593Y-98908321D01*
X148858594Y-98908318D01*
X148869199Y-98804516D01*
X148869200Y-98804516D01*
X148869200Y-98383000D01*
X148037530Y-98383000D01*
X148061275Y-98359255D01*
X148110644Y-98273745D01*
X148136200Y-98178370D01*
X148136200Y-98079630D01*
X148110644Y-97984255D01*
X148061275Y-97898745D01*
X148037530Y-97875000D01*
X148869200Y-97875000D01*
X148869200Y-97453483D01*
X148858594Y-97349681D01*
X148858593Y-97349678D01*
X148802857Y-97181474D01*
X148709834Y-97030660D01*
X148709829Y-97030654D01*
X148584545Y-96905370D01*
X148584539Y-96905365D01*
X148433725Y-96812342D01*
X148265521Y-96756606D01*
X148265518Y-96756605D01*
X148161716Y-96746000D01*
X148015200Y-96746000D01*
X148015200Y-97852670D01*
X147991455Y-97828925D01*
X147905945Y-97779556D01*
X147810570Y-97754000D01*
X147711830Y-97754000D01*
X147616455Y-97779556D01*
X147530945Y-97828925D01*
X147507200Y-97852670D01*
X147507200Y-96746000D01*
X147360683Y-96746000D01*
X147256881Y-96756605D01*
X147256877Y-96756606D01*
X147130033Y-96798638D01*
X147059078Y-96801078D01*
X146998068Y-96764770D01*
X146966373Y-96701241D01*
X146964400Y-96679033D01*
X146964400Y-96164400D01*
X143510000Y-96139000D01*
X143509983Y-96139000D01*
X143509968Y-96139000D01*
X139801600Y-96164400D01*
X139710421Y-97942400D01*
X139700000Y-98145600D01*
X140045905Y-98145014D01*
X140114057Y-98164901D01*
X140160641Y-98218478D01*
X140172114Y-98271694D01*
X140160921Y-100345124D01*
X140155554Y-101339550D01*
X140155510Y-101347680D01*
X140135141Y-101415692D01*
X140081235Y-101461894D01*
X140029512Y-101473000D01*
X117855139Y-101473000D01*
X117787018Y-101452998D01*
X117740525Y-101399342D01*
X117729139Y-101346861D01*
X117730803Y-99838992D01*
X117743672Y-88172004D01*
X119205500Y-88172004D01*
X119205500Y-88309995D01*
X119205926Y-88312135D01*
X119232420Y-88445328D01*
X119285225Y-88572811D01*
X119316385Y-88619445D01*
X119361885Y-88687541D01*
X119361890Y-88687547D01*
X119459452Y-88785109D01*
X119459458Y-88785114D01*
X119574189Y-88861775D01*
X119701672Y-88914580D01*
X119837007Y-88941500D01*
X119837008Y-88941500D01*
X119974992Y-88941500D01*
X119974993Y-88941500D01*
X120110328Y-88914580D01*
X120237811Y-88861775D01*
X120352542Y-88785114D01*
X120450114Y-88687542D01*
X120526775Y-88572811D01*
X120579580Y-88445328D01*
X120606500Y-88309993D01*
X120606500Y-88172007D01*
X120579580Y-88036672D01*
X120526775Y-87909189D01*
X120450114Y-87794458D01*
X120450109Y-87794452D01*
X120352547Y-87696890D01*
X120352541Y-87696885D01*
X120314471Y-87671447D01*
X120237811Y-87620225D01*
X120157421Y-87586926D01*
X120110331Y-87567421D01*
X120110328Y-87567420D01*
X119974995Y-87540500D01*
X119974993Y-87540500D01*
X119837007Y-87540500D01*
X119837004Y-87540500D01*
X119701671Y-87567420D01*
X119701668Y-87567421D01*
X119574189Y-87620225D01*
X119459458Y-87696885D01*
X119459452Y-87696890D01*
X119361890Y-87794452D01*
X119361885Y-87794458D01*
X119285225Y-87909189D01*
X119232421Y-88036668D01*
X119232420Y-88036671D01*
X119205500Y-88172004D01*
X117743672Y-88172004D01*
X117743910Y-87956500D01*
X117746982Y-85172004D01*
X119205500Y-85172004D01*
X119205500Y-85309995D01*
X119232420Y-85445328D01*
X119232421Y-85445331D01*
X119239658Y-85462802D01*
X119285225Y-85572811D01*
X119289936Y-85579861D01*
X119361885Y-85687541D01*
X119361890Y-85687547D01*
X119459452Y-85785109D01*
X119459458Y-85785114D01*
X119574189Y-85861775D01*
X119701672Y-85914580D01*
X119837007Y-85941500D01*
X119837008Y-85941500D01*
X119974992Y-85941500D01*
X119974993Y-85941500D01*
X120110328Y-85914580D01*
X120237811Y-85861775D01*
X120352542Y-85785114D01*
X120450114Y-85687542D01*
X120526775Y-85572811D01*
X120579580Y-85445328D01*
X120606500Y-85309993D01*
X120606500Y-85172007D01*
X120579580Y-85036672D01*
X120526775Y-84909189D01*
X120450114Y-84794458D01*
X120450109Y-84794452D01*
X120352547Y-84696890D01*
X120352541Y-84696885D01*
X120314471Y-84671447D01*
X120237811Y-84620225D01*
X120156292Y-84586459D01*
X120110331Y-84567421D01*
X120110328Y-84567420D01*
X119974995Y-84540500D01*
X119974993Y-84540500D01*
X119837007Y-84540500D01*
X119837004Y-84540500D01*
X119701671Y-84567420D01*
X119701668Y-84567421D01*
X119574189Y-84620225D01*
X119459458Y-84696885D01*
X119459452Y-84696890D01*
X119361890Y-84794452D01*
X119361885Y-84794458D01*
X119285225Y-84909189D01*
X119232421Y-85036668D01*
X119232420Y-85036671D01*
X119205500Y-85172004D01*
X117746982Y-85172004D01*
X117753237Y-79502000D01*
X118161696Y-79502000D01*
X118181657Y-79691927D01*
X118205658Y-79765793D01*
X118240673Y-79873556D01*
X118240676Y-79873561D01*
X118336158Y-80038941D01*
X118336165Y-80038951D01*
X118463944Y-80180864D01*
X118463947Y-80180866D01*
X118618448Y-80293118D01*
X118792912Y-80370794D01*
X118979713Y-80410500D01*
X119170687Y-80410500D01*
X119357488Y-80370794D01*
X119531952Y-80293118D01*
X119686453Y-80180866D01*
X119686455Y-80180864D01*
X119814234Y-80038951D01*
X119814235Y-80038949D01*
X119814240Y-80038944D01*
X119909727Y-79873556D01*
X119968742Y-79691928D01*
X119988704Y-79502000D01*
X119968742Y-79312072D01*
X119968742Y-79312070D01*
X119954925Y-79269548D01*
X119952896Y-79198581D01*
X119985480Y-79144541D01*
X119944595Y-79139851D01*
X119889633Y-79094909D01*
X119884523Y-79086789D01*
X119814241Y-78965058D01*
X119814234Y-78965048D01*
X119686455Y-78823135D01*
X119589097Y-78752400D01*
X120079696Y-78752400D01*
X120099657Y-78942327D01*
X120113475Y-78984852D01*
X120115503Y-79055820D01*
X120082917Y-79109857D01*
X120123803Y-79114548D01*
X120178765Y-79159488D01*
X120183876Y-79167609D01*
X120254160Y-79289344D01*
X120254162Y-79289347D01*
X120254165Y-79289351D01*
X120381944Y-79431264D01*
X120443199Y-79475768D01*
X120536448Y-79543518D01*
X120710912Y-79621194D01*
X120897713Y-79660900D01*
X121088687Y-79660900D01*
X121275488Y-79621194D01*
X121287049Y-79616046D01*
X121357414Y-79606610D01*
X121421712Y-79636714D01*
X121459527Y-79696802D01*
X121464300Y-79731152D01*
X121464300Y-85183892D01*
X121470577Y-85215448D01*
X121488645Y-85306281D01*
X121536400Y-85421571D01*
X121552274Y-85445328D01*
X121562044Y-85459950D01*
X121583259Y-85527703D01*
X121564476Y-85596170D01*
X121511658Y-85643613D01*
X121483477Y-85653198D01*
X121409115Y-85669004D01*
X121234647Y-85746682D01*
X121080144Y-85858935D01*
X120952365Y-86000848D01*
X120952358Y-86000858D01*
X120856876Y-86166238D01*
X120856873Y-86166245D01*
X120797857Y-86347872D01*
X120777896Y-86537800D01*
X120797857Y-86727727D01*
X120827926Y-86820270D01*
X120856873Y-86909356D01*
X120856876Y-86909361D01*
X120952358Y-87074741D01*
X120952365Y-87074751D01*
X121080144Y-87216664D01*
X121080147Y-87216666D01*
X121234648Y-87328918D01*
X121409112Y-87406594D01*
X121595913Y-87446300D01*
X121786887Y-87446300D01*
X121973688Y-87406594D01*
X122148152Y-87328918D01*
X122302653Y-87216666D01*
X122430434Y-87074751D01*
X122434859Y-87069837D01*
X122437123Y-87071875D01*
X122482683Y-87036538D01*
X122553401Y-87030262D01*
X122616287Y-87063216D01*
X122617824Y-87064728D01*
X122925995Y-87372899D01*
X122960021Y-87435211D01*
X122962900Y-87461994D01*
X122962900Y-87956500D01*
X122942898Y-88024621D01*
X122889242Y-88071114D01*
X122836900Y-88082500D01*
X122724113Y-88082500D01*
X122537311Y-88122206D01*
X122362847Y-88199882D01*
X122208344Y-88312135D01*
X122080565Y-88454048D01*
X122080558Y-88454058D01*
X121985076Y-88619438D01*
X121985073Y-88619444D01*
X121970599Y-88663986D01*
X121926057Y-88801072D01*
X121906096Y-88991000D01*
X121926057Y-89180927D01*
X121956126Y-89273470D01*
X121985073Y-89362556D01*
X121985076Y-89362561D01*
X122080558Y-89527941D01*
X122080565Y-89527951D01*
X122208344Y-89669864D01*
X122208347Y-89669866D01*
X122362848Y-89782118D01*
X122537312Y-89859794D01*
X122724113Y-89899500D01*
X122836900Y-89899500D01*
X122905021Y-89919502D01*
X122951514Y-89973158D01*
X122962900Y-90025500D01*
X122962900Y-96077324D01*
X122962900Y-96202112D01*
X122987245Y-96324503D01*
X123035000Y-96439793D01*
X123104329Y-96543551D01*
X123104331Y-96543553D01*
X126366843Y-99806067D01*
X126366848Y-99806071D01*
X126366849Y-99806072D01*
X126470607Y-99875401D01*
X126552129Y-99909168D01*
X126585897Y-99923155D01*
X126708288Y-99947500D01*
X126708289Y-99947500D01*
X126833076Y-99947500D01*
X134043703Y-99947500D01*
X134054598Y-99947990D01*
X134054790Y-99947988D01*
X134054794Y-99947989D01*
X134113379Y-99947509D01*
X134114070Y-99947504D01*
X134115100Y-99947500D01*
X134174590Y-99947500D01*
X134176432Y-99947303D01*
X134177507Y-99947192D01*
X134179391Y-99947006D01*
X134179574Y-99946968D01*
X134179578Y-99946968D01*
X134237845Y-99934880D01*
X134238375Y-99934772D01*
X134296785Y-99923155D01*
X134296786Y-99923154D01*
X134296984Y-99923115D01*
X134298787Y-99922552D01*
X134299791Y-99922243D01*
X134301581Y-99921699D01*
X134301760Y-99921622D01*
X134301765Y-99921622D01*
X134356544Y-99898404D01*
X134357090Y-99898174D01*
X134412075Y-99875400D01*
X134412079Y-99875396D01*
X134412258Y-99875323D01*
X134413967Y-99874392D01*
X134414924Y-99873875D01*
X134416508Y-99873028D01*
X134416656Y-99872926D01*
X134416661Y-99872925D01*
X134465860Y-99839464D01*
X134466562Y-99838992D01*
X134510144Y-99809872D01*
X134515833Y-99806071D01*
X134515833Y-99806070D01*
X134515993Y-99805964D01*
X134517471Y-99804731D01*
X134518275Y-99804066D01*
X134519710Y-99802888D01*
X134519844Y-99802751D01*
X134519848Y-99802749D01*
X134561584Y-99760322D01*
X134562068Y-99759834D01*
X134604071Y-99717833D01*
X134604073Y-99717829D01*
X134604207Y-99717696D01*
X134611489Y-99709593D01*
X135174062Y-99137733D01*
X135236090Y-99103202D01*
X135263871Y-99100099D01*
X135805174Y-99100099D01*
X135908204Y-99089574D01*
X136075129Y-99034261D01*
X136224798Y-98941944D01*
X136349144Y-98817598D01*
X136349148Y-98817590D01*
X136349962Y-98816563D01*
X136350708Y-98816034D01*
X136354334Y-98812409D01*
X136354953Y-98813028D01*
X136407902Y-98775533D01*
X136478827Y-98772341D01*
X136540218Y-98808001D01*
X136547638Y-98816563D01*
X136548461Y-98817604D01*
X136672795Y-98941938D01*
X136672801Y-98941943D01*
X136672802Y-98941944D01*
X136822471Y-99034261D01*
X136989396Y-99089574D01*
X137092425Y-99100100D01*
X137680174Y-99100099D01*
X137783204Y-99089574D01*
X137950129Y-99034261D01*
X138099798Y-98941944D01*
X138224144Y-98817598D01*
X138316461Y-98667929D01*
X138371774Y-98501004D01*
X138382300Y-98397975D01*
X138382299Y-97385226D01*
X138371774Y-97282196D01*
X138316461Y-97115271D01*
X138224144Y-96965602D01*
X138224143Y-96965601D01*
X138224138Y-96965595D01*
X138099804Y-96841261D01*
X138094043Y-96836706D01*
X138095991Y-96834242D01*
X138057944Y-96791893D01*
X138045600Y-96737503D01*
X138045600Y-96559669D01*
X138065602Y-96491548D01*
X138105454Y-96452428D01*
X138109585Y-96449879D01*
X138148252Y-96426030D01*
X138273630Y-96300652D01*
X138366715Y-96149738D01*
X138422487Y-95981426D01*
X138433100Y-95877545D01*
X138433099Y-94876456D01*
X138422487Y-94772574D01*
X138366715Y-94604262D01*
X138273630Y-94453348D01*
X138273629Y-94453347D01*
X138273624Y-94453341D01*
X138148258Y-94327975D01*
X138148252Y-94327970D01*
X137997338Y-94234885D01*
X137913182Y-94206999D01*
X137829027Y-94179113D01*
X137829020Y-94179112D01*
X137725153Y-94168500D01*
X137099055Y-94168500D01*
X136995174Y-94179112D01*
X136826861Y-94234885D01*
X136675947Y-94327970D01*
X136675941Y-94327975D01*
X136588341Y-94415576D01*
X136526029Y-94449602D01*
X136455214Y-94444537D01*
X136410151Y-94415576D01*
X136322945Y-94328370D01*
X136322939Y-94328365D01*
X136172125Y-94235342D01*
X136003921Y-94179606D01*
X136003918Y-94179605D01*
X135900116Y-94169000D01*
X135841100Y-94169000D01*
X135841100Y-95505000D01*
X135821098Y-95573121D01*
X135767442Y-95619614D01*
X135715100Y-95631000D01*
X134514409Y-95631000D01*
X134514409Y-95627709D01*
X134468932Y-95624441D01*
X134412112Y-95581874D01*
X134396599Y-95554622D01*
X134339144Y-95415912D01*
X134339138Y-95415903D01*
X134339137Y-95415899D01*
X134224413Y-95217191D01*
X134224408Y-95217184D01*
X134084726Y-95035147D01*
X134084707Y-95035126D01*
X133926064Y-94876483D01*
X134566600Y-94876483D01*
X134566600Y-95123000D01*
X135333100Y-95123000D01*
X135333100Y-94169000D01*
X135274083Y-94169000D01*
X135170281Y-94179605D01*
X135170278Y-94179606D01*
X135002074Y-94235342D01*
X134851260Y-94328365D01*
X134851254Y-94328370D01*
X134725970Y-94453654D01*
X134725965Y-94453660D01*
X134632942Y-94604474D01*
X134577206Y-94772678D01*
X134577205Y-94772681D01*
X134566600Y-94876483D01*
X133926064Y-94876483D01*
X133922473Y-94872892D01*
X133922452Y-94872873D01*
X133740415Y-94733191D01*
X133740408Y-94733186D01*
X133541700Y-94618462D01*
X133541692Y-94618458D01*
X133541688Y-94618456D01*
X133329687Y-94530642D01*
X133108038Y-94471252D01*
X133108031Y-94471250D01*
X132880536Y-94441300D01*
X132880534Y-94441300D01*
X132651066Y-94441300D01*
X132651063Y-94441300D01*
X132423568Y-94471250D01*
X132201913Y-94530642D01*
X132023668Y-94604474D01*
X131989910Y-94618457D01*
X131989899Y-94618462D01*
X131791191Y-94733186D01*
X131791184Y-94733191D01*
X131609147Y-94872873D01*
X131609126Y-94872892D01*
X131446892Y-95035126D01*
X131446873Y-95035147D01*
X131307191Y-95217184D01*
X131307186Y-95217191D01*
X131192462Y-95415899D01*
X131192457Y-95415910D01*
X131192456Y-95415912D01*
X131104642Y-95627913D01*
X131045250Y-95849568D01*
X131015300Y-96077063D01*
X131015300Y-96306536D01*
X131045250Y-96534031D01*
X131052120Y-96559669D01*
X131104642Y-96755687D01*
X131192456Y-96967688D01*
X131192457Y-96967689D01*
X131192462Y-96967700D01*
X131307186Y-97166408D01*
X131307191Y-97166415D01*
X131446873Y-97348452D01*
X131446892Y-97348473D01*
X131609126Y-97510707D01*
X131609147Y-97510726D01*
X131791184Y-97650408D01*
X131791191Y-97650413D01*
X131989899Y-97765137D01*
X131989903Y-97765138D01*
X131989912Y-97765144D01*
X132201913Y-97852958D01*
X132423562Y-97912348D01*
X132423566Y-97912348D01*
X132423568Y-97912349D01*
X132482198Y-97920067D01*
X132651066Y-97942300D01*
X132651073Y-97942300D01*
X132880527Y-97942300D01*
X132880534Y-97942300D01*
X133086145Y-97915230D01*
X133108031Y-97912349D01*
X133108031Y-97912348D01*
X133108038Y-97912348D01*
X133329687Y-97852958D01*
X133541688Y-97765144D01*
X133740412Y-97650411D01*
X133922461Y-97510719D01*
X134084719Y-97348461D01*
X134224411Y-97166412D01*
X134339144Y-96967688D01*
X134426958Y-96755687D01*
X134486348Y-96534038D01*
X134508062Y-96369101D01*
X134536784Y-96304176D01*
X134596049Y-96265084D01*
X134667041Y-96264239D01*
X134722079Y-96296454D01*
X134851254Y-96425629D01*
X134851263Y-96425636D01*
X134995881Y-96514837D01*
X135043360Y-96567623D01*
X135054763Y-96637697D01*
X135026471Y-96702813D01*
X134969371Y-96741682D01*
X134947471Y-96748939D01*
X134797801Y-96841256D01*
X134797795Y-96841261D01*
X134673461Y-96965595D01*
X134673456Y-96965601D01*
X134581139Y-97115270D01*
X134525825Y-97282200D01*
X134515300Y-97385216D01*
X134515300Y-97949123D01*
X134495298Y-98017244D01*
X134479122Y-98037486D01*
X134301070Y-98218478D01*
X133892199Y-98634100D01*
X133883578Y-98642863D01*
X133821546Y-98677397D01*
X133793756Y-98680500D01*
X128119580Y-98680500D01*
X128051459Y-98660498D01*
X128004966Y-98606842D01*
X127994862Y-98536568D01*
X128015648Y-98485357D01*
X128015138Y-98485063D01*
X128017260Y-98481386D01*
X128017646Y-98480437D01*
X128018433Y-98479351D01*
X128018440Y-98479344D01*
X128113927Y-98313956D01*
X128172942Y-98132328D01*
X128192904Y-97942400D01*
X128172942Y-97752472D01*
X128113927Y-97570844D01*
X128018440Y-97405456D01*
X128018438Y-97405454D01*
X128018434Y-97405448D01*
X127890655Y-97263535D01*
X127736152Y-97151282D01*
X127561688Y-97073606D01*
X127374887Y-97033900D01*
X127183913Y-97033900D01*
X126997111Y-97073606D01*
X126822647Y-97151282D01*
X126734758Y-97215138D01*
X126667890Y-97238997D01*
X126598739Y-97222916D01*
X126571602Y-97202297D01*
X124888494Y-95519189D01*
X124854468Y-95456877D01*
X124851589Y-95430094D01*
X124851589Y-93090597D01*
X126859600Y-93090597D01*
X126866105Y-93151093D01*
X126917155Y-93287964D01*
X126917155Y-93287965D01*
X127004695Y-93404904D01*
X127121634Y-93492444D01*
X127258506Y-93543494D01*
X127319002Y-93549999D01*
X127319015Y-93550000D01*
X127863600Y-93550000D01*
X128371600Y-93550000D01*
X128916185Y-93550000D01*
X128916197Y-93549999D01*
X128976693Y-93543494D01*
X129113564Y-93492444D01*
X129113565Y-93492444D01*
X129230504Y-93404904D01*
X129318044Y-93287965D01*
X129318044Y-93287964D01*
X129369094Y-93151093D01*
X129375599Y-93090597D01*
X129375600Y-93090585D01*
X129375600Y-92546000D01*
X128371600Y-92546000D01*
X128371600Y-93550000D01*
X127863600Y-93550000D01*
X127863600Y-92546000D01*
X126859600Y-92546000D01*
X126859600Y-93090597D01*
X124851589Y-93090597D01*
X124851589Y-92422352D01*
X131507299Y-92422352D01*
X131517912Y-92526221D01*
X131517912Y-92526223D01*
X131517913Y-92526225D01*
X131573685Y-92694538D01*
X131594287Y-92727938D01*
X131666770Y-92845451D01*
X131666775Y-92845457D01*
X131792142Y-92970824D01*
X131792148Y-92970829D01*
X131792149Y-92970830D01*
X131943062Y-93063915D01*
X132111375Y-93119687D01*
X132139706Y-93122581D01*
X132215248Y-93130300D01*
X132215256Y-93130300D01*
X133316352Y-93130300D01*
X133385598Y-93123224D01*
X133420225Y-93119687D01*
X133508015Y-93090597D01*
X135013000Y-93090597D01*
X135019505Y-93151093D01*
X135070555Y-93287964D01*
X135070555Y-93287965D01*
X135158095Y-93404904D01*
X135275034Y-93492444D01*
X135411906Y-93543494D01*
X135472402Y-93549999D01*
X135472415Y-93550000D01*
X136017000Y-93550000D01*
X136525000Y-93550000D01*
X137069585Y-93550000D01*
X137069597Y-93549999D01*
X137130093Y-93543494D01*
X137266964Y-93492444D01*
X137266965Y-93492444D01*
X137383904Y-93404904D01*
X137471444Y-93287965D01*
X137471444Y-93287964D01*
X137522494Y-93151093D01*
X137528999Y-93090597D01*
X137529000Y-93090585D01*
X137529000Y-93065197D01*
X142023400Y-93065197D01*
X142029905Y-93125693D01*
X142080955Y-93262564D01*
X142080955Y-93262565D01*
X142168495Y-93379504D01*
X142285434Y-93467044D01*
X142422306Y-93518094D01*
X142482802Y-93524599D01*
X142482815Y-93524600D01*
X143027400Y-93524600D01*
X143535400Y-93524600D01*
X144079985Y-93524600D01*
X144079997Y-93524599D01*
X144140493Y-93518094D01*
X144277364Y-93467044D01*
X144277365Y-93467044D01*
X144394304Y-93379504D01*
X144481844Y-93262565D01*
X144481844Y-93262564D01*
X144532894Y-93125693D01*
X144539399Y-93065197D01*
X144539400Y-93065185D01*
X144539400Y-92520600D01*
X143535400Y-92520600D01*
X143535400Y-93524600D01*
X143027400Y-93524600D01*
X143027400Y-92520600D01*
X142023400Y-92520600D01*
X142023400Y-93065197D01*
X137529000Y-93065197D01*
X137529000Y-92546000D01*
X136525000Y-92546000D01*
X136525000Y-93550000D01*
X136017000Y-93550000D01*
X136017000Y-92546000D01*
X135013000Y-92546000D01*
X135013000Y-93090597D01*
X133508015Y-93090597D01*
X133588538Y-93063915D01*
X133739451Y-92970830D01*
X133864830Y-92845451D01*
X133957915Y-92694538D01*
X134013687Y-92526225D01*
X134017224Y-92491598D01*
X134024300Y-92422352D01*
X134024300Y-91493402D01*
X135013000Y-91493402D01*
X135013000Y-92038000D01*
X136017000Y-92038000D01*
X136525000Y-92038000D01*
X137529000Y-92038000D01*
X137529000Y-91493414D01*
X137528999Y-91493402D01*
X137526268Y-91468002D01*
X142023400Y-91468002D01*
X142023400Y-92012600D01*
X143027400Y-92012600D01*
X143535400Y-92012600D01*
X144539400Y-92012600D01*
X144539400Y-91468014D01*
X144539399Y-91468002D01*
X144532894Y-91407506D01*
X144481844Y-91270635D01*
X144481844Y-91270634D01*
X144394304Y-91153695D01*
X144277365Y-91066155D01*
X144273488Y-91064709D01*
X146104500Y-91064709D01*
X146104500Y-91307290D01*
X146136160Y-91547782D01*
X146198944Y-91782095D01*
X146198945Y-91782097D01*
X146198946Y-91782100D01*
X146291776Y-92006212D01*
X146291777Y-92006213D01*
X146291782Y-92006224D01*
X146413061Y-92216285D01*
X146413063Y-92216288D01*
X146413064Y-92216289D01*
X146560735Y-92408738D01*
X146560739Y-92408742D01*
X146560744Y-92408748D01*
X146732251Y-92580255D01*
X146732256Y-92580259D01*
X146732262Y-92580265D01*
X146924711Y-92727936D01*
X146924714Y-92727938D01*
X147134775Y-92849217D01*
X147134779Y-92849218D01*
X147134788Y-92849224D01*
X147358900Y-92942054D01*
X147593211Y-93004838D01*
X147593215Y-93004838D01*
X147593217Y-93004839D01*
X147655202Y-93012999D01*
X147833712Y-93036500D01*
X147833719Y-93036500D01*
X148076281Y-93036500D01*
X148076288Y-93036500D01*
X148293637Y-93007885D01*
X148316782Y-93004839D01*
X148316782Y-93004838D01*
X148316789Y-93004838D01*
X148551100Y-92942054D01*
X148775212Y-92849224D01*
X148985289Y-92727936D01*
X149177738Y-92580265D01*
X149349265Y-92408738D01*
X149496936Y-92216289D01*
X149618224Y-92006212D01*
X149711054Y-91782100D01*
X149773838Y-91547789D01*
X149805500Y-91307288D01*
X149805500Y-91064712D01*
X149773838Y-90824211D01*
X149711054Y-90589900D01*
X149618224Y-90365788D01*
X149618218Y-90365779D01*
X149618217Y-90365775D01*
X149496938Y-90155714D01*
X149481125Y-90135106D01*
X149349265Y-89963262D01*
X149349259Y-89963256D01*
X149349255Y-89963251D01*
X149177748Y-89791744D01*
X149177742Y-89791739D01*
X149177738Y-89791735D01*
X148985289Y-89644064D01*
X148985288Y-89644063D01*
X148985285Y-89644061D01*
X148775224Y-89522782D01*
X148775216Y-89522778D01*
X148775212Y-89522776D01*
X148551100Y-89429946D01*
X148551097Y-89429945D01*
X148551095Y-89429944D01*
X148316782Y-89367160D01*
X148076290Y-89335500D01*
X148076288Y-89335500D01*
X147833712Y-89335500D01*
X147833709Y-89335500D01*
X147593217Y-89367160D01*
X147358904Y-89429944D01*
X147358900Y-89429946D01*
X147181446Y-89503450D01*
X147134786Y-89522777D01*
X147134775Y-89522782D01*
X146924714Y-89644061D01*
X146732262Y-89791735D01*
X146732251Y-89791744D01*
X146560744Y-89963251D01*
X146560735Y-89963262D01*
X146413061Y-90155714D01*
X146291782Y-90365775D01*
X146291777Y-90365786D01*
X146198946Y-90589900D01*
X146198944Y-90589904D01*
X146136160Y-90824217D01*
X146104500Y-91064709D01*
X144273488Y-91064709D01*
X144140493Y-91015105D01*
X144079997Y-91008600D01*
X143535400Y-91008600D01*
X143535400Y-92012600D01*
X143027400Y-92012600D01*
X143027400Y-91008600D01*
X142482802Y-91008600D01*
X142422306Y-91015105D01*
X142285435Y-91066155D01*
X142285434Y-91066155D01*
X142168495Y-91153695D01*
X142080955Y-91270634D01*
X142080955Y-91270635D01*
X142029905Y-91407506D01*
X142023400Y-91468002D01*
X137526268Y-91468002D01*
X137522494Y-91432906D01*
X137471444Y-91296035D01*
X137471444Y-91296034D01*
X137383904Y-91179095D01*
X137266965Y-91091555D01*
X137130093Y-91040505D01*
X137069597Y-91034000D01*
X136525000Y-91034000D01*
X136525000Y-92038000D01*
X136017000Y-92038000D01*
X136017000Y-91034000D01*
X135472402Y-91034000D01*
X135411906Y-91040505D01*
X135275035Y-91091555D01*
X135275034Y-91091555D01*
X135158095Y-91179095D01*
X135070555Y-91296034D01*
X135070555Y-91296035D01*
X135019505Y-91432906D01*
X135013000Y-91493402D01*
X134024300Y-91493402D01*
X134024300Y-91321247D01*
X134013687Y-91217378D01*
X134013687Y-91217375D01*
X133957915Y-91049062D01*
X133864830Y-90898149D01*
X133864829Y-90898148D01*
X133864824Y-90898142D01*
X133739457Y-90772775D01*
X133739451Y-90772770D01*
X133588538Y-90679685D01*
X133420225Y-90623913D01*
X133420223Y-90623912D01*
X133420221Y-90623912D01*
X133316352Y-90613300D01*
X133316344Y-90613300D01*
X132215256Y-90613300D01*
X132215248Y-90613300D01*
X132111378Y-90623912D01*
X131943062Y-90679685D01*
X131943060Y-90679686D01*
X131792148Y-90772770D01*
X131792142Y-90772775D01*
X131666775Y-90898142D01*
X131666770Y-90898148D01*
X131573686Y-91049060D01*
X131573685Y-91049062D01*
X131517912Y-91217378D01*
X131507300Y-91321247D01*
X131507300Y-92422352D01*
X131507299Y-92422352D01*
X124851589Y-92422352D01*
X124851589Y-91493402D01*
X126859600Y-91493402D01*
X126859600Y-92038000D01*
X127863600Y-92038000D01*
X128371600Y-92038000D01*
X129375600Y-92038000D01*
X129375600Y-91493414D01*
X129375599Y-91493402D01*
X129369094Y-91432906D01*
X129318044Y-91296035D01*
X129318044Y-91296034D01*
X129230504Y-91179095D01*
X129113565Y-91091555D01*
X128976693Y-91040505D01*
X128916197Y-91034000D01*
X128371600Y-91034000D01*
X128371600Y-92038000D01*
X127863600Y-92038000D01*
X127863600Y-91034000D01*
X127319002Y-91034000D01*
X127258506Y-91040505D01*
X127121635Y-91091555D01*
X127121634Y-91091555D01*
X127004695Y-91179095D01*
X126917155Y-91296034D01*
X126917155Y-91296035D01*
X126866105Y-91432906D01*
X126859600Y-91493402D01*
X124851589Y-91493402D01*
X124851589Y-88871800D01*
X131502493Y-88871800D01*
X131506235Y-88914578D01*
X131521685Y-89091170D01*
X131578679Y-89303873D01*
X131578681Y-89303879D01*
X131637466Y-89429944D01*
X131671744Y-89503454D01*
X131770199Y-89644061D01*
X131798051Y-89683838D01*
X131798054Y-89683842D01*
X131953757Y-89839545D01*
X131953761Y-89839548D01*
X131953762Y-89839549D01*
X132134146Y-89965856D01*
X132333724Y-90058920D01*
X132546429Y-90115915D01*
X132765800Y-90135107D01*
X132985171Y-90115915D01*
X133197876Y-90058920D01*
X133397454Y-89965856D01*
X133577838Y-89839549D01*
X133733549Y-89683838D01*
X133859856Y-89503454D01*
X133952920Y-89303876D01*
X134009915Y-89091171D01*
X134029107Y-88871800D01*
X134009915Y-88652429D01*
X133952920Y-88439724D01*
X133859856Y-88240147D01*
X133733549Y-88059762D01*
X133577838Y-87904051D01*
X133397454Y-87777744D01*
X133224061Y-87696890D01*
X133197879Y-87684681D01*
X133197873Y-87684679D01*
X133107978Y-87660591D01*
X132985171Y-87627685D01*
X132765800Y-87608493D01*
X132546429Y-87627685D01*
X132333726Y-87684679D01*
X132333720Y-87684681D01*
X132134146Y-87777744D01*
X131953765Y-87904048D01*
X131953759Y-87904053D01*
X131798053Y-88059759D01*
X131798048Y-88059765D01*
X131671744Y-88240146D01*
X131578681Y-88439720D01*
X131578679Y-88439726D01*
X131574839Y-88454058D01*
X131521685Y-88652429D01*
X131502493Y-88871800D01*
X124851589Y-88871800D01*
X124851589Y-85899350D01*
X124871591Y-85831229D01*
X124925247Y-85784736D01*
X124995521Y-85774632D01*
X125060101Y-85804126D01*
X125087888Y-85842665D01*
X125089481Y-85841814D01*
X125092399Y-85847274D01*
X125126594Y-85898450D01*
X125161729Y-85951033D01*
X125669729Y-86459033D01*
X125757967Y-86547271D01*
X125861725Y-86616600D01*
X125977015Y-86664355D01*
X126099406Y-86688700D01*
X131359943Y-86688700D01*
X131376224Y-86690304D01*
X131376245Y-86690093D01*
X131382408Y-86690699D01*
X131382409Y-86690700D01*
X131382410Y-86690700D01*
X134770390Y-86690700D01*
X134770391Y-86690700D01*
X134893169Y-86666278D01*
X135008822Y-86618373D01*
X135112908Y-86548825D01*
X135201425Y-86460308D01*
X135201427Y-86460303D01*
X135205350Y-86455525D01*
X135205513Y-86455659D01*
X135215893Y-86443009D01*
X135871500Y-85787404D01*
X135933812Y-85753379D01*
X135960595Y-85750500D01*
X136757319Y-85750500D01*
X136825440Y-85770502D01*
X136866438Y-85813499D01*
X136878838Y-85834977D01*
X136878843Y-85834984D01*
X137006622Y-85976897D01*
X137043398Y-86003616D01*
X137161126Y-86089151D01*
X137335590Y-86166827D01*
X137522391Y-86206533D01*
X137713365Y-86206533D01*
X137900166Y-86166827D01*
X138074630Y-86089151D01*
X138229131Y-85976899D01*
X138252421Y-85951033D01*
X138356912Y-85834984D01*
X138356913Y-85834982D01*
X138356918Y-85834977D01*
X138452405Y-85669589D01*
X138511420Y-85487961D01*
X138528453Y-85325899D01*
X138555465Y-85260245D01*
X138564656Y-85249986D01*
X138675640Y-85139004D01*
X138737953Y-85104979D01*
X138764735Y-85102100D01*
X141896900Y-85102100D01*
X141965021Y-85122102D01*
X142011514Y-85175758D01*
X142022900Y-85228100D01*
X142022900Y-85265249D01*
X142029409Y-85325796D01*
X142029411Y-85325804D01*
X142080510Y-85462802D01*
X142080512Y-85462807D01*
X142168138Y-85579861D01*
X142285192Y-85667487D01*
X142285194Y-85667488D01*
X142285196Y-85667489D01*
X142338957Y-85687541D01*
X142422195Y-85718588D01*
X142422203Y-85718590D01*
X142482750Y-85725099D01*
X142482755Y-85725099D01*
X142482762Y-85725100D01*
X142482768Y-85725100D01*
X144080032Y-85725100D01*
X144080038Y-85725100D01*
X144080045Y-85725099D01*
X144080049Y-85725099D01*
X144140596Y-85718590D01*
X144140599Y-85718589D01*
X144140601Y-85718589D01*
X144277604Y-85667489D01*
X144296695Y-85653198D01*
X144394661Y-85579861D01*
X144482287Y-85462807D01*
X144482287Y-85462806D01*
X144482289Y-85462804D01*
X144526360Y-85344645D01*
X144533388Y-85325804D01*
X144533390Y-85325796D01*
X144539899Y-85265249D01*
X144539900Y-85265232D01*
X144539900Y-83667967D01*
X144539899Y-83667950D01*
X144533390Y-83607403D01*
X144533388Y-83607395D01*
X144482289Y-83470397D01*
X144482287Y-83470392D01*
X144394661Y-83353338D01*
X144277607Y-83265712D01*
X144277602Y-83265710D01*
X144140604Y-83214611D01*
X144140596Y-83214609D01*
X144080049Y-83208100D01*
X144080038Y-83208100D01*
X142482762Y-83208100D01*
X142482750Y-83208100D01*
X142422203Y-83214609D01*
X142422195Y-83214611D01*
X142285197Y-83265710D01*
X142285192Y-83265712D01*
X142168138Y-83353338D01*
X142080512Y-83470392D01*
X142080510Y-83470397D01*
X142029411Y-83607395D01*
X142029409Y-83607403D01*
X142022900Y-83667950D01*
X142022900Y-83705100D01*
X142002898Y-83773221D01*
X141949242Y-83819714D01*
X141896900Y-83831100D01*
X138386717Y-83831100D01*
X138263941Y-83855522D01*
X138263936Y-83855524D01*
X138148288Y-83903427D01*
X138044207Y-83972972D01*
X138044200Y-83972977D01*
X137744595Y-84272583D01*
X137682283Y-84306609D01*
X137611468Y-84301544D01*
X137554632Y-84258997D01*
X137529821Y-84192477D01*
X137529500Y-84183488D01*
X137529500Y-83693367D01*
X137529499Y-83693350D01*
X137522990Y-83632803D01*
X137522988Y-83632795D01*
X137471889Y-83495797D01*
X137471887Y-83495792D01*
X137384261Y-83378738D01*
X137267207Y-83291112D01*
X137267202Y-83291110D01*
X137130204Y-83240011D01*
X137130196Y-83240009D01*
X137069649Y-83233500D01*
X137069638Y-83233500D01*
X135472362Y-83233500D01*
X135472350Y-83233500D01*
X135411803Y-83240009D01*
X135411795Y-83240011D01*
X135274797Y-83291110D01*
X135274792Y-83291112D01*
X135157738Y-83378738D01*
X135070112Y-83495792D01*
X135070110Y-83495797D01*
X135019011Y-83632795D01*
X135019009Y-83632803D01*
X135012500Y-83693350D01*
X135012500Y-84802404D01*
X134992498Y-84870525D01*
X134975596Y-84891499D01*
X134484301Y-85382795D01*
X134421988Y-85416820D01*
X134395205Y-85419700D01*
X134084929Y-85419700D01*
X134016808Y-85399698D01*
X133970315Y-85346042D01*
X133960211Y-85275768D01*
X133977101Y-85228515D01*
X133977352Y-85228100D01*
X134047227Y-85112513D01*
X134098413Y-84948249D01*
X134104900Y-84876865D01*
X134104899Y-84362336D01*
X134098413Y-84290951D01*
X134047227Y-84126687D01*
X133958216Y-83979445D01*
X133958215Y-83979444D01*
X133958211Y-83979439D01*
X133862467Y-83883695D01*
X133828441Y-83821383D01*
X133833506Y-83750568D01*
X133862467Y-83705505D01*
X133958211Y-83609760D01*
X133958216Y-83609755D01*
X134047227Y-83462513D01*
X134098413Y-83298249D01*
X134104900Y-83226865D01*
X134104899Y-82712336D01*
X134098413Y-82640951D01*
X134047227Y-82476687D01*
X133958216Y-82329445D01*
X133958215Y-82329444D01*
X133958211Y-82329439D01*
X133927767Y-82298995D01*
X133893741Y-82236683D01*
X133898806Y-82165868D01*
X133941353Y-82109032D01*
X134007873Y-82084221D01*
X134016862Y-82083900D01*
X134224632Y-82083900D01*
X134224638Y-82083900D01*
X134224645Y-82083899D01*
X134224649Y-82083899D01*
X134285196Y-82077390D01*
X134285197Y-82077389D01*
X134285201Y-82077389D01*
X134316966Y-82065540D01*
X134387779Y-82060474D01*
X134405025Y-82065537D01*
X134436799Y-82077389D01*
X134436801Y-82077389D01*
X134436803Y-82077390D01*
X134497350Y-82083899D01*
X134497355Y-82083899D01*
X134497362Y-82083900D01*
X134497368Y-82083900D01*
X135494632Y-82083900D01*
X135494638Y-82083900D01*
X135494645Y-82083899D01*
X135494649Y-82083899D01*
X135555196Y-82077390D01*
X135555197Y-82077389D01*
X135555201Y-82077389D01*
X135586966Y-82065540D01*
X135657779Y-82060474D01*
X135675025Y-82065537D01*
X135706799Y-82077389D01*
X135706801Y-82077389D01*
X135706803Y-82077390D01*
X135767350Y-82083899D01*
X135767355Y-82083899D01*
X135767362Y-82083900D01*
X135767368Y-82083900D01*
X136764632Y-82083900D01*
X136764638Y-82083900D01*
X136764645Y-82083899D01*
X136764649Y-82083899D01*
X136825196Y-82077390D01*
X136825197Y-82077389D01*
X136825201Y-82077389D01*
X136856966Y-82065540D01*
X136927779Y-82060474D01*
X136945025Y-82065537D01*
X136976799Y-82077389D01*
X136976801Y-82077389D01*
X136976803Y-82077390D01*
X137037350Y-82083899D01*
X137037355Y-82083899D01*
X137037362Y-82083900D01*
X137037368Y-82083900D01*
X138034632Y-82083900D01*
X138034638Y-82083900D01*
X138034645Y-82083899D01*
X138034649Y-82083899D01*
X138095196Y-82077390D01*
X138095197Y-82077389D01*
X138095201Y-82077389D01*
X138126966Y-82065540D01*
X138197779Y-82060474D01*
X138215025Y-82065537D01*
X138246799Y-82077389D01*
X138246801Y-82077389D01*
X138246803Y-82077390D01*
X138307350Y-82083899D01*
X138307355Y-82083899D01*
X138307362Y-82083900D01*
X138307368Y-82083900D01*
X139304632Y-82083900D01*
X139304638Y-82083900D01*
X139304645Y-82083899D01*
X139304649Y-82083899D01*
X139365196Y-82077390D01*
X139365197Y-82077389D01*
X139365201Y-82077389D01*
X139396966Y-82065540D01*
X139467779Y-82060474D01*
X139485025Y-82065537D01*
X139516799Y-82077389D01*
X139516801Y-82077389D01*
X139516803Y-82077390D01*
X139577350Y-82083899D01*
X139577355Y-82083899D01*
X139577362Y-82083900D01*
X139577368Y-82083900D01*
X140574632Y-82083900D01*
X140574638Y-82083900D01*
X140574645Y-82083899D01*
X140574649Y-82083899D01*
X140635196Y-82077390D01*
X140635196Y-82077389D01*
X140635201Y-82077389D01*
X140667683Y-82065273D01*
X140738494Y-82060208D01*
X140755746Y-82065273D01*
X140786902Y-82076893D01*
X140786906Y-82076894D01*
X140847402Y-82083399D01*
X140847415Y-82083400D01*
X141092000Y-82083400D01*
X141600000Y-82083400D01*
X141844585Y-82083400D01*
X141844597Y-82083399D01*
X141905093Y-82076894D01*
X142041964Y-82025844D01*
X142041965Y-82025844D01*
X142158904Y-81938304D01*
X142246444Y-81821365D01*
X142246444Y-81821364D01*
X142297494Y-81684493D01*
X142303999Y-81623997D01*
X142304000Y-81623985D01*
X142304000Y-81079400D01*
X141600000Y-81079400D01*
X141600000Y-82083400D01*
X141092000Y-82083400D01*
X141092000Y-80571400D01*
X141600000Y-80571400D01*
X142304000Y-80571400D01*
X142304000Y-80026814D01*
X142303999Y-80026802D01*
X142297494Y-79966306D01*
X142246444Y-79829435D01*
X142246444Y-79829434D01*
X142158904Y-79712495D01*
X142041965Y-79624955D01*
X141905093Y-79573905D01*
X141844597Y-79567400D01*
X141600000Y-79567400D01*
X141600000Y-80571400D01*
X141092000Y-80571400D01*
X141092000Y-79567400D01*
X140973236Y-79567400D01*
X140905115Y-79547398D01*
X140858622Y-79493742D01*
X140848518Y-79423468D01*
X140864117Y-79378400D01*
X140898527Y-79318800D01*
X140915527Y-79289356D01*
X140974542Y-79107728D01*
X140994504Y-78917800D01*
X140974542Y-78727872D01*
X140915527Y-78546244D01*
X140820040Y-78380856D01*
X140820038Y-78380854D01*
X140820034Y-78380848D01*
X140692255Y-78238935D01*
X140537752Y-78126682D01*
X140363288Y-78049006D01*
X140176487Y-78009300D01*
X140089259Y-78009300D01*
X140021138Y-77989298D01*
X139974645Y-77935642D01*
X139964541Y-77865368D01*
X139980140Y-77820300D01*
X139983940Y-77813718D01*
X140026527Y-77739956D01*
X140085542Y-77558328D01*
X140105504Y-77368400D01*
X140085542Y-77178472D01*
X140026527Y-76996844D01*
X139931040Y-76831456D01*
X139931038Y-76831454D01*
X139931034Y-76831448D01*
X139803255Y-76689535D01*
X139648752Y-76577282D01*
X139474288Y-76499606D01*
X139287487Y-76459900D01*
X139096513Y-76459900D01*
X138909711Y-76499606D01*
X138735247Y-76577282D01*
X138580744Y-76689535D01*
X138452965Y-76831448D01*
X138452958Y-76831458D01*
X138357476Y-76996838D01*
X138357473Y-76996845D01*
X138298457Y-77178472D01*
X138278496Y-77368400D01*
X138298457Y-77558327D01*
X138320564Y-77626364D01*
X138357473Y-77739956D01*
X138361079Y-77746201D01*
X138452958Y-77905341D01*
X138452965Y-77905351D01*
X138580744Y-78047264D01*
X138580747Y-78047266D01*
X138735248Y-78159518D01*
X138909712Y-78237194D01*
X139096513Y-78276900D01*
X139183741Y-78276900D01*
X139251862Y-78296902D01*
X139298355Y-78350558D01*
X139308459Y-78420832D01*
X139292860Y-78465900D01*
X139246476Y-78546238D01*
X139246473Y-78546245D01*
X139187457Y-78727872D01*
X139167496Y-78917800D01*
X139187457Y-79107727D01*
X139208569Y-79172701D01*
X139246473Y-79289356D01*
X139246476Y-79289361D01*
X139297594Y-79377900D01*
X139314332Y-79446895D01*
X139291112Y-79513987D01*
X139235305Y-79557874D01*
X139188475Y-79566900D01*
X138307350Y-79566900D01*
X138246804Y-79573409D01*
X138246801Y-79573410D01*
X138215030Y-79585260D01*
X138144214Y-79590323D01*
X138126970Y-79585260D01*
X138095198Y-79573410D01*
X138095195Y-79573409D01*
X138034649Y-79566900D01*
X138034638Y-79566900D01*
X137037362Y-79566900D01*
X137037350Y-79566900D01*
X136976804Y-79573409D01*
X136976801Y-79573410D01*
X136945030Y-79585260D01*
X136874214Y-79590323D01*
X136856970Y-79585260D01*
X136825198Y-79573410D01*
X136825195Y-79573409D01*
X136764649Y-79566900D01*
X136764638Y-79566900D01*
X135767362Y-79566900D01*
X135767350Y-79566900D01*
X135706804Y-79573409D01*
X135706801Y-79573410D01*
X135675030Y-79585260D01*
X135604214Y-79590323D01*
X135586970Y-79585260D01*
X135555198Y-79573410D01*
X135555195Y-79573409D01*
X135494649Y-79566900D01*
X135494638Y-79566900D01*
X134801325Y-79566900D01*
X134733204Y-79546898D01*
X134686711Y-79493242D01*
X134676607Y-79422968D01*
X134692206Y-79377900D01*
X134726327Y-79318800D01*
X134743327Y-79289356D01*
X134802342Y-79107728D01*
X134822304Y-78917800D01*
X134802342Y-78727872D01*
X134743327Y-78546244D01*
X134647840Y-78380856D01*
X134647838Y-78380854D01*
X134647834Y-78380848D01*
X134520055Y-78238935D01*
X134365552Y-78126682D01*
X134191088Y-78049006D01*
X134004287Y-78009300D01*
X133813313Y-78009300D01*
X133626511Y-78049006D01*
X133452047Y-78126682D01*
X133297544Y-78238935D01*
X133169765Y-78380848D01*
X133169758Y-78380858D01*
X133074276Y-78546238D01*
X133074273Y-78546245D01*
X133015257Y-78727872D01*
X132995296Y-78917800D01*
X133015257Y-79107727D01*
X133036369Y-79172701D01*
X133074273Y-79289356D01*
X133074276Y-79289361D01*
X133129025Y-79384190D01*
X133145763Y-79453186D01*
X133122542Y-79520277D01*
X133066735Y-79564164D01*
X133006439Y-79572468D01*
X132954652Y-79566901D01*
X132954643Y-79566900D01*
X132954638Y-79566900D01*
X131957362Y-79566900D01*
X131957350Y-79566900D01*
X131896804Y-79573409D01*
X131896801Y-79573410D01*
X131865030Y-79585260D01*
X131794214Y-79590323D01*
X131776970Y-79585260D01*
X131745198Y-79573410D01*
X131745195Y-79573409D01*
X131684649Y-79566900D01*
X131684638Y-79566900D01*
X130687362Y-79566900D01*
X130687350Y-79566900D01*
X130626804Y-79573409D01*
X130626801Y-79573410D01*
X130595030Y-79585260D01*
X130524214Y-79590323D01*
X130506970Y-79585260D01*
X130475198Y-79573410D01*
X130475195Y-79573409D01*
X130414649Y-79566900D01*
X130414638Y-79566900D01*
X129417362Y-79566900D01*
X129417350Y-79566900D01*
X129356803Y-79573409D01*
X129356795Y-79573411D01*
X129219797Y-79624510D01*
X129219792Y-79624512D01*
X129102738Y-79712138D01*
X129015112Y-79829192D01*
X129015110Y-79829197D01*
X128964011Y-79966195D01*
X128964009Y-79966203D01*
X128957500Y-80026750D01*
X128957500Y-81624049D01*
X128964009Y-81684596D01*
X128964011Y-81684604D01*
X129015110Y-81821602D01*
X129015112Y-81821607D01*
X129102738Y-81938661D01*
X129219792Y-82026287D01*
X129219794Y-82026288D01*
X129219796Y-82026289D01*
X129278875Y-82048324D01*
X129356795Y-82077388D01*
X129356803Y-82077390D01*
X129417350Y-82083899D01*
X129417355Y-82083899D01*
X129417362Y-82083900D01*
X129580780Y-82083900D01*
X129648901Y-82103902D01*
X129695394Y-82157558D01*
X129705498Y-82227832D01*
X129676004Y-82292412D01*
X129674416Y-82294210D01*
X129549765Y-82432648D01*
X129549758Y-82432658D01*
X129450971Y-82603763D01*
X129448888Y-82602560D01*
X129409986Y-82648320D01*
X129342057Y-82668962D01*
X129273750Y-82649603D01*
X129226754Y-82596387D01*
X129221037Y-82581905D01*
X129180727Y-82457844D01*
X129085240Y-82292456D01*
X129085238Y-82292454D01*
X129085234Y-82292448D01*
X128957455Y-82150535D01*
X128802952Y-82038282D01*
X128628488Y-81960606D01*
X128441687Y-81920900D01*
X128250713Y-81920900D01*
X128063911Y-81960606D01*
X127889447Y-82038282D01*
X127734944Y-82150535D01*
X127607165Y-82292448D01*
X127607158Y-82292458D01*
X127526215Y-82432656D01*
X127511673Y-82457844D01*
X127505550Y-82476688D01*
X127452657Y-82639472D01*
X127432696Y-82829400D01*
X127452657Y-83019329D01*
X127468655Y-83068564D01*
X127470682Y-83139532D01*
X127434020Y-83200330D01*
X127370307Y-83231655D01*
X127348822Y-83233500D01*
X127318950Y-83233500D01*
X127258403Y-83240009D01*
X127258395Y-83240011D01*
X127121397Y-83291110D01*
X127121392Y-83291112D01*
X127004338Y-83378738D01*
X126916712Y-83495792D01*
X126916710Y-83495797D01*
X126865611Y-83632795D01*
X126865609Y-83632803D01*
X126859100Y-83693350D01*
X126859100Y-85294012D01*
X126857823Y-85294012D01*
X126842664Y-85358081D01*
X126791560Y-85407364D01*
X126733190Y-85421700D01*
X126476394Y-85421700D01*
X126408273Y-85401698D01*
X126387299Y-85384795D01*
X126337516Y-85335012D01*
X126303490Y-85272700D01*
X126300611Y-85245917D01*
X126300611Y-80659900D01*
X126320613Y-80591779D01*
X126374269Y-80545286D01*
X126426611Y-80533900D01*
X127684632Y-80533900D01*
X127684638Y-80533900D01*
X127684645Y-80533899D01*
X127684649Y-80533899D01*
X127745196Y-80527390D01*
X127745199Y-80527389D01*
X127745201Y-80527389D01*
X127882204Y-80476289D01*
X127999261Y-80388661D01*
X128086889Y-80271604D01*
X128137989Y-80134601D01*
X128144500Y-80074038D01*
X128144500Y-79076762D01*
X128137990Y-79016204D01*
X128137990Y-79016203D01*
X128137989Y-79016201D01*
X128137989Y-79016199D01*
X128126140Y-78984433D01*
X128121074Y-78913621D01*
X128126137Y-78896374D01*
X128137989Y-78864601D01*
X128138660Y-78858365D01*
X128144499Y-78804049D01*
X128144500Y-78804032D01*
X128144500Y-77806767D01*
X128144499Y-77806750D01*
X128137990Y-77746203D01*
X128137989Y-77746201D01*
X128137989Y-77746199D01*
X128126140Y-77714433D01*
X128121074Y-77643621D01*
X128126137Y-77626374D01*
X128137989Y-77594601D01*
X128144500Y-77534038D01*
X128144500Y-76735730D01*
X128164502Y-76667609D01*
X128218158Y-76621116D01*
X128288432Y-76611012D01*
X128296697Y-76612484D01*
X128479308Y-76651300D01*
X128479313Y-76651300D01*
X128670287Y-76651300D01*
X128857088Y-76611594D01*
X129031552Y-76533918D01*
X129186053Y-76421666D01*
X129212863Y-76391891D01*
X129313834Y-76279751D01*
X129313835Y-76279749D01*
X129313840Y-76279744D01*
X129409327Y-76114356D01*
X129468342Y-75932728D01*
X129488304Y-75742800D01*
X129468342Y-75552872D01*
X129409327Y-75371244D01*
X129313840Y-75205856D01*
X129285838Y-75174757D01*
X129255122Y-75110750D01*
X129263886Y-75040296D01*
X129306328Y-74989387D01*
X129305610Y-74988399D01*
X129310952Y-74984518D01*
X129465453Y-74872266D01*
X129465455Y-74872264D01*
X129593236Y-74730349D01*
X129593237Y-74730346D01*
X129593240Y-74730344D01*
X129604773Y-74710367D01*
X129656153Y-74661374D01*
X129725866Y-74647935D01*
X129791778Y-74674320D01*
X129802988Y-74684270D01*
X131237725Y-76119007D01*
X131271751Y-76181319D01*
X131266686Y-76252134D01*
X131242269Y-76292409D01*
X131216038Y-76321542D01*
X131216037Y-76321544D01*
X131126745Y-76476204D01*
X131120552Y-76486931D01*
X131116434Y-76499606D01*
X131061536Y-76668559D01*
X131041575Y-76858487D01*
X131061536Y-77048414D01*
X131081769Y-77110682D01*
X131120552Y-77230043D01*
X131120555Y-77230048D01*
X131216037Y-77395428D01*
X131216044Y-77395438D01*
X131343823Y-77537351D01*
X131343826Y-77537353D01*
X131498327Y-77649605D01*
X131672791Y-77727281D01*
X131859592Y-77766987D01*
X132050566Y-77766987D01*
X132237367Y-77727281D01*
X132411831Y-77649605D01*
X132566332Y-77537353D01*
X132572733Y-77530244D01*
X132694113Y-77395438D01*
X132694114Y-77395436D01*
X132694119Y-77395431D01*
X132789606Y-77230043D01*
X132848621Y-77048415D01*
X132868583Y-76858487D01*
X132848621Y-76668559D01*
X132789606Y-76486931D01*
X132724186Y-76373621D01*
X132694121Y-76321546D01*
X132694120Y-76321545D01*
X132694119Y-76321543D01*
X132620942Y-76240271D01*
X132590225Y-76176263D01*
X132588579Y-76155961D01*
X132588579Y-75878064D01*
X132588578Y-75878060D01*
X132587694Y-75873614D01*
X132564234Y-75755672D01*
X132545878Y-75711356D01*
X132516480Y-75640382D01*
X132447151Y-75536624D01*
X132447146Y-75536618D01*
X129198926Y-72288400D01*
X130175896Y-72288400D01*
X130195857Y-72478327D01*
X130223572Y-72563621D01*
X130254873Y-72659956D01*
X130258479Y-72666201D01*
X130350358Y-72825341D01*
X130350365Y-72825351D01*
X130478144Y-72967264D01*
X130478147Y-72967266D01*
X130632648Y-73079518D01*
X130807112Y-73157194D01*
X130993913Y-73196900D01*
X131184887Y-73196900D01*
X131371688Y-73157194D01*
X131546152Y-73079518D01*
X131700653Y-72967266D01*
X131700655Y-72967264D01*
X131828434Y-72825351D01*
X131828435Y-72825349D01*
X131828440Y-72825344D01*
X131923927Y-72659956D01*
X131958355Y-72553997D01*
X133708000Y-72553997D01*
X133714505Y-72614493D01*
X133765555Y-72751364D01*
X133765555Y-72751365D01*
X133853095Y-72868304D01*
X133970034Y-72955844D01*
X134106906Y-73006894D01*
X134167402Y-73013399D01*
X134167415Y-73013400D01*
X136062000Y-73013400D01*
X136062000Y-72184400D01*
X136570000Y-72184400D01*
X136570000Y-73013400D01*
X138464585Y-73013400D01*
X138464597Y-73013399D01*
X138525093Y-73006894D01*
X138661964Y-72955844D01*
X138661965Y-72955844D01*
X138778904Y-72868304D01*
X138866444Y-72751365D01*
X138866444Y-72751364D01*
X138917494Y-72614493D01*
X138923999Y-72553997D01*
X138924000Y-72553985D01*
X138924000Y-70659400D01*
X138095000Y-70659400D01*
X138095000Y-71062691D01*
X138111114Y-71078805D01*
X138145140Y-71141117D01*
X138140075Y-71211932D01*
X138111114Y-71256995D01*
X138095000Y-71273108D01*
X138095000Y-72058400D01*
X138074998Y-72126521D01*
X138021342Y-72173014D01*
X137969000Y-72184400D01*
X137183708Y-72184400D01*
X137167595Y-72200514D01*
X137105283Y-72234540D01*
X137034468Y-72229475D01*
X136989405Y-72200514D01*
X136973291Y-72184400D01*
X136570000Y-72184400D01*
X136062000Y-72184400D01*
X135658708Y-72184400D01*
X135642595Y-72200514D01*
X135580283Y-72234540D01*
X135509468Y-72229475D01*
X135464405Y-72200514D01*
X135448291Y-72184400D01*
X134663000Y-72184400D01*
X134594879Y-72164398D01*
X134548386Y-72110742D01*
X134537000Y-72058400D01*
X134537000Y-71910509D01*
X135453500Y-71910509D01*
X135453500Y-71950291D01*
X135468724Y-71987045D01*
X135496855Y-72015176D01*
X135533609Y-72030400D01*
X135573391Y-72030400D01*
X135610145Y-72015176D01*
X135638276Y-71987045D01*
X135653500Y-71950291D01*
X135653500Y-71910509D01*
X136978500Y-71910509D01*
X136978500Y-71950291D01*
X136993724Y-71987045D01*
X137021855Y-72015176D01*
X137058609Y-72030400D01*
X137098391Y-72030400D01*
X137135145Y-72015176D01*
X137163276Y-71987045D01*
X137178500Y-71950291D01*
X137178500Y-71910509D01*
X137163276Y-71873755D01*
X137135145Y-71845624D01*
X137098391Y-71830400D01*
X137058609Y-71830400D01*
X137021855Y-71845624D01*
X136993724Y-71873755D01*
X136978500Y-71910509D01*
X135653500Y-71910509D01*
X135638276Y-71873755D01*
X135610145Y-71845624D01*
X135573391Y-71830400D01*
X135533609Y-71830400D01*
X135496855Y-71845624D01*
X135468724Y-71873755D01*
X135453500Y-71910509D01*
X134537000Y-71910509D01*
X134537000Y-71273110D01*
X134520886Y-71256997D01*
X134486860Y-71194685D01*
X134490198Y-71148009D01*
X134691000Y-71148009D01*
X134691000Y-71187791D01*
X134706224Y-71224545D01*
X134734355Y-71252676D01*
X134771109Y-71267900D01*
X134810891Y-71267900D01*
X134847645Y-71252676D01*
X134875776Y-71224545D01*
X134891000Y-71187791D01*
X134891000Y-71167899D01*
X135150210Y-71167899D01*
X135150210Y-71167901D01*
X135553499Y-71571190D01*
X135553501Y-71571190D01*
X135956790Y-71167901D01*
X135956790Y-71167899D01*
X135936900Y-71148009D01*
X136216000Y-71148009D01*
X136216000Y-71187791D01*
X136231224Y-71224545D01*
X136259355Y-71252676D01*
X136296109Y-71267900D01*
X136335891Y-71267900D01*
X136372645Y-71252676D01*
X136400776Y-71224545D01*
X136416000Y-71187791D01*
X136416000Y-71167899D01*
X136675210Y-71167899D01*
X136675210Y-71167901D01*
X137078499Y-71571190D01*
X137078501Y-71571190D01*
X137481790Y-71167901D01*
X137481790Y-71167899D01*
X137461900Y-71148009D01*
X137741000Y-71148009D01*
X137741000Y-71187791D01*
X137756224Y-71224545D01*
X137784355Y-71252676D01*
X137821109Y-71267900D01*
X137860891Y-71267900D01*
X137897645Y-71252676D01*
X137925776Y-71224545D01*
X137941000Y-71187791D01*
X137941000Y-71148009D01*
X137925776Y-71111255D01*
X137897645Y-71083124D01*
X137860891Y-71067900D01*
X137821109Y-71067900D01*
X137784355Y-71083124D01*
X137756224Y-71111255D01*
X137741000Y-71148009D01*
X137461900Y-71148009D01*
X137078501Y-70764610D01*
X137078499Y-70764610D01*
X136675210Y-71167899D01*
X136416000Y-71167899D01*
X136416000Y-71148009D01*
X136400776Y-71111255D01*
X136372645Y-71083124D01*
X136335891Y-71067900D01*
X136296109Y-71067900D01*
X136259355Y-71083124D01*
X136231224Y-71111255D01*
X136216000Y-71148009D01*
X135936900Y-71148009D01*
X135553501Y-70764610D01*
X135553499Y-70764610D01*
X135150210Y-71167899D01*
X134891000Y-71167899D01*
X134891000Y-71148009D01*
X134875776Y-71111255D01*
X134847645Y-71083124D01*
X134810891Y-71067900D01*
X134771109Y-71067900D01*
X134734355Y-71083124D01*
X134706224Y-71111255D01*
X134691000Y-71148009D01*
X134490198Y-71148009D01*
X134491924Y-71123869D01*
X134520886Y-71078803D01*
X134537000Y-71062689D01*
X134537000Y-70659400D01*
X133708000Y-70659400D01*
X133708000Y-72553997D01*
X131958355Y-72553997D01*
X131982942Y-72478328D01*
X132002904Y-72288400D01*
X131982942Y-72098472D01*
X131923927Y-71916844D01*
X131828440Y-71751456D01*
X131828438Y-71751454D01*
X131828434Y-71751448D01*
X131700655Y-71609535D01*
X131546152Y-71497282D01*
X131371688Y-71419606D01*
X131184887Y-71379900D01*
X130993913Y-71379900D01*
X130807111Y-71419606D01*
X130632647Y-71497282D01*
X130478144Y-71609535D01*
X130350365Y-71751448D01*
X130350358Y-71751458D01*
X130254876Y-71916838D01*
X130254873Y-71916845D01*
X130195857Y-72098472D01*
X130175896Y-72288400D01*
X129198926Y-72288400D01*
X128368857Y-71458331D01*
X128368855Y-71458329D01*
X128265097Y-71389000D01*
X128215685Y-71368533D01*
X128160407Y-71323985D01*
X128137986Y-71256622D01*
X128138628Y-71238656D01*
X128144097Y-71187791D01*
X128144500Y-71184038D01*
X128144500Y-70385509D01*
X135453500Y-70385509D01*
X135453500Y-70425291D01*
X135468724Y-70462045D01*
X135496855Y-70490176D01*
X135533609Y-70505400D01*
X135573391Y-70505400D01*
X135610145Y-70490176D01*
X135638276Y-70462045D01*
X135653500Y-70425291D01*
X135653500Y-70385509D01*
X136978500Y-70385509D01*
X136978500Y-70425291D01*
X136993724Y-70462045D01*
X137021855Y-70490176D01*
X137058609Y-70505400D01*
X137098391Y-70505400D01*
X137135145Y-70490176D01*
X137163276Y-70462045D01*
X137178500Y-70425291D01*
X137178500Y-70385509D01*
X137163276Y-70348755D01*
X137135145Y-70320624D01*
X137098391Y-70305400D01*
X137058609Y-70305400D01*
X137021855Y-70320624D01*
X136993724Y-70348755D01*
X136978500Y-70385509D01*
X135653500Y-70385509D01*
X135638276Y-70348755D01*
X135610145Y-70320624D01*
X135573391Y-70305400D01*
X135533609Y-70305400D01*
X135496855Y-70320624D01*
X135468724Y-70348755D01*
X135453500Y-70385509D01*
X128144500Y-70385509D01*
X128144500Y-70186762D01*
X128144136Y-70183376D01*
X128137990Y-70126203D01*
X128137989Y-70126201D01*
X128137989Y-70126199D01*
X128126140Y-70094433D01*
X128121074Y-70023621D01*
X128126137Y-70006374D01*
X128137989Y-69974601D01*
X128144500Y-69914038D01*
X128144500Y-69024900D01*
X128164502Y-68956779D01*
X128218158Y-68910286D01*
X128270500Y-68898900D01*
X128584301Y-68898900D01*
X128584305Y-68898900D01*
X128584306Y-68898900D01*
X128657576Y-68884325D01*
X128730847Y-68869751D01*
X128868884Y-68812574D01*
X128993115Y-68729566D01*
X129465879Y-68256802D01*
X133708000Y-68256802D01*
X133708000Y-70151400D01*
X134537000Y-70151400D01*
X134537000Y-69748110D01*
X134520886Y-69731997D01*
X134486860Y-69669685D01*
X134490198Y-69623009D01*
X134691000Y-69623009D01*
X134691000Y-69662791D01*
X134706224Y-69699545D01*
X134734355Y-69727676D01*
X134771109Y-69742900D01*
X134810891Y-69742900D01*
X134847645Y-69727676D01*
X134875776Y-69699545D01*
X134891000Y-69662791D01*
X134891000Y-69642899D01*
X135150210Y-69642899D01*
X135150210Y-69642901D01*
X135553499Y-70046190D01*
X135553501Y-70046190D01*
X135956790Y-69642901D01*
X135956790Y-69642899D01*
X135936900Y-69623009D01*
X136216000Y-69623009D01*
X136216000Y-69662791D01*
X136231224Y-69699545D01*
X136259355Y-69727676D01*
X136296109Y-69742900D01*
X136335891Y-69742900D01*
X136372645Y-69727676D01*
X136400776Y-69699545D01*
X136416000Y-69662791D01*
X136416000Y-69642899D01*
X136675210Y-69642899D01*
X136675210Y-69642901D01*
X137078499Y-70046190D01*
X137078501Y-70046190D01*
X137481790Y-69642901D01*
X137481790Y-69642899D01*
X137461900Y-69623009D01*
X137741000Y-69623009D01*
X137741000Y-69662791D01*
X137756224Y-69699545D01*
X137784355Y-69727676D01*
X137821109Y-69742900D01*
X137860891Y-69742900D01*
X137897645Y-69727676D01*
X137925776Y-69699545D01*
X137941000Y-69662791D01*
X137941000Y-69623009D01*
X137925776Y-69586255D01*
X137897645Y-69558124D01*
X137860891Y-69542900D01*
X137821109Y-69542900D01*
X137784355Y-69558124D01*
X137756224Y-69586255D01*
X137741000Y-69623009D01*
X137461900Y-69623009D01*
X137078501Y-69239610D01*
X137078499Y-69239610D01*
X136675210Y-69642899D01*
X136416000Y-69642899D01*
X136416000Y-69623009D01*
X136400776Y-69586255D01*
X136372645Y-69558124D01*
X136335891Y-69542900D01*
X136296109Y-69542900D01*
X136259355Y-69558124D01*
X136231224Y-69586255D01*
X136216000Y-69623009D01*
X135936900Y-69623009D01*
X135553501Y-69239610D01*
X135553499Y-69239610D01*
X135150210Y-69642899D01*
X134891000Y-69642899D01*
X134891000Y-69623009D01*
X134875776Y-69586255D01*
X134847645Y-69558124D01*
X134810891Y-69542900D01*
X134771109Y-69542900D01*
X134734355Y-69558124D01*
X134706224Y-69586255D01*
X134691000Y-69623009D01*
X134490198Y-69623009D01*
X134491924Y-69598869D01*
X134520886Y-69553803D01*
X134537000Y-69537689D01*
X134537000Y-68860509D01*
X135453500Y-68860509D01*
X135453500Y-68900291D01*
X135468724Y-68937045D01*
X135496855Y-68965176D01*
X135533609Y-68980400D01*
X135573391Y-68980400D01*
X135610145Y-68965176D01*
X135638276Y-68937045D01*
X135653500Y-68900291D01*
X135653500Y-68860509D01*
X136978500Y-68860509D01*
X136978500Y-68900291D01*
X136993724Y-68937045D01*
X137021855Y-68965176D01*
X137058609Y-68980400D01*
X137098391Y-68980400D01*
X137135145Y-68965176D01*
X137163276Y-68937045D01*
X137178500Y-68900291D01*
X137178500Y-68860509D01*
X137163276Y-68823755D01*
X137135145Y-68795624D01*
X137098391Y-68780400D01*
X137058609Y-68780400D01*
X137021855Y-68795624D01*
X136993724Y-68823755D01*
X136978500Y-68860509D01*
X135653500Y-68860509D01*
X135638276Y-68823755D01*
X135610145Y-68795624D01*
X135573391Y-68780400D01*
X135533609Y-68780400D01*
X135496855Y-68795624D01*
X135468724Y-68823755D01*
X135453500Y-68860509D01*
X134537000Y-68860509D01*
X134537000Y-68752400D01*
X134557002Y-68684279D01*
X134610658Y-68637786D01*
X134663000Y-68626400D01*
X135448289Y-68626400D01*
X135464403Y-68610286D01*
X135526715Y-68576260D01*
X135597531Y-68581324D01*
X135642597Y-68610286D01*
X135658711Y-68626400D01*
X136062000Y-68626400D01*
X136570000Y-68626400D01*
X136973289Y-68626400D01*
X136989403Y-68610286D01*
X137051715Y-68576260D01*
X137122531Y-68581324D01*
X137167597Y-68610286D01*
X137183711Y-68626400D01*
X137969000Y-68626400D01*
X138037121Y-68646402D01*
X138083614Y-68700058D01*
X138095000Y-68752400D01*
X138095000Y-69537691D01*
X138111114Y-69553805D01*
X138145140Y-69616117D01*
X138140075Y-69686932D01*
X138111114Y-69731995D01*
X138095000Y-69748108D01*
X138095000Y-70151400D01*
X138924000Y-70151400D01*
X138924000Y-68256814D01*
X138923999Y-68256802D01*
X138917494Y-68196306D01*
X138866444Y-68059435D01*
X138866444Y-68059434D01*
X138778904Y-67942495D01*
X138661965Y-67854955D01*
X138525093Y-67803905D01*
X138464597Y-67797400D01*
X136570000Y-67797400D01*
X136570000Y-68626400D01*
X136062000Y-68626400D01*
X136062000Y-67797400D01*
X134167402Y-67797400D01*
X134106906Y-67803905D01*
X133970035Y-67854955D01*
X133970034Y-67854955D01*
X133853095Y-67942495D01*
X133765555Y-68059434D01*
X133765555Y-68059435D01*
X133714505Y-68196306D01*
X133708000Y-68256802D01*
X129465879Y-68256802D01*
X131552276Y-66170405D01*
X131614588Y-66136379D01*
X131641371Y-66133500D01*
X137583629Y-66133500D01*
X137651750Y-66153502D01*
X137672724Y-66170405D01*
X141531034Y-70028715D01*
X141531035Y-70028716D01*
X141636684Y-70134365D01*
X141701486Y-70177664D01*
X141719719Y-70189847D01*
X141743352Y-70210300D01*
X141755747Y-70224066D01*
X141910248Y-70336318D01*
X141910252Y-70336320D01*
X141926473Y-70343542D01*
X141980570Y-70389521D01*
X142001220Y-70457448D01*
X141981869Y-70525756D01*
X141968863Y-70542959D01*
X141932762Y-70583053D01*
X141932758Y-70583058D01*
X141837276Y-70748438D01*
X141837273Y-70748444D01*
X141822799Y-70792986D01*
X141778257Y-70930072D01*
X141758296Y-71120000D01*
X141778257Y-71309927D01*
X141806289Y-71396198D01*
X141837273Y-71491556D01*
X141837276Y-71491561D01*
X141932758Y-71656941D01*
X141932765Y-71656951D01*
X142060544Y-71798864D01*
X142060547Y-71798866D01*
X142215048Y-71911118D01*
X142389512Y-71988794D01*
X142576313Y-72028500D01*
X142767287Y-72028500D01*
X142954088Y-71988794D01*
X142954092Y-71988792D01*
X142954093Y-71988792D01*
X142960368Y-71986754D01*
X142961113Y-71989048D01*
X143020605Y-71981066D01*
X143084905Y-72011166D01*
X143122725Y-72071250D01*
X143127500Y-72105609D01*
X143127500Y-72454049D01*
X143134009Y-72514595D01*
X143134010Y-72514598D01*
X143145860Y-72546370D01*
X143150923Y-72617186D01*
X143145860Y-72634430D01*
X143134010Y-72666201D01*
X143134009Y-72666204D01*
X143127500Y-72726750D01*
X143127500Y-73724049D01*
X143134009Y-73784595D01*
X143134010Y-73784598D01*
X143145860Y-73816370D01*
X143150923Y-73887186D01*
X143145860Y-73904430D01*
X143134010Y-73936201D01*
X143134009Y-73936204D01*
X143127500Y-73996750D01*
X143127500Y-74994049D01*
X143134009Y-75054595D01*
X143134010Y-75054598D01*
X143145860Y-75086370D01*
X143150923Y-75157186D01*
X143145860Y-75174430D01*
X143134010Y-75206201D01*
X143134009Y-75206204D01*
X143127500Y-75266750D01*
X143127500Y-76264049D01*
X143134009Y-76324595D01*
X143134010Y-76324598D01*
X143145860Y-76356370D01*
X143150923Y-76427186D01*
X143145860Y-76444430D01*
X143134010Y-76476201D01*
X143134009Y-76476204D01*
X143127500Y-76536750D01*
X143127500Y-77534049D01*
X143134009Y-77594595D01*
X143134010Y-77594598D01*
X143145860Y-77626370D01*
X143150923Y-77697186D01*
X143145860Y-77714430D01*
X143134010Y-77746201D01*
X143134009Y-77746204D01*
X143127500Y-77806750D01*
X143127500Y-78804049D01*
X143134009Y-78864595D01*
X143134010Y-78864598D01*
X143145860Y-78896370D01*
X143150923Y-78967186D01*
X143145860Y-78984430D01*
X143134010Y-79016201D01*
X143134009Y-79016204D01*
X143127500Y-79076750D01*
X143127500Y-80074049D01*
X143134009Y-80134596D01*
X143134011Y-80134604D01*
X143185110Y-80271602D01*
X143185112Y-80271607D01*
X143272738Y-80388661D01*
X143389792Y-80476287D01*
X143389794Y-80476288D01*
X143389796Y-80476289D01*
X143448875Y-80498324D01*
X143526795Y-80527388D01*
X143526803Y-80527390D01*
X143587350Y-80533899D01*
X143587355Y-80533899D01*
X143587362Y-80533900D01*
X143587368Y-80533900D01*
X145184632Y-80533900D01*
X145184638Y-80533900D01*
X145184645Y-80533899D01*
X145184649Y-80533899D01*
X145245196Y-80527390D01*
X145245199Y-80527389D01*
X145245201Y-80527389D01*
X145382204Y-80476289D01*
X145499261Y-80388661D01*
X145586889Y-80271604D01*
X145637989Y-80134601D01*
X145644500Y-80074038D01*
X145644500Y-79076762D01*
X145637990Y-79016204D01*
X145637990Y-79016203D01*
X145637989Y-79016201D01*
X145637989Y-79016199D01*
X145626140Y-78984433D01*
X145621074Y-78913621D01*
X145626137Y-78896374D01*
X145637989Y-78864601D01*
X145638660Y-78858365D01*
X145644499Y-78804049D01*
X145644500Y-78804032D01*
X145644500Y-77806767D01*
X145644499Y-77806750D01*
X145637990Y-77746203D01*
X145637989Y-77746201D01*
X145637989Y-77746199D01*
X145626140Y-77714433D01*
X145621074Y-77643621D01*
X145626137Y-77626374D01*
X145637989Y-77594601D01*
X145644500Y-77534038D01*
X145644500Y-76536762D01*
X145644499Y-76536750D01*
X145637990Y-76476203D01*
X145637989Y-76476201D01*
X145637989Y-76476199D01*
X145626140Y-76444433D01*
X145621074Y-76373621D01*
X145626137Y-76356374D01*
X145637989Y-76324601D01*
X145638318Y-76321546D01*
X145644499Y-76264049D01*
X145644500Y-76264032D01*
X145644500Y-75266767D01*
X145644499Y-75266750D01*
X145637990Y-75206203D01*
X145637989Y-75206201D01*
X145637989Y-75206199D01*
X145626140Y-75174433D01*
X145621074Y-75103621D01*
X145626137Y-75086374D01*
X145637989Y-75054601D01*
X145644500Y-74994038D01*
X145644500Y-73996762D01*
X145637990Y-73936204D01*
X145637990Y-73936203D01*
X145637989Y-73936201D01*
X145637989Y-73936199D01*
X145626140Y-73904433D01*
X145621074Y-73833621D01*
X145626137Y-73816374D01*
X145637989Y-73784601D01*
X145644500Y-73724038D01*
X145644500Y-72726762D01*
X145644499Y-72726750D01*
X145637990Y-72666203D01*
X145637989Y-72666201D01*
X145637989Y-72666199D01*
X145626140Y-72634433D01*
X145621074Y-72563621D01*
X145626137Y-72546374D01*
X145637989Y-72514601D01*
X145644500Y-72454038D01*
X145644500Y-71456762D01*
X145644499Y-71456750D01*
X145637990Y-71396203D01*
X145637989Y-71396201D01*
X145637989Y-71396199D01*
X145626140Y-71364433D01*
X145621074Y-71293621D01*
X145626137Y-71276374D01*
X145637989Y-71244601D01*
X145638409Y-71240700D01*
X145644499Y-71184049D01*
X145644500Y-71184032D01*
X145644500Y-70186767D01*
X145644499Y-70186750D01*
X145637990Y-70126203D01*
X145637989Y-70126201D01*
X145637989Y-70126199D01*
X145626140Y-70094433D01*
X145621074Y-70023621D01*
X145626137Y-70006374D01*
X145637989Y-69974601D01*
X145644500Y-69914038D01*
X145644500Y-68916762D01*
X145643804Y-68910286D01*
X145637990Y-68856203D01*
X145637989Y-68856201D01*
X145637989Y-68856199D01*
X145626140Y-68824433D01*
X145621074Y-68753621D01*
X145626137Y-68736374D01*
X145637989Y-68704601D01*
X145638478Y-68700058D01*
X145644499Y-68644049D01*
X145644500Y-68644032D01*
X145644500Y-67646767D01*
X145644499Y-67646750D01*
X145637990Y-67586203D01*
X145637989Y-67586201D01*
X145637989Y-67586199D01*
X145626140Y-67554433D01*
X145621074Y-67483621D01*
X145626137Y-67466374D01*
X145637989Y-67434601D01*
X145641326Y-67403568D01*
X145644499Y-67374049D01*
X145644500Y-67374032D01*
X145644500Y-66872800D01*
X147074044Y-66872800D01*
X147092637Y-67097175D01*
X147147902Y-67315412D01*
X147147903Y-67315413D01*
X147147904Y-67315416D01*
X147214118Y-67466370D01*
X147238341Y-67521593D01*
X147361475Y-67710065D01*
X147361479Y-67710070D01*
X147513962Y-67875708D01*
X147568531Y-67918181D01*
X147691624Y-68013989D01*
X147724880Y-68031986D01*
X147775271Y-68082000D01*
X147790623Y-68151316D01*
X147766062Y-68217929D01*
X147724880Y-68253613D01*
X147691626Y-68271610D01*
X147691624Y-68271611D01*
X147513962Y-68409891D01*
X147361479Y-68575529D01*
X147361475Y-68575534D01*
X147238341Y-68764006D01*
X147147903Y-68970186D01*
X147147902Y-68970187D01*
X147092637Y-69188424D01*
X147092636Y-69188430D01*
X147092636Y-69188432D01*
X147074044Y-69412800D01*
X147089462Y-69598869D01*
X147092637Y-69637175D01*
X147147902Y-69855412D01*
X147147903Y-69855413D01*
X147147904Y-69855416D01*
X147223920Y-70028716D01*
X147238341Y-70061593D01*
X147361475Y-70250065D01*
X147361479Y-70250070D01*
X147513962Y-70415708D01*
X147567590Y-70457448D01*
X147691624Y-70553989D01*
X147724880Y-70571986D01*
X147775271Y-70622000D01*
X147790623Y-70691316D01*
X147766062Y-70757929D01*
X147724880Y-70793613D01*
X147691626Y-70811610D01*
X147691624Y-70811611D01*
X147513962Y-70949891D01*
X147361479Y-71115529D01*
X147361475Y-71115534D01*
X147238341Y-71304006D01*
X147147903Y-71510186D01*
X147147902Y-71510187D01*
X147092637Y-71728424D01*
X147092636Y-71728430D01*
X147092636Y-71728432D01*
X147074044Y-71952800D01*
X147088439Y-72126521D01*
X147092637Y-72177175D01*
X147147902Y-72395412D01*
X147147903Y-72395413D01*
X147147904Y-72395416D01*
X147233431Y-72590400D01*
X147238341Y-72601593D01*
X147361475Y-72790065D01*
X147361479Y-72790070D01*
X147513962Y-72955708D01*
X147528812Y-72967266D01*
X147691624Y-73093989D01*
X147724880Y-73111986D01*
X147775271Y-73162000D01*
X147790623Y-73231316D01*
X147766062Y-73297929D01*
X147724880Y-73333613D01*
X147691626Y-73351610D01*
X147691624Y-73351611D01*
X147513962Y-73489891D01*
X147361479Y-73655529D01*
X147361475Y-73655534D01*
X147238341Y-73844006D01*
X147147903Y-74050186D01*
X147147902Y-74050187D01*
X147092637Y-74268424D01*
X147092636Y-74268430D01*
X147092636Y-74268432D01*
X147074044Y-74492800D01*
X147089085Y-74674320D01*
X147092637Y-74717175D01*
X147147902Y-74935412D01*
X147147903Y-74935413D01*
X147147904Y-74935416D01*
X147214118Y-75086370D01*
X147238341Y-75141593D01*
X147361475Y-75330065D01*
X147361479Y-75330070D01*
X147513962Y-75495708D01*
X147566523Y-75536618D01*
X147691624Y-75633989D01*
X147724880Y-75651986D01*
X147775271Y-75702000D01*
X147790623Y-75771316D01*
X147766062Y-75837929D01*
X147724880Y-75873613D01*
X147691626Y-75891610D01*
X147691624Y-75891611D01*
X147513962Y-76029891D01*
X147361479Y-76195529D01*
X147361475Y-76195534D01*
X147238341Y-76384006D01*
X147147903Y-76590186D01*
X147147902Y-76590187D01*
X147092637Y-76808424D01*
X147092636Y-76808430D01*
X147092636Y-76808432D01*
X147074044Y-77032800D01*
X147090388Y-77230043D01*
X147092637Y-77257175D01*
X147147902Y-77475412D01*
X147147903Y-77475413D01*
X147147904Y-77475416D01*
X147214118Y-77626370D01*
X147238341Y-77681593D01*
X147361475Y-77870065D01*
X147361479Y-77870070D01*
X147513962Y-78035708D01*
X147562561Y-78073534D01*
X147691624Y-78173989D01*
X147725405Y-78192270D01*
X147775796Y-78242282D01*
X147791149Y-78311599D01*
X147766589Y-78378212D01*
X147725409Y-78413896D01*
X147691904Y-78432028D01*
X147691898Y-78432032D01*
X147514297Y-78570265D01*
X147361874Y-78735841D01*
X147238780Y-78924251D01*
X147148379Y-79130343D01*
X147148376Y-79130350D01*
X147100655Y-79318799D01*
X147100656Y-79318800D01*
X148006497Y-79318800D01*
X147971275Y-79379807D01*
X147937200Y-79506974D01*
X147937200Y-79638626D01*
X147971275Y-79765793D01*
X148006497Y-79826800D01*
X147100655Y-79826800D01*
X147148376Y-80015249D01*
X147148379Y-80015256D01*
X147238780Y-80221348D01*
X147361874Y-80409758D01*
X147514297Y-80575334D01*
X147691898Y-80713567D01*
X147691899Y-80713568D01*
X147889828Y-80820682D01*
X147889830Y-80820683D01*
X148102683Y-80893755D01*
X148102692Y-80893757D01*
X148183200Y-80907191D01*
X148183200Y-80003502D01*
X148244207Y-80038725D01*
X148371374Y-80072800D01*
X148503026Y-80072800D01*
X148630193Y-80038725D01*
X148691200Y-80003502D01*
X148691200Y-80907190D01*
X148771707Y-80893757D01*
X148771716Y-80893755D01*
X148984569Y-80820683D01*
X148984571Y-80820682D01*
X149182500Y-80713568D01*
X149182501Y-80713567D01*
X149360102Y-80575334D01*
X149512525Y-80409758D01*
X149635619Y-80221348D01*
X149726020Y-80015256D01*
X149726023Y-80015249D01*
X149773744Y-79826800D01*
X148867903Y-79826800D01*
X148903125Y-79765793D01*
X148937200Y-79638626D01*
X148937200Y-79506974D01*
X148903125Y-79379807D01*
X148867903Y-79318800D01*
X149773744Y-79318800D01*
X149773744Y-79318799D01*
X149726023Y-79130350D01*
X149726020Y-79130343D01*
X149635619Y-78924251D01*
X149512525Y-78735841D01*
X149360102Y-78570265D01*
X149182501Y-78432032D01*
X149182500Y-78432031D01*
X149148991Y-78413897D01*
X149098601Y-78363883D01*
X149083250Y-78294566D01*
X149107812Y-78227953D01*
X149148990Y-78192272D01*
X149182776Y-78173989D01*
X149360440Y-78035706D01*
X149512922Y-77870068D01*
X149636060Y-77681591D01*
X149726496Y-77475416D01*
X149781764Y-77257168D01*
X149800356Y-77032800D01*
X149781764Y-76808432D01*
X149751655Y-76689534D01*
X149726497Y-76590187D01*
X149726496Y-76590186D01*
X149726496Y-76590184D01*
X149636060Y-76384009D01*
X149595249Y-76321543D01*
X149512924Y-76195534D01*
X149512920Y-76195529D01*
X149360437Y-76029891D01*
X149278582Y-75966181D01*
X149182776Y-75891611D01*
X149149519Y-75873613D01*
X149099129Y-75823602D01*
X149083776Y-75754285D01*
X149108336Y-75687672D01*
X149149520Y-75651986D01*
X149182776Y-75633989D01*
X149360440Y-75495706D01*
X149512922Y-75330068D01*
X149636060Y-75141591D01*
X149726496Y-74935416D01*
X149781764Y-74717168D01*
X149800356Y-74492800D01*
X149781764Y-74268432D01*
X149726496Y-74050184D01*
X149636060Y-73844009D01*
X149597243Y-73784595D01*
X149512924Y-73655534D01*
X149512920Y-73655529D01*
X149360437Y-73489891D01*
X149247877Y-73402282D01*
X149182776Y-73351611D01*
X149149519Y-73333613D01*
X149099129Y-73283602D01*
X149083776Y-73214285D01*
X149108336Y-73147672D01*
X149149520Y-73111986D01*
X149182776Y-73093989D01*
X149360440Y-72955706D01*
X149512922Y-72790068D01*
X149636060Y-72601591D01*
X149726496Y-72395416D01*
X149781764Y-72177168D01*
X149800356Y-71952800D01*
X149781764Y-71728432D01*
X149726496Y-71510184D01*
X149636060Y-71304009D01*
X149593363Y-71238656D01*
X149512924Y-71115534D01*
X149512920Y-71115529D01*
X149360437Y-70949891D01*
X149278582Y-70886181D01*
X149182776Y-70811611D01*
X149170443Y-70804937D01*
X149149520Y-70793614D01*
X149099129Y-70743602D01*
X149083776Y-70674285D01*
X149108336Y-70607672D01*
X149149520Y-70571986D01*
X149182776Y-70553989D01*
X149360440Y-70415706D01*
X149512922Y-70250068D01*
X149636060Y-70061591D01*
X149726496Y-69855416D01*
X149781764Y-69637168D01*
X149800356Y-69412800D01*
X149781764Y-69188432D01*
X149748703Y-69057876D01*
X149726497Y-68970187D01*
X149726496Y-68970186D01*
X149726496Y-68970184D01*
X149636060Y-68764009D01*
X149594279Y-68700058D01*
X149512924Y-68575534D01*
X149512920Y-68575529D01*
X149396770Y-68449359D01*
X149360440Y-68409894D01*
X149360439Y-68409893D01*
X149360437Y-68409891D01*
X149278582Y-68346181D01*
X149182776Y-68271611D01*
X149149519Y-68253613D01*
X149099129Y-68203602D01*
X149083776Y-68134285D01*
X149108336Y-68067672D01*
X149149520Y-68031986D01*
X149182776Y-68013989D01*
X149360440Y-67875706D01*
X149512922Y-67710068D01*
X149636060Y-67521591D01*
X149726496Y-67315416D01*
X149781764Y-67097168D01*
X149800356Y-66872800D01*
X149781764Y-66648432D01*
X149773229Y-66614729D01*
X149726497Y-66430187D01*
X149726496Y-66430186D01*
X149726496Y-66430184D01*
X149636060Y-66224009D01*
X149566097Y-66116922D01*
X149512924Y-66035534D01*
X149512919Y-66035529D01*
X149369724Y-65879979D01*
X149338303Y-65816314D01*
X149346290Y-65745768D01*
X149391148Y-65690739D01*
X149418383Y-65676589D01*
X149533404Y-65633689D01*
X149650461Y-65546061D01*
X149738089Y-65429004D01*
X149789189Y-65292001D01*
X149789761Y-65286687D01*
X149795699Y-65231449D01*
X149795700Y-65231432D01*
X149795700Y-63434167D01*
X149795699Y-63434150D01*
X149789190Y-63373603D01*
X149789188Y-63373595D01*
X149738089Y-63236597D01*
X149738087Y-63236592D01*
X149650461Y-63119538D01*
X149533407Y-63031912D01*
X149533402Y-63031910D01*
X149396404Y-62980811D01*
X149396396Y-62980809D01*
X149335849Y-62974300D01*
X149335838Y-62974300D01*
X147538562Y-62974300D01*
X147538550Y-62974300D01*
X147478003Y-62980809D01*
X147477995Y-62980811D01*
X147340997Y-63031910D01*
X147340992Y-63031912D01*
X147223938Y-63119538D01*
X147136312Y-63236592D01*
X147136310Y-63236597D01*
X147085211Y-63373595D01*
X147085209Y-63373603D01*
X147078700Y-63434150D01*
X147078700Y-65231449D01*
X147085209Y-65291996D01*
X147085211Y-65292004D01*
X147136310Y-65429002D01*
X147136312Y-65429007D01*
X147223938Y-65546061D01*
X147340991Y-65633686D01*
X147340992Y-65633686D01*
X147340996Y-65633689D01*
X147456010Y-65676587D01*
X147512842Y-65719132D01*
X147537653Y-65785652D01*
X147522562Y-65855026D01*
X147504675Y-65879979D01*
X147361480Y-66035529D01*
X147361475Y-66035534D01*
X147238341Y-66224006D01*
X147147903Y-66430186D01*
X147147902Y-66430187D01*
X147092637Y-66648424D01*
X147092636Y-66648430D01*
X147092636Y-66648432D01*
X147088117Y-66702967D01*
X147074044Y-66872800D01*
X145644500Y-66872800D01*
X145644500Y-66376767D01*
X145644499Y-66376750D01*
X145637990Y-66316203D01*
X145637989Y-66316201D01*
X145637989Y-66316199D01*
X145626140Y-66284433D01*
X145621074Y-66213621D01*
X145626137Y-66196374D01*
X145637989Y-66164601D01*
X145638291Y-66161800D01*
X145644499Y-66104049D01*
X145644500Y-66104032D01*
X145644500Y-65338039D01*
X145664502Y-65269918D01*
X145718158Y-65223425D01*
X145744300Y-65214792D01*
X145900488Y-65181594D01*
X146074952Y-65103918D01*
X146229453Y-64991666D01*
X146237741Y-64982461D01*
X146357234Y-64849751D01*
X146357235Y-64849749D01*
X146357240Y-64849744D01*
X146452727Y-64684356D01*
X146511742Y-64502728D01*
X146531704Y-64312800D01*
X146511742Y-64122872D01*
X146452727Y-63941244D01*
X146357240Y-63775856D01*
X146357238Y-63775854D01*
X146357234Y-63775848D01*
X146229455Y-63633935D01*
X146074952Y-63521682D01*
X146032603Y-63502827D01*
X145900488Y-63444006D01*
X145900487Y-63444005D01*
X145900483Y-63444004D01*
X145743803Y-63410700D01*
X145681329Y-63376972D01*
X145656362Y-63331761D01*
X145644001Y-63319400D01*
X143128000Y-63319400D01*
X143128000Y-63563995D01*
X143134777Y-63627014D01*
X143122172Y-63696883D01*
X143073795Y-63748846D01*
X143009499Y-63766485D01*
X143004077Y-63766485D01*
X142935956Y-63746483D01*
X142930014Y-63742420D01*
X142918244Y-63733868D01*
X142743778Y-63656191D01*
X142556977Y-63616485D01*
X142366003Y-63616485D01*
X142179199Y-63656191D01*
X142021752Y-63726291D01*
X141951385Y-63735725D01*
X141896443Y-63713120D01*
X141807752Y-63648682D01*
X141633288Y-63571006D01*
X141446487Y-63531300D01*
X141255513Y-63531300D01*
X141068711Y-63571006D01*
X140894247Y-63648682D01*
X140739744Y-63760935D01*
X140611965Y-63902848D01*
X140611958Y-63902858D01*
X140516476Y-64068238D01*
X140516473Y-64068245D01*
X140457457Y-64249872D01*
X140437496Y-64439800D01*
X140457457Y-64629727D01*
X140475207Y-64684354D01*
X140516473Y-64811356D01*
X140529574Y-64834047D01*
X140611958Y-64976741D01*
X140611965Y-64976751D01*
X140660977Y-65031184D01*
X140691695Y-65095191D01*
X140689280Y-65114599D01*
X140750803Y-65127983D01*
X140764479Y-65136635D01*
X140894248Y-65230918D01*
X141068712Y-65308594D01*
X141255513Y-65348300D01*
X141311406Y-65348300D01*
X141379527Y-65368302D01*
X141400501Y-65385205D01*
X142019529Y-66004233D01*
X142107767Y-66092471D01*
X142211525Y-66161800D01*
X142326815Y-66209555D01*
X142449206Y-66233900D01*
X143002587Y-66233900D01*
X143070708Y-66253902D01*
X143117201Y-66307558D01*
X143127864Y-66373376D01*
X143127500Y-66376751D01*
X143127500Y-67335447D01*
X143107498Y-67403568D01*
X143053842Y-67450061D01*
X142983568Y-67460165D01*
X142927439Y-67437383D01*
X142776740Y-67327894D01*
X142602276Y-67250218D01*
X142539215Y-67236813D01*
X142476742Y-67203084D01*
X142476319Y-67202662D01*
X140601323Y-65327666D01*
X140567297Y-65265354D01*
X140569019Y-65241274D01*
X140501250Y-65222769D01*
X140478246Y-65204589D01*
X138859495Y-63585838D01*
X138859491Y-63585834D01*
X138735260Y-63502826D01*
X138597223Y-63445649D01*
X138523952Y-63431074D01*
X138523951Y-63431073D01*
X138450687Y-63416500D01*
X138450682Y-63416500D01*
X130341694Y-63416500D01*
X130341688Y-63416500D01*
X130268424Y-63431073D01*
X130268424Y-63431074D01*
X130195153Y-63445649D01*
X130195151Y-63445649D01*
X130195150Y-63445650D01*
X130195149Y-63445650D01*
X130137976Y-63469332D01*
X130057116Y-63502826D01*
X130057115Y-63502827D01*
X129932885Y-63585834D01*
X129932879Y-63585839D01*
X128356685Y-65162033D01*
X128294373Y-65196059D01*
X128223557Y-65190994D01*
X128166722Y-65148447D01*
X128142312Y-65086406D01*
X128137990Y-65046203D01*
X128137989Y-65046201D01*
X128137989Y-65046199D01*
X128126140Y-65014433D01*
X128121074Y-64943621D01*
X128126137Y-64926374D01*
X128137989Y-64894601D01*
X128142353Y-64854015D01*
X128144499Y-64834049D01*
X128144500Y-64834032D01*
X128144500Y-63836767D01*
X128144499Y-63836750D01*
X128137990Y-63776203D01*
X128137989Y-63776201D01*
X128137989Y-63776199D01*
X128125873Y-63743717D01*
X128120807Y-63672905D01*
X128125874Y-63655647D01*
X128137493Y-63624496D01*
X128137494Y-63624493D01*
X128143999Y-63563997D01*
X128144000Y-63563985D01*
X128144000Y-63319400D01*
X125628000Y-63319400D01*
X125628000Y-63563997D01*
X125634505Y-63624496D01*
X125634506Y-63624498D01*
X125646126Y-63655654D01*
X125651190Y-63726469D01*
X125646127Y-63743714D01*
X125634010Y-63776201D01*
X125634009Y-63776204D01*
X125627500Y-63836750D01*
X125627500Y-64834047D01*
X125630359Y-64860631D01*
X125617754Y-64930499D01*
X125569376Y-64982461D01*
X125505081Y-65000100D01*
X125501588Y-65000100D01*
X125494707Y-65000092D01*
X125439669Y-65000035D01*
X125439668Y-65000035D01*
X125439661Y-65000035D01*
X125439219Y-65000079D01*
X125439074Y-65000093D01*
X125439007Y-65000099D01*
X125393192Y-65009212D01*
X125378191Y-65012196D01*
X125317227Y-65024256D01*
X125317198Y-65024266D01*
X125316775Y-65024394D01*
X125316639Y-65024434D01*
X125259702Y-65048019D01*
X125259581Y-65048069D01*
X125201900Y-65071891D01*
X125201344Y-65072186D01*
X125166916Y-65095191D01*
X125150217Y-65106349D01*
X123634355Y-66116922D01*
X123566580Y-66138066D01*
X123498133Y-66119212D01*
X123450745Y-66066345D01*
X123440016Y-66031801D01*
X123414805Y-65872626D01*
X123360888Y-65706684D01*
X123281674Y-65551219D01*
X123179117Y-65410061D01*
X123179114Y-65410058D01*
X123179112Y-65410055D01*
X123055741Y-65286684D01*
X122982988Y-65233826D01*
X122939634Y-65177603D01*
X122933559Y-65106867D01*
X122966691Y-65044075D01*
X122982989Y-65029953D01*
X123055418Y-64977330D01*
X123178730Y-64854018D01*
X123178732Y-64854015D01*
X123281243Y-64712921D01*
X123360422Y-64557525D01*
X123360425Y-64557519D01*
X123414314Y-64391665D01*
X123415180Y-64386200D01*
X122334930Y-64386200D01*
X122358675Y-64362455D01*
X122408044Y-64276945D01*
X122433600Y-64181570D01*
X122433600Y-64082830D01*
X122408044Y-63987455D01*
X122358675Y-63901945D01*
X122334930Y-63878200D01*
X123415180Y-63878200D01*
X123414314Y-63872734D01*
X123360425Y-63706880D01*
X123360422Y-63706874D01*
X123281243Y-63551478D01*
X123178732Y-63410384D01*
X123178730Y-63410381D01*
X123055418Y-63287069D01*
X123055415Y-63287067D01*
X122914321Y-63184556D01*
X122758925Y-63105377D01*
X122758919Y-63105374D01*
X122593060Y-63051484D01*
X122593064Y-63051484D01*
X122420798Y-63024200D01*
X122312600Y-63024200D01*
X122312600Y-63855870D01*
X122288855Y-63832125D01*
X122203345Y-63782756D01*
X122107970Y-63757200D01*
X122009230Y-63757200D01*
X121913855Y-63782756D01*
X121828345Y-63832125D01*
X121804600Y-63855870D01*
X121804600Y-63024200D01*
X121696402Y-63024200D01*
X121524137Y-63051484D01*
X121358280Y-63105374D01*
X121358274Y-63105377D01*
X121202878Y-63184556D01*
X121061784Y-63287067D01*
X121061781Y-63287069D01*
X120938469Y-63410381D01*
X120938467Y-63410384D01*
X120835956Y-63551478D01*
X120756777Y-63706874D01*
X120756774Y-63706880D01*
X120702885Y-63872734D01*
X120702020Y-63878200D01*
X121782270Y-63878200D01*
X121758525Y-63901945D01*
X121709156Y-63987455D01*
X121683600Y-64082830D01*
X121683600Y-64181570D01*
X121709156Y-64276945D01*
X121758525Y-64362455D01*
X121782270Y-64386200D01*
X120702020Y-64386200D01*
X120702885Y-64391665D01*
X120756774Y-64557519D01*
X120756777Y-64557525D01*
X120835956Y-64712921D01*
X120938467Y-64854015D01*
X120938469Y-64854018D01*
X121061781Y-64977330D01*
X121061784Y-64977332D01*
X121134211Y-65029954D01*
X121177565Y-65086176D01*
X121183640Y-65156912D01*
X121150509Y-65219704D01*
X121134212Y-65233825D01*
X121061461Y-65286682D01*
X121061455Y-65286687D01*
X120938087Y-65410055D01*
X120938085Y-65410058D01*
X120835528Y-65551215D01*
X120756313Y-65706682D01*
X120756310Y-65706688D01*
X120702396Y-65872622D01*
X120702395Y-65872626D01*
X120675100Y-66044959D01*
X120675100Y-66219441D01*
X120698936Y-66369939D01*
X120689837Y-66440348D01*
X120644116Y-66494662D01*
X120622707Y-66506057D01*
X120527723Y-66545401D01*
X120423971Y-66614726D01*
X120423964Y-66614731D01*
X120335731Y-66702964D01*
X120335726Y-66702971D01*
X120266401Y-66806723D01*
X120218646Y-66922012D01*
X120194300Y-67044403D01*
X120194300Y-68820196D01*
X120201462Y-68856198D01*
X120218645Y-68942585D01*
X120266400Y-69057875D01*
X120335729Y-69161633D01*
X120335731Y-69161635D01*
X120659668Y-69485572D01*
X120693694Y-69547884D01*
X120690179Y-69614295D01*
X120685712Y-69627774D01*
X120685712Y-69627775D01*
X120675100Y-69731646D01*
X120675100Y-70532744D01*
X120685712Y-70636625D01*
X120741485Y-70804938D01*
X120834570Y-70955852D01*
X120834575Y-70955858D01*
X120959941Y-71081224D01*
X120959947Y-71081229D01*
X120959948Y-71081230D01*
X121110862Y-71174315D01*
X121279174Y-71230087D01*
X121383055Y-71240700D01*
X122734144Y-71240699D01*
X122838026Y-71230087D01*
X123006338Y-71174315D01*
X123157252Y-71081230D01*
X123282630Y-70955852D01*
X123375715Y-70804938D01*
X123431487Y-70636626D01*
X123442100Y-70532745D01*
X123442099Y-70169899D01*
X123462101Y-70101780D01*
X123515756Y-70055287D01*
X123568099Y-70043900D01*
X125502587Y-70043900D01*
X125570708Y-70063902D01*
X125617201Y-70117558D01*
X125627864Y-70183376D01*
X125627500Y-70186751D01*
X125627500Y-71184049D01*
X125634009Y-71244595D01*
X125634010Y-71244598D01*
X125645860Y-71276370D01*
X125650923Y-71347186D01*
X125645860Y-71364430D01*
X125634010Y-71396201D01*
X125634009Y-71396204D01*
X125627500Y-71456750D01*
X125627500Y-72454049D01*
X125634853Y-72522438D01*
X125632758Y-72522663D01*
X125629547Y-72582663D01*
X125588026Y-72640253D01*
X125578831Y-72646223D01*
X125578983Y-72646450D01*
X125470082Y-72719215D01*
X125470075Y-72719220D01*
X121605731Y-76583564D01*
X121605726Y-76583571D01*
X121536401Y-76687323D01*
X121488646Y-76802612D01*
X121464300Y-76925003D01*
X121464300Y-77773647D01*
X121444298Y-77841768D01*
X121390642Y-77888261D01*
X121320368Y-77898365D01*
X121287053Y-77888754D01*
X121275492Y-77883606D01*
X121088687Y-77843900D01*
X120897713Y-77843900D01*
X120710911Y-77883606D01*
X120536447Y-77961282D01*
X120381944Y-78073535D01*
X120254165Y-78215448D01*
X120254158Y-78215458D01*
X120158676Y-78380838D01*
X120158673Y-78380844D01*
X120155276Y-78391300D01*
X120099657Y-78562472D01*
X120079696Y-78752400D01*
X119589097Y-78752400D01*
X119531952Y-78710882D01*
X119357488Y-78633206D01*
X119170687Y-78593500D01*
X118979713Y-78593500D01*
X118792911Y-78633206D01*
X118618447Y-78710882D01*
X118463944Y-78823135D01*
X118336165Y-78965048D01*
X118336158Y-78965058D01*
X118240731Y-79130343D01*
X118240673Y-79130444D01*
X118236093Y-79144541D01*
X118181657Y-79312072D01*
X118161696Y-79502000D01*
X117753237Y-79502000D01*
X117771918Y-62566802D01*
X125628000Y-62566802D01*
X125628000Y-62811400D01*
X126632000Y-62811400D01*
X127140000Y-62811400D01*
X128144000Y-62811400D01*
X128144000Y-62566814D01*
X128143999Y-62566802D01*
X143128000Y-62566802D01*
X143128000Y-62811400D01*
X144132000Y-62811400D01*
X144640000Y-62811400D01*
X145644000Y-62811400D01*
X145644000Y-62566814D01*
X145643999Y-62566802D01*
X145637494Y-62506306D01*
X145586444Y-62369435D01*
X145586444Y-62369434D01*
X145498904Y-62252495D01*
X145381965Y-62164955D01*
X145245093Y-62113905D01*
X145184597Y-62107400D01*
X144640000Y-62107400D01*
X144640000Y-62811400D01*
X144132000Y-62811400D01*
X144132000Y-62107400D01*
X143587402Y-62107400D01*
X143526906Y-62113905D01*
X143390035Y-62164955D01*
X143390034Y-62164955D01*
X143273095Y-62252495D01*
X143185555Y-62369434D01*
X143185555Y-62369435D01*
X143134505Y-62506306D01*
X143128000Y-62566802D01*
X128143999Y-62566802D01*
X128137494Y-62506306D01*
X128086444Y-62369435D01*
X128086444Y-62369434D01*
X127998904Y-62252495D01*
X127881965Y-62164955D01*
X127745093Y-62113905D01*
X127684597Y-62107400D01*
X127140000Y-62107400D01*
X127140000Y-62811400D01*
X126632000Y-62811400D01*
X126632000Y-62107400D01*
X126087402Y-62107400D01*
X126026906Y-62113905D01*
X125890035Y-62164955D01*
X125890034Y-62164955D01*
X125773095Y-62252495D01*
X125685555Y-62369434D01*
X125685555Y-62369435D01*
X125634505Y-62506306D01*
X125628000Y-62566802D01*
X117771918Y-62566802D01*
X117772906Y-61671588D01*
X117792983Y-61603489D01*
X117846690Y-61557056D01*
X117899359Y-61545728D01*
X150830168Y-61664355D01*
G37*
%TD.AperFunction*%
%TD*%
M02*
