%TF.GenerationSoftware,KiCad,Pcbnew,7.0.10-7.0.10~ubuntu22.04.1*%
%TF.CreationDate,2024-01-30T00:04:26+01:00*%
%TF.ProjectId,MailBox_LP_Notifier,4d61696c-426f-4785-9f4c-505f4e6f7469,rev?*%
%TF.SameCoordinates,Original*%
%TF.FileFunction,Soldermask,Top*%
%TF.FilePolarity,Negative*%
%FSLAX46Y46*%
G04 Gerber Fmt 4.6, Leading zero omitted, Abs format (unit mm)*
G04 Created by KiCad (PCBNEW 7.0.10-7.0.10~ubuntu22.04.1) date 2024-01-30 00:04:26*
%MOMM*%
%LPD*%
G01*
G04 APERTURE LIST*
G04 Aperture macros list*
%AMRoundRect*
0 Rectangle with rounded corners*
0 $1 Rounding radius*
0 $2 $3 $4 $5 $6 $7 $8 $9 X,Y pos of 4 corners*
0 Add a 4 corners polygon primitive as box body*
4,1,4,$2,$3,$4,$5,$6,$7,$8,$9,$2,$3,0*
0 Add four circle primitives for the rounded corners*
1,1,$1+$1,$2,$3*
1,1,$1+$1,$4,$5*
1,1,$1+$1,$6,$7*
1,1,$1+$1,$8,$9*
0 Add four rect primitives between the rounded corners*
20,1,$1+$1,$2,$3,$4,$5,0*
20,1,$1+$1,$4,$5,$6,$7,0*
20,1,$1+$1,$6,$7,$8,$9,0*
20,1,$1+$1,$8,$9,$2,$3,0*%
%AMFreePoly0*
4,1,19,0.550000,-0.750000,0.000000,-0.750000,0.000000,-0.744911,-0.071157,-0.744911,-0.207708,-0.704816,-0.327430,-0.627875,-0.420627,-0.520320,-0.479746,-0.390866,-0.500000,-0.250000,-0.500000,0.250000,-0.479746,0.390866,-0.420627,0.520320,-0.327430,0.627875,-0.207708,0.704816,-0.071157,0.744911,0.000000,0.744911,0.000000,0.750000,0.550000,0.750000,0.550000,-0.750000,0.550000,-0.750000,
$1*%
%AMFreePoly1*
4,1,19,0.000000,0.744911,0.071157,0.744911,0.207708,0.704816,0.327430,0.627875,0.420627,0.520320,0.479746,0.390866,0.500000,0.250000,0.500000,-0.250000,0.479746,-0.390866,0.420627,-0.520320,0.327430,-0.627875,0.207708,-0.704816,0.071157,-0.744911,0.000000,-0.744911,0.000000,-0.750000,-0.550000,-0.750000,-0.550000,0.750000,0.000000,0.750000,0.000000,0.744911,0.000000,0.744911,
$1*%
G04 Aperture macros list end*
%ADD10RoundRect,0.225000X0.375000X-0.225000X0.375000X0.225000X-0.375000X0.225000X-0.375000X-0.225000X0*%
%ADD11RoundRect,0.225000X0.225000X0.375000X-0.225000X0.375000X-0.225000X-0.375000X0.225000X-0.375000X0*%
%ADD12RoundRect,0.225000X-0.225000X-0.375000X0.225000X-0.375000X0.225000X0.375000X-0.225000X0.375000X0*%
%ADD13RoundRect,0.200000X-0.200000X-0.275000X0.200000X-0.275000X0.200000X0.275000X-0.200000X0.275000X0*%
%ADD14RoundRect,0.200000X-0.275000X0.200000X-0.275000X-0.200000X0.275000X-0.200000X0.275000X0.200000X0*%
%ADD15C,1.000000*%
%ADD16R,0.650000X0.400000*%
%ADD17RoundRect,0.225000X0.225000X0.250000X-0.225000X0.250000X-0.225000X-0.250000X0.225000X-0.250000X0*%
%ADD18RoundRect,0.225000X-0.250000X0.225000X-0.250000X-0.225000X0.250000X-0.225000X0.250000X0.225000X0*%
%ADD19RoundRect,0.150000X-0.150000X0.587500X-0.150000X-0.587500X0.150000X-0.587500X0.150000X0.587500X0*%
%ADD20RoundRect,0.200000X0.275000X-0.200000X0.275000X0.200000X-0.275000X0.200000X-0.275000X-0.200000X0*%
%ADD21RoundRect,0.200000X0.200000X0.275000X-0.200000X0.275000X-0.200000X-0.275000X0.200000X-0.275000X0*%
%ADD22RoundRect,0.150000X0.150000X-0.512500X0.150000X0.512500X-0.150000X0.512500X-0.150000X-0.512500X0*%
%ADD23RoundRect,0.250000X-0.262500X-0.450000X0.262500X-0.450000X0.262500X0.450000X-0.262500X0.450000X0*%
%ADD24R,0.800000X1.000000*%
%ADD25C,0.900000*%
%ADD26R,1.500000X0.700000*%
%ADD27FreePoly0,270.000000*%
%ADD28R,1.500000X1.000000*%
%ADD29FreePoly1,270.000000*%
%ADD30RoundRect,0.150000X0.150000X-0.587500X0.150000X0.587500X-0.150000X0.587500X-0.150000X-0.587500X0*%
%ADD31C,3.200000*%
%ADD32C,3.000000*%
%ADD33RoundRect,0.250001X0.499999X0.499999X-0.499999X0.499999X-0.499999X-0.499999X0.499999X-0.499999X0*%
%ADD34C,1.500000*%
%ADD35RoundRect,0.225000X-0.225000X-0.250000X0.225000X-0.250000X0.225000X0.250000X-0.225000X0.250000X0*%
%ADD36R,1.700000X1.700000*%
%ADD37O,1.700000X1.700000*%
%ADD38RoundRect,0.150000X-0.150000X0.512500X-0.150000X-0.512500X0.150000X-0.512500X0.150000X0.512500X0*%
%ADD39RoundRect,0.150000X0.587500X0.150000X-0.587500X0.150000X-0.587500X-0.150000X0.587500X-0.150000X0*%
%ADD40RoundRect,0.225000X0.250000X-0.225000X0.250000X0.225000X-0.250000X0.225000X-0.250000X-0.225000X0*%
%ADD41RoundRect,0.250000X0.625000X-0.350000X0.625000X0.350000X-0.625000X0.350000X-0.625000X-0.350000X0*%
%ADD42O,1.750000X1.200000*%
%ADD43RoundRect,0.250000X0.350000X0.625000X-0.350000X0.625000X-0.350000X-0.625000X0.350000X-0.625000X0*%
%ADD44O,1.200000X1.750000*%
%ADD45R,0.800000X0.500000*%
G04 APERTURE END LIST*
D10*
%TO.C,D2*%
X138226800Y-94512400D03*
X138226800Y-91212400D03*
%TD*%
D11*
%TO.C,D4*%
X133120400Y-68707000D03*
X129820400Y-68707000D03*
%TD*%
D12*
%TO.C,D6*%
X138558000Y-89306400D03*
X141858000Y-89306400D03*
%TD*%
D10*
%TO.C,D5*%
X136220200Y-87425800D03*
X136220200Y-84125800D03*
%TD*%
D11*
%TO.C,D7*%
X132663200Y-75717400D03*
X129363200Y-75717400D03*
%TD*%
D10*
%TO.C,D1*%
X127304800Y-94284800D03*
X127304800Y-90984800D03*
%TD*%
D13*
%TO.C,R17*%
X137757400Y-62788800D03*
X139407400Y-62788800D03*
%TD*%
D14*
%TO.C,R9*%
X128320800Y-68212200D03*
X128320800Y-69862200D03*
%TD*%
D15*
%TO.C,TP3*%
X138099800Y-100431600D03*
%TD*%
D16*
%TO.C,Q4*%
X137673800Y-64446600D03*
X137673800Y-65096600D03*
X137673800Y-65746600D03*
X139573800Y-65746600D03*
X139573800Y-65096600D03*
X139573800Y-64446600D03*
%TD*%
D17*
%TO.C,C1*%
X141719600Y-92760800D03*
X140169600Y-92760800D03*
%TD*%
D18*
%TO.C,C8*%
X122682000Y-79616000D03*
X122682000Y-81166000D03*
%TD*%
D13*
%TO.C,R19*%
X140068800Y-72593200D03*
X141718800Y-72593200D03*
%TD*%
D15*
%TO.C,TP2*%
X119456200Y-97739200D03*
%TD*%
D19*
%TO.C,Q1*%
X124444800Y-96725500D03*
X122544800Y-96725500D03*
X123494800Y-98600500D03*
%TD*%
D13*
%TO.C,R5*%
X140145000Y-91236800D03*
X141795000Y-91236800D03*
%TD*%
D20*
%TO.C,R20*%
X123494800Y-74789800D03*
X123494800Y-73139800D03*
%TD*%
D15*
%TO.C,TP1*%
X124409200Y-77089000D03*
%TD*%
D20*
%TO.C,R11*%
X132207000Y-72935600D03*
X132207000Y-71285600D03*
%TD*%
D21*
%TO.C,R16*%
X139509000Y-67360800D03*
X137859000Y-67360800D03*
%TD*%
D22*
%TO.C,U2*%
X124031000Y-87243500D03*
X124981000Y-87243500D03*
X125931000Y-87243500D03*
X125931000Y-84968500D03*
X124031000Y-84968500D03*
%TD*%
D23*
%TO.C,R13*%
X134571100Y-75717400D03*
X136396100Y-75717400D03*
%TD*%
D20*
%TO.C,R21*%
X125044200Y-74789800D03*
X125044200Y-73139800D03*
%TD*%
D24*
%TO.C,SW2*%
X121016000Y-83091000D03*
X118806000Y-83091000D03*
D25*
X119906000Y-85241000D03*
X119906000Y-88241000D03*
D24*
X121016000Y-90391000D03*
X118806000Y-90391000D03*
D26*
X121666000Y-84491000D03*
X121666000Y-87491000D03*
X121666000Y-88991000D03*
%TD*%
D27*
%TO.C,JP1*%
X119100600Y-75712800D03*
D28*
X119100600Y-77012800D03*
D29*
X119100600Y-78312800D03*
%TD*%
D20*
%TO.C,R4*%
X138252200Y-97573600D03*
X138252200Y-95923600D03*
%TD*%
D17*
%TO.C,C4*%
X125527400Y-83185000D03*
X123977400Y-83185000D03*
%TD*%
D30*
%TO.C,Q5*%
X139156400Y-84981500D03*
X141056400Y-84981500D03*
X140106400Y-83106500D03*
%TD*%
D31*
%TO.C,H3*%
X147955000Y-91186000D03*
%TD*%
D21*
%TO.C,R18*%
X141718800Y-74295000D03*
X140068800Y-74295000D03*
%TD*%
D32*
%TO.C,SW1*%
X132765800Y-96191800D03*
D33*
X132765800Y-91871800D03*
D34*
X132765800Y-88871800D03*
%TD*%
D17*
%TO.C,C7*%
X141668800Y-70891400D03*
X140118800Y-70891400D03*
%TD*%
%TO.C,C3*%
X142354600Y-100228400D03*
X140804600Y-100228400D03*
%TD*%
D35*
%TO.C,C6*%
X124002800Y-89001600D03*
X125552800Y-89001600D03*
%TD*%
D20*
%TO.C,R7*%
X132918200Y-80631800D03*
X132918200Y-78981800D03*
%TD*%
D14*
%TO.C,R22*%
X121132600Y-79566000D03*
X121132600Y-81216000D03*
%TD*%
D17*
%TO.C,C2*%
X141706600Y-94259400D03*
X140156600Y-94259400D03*
%TD*%
D36*
%TO.C,J2*%
X148437200Y-64332800D03*
D37*
X148437200Y-66872800D03*
X148437200Y-69412800D03*
X148437200Y-71952800D03*
X148437200Y-74492800D03*
X148437200Y-77032800D03*
X148437200Y-79572800D03*
%TD*%
D13*
%TO.C,R3*%
X122746000Y-100457000D03*
X124396000Y-100457000D03*
%TD*%
D15*
%TO.C,TP4*%
X119405400Y-99796600D03*
%TD*%
D20*
%TO.C,R2*%
X127279400Y-97446600D03*
X127279400Y-95796600D03*
%TD*%
D13*
%TO.C,R15*%
X139230600Y-81150700D03*
X140880600Y-81150700D03*
%TD*%
D20*
%TO.C,R10*%
X136169400Y-82714600D03*
X136169400Y-81064600D03*
%TD*%
D31*
%TO.C,H2*%
X147904200Y-58521600D03*
%TD*%
D38*
%TO.C,U1*%
X142148600Y-95966700D03*
X141198600Y-95966700D03*
X140248600Y-95966700D03*
X140248600Y-98241700D03*
X142148600Y-98241700D03*
%TD*%
D39*
%TO.C,Q2*%
X131036300Y-80731400D03*
X131036300Y-78831400D03*
X129161300Y-79781400D03*
%TD*%
D40*
%TO.C,C5*%
X144500600Y-64427400D03*
X144500600Y-62877400D03*
%TD*%
D13*
%TO.C,R1*%
X122720600Y-94792800D03*
X124370600Y-94792800D03*
%TD*%
D31*
%TO.C,H1*%
X120751600Y-58623200D03*
%TD*%
D30*
%TO.C,Q6*%
X139131000Y-79141800D03*
X141031000Y-79141800D03*
X140081000Y-77266800D03*
%TD*%
D39*
%TO.C,Q3*%
X130452100Y-73263800D03*
X130452100Y-71363800D03*
X128577100Y-72313800D03*
%TD*%
D21*
%TO.C,R14*%
X140880600Y-87020400D03*
X139230600Y-87020400D03*
%TD*%
D41*
%TO.C,J3*%
X122058600Y-70132200D03*
D42*
X122058600Y-68132200D03*
X122058600Y-66132200D03*
X122058600Y-64132200D03*
%TD*%
D43*
%TO.C,J1*%
X147761200Y-98129000D03*
D44*
X145761200Y-98129000D03*
%TD*%
D45*
%TO.C,U4*%
X120993200Y-75227200D03*
X120993200Y-76127200D03*
X120993200Y-77027200D03*
X120993200Y-77927200D03*
X122193200Y-77927200D03*
X122193200Y-77027200D03*
X122193200Y-76127200D03*
X122193200Y-75227200D03*
%TD*%
M02*
