%TF.GenerationSoftware,KiCad,Pcbnew,7.0.10-7.0.10~ubuntu22.04.1*%
%TF.CreationDate,2024-01-30T00:04:26+01:00*%
%TF.ProjectId,MailBox_LP_Notifier,4d61696c-426f-4785-9f4c-505f4e6f7469,rev?*%
%TF.SameCoordinates,Original*%
%TF.FileFunction,Soldermask,Bot*%
%TF.FilePolarity,Negative*%
%FSLAX46Y46*%
G04 Gerber Fmt 4.6, Leading zero omitted, Abs format (unit mm)*
G04 Created by KiCad (PCBNEW 7.0.10-7.0.10~ubuntu22.04.1) date 2024-01-30 00:04:26*
%MOMM*%
%LPD*%
G01*
G04 APERTURE LIST*
G04 Aperture macros list*
%AMRoundRect*
0 Rectangle with rounded corners*
0 $1 Rounding radius*
0 $2 $3 $4 $5 $6 $7 $8 $9 X,Y pos of 4 corners*
0 Add a 4 corners polygon primitive as box body*
4,1,4,$2,$3,$4,$5,$6,$7,$8,$9,$2,$3,0*
0 Add four circle primitives for the rounded corners*
1,1,$1+$1,$2,$3*
1,1,$1+$1,$4,$5*
1,1,$1+$1,$6,$7*
1,1,$1+$1,$8,$9*
0 Add four rect primitives between the rounded corners*
20,1,$1+$1,$2,$3,$4,$5,0*
20,1,$1+$1,$4,$5,$6,$7,0*
20,1,$1+$1,$6,$7,$8,$9,0*
20,1,$1+$1,$8,$9,$2,$3,0*%
G04 Aperture macros list end*
%ADD10C,0.600000*%
%ADD11R,3.800000X3.800000*%
%ADD12R,1.500000X0.900000*%
%ADD13R,0.900000X1.500000*%
%ADD14C,0.900000*%
%ADD15C,3.200000*%
%ADD16C,3.000000*%
%ADD17RoundRect,0.250001X0.499999X0.499999X-0.499999X0.499999X-0.499999X-0.499999X0.499999X-0.499999X0*%
%ADD18C,1.500000*%
%ADD19R,1.700000X1.700000*%
%ADD20O,1.700000X1.700000*%
%ADD21RoundRect,0.250000X0.625000X-0.350000X0.625000X0.350000X-0.625000X0.350000X-0.625000X-0.350000X0*%
%ADD22O,1.750000X1.200000*%
%ADD23R,1.500000X1.500000*%
%ADD24RoundRect,0.200000X-0.275000X0.200000X-0.275000X-0.200000X0.275000X-0.200000X0.275000X0.200000X0*%
%ADD25RoundRect,0.250000X-0.262500X-0.450000X0.262500X-0.450000X0.262500X0.450000X-0.262500X0.450000X0*%
%ADD26RoundRect,0.250000X0.350000X0.625000X-0.350000X0.625000X-0.350000X-0.625000X0.350000X-0.625000X0*%
%ADD27O,1.200000X1.750000*%
%ADD28RoundRect,0.243750X0.243750X0.456250X-0.243750X0.456250X-0.243750X-0.456250X0.243750X-0.456250X0*%
G04 APERTURE END LIST*
D10*
%TO.C,U3*%
X137161000Y-71485400D03*
X136436000Y-72185400D03*
X136436000Y-69385400D03*
X137161000Y-70085400D03*
X137836000Y-69385400D03*
X135736000Y-70085400D03*
X137836000Y-70785400D03*
X138536000Y-71485400D03*
X137836000Y-72185400D03*
X135736000Y-71485400D03*
X136436000Y-70785400D03*
X138536000Y-70085400D03*
D11*
X137136000Y-70785400D03*
D12*
X126886000Y-63065400D03*
X126886000Y-64335400D03*
X126886000Y-65605400D03*
X126886000Y-66875400D03*
X126886000Y-68145400D03*
X126886000Y-69415400D03*
X126886000Y-70685400D03*
X126886000Y-71955400D03*
X126886000Y-73225400D03*
X126886000Y-74495400D03*
X126886000Y-75765400D03*
X126886000Y-77035400D03*
X126886000Y-78305400D03*
X126886000Y-79575400D03*
D13*
X129916000Y-80825400D03*
X131186000Y-80825400D03*
X132456000Y-80825400D03*
X133726000Y-80825400D03*
X134996000Y-80825400D03*
X136266000Y-80825400D03*
X137536000Y-80825400D03*
X138806000Y-80825400D03*
X140076000Y-80825400D03*
X141346000Y-80825400D03*
D12*
X144386000Y-79575400D03*
X144386000Y-78305400D03*
X144386000Y-77035400D03*
X144386000Y-75765400D03*
X144386000Y-74495400D03*
X144386000Y-73225400D03*
X144386000Y-71955400D03*
X144386000Y-70685400D03*
X144386000Y-69415400D03*
X144386000Y-68145400D03*
X144386000Y-66875400D03*
X144386000Y-65605400D03*
X144386000Y-64335400D03*
X144386000Y-63065400D03*
%TD*%
D14*
%TO.C,SW2*%
X119906000Y-85241000D03*
X119906000Y-88241000D03*
%TD*%
D15*
%TO.C,H3*%
X147955000Y-91186000D03*
%TD*%
D16*
%TO.C,SW1*%
X132765800Y-96191800D03*
D17*
X132765800Y-91871800D03*
D18*
X132765800Y-88871800D03*
%TD*%
D19*
%TO.C,J2*%
X148437200Y-64332800D03*
D20*
X148437200Y-66872800D03*
X148437200Y-69412800D03*
X148437200Y-71952800D03*
X148437200Y-74492800D03*
X148437200Y-77032800D03*
X148437200Y-79572800D03*
%TD*%
D15*
%TO.C,H2*%
X147904200Y-58521600D03*
%TD*%
%TO.C,H1*%
X120751600Y-58623200D03*
%TD*%
D21*
%TO.C,J3*%
X122058600Y-70132200D03*
D22*
X122058600Y-68132200D03*
X122058600Y-66132200D03*
X122058600Y-64132200D03*
%TD*%
D23*
%TO.C,SW4*%
X136271000Y-92292000D03*
X136271000Y-84492000D03*
%TD*%
D24*
%TO.C,R12*%
X133121400Y-82969600D03*
X133121400Y-84619600D03*
%TD*%
D23*
%TO.C,SW3*%
X143281400Y-92266600D03*
X143281400Y-84466600D03*
%TD*%
D25*
%TO.C,R6*%
X135587100Y-95377000D03*
X137412100Y-95377000D03*
%TD*%
D24*
%TO.C,R8*%
X131394200Y-82969600D03*
X131394200Y-84619600D03*
%TD*%
D26*
%TO.C,J1*%
X147761200Y-98129000D03*
D27*
X145761200Y-98129000D03*
%TD*%
D28*
%TO.C,D3*%
X137386300Y-97891600D03*
X135511300Y-97891600D03*
%TD*%
D23*
%TO.C,SW5*%
X128117600Y-92292000D03*
X128117600Y-84492000D03*
%TD*%
M02*
