%TF.GenerationSoftware,KiCad,Pcbnew,7.0.10-7.0.10~ubuntu22.04.1*%
%TF.CreationDate,2024-01-30T00:04:26+01:00*%
%TF.ProjectId,MailBox_LP_Notifier,4d61696c-426f-4785-9f4c-505f4e6f7469,rev?*%
%TF.SameCoordinates,Original*%
%TF.FileFunction,Copper,L2,Inr*%
%TF.FilePolarity,Positive*%
%FSLAX46Y46*%
G04 Gerber Fmt 4.6, Leading zero omitted, Abs format (unit mm)*
G04 Created by KiCad (PCBNEW 7.0.10-7.0.10~ubuntu22.04.1) date 2024-01-30 00:04:26*
%MOMM*%
%LPD*%
G01*
G04 APERTURE LIST*
G04 Aperture macros list*
%AMRoundRect*
0 Rectangle with rounded corners*
0 $1 Rounding radius*
0 $2 $3 $4 $5 $6 $7 $8 $9 X,Y pos of 4 corners*
0 Add a 4 corners polygon primitive as box body*
4,1,4,$2,$3,$4,$5,$6,$7,$8,$9,$2,$3,0*
0 Add four circle primitives for the rounded corners*
1,1,$1+$1,$2,$3*
1,1,$1+$1,$4,$5*
1,1,$1+$1,$6,$7*
1,1,$1+$1,$8,$9*
0 Add four rect primitives between the rounded corners*
20,1,$1+$1,$2,$3,$4,$5,0*
20,1,$1+$1,$4,$5,$6,$7,0*
20,1,$1+$1,$6,$7,$8,$9,0*
20,1,$1+$1,$8,$9,$2,$3,0*%
G04 Aperture macros list end*
%TA.AperFunction,HeatsinkPad*%
%ADD10C,0.600000*%
%TD*%
%TA.AperFunction,ComponentPad*%
%ADD11RoundRect,0.250001X0.499999X0.499999X-0.499999X0.499999X-0.499999X-0.499999X0.499999X-0.499999X0*%
%TD*%
%TA.AperFunction,ComponentPad*%
%ADD12C,1.500000*%
%TD*%
%TA.AperFunction,ComponentPad*%
%ADD13R,1.700000X1.700000*%
%TD*%
%TA.AperFunction,ComponentPad*%
%ADD14O,1.700000X1.700000*%
%TD*%
%TA.AperFunction,ComponentPad*%
%ADD15RoundRect,0.250000X0.625000X-0.350000X0.625000X0.350000X-0.625000X0.350000X-0.625000X-0.350000X0*%
%TD*%
%TA.AperFunction,ComponentPad*%
%ADD16O,1.750000X1.200000*%
%TD*%
%TA.AperFunction,ComponentPad*%
%ADD17RoundRect,0.250000X0.350000X0.625000X-0.350000X0.625000X-0.350000X-0.625000X0.350000X-0.625000X0*%
%TD*%
%TA.AperFunction,ComponentPad*%
%ADD18O,1.200000X1.750000*%
%TD*%
%TA.AperFunction,ViaPad*%
%ADD19C,0.800000*%
%TD*%
%TA.AperFunction,Conductor*%
%ADD20C,0.250000*%
%TD*%
%TA.AperFunction,Conductor*%
%ADD21C,0.500000*%
%TD*%
G04 APERTURE END LIST*
D10*
%TO.N,GND*%
%TO.C,U3*%
X137161000Y-71485400D03*
X136436000Y-72185400D03*
X136436000Y-69385400D03*
X137161000Y-70085400D03*
X137836000Y-69385400D03*
X135736000Y-70085400D03*
X137836000Y-70785400D03*
X138536000Y-71485400D03*
X137836000Y-72185400D03*
X135736000Y-71485400D03*
X136436000Y-70785400D03*
X138536000Y-70085400D03*
%TD*%
D11*
%TO.N,Net-(D1-Pad2)*%
%TO.C,SW1*%
X132765800Y-91871800D03*
D12*
%TO.N,VDD*%
X132765800Y-88871800D03*
%TD*%
D13*
%TO.N,DRT*%
%TO.C,J2*%
X148437200Y-64332800D03*
D14*
%TO.N,RTS*%
X148437200Y-66872800D03*
%TO.N,TX*%
X148437200Y-69412800D03*
%TO.N,RX*%
X148437200Y-71952800D03*
%TO.N,+3V3*%
X148437200Y-74492800D03*
%TO.N,unconnected-(J2-Pad6)*%
X148437200Y-77032800D03*
%TO.N,GND*%
X148437200Y-79572800D03*
%TD*%
D15*
%TO.N,SCL*%
%TO.C,J3*%
X122058600Y-70132200D03*
D16*
%TO.N,SDA*%
X122058600Y-68132200D03*
%TO.N,+3V3*%
X122058600Y-66132200D03*
%TO.N,GND*%
X122058600Y-64132200D03*
%TD*%
D17*
%TO.N,GND*%
%TO.C,J1*%
X147761200Y-98129000D03*
D18*
%TO.N,VDD*%
X145761200Y-98129000D03*
%TD*%
D19*
%TO.N,GND*%
X142468600Y-81153000D03*
X129336800Y-63068200D03*
X129489200Y-92303600D03*
X121818400Y-95580200D03*
X123126500Y-82334100D03*
X149199600Y-99542600D03*
X142468600Y-80314800D03*
X124333000Y-63060400D03*
X124981000Y-88302800D03*
X139340102Y-97667300D03*
X139725400Y-100228400D03*
X142646400Y-63042800D03*
X143306800Y-93624400D03*
X140880600Y-86144600D03*
X145643600Y-63068200D03*
X136271000Y-93878400D03*
X119100600Y-74472800D03*
X125433000Y-63060400D03*
X147751800Y-100025200D03*
X140156600Y-93498000D03*
%TO.N,VDD*%
X141325600Y-98221800D03*
X140081000Y-78917800D03*
X133908800Y-78917800D03*
X144373600Y-99542600D03*
X119075200Y-79502000D03*
X145770600Y-99999800D03*
X123012200Y-77901800D03*
X131089400Y-72288400D03*
%TO.N,+3V3*%
X124942600Y-84480400D03*
X122819600Y-88991000D03*
X142671800Y-64338200D03*
X145618200Y-64312800D03*
X130288800Y-82969600D03*
%TO.N,V_SENSE*%
X142671800Y-71120000D03*
%TO.N,~{INT}*%
X120993200Y-78752400D03*
X128854200Y-74193400D03*
%TO.N,MCU_HOLD*%
X128574800Y-75742800D03*
%TO.N,TX*%
X142319988Y-68119012D03*
%TO.N,RX*%
X142367000Y-69545200D03*
%TO.N,IO0*%
X125526800Y-79603600D03*
%TO.N,RST*%
X141351000Y-64439800D03*
X128346200Y-82829400D03*
%TO.N,VCC_SW*%
X121691400Y-86537800D03*
X139192000Y-77368400D03*
%TO.N,C_REED*%
X127279400Y-97942400D03*
%TO.N,WU_BUT*%
X131955079Y-76858487D03*
%TO.N,Net-(Q2-Pad1)*%
X137617878Y-85298033D03*
%TD*%
D20*
%TO.N,RST*%
X141351000Y-64439800D02*
X141351000Y-70367305D01*
X141351000Y-70367305D02*
X128888905Y-82829400D01*
X128888905Y-82829400D02*
X128346200Y-82829400D01*
D21*
%TO.N,VCC_SW*%
X139192000Y-77470000D02*
X139192000Y-77368400D01*
X130124200Y-86537800D02*
X139192000Y-77470000D01*
X121691400Y-86537800D02*
X130124200Y-86537800D01*
%TD*%
%TA.AperFunction,Conductor*%
%TO.N,GND*%
G36*
X150897388Y-61785402D02*
G01*
X150943881Y-61839058D01*
X150955267Y-61891330D01*
X150977030Y-101346430D01*
X150957066Y-101414562D01*
X150903436Y-101461085D01*
X150851030Y-101472500D01*
X117855640Y-101472500D01*
X117787519Y-101452498D01*
X117741026Y-101398842D01*
X117729640Y-101346361D01*
X117730628Y-100451100D01*
X117731630Y-99542600D01*
X143460096Y-99542600D01*
X143480057Y-99732527D01*
X143505189Y-99809872D01*
X143539073Y-99914156D01*
X143539076Y-99914161D01*
X143634558Y-100079541D01*
X143634565Y-100079551D01*
X143762344Y-100221464D01*
X143762347Y-100221466D01*
X143916848Y-100333718D01*
X144091312Y-100411394D01*
X144278113Y-100451100D01*
X144469087Y-100451100D01*
X144655888Y-100411394D01*
X144793526Y-100350113D01*
X144863891Y-100340680D01*
X144928188Y-100370786D01*
X144953892Y-100402220D01*
X145031560Y-100536744D01*
X145031562Y-100536747D01*
X145031565Y-100536751D01*
X145159344Y-100678664D01*
X145159347Y-100678666D01*
X145313848Y-100790918D01*
X145488312Y-100868594D01*
X145675113Y-100908300D01*
X145866087Y-100908300D01*
X146052888Y-100868594D01*
X146227352Y-100790918D01*
X146381853Y-100678666D01*
X146509640Y-100536744D01*
X146605127Y-100371356D01*
X146664142Y-100189728D01*
X146684104Y-99999800D01*
X146664142Y-99809872D01*
X146605127Y-99628244D01*
X146509640Y-99462856D01*
X146509638Y-99462854D01*
X146509634Y-99462848D01*
X146477240Y-99426872D01*
X146446522Y-99362865D01*
X146455285Y-99292411D01*
X146486396Y-99250021D01*
X146486273Y-99249904D01*
X146487183Y-99248949D01*
X146488374Y-99247327D01*
X146490410Y-99245562D01*
X146490415Y-99245559D01*
X146580152Y-99151444D01*
X146641636Y-99115946D01*
X146712553Y-99119324D01*
X146770385Y-99160505D01*
X146778584Y-99172247D01*
X146812565Y-99227339D01*
X146812570Y-99227345D01*
X146937854Y-99352629D01*
X146937860Y-99352634D01*
X147088674Y-99445657D01*
X147256878Y-99501393D01*
X147256881Y-99501394D01*
X147360683Y-99511999D01*
X147360683Y-99512000D01*
X147507200Y-99512000D01*
X147507200Y-98406503D01*
X147580252Y-98463363D01*
X147698624Y-98504000D01*
X147792273Y-98504000D01*
X147884646Y-98488586D01*
X147994714Y-98429019D01*
X148015200Y-98406765D01*
X148015200Y-99512000D01*
X148161717Y-99512000D01*
X148161716Y-99511999D01*
X148265518Y-99501394D01*
X148265521Y-99501393D01*
X148433725Y-99445657D01*
X148584539Y-99352634D01*
X148584545Y-99352629D01*
X148709829Y-99227345D01*
X148709834Y-99227339D01*
X148802857Y-99076525D01*
X148858593Y-98908321D01*
X148858594Y-98908318D01*
X148869199Y-98804516D01*
X148869200Y-98804516D01*
X148869200Y-98383000D01*
X148037078Y-98383000D01*
X148079478Y-98336941D01*
X148129751Y-98222330D01*
X148140086Y-98097605D01*
X148109363Y-97976281D01*
X148043192Y-97875000D01*
X148869200Y-97875000D01*
X148869200Y-97453483D01*
X148858594Y-97349681D01*
X148858593Y-97349678D01*
X148802857Y-97181474D01*
X148709834Y-97030660D01*
X148709829Y-97030654D01*
X148584545Y-96905370D01*
X148584539Y-96905365D01*
X148433725Y-96812342D01*
X148265521Y-96756606D01*
X148265518Y-96756605D01*
X148161716Y-96746000D01*
X148015200Y-96746000D01*
X148015200Y-97851496D01*
X147942148Y-97794637D01*
X147823776Y-97754000D01*
X147730127Y-97754000D01*
X147637754Y-97769414D01*
X147527686Y-97828981D01*
X147507200Y-97851234D01*
X147507200Y-96746000D01*
X147360683Y-96746000D01*
X147256881Y-96756605D01*
X147256878Y-96756606D01*
X147088674Y-96812342D01*
X146937860Y-96905365D01*
X146937854Y-96905370D01*
X146812570Y-97030654D01*
X146812563Y-97030663D01*
X146780423Y-97082770D01*
X146727637Y-97130248D01*
X146657562Y-97141650D01*
X146592446Y-97113357D01*
X146574139Y-97094508D01*
X146567107Y-97085566D01*
X146567106Y-97085565D01*
X146407122Y-96946938D01*
X146407111Y-96946930D01*
X146223787Y-96841089D01*
X146223780Y-96841086D01*
X146023730Y-96771848D01*
X146023729Y-96771847D01*
X146023727Y-96771847D01*
X146023725Y-96771846D01*
X146023719Y-96771845D01*
X145814185Y-96741718D01*
X145602736Y-96751790D01*
X145602723Y-96751792D01*
X145397001Y-96801700D01*
X145396995Y-96801702D01*
X145204428Y-96889644D01*
X145204421Y-96889648D01*
X145031991Y-97012435D01*
X145031981Y-97012444D01*
X144885895Y-97165656D01*
X144771444Y-97343745D01*
X144692763Y-97540281D01*
X144652700Y-97748146D01*
X144652700Y-98456804D01*
X144657463Y-98506688D01*
X144644026Y-98576402D01*
X144595032Y-98627784D01*
X144526037Y-98644521D01*
X144505837Y-98641911D01*
X144469089Y-98634100D01*
X144469087Y-98634100D01*
X144278113Y-98634100D01*
X144091311Y-98673806D01*
X143916847Y-98751482D01*
X143762344Y-98863735D01*
X143634565Y-99005648D01*
X143634558Y-99005658D01*
X143539076Y-99171038D01*
X143539073Y-99171045D01*
X143480057Y-99352672D01*
X143460096Y-99542600D01*
X117731630Y-99542600D01*
X117733395Y-97942400D01*
X126365896Y-97942400D01*
X126385857Y-98132327D01*
X126414929Y-98221800D01*
X126444873Y-98313956D01*
X126444876Y-98313961D01*
X126540358Y-98479341D01*
X126540365Y-98479351D01*
X126668144Y-98621264D01*
X126668147Y-98621266D01*
X126822648Y-98733518D01*
X126997112Y-98811194D01*
X127183913Y-98850900D01*
X127374887Y-98850900D01*
X127561688Y-98811194D01*
X127736152Y-98733518D01*
X127890653Y-98621266D01*
X127990973Y-98509849D01*
X128018434Y-98479351D01*
X128018435Y-98479349D01*
X128018440Y-98479344D01*
X128113927Y-98313956D01*
X128143871Y-98221800D01*
X140412096Y-98221800D01*
X140432057Y-98411727D01*
X140437676Y-98429019D01*
X140491073Y-98593356D01*
X140491076Y-98593361D01*
X140586558Y-98758741D01*
X140586565Y-98758751D01*
X140714344Y-98900664D01*
X140714347Y-98900666D01*
X140868848Y-99012918D01*
X141043312Y-99090594D01*
X141230113Y-99130300D01*
X141421087Y-99130300D01*
X141607888Y-99090594D01*
X141782352Y-99012918D01*
X141936853Y-98900666D01*
X141970107Y-98863734D01*
X142064634Y-98758751D01*
X142064635Y-98758749D01*
X142064640Y-98758744D01*
X142160127Y-98593356D01*
X142219142Y-98411728D01*
X142239104Y-98221800D01*
X142219142Y-98031872D01*
X142160127Y-97850244D01*
X142064640Y-97684856D01*
X142064638Y-97684854D01*
X142064634Y-97684848D01*
X141936855Y-97542935D01*
X141782352Y-97430682D01*
X141607888Y-97353006D01*
X141421087Y-97313300D01*
X141230113Y-97313300D01*
X141043311Y-97353006D01*
X140868847Y-97430682D01*
X140714344Y-97542935D01*
X140586565Y-97684848D01*
X140586558Y-97684858D01*
X140491076Y-97850238D01*
X140491073Y-97850245D01*
X140432057Y-98031872D01*
X140412096Y-98221800D01*
X128143871Y-98221800D01*
X128172942Y-98132328D01*
X128192904Y-97942400D01*
X128172942Y-97752472D01*
X128113927Y-97570844D01*
X128018440Y-97405456D01*
X128018438Y-97405454D01*
X128018434Y-97405448D01*
X127890655Y-97263535D01*
X127736152Y-97151282D01*
X127561688Y-97073606D01*
X127374887Y-97033900D01*
X127183913Y-97033900D01*
X126997111Y-97073606D01*
X126822647Y-97151282D01*
X126668144Y-97263535D01*
X126540365Y-97405448D01*
X126540358Y-97405458D01*
X126444876Y-97570838D01*
X126444873Y-97570845D01*
X126385857Y-97752472D01*
X126365896Y-97942400D01*
X117733395Y-97942400D01*
X117735182Y-96322982D01*
X131015300Y-96322982D01*
X131037024Y-96467111D01*
X131054404Y-96582419D01*
X131131733Y-96833114D01*
X131131738Y-96833127D01*
X131245573Y-97069506D01*
X131245577Y-97069513D01*
X131377860Y-97263535D01*
X131393367Y-97286279D01*
X131571819Y-97478605D01*
X131776943Y-97642186D01*
X131776946Y-97642188D01*
X132004152Y-97773366D01*
X132004156Y-97773367D01*
X132004157Y-97773368D01*
X132248384Y-97869220D01*
X132504170Y-97927602D01*
X132700306Y-97942300D01*
X132700307Y-97942300D01*
X132831293Y-97942300D01*
X132831294Y-97942300D01*
X133027430Y-97927602D01*
X133283216Y-97869220D01*
X133527443Y-97773368D01*
X133527445Y-97773366D01*
X133527447Y-97773366D01*
X133752795Y-97643261D01*
X133754657Y-97642186D01*
X133959781Y-97478605D01*
X134138233Y-97286279D01*
X134286028Y-97069504D01*
X134399863Y-96833123D01*
X134418765Y-96771845D01*
X134477195Y-96582419D01*
X134477196Y-96582415D01*
X134516300Y-96322982D01*
X134516300Y-96060618D01*
X134477196Y-95801185D01*
X134477195Y-95801183D01*
X134477195Y-95801180D01*
X134399866Y-95550485D01*
X134399861Y-95550472D01*
X134351654Y-95450370D01*
X134286028Y-95314096D01*
X134286026Y-95314093D01*
X134286022Y-95314086D01*
X134138237Y-95097327D01*
X134138233Y-95097321D01*
X133959781Y-94904995D01*
X133754657Y-94741414D01*
X133754652Y-94741411D01*
X133754653Y-94741411D01*
X133527447Y-94610233D01*
X133527439Y-94610230D01*
X133283219Y-94514381D01*
X133283217Y-94514380D01*
X133027433Y-94455998D01*
X132880328Y-94444974D01*
X132831294Y-94441300D01*
X132700306Y-94441300D01*
X132661078Y-94444239D01*
X132504166Y-94455998D01*
X132248382Y-94514380D01*
X132248380Y-94514381D01*
X132004160Y-94610230D01*
X132004152Y-94610233D01*
X131776946Y-94741411D01*
X131571818Y-94904995D01*
X131393366Y-95097322D01*
X131393362Y-95097327D01*
X131245577Y-95314086D01*
X131245573Y-95314093D01*
X131131738Y-95550472D01*
X131131733Y-95550485D01*
X131054404Y-95801180D01*
X131032679Y-95945314D01*
X131015300Y-96060618D01*
X131015300Y-96322982D01*
X117735182Y-96322982D01*
X117739485Y-92422352D01*
X131507299Y-92422352D01*
X131517912Y-92526221D01*
X131517912Y-92526223D01*
X131517913Y-92526225D01*
X131573685Y-92694538D01*
X131597683Y-92733444D01*
X131666770Y-92845451D01*
X131666775Y-92845457D01*
X131792142Y-92970824D01*
X131792148Y-92970829D01*
X131792149Y-92970830D01*
X131943062Y-93063915D01*
X132111375Y-93119687D01*
X132139706Y-93122581D01*
X132215248Y-93130300D01*
X132215256Y-93130300D01*
X133316352Y-93130300D01*
X133385598Y-93123224D01*
X133420225Y-93119687D01*
X133588538Y-93063915D01*
X133739451Y-92970830D01*
X133864830Y-92845451D01*
X133957915Y-92694538D01*
X134013687Y-92526225D01*
X134019041Y-92473820D01*
X134024300Y-92422352D01*
X134024300Y-91321247D01*
X134017405Y-91253765D01*
X146100788Y-91253765D01*
X146130412Y-91523014D01*
X146198928Y-91785090D01*
X146304869Y-92034389D01*
X146304870Y-92034390D01*
X146445982Y-92265610D01*
X146619255Y-92473820D01*
X146619257Y-92473822D01*
X146619259Y-92473824D01*
X146724236Y-92567883D01*
X146820998Y-92654582D01*
X147046910Y-92804044D01*
X147292176Y-92919020D01*
X147551569Y-92997060D01*
X147551572Y-92997060D01*
X147551574Y-92997061D01*
X147819557Y-93036500D01*
X147819561Y-93036500D01*
X148022631Y-93036500D01*
X148225156Y-93021677D01*
X148225160Y-93021676D01*
X148225161Y-93021676D01*
X148453415Y-92970830D01*
X148489553Y-92962780D01*
X148742558Y-92866014D01*
X148978777Y-92733441D01*
X149193177Y-92567888D01*
X149381186Y-92372881D01*
X149538799Y-92152579D01*
X149662656Y-91911675D01*
X149750118Y-91655305D01*
X149799319Y-91388933D01*
X149809212Y-91118235D01*
X149784996Y-90898148D01*
X149779587Y-90848985D01*
X149711071Y-90586909D01*
X149605130Y-90337610D01*
X149464018Y-90106390D01*
X149290745Y-89898180D01*
X149290741Y-89898177D01*
X149290740Y-89898175D01*
X149089012Y-89717427D01*
X149089002Y-89717418D01*
X148863090Y-89567956D01*
X148617824Y-89452980D01*
X148460392Y-89405615D01*
X148358425Y-89374938D01*
X148090442Y-89335500D01*
X148090439Y-89335500D01*
X147887369Y-89335500D01*
X147684839Y-89350323D01*
X147684838Y-89350323D01*
X147420456Y-89409217D01*
X147420441Y-89409222D01*
X147167441Y-89505986D01*
X146931229Y-89638555D01*
X146931225Y-89638557D01*
X146716818Y-89804116D01*
X146528815Y-89999117D01*
X146528810Y-89999123D01*
X146371203Y-90219417D01*
X146371196Y-90219427D01*
X146247343Y-90460324D01*
X146247342Y-90460327D01*
X146159883Y-90716689D01*
X146159880Y-90716702D01*
X146110681Y-90983058D01*
X146110680Y-90983069D01*
X146100788Y-91253765D01*
X134017405Y-91253765D01*
X134013687Y-91217378D01*
X134013687Y-91217375D01*
X133957915Y-91049062D01*
X133864830Y-90898149D01*
X133864829Y-90898148D01*
X133864824Y-90898142D01*
X133739457Y-90772775D01*
X133739451Y-90772770D01*
X133648530Y-90716689D01*
X133588538Y-90679685D01*
X133420225Y-90623913D01*
X133420223Y-90623912D01*
X133420221Y-90623912D01*
X133316352Y-90613300D01*
X133316344Y-90613300D01*
X132215256Y-90613300D01*
X132215248Y-90613300D01*
X132111378Y-90623912D01*
X131943062Y-90679685D01*
X131943060Y-90679686D01*
X131792148Y-90772770D01*
X131792142Y-90772775D01*
X131666775Y-90898142D01*
X131666770Y-90898148D01*
X131573686Y-91049060D01*
X131573685Y-91049062D01*
X131517912Y-91217378D01*
X131507300Y-91321247D01*
X131507300Y-92422352D01*
X131507299Y-92422352D01*
X117739485Y-92422352D01*
X117743270Y-88991000D01*
X121906096Y-88991000D01*
X121926057Y-89180927D01*
X121956126Y-89273470D01*
X121985073Y-89362556D01*
X121985076Y-89362561D01*
X122080558Y-89527941D01*
X122080565Y-89527951D01*
X122208344Y-89669864D01*
X122208347Y-89669866D01*
X122362848Y-89782118D01*
X122537312Y-89859794D01*
X122724113Y-89899500D01*
X122915087Y-89899500D01*
X123101888Y-89859794D01*
X123276352Y-89782118D01*
X123430853Y-89669866D01*
X123558640Y-89527944D01*
X123654127Y-89362556D01*
X123713142Y-89180928D01*
X123733104Y-88991000D01*
X123720576Y-88871800D01*
X131502493Y-88871800D01*
X131521685Y-89091170D01*
X131578679Y-89303873D01*
X131578681Y-89303879D01*
X131606045Y-89362561D01*
X131671744Y-89503454D01*
X131766345Y-89638557D01*
X131798051Y-89683838D01*
X131798054Y-89683842D01*
X131953757Y-89839545D01*
X131953761Y-89839548D01*
X131953762Y-89839549D01*
X132134146Y-89965856D01*
X132333724Y-90058920D01*
X132546429Y-90115915D01*
X132765800Y-90135107D01*
X132985171Y-90115915D01*
X133197876Y-90058920D01*
X133397454Y-89965856D01*
X133577838Y-89839549D01*
X133733549Y-89683838D01*
X133859856Y-89503454D01*
X133952920Y-89303876D01*
X134009915Y-89091171D01*
X134029107Y-88871800D01*
X134009915Y-88652429D01*
X133952920Y-88439724D01*
X133859856Y-88240147D01*
X133733549Y-88059762D01*
X133577838Y-87904051D01*
X133397454Y-87777744D01*
X133258219Y-87712818D01*
X133197879Y-87684681D01*
X133197873Y-87684679D01*
X133107978Y-87660591D01*
X132985171Y-87627685D01*
X132765800Y-87608493D01*
X132546429Y-87627685D01*
X132333726Y-87684679D01*
X132333720Y-87684681D01*
X132134146Y-87777744D01*
X131953765Y-87904048D01*
X131953759Y-87904053D01*
X131798053Y-88059759D01*
X131798048Y-88059765D01*
X131671744Y-88240146D01*
X131578681Y-88439720D01*
X131578679Y-88439726D01*
X131521685Y-88652429D01*
X131502493Y-88871800D01*
X123720576Y-88871800D01*
X123713142Y-88801072D01*
X123654127Y-88619444D01*
X123558640Y-88454056D01*
X123558638Y-88454054D01*
X123558634Y-88454048D01*
X123430855Y-88312135D01*
X123276352Y-88199882D01*
X123101888Y-88122206D01*
X122915087Y-88082500D01*
X122724113Y-88082500D01*
X122537311Y-88122206D01*
X122362847Y-88199882D01*
X122208344Y-88312135D01*
X122080565Y-88454048D01*
X122080558Y-88454058D01*
X122059100Y-88491225D01*
X121985073Y-88619444D01*
X121970599Y-88663986D01*
X121926057Y-88801072D01*
X121906096Y-88991000D01*
X117743270Y-88991000D01*
X117744003Y-88326059D01*
X119205500Y-88326059D01*
X119246208Y-88491221D01*
X119246210Y-88491225D01*
X119325265Y-88641851D01*
X119325270Y-88641857D01*
X119438069Y-88769181D01*
X119438071Y-88769183D01*
X119578070Y-88865818D01*
X119578074Y-88865820D01*
X119667172Y-88899609D01*
X119737128Y-88926140D01*
X119863628Y-88941500D01*
X119863632Y-88941500D01*
X119948368Y-88941500D01*
X119948372Y-88941500D01*
X120074872Y-88926140D01*
X120233930Y-88865818D01*
X120373929Y-88769183D01*
X120486734Y-88641852D01*
X120565790Y-88491225D01*
X120606500Y-88326056D01*
X120606500Y-88155944D01*
X120565790Y-87990775D01*
X120486734Y-87840148D01*
X120431447Y-87777742D01*
X120373930Y-87712818D01*
X120373928Y-87712816D01*
X120233929Y-87616181D01*
X120233925Y-87616179D01*
X120074870Y-87555859D01*
X119948378Y-87540500D01*
X119948372Y-87540500D01*
X119863628Y-87540500D01*
X119863621Y-87540500D01*
X119737129Y-87555859D01*
X119578074Y-87616179D01*
X119578070Y-87616181D01*
X119438071Y-87712816D01*
X119438069Y-87712818D01*
X119325270Y-87840142D01*
X119325265Y-87840148D01*
X119246210Y-87990774D01*
X119246208Y-87990778D01*
X119205500Y-88155940D01*
X119205500Y-88326059D01*
X117744003Y-88326059D01*
X117745975Y-86537800D01*
X120777896Y-86537800D01*
X120797857Y-86727727D01*
X120827926Y-86820270D01*
X120856873Y-86909356D01*
X120856876Y-86909361D01*
X120952358Y-87074741D01*
X120952365Y-87074751D01*
X121080144Y-87216664D01*
X121094112Y-87226812D01*
X121234648Y-87328918D01*
X121409112Y-87406594D01*
X121595913Y-87446300D01*
X121786887Y-87446300D01*
X121973688Y-87406594D01*
X122148152Y-87328918D01*
X122159924Y-87320364D01*
X122226791Y-87296506D01*
X122233987Y-87296300D01*
X130059759Y-87296300D01*
X130078019Y-87297630D01*
X130083689Y-87298460D01*
X130101989Y-87301141D01*
X130151846Y-87296778D01*
X130162827Y-87296300D01*
X130168375Y-87296300D01*
X130168380Y-87296300D01*
X130199487Y-87292663D01*
X130203089Y-87292295D01*
X130278626Y-87285687D01*
X130278630Y-87285685D01*
X130285818Y-87284202D01*
X130285831Y-87284268D01*
X130293187Y-87282636D01*
X130293172Y-87282571D01*
X130300302Y-87280880D01*
X130300313Y-87280879D01*
X130371600Y-87254932D01*
X130374969Y-87253761D01*
X130446938Y-87229914D01*
X130446947Y-87229908D01*
X130453589Y-87226812D01*
X130453618Y-87226874D01*
X130460403Y-87223589D01*
X130460373Y-87223529D01*
X130466924Y-87220237D01*
X130466932Y-87220235D01*
X130530291Y-87178561D01*
X130533361Y-87176606D01*
X130597851Y-87136830D01*
X130597859Y-87136821D01*
X130603608Y-87132277D01*
X130603650Y-87132331D01*
X130609489Y-87127575D01*
X130609446Y-87127523D01*
X130615064Y-87122807D01*
X130615074Y-87122801D01*
X130667161Y-87067590D01*
X130669648Y-87065031D01*
X132436646Y-85298033D01*
X136704374Y-85298033D01*
X136724335Y-85487960D01*
X136754404Y-85580503D01*
X136783351Y-85669589D01*
X136783354Y-85669594D01*
X136878836Y-85834974D01*
X136878843Y-85834984D01*
X137006622Y-85976897D01*
X137067877Y-86021401D01*
X137161126Y-86089151D01*
X137335590Y-86166827D01*
X137522391Y-86206533D01*
X137713365Y-86206533D01*
X137900166Y-86166827D01*
X138074630Y-86089151D01*
X138229131Y-85976899D01*
X138229133Y-85976897D01*
X138356912Y-85834984D01*
X138356913Y-85834982D01*
X138356918Y-85834977D01*
X138452405Y-85669589D01*
X138511420Y-85487961D01*
X138531382Y-85298033D01*
X138511420Y-85108105D01*
X138452405Y-84926477D01*
X138356918Y-84761089D01*
X138356916Y-84761087D01*
X138356912Y-84761081D01*
X138229133Y-84619168D01*
X138074630Y-84506915D01*
X137900166Y-84429239D01*
X137713365Y-84389533D01*
X137522391Y-84389533D01*
X137335589Y-84429239D01*
X137161125Y-84506915D01*
X137006622Y-84619168D01*
X136878843Y-84761081D01*
X136878836Y-84761091D01*
X136783354Y-84926471D01*
X136783351Y-84926478D01*
X136724335Y-85108105D01*
X136704374Y-85298033D01*
X132436646Y-85298033D01*
X138957079Y-78777600D01*
X139019389Y-78743576D01*
X139090204Y-78748641D01*
X139147040Y-78791188D01*
X139171851Y-78857708D01*
X139171482Y-78879864D01*
X139167496Y-78917797D01*
X139167496Y-78917798D01*
X139187457Y-79107727D01*
X139216978Y-79198581D01*
X139246473Y-79289356D01*
X139246476Y-79289361D01*
X139341958Y-79454741D01*
X139341965Y-79454751D01*
X139469744Y-79596664D01*
X139469747Y-79596666D01*
X139624248Y-79708918D01*
X139798712Y-79786594D01*
X139985513Y-79826300D01*
X140176487Y-79826300D01*
X140363288Y-79786594D01*
X140537752Y-79708918D01*
X140692253Y-79596666D01*
X140766459Y-79514252D01*
X140820034Y-79454751D01*
X140820035Y-79454749D01*
X140820040Y-79454744D01*
X140915527Y-79289356D01*
X140974542Y-79107728D01*
X140994504Y-78917800D01*
X140974542Y-78727872D01*
X140915527Y-78546244D01*
X140820040Y-78380856D01*
X140820038Y-78380854D01*
X140820034Y-78380848D01*
X140692255Y-78238935D01*
X140537752Y-78126682D01*
X140363288Y-78049006D01*
X140176487Y-78009300D01*
X140089259Y-78009300D01*
X140021138Y-77989298D01*
X139974645Y-77935642D01*
X139964541Y-77865368D01*
X139980140Y-77820300D01*
X140026527Y-77739956D01*
X140085542Y-77558328D01*
X140105504Y-77368400D01*
X140085542Y-77178472D01*
X140038210Y-77032800D01*
X147074044Y-77032800D01*
X147090388Y-77230043D01*
X147092637Y-77257175D01*
X147147902Y-77475412D01*
X147147903Y-77475413D01*
X147147904Y-77475416D01*
X147224309Y-77649604D01*
X147238341Y-77681593D01*
X147361475Y-77870065D01*
X147361479Y-77870070D01*
X147513962Y-78035708D01*
X147562561Y-78073534D01*
X147691624Y-78173989D01*
X147725405Y-78192270D01*
X147775796Y-78242282D01*
X147791149Y-78311599D01*
X147766589Y-78378212D01*
X147725409Y-78413896D01*
X147691904Y-78432028D01*
X147691898Y-78432032D01*
X147514297Y-78570265D01*
X147361874Y-78735841D01*
X147238780Y-78924251D01*
X147148379Y-79130343D01*
X147148376Y-79130350D01*
X147100655Y-79318799D01*
X147100656Y-79318800D01*
X148006084Y-79318800D01*
X147977707Y-79362956D01*
X147937200Y-79500911D01*
X147937200Y-79644689D01*
X147977707Y-79782644D01*
X148006084Y-79826800D01*
X147100655Y-79826800D01*
X147148376Y-80015249D01*
X147148379Y-80015256D01*
X147238780Y-80221348D01*
X147361874Y-80409758D01*
X147514297Y-80575334D01*
X147691898Y-80713567D01*
X147691899Y-80713568D01*
X147889828Y-80820682D01*
X147889830Y-80820683D01*
X148102683Y-80893755D01*
X148102692Y-80893757D01*
X148183200Y-80907191D01*
X148183200Y-80006474D01*
X148294885Y-80057480D01*
X148401437Y-80072800D01*
X148472963Y-80072800D01*
X148579515Y-80057480D01*
X148691200Y-80006474D01*
X148691200Y-80907190D01*
X148771707Y-80893757D01*
X148771716Y-80893755D01*
X148984569Y-80820683D01*
X148984571Y-80820682D01*
X149182500Y-80713568D01*
X149182501Y-80713567D01*
X149360102Y-80575334D01*
X149512525Y-80409758D01*
X149635619Y-80221348D01*
X149726020Y-80015256D01*
X149726023Y-80015249D01*
X149773744Y-79826800D01*
X148868316Y-79826800D01*
X148896693Y-79782644D01*
X148937200Y-79644689D01*
X148937200Y-79500911D01*
X148896693Y-79362956D01*
X148868316Y-79318800D01*
X149773744Y-79318800D01*
X149773744Y-79318799D01*
X149726023Y-79130350D01*
X149726020Y-79130343D01*
X149635619Y-78924251D01*
X149512525Y-78735841D01*
X149360102Y-78570265D01*
X149182501Y-78432032D01*
X149182500Y-78432031D01*
X149148991Y-78413897D01*
X149098601Y-78363883D01*
X149083250Y-78294566D01*
X149107812Y-78227953D01*
X149148990Y-78192272D01*
X149182776Y-78173989D01*
X149360440Y-78035706D01*
X149512922Y-77870068D01*
X149636060Y-77681591D01*
X149726496Y-77475416D01*
X149781764Y-77257168D01*
X149800356Y-77032800D01*
X149781764Y-76808432D01*
X149726496Y-76590184D01*
X149636060Y-76384009D01*
X149567945Y-76279751D01*
X149512924Y-76195534D01*
X149512920Y-76195529D01*
X149396770Y-76069359D01*
X149360440Y-76029894D01*
X149360439Y-76029893D01*
X149360437Y-76029891D01*
X149278582Y-75966181D01*
X149182776Y-75891611D01*
X149149519Y-75873613D01*
X149099129Y-75823602D01*
X149083776Y-75754285D01*
X149108336Y-75687672D01*
X149149520Y-75651986D01*
X149182776Y-75633989D01*
X149360440Y-75495706D01*
X149512922Y-75330068D01*
X149636060Y-75141591D01*
X149726496Y-74935416D01*
X149781764Y-74717168D01*
X149800356Y-74492800D01*
X149781764Y-74268432D01*
X149726496Y-74050184D01*
X149636060Y-73844009D01*
X149621575Y-73821838D01*
X149512924Y-73655534D01*
X149512920Y-73655529D01*
X149360437Y-73489891D01*
X149247877Y-73402282D01*
X149182776Y-73351611D01*
X149149519Y-73333613D01*
X149099129Y-73283602D01*
X149083776Y-73214285D01*
X149108336Y-73147672D01*
X149149520Y-73111986D01*
X149182776Y-73093989D01*
X149360440Y-72955706D01*
X149512922Y-72790068D01*
X149636060Y-72601591D01*
X149726496Y-72395416D01*
X149781764Y-72177168D01*
X149800356Y-71952800D01*
X149781764Y-71728432D01*
X149726496Y-71510184D01*
X149636060Y-71304009D01*
X149626416Y-71289247D01*
X149512924Y-71115534D01*
X149512920Y-71115529D01*
X149360437Y-70949891D01*
X149250998Y-70864711D01*
X149182776Y-70811611D01*
X149170443Y-70804937D01*
X149149520Y-70793614D01*
X149099129Y-70743602D01*
X149083776Y-70674285D01*
X149108336Y-70607672D01*
X149149520Y-70571986D01*
X149182776Y-70553989D01*
X149360440Y-70415706D01*
X149512922Y-70250068D01*
X149636060Y-70061591D01*
X149726496Y-69855416D01*
X149781764Y-69637168D01*
X149800356Y-69412800D01*
X149781764Y-69188432D01*
X149780433Y-69183175D01*
X149726497Y-68970187D01*
X149726496Y-68970186D01*
X149726496Y-68970184D01*
X149636060Y-68764009D01*
X149587040Y-68688978D01*
X149512924Y-68575534D01*
X149512920Y-68575529D01*
X149360437Y-68409891D01*
X149278582Y-68346181D01*
X149182776Y-68271611D01*
X149149519Y-68253613D01*
X149099129Y-68203602D01*
X149083776Y-68134285D01*
X149108336Y-68067672D01*
X149149520Y-68031986D01*
X149182776Y-68013989D01*
X149360440Y-67875706D01*
X149512922Y-67710068D01*
X149636060Y-67521591D01*
X149726496Y-67315416D01*
X149781764Y-67097168D01*
X149800356Y-66872800D01*
X149781764Y-66648432D01*
X149768178Y-66594782D01*
X149726497Y-66430187D01*
X149726496Y-66430186D01*
X149726496Y-66430184D01*
X149636060Y-66224009D01*
X149610695Y-66185185D01*
X149512924Y-66035534D01*
X149512919Y-66035529D01*
X149369724Y-65879979D01*
X149338303Y-65816314D01*
X149346290Y-65745768D01*
X149391148Y-65690739D01*
X149418383Y-65676589D01*
X149533404Y-65633689D01*
X149650461Y-65546061D01*
X149738089Y-65429004D01*
X149789189Y-65292001D01*
X149792964Y-65256892D01*
X149795699Y-65231449D01*
X149795700Y-65231432D01*
X149795700Y-63434167D01*
X149795699Y-63434150D01*
X149789190Y-63373603D01*
X149789188Y-63373595D01*
X149760124Y-63295675D01*
X149738089Y-63236596D01*
X149738088Y-63236594D01*
X149738087Y-63236592D01*
X149650461Y-63119538D01*
X149533407Y-63031912D01*
X149533402Y-63031910D01*
X149396404Y-62980811D01*
X149396396Y-62980809D01*
X149335849Y-62974300D01*
X149335838Y-62974300D01*
X147538562Y-62974300D01*
X147538550Y-62974300D01*
X147478003Y-62980809D01*
X147477995Y-62980811D01*
X147340997Y-63031910D01*
X147340992Y-63031912D01*
X147223938Y-63119538D01*
X147136312Y-63236592D01*
X147136310Y-63236597D01*
X147085211Y-63373595D01*
X147085209Y-63373603D01*
X147078700Y-63434150D01*
X147078700Y-65231449D01*
X147085209Y-65291996D01*
X147085211Y-65292004D01*
X147136310Y-65429002D01*
X147136312Y-65429007D01*
X147223938Y-65546061D01*
X147340991Y-65633686D01*
X147340992Y-65633686D01*
X147340996Y-65633689D01*
X147456010Y-65676587D01*
X147512842Y-65719132D01*
X147537653Y-65785652D01*
X147522562Y-65855026D01*
X147504675Y-65879979D01*
X147361480Y-66035529D01*
X147361475Y-66035534D01*
X147238341Y-66224006D01*
X147147903Y-66430186D01*
X147147902Y-66430187D01*
X147092637Y-66648424D01*
X147092636Y-66648430D01*
X147092636Y-66648432D01*
X147074044Y-66872800D01*
X147090299Y-67068971D01*
X147092637Y-67097175D01*
X147147902Y-67315412D01*
X147147903Y-67315413D01*
X147147904Y-67315416D01*
X147186313Y-67402981D01*
X147238341Y-67521593D01*
X147361475Y-67710065D01*
X147361479Y-67710070D01*
X147489739Y-67849396D01*
X147508402Y-67869669D01*
X147513962Y-67875708D01*
X147568531Y-67918181D01*
X147691624Y-68013989D01*
X147724880Y-68031986D01*
X147775271Y-68082000D01*
X147790623Y-68151316D01*
X147766062Y-68217929D01*
X147724880Y-68253613D01*
X147691626Y-68271610D01*
X147691624Y-68271611D01*
X147513962Y-68409891D01*
X147361479Y-68575529D01*
X147361475Y-68575534D01*
X147238341Y-68764006D01*
X147147903Y-68970186D01*
X147147902Y-68970187D01*
X147092637Y-69188424D01*
X147092636Y-69188430D01*
X147092636Y-69188432D01*
X147074044Y-69412800D01*
X147091857Y-69627772D01*
X147092637Y-69637175D01*
X147147902Y-69855412D01*
X147147903Y-69855413D01*
X147147904Y-69855416D01*
X147169421Y-69904470D01*
X147238341Y-70061593D01*
X147361475Y-70250065D01*
X147361479Y-70250070D01*
X147513962Y-70415708D01*
X147567155Y-70457110D01*
X147691624Y-70553989D01*
X147724880Y-70571986D01*
X147775271Y-70622000D01*
X147790623Y-70691316D01*
X147766062Y-70757929D01*
X147724880Y-70793613D01*
X147691626Y-70811610D01*
X147691624Y-70811611D01*
X147513962Y-70949891D01*
X147361479Y-71115529D01*
X147361475Y-71115534D01*
X147238341Y-71304006D01*
X147147903Y-71510186D01*
X147147902Y-71510187D01*
X147092637Y-71728424D01*
X147092636Y-71728430D01*
X147092636Y-71728432D01*
X147074044Y-71952800D01*
X147086269Y-72100335D01*
X147092637Y-72177175D01*
X147147902Y-72395412D01*
X147147903Y-72395413D01*
X147147904Y-72395416D01*
X147210534Y-72538199D01*
X147238341Y-72601593D01*
X147361475Y-72790065D01*
X147361479Y-72790070D01*
X147513962Y-72955708D01*
X147542765Y-72978126D01*
X147691624Y-73093989D01*
X147724880Y-73111986D01*
X147775271Y-73162000D01*
X147790623Y-73231316D01*
X147766062Y-73297929D01*
X147724880Y-73333613D01*
X147691626Y-73351610D01*
X147691624Y-73351611D01*
X147513962Y-73489891D01*
X147361479Y-73655529D01*
X147361475Y-73655534D01*
X147238341Y-73844006D01*
X147147903Y-74050186D01*
X147147902Y-74050187D01*
X147092637Y-74268424D01*
X147092636Y-74268430D01*
X147092636Y-74268432D01*
X147083115Y-74383328D01*
X147074044Y-74492800D01*
X147092637Y-74717175D01*
X147147902Y-74935412D01*
X147147903Y-74935413D01*
X147147904Y-74935416D01*
X147171578Y-74989387D01*
X147238341Y-75141593D01*
X147361475Y-75330065D01*
X147361479Y-75330070D01*
X147513962Y-75495708D01*
X147568531Y-75538181D01*
X147691624Y-75633989D01*
X147724880Y-75651986D01*
X147775271Y-75702000D01*
X147790623Y-75771316D01*
X147766062Y-75837929D01*
X147724880Y-75873613D01*
X147691626Y-75891610D01*
X147691624Y-75891611D01*
X147513962Y-76029891D01*
X147361479Y-76195529D01*
X147361475Y-76195534D01*
X147238341Y-76384006D01*
X147147903Y-76590186D01*
X147147902Y-76590187D01*
X147092637Y-76808424D01*
X147092636Y-76808430D01*
X147092636Y-76808432D01*
X147074044Y-77032800D01*
X140038210Y-77032800D01*
X140026527Y-76996844D01*
X139931040Y-76831456D01*
X139931038Y-76831454D01*
X139931034Y-76831448D01*
X139803255Y-76689535D01*
X139648752Y-76577282D01*
X139474288Y-76499606D01*
X139287487Y-76459900D01*
X139096513Y-76459900D01*
X138909711Y-76499606D01*
X138735247Y-76577282D01*
X138580744Y-76689535D01*
X138452965Y-76831448D01*
X138452958Y-76831458D01*
X138357476Y-76996838D01*
X138357473Y-76996845D01*
X138298459Y-77178467D01*
X138289922Y-77259687D01*
X138262908Y-77325343D01*
X138253707Y-77335610D01*
X129846924Y-85742395D01*
X129784612Y-85776421D01*
X129757829Y-85779300D01*
X122233987Y-85779300D01*
X122165866Y-85759298D01*
X122159924Y-85755235D01*
X122148154Y-85746683D01*
X121973688Y-85669006D01*
X121786887Y-85629300D01*
X121595913Y-85629300D01*
X121409111Y-85669006D01*
X121234647Y-85746682D01*
X121080144Y-85858935D01*
X120952365Y-86000848D01*
X120952358Y-86000858D01*
X120856876Y-86166238D01*
X120856873Y-86166245D01*
X120797857Y-86347872D01*
X120777896Y-86537800D01*
X117745975Y-86537800D01*
X117747312Y-85326059D01*
X119205500Y-85326059D01*
X119246208Y-85491221D01*
X119246210Y-85491225D01*
X119325265Y-85641851D01*
X119325270Y-85641857D01*
X119438069Y-85769181D01*
X119438071Y-85769183D01*
X119578070Y-85865818D01*
X119578074Y-85865820D01*
X119667172Y-85899609D01*
X119737128Y-85926140D01*
X119863628Y-85941500D01*
X119863632Y-85941500D01*
X119948368Y-85941500D01*
X119948372Y-85941500D01*
X120074872Y-85926140D01*
X120233930Y-85865818D01*
X120373929Y-85769183D01*
X120486734Y-85641852D01*
X120565790Y-85491225D01*
X120566595Y-85487961D01*
X120567880Y-85482742D01*
X120606500Y-85326056D01*
X120606500Y-85155944D01*
X120594709Y-85108105D01*
X120565791Y-84990778D01*
X120565790Y-84990776D01*
X120565790Y-84990775D01*
X120486734Y-84840148D01*
X120373929Y-84712817D01*
X120312374Y-84670328D01*
X120233929Y-84616181D01*
X120233925Y-84616179D01*
X120074870Y-84555859D01*
X119948378Y-84540500D01*
X119948372Y-84540500D01*
X119863628Y-84540500D01*
X119863621Y-84540500D01*
X119737129Y-84555859D01*
X119578074Y-84616179D01*
X119578070Y-84616181D01*
X119438071Y-84712816D01*
X119438069Y-84712818D01*
X119325270Y-84840142D01*
X119325265Y-84840148D01*
X119246210Y-84990774D01*
X119246208Y-84990778D01*
X119205500Y-85155940D01*
X119205500Y-85326059D01*
X117747312Y-85326059D01*
X117748245Y-84480400D01*
X124029096Y-84480400D01*
X124049057Y-84670327D01*
X124062864Y-84712818D01*
X124108073Y-84851956D01*
X124108076Y-84851961D01*
X124203558Y-85017341D01*
X124203565Y-85017351D01*
X124331344Y-85159264D01*
X124331347Y-85159266D01*
X124485848Y-85271518D01*
X124660312Y-85349194D01*
X124847113Y-85388900D01*
X125038087Y-85388900D01*
X125224888Y-85349194D01*
X125399352Y-85271518D01*
X125553853Y-85159266D01*
X125553855Y-85159264D01*
X125681634Y-85017351D01*
X125681635Y-85017349D01*
X125681640Y-85017344D01*
X125777127Y-84851956D01*
X125836142Y-84670328D01*
X125856104Y-84480400D01*
X125836142Y-84290472D01*
X125777127Y-84108844D01*
X125681640Y-83943456D01*
X125681638Y-83943454D01*
X125681634Y-83943448D01*
X125553855Y-83801535D01*
X125399352Y-83689282D01*
X125224888Y-83611606D01*
X125038087Y-83571900D01*
X124847113Y-83571900D01*
X124660311Y-83611606D01*
X124485847Y-83689282D01*
X124331344Y-83801535D01*
X124203565Y-83943448D01*
X124203558Y-83943458D01*
X124108076Y-84108838D01*
X124108073Y-84108845D01*
X124049057Y-84290472D01*
X124029096Y-84480400D01*
X117748245Y-84480400D01*
X117750066Y-82829400D01*
X127432696Y-82829400D01*
X127452657Y-83019327D01*
X127482726Y-83111870D01*
X127511673Y-83200956D01*
X127511676Y-83200961D01*
X127607158Y-83366341D01*
X127607165Y-83366351D01*
X127734944Y-83508264D01*
X127734947Y-83508266D01*
X127889448Y-83620518D01*
X128063912Y-83698194D01*
X128250713Y-83737900D01*
X128441687Y-83737900D01*
X128628488Y-83698194D01*
X128802952Y-83620518D01*
X128957453Y-83508266D01*
X128975872Y-83487809D01*
X129036314Y-83450571D01*
X129040210Y-83449797D01*
X129047703Y-83447874D01*
X129068792Y-83439523D01*
X129088815Y-83431595D01*
X129100035Y-83427753D01*
X129124818Y-83420554D01*
X129142496Y-83415419D01*
X129142500Y-83415417D01*
X129159931Y-83405108D01*
X129177685Y-83396409D01*
X129196522Y-83388952D01*
X129232297Y-83362958D01*
X129242203Y-83356451D01*
X129280267Y-83333942D01*
X129280275Y-83333933D01*
X129283437Y-83331482D01*
X129286385Y-83330324D01*
X129287094Y-83329905D01*
X129287161Y-83330019D01*
X129349521Y-83305529D01*
X129419144Y-83319424D01*
X129469791Y-83368034D01*
X129549760Y-83506544D01*
X129549762Y-83506547D01*
X129549765Y-83506551D01*
X129677544Y-83648464D01*
X129677547Y-83648466D01*
X129832048Y-83760718D01*
X130006512Y-83838394D01*
X130193313Y-83878100D01*
X130384287Y-83878100D01*
X130571088Y-83838394D01*
X130745552Y-83760718D01*
X130900053Y-83648466D01*
X130900055Y-83648464D01*
X131027834Y-83506551D01*
X131027835Y-83506549D01*
X131027840Y-83506544D01*
X131123327Y-83341156D01*
X131182342Y-83159528D01*
X131202304Y-82969600D01*
X131182342Y-82779672D01*
X131123327Y-82598044D01*
X131027840Y-82432656D01*
X131027838Y-82432654D01*
X131027834Y-82432648D01*
X130900055Y-82290735D01*
X130745552Y-82178482D01*
X130698653Y-82157601D01*
X130644558Y-82111622D01*
X130623909Y-82043694D01*
X130643261Y-81975386D01*
X130660804Y-81953404D01*
X133070996Y-79543211D01*
X133133306Y-79509188D01*
X133204121Y-79514252D01*
X133253725Y-79547998D01*
X133297544Y-79596664D01*
X133297547Y-79596666D01*
X133452048Y-79708918D01*
X133626512Y-79786594D01*
X133813313Y-79826300D01*
X134004287Y-79826300D01*
X134191088Y-79786594D01*
X134365552Y-79708918D01*
X134520053Y-79596666D01*
X134594259Y-79514252D01*
X134647834Y-79454751D01*
X134647835Y-79454749D01*
X134647840Y-79454744D01*
X134743327Y-79289356D01*
X134802342Y-79107728D01*
X134822304Y-78917800D01*
X134802342Y-78727872D01*
X134743327Y-78546244D01*
X134647840Y-78380856D01*
X134647838Y-78380854D01*
X134647834Y-78380848D01*
X134531465Y-78251607D01*
X134500747Y-78187600D01*
X134509512Y-78117146D01*
X134536003Y-78078205D01*
X141546389Y-71067819D01*
X141608699Y-71033795D01*
X141679514Y-71038860D01*
X141736350Y-71081407D01*
X141760791Y-71143745D01*
X141764005Y-71174314D01*
X141778257Y-71309927D01*
X141807633Y-71400335D01*
X141837273Y-71491556D01*
X141837276Y-71491561D01*
X141932758Y-71656941D01*
X141932765Y-71656951D01*
X142060544Y-71798864D01*
X142060547Y-71798866D01*
X142215048Y-71911118D01*
X142389512Y-71988794D01*
X142576313Y-72028500D01*
X142767287Y-72028500D01*
X142954088Y-71988794D01*
X143128552Y-71911118D01*
X143283053Y-71798866D01*
X143283055Y-71798864D01*
X143410834Y-71656951D01*
X143410835Y-71656949D01*
X143410840Y-71656944D01*
X143506327Y-71491556D01*
X143565342Y-71309928D01*
X143585304Y-71120000D01*
X143565342Y-70930072D01*
X143506327Y-70748444D01*
X143410840Y-70583056D01*
X143410838Y-70583054D01*
X143410834Y-70583048D01*
X143283055Y-70441135D01*
X143186219Y-70370780D01*
X143128552Y-70328882D01*
X143128550Y-70328881D01*
X143128549Y-70328880D01*
X143112323Y-70321656D01*
X143058228Y-70275676D01*
X143037579Y-70207749D01*
X143056932Y-70139441D01*
X143069931Y-70122246D01*
X143106040Y-70082144D01*
X143201527Y-69916756D01*
X143260542Y-69735128D01*
X143280504Y-69545200D01*
X143260542Y-69355272D01*
X143201527Y-69173644D01*
X143106040Y-69008256D01*
X143106038Y-69008254D01*
X143106034Y-69008248D01*
X142999841Y-68890309D01*
X142969123Y-68826302D01*
X142977888Y-68755848D01*
X142999837Y-68721693D01*
X143059028Y-68655956D01*
X143154515Y-68490568D01*
X143213530Y-68308940D01*
X143233492Y-68119012D01*
X143213530Y-67929084D01*
X143154515Y-67747456D01*
X143059028Y-67582068D01*
X143059026Y-67582066D01*
X143059022Y-67582060D01*
X142931243Y-67440147D01*
X142776740Y-67327894D01*
X142602276Y-67250218D01*
X142415475Y-67210512D01*
X142224501Y-67210512D01*
X142224500Y-67210512D01*
X142136697Y-67229175D01*
X142065906Y-67223773D01*
X142009273Y-67180956D01*
X141984780Y-67114318D01*
X141984500Y-67105928D01*
X141984500Y-65209103D01*
X142004502Y-65140982D01*
X142058158Y-65094489D01*
X142128432Y-65084385D01*
X142184560Y-65107167D01*
X142201069Y-65119161D01*
X142215046Y-65129317D01*
X142215047Y-65129317D01*
X142215048Y-65129318D01*
X142389512Y-65206994D01*
X142576313Y-65246700D01*
X142767287Y-65246700D01*
X142954088Y-65206994D01*
X143128552Y-65129318D01*
X143283053Y-65017066D01*
X143354471Y-64937748D01*
X143410834Y-64875151D01*
X143410835Y-64875149D01*
X143410840Y-64875144D01*
X143506327Y-64709756D01*
X143565342Y-64528128D01*
X143585304Y-64338200D01*
X143582634Y-64312800D01*
X144704696Y-64312800D01*
X144724657Y-64502727D01*
X144732911Y-64528128D01*
X144783673Y-64684356D01*
X144783676Y-64684361D01*
X144879158Y-64849741D01*
X144879165Y-64849751D01*
X145006944Y-64991664D01*
X145036699Y-65013282D01*
X145161448Y-65103918D01*
X145335912Y-65181594D01*
X145522713Y-65221300D01*
X145713687Y-65221300D01*
X145900488Y-65181594D01*
X146074952Y-65103918D01*
X146229453Y-64991666D01*
X146278009Y-64937739D01*
X146357234Y-64849751D01*
X146357235Y-64849749D01*
X146357240Y-64849744D01*
X146452727Y-64684356D01*
X146511742Y-64502728D01*
X146531704Y-64312800D01*
X146511742Y-64122872D01*
X146452727Y-63941244D01*
X146357240Y-63775856D01*
X146357238Y-63775854D01*
X146357234Y-63775848D01*
X146229455Y-63633935D01*
X146074952Y-63521682D01*
X145900488Y-63444006D01*
X145713687Y-63404300D01*
X145522713Y-63404300D01*
X145335911Y-63444006D01*
X145161447Y-63521682D01*
X145006944Y-63633935D01*
X144879165Y-63775848D01*
X144879158Y-63775858D01*
X144783676Y-63941238D01*
X144783673Y-63941245D01*
X144724657Y-64122872D01*
X144704696Y-64312800D01*
X143582634Y-64312800D01*
X143565342Y-64148272D01*
X143506327Y-63966644D01*
X143410840Y-63801256D01*
X143410838Y-63801254D01*
X143410834Y-63801248D01*
X143283055Y-63659335D01*
X143128552Y-63547082D01*
X142954088Y-63469406D01*
X142767287Y-63429700D01*
X142576313Y-63429700D01*
X142389511Y-63469406D01*
X142215047Y-63547082D01*
X142060545Y-63659334D01*
X142042283Y-63679617D01*
X141981836Y-63716856D01*
X141910853Y-63715503D01*
X141874587Y-63697241D01*
X141836848Y-63669822D01*
X141807752Y-63648682D01*
X141633288Y-63571006D01*
X141446487Y-63531300D01*
X141255513Y-63531300D01*
X141068711Y-63571006D01*
X140894247Y-63648682D01*
X140739744Y-63760935D01*
X140611965Y-63902848D01*
X140611958Y-63902858D01*
X140516476Y-64068238D01*
X140516473Y-64068245D01*
X140457457Y-64249872D01*
X140437496Y-64439800D01*
X140457457Y-64629727D01*
X140487526Y-64722270D01*
X140516473Y-64811356D01*
X140516476Y-64811361D01*
X140589445Y-64937748D01*
X140611960Y-64976744D01*
X140685137Y-65058015D01*
X140715853Y-65122020D01*
X140717500Y-65142324D01*
X140717500Y-70052709D01*
X140697498Y-70120830D01*
X140680595Y-70141804D01*
X139519566Y-71302833D01*
X139457254Y-71336859D01*
X139386439Y-71331794D01*
X139329603Y-71289247D01*
X139311542Y-71255353D01*
X139268591Y-71132608D01*
X139268587Y-71132599D01*
X139260646Y-71119963D01*
X139260646Y-71119962D01*
X138536000Y-71844610D01*
X138113858Y-72266753D01*
X138113857Y-72266754D01*
X137836000Y-72544610D01*
X137470562Y-72910046D01*
X137483199Y-72917987D01*
X137483205Y-72917990D01*
X137605953Y-72960942D01*
X137663644Y-73002320D01*
X137689806Y-73068321D01*
X137676133Y-73137988D01*
X137653432Y-73168966D01*
X128851153Y-81971245D01*
X128788841Y-82005271D01*
X128718026Y-82000206D01*
X128710810Y-81997257D01*
X128628490Y-81960606D01*
X128441687Y-81920900D01*
X128250713Y-81920900D01*
X128063911Y-81960606D01*
X127889447Y-82038282D01*
X127734944Y-82150535D01*
X127607165Y-82292448D01*
X127607158Y-82292458D01*
X127511676Y-82457838D01*
X127511673Y-82457845D01*
X127452657Y-82639472D01*
X127432696Y-82829400D01*
X117750066Y-82829400D01*
X117753737Y-79502000D01*
X118161696Y-79502000D01*
X118181657Y-79691927D01*
X118187178Y-79708917D01*
X118240673Y-79873556D01*
X118240676Y-79873561D01*
X118336158Y-80038941D01*
X118336165Y-80038951D01*
X118463944Y-80180864D01*
X118463947Y-80180866D01*
X118618448Y-80293118D01*
X118792912Y-80370794D01*
X118979713Y-80410500D01*
X119170687Y-80410500D01*
X119357488Y-80370794D01*
X119531952Y-80293118D01*
X119686453Y-80180866D01*
X119814240Y-80038944D01*
X119909727Y-79873556D01*
X119968742Y-79691928D01*
X119988704Y-79502000D01*
X119968742Y-79312072D01*
X119968742Y-79312070D01*
X119954925Y-79269548D01*
X119952896Y-79198581D01*
X119985480Y-79144541D01*
X119944595Y-79139851D01*
X119889633Y-79094909D01*
X119884523Y-79086789D01*
X119814241Y-78965058D01*
X119814234Y-78965048D01*
X119686455Y-78823135D01*
X119589097Y-78752400D01*
X120079696Y-78752400D01*
X120099657Y-78942327D01*
X120113475Y-78984852D01*
X120115503Y-79055820D01*
X120082917Y-79109857D01*
X120123803Y-79114548D01*
X120178765Y-79159488D01*
X120183876Y-79167609D01*
X120254160Y-79289344D01*
X120254162Y-79289347D01*
X120254165Y-79289351D01*
X120381944Y-79431264D01*
X120414271Y-79454751D01*
X120536448Y-79543518D01*
X120710912Y-79621194D01*
X120897713Y-79660900D01*
X121088687Y-79660900D01*
X121275488Y-79621194D01*
X121315005Y-79603600D01*
X124613296Y-79603600D01*
X124633257Y-79793527D01*
X124663326Y-79886070D01*
X124692273Y-79975156D01*
X124692276Y-79975161D01*
X124787758Y-80140541D01*
X124787765Y-80140551D01*
X124915544Y-80282464D01*
X124915547Y-80282466D01*
X125070048Y-80394718D01*
X125244512Y-80472394D01*
X125431313Y-80512100D01*
X125622287Y-80512100D01*
X125809088Y-80472394D01*
X125983552Y-80394718D01*
X126138053Y-80282466D01*
X126265840Y-80140544D01*
X126361327Y-79975156D01*
X126420342Y-79793528D01*
X126440304Y-79603600D01*
X126420342Y-79413672D01*
X126361327Y-79232044D01*
X126265840Y-79066656D01*
X126265838Y-79066654D01*
X126265834Y-79066648D01*
X126138055Y-78924735D01*
X125983552Y-78812482D01*
X125809088Y-78734806D01*
X125622287Y-78695100D01*
X125431313Y-78695100D01*
X125244511Y-78734806D01*
X125070047Y-78812482D01*
X124915544Y-78924735D01*
X124787765Y-79066648D01*
X124787758Y-79066658D01*
X124692276Y-79232038D01*
X124692273Y-79232044D01*
X124680087Y-79269548D01*
X124633257Y-79413672D01*
X124613296Y-79603600D01*
X121315005Y-79603600D01*
X121449952Y-79543518D01*
X121604453Y-79431266D01*
X121711776Y-79312072D01*
X121732234Y-79289351D01*
X121732235Y-79289349D01*
X121732240Y-79289344D01*
X121827727Y-79123956D01*
X121886742Y-78942328D01*
X121906704Y-78752400D01*
X121886742Y-78562472D01*
X121827727Y-78380844D01*
X121732240Y-78215456D01*
X121732238Y-78215454D01*
X121732234Y-78215448D01*
X121604455Y-78073535D01*
X121449952Y-77961282D01*
X121316353Y-77901800D01*
X122098696Y-77901800D01*
X122118657Y-78091727D01*
X122130015Y-78126682D01*
X122177673Y-78273356D01*
X122177676Y-78273361D01*
X122273158Y-78438741D01*
X122273165Y-78438751D01*
X122400944Y-78580664D01*
X122400947Y-78580666D01*
X122555448Y-78692918D01*
X122729912Y-78770594D01*
X122916713Y-78810300D01*
X123107687Y-78810300D01*
X123294488Y-78770594D01*
X123468952Y-78692918D01*
X123623453Y-78580666D01*
X123751240Y-78438744D01*
X123846727Y-78273356D01*
X123905742Y-78091728D01*
X123925704Y-77901800D01*
X123905742Y-77711872D01*
X123846727Y-77530244D01*
X123751240Y-77364856D01*
X123751238Y-77364854D01*
X123751234Y-77364848D01*
X123623455Y-77222935D01*
X123468952Y-77110682D01*
X123294488Y-77033006D01*
X123107687Y-76993300D01*
X122916713Y-76993300D01*
X122729911Y-77033006D01*
X122555447Y-77110682D01*
X122400944Y-77222935D01*
X122273165Y-77364848D01*
X122273158Y-77364858D01*
X122177676Y-77530238D01*
X122177673Y-77530245D01*
X122118657Y-77711872D01*
X122098696Y-77901800D01*
X121316353Y-77901800D01*
X121275488Y-77883606D01*
X121088687Y-77843900D01*
X120897713Y-77843900D01*
X120710911Y-77883606D01*
X120536447Y-77961282D01*
X120381944Y-78073535D01*
X120254165Y-78215448D01*
X120254158Y-78215458D01*
X120158676Y-78380838D01*
X120158673Y-78380844D01*
X120155276Y-78391300D01*
X120099657Y-78562472D01*
X120079696Y-78752400D01*
X119589097Y-78752400D01*
X119531952Y-78710882D01*
X119357488Y-78633206D01*
X119170687Y-78593500D01*
X118979713Y-78593500D01*
X118792911Y-78633206D01*
X118618447Y-78710882D01*
X118463944Y-78823135D01*
X118336165Y-78965048D01*
X118336158Y-78965058D01*
X118240731Y-79130343D01*
X118240673Y-79130444D01*
X118236093Y-79144541D01*
X118181657Y-79312072D01*
X118161696Y-79502000D01*
X117753737Y-79502000D01*
X117756653Y-76858487D01*
X131041575Y-76858487D01*
X131061536Y-77048414D01*
X131081769Y-77110682D01*
X131120552Y-77230043D01*
X131120555Y-77230048D01*
X131216037Y-77395428D01*
X131216044Y-77395438D01*
X131343823Y-77537351D01*
X131343826Y-77537353D01*
X131498327Y-77649605D01*
X131672791Y-77727281D01*
X131859592Y-77766987D01*
X132050566Y-77766987D01*
X132237367Y-77727281D01*
X132411831Y-77649605D01*
X132566332Y-77537353D01*
X132572733Y-77530244D01*
X132694113Y-77395438D01*
X132694114Y-77395436D01*
X132694119Y-77395431D01*
X132789606Y-77230043D01*
X132848621Y-77048415D01*
X132868583Y-76858487D01*
X132848621Y-76668559D01*
X132789606Y-76486931D01*
X132694119Y-76321543D01*
X132694117Y-76321541D01*
X132694113Y-76321535D01*
X132566334Y-76179622D01*
X132411831Y-76067369D01*
X132237367Y-75989693D01*
X132050566Y-75949987D01*
X131859592Y-75949987D01*
X131672790Y-75989693D01*
X131498326Y-76067369D01*
X131343823Y-76179622D01*
X131216044Y-76321535D01*
X131216037Y-76321545D01*
X131120555Y-76486925D01*
X131120552Y-76486932D01*
X131061536Y-76668559D01*
X131041575Y-76858487D01*
X117756653Y-76858487D01*
X117757884Y-75742800D01*
X127661296Y-75742800D01*
X127681257Y-75932727D01*
X127699767Y-75989693D01*
X127740273Y-76114356D01*
X127740276Y-76114361D01*
X127835758Y-76279741D01*
X127835765Y-76279751D01*
X127963544Y-76421664D01*
X127963547Y-76421666D01*
X128118048Y-76533918D01*
X128292512Y-76611594D01*
X128479313Y-76651300D01*
X128670287Y-76651300D01*
X128857088Y-76611594D01*
X129031552Y-76533918D01*
X129186053Y-76421666D01*
X129186055Y-76421664D01*
X129313834Y-76279751D01*
X129313835Y-76279749D01*
X129313840Y-76279744D01*
X129409327Y-76114356D01*
X129468342Y-75932728D01*
X129488304Y-75742800D01*
X129468342Y-75552872D01*
X129409327Y-75371244D01*
X129313840Y-75205856D01*
X129285838Y-75174757D01*
X129255122Y-75110750D01*
X129263886Y-75040296D01*
X129306328Y-74989387D01*
X129305610Y-74988399D01*
X129310952Y-74984518D01*
X129465453Y-74872266D01*
X129507607Y-74825449D01*
X129593234Y-74730351D01*
X129593235Y-74730349D01*
X129593240Y-74730344D01*
X129688727Y-74564956D01*
X129747742Y-74383328D01*
X129767704Y-74193400D01*
X129747742Y-74003472D01*
X129688727Y-73821844D01*
X129593240Y-73656456D01*
X129593238Y-73656454D01*
X129593234Y-73656448D01*
X129465455Y-73514535D01*
X129310952Y-73402282D01*
X129136488Y-73324606D01*
X128949687Y-73284900D01*
X128758713Y-73284900D01*
X128571911Y-73324606D01*
X128397447Y-73402282D01*
X128242944Y-73514535D01*
X128115165Y-73656448D01*
X128115158Y-73656458D01*
X128019676Y-73821838D01*
X128019673Y-73821845D01*
X127960657Y-74003472D01*
X127940696Y-74193400D01*
X127960657Y-74383327D01*
X127990726Y-74475870D01*
X128019673Y-74564956D01*
X128019676Y-74564961D01*
X128115158Y-74730341D01*
X128115165Y-74730351D01*
X128143160Y-74761442D01*
X128173878Y-74825449D01*
X128165113Y-74895903D01*
X128122670Y-74946810D01*
X128123390Y-74947801D01*
X127963544Y-75063935D01*
X127835765Y-75205848D01*
X127835758Y-75205858D01*
X127740276Y-75371238D01*
X127740273Y-75371245D01*
X127681257Y-75552872D01*
X127661296Y-75742800D01*
X117757884Y-75742800D01*
X117761695Y-72288400D01*
X130175896Y-72288400D01*
X130195857Y-72478327D01*
X130219417Y-72550835D01*
X130254873Y-72659956D01*
X130254876Y-72659961D01*
X130350358Y-72825341D01*
X130350365Y-72825351D01*
X130478144Y-72967264D01*
X130478147Y-72967266D01*
X130632648Y-73079518D01*
X130807112Y-73157194D01*
X130993913Y-73196900D01*
X131184887Y-73196900D01*
X131371688Y-73157194D01*
X131546152Y-73079518D01*
X131700653Y-72967266D01*
X131711062Y-72955706D01*
X131752174Y-72910046D01*
X136070562Y-72910046D01*
X136083199Y-72917987D01*
X136083208Y-72917991D01*
X136255059Y-72978125D01*
X136255070Y-72978127D01*
X136436000Y-72998512D01*
X136616929Y-72978127D01*
X136616937Y-72978126D01*
X136788791Y-72917990D01*
X136788801Y-72917985D01*
X136801436Y-72910045D01*
X136436001Y-72544610D01*
X136436000Y-72544610D01*
X136070562Y-72910046D01*
X131752174Y-72910046D01*
X131828434Y-72825351D01*
X131828435Y-72825349D01*
X131828440Y-72825344D01*
X131923927Y-72659956D01*
X131982942Y-72478328D01*
X132002904Y-72288400D01*
X131994669Y-72210046D01*
X135370562Y-72210046D01*
X135383199Y-72217987D01*
X135383208Y-72217991D01*
X135561743Y-72280464D01*
X135560813Y-72283120D01*
X135611657Y-72311561D01*
X135638416Y-72360537D01*
X135640936Y-72359656D01*
X135703411Y-72538199D01*
X135711352Y-72550835D01*
X135711353Y-72550836D01*
X136044297Y-72217892D01*
X136336000Y-72217892D01*
X136374197Y-72270465D01*
X136420162Y-72285400D01*
X136451838Y-72285400D01*
X136497803Y-72270465D01*
X136536000Y-72217892D01*
X136536000Y-72197901D01*
X136807710Y-72197901D01*
X137135999Y-72526190D01*
X137136001Y-72526190D01*
X137444299Y-72217892D01*
X137736000Y-72217892D01*
X137774197Y-72270465D01*
X137820162Y-72285400D01*
X137851838Y-72285400D01*
X137897803Y-72270465D01*
X137936000Y-72217892D01*
X137936000Y-72152908D01*
X137897803Y-72100335D01*
X137851838Y-72085400D01*
X137820162Y-72085400D01*
X137774197Y-72100335D01*
X137736000Y-72152908D01*
X137736000Y-72217892D01*
X137444299Y-72217892D01*
X137476790Y-72185401D01*
X137476790Y-72185399D01*
X137148501Y-71857110D01*
X137148499Y-71857110D01*
X136807710Y-72197899D01*
X136807710Y-72197901D01*
X136536000Y-72197901D01*
X136536000Y-72152908D01*
X136497803Y-72100335D01*
X136451838Y-72085400D01*
X136420162Y-72085400D01*
X136374197Y-72100335D01*
X136336000Y-72152908D01*
X136336000Y-72217892D01*
X136044297Y-72217892D01*
X136076790Y-72185399D01*
X135736001Y-71844610D01*
X135736000Y-71844610D01*
X135370562Y-72210046D01*
X131994669Y-72210046D01*
X131982942Y-72098472D01*
X131923927Y-71916844D01*
X131828440Y-71751456D01*
X131828438Y-71751454D01*
X131828434Y-71751448D01*
X131700655Y-71609535D01*
X131546152Y-71497282D01*
X131519464Y-71485400D01*
X134922887Y-71485400D01*
X134943272Y-71666329D01*
X134943273Y-71666337D01*
X135003411Y-71838199D01*
X135011352Y-71850835D01*
X135011353Y-71850836D01*
X135344297Y-71517892D01*
X135636000Y-71517892D01*
X135674197Y-71570465D01*
X135720162Y-71585400D01*
X135751838Y-71585400D01*
X135797803Y-71570465D01*
X135836000Y-71517892D01*
X135836000Y-71485401D01*
X136095210Y-71485401D01*
X136435999Y-71826190D01*
X136436001Y-71826190D01*
X136744299Y-71517892D01*
X137061000Y-71517892D01*
X137099197Y-71570465D01*
X137145162Y-71585400D01*
X137176838Y-71585400D01*
X137222803Y-71570465D01*
X137261000Y-71517892D01*
X137261000Y-71485401D01*
X137520210Y-71485401D01*
X137848499Y-71813690D01*
X137848501Y-71813690D01*
X138144299Y-71517892D01*
X138436000Y-71517892D01*
X138474197Y-71570465D01*
X138520162Y-71585400D01*
X138551838Y-71585400D01*
X138597803Y-71570465D01*
X138636000Y-71517892D01*
X138636000Y-71452908D01*
X138597803Y-71400335D01*
X138551838Y-71385400D01*
X138520162Y-71385400D01*
X138474197Y-71400335D01*
X138436000Y-71452908D01*
X138436000Y-71517892D01*
X138144299Y-71517892D01*
X138176790Y-71485401D01*
X138176790Y-71485399D01*
X137848501Y-71157110D01*
X137848499Y-71157110D01*
X137520210Y-71485399D01*
X137520210Y-71485401D01*
X137261000Y-71485401D01*
X137261000Y-71452908D01*
X137222803Y-71400335D01*
X137176838Y-71385400D01*
X137145162Y-71385400D01*
X137099197Y-71400335D01*
X137061000Y-71452908D01*
X137061000Y-71517892D01*
X136744299Y-71517892D01*
X136776790Y-71485401D01*
X136776790Y-71485399D01*
X136436001Y-71144610D01*
X136435999Y-71144610D01*
X136095210Y-71485399D01*
X136095210Y-71485401D01*
X135836000Y-71485401D01*
X135836000Y-71452908D01*
X135797803Y-71400335D01*
X135751838Y-71385400D01*
X135720162Y-71385400D01*
X135674197Y-71400335D01*
X135636000Y-71452908D01*
X135636000Y-71517892D01*
X135344297Y-71517892D01*
X135376790Y-71485399D01*
X135011354Y-71119963D01*
X135011352Y-71119963D01*
X135003412Y-71132600D01*
X135003411Y-71132601D01*
X134943273Y-71304462D01*
X134943272Y-71304470D01*
X134922887Y-71485400D01*
X131519464Y-71485400D01*
X131371688Y-71419606D01*
X131184887Y-71379900D01*
X130993913Y-71379900D01*
X130807111Y-71419606D01*
X130632647Y-71497282D01*
X130478144Y-71609535D01*
X130350365Y-71751448D01*
X130350358Y-71751458D01*
X130254876Y-71916838D01*
X130254873Y-71916845D01*
X130195857Y-72098472D01*
X130175896Y-72288400D01*
X117761695Y-72288400D01*
X117766338Y-68079214D01*
X120671318Y-68079214D01*
X120681390Y-68290663D01*
X120681392Y-68290676D01*
X120731300Y-68496398D01*
X120731302Y-68496404D01*
X120819244Y-68688971D01*
X120819248Y-68688978D01*
X120942035Y-68861408D01*
X120942039Y-68861413D01*
X120942041Y-68861415D01*
X121035781Y-68950796D01*
X121071279Y-69012280D01*
X121067901Y-69083196D01*
X121026720Y-69141028D01*
X121014979Y-69149226D01*
X120959949Y-69183168D01*
X120959941Y-69183175D01*
X120834575Y-69308541D01*
X120834570Y-69308547D01*
X120741485Y-69459462D01*
X120685713Y-69627772D01*
X120685712Y-69627779D01*
X120675100Y-69731646D01*
X120675100Y-70532744D01*
X120685712Y-70636625D01*
X120741485Y-70804938D01*
X120834570Y-70955852D01*
X120834575Y-70955858D01*
X120959941Y-71081224D01*
X120959947Y-71081229D01*
X120959948Y-71081230D01*
X121110862Y-71174315D01*
X121279174Y-71230087D01*
X121383055Y-71240700D01*
X122734144Y-71240699D01*
X122838026Y-71230087D01*
X123006338Y-71174315D01*
X123157252Y-71081230D01*
X123282630Y-70955852D01*
X123375715Y-70804938D01*
X123382189Y-70785401D01*
X135395210Y-70785401D01*
X135735999Y-71126190D01*
X135736001Y-71126190D01*
X136044299Y-70817892D01*
X136336000Y-70817892D01*
X136374197Y-70870465D01*
X136420162Y-70885400D01*
X136451838Y-70885400D01*
X136497803Y-70870465D01*
X136536000Y-70817892D01*
X136536000Y-70785401D01*
X136820210Y-70785401D01*
X137148499Y-71113690D01*
X137148501Y-71113690D01*
X137444299Y-70817892D01*
X137736000Y-70817892D01*
X137774197Y-70870465D01*
X137820162Y-70885400D01*
X137851838Y-70885400D01*
X137897803Y-70870465D01*
X137936000Y-70817892D01*
X137936000Y-70785401D01*
X138195210Y-70785401D01*
X138535999Y-71126190D01*
X138536001Y-71126190D01*
X138876790Y-70785401D01*
X138876790Y-70785399D01*
X138536001Y-70444610D01*
X138535999Y-70444610D01*
X138195210Y-70785399D01*
X138195210Y-70785401D01*
X137936000Y-70785401D01*
X137936000Y-70752908D01*
X137897803Y-70700335D01*
X137851838Y-70685400D01*
X137820162Y-70685400D01*
X137774197Y-70700335D01*
X137736000Y-70752908D01*
X137736000Y-70817892D01*
X137444299Y-70817892D01*
X137476790Y-70785401D01*
X137476790Y-70785399D01*
X137148501Y-70457110D01*
X137148499Y-70457110D01*
X136820210Y-70785399D01*
X136820210Y-70785401D01*
X136536000Y-70785401D01*
X136536000Y-70752908D01*
X136497803Y-70700335D01*
X136451838Y-70685400D01*
X136420162Y-70685400D01*
X136374197Y-70700335D01*
X136336000Y-70752908D01*
X136336000Y-70817892D01*
X136044299Y-70817892D01*
X136076790Y-70785401D01*
X136076790Y-70785399D01*
X135736001Y-70444610D01*
X135735999Y-70444610D01*
X135395210Y-70785399D01*
X135395210Y-70785401D01*
X123382189Y-70785401D01*
X123431487Y-70636626D01*
X123442100Y-70532745D01*
X123442099Y-70085400D01*
X134922887Y-70085400D01*
X134943272Y-70266329D01*
X134943273Y-70266337D01*
X135003411Y-70438199D01*
X135011352Y-70450835D01*
X135011353Y-70450836D01*
X135344297Y-70117892D01*
X135636000Y-70117892D01*
X135674197Y-70170465D01*
X135720162Y-70185400D01*
X135751838Y-70185400D01*
X135797803Y-70170465D01*
X135836000Y-70117892D01*
X135836000Y-70085401D01*
X136095210Y-70085401D01*
X136435999Y-70426190D01*
X136436001Y-70426190D01*
X136744299Y-70117892D01*
X137061000Y-70117892D01*
X137099197Y-70170465D01*
X137145162Y-70185400D01*
X137176838Y-70185400D01*
X137222803Y-70170465D01*
X137261000Y-70117892D01*
X137261000Y-70085401D01*
X137520210Y-70085401D01*
X137848499Y-70413690D01*
X137848501Y-70413690D01*
X138144299Y-70117892D01*
X138436000Y-70117892D01*
X138474197Y-70170465D01*
X138520162Y-70185400D01*
X138551838Y-70185400D01*
X138597803Y-70170465D01*
X138636000Y-70117892D01*
X138636000Y-70085401D01*
X138895210Y-70085401D01*
X139260645Y-70450836D01*
X139268585Y-70438201D01*
X139268590Y-70438191D01*
X139328726Y-70266337D01*
X139328727Y-70266329D01*
X139349112Y-70085400D01*
X139328727Y-69904470D01*
X139328725Y-69904459D01*
X139268591Y-69732608D01*
X139268587Y-69732599D01*
X139260646Y-69719963D01*
X139260646Y-69719962D01*
X138895210Y-70085399D01*
X138895210Y-70085401D01*
X138636000Y-70085401D01*
X138636000Y-70052908D01*
X138597803Y-70000335D01*
X138551838Y-69985400D01*
X138520162Y-69985400D01*
X138474197Y-70000335D01*
X138436000Y-70052908D01*
X138436000Y-70117892D01*
X138144299Y-70117892D01*
X138176790Y-70085401D01*
X138176790Y-70085399D01*
X137848501Y-69757110D01*
X137848499Y-69757110D01*
X137520210Y-70085399D01*
X137520210Y-70085401D01*
X137261000Y-70085401D01*
X137261000Y-70052908D01*
X137222803Y-70000335D01*
X137176838Y-69985400D01*
X137145162Y-69985400D01*
X137099197Y-70000335D01*
X137061000Y-70052908D01*
X137061000Y-70117892D01*
X136744299Y-70117892D01*
X136776790Y-70085401D01*
X136776790Y-70085399D01*
X136436001Y-69744610D01*
X136435999Y-69744610D01*
X136095210Y-70085399D01*
X136095210Y-70085401D01*
X135836000Y-70085401D01*
X135836000Y-70052908D01*
X135797803Y-70000335D01*
X135751838Y-69985400D01*
X135720162Y-69985400D01*
X135674197Y-70000335D01*
X135636000Y-70052908D01*
X135636000Y-70117892D01*
X135344297Y-70117892D01*
X135376790Y-70085399D01*
X135011354Y-69719963D01*
X135011352Y-69719963D01*
X135003412Y-69732600D01*
X135003411Y-69732601D01*
X134943273Y-69904462D01*
X134943272Y-69904470D01*
X134922887Y-70085400D01*
X123442099Y-70085400D01*
X123442099Y-69731656D01*
X123431487Y-69627774D01*
X123375715Y-69459462D01*
X123314831Y-69360754D01*
X135370563Y-69360754D01*
X135735999Y-69726190D01*
X135736001Y-69726190D01*
X136044299Y-69417892D01*
X136336000Y-69417892D01*
X136374197Y-69470465D01*
X136420162Y-69485400D01*
X136451838Y-69485400D01*
X136497803Y-69470465D01*
X136536000Y-69417892D01*
X136536000Y-69372901D01*
X136807710Y-69372901D01*
X137148499Y-69713690D01*
X137148501Y-69713690D01*
X137444299Y-69417892D01*
X137736000Y-69417892D01*
X137774197Y-69470465D01*
X137820162Y-69485400D01*
X137851838Y-69485400D01*
X137897803Y-69470465D01*
X137936000Y-69417892D01*
X137936000Y-69385401D01*
X138195210Y-69385401D01*
X138535999Y-69726190D01*
X138536000Y-69726190D01*
X138901436Y-69360753D01*
X138901435Y-69360752D01*
X138888798Y-69352811D01*
X138888799Y-69352811D01*
X138710256Y-69290336D01*
X138711182Y-69287689D01*
X138660299Y-69259195D01*
X138633592Y-69210258D01*
X138631064Y-69211143D01*
X138568591Y-69032608D01*
X138568587Y-69032599D01*
X138560646Y-69019963D01*
X138560646Y-69019962D01*
X138195210Y-69385399D01*
X138195210Y-69385401D01*
X137936000Y-69385401D01*
X137936000Y-69352908D01*
X137897803Y-69300335D01*
X137851838Y-69285400D01*
X137820162Y-69285400D01*
X137774197Y-69300335D01*
X137736000Y-69352908D01*
X137736000Y-69417892D01*
X137444299Y-69417892D01*
X137476790Y-69385401D01*
X137476790Y-69385399D01*
X137136001Y-69044610D01*
X137135999Y-69044610D01*
X136807710Y-69372899D01*
X136807710Y-69372901D01*
X136536000Y-69372901D01*
X136536000Y-69352908D01*
X136497803Y-69300335D01*
X136451838Y-69285400D01*
X136420162Y-69285400D01*
X136374197Y-69300335D01*
X136336000Y-69352908D01*
X136336000Y-69417892D01*
X136044299Y-69417892D01*
X136076790Y-69385401D01*
X136076790Y-69385399D01*
X135711354Y-69019963D01*
X135711352Y-69019963D01*
X135703412Y-69032600D01*
X135703411Y-69032601D01*
X135640936Y-69211144D01*
X135638291Y-69210218D01*
X135609782Y-69261112D01*
X135560864Y-69287822D01*
X135561744Y-69290336D01*
X135383201Y-69352811D01*
X135383200Y-69352812D01*
X135370563Y-69360752D01*
X135370563Y-69360754D01*
X123314831Y-69360754D01*
X123282630Y-69308548D01*
X123282629Y-69308547D01*
X123282624Y-69308541D01*
X123157258Y-69183175D01*
X123157249Y-69183168D01*
X123105250Y-69151095D01*
X123057771Y-69098310D01*
X123046368Y-69028235D01*
X123074660Y-68963119D01*
X123093511Y-68944809D01*
X123102035Y-68938106D01*
X123208683Y-68815027D01*
X123240665Y-68778118D01*
X123308424Y-68660754D01*
X136070563Y-68660754D01*
X136435999Y-69026190D01*
X136436000Y-69026190D01*
X136801435Y-68660754D01*
X137470563Y-68660754D01*
X137835999Y-69026190D01*
X137836000Y-69026190D01*
X138201436Y-68660753D01*
X138201435Y-68660752D01*
X138188798Y-68652811D01*
X138188799Y-68652811D01*
X138016937Y-68592673D01*
X138016929Y-68592672D01*
X137836000Y-68572287D01*
X137655070Y-68592672D01*
X137655062Y-68592673D01*
X137483201Y-68652811D01*
X137483200Y-68652812D01*
X137470563Y-68660752D01*
X137470563Y-68660754D01*
X136801435Y-68660754D01*
X136801436Y-68660753D01*
X136801435Y-68660752D01*
X136788798Y-68652811D01*
X136788799Y-68652811D01*
X136616937Y-68592673D01*
X136616929Y-68592672D01*
X136436000Y-68572287D01*
X136255070Y-68592672D01*
X136255062Y-68592673D01*
X136083201Y-68652811D01*
X136083200Y-68652812D01*
X136070563Y-68660752D01*
X136070563Y-68660754D01*
X123308424Y-68660754D01*
X123346513Y-68594782D01*
X123415753Y-68394727D01*
X123445881Y-68185184D01*
X123440283Y-68067672D01*
X123435809Y-67973736D01*
X123435808Y-67973731D01*
X123435808Y-67973726D01*
X123385898Y-67767996D01*
X123297956Y-67575429D01*
X123297953Y-67575425D01*
X123297951Y-67575421D01*
X123175164Y-67402991D01*
X123175155Y-67402981D01*
X123143732Y-67373019D01*
X123021946Y-67256897D01*
X123021943Y-67256895D01*
X123021940Y-67256892D01*
X122991795Y-67237519D01*
X122945302Y-67183864D01*
X122935199Y-67113589D01*
X122964692Y-67049009D01*
X122982029Y-67032479D01*
X123102031Y-66938109D01*
X123102034Y-66938106D01*
X123168493Y-66861408D01*
X123240665Y-66778118D01*
X123346513Y-66594782D01*
X123415753Y-66394727D01*
X123445881Y-66185184D01*
X123440833Y-66079214D01*
X123435809Y-65973736D01*
X123435808Y-65973731D01*
X123435808Y-65973726D01*
X123385898Y-65767996D01*
X123297956Y-65575429D01*
X123297953Y-65575425D01*
X123297951Y-65575421D01*
X123175164Y-65402991D01*
X123175155Y-65402981D01*
X123143732Y-65373019D01*
X123021946Y-65256897D01*
X123021943Y-65256895D01*
X123021940Y-65256892D01*
X122991350Y-65237233D01*
X122944857Y-65183577D01*
X122934754Y-65113303D01*
X122964247Y-65048723D01*
X122981584Y-65032193D01*
X123101681Y-64937748D01*
X123101691Y-64937739D01*
X123240256Y-64777825D01*
X123240257Y-64777824D01*
X123346054Y-64594577D01*
X123346058Y-64594568D01*
X123415262Y-64394615D01*
X123415264Y-64394609D01*
X123416473Y-64386200D01*
X122334478Y-64386200D01*
X122376878Y-64340141D01*
X122427151Y-64225530D01*
X122437486Y-64100805D01*
X122406763Y-63979481D01*
X122340592Y-63878200D01*
X123412119Y-63878200D01*
X123412119Y-63878199D01*
X123385424Y-63768161D01*
X123385422Y-63768154D01*
X123297522Y-63575684D01*
X123297520Y-63575680D01*
X123174778Y-63403312D01*
X123174777Y-63403311D01*
X123021635Y-63257290D01*
X123021634Y-63257289D01*
X122843624Y-63142891D01*
X122843619Y-63142888D01*
X122647185Y-63064247D01*
X122647179Y-63064246D01*
X122439405Y-63024200D01*
X122312600Y-63024200D01*
X122312600Y-63854696D01*
X122239548Y-63797837D01*
X122121176Y-63757200D01*
X122027527Y-63757200D01*
X121935154Y-63772614D01*
X121825086Y-63832181D01*
X121804600Y-63854434D01*
X121804600Y-63024200D01*
X121730821Y-63024200D01*
X121730799Y-63024201D01*
X121572966Y-63039272D01*
X121572951Y-63039275D01*
X121369922Y-63098889D01*
X121181845Y-63195850D01*
X121015514Y-63326655D01*
X121015508Y-63326660D01*
X120876943Y-63486574D01*
X120876942Y-63486575D01*
X120771145Y-63669822D01*
X120771141Y-63669831D01*
X120701937Y-63869784D01*
X120701935Y-63869790D01*
X120700726Y-63878200D01*
X121782722Y-63878200D01*
X121740322Y-63924259D01*
X121690049Y-64038870D01*
X121679714Y-64163595D01*
X121710437Y-64284919D01*
X121776608Y-64386200D01*
X120705080Y-64386200D01*
X120731775Y-64496238D01*
X120731777Y-64496245D01*
X120819677Y-64688715D01*
X120819679Y-64688719D01*
X120942421Y-64861087D01*
X120942422Y-64861088D01*
X121095561Y-65007107D01*
X121125818Y-65026551D01*
X121172311Y-65080207D01*
X121182416Y-65150480D01*
X121152923Y-65215061D01*
X121135587Y-65231592D01*
X121015165Y-65326293D01*
X120876538Y-65486277D01*
X120876530Y-65486288D01*
X120770689Y-65669612D01*
X120770686Y-65669619D01*
X120701448Y-65869669D01*
X120701445Y-65869680D01*
X120671318Y-66079214D01*
X120681390Y-66290663D01*
X120681392Y-66290676D01*
X120731300Y-66496398D01*
X120731302Y-66496404D01*
X120819244Y-66688971D01*
X120819248Y-66688978D01*
X120942035Y-66861408D01*
X120942039Y-66861413D01*
X120942041Y-66861415D01*
X121095254Y-67007503D01*
X121095256Y-67007504D01*
X121125404Y-67026879D01*
X121171897Y-67080535D01*
X121182001Y-67150809D01*
X121152507Y-67215389D01*
X121135171Y-67231920D01*
X121015164Y-67326294D01*
X120876538Y-67486277D01*
X120876530Y-67486288D01*
X120770689Y-67669612D01*
X120770686Y-67669619D01*
X120701448Y-67869669D01*
X120701445Y-67869680D01*
X120671318Y-68079214D01*
X117766338Y-68079214D01*
X117773164Y-61891260D01*
X117793241Y-61823162D01*
X117846948Y-61776729D01*
X117899164Y-61765400D01*
X150829267Y-61765400D01*
X150897388Y-61785402D01*
G37*
%TD.AperFunction*%
%TD*%
M02*
