%TF.GenerationSoftware,KiCad,Pcbnew,7.0.10-7.0.10~ubuntu22.04.1*%
%TF.CreationDate,2024-01-30T00:04:26+01:00*%
%TF.ProjectId,MailBox_LP_Notifier,4d61696c-426f-4785-9f4c-505f4e6f7469,rev?*%
%TF.SameCoordinates,Original*%
%TF.FileFunction,Copper,L4,Bot*%
%TF.FilePolarity,Positive*%
%FSLAX46Y46*%
G04 Gerber Fmt 4.6, Leading zero omitted, Abs format (unit mm)*
G04 Created by KiCad (PCBNEW 7.0.10-7.0.10~ubuntu22.04.1) date 2024-01-30 00:04:26*
%MOMM*%
%LPD*%
G01*
G04 APERTURE LIST*
G04 Aperture macros list*
%AMRoundRect*
0 Rectangle with rounded corners*
0 $1 Rounding radius*
0 $2 $3 $4 $5 $6 $7 $8 $9 X,Y pos of 4 corners*
0 Add a 4 corners polygon primitive as box body*
4,1,4,$2,$3,$4,$5,$6,$7,$8,$9,$2,$3,0*
0 Add four circle primitives for the rounded corners*
1,1,$1+$1,$2,$3*
1,1,$1+$1,$4,$5*
1,1,$1+$1,$6,$7*
1,1,$1+$1,$8,$9*
0 Add four rect primitives between the rounded corners*
20,1,$1+$1,$2,$3,$4,$5,0*
20,1,$1+$1,$4,$5,$6,$7,0*
20,1,$1+$1,$6,$7,$8,$9,0*
20,1,$1+$1,$8,$9,$2,$3,0*%
G04 Aperture macros list end*
%TA.AperFunction,HeatsinkPad*%
%ADD10C,0.600000*%
%TD*%
%TA.AperFunction,SMDPad,CuDef*%
%ADD11R,0.900000X0.900000*%
%TD*%
%TA.AperFunction,SMDPad,CuDef*%
%ADD12R,3.800000X3.800000*%
%TD*%
%TA.AperFunction,SMDPad,CuDef*%
%ADD13R,1.500000X0.900000*%
%TD*%
%TA.AperFunction,SMDPad,CuDef*%
%ADD14R,0.900000X1.500000*%
%TD*%
%TA.AperFunction,ComponentPad*%
%ADD15RoundRect,0.250001X0.499999X0.499999X-0.499999X0.499999X-0.499999X-0.499999X0.499999X-0.499999X0*%
%TD*%
%TA.AperFunction,ComponentPad*%
%ADD16C,1.500000*%
%TD*%
%TA.AperFunction,ComponentPad*%
%ADD17R,1.700000X1.700000*%
%TD*%
%TA.AperFunction,ComponentPad*%
%ADD18O,1.700000X1.700000*%
%TD*%
%TA.AperFunction,ComponentPad*%
%ADD19RoundRect,0.250000X0.625000X-0.350000X0.625000X0.350000X-0.625000X0.350000X-0.625000X-0.350000X0*%
%TD*%
%TA.AperFunction,ComponentPad*%
%ADD20O,1.750000X1.200000*%
%TD*%
%TA.AperFunction,SMDPad,CuDef*%
%ADD21R,1.500000X1.500000*%
%TD*%
%TA.AperFunction,SMDPad,CuDef*%
%ADD22RoundRect,0.200000X-0.275000X0.200000X-0.275000X-0.200000X0.275000X-0.200000X0.275000X0.200000X0*%
%TD*%
%TA.AperFunction,SMDPad,CuDef*%
%ADD23RoundRect,0.250000X-0.262500X-0.450000X0.262500X-0.450000X0.262500X0.450000X-0.262500X0.450000X0*%
%TD*%
%TA.AperFunction,ComponentPad*%
%ADD24RoundRect,0.250000X0.350000X0.625000X-0.350000X0.625000X-0.350000X-0.625000X0.350000X-0.625000X0*%
%TD*%
%TA.AperFunction,ComponentPad*%
%ADD25O,1.200000X1.750000*%
%TD*%
%TA.AperFunction,SMDPad,CuDef*%
%ADD26RoundRect,0.243750X0.243750X0.456250X-0.243750X0.456250X-0.243750X-0.456250X0.243750X-0.456250X0*%
%TD*%
%TA.AperFunction,ViaPad*%
%ADD27C,0.800000*%
%TD*%
%TA.AperFunction,Conductor*%
%ADD28C,0.500000*%
%TD*%
%TA.AperFunction,Conductor*%
%ADD29C,0.250000*%
%TD*%
%TA.AperFunction,Conductor*%
%ADD30C,1.000000*%
%TD*%
%TA.AperFunction,Conductor*%
%ADD31C,0.254000*%
%TD*%
G04 APERTURE END LIST*
D10*
%TO.P,U3,39,GND*%
%TO.N,GND*%
X137161000Y-71485400D03*
D11*
X137136000Y-72185400D03*
X135736000Y-70785400D03*
X137136000Y-70785400D03*
D10*
X136436000Y-72185400D03*
X136436000Y-69385400D03*
D11*
X138536000Y-70785400D03*
D10*
X137161000Y-70085400D03*
X137836000Y-69385400D03*
X135736000Y-70085400D03*
X137836000Y-70785400D03*
X138536000Y-71485400D03*
X137836000Y-72185400D03*
D11*
X135736000Y-69385400D03*
D10*
X135736000Y-71485400D03*
D11*
X137136000Y-69385400D03*
D10*
X136436000Y-70785400D03*
D11*
X135736000Y-72185400D03*
D10*
X138536000Y-70085400D03*
D12*
X137136000Y-70785400D03*
D11*
X138536000Y-69385400D03*
X138536000Y-72185400D03*
D13*
%TO.P,U3,38,GND*%
X126886000Y-63065400D03*
%TO.P,U3,37,IO23*%
%TO.N,unconnected-(U3-Pad37)*%
X126886000Y-64335400D03*
%TO.P,U3,36,IO22*%
%TO.N,SCL*%
X126886000Y-65605400D03*
%TO.P,U3,35,TXD0/IO1*%
%TO.N,TX*%
X126886000Y-66875400D03*
%TO.P,U3,34,RXD0/IO3*%
%TO.N,RX*%
X126886000Y-68145400D03*
%TO.P,U3,33,IO21*%
%TO.N,SDA*%
X126886000Y-69415400D03*
%TO.P,U3,32,NC*%
%TO.N,unconnected-(U3-Pad32)*%
X126886000Y-70685400D03*
%TO.P,U3,31,IO19*%
%TO.N,WU_BUT*%
X126886000Y-71955400D03*
%TO.P,U3,30,IO18*%
%TO.N,L_IND*%
X126886000Y-73225400D03*
%TO.P,U3,29,IO5*%
%TO.N,unconnected-(U3-Pad29)*%
X126886000Y-74495400D03*
%TO.P,U3,28,IO17*%
%TO.N,MCU_HOLD*%
X126886000Y-75765400D03*
%TO.P,U3,27,IO16*%
%TO.N,C_REED*%
X126886000Y-77035400D03*
%TO.P,U3,26,IO4*%
%TO.N,unconnected-(U3-Pad26)*%
X126886000Y-78305400D03*
%TO.P,U3,25,IO0*%
%TO.N,IO0*%
X126886000Y-79575400D03*
D14*
%TO.P,U3,24,IO2*%
%TO.N,unconnected-(U3-Pad24)*%
X129916000Y-80825400D03*
%TO.P,U3,23,IO15*%
%TO.N,unconnected-(U3-Pad23)*%
X131186000Y-80825400D03*
%TO.P,U3,22,SDI/SD1*%
%TO.N,unconnected-(U3-Pad22)*%
X132456000Y-80825400D03*
%TO.P,U3,21,SDO/SD0*%
%TO.N,unconnected-(U3-Pad21)*%
X133726000Y-80825400D03*
%TO.P,U3,20,SCK/CLK*%
%TO.N,unconnected-(U3-Pad20)*%
X134996000Y-80825400D03*
%TO.P,U3,19,SCS/CMD*%
%TO.N,unconnected-(U3-Pad19)*%
X136266000Y-80825400D03*
%TO.P,U3,18,SWP/SD3*%
%TO.N,unconnected-(U3-Pad18)*%
X137536000Y-80825400D03*
%TO.P,U3,17,SHD/SD2*%
%TO.N,unconnected-(U3-Pad17)*%
X138806000Y-80825400D03*
%TO.P,U3,16,IO13*%
%TO.N,unconnected-(U3-Pad16)*%
X140076000Y-80825400D03*
%TO.P,U3,15,GND*%
%TO.N,GND*%
X141346000Y-80825400D03*
D13*
%TO.P,U3,14,IO12*%
%TO.N,unconnected-(U3-Pad14)*%
X144386000Y-79575400D03*
%TO.P,U3,13,IO14*%
%TO.N,unconnected-(U3-Pad13)*%
X144386000Y-78305400D03*
%TO.P,U3,12,IO27*%
%TO.N,unconnected-(U3-Pad12)*%
X144386000Y-77035400D03*
%TO.P,U3,11,IO26*%
%TO.N,unconnected-(U3-Pad11)*%
X144386000Y-75765400D03*
%TO.P,U3,10,IO25*%
%TO.N,unconnected-(U3-Pad10)*%
X144386000Y-74495400D03*
%TO.P,U3,9,IO33*%
%TO.N,unconnected-(U3-Pad9)*%
X144386000Y-73225400D03*
%TO.P,U3,8,IO32*%
%TO.N,unconnected-(U3-Pad8)*%
X144386000Y-71955400D03*
%TO.P,U3,7,IO35*%
%TO.N,V_SENSE*%
X144386000Y-70685400D03*
%TO.P,U3,6,IO34*%
%TO.N,unconnected-(U3-Pad6)*%
X144386000Y-69415400D03*
%TO.P,U3,5,SENSOR_VN*%
%TO.N,unconnected-(U3-Pad5)*%
X144386000Y-68145400D03*
%TO.P,U3,4,SENSOR_VP*%
%TO.N,unconnected-(U3-Pad4)*%
X144386000Y-66875400D03*
%TO.P,U3,3,EN*%
%TO.N,RST*%
X144386000Y-65605400D03*
%TO.P,U3,2,VDD*%
%TO.N,+3V3*%
X144386000Y-64335400D03*
%TO.P,U3,1,GND*%
%TO.N,GND*%
X144386000Y-63065400D03*
%TD*%
D15*
%TO.P,SW1,1,1*%
%TO.N,Net-(D1-Pad2)*%
X132765800Y-91871800D03*
D16*
%TO.P,SW1,2,2*%
%TO.N,VDD*%
X132765800Y-88871800D03*
%TD*%
D17*
%TO.P,J2,1,Pin_1*%
%TO.N,DRT*%
X148437200Y-64332800D03*
D18*
%TO.P,J2,2,Pin_2*%
%TO.N,RTS*%
X148437200Y-66872800D03*
%TO.P,J2,3,Pin_3*%
%TO.N,TX*%
X148437200Y-69412800D03*
%TO.P,J2,4,Pin_4*%
%TO.N,RX*%
X148437200Y-71952800D03*
%TO.P,J2,5,Pin_5*%
%TO.N,+3V3*%
X148437200Y-74492800D03*
%TO.P,J2,6,Pin_6*%
%TO.N,unconnected-(J2-Pad6)*%
X148437200Y-77032800D03*
%TO.P,J2,7,Pin_7*%
%TO.N,GND*%
X148437200Y-79572800D03*
%TD*%
D19*
%TO.P,J3,1,Pin_1*%
%TO.N,SCL*%
X122058600Y-70132200D03*
D20*
%TO.P,J3,2,Pin_2*%
%TO.N,SDA*%
X122058600Y-68132200D03*
%TO.P,J3,3,Pin_3*%
%TO.N,+3V3*%
X122058600Y-66132200D03*
%TO.P,J3,4,Pin_4*%
%TO.N,GND*%
X122058600Y-64132200D03*
%TD*%
D21*
%TO.P,SW4,1,1*%
%TO.N,GND*%
X136271000Y-92292000D03*
%TO.P,SW4,2,2*%
%TO.N,IO0*%
X136271000Y-84492000D03*
%TD*%
D22*
%TO.P,R12,1*%
%TO.N,+3V3*%
X133121400Y-82969600D03*
%TO.P,R12,2*%
%TO.N,RST*%
X133121400Y-84619600D03*
%TD*%
D21*
%TO.P,SW3,1,1*%
%TO.N,GND*%
X143281400Y-92266600D03*
%TO.P,SW3,2,2*%
%TO.N,Net-(Q2-Pad1)*%
X143281400Y-84466600D03*
%TD*%
D23*
%TO.P,R6,1*%
%TO.N,GND*%
X135587100Y-95377000D03*
%TO.P,R6,2*%
%TO.N,Net-(D3-Pad1)*%
X137412100Y-95377000D03*
%TD*%
D22*
%TO.P,R8,1*%
%TO.N,+3V3*%
X131394200Y-82969600D03*
%TO.P,R8,2*%
%TO.N,IO0*%
X131394200Y-84619600D03*
%TD*%
D24*
%TO.P,J1,1,Pin_1*%
%TO.N,GND*%
X147761200Y-98129000D03*
D25*
%TO.P,J1,2,Pin_2*%
%TO.N,VDD*%
X145761200Y-98129000D03*
%TD*%
D26*
%TO.P,D3,1,K*%
%TO.N,Net-(D3-Pad1)*%
X137386300Y-97891600D03*
%TO.P,D3,2,A*%
%TO.N,L_IND*%
X135511300Y-97891600D03*
%TD*%
D21*
%TO.P,SW5,1,1*%
%TO.N,GND*%
X128117600Y-92292000D03*
%TO.P,SW5,2,2*%
%TO.N,RST*%
X128117600Y-84492000D03*
%TD*%
D27*
%TO.N,GND*%
X142468600Y-81153000D03*
X129336800Y-63068200D03*
X129489200Y-92303600D03*
X121818400Y-95580200D03*
X123126500Y-82334100D03*
X149199600Y-99542600D03*
X142468600Y-80314800D03*
X124333000Y-63060400D03*
X124981000Y-88302800D03*
X139340102Y-97667300D03*
X139725400Y-100228400D03*
X142646400Y-63042800D03*
X143306800Y-93624400D03*
X140880600Y-86144600D03*
X145643600Y-63068200D03*
X136271000Y-93878400D03*
X119100600Y-74472800D03*
X125433000Y-63060400D03*
X147751800Y-100025200D03*
X140156600Y-93498000D03*
%TO.N,VDD*%
X141325600Y-98221800D03*
X140081000Y-78917800D03*
X133908800Y-78917800D03*
X144373600Y-99542600D03*
X119075200Y-79502000D03*
X145770600Y-99999800D03*
X123012200Y-77901800D03*
X131089400Y-72288400D03*
%TO.N,+3V3*%
X124942600Y-84480400D03*
X122819600Y-88991000D03*
X142671800Y-64338200D03*
X145618200Y-64312800D03*
X130288800Y-82969600D03*
%TO.N,V_SENSE*%
X142671800Y-71120000D03*
%TO.N,~{INT}*%
X120993200Y-78752400D03*
X128854200Y-74193400D03*
%TO.N,MCU_HOLD*%
X128574800Y-75742800D03*
%TO.N,TX*%
X142319988Y-68119012D03*
%TO.N,RX*%
X142367000Y-69545200D03*
%TO.N,IO0*%
X125526800Y-79603600D03*
%TO.N,RST*%
X141351000Y-64439800D03*
X128346200Y-82829400D03*
%TO.N,VCC_SW*%
X121691400Y-86537800D03*
X139192000Y-77368400D03*
%TO.N,C_REED*%
X127279400Y-97942400D03*
%TO.N,WU_BUT*%
X131955079Y-76858487D03*
%TO.N,Net-(Q2-Pad1)*%
X137617878Y-85298033D03*
%TD*%
D28*
%TO.N,RX*%
X127136000Y-68140400D02*
X128509600Y-68140400D01*
X128509600Y-68140400D02*
X129675000Y-66975000D01*
X129675000Y-66975000D02*
X139550000Y-66975000D01*
X139550000Y-66975000D02*
X142120200Y-69545200D01*
X142120200Y-69545200D02*
X142367000Y-69545200D01*
%TO.N,TX*%
X127136000Y-66870400D02*
X127721000Y-66870400D01*
X128891400Y-65700000D02*
X139900976Y-65700000D01*
X127721000Y-66870400D02*
X128891400Y-65700000D01*
X139900976Y-65700000D02*
X142319988Y-68119012D01*
%TO.N,GND*%
X142468600Y-81153000D02*
X141933600Y-81153000D01*
D29*
X129489200Y-92303600D02*
X128129200Y-92303600D01*
X128129200Y-92303600D02*
X128117600Y-92292000D01*
D28*
X145635800Y-63060400D02*
X145643600Y-63068200D01*
D29*
X143332200Y-92317400D02*
X143281400Y-92266600D01*
D30*
X122963600Y-63060400D02*
X122047000Y-63977000D01*
X127136000Y-63060400D02*
X129319200Y-63060400D01*
D29*
X136271000Y-92292000D02*
X136271000Y-93878400D01*
D28*
X144136000Y-63060400D02*
X142664000Y-63060400D01*
D29*
X143306800Y-93624400D02*
X143332200Y-92317400D01*
X136271000Y-93878400D02*
X136271000Y-94693100D01*
D28*
X142468600Y-80314800D02*
X141606600Y-80314800D01*
X142664000Y-63060400D02*
X142646400Y-63042800D01*
D29*
X136271000Y-94693100D02*
X135587100Y-95377000D01*
D30*
X127136000Y-63060400D02*
X122963600Y-63060400D01*
D28*
X144136000Y-63060400D02*
X145635800Y-63060400D01*
D29*
%TO.N,+3V3*%
X133121400Y-82969600D02*
X131394200Y-82969600D01*
D28*
X145600600Y-64330400D02*
X145618200Y-64312800D01*
X144136000Y-64330400D02*
X142679600Y-64330400D01*
X142679600Y-64330400D02*
X142671800Y-64338200D01*
X144136000Y-64330400D02*
X145600600Y-64330400D01*
D29*
X131394200Y-82969600D02*
X130288800Y-82969600D01*
%TO.N,V_SENSE*%
X142781200Y-70680400D02*
X144136000Y-70680400D01*
X142671800Y-70789800D02*
X142781200Y-70680400D01*
X142671800Y-71120000D02*
X142671800Y-70789800D01*
%TO.N,Net-(D3-Pad1)*%
X137412100Y-97865800D02*
X137386300Y-97891600D01*
X137412100Y-95377000D02*
X137412100Y-97865800D01*
D28*
%TO.N,MCU_HOLD*%
X127153600Y-75742800D02*
X127136000Y-75760400D01*
X127162001Y-75734399D02*
X127136000Y-75760400D01*
X128574800Y-75742800D02*
X127153600Y-75742800D01*
D29*
%TO.N,SCL*%
X127102800Y-65633600D02*
X125501400Y-65633600D01*
X127136000Y-65600400D02*
X127102800Y-65633600D01*
X120827800Y-68757800D02*
X122047000Y-69977000D01*
X123291600Y-67106800D02*
X120827800Y-67106800D01*
X120827800Y-67106800D02*
X120827800Y-68757800D01*
X125501400Y-65633600D02*
X123291600Y-67106800D01*
%TO.N,SDA*%
X122047000Y-67977000D02*
X123480400Y-69410400D01*
X123480400Y-69410400D02*
X127136000Y-69410400D01*
%TO.N,IO0*%
X127102800Y-79603600D02*
X127136000Y-79570400D01*
X126161800Y-86055200D02*
X125653800Y-85547200D01*
X136271000Y-84492000D02*
X134707800Y-86055200D01*
D31*
X134707800Y-86055200D02*
X131445000Y-86055200D01*
D29*
X125526800Y-79603600D02*
X127102800Y-79603600D01*
X131445000Y-86055200D02*
X126161800Y-86055200D01*
X125653800Y-85547200D02*
X125667111Y-85533889D01*
X125667111Y-85533889D02*
X125667111Y-79743911D01*
X125667111Y-79743911D02*
X125526800Y-79603600D01*
X131394200Y-86004400D02*
X131445000Y-86055200D01*
X131394200Y-84619600D02*
X131394200Y-86004400D01*
%TO.N,RST*%
X132396880Y-83895080D02*
X128714520Y-83895080D01*
X133121400Y-84619600D02*
X132396880Y-83895080D01*
X128346200Y-84263400D02*
X128117600Y-84492000D01*
X128346200Y-82829400D02*
X128346200Y-84263400D01*
X128714520Y-83895080D02*
X128117600Y-84492000D01*
X142511600Y-65600400D02*
X141351000Y-64439800D01*
X144136000Y-65600400D02*
X142511600Y-65600400D01*
%TO.N,C_REED*%
X126415800Y-97942400D02*
X127279400Y-97942400D01*
X124218089Y-78698311D02*
X124218089Y-95744689D01*
X124218089Y-95744689D02*
X126415800Y-97942400D01*
X127136000Y-77030400D02*
X125886000Y-77030400D01*
X125886000Y-77030400D02*
X124218089Y-78698311D01*
%TO.N,L_IND*%
X122301000Y-85267800D02*
X122361452Y-85385148D01*
X122361452Y-85385148D02*
X123596400Y-87782400D01*
X125873911Y-73211289D02*
X122275600Y-76809600D01*
X134112000Y-99314000D02*
X126770682Y-99314000D01*
X123596400Y-87782400D02*
X123596400Y-96139718D01*
X127136000Y-73220400D02*
X125886000Y-73220400D01*
X126770682Y-99314000D02*
X123596400Y-96139718D01*
X122275600Y-76809600D02*
X122275600Y-85299296D01*
X122275600Y-85299296D02*
X122361452Y-85385148D01*
X134112000Y-99314000D02*
X135511300Y-97891600D01*
%TO.N,WU_BUT*%
X131955079Y-75940457D02*
X127965022Y-71950400D01*
X127965022Y-71950400D02*
X127136000Y-71950400D01*
X131955079Y-76858487D02*
X131955079Y-75940457D01*
D31*
%TO.N,Net-(Q2-Pad1)*%
X137617878Y-85298033D02*
X138449311Y-84466600D01*
X138449311Y-84466600D02*
X143281400Y-84466600D01*
%TD*%
%TA.AperFunction,Conductor*%
%TO.N,VDD*%
G36*
X143739400Y-96951810D02*
G01*
X144786610Y-96964900D01*
X144854475Y-96985752D01*
X144900294Y-97039984D01*
X144909519Y-97110379D01*
X144887950Y-97159895D01*
X144889536Y-97160914D01*
X144771891Y-97343975D01*
X144771888Y-97343980D01*
X144693247Y-97540414D01*
X144693246Y-97540420D01*
X144653200Y-97748194D01*
X144653200Y-97875000D01*
X145485322Y-97875000D01*
X145442922Y-97921059D01*
X145392649Y-98035670D01*
X145382314Y-98160395D01*
X145413037Y-98281719D01*
X145479208Y-98383000D01*
X144653200Y-98383000D01*
X144653200Y-98456779D01*
X144653201Y-98456800D01*
X144668272Y-98614633D01*
X144668275Y-98614648D01*
X144727889Y-98817677D01*
X144824850Y-99005754D01*
X144955655Y-99172085D01*
X144955660Y-99172091D01*
X145115574Y-99310656D01*
X145115575Y-99310657D01*
X145298822Y-99416454D01*
X145298831Y-99416458D01*
X145498784Y-99485662D01*
X145498790Y-99485664D01*
X145507200Y-99486873D01*
X145507200Y-98406503D01*
X145580252Y-98463363D01*
X145698624Y-98504000D01*
X145792273Y-98504000D01*
X145884646Y-98488586D01*
X145994714Y-98429019D01*
X146015200Y-98406765D01*
X146015200Y-99482519D01*
X146125238Y-99455824D01*
X146125240Y-99455823D01*
X146233642Y-99406317D01*
X146303916Y-99396212D01*
X146368497Y-99425705D01*
X146406882Y-99485430D01*
X146411976Y-99519355D01*
X146429431Y-100915742D01*
X146410282Y-100984108D01*
X146357212Y-101031267D01*
X146305549Y-101043299D01*
X140798952Y-101135459D01*
X140730507Y-101116600D01*
X140683122Y-101063730D01*
X140670846Y-101008799D01*
X140684644Y-98452885D01*
X140685607Y-98274478D01*
X140685606Y-98274477D01*
X140685607Y-98274466D01*
X140674081Y-98163473D01*
X140662608Y-98110257D01*
X140627375Y-98004371D01*
X140548148Y-97881550D01*
X140521789Y-97851234D01*
X140501565Y-97827974D01*
X140445975Y-97779969D01*
X140407490Y-97720308D01*
X140402335Y-97683084D01*
X140409691Y-97076272D01*
X140430518Y-97008399D01*
X140484733Y-96962560D01*
X140535682Y-96951800D01*
X143737825Y-96951800D01*
X143739400Y-96951810D01*
G37*
%TD.AperFunction*%
%TD*%
%TA.AperFunction,Conductor*%
%TO.N,GND*%
G36*
X123542004Y-78741021D02*
G01*
X123579818Y-78801110D01*
X123584589Y-78835456D01*
X123584589Y-85856429D01*
X123564587Y-85924550D01*
X123510931Y-85971043D01*
X123440657Y-85981147D01*
X123376077Y-85951653D01*
X123346578Y-85914132D01*
X123147219Y-85527143D01*
X122968162Y-85179562D01*
X122968161Y-85179558D01*
X122958277Y-85160371D01*
X122949290Y-85137820D01*
X122947470Y-85131555D01*
X122926646Y-85096344D01*
X122909100Y-85032205D01*
X122909100Y-78936300D01*
X122929102Y-78868179D01*
X122982758Y-78821686D01*
X123035100Y-78810300D01*
X123107687Y-78810300D01*
X123294488Y-78770594D01*
X123407340Y-78720348D01*
X123477707Y-78710915D01*
X123542004Y-78741021D01*
G37*
%TD.AperFunction*%
%TA.AperFunction,Conductor*%
G36*
X130543929Y-61765402D02*
G01*
X143548474Y-61858960D01*
X143616447Y-61879452D01*
X143662552Y-61933441D01*
X143672150Y-62003785D01*
X143642193Y-62068152D01*
X143582193Y-62106105D01*
X143561038Y-62110235D01*
X143526905Y-62113905D01*
X143390035Y-62164955D01*
X143390034Y-62164955D01*
X143273095Y-62252495D01*
X143185555Y-62369434D01*
X143185555Y-62369435D01*
X143134505Y-62506306D01*
X143128000Y-62566802D01*
X143128000Y-62811400D01*
X145644000Y-62811400D01*
X145644000Y-62566814D01*
X145643999Y-62566802D01*
X145637494Y-62506306D01*
X145586444Y-62369435D01*
X145586444Y-62369434D01*
X145498904Y-62252495D01*
X145381965Y-62164955D01*
X145249570Y-62115575D01*
X145192734Y-62073028D01*
X145167923Y-62006508D01*
X145183014Y-61937134D01*
X145233217Y-61886931D01*
X145294506Y-61871522D01*
X150830255Y-61911347D01*
X150898228Y-61931839D01*
X150944333Y-61985828D01*
X150955346Y-62037274D01*
X150976988Y-101271398D01*
X150957024Y-101339530D01*
X150903394Y-101386053D01*
X150846026Y-101397370D01*
X147085438Y-101249169D01*
X147018158Y-101226500D01*
X146973814Y-101171055D01*
X146964400Y-101123267D01*
X146964400Y-99578966D01*
X146984402Y-99510845D01*
X147038058Y-99464352D01*
X147108332Y-99454248D01*
X147130033Y-99459362D01*
X147256869Y-99501392D01*
X147256881Y-99501394D01*
X147360683Y-99511999D01*
X147360683Y-99512000D01*
X147507200Y-99512000D01*
X147507200Y-98406503D01*
X147580252Y-98463363D01*
X147698624Y-98504000D01*
X147792273Y-98504000D01*
X147884646Y-98488586D01*
X147994714Y-98429019D01*
X148015200Y-98406765D01*
X148015200Y-99512000D01*
X148161717Y-99512000D01*
X148161716Y-99511999D01*
X148265518Y-99501394D01*
X148265521Y-99501393D01*
X148433725Y-99445657D01*
X148584539Y-99352634D01*
X148584545Y-99352629D01*
X148709829Y-99227345D01*
X148709834Y-99227339D01*
X148802857Y-99076525D01*
X148858593Y-98908321D01*
X148858594Y-98908318D01*
X148869199Y-98804516D01*
X148869200Y-98804516D01*
X148869200Y-98383000D01*
X148037078Y-98383000D01*
X148079478Y-98336941D01*
X148129751Y-98222330D01*
X148140086Y-98097605D01*
X148109363Y-97976281D01*
X148043192Y-97875000D01*
X148869200Y-97875000D01*
X148869200Y-97453483D01*
X148858594Y-97349681D01*
X148858593Y-97349678D01*
X148802857Y-97181474D01*
X148709834Y-97030660D01*
X148709829Y-97030654D01*
X148584545Y-96905370D01*
X148584539Y-96905365D01*
X148433725Y-96812342D01*
X148265521Y-96756606D01*
X148265518Y-96756605D01*
X148161716Y-96746000D01*
X148015200Y-96746000D01*
X148015200Y-97851496D01*
X147942148Y-97794637D01*
X147823776Y-97754000D01*
X147730127Y-97754000D01*
X147637754Y-97769414D01*
X147527686Y-97828981D01*
X147507200Y-97851234D01*
X147507200Y-96746000D01*
X147360683Y-96746000D01*
X147256881Y-96756605D01*
X147256877Y-96756606D01*
X147130033Y-96798638D01*
X147059078Y-96801078D01*
X146998068Y-96764770D01*
X146966373Y-96701241D01*
X146964400Y-96679033D01*
X146964400Y-96164400D01*
X143510000Y-96139000D01*
X143509983Y-96139000D01*
X143509968Y-96139000D01*
X139801600Y-96164400D01*
X139710421Y-97942400D01*
X139700000Y-98145600D01*
X140045905Y-98145014D01*
X140114057Y-98164901D01*
X140160641Y-98218478D01*
X140172114Y-98271694D01*
X140165419Y-99511999D01*
X140155512Y-101347182D01*
X140135144Y-101415192D01*
X140081238Y-101461394D01*
X140029515Y-101472500D01*
X117855640Y-101472500D01*
X117787519Y-101452498D01*
X117741026Y-101398842D01*
X117729640Y-101346361D01*
X117729772Y-101226500D01*
X117744003Y-88326059D01*
X119205500Y-88326059D01*
X119246208Y-88491221D01*
X119246210Y-88491225D01*
X119325265Y-88641851D01*
X119325270Y-88641857D01*
X119438069Y-88769181D01*
X119438071Y-88769183D01*
X119578070Y-88865818D01*
X119578074Y-88865820D01*
X119667172Y-88899609D01*
X119737128Y-88926140D01*
X119863628Y-88941500D01*
X119863632Y-88941500D01*
X119948368Y-88941500D01*
X119948372Y-88941500D01*
X120074872Y-88926140D01*
X120233930Y-88865818D01*
X120373929Y-88769183D01*
X120486734Y-88641852D01*
X120565790Y-88491225D01*
X120606500Y-88326056D01*
X120606500Y-88155944D01*
X120565790Y-87990775D01*
X120486734Y-87840148D01*
X120431447Y-87777742D01*
X120373930Y-87712818D01*
X120373928Y-87712816D01*
X120233929Y-87616181D01*
X120233925Y-87616179D01*
X120074870Y-87555859D01*
X119948378Y-87540500D01*
X119948372Y-87540500D01*
X119863628Y-87540500D01*
X119863621Y-87540500D01*
X119737129Y-87555859D01*
X119578074Y-87616179D01*
X119578070Y-87616181D01*
X119438071Y-87712816D01*
X119438069Y-87712818D01*
X119325270Y-87840142D01*
X119325265Y-87840148D01*
X119246210Y-87990774D01*
X119246208Y-87990778D01*
X119205500Y-88155940D01*
X119205500Y-88326059D01*
X117744003Y-88326059D01*
X117747312Y-85326059D01*
X119205500Y-85326059D01*
X119246208Y-85491221D01*
X119246210Y-85491225D01*
X119325265Y-85641851D01*
X119325270Y-85641857D01*
X119438069Y-85769181D01*
X119438071Y-85769183D01*
X119578070Y-85865818D01*
X119578074Y-85865820D01*
X119633440Y-85886817D01*
X119737128Y-85926140D01*
X119863628Y-85941500D01*
X119863632Y-85941500D01*
X119948368Y-85941500D01*
X119948372Y-85941500D01*
X120074872Y-85926140D01*
X120233930Y-85865818D01*
X120373929Y-85769183D01*
X120486734Y-85641852D01*
X120565790Y-85491225D01*
X120566595Y-85487961D01*
X120585389Y-85411708D01*
X120606500Y-85326056D01*
X120606500Y-85155944D01*
X120591810Y-85096344D01*
X120565791Y-84990778D01*
X120565790Y-84990776D01*
X120565790Y-84990775D01*
X120486734Y-84840148D01*
X120373929Y-84712817D01*
X120289558Y-84654579D01*
X120233929Y-84616181D01*
X120233925Y-84616179D01*
X120074870Y-84555859D01*
X119948378Y-84540500D01*
X119948372Y-84540500D01*
X119863628Y-84540500D01*
X119863621Y-84540500D01*
X119737129Y-84555859D01*
X119578074Y-84616179D01*
X119578070Y-84616181D01*
X119438071Y-84712816D01*
X119438069Y-84712818D01*
X119325270Y-84840142D01*
X119325265Y-84840148D01*
X119246210Y-84990774D01*
X119246208Y-84990778D01*
X119205500Y-85155940D01*
X119205500Y-85326059D01*
X117747312Y-85326059D01*
X117753737Y-79502000D01*
X118161696Y-79502000D01*
X118181657Y-79691927D01*
X118211134Y-79782644D01*
X118240673Y-79873556D01*
X118240676Y-79873561D01*
X118336158Y-80038941D01*
X118336165Y-80038951D01*
X118463944Y-80180864D01*
X118463947Y-80180866D01*
X118618448Y-80293118D01*
X118792912Y-80370794D01*
X118979713Y-80410500D01*
X119170687Y-80410500D01*
X119357488Y-80370794D01*
X119531952Y-80293118D01*
X119686453Y-80180866D01*
X119686455Y-80180864D01*
X119814234Y-80038951D01*
X119814235Y-80038949D01*
X119814240Y-80038944D01*
X119909727Y-79873556D01*
X119968742Y-79691928D01*
X119988704Y-79502000D01*
X119968742Y-79312072D01*
X119968742Y-79312070D01*
X119954925Y-79269548D01*
X119952896Y-79198581D01*
X119985480Y-79144541D01*
X119944595Y-79139851D01*
X119889633Y-79094909D01*
X119884523Y-79086789D01*
X119814241Y-78965058D01*
X119814234Y-78965048D01*
X119686455Y-78823135D01*
X119589097Y-78752400D01*
X120079696Y-78752400D01*
X120099657Y-78942327D01*
X120113475Y-78984852D01*
X120115503Y-79055820D01*
X120082917Y-79109857D01*
X120123803Y-79114548D01*
X120178765Y-79159488D01*
X120183876Y-79167609D01*
X120254160Y-79289344D01*
X120254162Y-79289347D01*
X120254165Y-79289351D01*
X120381944Y-79431264D01*
X120443199Y-79475768D01*
X120536448Y-79543518D01*
X120710912Y-79621194D01*
X120897713Y-79660900D01*
X121088687Y-79660900D01*
X121275488Y-79621194D01*
X121449952Y-79543518D01*
X121449963Y-79543509D01*
X121453094Y-79541703D01*
X121455146Y-79541205D01*
X121455984Y-79540832D01*
X121456052Y-79540985D01*
X121522089Y-79524961D01*
X121589182Y-79548179D01*
X121633072Y-79603983D01*
X121642100Y-79650819D01*
X121642100Y-85215442D01*
X121640351Y-85231284D01*
X121640644Y-85231312D01*
X121639898Y-85239203D01*
X121642038Y-85307280D01*
X121642100Y-85311239D01*
X121642100Y-85339147D01*
X121642101Y-85339165D01*
X121642607Y-85343173D01*
X121643537Y-85354992D01*
X121644926Y-85399184D01*
X121644927Y-85399189D01*
X121650577Y-85418635D01*
X121654586Y-85437993D01*
X121657125Y-85458089D01*
X121657125Y-85458092D01*
X121660011Y-85465380D01*
X121666489Y-85536080D01*
X121633715Y-85599059D01*
X121572095Y-85634322D01*
X121569056Y-85635007D01*
X121409115Y-85669004D01*
X121234647Y-85746682D01*
X121080144Y-85858935D01*
X120952365Y-86000848D01*
X120952358Y-86000858D01*
X120856876Y-86166238D01*
X120856873Y-86166245D01*
X120797857Y-86347872D01*
X120777896Y-86537800D01*
X120797857Y-86727727D01*
X120827926Y-86820270D01*
X120856873Y-86909356D01*
X120856876Y-86909361D01*
X120952358Y-87074741D01*
X120952365Y-87074751D01*
X121080144Y-87216664D01*
X121080147Y-87216666D01*
X121234648Y-87328918D01*
X121409112Y-87406594D01*
X121595913Y-87446300D01*
X121786887Y-87446300D01*
X121973688Y-87406594D01*
X122148152Y-87328918D01*
X122302653Y-87216666D01*
X122364828Y-87147613D01*
X122425272Y-87110373D01*
X122496256Y-87111724D01*
X122555241Y-87151237D01*
X122570475Y-87174220D01*
X122943743Y-87898797D01*
X122957158Y-87968515D01*
X122930751Y-88034418D01*
X122872907Y-88075583D01*
X122831732Y-88082500D01*
X122724113Y-88082500D01*
X122537311Y-88122206D01*
X122362847Y-88199882D01*
X122208344Y-88312135D01*
X122080565Y-88454048D01*
X122080558Y-88454058D01*
X122059100Y-88491225D01*
X121985073Y-88619444D01*
X121970599Y-88663986D01*
X121926057Y-88801072D01*
X121906096Y-88991000D01*
X121926057Y-89180927D01*
X121956126Y-89273470D01*
X121985073Y-89362556D01*
X121985076Y-89362561D01*
X122080558Y-89527941D01*
X122080565Y-89527951D01*
X122208344Y-89669864D01*
X122208347Y-89669866D01*
X122362848Y-89782118D01*
X122537312Y-89859794D01*
X122724113Y-89899500D01*
X122836900Y-89899500D01*
X122905021Y-89919502D01*
X122951514Y-89973158D01*
X122962900Y-90025500D01*
X122962900Y-96055864D01*
X122961151Y-96071706D01*
X122961444Y-96071734D01*
X122960698Y-96079625D01*
X122962838Y-96147702D01*
X122962900Y-96151661D01*
X122962900Y-96179569D01*
X122962901Y-96179587D01*
X122963407Y-96183595D01*
X122964337Y-96195414D01*
X122965726Y-96239606D01*
X122965727Y-96239611D01*
X122971377Y-96259057D01*
X122975386Y-96278415D01*
X122977925Y-96298511D01*
X122977926Y-96298518D01*
X122994200Y-96339621D01*
X122998044Y-96350847D01*
X123010382Y-96393311D01*
X123020694Y-96410749D01*
X123029388Y-96428497D01*
X123036844Y-96447327D01*
X123036850Y-96447338D01*
X123062832Y-96483099D01*
X123069349Y-96493019D01*
X123091858Y-96531080D01*
X123091859Y-96531081D01*
X123091861Y-96531084D01*
X123106179Y-96545402D01*
X123119017Y-96560432D01*
X123130926Y-96576822D01*
X123130930Y-96576827D01*
X123164998Y-96605010D01*
X123173778Y-96613000D01*
X126263435Y-99702657D01*
X126273402Y-99715097D01*
X126273629Y-99714910D01*
X126278681Y-99721017D01*
X126328348Y-99767657D01*
X126331192Y-99770414D01*
X126350912Y-99790134D01*
X126354098Y-99792605D01*
X126363128Y-99800317D01*
X126379105Y-99815321D01*
X126395360Y-99830585D01*
X126395364Y-99830588D01*
X126413112Y-99840345D01*
X126429639Y-99851201D01*
X126445642Y-99863614D01*
X126486221Y-99881174D01*
X126496869Y-99886391D01*
X126535616Y-99907692D01*
X126535618Y-99907693D01*
X126535622Y-99907695D01*
X126555244Y-99912733D01*
X126573945Y-99919135D01*
X126586496Y-99924567D01*
X126592534Y-99927180D01*
X126592535Y-99927180D01*
X126592537Y-99927181D01*
X126636212Y-99934098D01*
X126647823Y-99936502D01*
X126690652Y-99947500D01*
X126710906Y-99947500D01*
X126730616Y-99949051D01*
X126732823Y-99949400D01*
X126750625Y-99952220D01*
X126794643Y-99948058D01*
X126806501Y-99947500D01*
X134031297Y-99947500D01*
X134053491Y-99949858D01*
X134057103Y-99950169D01*
X134057115Y-99950172D01*
X134120202Y-99947672D01*
X134122053Y-99947599D01*
X134127042Y-99947500D01*
X134151852Y-99947500D01*
X134151856Y-99947500D01*
X134158956Y-99946602D01*
X134169755Y-99945708D01*
X134217049Y-99943835D01*
X134227729Y-99940637D01*
X134233461Y-99938921D01*
X134253805Y-99934620D01*
X134270797Y-99932474D01*
X134314801Y-99915051D01*
X134325041Y-99911499D01*
X134370382Y-99897923D01*
X134385061Y-99889078D01*
X134403691Y-99879857D01*
X134419617Y-99873552D01*
X134457910Y-99845729D01*
X134466926Y-99839753D01*
X134507480Y-99815321D01*
X134519493Y-99803109D01*
X134535249Y-99789539D01*
X134549107Y-99779472D01*
X134579274Y-99743004D01*
X134586520Y-99734974D01*
X135174061Y-99137733D01*
X135236090Y-99103202D01*
X135263871Y-99100099D01*
X135805174Y-99100099D01*
X135908204Y-99089574D01*
X136075129Y-99034261D01*
X136224798Y-98941944D01*
X136349144Y-98817598D01*
X136349148Y-98817590D01*
X136349962Y-98816563D01*
X136350708Y-98816034D01*
X136354334Y-98812409D01*
X136354953Y-98813028D01*
X136407902Y-98775533D01*
X136478827Y-98772341D01*
X136540218Y-98808001D01*
X136547638Y-98816563D01*
X136548461Y-98817604D01*
X136672795Y-98941938D01*
X136672801Y-98941943D01*
X136672802Y-98941944D01*
X136822471Y-99034261D01*
X136989396Y-99089574D01*
X137092425Y-99100100D01*
X137680174Y-99100099D01*
X137783204Y-99089574D01*
X137950129Y-99034261D01*
X138099798Y-98941944D01*
X138224144Y-98817598D01*
X138316461Y-98667929D01*
X138371774Y-98501004D01*
X138382300Y-98397975D01*
X138382299Y-97385226D01*
X138371774Y-97282196D01*
X138316461Y-97115271D01*
X138224144Y-96965602D01*
X138224143Y-96965601D01*
X138224138Y-96965595D01*
X138099804Y-96841261D01*
X138094043Y-96836706D01*
X138095991Y-96834242D01*
X138057944Y-96791893D01*
X138045600Y-96737503D01*
X138045600Y-96559669D01*
X138065602Y-96491548D01*
X138105454Y-96452428D01*
X138113724Y-96447327D01*
X138148252Y-96426030D01*
X138273630Y-96300652D01*
X138366715Y-96149738D01*
X138422487Y-95981426D01*
X138433100Y-95877545D01*
X138433099Y-94876456D01*
X138422487Y-94772574D01*
X138366715Y-94604262D01*
X138273630Y-94453348D01*
X138273629Y-94453347D01*
X138273624Y-94453341D01*
X138148258Y-94327975D01*
X138148252Y-94327970D01*
X137997338Y-94234885D01*
X137913182Y-94206999D01*
X137829027Y-94179113D01*
X137829020Y-94179112D01*
X137725153Y-94168500D01*
X137099055Y-94168500D01*
X136995174Y-94179112D01*
X136826861Y-94234885D01*
X136675947Y-94327970D01*
X136675941Y-94327975D01*
X136588341Y-94415576D01*
X136526029Y-94449602D01*
X136455214Y-94444537D01*
X136410151Y-94415576D01*
X136322945Y-94328370D01*
X136322939Y-94328365D01*
X136172125Y-94235342D01*
X136003921Y-94179606D01*
X136003918Y-94179605D01*
X135900116Y-94169000D01*
X135841100Y-94169000D01*
X135841100Y-95505000D01*
X135821098Y-95573121D01*
X135767442Y-95619614D01*
X135715100Y-95631000D01*
X134517372Y-95631000D01*
X134449251Y-95610998D01*
X134402758Y-95557342D01*
X134400084Y-95551038D01*
X134399866Y-95550483D01*
X134367023Y-95482284D01*
X134286028Y-95314096D01*
X134286026Y-95314093D01*
X134286022Y-95314086D01*
X134155741Y-95123000D01*
X134566600Y-95123000D01*
X135333100Y-95123000D01*
X135333100Y-94169000D01*
X135274083Y-94169000D01*
X135170281Y-94179605D01*
X135170278Y-94179606D01*
X135002074Y-94235342D01*
X134851260Y-94328365D01*
X134851254Y-94328370D01*
X134725970Y-94453654D01*
X134725965Y-94453660D01*
X134632942Y-94604474D01*
X134577206Y-94772678D01*
X134577205Y-94772681D01*
X134566600Y-94876483D01*
X134566600Y-95123000D01*
X134155741Y-95123000D01*
X134138237Y-95097327D01*
X134138233Y-95097321D01*
X133959781Y-94904995D01*
X133754657Y-94741414D01*
X133754652Y-94741411D01*
X133754653Y-94741411D01*
X133527447Y-94610233D01*
X133527439Y-94610230D01*
X133283219Y-94514381D01*
X133283217Y-94514380D01*
X133027433Y-94455998D01*
X132874490Y-94444537D01*
X132831294Y-94441300D01*
X132700306Y-94441300D01*
X132661078Y-94444239D01*
X132504166Y-94455998D01*
X132248382Y-94514380D01*
X132248380Y-94514381D01*
X132004160Y-94610230D01*
X132004152Y-94610233D01*
X131776946Y-94741411D01*
X131571818Y-94904995D01*
X131393366Y-95097322D01*
X131393362Y-95097327D01*
X131245577Y-95314086D01*
X131245573Y-95314093D01*
X131131738Y-95550472D01*
X131131733Y-95550485D01*
X131054404Y-95801180D01*
X131042894Y-95877545D01*
X131015300Y-96060618D01*
X131015300Y-96322982D01*
X131031204Y-96428497D01*
X131054404Y-96582419D01*
X131131733Y-96833114D01*
X131131738Y-96833127D01*
X131245573Y-97069506D01*
X131245577Y-97069513D01*
X131390583Y-97282196D01*
X131393367Y-97286279D01*
X131571819Y-97478605D01*
X131776943Y-97642186D01*
X131776946Y-97642188D01*
X132004152Y-97773366D01*
X132004156Y-97773367D01*
X132004157Y-97773368D01*
X132248384Y-97869220D01*
X132504170Y-97927602D01*
X132700306Y-97942300D01*
X132700307Y-97942300D01*
X132831293Y-97942300D01*
X132831294Y-97942300D01*
X133027430Y-97927602D01*
X133283216Y-97869220D01*
X133527443Y-97773368D01*
X133527445Y-97773366D01*
X133527447Y-97773366D01*
X133752795Y-97643261D01*
X133754657Y-97642186D01*
X133959781Y-97478605D01*
X134138233Y-97286279D01*
X134286028Y-97069504D01*
X134399863Y-96833123D01*
X134406097Y-96812915D01*
X134477195Y-96582418D01*
X134477194Y-96582418D01*
X134477196Y-96582415D01*
X134509528Y-96367905D01*
X134539460Y-96303528D01*
X134599446Y-96265551D01*
X134670441Y-96266034D01*
X134723216Y-96297591D01*
X134851254Y-96425629D01*
X134851263Y-96425636D01*
X134995881Y-96514837D01*
X135043360Y-96567623D01*
X135054763Y-96637697D01*
X135026471Y-96702813D01*
X134969371Y-96741682D01*
X134947471Y-96748939D01*
X134797801Y-96841256D01*
X134797795Y-96841261D01*
X134673461Y-96965595D01*
X134673456Y-96965601D01*
X134581139Y-97115270D01*
X134581139Y-97115271D01*
X134535841Y-97251974D01*
X134525825Y-97282200D01*
X134515300Y-97385216D01*
X134515300Y-97949123D01*
X134495298Y-98017244D01*
X134479122Y-98037486D01*
X134353777Y-98164901D01*
X133892199Y-98634100D01*
X133883578Y-98642863D01*
X133821546Y-98677397D01*
X133793756Y-98680500D01*
X128119580Y-98680500D01*
X128051459Y-98660498D01*
X128004966Y-98606842D01*
X127994862Y-98536568D01*
X128015648Y-98485357D01*
X128015138Y-98485063D01*
X128017260Y-98481386D01*
X128017646Y-98480437D01*
X128018433Y-98479351D01*
X128018440Y-98479344D01*
X128113927Y-98313956D01*
X128172942Y-98132328D01*
X128192904Y-97942400D01*
X128172942Y-97752472D01*
X128113927Y-97570844D01*
X128018440Y-97405456D01*
X128018438Y-97405454D01*
X128018434Y-97405448D01*
X127890655Y-97263535D01*
X127736152Y-97151282D01*
X127561688Y-97073606D01*
X127374887Y-97033900D01*
X127183913Y-97033900D01*
X126997111Y-97073606D01*
X126822648Y-97151282D01*
X126734756Y-97215139D01*
X126667889Y-97238997D01*
X126598737Y-97222916D01*
X126571601Y-97202297D01*
X125737211Y-96367907D01*
X124888494Y-95519189D01*
X124854468Y-95456877D01*
X124851589Y-95430094D01*
X124851589Y-92546000D01*
X126859600Y-92546000D01*
X126859600Y-93090597D01*
X126866105Y-93151093D01*
X126917155Y-93287964D01*
X126917155Y-93287965D01*
X127004695Y-93404904D01*
X127121634Y-93492444D01*
X127258506Y-93543494D01*
X127319002Y-93549999D01*
X127319015Y-93550000D01*
X127863600Y-93550000D01*
X127863600Y-92546000D01*
X128371600Y-92546000D01*
X128371600Y-93550000D01*
X128916185Y-93550000D01*
X128916197Y-93549999D01*
X128976693Y-93543494D01*
X129113564Y-93492444D01*
X129113565Y-93492444D01*
X129230504Y-93404904D01*
X129318044Y-93287965D01*
X129318044Y-93287964D01*
X129369094Y-93151093D01*
X129375599Y-93090597D01*
X129375600Y-93090585D01*
X129375600Y-92546000D01*
X128371600Y-92546000D01*
X127863600Y-92546000D01*
X126859600Y-92546000D01*
X124851589Y-92546000D01*
X124851589Y-92422352D01*
X131507299Y-92422352D01*
X131517912Y-92526221D01*
X131517912Y-92526223D01*
X131517913Y-92526225D01*
X131573685Y-92694538D01*
X131597683Y-92733444D01*
X131666770Y-92845451D01*
X131666775Y-92845457D01*
X131792142Y-92970824D01*
X131792148Y-92970829D01*
X131792149Y-92970830D01*
X131943062Y-93063915D01*
X132111375Y-93119687D01*
X132139706Y-93122581D01*
X132215248Y-93130300D01*
X132215256Y-93130300D01*
X133316352Y-93130300D01*
X133385598Y-93123224D01*
X133420225Y-93119687D01*
X133588538Y-93063915D01*
X133739451Y-92970830D01*
X133864830Y-92845451D01*
X133957915Y-92694538D01*
X134007134Y-92546000D01*
X135013000Y-92546000D01*
X135013000Y-93090597D01*
X135019505Y-93151093D01*
X135070555Y-93287964D01*
X135070555Y-93287965D01*
X135158095Y-93404904D01*
X135275034Y-93492444D01*
X135411906Y-93543494D01*
X135472402Y-93549999D01*
X135472415Y-93550000D01*
X136017000Y-93550000D01*
X136017000Y-92546000D01*
X136525000Y-92546000D01*
X136525000Y-93550000D01*
X137069585Y-93550000D01*
X137069597Y-93549999D01*
X137130093Y-93543494D01*
X137266964Y-93492444D01*
X137266965Y-93492444D01*
X137383904Y-93404904D01*
X137471444Y-93287965D01*
X137471444Y-93287964D01*
X137522494Y-93151093D01*
X137528999Y-93090597D01*
X137529000Y-93090585D01*
X137529000Y-92546000D01*
X136525000Y-92546000D01*
X136017000Y-92546000D01*
X135013000Y-92546000D01*
X134007134Y-92546000D01*
X134013687Y-92526225D01*
X134014262Y-92520600D01*
X142023400Y-92520600D01*
X142023400Y-93065197D01*
X142029905Y-93125693D01*
X142080955Y-93262564D01*
X142080955Y-93262565D01*
X142168495Y-93379504D01*
X142285434Y-93467044D01*
X142422306Y-93518094D01*
X142482802Y-93524599D01*
X142482815Y-93524600D01*
X143027400Y-93524600D01*
X143027400Y-92520600D01*
X143535400Y-92520600D01*
X143535400Y-93524600D01*
X144079985Y-93524600D01*
X144079997Y-93524599D01*
X144140493Y-93518094D01*
X144277364Y-93467044D01*
X144277365Y-93467044D01*
X144394304Y-93379504D01*
X144481844Y-93262565D01*
X144481844Y-93262564D01*
X144532894Y-93125693D01*
X144539399Y-93065197D01*
X144539400Y-93065185D01*
X144539400Y-92520600D01*
X143535400Y-92520600D01*
X143027400Y-92520600D01*
X142023400Y-92520600D01*
X134014262Y-92520600D01*
X134019041Y-92473820D01*
X134024300Y-92422352D01*
X134024300Y-92038000D01*
X135013000Y-92038000D01*
X136017000Y-92038000D01*
X136017000Y-91034000D01*
X136525000Y-91034000D01*
X136525000Y-92038000D01*
X137529000Y-92038000D01*
X137529000Y-92012600D01*
X142023400Y-92012600D01*
X143027400Y-92012600D01*
X143027400Y-91008600D01*
X143535400Y-91008600D01*
X143535400Y-92012600D01*
X144539400Y-92012600D01*
X144539400Y-91468014D01*
X144539399Y-91468002D01*
X144532894Y-91407506D01*
X144481844Y-91270635D01*
X144481844Y-91270634D01*
X144469216Y-91253765D01*
X146100788Y-91253765D01*
X146130412Y-91523014D01*
X146198928Y-91785090D01*
X146304869Y-92034389D01*
X146304870Y-92034390D01*
X146445982Y-92265610D01*
X146619255Y-92473820D01*
X146619257Y-92473822D01*
X146619259Y-92473824D01*
X146699813Y-92546000D01*
X146820998Y-92654582D01*
X147046910Y-92804044D01*
X147292176Y-92919020D01*
X147551569Y-92997060D01*
X147551572Y-92997060D01*
X147551574Y-92997061D01*
X147819557Y-93036500D01*
X147819561Y-93036500D01*
X148022631Y-93036500D01*
X148225156Y-93021677D01*
X148225160Y-93021676D01*
X148225161Y-93021676D01*
X148453415Y-92970830D01*
X148489553Y-92962780D01*
X148742558Y-92866014D01*
X148978777Y-92733441D01*
X149193177Y-92567888D01*
X149381186Y-92372881D01*
X149538799Y-92152579D01*
X149662656Y-91911675D01*
X149750118Y-91655305D01*
X149784712Y-91468014D01*
X149799318Y-91388941D01*
X149799319Y-91388930D01*
X149801792Y-91321256D01*
X149809212Y-91118235D01*
X149784996Y-90898148D01*
X149779587Y-90848985D01*
X149711071Y-90586909D01*
X149605130Y-90337610D01*
X149464018Y-90106390D01*
X149290745Y-89898180D01*
X149290741Y-89898177D01*
X149290740Y-89898175D01*
X149089012Y-89717427D01*
X149089002Y-89717418D01*
X148863090Y-89567956D01*
X148617824Y-89452980D01*
X148460392Y-89405615D01*
X148358425Y-89374938D01*
X148090442Y-89335500D01*
X148090439Y-89335500D01*
X147887369Y-89335500D01*
X147684839Y-89350323D01*
X147684838Y-89350323D01*
X147420456Y-89409217D01*
X147420441Y-89409222D01*
X147167441Y-89505986D01*
X146931229Y-89638555D01*
X146931225Y-89638557D01*
X146716818Y-89804116D01*
X146528815Y-89999117D01*
X146528810Y-89999123D01*
X146371203Y-90219417D01*
X146371196Y-90219427D01*
X146247343Y-90460324D01*
X146247342Y-90460327D01*
X146159883Y-90716689D01*
X146159880Y-90716702D01*
X146110681Y-90983058D01*
X146110680Y-90983069D01*
X146100788Y-91253765D01*
X144469216Y-91253765D01*
X144394304Y-91153695D01*
X144277365Y-91066155D01*
X144140493Y-91015105D01*
X144079997Y-91008600D01*
X143535400Y-91008600D01*
X143027400Y-91008600D01*
X142482802Y-91008600D01*
X142422306Y-91015105D01*
X142285435Y-91066155D01*
X142285434Y-91066155D01*
X142168495Y-91153695D01*
X142080955Y-91270634D01*
X142080955Y-91270635D01*
X142029905Y-91407506D01*
X142023400Y-91468002D01*
X142023400Y-92012600D01*
X137529000Y-92012600D01*
X137529000Y-91493414D01*
X137528999Y-91493402D01*
X137522494Y-91432906D01*
X137471444Y-91296035D01*
X137471444Y-91296034D01*
X137383904Y-91179095D01*
X137266965Y-91091555D01*
X137130093Y-91040505D01*
X137069597Y-91034000D01*
X136525000Y-91034000D01*
X136017000Y-91034000D01*
X135472402Y-91034000D01*
X135411906Y-91040505D01*
X135275035Y-91091555D01*
X135275034Y-91091555D01*
X135158095Y-91179095D01*
X135070555Y-91296034D01*
X135070555Y-91296035D01*
X135019505Y-91432906D01*
X135013000Y-91493402D01*
X135013000Y-92038000D01*
X134024300Y-92038000D01*
X134024300Y-91321247D01*
X134013687Y-91217378D01*
X134013687Y-91217375D01*
X133957915Y-91049062D01*
X133864830Y-90898149D01*
X133864829Y-90898148D01*
X133864824Y-90898142D01*
X133739457Y-90772775D01*
X133739451Y-90772770D01*
X133648530Y-90716689D01*
X133588538Y-90679685D01*
X133420225Y-90623913D01*
X133420223Y-90623912D01*
X133420221Y-90623912D01*
X133316352Y-90613300D01*
X133316344Y-90613300D01*
X132215256Y-90613300D01*
X132215248Y-90613300D01*
X132111378Y-90623912D01*
X131943062Y-90679685D01*
X131943060Y-90679686D01*
X131792148Y-90772770D01*
X131792142Y-90772775D01*
X131666775Y-90898142D01*
X131666770Y-90898148D01*
X131573686Y-91049060D01*
X131573685Y-91049062D01*
X131517912Y-91217378D01*
X131507300Y-91321247D01*
X131507300Y-92422352D01*
X131507299Y-92422352D01*
X124851589Y-92422352D01*
X124851589Y-92038000D01*
X126859600Y-92038000D01*
X127863600Y-92038000D01*
X127863600Y-91034000D01*
X128371600Y-91034000D01*
X128371600Y-92038000D01*
X129375600Y-92038000D01*
X129375600Y-91493414D01*
X129375599Y-91493402D01*
X129369094Y-91432906D01*
X129318044Y-91296035D01*
X129318044Y-91296034D01*
X129230504Y-91179095D01*
X129113565Y-91091555D01*
X128976693Y-91040505D01*
X128916197Y-91034000D01*
X128371600Y-91034000D01*
X127863600Y-91034000D01*
X127319002Y-91034000D01*
X127258506Y-91040505D01*
X127121635Y-91091555D01*
X127121634Y-91091555D01*
X127004695Y-91179095D01*
X126917155Y-91296034D01*
X126917155Y-91296035D01*
X126866105Y-91432906D01*
X126859600Y-91493402D01*
X126859600Y-92038000D01*
X124851589Y-92038000D01*
X124851589Y-88871800D01*
X131502493Y-88871800D01*
X131521685Y-89091170D01*
X131578679Y-89303873D01*
X131578681Y-89303879D01*
X131606045Y-89362561D01*
X131671744Y-89503454D01*
X131766345Y-89638557D01*
X131798051Y-89683838D01*
X131798054Y-89683842D01*
X131953757Y-89839545D01*
X131953761Y-89839548D01*
X131953762Y-89839549D01*
X132134146Y-89965856D01*
X132333724Y-90058920D01*
X132546429Y-90115915D01*
X132765800Y-90135107D01*
X132985171Y-90115915D01*
X133197876Y-90058920D01*
X133397454Y-89965856D01*
X133577838Y-89839549D01*
X133733549Y-89683838D01*
X133859856Y-89503454D01*
X133952920Y-89303876D01*
X134009915Y-89091171D01*
X134029107Y-88871800D01*
X134009915Y-88652429D01*
X133952920Y-88439724D01*
X133859856Y-88240147D01*
X133733549Y-88059762D01*
X133577838Y-87904051D01*
X133397454Y-87777744D01*
X133258219Y-87712818D01*
X133197879Y-87684681D01*
X133197873Y-87684679D01*
X133107978Y-87660591D01*
X132985171Y-87627685D01*
X132765800Y-87608493D01*
X132546429Y-87627685D01*
X132333726Y-87684679D01*
X132333720Y-87684681D01*
X132134146Y-87777744D01*
X131953765Y-87904048D01*
X131953759Y-87904053D01*
X131798053Y-88059759D01*
X131798048Y-88059765D01*
X131671744Y-88240146D01*
X131578681Y-88439720D01*
X131578679Y-88439726D01*
X131521685Y-88652429D01*
X131502493Y-88871800D01*
X124851589Y-88871800D01*
X124851589Y-85903408D01*
X124871591Y-85835287D01*
X124925247Y-85788794D01*
X124995521Y-85778690D01*
X125060101Y-85808184D01*
X125081801Y-85832586D01*
X125084860Y-85837088D01*
X125084861Y-85837089D01*
X125104385Y-85865818D01*
X125116431Y-85883543D01*
X125120673Y-85890227D01*
X125149257Y-85938561D01*
X125149260Y-85938565D01*
X125155079Y-85944384D01*
X125170192Y-85962651D01*
X125174825Y-85969467D01*
X125174828Y-85969471D01*
X125216963Y-86006618D01*
X125222733Y-86012037D01*
X125654553Y-86443857D01*
X125664520Y-86456297D01*
X125664747Y-86456110D01*
X125669799Y-86462217D01*
X125669800Y-86462218D01*
X125670414Y-86462795D01*
X125719466Y-86508857D01*
X125722310Y-86511614D01*
X125742026Y-86531331D01*
X125745223Y-86533811D01*
X125754244Y-86541516D01*
X125786479Y-86571786D01*
X125786480Y-86571786D01*
X125786482Y-86571788D01*
X125804229Y-86581544D01*
X125820759Y-86592402D01*
X125836759Y-86604813D01*
X125877336Y-86622372D01*
X125887987Y-86627590D01*
X125926740Y-86648895D01*
X125946362Y-86653933D01*
X125965063Y-86660335D01*
X125983655Y-86668381D01*
X126027322Y-86675296D01*
X126038925Y-86677698D01*
X126081770Y-86688700D01*
X126102031Y-86688700D01*
X126121739Y-86690250D01*
X126141743Y-86693419D01*
X126185754Y-86689258D01*
X126197611Y-86688700D01*
X131341009Y-86688700D01*
X131356728Y-86690671D01*
X131356851Y-86689706D01*
X131364716Y-86690699D01*
X131364718Y-86690700D01*
X131397852Y-86690700D01*
X131417561Y-86692250D01*
X131424943Y-86693420D01*
X131447804Y-86691258D01*
X131459661Y-86690700D01*
X134639629Y-86690700D01*
X134645430Y-86690973D01*
X134647707Y-86690901D01*
X134647709Y-86690902D01*
X134651749Y-86690775D01*
X134652164Y-86690762D01*
X134656122Y-86690700D01*
X134747776Y-86690700D01*
X134747783Y-86690700D01*
X134772916Y-86687524D01*
X134784739Y-86686593D01*
X134807689Y-86685873D01*
X134814860Y-86683789D01*
X134834212Y-86679781D01*
X134867099Y-86675627D01*
X134928125Y-86651464D01*
X134939335Y-86647625D01*
X134961393Y-86641218D01*
X134967820Y-86637416D01*
X134985573Y-86628718D01*
X135016388Y-86616519D01*
X135069497Y-86577932D01*
X135079383Y-86571438D01*
X135099162Y-86559742D01*
X135104447Y-86554455D01*
X135119469Y-86541625D01*
X135146287Y-86522142D01*
X135188127Y-86471564D01*
X135196096Y-86462806D01*
X135871500Y-85787404D01*
X135933812Y-85753379D01*
X135960595Y-85750500D01*
X136757319Y-85750500D01*
X136825440Y-85770502D01*
X136866438Y-85813499D01*
X136878838Y-85834977D01*
X136878843Y-85834984D01*
X137006622Y-85976897D01*
X137051127Y-86009232D01*
X137161126Y-86089151D01*
X137335590Y-86166827D01*
X137522391Y-86206533D01*
X137713365Y-86206533D01*
X137900166Y-86166827D01*
X138074630Y-86089151D01*
X138229131Y-85976899D01*
X138258408Y-85944384D01*
X138356912Y-85834984D01*
X138356913Y-85834982D01*
X138356918Y-85834977D01*
X138452405Y-85669589D01*
X138511420Y-85487961D01*
X138528453Y-85325899D01*
X138555465Y-85260245D01*
X138564656Y-85249986D01*
X138675640Y-85139004D01*
X138737953Y-85104979D01*
X138764735Y-85102100D01*
X141896900Y-85102100D01*
X141965021Y-85122102D01*
X142011514Y-85175758D01*
X142022900Y-85228100D01*
X142022900Y-85265249D01*
X142029409Y-85325796D01*
X142029411Y-85325804D01*
X142080510Y-85462802D01*
X142080512Y-85462807D01*
X142168138Y-85579861D01*
X142285192Y-85667487D01*
X142285194Y-85667488D01*
X142285196Y-85667489D01*
X142344275Y-85689524D01*
X142422195Y-85718588D01*
X142422203Y-85718590D01*
X142482750Y-85725099D01*
X142482755Y-85725099D01*
X142482762Y-85725100D01*
X142482768Y-85725100D01*
X144080032Y-85725100D01*
X144080038Y-85725100D01*
X144080045Y-85725099D01*
X144080049Y-85725099D01*
X144140596Y-85718590D01*
X144140599Y-85718589D01*
X144140601Y-85718589D01*
X144277604Y-85667489D01*
X144311853Y-85641851D01*
X144394661Y-85579861D01*
X144482287Y-85462807D01*
X144482287Y-85462806D01*
X144482289Y-85462804D01*
X144533389Y-85325801D01*
X144535381Y-85307280D01*
X144539899Y-85265249D01*
X144539900Y-85265232D01*
X144539900Y-83667967D01*
X144539899Y-83667950D01*
X144533390Y-83607403D01*
X144533388Y-83607395D01*
X144482289Y-83470397D01*
X144482287Y-83470392D01*
X144394661Y-83353338D01*
X144277607Y-83265712D01*
X144277602Y-83265710D01*
X144140604Y-83214611D01*
X144140596Y-83214609D01*
X144080049Y-83208100D01*
X144080038Y-83208100D01*
X142482762Y-83208100D01*
X142482750Y-83208100D01*
X142422203Y-83214609D01*
X142422195Y-83214611D01*
X142285197Y-83265710D01*
X142285192Y-83265712D01*
X142168138Y-83353338D01*
X142080512Y-83470392D01*
X142080510Y-83470397D01*
X142029411Y-83607395D01*
X142029409Y-83607403D01*
X142022900Y-83667950D01*
X142022900Y-83705100D01*
X142002898Y-83773221D01*
X141949242Y-83819714D01*
X141896900Y-83831100D01*
X138533386Y-83831100D01*
X138517513Y-83829347D01*
X138517486Y-83829637D01*
X138509593Y-83828890D01*
X138441281Y-83831038D01*
X138437323Y-83831100D01*
X138409323Y-83831100D01*
X138405282Y-83831610D01*
X138393465Y-83832540D01*
X138349109Y-83833934D01*
X138349101Y-83833936D01*
X138329554Y-83839614D01*
X138310204Y-83843621D01*
X138290015Y-83846172D01*
X138248751Y-83862508D01*
X138237528Y-83866350D01*
X138194923Y-83878729D01*
X138194915Y-83878732D01*
X138177394Y-83889093D01*
X138159654Y-83897784D01*
X138140722Y-83905281D01*
X138104823Y-83931362D01*
X138094909Y-83937875D01*
X138056710Y-83960467D01*
X138042321Y-83974856D01*
X138027297Y-83987688D01*
X138010825Y-83999656D01*
X137982537Y-84033850D01*
X137974550Y-84042627D01*
X137744596Y-84272582D01*
X137682283Y-84306607D01*
X137611468Y-84301543D01*
X137554632Y-84258996D01*
X137529821Y-84192476D01*
X137529500Y-84183487D01*
X137529500Y-83693367D01*
X137529499Y-83693350D01*
X137522990Y-83632803D01*
X137522988Y-83632795D01*
X137471889Y-83495797D01*
X137471887Y-83495792D01*
X137384261Y-83378738D01*
X137267207Y-83291112D01*
X137267202Y-83291110D01*
X137130204Y-83240011D01*
X137130196Y-83240009D01*
X137069649Y-83233500D01*
X137069638Y-83233500D01*
X135472362Y-83233500D01*
X135472350Y-83233500D01*
X135411803Y-83240009D01*
X135411795Y-83240011D01*
X135274797Y-83291110D01*
X135274792Y-83291112D01*
X135157738Y-83378738D01*
X135070112Y-83495792D01*
X135070110Y-83495797D01*
X135019011Y-83632795D01*
X135019009Y-83632803D01*
X135012500Y-83693350D01*
X135012500Y-84802405D01*
X134992498Y-84870526D01*
X134975595Y-84891500D01*
X134484300Y-85382795D01*
X134421988Y-85416821D01*
X134395205Y-85419700D01*
X134084929Y-85419700D01*
X134016808Y-85399698D01*
X133970315Y-85346042D01*
X133960211Y-85275768D01*
X133977101Y-85228515D01*
X133977352Y-85228100D01*
X134047227Y-85112513D01*
X134098413Y-84948249D01*
X134104900Y-84876865D01*
X134104899Y-84362336D01*
X134098413Y-84290951D01*
X134047227Y-84126687D01*
X133958216Y-83979445D01*
X133958215Y-83979444D01*
X133958211Y-83979439D01*
X133862467Y-83883695D01*
X133828441Y-83821383D01*
X133833506Y-83750568D01*
X133862467Y-83705505D01*
X133958211Y-83609760D01*
X133958216Y-83609755D01*
X134047227Y-83462513D01*
X134098413Y-83298249D01*
X134104900Y-83226865D01*
X134104899Y-82712336D01*
X134098413Y-82640951D01*
X134047227Y-82476687D01*
X133958216Y-82329445D01*
X133958215Y-82329444D01*
X133958211Y-82329439D01*
X133927767Y-82298995D01*
X133893741Y-82236683D01*
X133898806Y-82165868D01*
X133941353Y-82109032D01*
X134007873Y-82084221D01*
X134016862Y-82083900D01*
X134224632Y-82083900D01*
X134224638Y-82083900D01*
X134224645Y-82083899D01*
X134224649Y-82083899D01*
X134285196Y-82077390D01*
X134285197Y-82077389D01*
X134285201Y-82077389D01*
X134316966Y-82065540D01*
X134387779Y-82060474D01*
X134405025Y-82065537D01*
X134436799Y-82077389D01*
X134436801Y-82077389D01*
X134436803Y-82077390D01*
X134497350Y-82083899D01*
X134497355Y-82083899D01*
X134497362Y-82083900D01*
X134497368Y-82083900D01*
X135494632Y-82083900D01*
X135494638Y-82083900D01*
X135494645Y-82083899D01*
X135494649Y-82083899D01*
X135555196Y-82077390D01*
X135555197Y-82077389D01*
X135555201Y-82077389D01*
X135586966Y-82065540D01*
X135657779Y-82060474D01*
X135675025Y-82065537D01*
X135706799Y-82077389D01*
X135706801Y-82077389D01*
X135706803Y-82077390D01*
X135767350Y-82083899D01*
X135767355Y-82083899D01*
X135767362Y-82083900D01*
X135767368Y-82083900D01*
X136764632Y-82083900D01*
X136764638Y-82083900D01*
X136764645Y-82083899D01*
X136764649Y-82083899D01*
X136825196Y-82077390D01*
X136825197Y-82077389D01*
X136825201Y-82077389D01*
X136856966Y-82065540D01*
X136927779Y-82060474D01*
X136945025Y-82065537D01*
X136976799Y-82077389D01*
X136976801Y-82077389D01*
X136976803Y-82077390D01*
X137037350Y-82083899D01*
X137037355Y-82083899D01*
X137037362Y-82083900D01*
X137037368Y-82083900D01*
X138034632Y-82083900D01*
X138034638Y-82083900D01*
X138034645Y-82083899D01*
X138034649Y-82083899D01*
X138095196Y-82077390D01*
X138095197Y-82077389D01*
X138095201Y-82077389D01*
X138126966Y-82065540D01*
X138197779Y-82060474D01*
X138215025Y-82065537D01*
X138246799Y-82077389D01*
X138246801Y-82077389D01*
X138246803Y-82077390D01*
X138307350Y-82083899D01*
X138307355Y-82083899D01*
X138307362Y-82083900D01*
X138307368Y-82083900D01*
X139304632Y-82083900D01*
X139304638Y-82083900D01*
X139304645Y-82083899D01*
X139304649Y-82083899D01*
X139365196Y-82077390D01*
X139365197Y-82077389D01*
X139365201Y-82077389D01*
X139396966Y-82065540D01*
X139467779Y-82060474D01*
X139485025Y-82065537D01*
X139516799Y-82077389D01*
X139516801Y-82077389D01*
X139516803Y-82077390D01*
X139577350Y-82083899D01*
X139577355Y-82083899D01*
X139577362Y-82083900D01*
X139577368Y-82083900D01*
X140574632Y-82083900D01*
X140574638Y-82083900D01*
X140574645Y-82083899D01*
X140574649Y-82083899D01*
X140635196Y-82077390D01*
X140635196Y-82077389D01*
X140635201Y-82077389D01*
X140667683Y-82065273D01*
X140738494Y-82060208D01*
X140755746Y-82065273D01*
X140786902Y-82076893D01*
X140786906Y-82076894D01*
X140847402Y-82083399D01*
X140847415Y-82083400D01*
X141092000Y-82083400D01*
X141092000Y-81079400D01*
X141600000Y-81079400D01*
X141600000Y-82083400D01*
X141844585Y-82083400D01*
X141844597Y-82083399D01*
X141905093Y-82076894D01*
X142041964Y-82025844D01*
X142041965Y-82025844D01*
X142158904Y-81938304D01*
X142246444Y-81821365D01*
X142246444Y-81821364D01*
X142297494Y-81684493D01*
X142303999Y-81623997D01*
X142304000Y-81623985D01*
X142304000Y-81079400D01*
X141600000Y-81079400D01*
X141092000Y-81079400D01*
X141092000Y-79567400D01*
X141600000Y-79567400D01*
X141600000Y-80571400D01*
X142304000Y-80571400D01*
X142304000Y-80026814D01*
X142303999Y-80026802D01*
X142297494Y-79966306D01*
X142246444Y-79829435D01*
X142246444Y-79829434D01*
X142158904Y-79712495D01*
X142041965Y-79624955D01*
X141905093Y-79573905D01*
X141844597Y-79567400D01*
X141600000Y-79567400D01*
X141092000Y-79567400D01*
X140973236Y-79567400D01*
X140905115Y-79547398D01*
X140858622Y-79493742D01*
X140848518Y-79423468D01*
X140864117Y-79378400D01*
X140864406Y-79377900D01*
X140915527Y-79289356D01*
X140974542Y-79107728D01*
X140994504Y-78917800D01*
X140974542Y-78727872D01*
X140915527Y-78546244D01*
X140820040Y-78380856D01*
X140820038Y-78380854D01*
X140820034Y-78380848D01*
X140692255Y-78238935D01*
X140537752Y-78126682D01*
X140363288Y-78049006D01*
X140176487Y-78009300D01*
X140089259Y-78009300D01*
X140021138Y-77989298D01*
X139974645Y-77935642D01*
X139964541Y-77865368D01*
X139980140Y-77820300D01*
X139983941Y-77813717D01*
X140026527Y-77739956D01*
X140085542Y-77558328D01*
X140105504Y-77368400D01*
X140085542Y-77178472D01*
X140026527Y-76996844D01*
X139931040Y-76831456D01*
X139931038Y-76831454D01*
X139931034Y-76831448D01*
X139803255Y-76689535D01*
X139648752Y-76577282D01*
X139474288Y-76499606D01*
X139287487Y-76459900D01*
X139096513Y-76459900D01*
X138909711Y-76499606D01*
X138735247Y-76577282D01*
X138580744Y-76689535D01*
X138452965Y-76831448D01*
X138452958Y-76831458D01*
X138357476Y-76996838D01*
X138357473Y-76996845D01*
X138298457Y-77178472D01*
X138278496Y-77368400D01*
X138298457Y-77558327D01*
X138320564Y-77626364D01*
X138357473Y-77739956D01*
X138361079Y-77746201D01*
X138452958Y-77905341D01*
X138452965Y-77905351D01*
X138580744Y-78047264D01*
X138580747Y-78047266D01*
X138735248Y-78159518D01*
X138909712Y-78237194D01*
X139096513Y-78276900D01*
X139183741Y-78276900D01*
X139251862Y-78296902D01*
X139298355Y-78350558D01*
X139308459Y-78420832D01*
X139292860Y-78465900D01*
X139246476Y-78546238D01*
X139246473Y-78546245D01*
X139187457Y-78727872D01*
X139167496Y-78917800D01*
X139187457Y-79107727D01*
X139216978Y-79198581D01*
X139246473Y-79289356D01*
X139246476Y-79289361D01*
X139297594Y-79377900D01*
X139314332Y-79446895D01*
X139291112Y-79513987D01*
X139235305Y-79557874D01*
X139188475Y-79566900D01*
X138307350Y-79566900D01*
X138246804Y-79573409D01*
X138246801Y-79573410D01*
X138215030Y-79585260D01*
X138144214Y-79590323D01*
X138126970Y-79585260D01*
X138095198Y-79573410D01*
X138095195Y-79573409D01*
X138034649Y-79566900D01*
X138034638Y-79566900D01*
X137037362Y-79566900D01*
X137037350Y-79566900D01*
X136976804Y-79573409D01*
X136976801Y-79573410D01*
X136945030Y-79585260D01*
X136874214Y-79590323D01*
X136856970Y-79585260D01*
X136825198Y-79573410D01*
X136825195Y-79573409D01*
X136764649Y-79566900D01*
X136764638Y-79566900D01*
X135767362Y-79566900D01*
X135767350Y-79566900D01*
X135706804Y-79573409D01*
X135706801Y-79573410D01*
X135675030Y-79585260D01*
X135604214Y-79590323D01*
X135586970Y-79585260D01*
X135555198Y-79573410D01*
X135555195Y-79573409D01*
X135494649Y-79566900D01*
X135494638Y-79566900D01*
X134801325Y-79566900D01*
X134733204Y-79546898D01*
X134686711Y-79493242D01*
X134676607Y-79422968D01*
X134692206Y-79377900D01*
X134726327Y-79318800D01*
X134743327Y-79289356D01*
X134802342Y-79107728D01*
X134822304Y-78917800D01*
X134802342Y-78727872D01*
X134743327Y-78546244D01*
X134647840Y-78380856D01*
X134647838Y-78380854D01*
X134647834Y-78380848D01*
X134520055Y-78238935D01*
X134365552Y-78126682D01*
X134191088Y-78049006D01*
X134004287Y-78009300D01*
X133813313Y-78009300D01*
X133626511Y-78049006D01*
X133452047Y-78126682D01*
X133297544Y-78238935D01*
X133169765Y-78380848D01*
X133169758Y-78380858D01*
X133074276Y-78546238D01*
X133074273Y-78546245D01*
X133015257Y-78727872D01*
X132995296Y-78917800D01*
X133015257Y-79107727D01*
X133044778Y-79198581D01*
X133074273Y-79289356D01*
X133074276Y-79289361D01*
X133129025Y-79384190D01*
X133145763Y-79453186D01*
X133122542Y-79520277D01*
X133066735Y-79564164D01*
X133006439Y-79572468D01*
X132954652Y-79566901D01*
X132954643Y-79566900D01*
X132954638Y-79566900D01*
X131957362Y-79566900D01*
X131957350Y-79566900D01*
X131896804Y-79573409D01*
X131896801Y-79573410D01*
X131865030Y-79585260D01*
X131794214Y-79590323D01*
X131776970Y-79585260D01*
X131745198Y-79573410D01*
X131745195Y-79573409D01*
X131684649Y-79566900D01*
X131684638Y-79566900D01*
X130687362Y-79566900D01*
X130687350Y-79566900D01*
X130626804Y-79573409D01*
X130626801Y-79573410D01*
X130595030Y-79585260D01*
X130524214Y-79590323D01*
X130506970Y-79585260D01*
X130475198Y-79573410D01*
X130475195Y-79573409D01*
X130414649Y-79566900D01*
X130414638Y-79566900D01*
X129417362Y-79566900D01*
X129417350Y-79566900D01*
X129356803Y-79573409D01*
X129356795Y-79573411D01*
X129219797Y-79624510D01*
X129219792Y-79624512D01*
X129102738Y-79712138D01*
X129015112Y-79829192D01*
X129015110Y-79829197D01*
X128964011Y-79966195D01*
X128964009Y-79966203D01*
X128957500Y-80026750D01*
X128957500Y-81624049D01*
X128964009Y-81684596D01*
X128964011Y-81684604D01*
X129015110Y-81821602D01*
X129015112Y-81821607D01*
X129102738Y-81938661D01*
X129219792Y-82026287D01*
X129219794Y-82026288D01*
X129219796Y-82026289D01*
X129278875Y-82048324D01*
X129356795Y-82077388D01*
X129356803Y-82077390D01*
X129417350Y-82083899D01*
X129417355Y-82083899D01*
X129417362Y-82083900D01*
X129580780Y-82083900D01*
X129648901Y-82103902D01*
X129695394Y-82157558D01*
X129705498Y-82227832D01*
X129676004Y-82292412D01*
X129674416Y-82294210D01*
X129549765Y-82432648D01*
X129549758Y-82432658D01*
X129450971Y-82603763D01*
X129448888Y-82602560D01*
X129409986Y-82648320D01*
X129342057Y-82668962D01*
X129273750Y-82649603D01*
X129226754Y-82596387D01*
X129221037Y-82581905D01*
X129180727Y-82457844D01*
X129085240Y-82292456D01*
X129085238Y-82292454D01*
X129085234Y-82292448D01*
X128957455Y-82150535D01*
X128802952Y-82038282D01*
X128628488Y-81960606D01*
X128441687Y-81920900D01*
X128250713Y-81920900D01*
X128063911Y-81960606D01*
X127889447Y-82038282D01*
X127734944Y-82150535D01*
X127607165Y-82292448D01*
X127607158Y-82292458D01*
X127526215Y-82432656D01*
X127511673Y-82457844D01*
X127505550Y-82476688D01*
X127452657Y-82639472D01*
X127432696Y-82829400D01*
X127452657Y-83019329D01*
X127468655Y-83068564D01*
X127470682Y-83139532D01*
X127434020Y-83200330D01*
X127370307Y-83231655D01*
X127348822Y-83233500D01*
X127318950Y-83233500D01*
X127258403Y-83240009D01*
X127258395Y-83240011D01*
X127121397Y-83291110D01*
X127121392Y-83291112D01*
X127004338Y-83378738D01*
X126916712Y-83495792D01*
X126916710Y-83495797D01*
X126865611Y-83632795D01*
X126865609Y-83632803D01*
X126859100Y-83693350D01*
X126859100Y-85294012D01*
X126857823Y-85294012D01*
X126842664Y-85358081D01*
X126791560Y-85407364D01*
X126733190Y-85421700D01*
X126476395Y-85421700D01*
X126408274Y-85401698D01*
X126387300Y-85384795D01*
X126337516Y-85335011D01*
X126303490Y-85272699D01*
X126300611Y-85245916D01*
X126300611Y-80659900D01*
X126320613Y-80591779D01*
X126374269Y-80545286D01*
X126426611Y-80533900D01*
X127684632Y-80533900D01*
X127684638Y-80533900D01*
X127684645Y-80533899D01*
X127684649Y-80533899D01*
X127745196Y-80527390D01*
X127745199Y-80527389D01*
X127745201Y-80527389D01*
X127882204Y-80476289D01*
X127999261Y-80388661D01*
X128086889Y-80271604D01*
X128137989Y-80134601D01*
X128144500Y-80074038D01*
X128144500Y-79076762D01*
X128137990Y-79016204D01*
X128137990Y-79016203D01*
X128137989Y-79016201D01*
X128137989Y-79016199D01*
X128126140Y-78984433D01*
X128121074Y-78913621D01*
X128126137Y-78896374D01*
X128137989Y-78864601D01*
X128141123Y-78835456D01*
X128144499Y-78804049D01*
X128144500Y-78804032D01*
X128144500Y-77806767D01*
X128144499Y-77806750D01*
X128137990Y-77746203D01*
X128137989Y-77746201D01*
X128137989Y-77746199D01*
X128126140Y-77714433D01*
X128121074Y-77643621D01*
X128126137Y-77626374D01*
X128137989Y-77594601D01*
X128144500Y-77534038D01*
X128144500Y-76735730D01*
X128164502Y-76667609D01*
X128218158Y-76621116D01*
X128288432Y-76611012D01*
X128296697Y-76612484D01*
X128479308Y-76651300D01*
X128479313Y-76651300D01*
X128670287Y-76651300D01*
X128857088Y-76611594D01*
X129031552Y-76533918D01*
X129186053Y-76421666D01*
X129211829Y-76393039D01*
X129313834Y-76279751D01*
X129313835Y-76279749D01*
X129313840Y-76279744D01*
X129409327Y-76114356D01*
X129468342Y-75932728D01*
X129488304Y-75742800D01*
X129468342Y-75552872D01*
X129409327Y-75371244D01*
X129313840Y-75205856D01*
X129285838Y-75174757D01*
X129255122Y-75110750D01*
X129263886Y-75040296D01*
X129306328Y-74989387D01*
X129305610Y-74988399D01*
X129310952Y-74984518D01*
X129465453Y-74872266D01*
X129465455Y-74872264D01*
X129593236Y-74730349D01*
X129593237Y-74730346D01*
X129593240Y-74730344D01*
X129604773Y-74710367D01*
X129656153Y-74661374D01*
X129725866Y-74647935D01*
X129791778Y-74674320D01*
X129802988Y-74684270D01*
X131237725Y-76119007D01*
X131271751Y-76181319D01*
X131266686Y-76252134D01*
X131242269Y-76292409D01*
X131216038Y-76321542D01*
X131216037Y-76321544D01*
X131120555Y-76486925D01*
X131120552Y-76486932D01*
X131061536Y-76668559D01*
X131041575Y-76858487D01*
X131061536Y-77048414D01*
X131081769Y-77110682D01*
X131120552Y-77230043D01*
X131120555Y-77230048D01*
X131216037Y-77395428D01*
X131216044Y-77395438D01*
X131343823Y-77537351D01*
X131343826Y-77537353D01*
X131498327Y-77649605D01*
X131672791Y-77727281D01*
X131859592Y-77766987D01*
X132050566Y-77766987D01*
X132237367Y-77727281D01*
X132411831Y-77649605D01*
X132566332Y-77537353D01*
X132572733Y-77530244D01*
X132694113Y-77395438D01*
X132694114Y-77395436D01*
X132694119Y-77395431D01*
X132789606Y-77230043D01*
X132848621Y-77048415D01*
X132868583Y-76858487D01*
X132848621Y-76668559D01*
X132789606Y-76486931D01*
X132720499Y-76367235D01*
X132694121Y-76321546D01*
X132694120Y-76321545D01*
X132694119Y-76321543D01*
X132620942Y-76240271D01*
X132590225Y-76176263D01*
X132588579Y-76155961D01*
X132588579Y-76024311D01*
X132590328Y-76008469D01*
X132590035Y-76008442D01*
X132590779Y-76000556D01*
X132590781Y-76000549D01*
X132588688Y-75933953D01*
X132588641Y-75932457D01*
X132588579Y-75928499D01*
X132588579Y-75900607D01*
X132588579Y-75900601D01*
X132588072Y-75896592D01*
X132587141Y-75884763D01*
X132586791Y-75873614D01*
X132585753Y-75840568D01*
X132580096Y-75821099D01*
X132576091Y-75801755D01*
X132573553Y-75781660D01*
X132557275Y-75740549D01*
X132553435Y-75729334D01*
X132541097Y-75686864D01*
X132530785Y-75669427D01*
X132522089Y-75651678D01*
X132514631Y-75632840D01*
X132488631Y-75597055D01*
X132482138Y-75587171D01*
X132459621Y-75549095D01*
X132445293Y-75534767D01*
X132432463Y-75519746D01*
X132420551Y-75503350D01*
X132420548Y-75503348D01*
X132420548Y-75503347D01*
X132386473Y-75475157D01*
X132377695Y-75467169D01*
X129198927Y-72288400D01*
X130175896Y-72288400D01*
X130195857Y-72478327D01*
X130217964Y-72546364D01*
X130254873Y-72659956D01*
X130258479Y-72666201D01*
X130350358Y-72825341D01*
X130350365Y-72825351D01*
X130478144Y-72967264D01*
X130478147Y-72967266D01*
X130632648Y-73079518D01*
X130807112Y-73157194D01*
X130993913Y-73196900D01*
X131184887Y-73196900D01*
X131371688Y-73157194D01*
X131546152Y-73079518D01*
X131700653Y-72967266D01*
X131711062Y-72955706D01*
X131828434Y-72825351D01*
X131828435Y-72825349D01*
X131828440Y-72825344D01*
X131923927Y-72659956D01*
X131982942Y-72478328D01*
X132002904Y-72288400D01*
X131982942Y-72098472D01*
X131923927Y-71916844D01*
X131828440Y-71751456D01*
X131828438Y-71751454D01*
X131828434Y-71751448D01*
X131700655Y-71609535D01*
X131546152Y-71497282D01*
X131371688Y-71419606D01*
X131184887Y-71379900D01*
X130993913Y-71379900D01*
X130807111Y-71419606D01*
X130632647Y-71497282D01*
X130478144Y-71609535D01*
X130350365Y-71751448D01*
X130350358Y-71751458D01*
X130254876Y-71916838D01*
X130254873Y-71916845D01*
X130195857Y-72098472D01*
X130175896Y-72288400D01*
X129198927Y-72288400D01*
X128472266Y-71561739D01*
X128462301Y-71549301D01*
X128462074Y-71549490D01*
X128457023Y-71543384D01*
X128457022Y-71543382D01*
X128407370Y-71496756D01*
X128404527Y-71494000D01*
X128384799Y-71474271D01*
X128384793Y-71474266D01*
X128381589Y-71471780D01*
X128372578Y-71464083D01*
X128340347Y-71433817D01*
X128340341Y-71433813D01*
X128322585Y-71424051D01*
X128306069Y-71413202D01*
X128290063Y-71400786D01*
X128249486Y-71383227D01*
X128238828Y-71378005D01*
X128203624Y-71358652D01*
X128153565Y-71308308D01*
X128138671Y-71238891D01*
X128139046Y-71234768D01*
X128144499Y-71184047D01*
X128144500Y-71184032D01*
X128144500Y-71039400D01*
X134728000Y-71039400D01*
X134728000Y-72733997D01*
X134734505Y-72794493D01*
X134785555Y-72931364D01*
X134785555Y-72931365D01*
X134873095Y-73048304D01*
X134990034Y-73135844D01*
X135126906Y-73186894D01*
X135187402Y-73193399D01*
X135187415Y-73193400D01*
X136882000Y-73193400D01*
X137390000Y-73193400D01*
X139084585Y-73193400D01*
X139084597Y-73193399D01*
X139145093Y-73186894D01*
X139281964Y-73135844D01*
X139281965Y-73135844D01*
X139398904Y-73048304D01*
X139486444Y-72931365D01*
X139486444Y-72931364D01*
X139537494Y-72794493D01*
X139543999Y-72733997D01*
X139544000Y-72733985D01*
X139544000Y-71039400D01*
X138790000Y-71039400D01*
X138790000Y-71380191D01*
X138806114Y-71396305D01*
X138840140Y-71458617D01*
X138835075Y-71529432D01*
X138806114Y-71574495D01*
X138790000Y-71590608D01*
X138790000Y-72313400D01*
X138769998Y-72381521D01*
X138716342Y-72428014D01*
X138664000Y-72439400D01*
X137941208Y-72439400D01*
X137925095Y-72455514D01*
X137862783Y-72489540D01*
X137791968Y-72484475D01*
X137746905Y-72455514D01*
X137730791Y-72439400D01*
X137390000Y-72439400D01*
X137390000Y-73193400D01*
X136882000Y-73193400D01*
X136882000Y-72439400D01*
X136541208Y-72439400D01*
X136525095Y-72455514D01*
X136462783Y-72489540D01*
X136391968Y-72484475D01*
X136346905Y-72455514D01*
X136330791Y-72439400D01*
X135608000Y-72439400D01*
X135539879Y-72419398D01*
X135493386Y-72365742D01*
X135482000Y-72313400D01*
X135482000Y-72217892D01*
X136336000Y-72217892D01*
X136374197Y-72270465D01*
X136420162Y-72285400D01*
X136451838Y-72285400D01*
X136497803Y-72270465D01*
X136536000Y-72217892D01*
X137736000Y-72217892D01*
X137774197Y-72270465D01*
X137820162Y-72285400D01*
X137851838Y-72285400D01*
X137897803Y-72270465D01*
X137936000Y-72217892D01*
X137936000Y-72152908D01*
X137897803Y-72100335D01*
X137851838Y-72085400D01*
X137820162Y-72085400D01*
X137774197Y-72100335D01*
X137736000Y-72152908D01*
X137736000Y-72217892D01*
X136536000Y-72217892D01*
X136536000Y-72152908D01*
X136497803Y-72100335D01*
X136451838Y-72085400D01*
X136420162Y-72085400D01*
X136374197Y-72100335D01*
X136336000Y-72152908D01*
X136336000Y-72217892D01*
X135482000Y-72217892D01*
X135482000Y-71590610D01*
X135465886Y-71574497D01*
X135434976Y-71517892D01*
X135636000Y-71517892D01*
X135674197Y-71570465D01*
X135720162Y-71585400D01*
X135751838Y-71585400D01*
X135797803Y-71570465D01*
X135836000Y-71517892D01*
X135836000Y-71485401D01*
X136095210Y-71485401D01*
X136435999Y-71826190D01*
X136436001Y-71826190D01*
X136744299Y-71517892D01*
X137061000Y-71517892D01*
X137099197Y-71570465D01*
X137145162Y-71585400D01*
X137176838Y-71585400D01*
X137222803Y-71570465D01*
X137261000Y-71517892D01*
X137261000Y-71485401D01*
X137520210Y-71485401D01*
X137848499Y-71813690D01*
X137848501Y-71813690D01*
X138144299Y-71517892D01*
X138436000Y-71517892D01*
X138474197Y-71570465D01*
X138520162Y-71585400D01*
X138551838Y-71585400D01*
X138597803Y-71570465D01*
X138636000Y-71517892D01*
X138636000Y-71452908D01*
X138597803Y-71400335D01*
X138551838Y-71385400D01*
X138520162Y-71385400D01*
X138474197Y-71400335D01*
X138436000Y-71452908D01*
X138436000Y-71517892D01*
X138144299Y-71517892D01*
X138176790Y-71485401D01*
X138176790Y-71485399D01*
X137848501Y-71157110D01*
X137848499Y-71157110D01*
X137520210Y-71485399D01*
X137520210Y-71485401D01*
X137261000Y-71485401D01*
X137261000Y-71452908D01*
X137222803Y-71400335D01*
X137176838Y-71385400D01*
X137145162Y-71385400D01*
X137099197Y-71400335D01*
X137061000Y-71452908D01*
X137061000Y-71517892D01*
X136744299Y-71517892D01*
X136776790Y-71485401D01*
X136776790Y-71485399D01*
X136436001Y-71144610D01*
X136435999Y-71144610D01*
X136095210Y-71485399D01*
X136095210Y-71485401D01*
X135836000Y-71485401D01*
X135836000Y-71452908D01*
X135797803Y-71400335D01*
X135751838Y-71385400D01*
X135720162Y-71385400D01*
X135674197Y-71400335D01*
X135636000Y-71452908D01*
X135636000Y-71517892D01*
X135434976Y-71517892D01*
X135431860Y-71512185D01*
X135436924Y-71441369D01*
X135465886Y-71396303D01*
X135482000Y-71380189D01*
X135482000Y-71039400D01*
X134728000Y-71039400D01*
X128144500Y-71039400D01*
X128144500Y-70817892D01*
X136336000Y-70817892D01*
X136374197Y-70870465D01*
X136420162Y-70885400D01*
X136451838Y-70885400D01*
X136497803Y-70870465D01*
X136536000Y-70817892D01*
X137736000Y-70817892D01*
X137774197Y-70870465D01*
X137820162Y-70885400D01*
X137851838Y-70885400D01*
X137897803Y-70870465D01*
X137936000Y-70817892D01*
X137936000Y-70752908D01*
X137897803Y-70700335D01*
X137851838Y-70685400D01*
X137820162Y-70685400D01*
X137774197Y-70700335D01*
X137736000Y-70752908D01*
X137736000Y-70817892D01*
X136536000Y-70817892D01*
X136536000Y-70752908D01*
X136497803Y-70700335D01*
X136451838Y-70685400D01*
X136420162Y-70685400D01*
X136374197Y-70700335D01*
X136336000Y-70752908D01*
X136336000Y-70817892D01*
X128144500Y-70817892D01*
X128144500Y-70531400D01*
X134728000Y-70531400D01*
X135482000Y-70531400D01*
X135482000Y-70190610D01*
X135465886Y-70174497D01*
X135434976Y-70117892D01*
X135636000Y-70117892D01*
X135674197Y-70170465D01*
X135720162Y-70185400D01*
X135751838Y-70185400D01*
X135797803Y-70170465D01*
X135836000Y-70117892D01*
X135836000Y-70085401D01*
X136095210Y-70085401D01*
X136435999Y-70426190D01*
X136436001Y-70426190D01*
X136744299Y-70117892D01*
X137061000Y-70117892D01*
X137099197Y-70170465D01*
X137145162Y-70185400D01*
X137176838Y-70185400D01*
X137222803Y-70170465D01*
X137261000Y-70117892D01*
X137261000Y-70085401D01*
X137520210Y-70085401D01*
X137848499Y-70413690D01*
X137848501Y-70413690D01*
X138144299Y-70117892D01*
X138436000Y-70117892D01*
X138474197Y-70170465D01*
X138520162Y-70185400D01*
X138551838Y-70185400D01*
X138597803Y-70170465D01*
X138636000Y-70117892D01*
X138636000Y-70052908D01*
X138597803Y-70000335D01*
X138551838Y-69985400D01*
X138520162Y-69985400D01*
X138474197Y-70000335D01*
X138436000Y-70052908D01*
X138436000Y-70117892D01*
X138144299Y-70117892D01*
X138176790Y-70085401D01*
X138176790Y-70085399D01*
X137848501Y-69757110D01*
X137848499Y-69757110D01*
X137520210Y-70085399D01*
X137520210Y-70085401D01*
X137261000Y-70085401D01*
X137261000Y-70052908D01*
X137222803Y-70000335D01*
X137176838Y-69985400D01*
X137145162Y-69985400D01*
X137099197Y-70000335D01*
X137061000Y-70052908D01*
X137061000Y-70117892D01*
X136744299Y-70117892D01*
X136776790Y-70085401D01*
X136776790Y-70085399D01*
X136436001Y-69744610D01*
X136435999Y-69744610D01*
X136095210Y-70085399D01*
X136095210Y-70085401D01*
X135836000Y-70085401D01*
X135836000Y-70052908D01*
X135797803Y-70000335D01*
X135751838Y-69985400D01*
X135720162Y-69985400D01*
X135674197Y-70000335D01*
X135636000Y-70052908D01*
X135636000Y-70117892D01*
X135434976Y-70117892D01*
X135431860Y-70112185D01*
X135436924Y-70041369D01*
X135465886Y-69996303D01*
X135482000Y-69980189D01*
X135482000Y-69417892D01*
X136336000Y-69417892D01*
X136374197Y-69470465D01*
X136420162Y-69485400D01*
X136451838Y-69485400D01*
X136497803Y-69470465D01*
X136536000Y-69417892D01*
X137736000Y-69417892D01*
X137774197Y-69470465D01*
X137820162Y-69485400D01*
X137851838Y-69485400D01*
X137897803Y-69470465D01*
X137936000Y-69417892D01*
X137936000Y-69352908D01*
X137897803Y-69300335D01*
X137851838Y-69285400D01*
X137820162Y-69285400D01*
X137774197Y-69300335D01*
X137736000Y-69352908D01*
X137736000Y-69417892D01*
X136536000Y-69417892D01*
X136536000Y-69352908D01*
X136497803Y-69300335D01*
X136451838Y-69285400D01*
X136420162Y-69285400D01*
X136374197Y-69300335D01*
X136336000Y-69352908D01*
X136336000Y-69417892D01*
X135482000Y-69417892D01*
X135482000Y-69257400D01*
X135502002Y-69189279D01*
X135555658Y-69142786D01*
X135608000Y-69131400D01*
X136330789Y-69131400D01*
X136346903Y-69115286D01*
X136409215Y-69081260D01*
X136480031Y-69086324D01*
X136525097Y-69115286D01*
X136541211Y-69131400D01*
X136882000Y-69131400D01*
X136882000Y-68377400D01*
X137390000Y-68377400D01*
X137390000Y-69131400D01*
X137730789Y-69131400D01*
X137746903Y-69115286D01*
X137809215Y-69081260D01*
X137880031Y-69086324D01*
X137925097Y-69115286D01*
X137941211Y-69131400D01*
X138664000Y-69131400D01*
X138732121Y-69151402D01*
X138778614Y-69205058D01*
X138790000Y-69257400D01*
X138790000Y-69980191D01*
X138806114Y-69996305D01*
X138840140Y-70058617D01*
X138835075Y-70129432D01*
X138806114Y-70174495D01*
X138790000Y-70190608D01*
X138790000Y-70531400D01*
X139544000Y-70531400D01*
X139544000Y-68836814D01*
X139543999Y-68836802D01*
X139537494Y-68776306D01*
X139486444Y-68639435D01*
X139486444Y-68639434D01*
X139398904Y-68522495D01*
X139281965Y-68434955D01*
X139145093Y-68383905D01*
X139084597Y-68377400D01*
X137390000Y-68377400D01*
X136882000Y-68377400D01*
X135187402Y-68377400D01*
X135126906Y-68383905D01*
X134990035Y-68434955D01*
X134990034Y-68434955D01*
X134873095Y-68522495D01*
X134785555Y-68639434D01*
X134785555Y-68639435D01*
X134734505Y-68776306D01*
X134728000Y-68836802D01*
X134728000Y-70531400D01*
X128144500Y-70531400D01*
X128144500Y-70186767D01*
X128144499Y-70186750D01*
X128137990Y-70126203D01*
X128137989Y-70126201D01*
X128137989Y-70126199D01*
X128126140Y-70094433D01*
X128121074Y-70023621D01*
X128126137Y-70006374D01*
X128137989Y-69974601D01*
X128144500Y-69914038D01*
X128144500Y-69024900D01*
X128164502Y-68956779D01*
X128218158Y-68910286D01*
X128270500Y-68898900D01*
X128445159Y-68898900D01*
X128463419Y-68900230D01*
X128469089Y-68901060D01*
X128487389Y-68903741D01*
X128537246Y-68899378D01*
X128548227Y-68898900D01*
X128553775Y-68898900D01*
X128553780Y-68898900D01*
X128584887Y-68895263D01*
X128588489Y-68894895D01*
X128664026Y-68888287D01*
X128664030Y-68888285D01*
X128671218Y-68886802D01*
X128671231Y-68886868D01*
X128678587Y-68885236D01*
X128678572Y-68885171D01*
X128685702Y-68883480D01*
X128685713Y-68883479D01*
X128757000Y-68857532D01*
X128760369Y-68856361D01*
X128832338Y-68832514D01*
X128832347Y-68832508D01*
X128838989Y-68829412D01*
X128839018Y-68829474D01*
X128845803Y-68826189D01*
X128845773Y-68826129D01*
X128852324Y-68822837D01*
X128852332Y-68822835D01*
X128915691Y-68781161D01*
X128918761Y-68779206D01*
X128923463Y-68776306D01*
X128983251Y-68739430D01*
X128983259Y-68739421D01*
X128989008Y-68734877D01*
X128989050Y-68734931D01*
X128994889Y-68730175D01*
X128994846Y-68730123D01*
X129000464Y-68725407D01*
X129000474Y-68725401D01*
X129052545Y-68670207D01*
X129055031Y-68667648D01*
X129952277Y-67770404D01*
X130014589Y-67736379D01*
X130041372Y-67733500D01*
X139183629Y-67733500D01*
X139251750Y-67753502D01*
X139272724Y-67770405D01*
X141538292Y-70035973D01*
X141550265Y-70049827D01*
X141560743Y-70063902D01*
X141564731Y-70069258D01*
X141603074Y-70101431D01*
X141611167Y-70108848D01*
X141615100Y-70112781D01*
X141615103Y-70112783D01*
X141639655Y-70132197D01*
X141642495Y-70134511D01*
X141690150Y-70174497D01*
X141700560Y-70183232D01*
X141700564Y-70183234D01*
X141706695Y-70187267D01*
X141706658Y-70187322D01*
X141713014Y-70191371D01*
X141713049Y-70191315D01*
X141725541Y-70199020D01*
X141724601Y-70200542D01*
X141750680Y-70219830D01*
X141750843Y-70219650D01*
X141752711Y-70221332D01*
X141754430Y-70222603D01*
X141755747Y-70224066D01*
X141910248Y-70336318D01*
X141910251Y-70336319D01*
X141910252Y-70336320D01*
X141926473Y-70343542D01*
X141980570Y-70389521D01*
X142001220Y-70457448D01*
X141981869Y-70525756D01*
X141968863Y-70542959D01*
X141932762Y-70583053D01*
X141932758Y-70583058D01*
X141837276Y-70748438D01*
X141837273Y-70748445D01*
X141778257Y-70930072D01*
X141758296Y-71120000D01*
X141778257Y-71309927D01*
X141806289Y-71396198D01*
X141837273Y-71491556D01*
X141837276Y-71491561D01*
X141932758Y-71656941D01*
X141932765Y-71656951D01*
X142060544Y-71798864D01*
X142060547Y-71798866D01*
X142215048Y-71911118D01*
X142389512Y-71988794D01*
X142576313Y-72028500D01*
X142767287Y-72028500D01*
X142954088Y-71988794D01*
X142954092Y-71988792D01*
X142954093Y-71988792D01*
X142960368Y-71986754D01*
X142961113Y-71989048D01*
X143020605Y-71981066D01*
X143084905Y-72011166D01*
X143122725Y-72071250D01*
X143127500Y-72105609D01*
X143127500Y-72454049D01*
X143134009Y-72514595D01*
X143134010Y-72514598D01*
X143145860Y-72546370D01*
X143150923Y-72617186D01*
X143145860Y-72634430D01*
X143134010Y-72666201D01*
X143134009Y-72666204D01*
X143127500Y-72726750D01*
X143127500Y-73724049D01*
X143134009Y-73784595D01*
X143134010Y-73784598D01*
X143145860Y-73816370D01*
X143150923Y-73887186D01*
X143145860Y-73904430D01*
X143134010Y-73936201D01*
X143134009Y-73936204D01*
X143127500Y-73996750D01*
X143127500Y-74994049D01*
X143134009Y-75054595D01*
X143134010Y-75054598D01*
X143145860Y-75086370D01*
X143150923Y-75157186D01*
X143145860Y-75174430D01*
X143134010Y-75206201D01*
X143134009Y-75206204D01*
X143127500Y-75266750D01*
X143127500Y-76264049D01*
X143134009Y-76324595D01*
X143134010Y-76324598D01*
X143145860Y-76356370D01*
X143150923Y-76427186D01*
X143145860Y-76444430D01*
X143134010Y-76476201D01*
X143134009Y-76476204D01*
X143127500Y-76536750D01*
X143127500Y-77534049D01*
X143134009Y-77594595D01*
X143134010Y-77594598D01*
X143145860Y-77626370D01*
X143150923Y-77697186D01*
X143145860Y-77714430D01*
X143134010Y-77746201D01*
X143134009Y-77746204D01*
X143127500Y-77806750D01*
X143127500Y-78804049D01*
X143134009Y-78864595D01*
X143134010Y-78864598D01*
X143134010Y-78864600D01*
X143134011Y-78864601D01*
X143145858Y-78896364D01*
X143145860Y-78896370D01*
X143150923Y-78967186D01*
X143145860Y-78984430D01*
X143134010Y-79016201D01*
X143134009Y-79016204D01*
X143127500Y-79076750D01*
X143127500Y-80074049D01*
X143134009Y-80134596D01*
X143134011Y-80134604D01*
X143185110Y-80271602D01*
X143185112Y-80271607D01*
X143272738Y-80388661D01*
X143389792Y-80476287D01*
X143389794Y-80476288D01*
X143389796Y-80476289D01*
X143448875Y-80498324D01*
X143526795Y-80527388D01*
X143526803Y-80527390D01*
X143587350Y-80533899D01*
X143587355Y-80533899D01*
X143587362Y-80533900D01*
X143587368Y-80533900D01*
X145184632Y-80533900D01*
X145184638Y-80533900D01*
X145184645Y-80533899D01*
X145184649Y-80533899D01*
X145245196Y-80527390D01*
X145245199Y-80527389D01*
X145245201Y-80527389D01*
X145382204Y-80476289D01*
X145499261Y-80388661D01*
X145586889Y-80271604D01*
X145637989Y-80134601D01*
X145644500Y-80074038D01*
X145644500Y-79076762D01*
X145637990Y-79016204D01*
X145637990Y-79016203D01*
X145637989Y-79016201D01*
X145637989Y-79016199D01*
X145626140Y-78984433D01*
X145621074Y-78913621D01*
X145626137Y-78896374D01*
X145637989Y-78864601D01*
X145641123Y-78835456D01*
X145644499Y-78804049D01*
X145644500Y-78804032D01*
X145644500Y-77806767D01*
X145644499Y-77806750D01*
X145637990Y-77746203D01*
X145637989Y-77746201D01*
X145637989Y-77746199D01*
X145626140Y-77714433D01*
X145621074Y-77643621D01*
X145626137Y-77626374D01*
X145637989Y-77594601D01*
X145644500Y-77534038D01*
X145644500Y-77032800D01*
X147074044Y-77032800D01*
X147090388Y-77230043D01*
X147092637Y-77257175D01*
X147147902Y-77475412D01*
X147147903Y-77475413D01*
X147147904Y-77475416D01*
X147214118Y-77626370D01*
X147238341Y-77681593D01*
X147361475Y-77870065D01*
X147361479Y-77870070D01*
X147513962Y-78035708D01*
X147562561Y-78073534D01*
X147691624Y-78173989D01*
X147725405Y-78192270D01*
X147775796Y-78242282D01*
X147791149Y-78311599D01*
X147766589Y-78378212D01*
X147725409Y-78413896D01*
X147691904Y-78432028D01*
X147691898Y-78432032D01*
X147514297Y-78570265D01*
X147361874Y-78735841D01*
X147238780Y-78924251D01*
X147148379Y-79130343D01*
X147148376Y-79130350D01*
X147100655Y-79318799D01*
X147100656Y-79318800D01*
X148006084Y-79318800D01*
X147977707Y-79362956D01*
X147937200Y-79500911D01*
X147937200Y-79644689D01*
X147977707Y-79782644D01*
X148006084Y-79826800D01*
X147100655Y-79826800D01*
X147148376Y-80015249D01*
X147148379Y-80015256D01*
X147238780Y-80221348D01*
X147361874Y-80409758D01*
X147514297Y-80575334D01*
X147691898Y-80713567D01*
X147691899Y-80713568D01*
X147889828Y-80820682D01*
X147889830Y-80820683D01*
X148102683Y-80893755D01*
X148102692Y-80893757D01*
X148183200Y-80907191D01*
X148183200Y-80006474D01*
X148294885Y-80057480D01*
X148401437Y-80072800D01*
X148472963Y-80072800D01*
X148579515Y-80057480D01*
X148691200Y-80006474D01*
X148691200Y-80907190D01*
X148771707Y-80893757D01*
X148771716Y-80893755D01*
X148984569Y-80820683D01*
X148984571Y-80820682D01*
X149182500Y-80713568D01*
X149182501Y-80713567D01*
X149360102Y-80575334D01*
X149512525Y-80409758D01*
X149635619Y-80221348D01*
X149726020Y-80015256D01*
X149726023Y-80015249D01*
X149773744Y-79826800D01*
X148868316Y-79826800D01*
X148896693Y-79782644D01*
X148937200Y-79644689D01*
X148937200Y-79500911D01*
X148896693Y-79362956D01*
X148868316Y-79318800D01*
X149773744Y-79318800D01*
X149773744Y-79318799D01*
X149726023Y-79130350D01*
X149726020Y-79130343D01*
X149635619Y-78924251D01*
X149512525Y-78735841D01*
X149360102Y-78570265D01*
X149182501Y-78432032D01*
X149182500Y-78432031D01*
X149148991Y-78413897D01*
X149098601Y-78363883D01*
X149083250Y-78294566D01*
X149107812Y-78227953D01*
X149148990Y-78192272D01*
X149182776Y-78173989D01*
X149360440Y-78035706D01*
X149512922Y-77870068D01*
X149636060Y-77681591D01*
X149726496Y-77475416D01*
X149781764Y-77257168D01*
X149800356Y-77032800D01*
X149781764Y-76808432D01*
X149736947Y-76631455D01*
X149726497Y-76590187D01*
X149726496Y-76590186D01*
X149726496Y-76590184D01*
X149636060Y-76384009D01*
X149617999Y-76356364D01*
X149512924Y-76195534D01*
X149512920Y-76195529D01*
X149360437Y-76029891D01*
X149278582Y-75966181D01*
X149182776Y-75891611D01*
X149149519Y-75873613D01*
X149099129Y-75823602D01*
X149083776Y-75754285D01*
X149108336Y-75687672D01*
X149149520Y-75651986D01*
X149182776Y-75633989D01*
X149360440Y-75495706D01*
X149512922Y-75330068D01*
X149636060Y-75141591D01*
X149726496Y-74935416D01*
X149781764Y-74717168D01*
X149800356Y-74492800D01*
X149781764Y-74268432D01*
X149726496Y-74050184D01*
X149636060Y-73844009D01*
X149597243Y-73784595D01*
X149512924Y-73655534D01*
X149512920Y-73655529D01*
X149360437Y-73489891D01*
X149247877Y-73402282D01*
X149182776Y-73351611D01*
X149149519Y-73333613D01*
X149099129Y-73283602D01*
X149083776Y-73214285D01*
X149108336Y-73147672D01*
X149149520Y-73111986D01*
X149182776Y-73093989D01*
X149360440Y-72955706D01*
X149512922Y-72790068D01*
X149636060Y-72601591D01*
X149726496Y-72395416D01*
X149781764Y-72177168D01*
X149800356Y-71952800D01*
X149781764Y-71728432D01*
X149726496Y-71510184D01*
X149636060Y-71304009D01*
X149594698Y-71240699D01*
X149512924Y-71115534D01*
X149512920Y-71115529D01*
X149360437Y-70949891D01*
X149258391Y-70870465D01*
X149182776Y-70811611D01*
X149170443Y-70804937D01*
X149149520Y-70793614D01*
X149099129Y-70743602D01*
X149083776Y-70674285D01*
X149108336Y-70607672D01*
X149149520Y-70571986D01*
X149182776Y-70553989D01*
X149360440Y-70415706D01*
X149512922Y-70250068D01*
X149636060Y-70061591D01*
X149726496Y-69855416D01*
X149781764Y-69637168D01*
X149800356Y-69412800D01*
X149781764Y-69188432D01*
X149772387Y-69151402D01*
X149726497Y-68970187D01*
X149726496Y-68970186D01*
X149726496Y-68970184D01*
X149636060Y-68764009D01*
X149592743Y-68697707D01*
X149512924Y-68575534D01*
X149512920Y-68575529D01*
X149360437Y-68409891D01*
X149278582Y-68346181D01*
X149182776Y-68271611D01*
X149149519Y-68253613D01*
X149099129Y-68203602D01*
X149083776Y-68134285D01*
X149108336Y-68067672D01*
X149149520Y-68031986D01*
X149182776Y-68013989D01*
X149360440Y-67875706D01*
X149512922Y-67710068D01*
X149636060Y-67521591D01*
X149726496Y-67315416D01*
X149781764Y-67097168D01*
X149800356Y-66872800D01*
X149781764Y-66648432D01*
X149774770Y-66620815D01*
X149726497Y-66430187D01*
X149726496Y-66430186D01*
X149726496Y-66430184D01*
X149636060Y-66224009D01*
X149616516Y-66194095D01*
X149512924Y-66035534D01*
X149512919Y-66035529D01*
X149369724Y-65879979D01*
X149338303Y-65816314D01*
X149346290Y-65745768D01*
X149391148Y-65690739D01*
X149418383Y-65676589D01*
X149533404Y-65633689D01*
X149650461Y-65546061D01*
X149738089Y-65429004D01*
X149789189Y-65292001D01*
X149792964Y-65256892D01*
X149795699Y-65231449D01*
X149795700Y-65231432D01*
X149795700Y-63434167D01*
X149795699Y-63434150D01*
X149789190Y-63373603D01*
X149789188Y-63373595D01*
X149760124Y-63295675D01*
X149738089Y-63236596D01*
X149738088Y-63236594D01*
X149738087Y-63236592D01*
X149650461Y-63119538D01*
X149533407Y-63031912D01*
X149533402Y-63031910D01*
X149396404Y-62980811D01*
X149396396Y-62980809D01*
X149335849Y-62974300D01*
X149335838Y-62974300D01*
X147538562Y-62974300D01*
X147538550Y-62974300D01*
X147478003Y-62980809D01*
X147477995Y-62980811D01*
X147340997Y-63031910D01*
X147340992Y-63031912D01*
X147223938Y-63119538D01*
X147136312Y-63236592D01*
X147136310Y-63236597D01*
X147085211Y-63373595D01*
X147085209Y-63373603D01*
X147078700Y-63434150D01*
X147078700Y-65231449D01*
X147085209Y-65291996D01*
X147085211Y-65292004D01*
X147136310Y-65429002D01*
X147136312Y-65429007D01*
X147223938Y-65546061D01*
X147340991Y-65633686D01*
X147340992Y-65633686D01*
X147340996Y-65633689D01*
X147456010Y-65676587D01*
X147512842Y-65719132D01*
X147537653Y-65785652D01*
X147522562Y-65855026D01*
X147504675Y-65879979D01*
X147361480Y-66035529D01*
X147361475Y-66035534D01*
X147238341Y-66224006D01*
X147147903Y-66430186D01*
X147147902Y-66430187D01*
X147092637Y-66648424D01*
X147092636Y-66648430D01*
X147092636Y-66648432D01*
X147074044Y-66872800D01*
X147086802Y-67026768D01*
X147092637Y-67097175D01*
X147147902Y-67315412D01*
X147147903Y-67315413D01*
X147147904Y-67315416D01*
X147214118Y-67466370D01*
X147238341Y-67521593D01*
X147361475Y-67710065D01*
X147361479Y-67710070D01*
X147513962Y-67875708D01*
X147568531Y-67918181D01*
X147691624Y-68013989D01*
X147724880Y-68031986D01*
X147775271Y-68082000D01*
X147790623Y-68151316D01*
X147766062Y-68217929D01*
X147724880Y-68253613D01*
X147691626Y-68271610D01*
X147691624Y-68271611D01*
X147513962Y-68409891D01*
X147361479Y-68575529D01*
X147361475Y-68575534D01*
X147238341Y-68764006D01*
X147147903Y-68970186D01*
X147147902Y-68970187D01*
X147092637Y-69188424D01*
X147092636Y-69188430D01*
X147092636Y-69188432D01*
X147089102Y-69231082D01*
X147074044Y-69412800D01*
X147092637Y-69637175D01*
X147147902Y-69855412D01*
X147147903Y-69855413D01*
X147147904Y-69855416D01*
X147238340Y-70061591D01*
X147238341Y-70061593D01*
X147361475Y-70250065D01*
X147361479Y-70250070D01*
X147513962Y-70415708D01*
X147567590Y-70457448D01*
X147691624Y-70553989D01*
X147724880Y-70571986D01*
X147775271Y-70622000D01*
X147790623Y-70691316D01*
X147766062Y-70757929D01*
X147724880Y-70793613D01*
X147691626Y-70811610D01*
X147691624Y-70811611D01*
X147513962Y-70949891D01*
X147361479Y-71115529D01*
X147361475Y-71115534D01*
X147238341Y-71304006D01*
X147147903Y-71510186D01*
X147147902Y-71510187D01*
X147092637Y-71728424D01*
X147092636Y-71728430D01*
X147092636Y-71728432D01*
X147074044Y-71952800D01*
X147086706Y-72105609D01*
X147092637Y-72177175D01*
X147147902Y-72395412D01*
X147147903Y-72395413D01*
X147147904Y-72395416D01*
X147233431Y-72590400D01*
X147238341Y-72601593D01*
X147361475Y-72790065D01*
X147361479Y-72790070D01*
X147513962Y-72955708D01*
X147528812Y-72967266D01*
X147691624Y-73093989D01*
X147724880Y-73111986D01*
X147775271Y-73162000D01*
X147790623Y-73231316D01*
X147766062Y-73297929D01*
X147724880Y-73333613D01*
X147691626Y-73351610D01*
X147691624Y-73351611D01*
X147513962Y-73489891D01*
X147361479Y-73655529D01*
X147361475Y-73655534D01*
X147238341Y-73844006D01*
X147147903Y-74050186D01*
X147147902Y-74050187D01*
X147092637Y-74268424D01*
X147092636Y-74268430D01*
X147092636Y-74268432D01*
X147074044Y-74492800D01*
X147089085Y-74674320D01*
X147092637Y-74717175D01*
X147147902Y-74935412D01*
X147147903Y-74935413D01*
X147147904Y-74935416D01*
X147214118Y-75086370D01*
X147238341Y-75141593D01*
X147361475Y-75330065D01*
X147361479Y-75330070D01*
X147513962Y-75495708D01*
X147544831Y-75519734D01*
X147691624Y-75633989D01*
X147724880Y-75651986D01*
X147775271Y-75702000D01*
X147790623Y-75771316D01*
X147766062Y-75837929D01*
X147724880Y-75873613D01*
X147691626Y-75891610D01*
X147691624Y-75891611D01*
X147513962Y-76029891D01*
X147361479Y-76195529D01*
X147361475Y-76195534D01*
X147238341Y-76384006D01*
X147147903Y-76590186D01*
X147147902Y-76590187D01*
X147092637Y-76808424D01*
X147092636Y-76808430D01*
X147092636Y-76808432D01*
X147074044Y-77032800D01*
X145644500Y-77032800D01*
X145644500Y-76536762D01*
X145644396Y-76535795D01*
X145637990Y-76476203D01*
X145637989Y-76476201D01*
X145637989Y-76476199D01*
X145626140Y-76444433D01*
X145621074Y-76373621D01*
X145626137Y-76356374D01*
X145637989Y-76324601D01*
X145638318Y-76321546D01*
X145644499Y-76264049D01*
X145644500Y-76264032D01*
X145644500Y-75266767D01*
X145644499Y-75266750D01*
X145637990Y-75206203D01*
X145637989Y-75206201D01*
X145637989Y-75206199D01*
X145626140Y-75174433D01*
X145621074Y-75103621D01*
X145626137Y-75086374D01*
X145637989Y-75054601D01*
X145644500Y-74994038D01*
X145644500Y-73996762D01*
X145637990Y-73936204D01*
X145637990Y-73936203D01*
X145637989Y-73936201D01*
X145637989Y-73936199D01*
X145626140Y-73904433D01*
X145621074Y-73833621D01*
X145626137Y-73816374D01*
X145637989Y-73784601D01*
X145644500Y-73724038D01*
X145644500Y-72726762D01*
X145642349Y-72706751D01*
X145637990Y-72666203D01*
X145637989Y-72666201D01*
X145637989Y-72666199D01*
X145626140Y-72634433D01*
X145621074Y-72563621D01*
X145626137Y-72546374D01*
X145637989Y-72514601D01*
X145640684Y-72489540D01*
X145644499Y-72454049D01*
X145644500Y-72454032D01*
X145644500Y-71456767D01*
X145644499Y-71456750D01*
X145637990Y-71396203D01*
X145637989Y-71396201D01*
X145637989Y-71396199D01*
X145626140Y-71364433D01*
X145621074Y-71293621D01*
X145626137Y-71276374D01*
X145637989Y-71244601D01*
X145638409Y-71240700D01*
X145644499Y-71184049D01*
X145644500Y-71184032D01*
X145644500Y-70186767D01*
X145644499Y-70186750D01*
X145637990Y-70126203D01*
X145637989Y-70126201D01*
X145637989Y-70126199D01*
X145626140Y-70094433D01*
X145621074Y-70023621D01*
X145626137Y-70006374D01*
X145637989Y-69974601D01*
X145644500Y-69914038D01*
X145644500Y-68916762D01*
X145644483Y-68916600D01*
X145637990Y-68856203D01*
X145637989Y-68856201D01*
X145637989Y-68856199D01*
X145626140Y-68824433D01*
X145621074Y-68753621D01*
X145626137Y-68736374D01*
X145637989Y-68704601D01*
X145638731Y-68697707D01*
X145644499Y-68644049D01*
X145644500Y-68644032D01*
X145644500Y-67646767D01*
X145644499Y-67646750D01*
X145637990Y-67586203D01*
X145637989Y-67586201D01*
X145637989Y-67586199D01*
X145626140Y-67554433D01*
X145621074Y-67483621D01*
X145626137Y-67466374D01*
X145637989Y-67434601D01*
X145641326Y-67403568D01*
X145644499Y-67374049D01*
X145644500Y-67374032D01*
X145644500Y-66376767D01*
X145644499Y-66376750D01*
X145637990Y-66316203D01*
X145637989Y-66316201D01*
X145637989Y-66316199D01*
X145626140Y-66284433D01*
X145621074Y-66213621D01*
X145626137Y-66196374D01*
X145637989Y-66164601D01*
X145639558Y-66150013D01*
X145644499Y-66104049D01*
X145644500Y-66104032D01*
X145644500Y-65338039D01*
X145664502Y-65269918D01*
X145718158Y-65223425D01*
X145744300Y-65214792D01*
X145900488Y-65181594D01*
X146074952Y-65103918D01*
X146229453Y-64991666D01*
X146240122Y-64979817D01*
X146357234Y-64849751D01*
X146357235Y-64849749D01*
X146357240Y-64849744D01*
X146452727Y-64684356D01*
X146511742Y-64502728D01*
X146531704Y-64312800D01*
X146511742Y-64122872D01*
X146452727Y-63941244D01*
X146357240Y-63775856D01*
X146357238Y-63775854D01*
X146357234Y-63775848D01*
X146229455Y-63633935D01*
X146074952Y-63521682D01*
X145996098Y-63486574D01*
X145900488Y-63444006D01*
X145900487Y-63444005D01*
X145900483Y-63444004D01*
X145743803Y-63410700D01*
X145681329Y-63376972D01*
X145656362Y-63331761D01*
X145644001Y-63319400D01*
X143128000Y-63319400D01*
X143128000Y-63352813D01*
X143107998Y-63420934D01*
X143054342Y-63467427D01*
X142984068Y-63477531D01*
X142960591Y-63470759D01*
X142960368Y-63471446D01*
X142954093Y-63469407D01*
X142767287Y-63429700D01*
X142576313Y-63429700D01*
X142389511Y-63469406D01*
X142215047Y-63547082D01*
X142060545Y-63659334D01*
X142042283Y-63679617D01*
X141981836Y-63716856D01*
X141910853Y-63715503D01*
X141874587Y-63697241D01*
X141836848Y-63669822D01*
X141807752Y-63648682D01*
X141633288Y-63571006D01*
X141446487Y-63531300D01*
X141255513Y-63531300D01*
X141068711Y-63571006D01*
X140894247Y-63648682D01*
X140739744Y-63760935D01*
X140611965Y-63902848D01*
X140611958Y-63902858D01*
X140516476Y-64068238D01*
X140516473Y-64068245D01*
X140457457Y-64249872D01*
X140437496Y-64439800D01*
X140457457Y-64629727D01*
X140475207Y-64684354D01*
X140516473Y-64811356D01*
X140529575Y-64834049D01*
X140611958Y-64976741D01*
X140611961Y-64976745D01*
X140620538Y-64986271D01*
X140651254Y-65050280D01*
X140642488Y-65120733D01*
X140634400Y-65130432D01*
X140681429Y-65112892D01*
X140750803Y-65127983D01*
X140764479Y-65136635D01*
X140894248Y-65230918D01*
X141068712Y-65308594D01*
X141255513Y-65348300D01*
X141311406Y-65348300D01*
X141379527Y-65368302D01*
X141400501Y-65385205D01*
X142004353Y-65989057D01*
X142014320Y-66001497D01*
X142014547Y-66001310D01*
X142019599Y-66007417D01*
X142019600Y-66007418D01*
X142049535Y-66035529D01*
X142069266Y-66054057D01*
X142072110Y-66056814D01*
X142091826Y-66076531D01*
X142095023Y-66079011D01*
X142104044Y-66086716D01*
X142136279Y-66116986D01*
X142136280Y-66116986D01*
X142136282Y-66116988D01*
X142154029Y-66126744D01*
X142170559Y-66137602D01*
X142186559Y-66150013D01*
X142227136Y-66167572D01*
X142237787Y-66172790D01*
X142276540Y-66194095D01*
X142296162Y-66199133D01*
X142314863Y-66205535D01*
X142327414Y-66210967D01*
X142333452Y-66213580D01*
X142333453Y-66213580D01*
X142333455Y-66213581D01*
X142377130Y-66220498D01*
X142388741Y-66222902D01*
X142431570Y-66233900D01*
X142451824Y-66233900D01*
X142471534Y-66235451D01*
X142473741Y-66235800D01*
X142491543Y-66238620D01*
X142535561Y-66234458D01*
X142547419Y-66233900D01*
X143002587Y-66233900D01*
X143070708Y-66253902D01*
X143117201Y-66307558D01*
X143127864Y-66373376D01*
X143127500Y-66376751D01*
X143127500Y-67335447D01*
X143107498Y-67403568D01*
X143053842Y-67450061D01*
X142983568Y-67460165D01*
X142927439Y-67437383D01*
X142776740Y-67327894D01*
X142602276Y-67250218D01*
X142539215Y-67236813D01*
X142476742Y-67203084D01*
X142476319Y-67202662D01*
X140601323Y-65327666D01*
X140567297Y-65265354D01*
X140572362Y-65194539D01*
X140583642Y-65179470D01*
X140529296Y-65196557D01*
X140460807Y-65177854D01*
X140445906Y-65167099D01*
X140418104Y-65143769D01*
X140410003Y-65136345D01*
X140406082Y-65132424D01*
X140381504Y-65112989D01*
X140378667Y-65110678D01*
X140320778Y-65062104D01*
X140320616Y-65061968D01*
X140320615Y-65061967D01*
X140320611Y-65061964D01*
X140314482Y-65057933D01*
X140314517Y-65057878D01*
X140308163Y-65053829D01*
X140308129Y-65053886D01*
X140301882Y-65050033D01*
X140233181Y-65017996D01*
X140229885Y-65016401D01*
X140225530Y-65014214D01*
X140162164Y-64982391D01*
X140162162Y-64982390D01*
X140162159Y-64982389D01*
X140155265Y-64979880D01*
X140155287Y-64979817D01*
X140148165Y-64977341D01*
X140148145Y-64977404D01*
X140141187Y-64975098D01*
X140066918Y-64959762D01*
X140063343Y-64958969D01*
X139989632Y-64941500D01*
X139982343Y-64940648D01*
X139982350Y-64940580D01*
X139974853Y-64939814D01*
X139974848Y-64939881D01*
X139967535Y-64939241D01*
X139967534Y-64939241D01*
X139935606Y-64940170D01*
X139891717Y-64941447D01*
X139888053Y-64941500D01*
X128955841Y-64941500D01*
X128937582Y-64940170D01*
X128913612Y-64936659D01*
X128913611Y-64936659D01*
X128868017Y-64940648D01*
X128863754Y-64941021D01*
X128852773Y-64941500D01*
X128847216Y-64941500D01*
X128816113Y-64945135D01*
X128812470Y-64945507D01*
X128736975Y-64952112D01*
X128729789Y-64953596D01*
X128729776Y-64953533D01*
X128722403Y-64955168D01*
X128722418Y-64955231D01*
X128715281Y-64956922D01*
X128644033Y-64982853D01*
X128640576Y-64984055D01*
X128595817Y-64998887D01*
X128568662Y-65007886D01*
X128568660Y-65007886D01*
X128568660Y-65007887D01*
X128562012Y-65010987D01*
X128561983Y-65010926D01*
X128555192Y-65014214D01*
X128555222Y-65014273D01*
X128548669Y-65017563D01*
X128485320Y-65059229D01*
X128482230Y-65061197D01*
X128417751Y-65100968D01*
X128411988Y-65105525D01*
X128411947Y-65105473D01*
X128406104Y-65110233D01*
X128406146Y-65110283D01*
X128400527Y-65114997D01*
X128359174Y-65158828D01*
X128297877Y-65194649D01*
X128226944Y-65191644D01*
X128168896Y-65150768D01*
X128142249Y-65085825D01*
X128137990Y-65046204D01*
X128137989Y-65046201D01*
X128137989Y-65046199D01*
X128126140Y-65014433D01*
X128121074Y-64943621D01*
X128126137Y-64926374D01*
X128137989Y-64894601D01*
X128142812Y-64849744D01*
X128144499Y-64834049D01*
X128144500Y-64834032D01*
X128144500Y-63836767D01*
X128144499Y-63836750D01*
X128137990Y-63776203D01*
X128137989Y-63776201D01*
X128137989Y-63776199D01*
X128125873Y-63743717D01*
X128120807Y-63672905D01*
X128125874Y-63655647D01*
X128137493Y-63624496D01*
X128137494Y-63624493D01*
X128143999Y-63563997D01*
X128144000Y-63563985D01*
X128144000Y-63319400D01*
X125628000Y-63319400D01*
X125628000Y-63563997D01*
X125634505Y-63624496D01*
X125634506Y-63624498D01*
X125646126Y-63655654D01*
X125651190Y-63726469D01*
X125646127Y-63743714D01*
X125634010Y-63776201D01*
X125634009Y-63776204D01*
X125627500Y-63836750D01*
X125627500Y-64834032D01*
X125627501Y-64834054D01*
X125630029Y-64857572D01*
X125617422Y-64927440D01*
X125569042Y-64979401D01*
X125515496Y-64996579D01*
X125489951Y-64998765D01*
X125479712Y-64999641D01*
X125468975Y-65000100D01*
X125461536Y-65000100D01*
X125437180Y-65003177D01*
X125432133Y-65003711D01*
X125367663Y-65009226D01*
X125365680Y-65009651D01*
X125344649Y-65014600D01*
X125342599Y-65015127D01*
X125282439Y-65038946D01*
X125277681Y-65040720D01*
X125216589Y-65062102D01*
X125214773Y-65063007D01*
X125195557Y-65073072D01*
X125193785Y-65074047D01*
X125193784Y-65074047D01*
X125193783Y-65074048D01*
X125141424Y-65112088D01*
X125137257Y-65114988D01*
X123633691Y-66117365D01*
X123565916Y-66138509D01*
X123497469Y-66119655D01*
X123450081Y-66066788D01*
X123437942Y-66018521D01*
X123435809Y-65973736D01*
X123435808Y-65973731D01*
X123435808Y-65973726D01*
X123385898Y-65767996D01*
X123297956Y-65575429D01*
X123297953Y-65575425D01*
X123297951Y-65575421D01*
X123175164Y-65402991D01*
X123175155Y-65402981D01*
X123107045Y-65338039D01*
X123021946Y-65256897D01*
X123021943Y-65256895D01*
X123021940Y-65256892D01*
X122991350Y-65237233D01*
X122944857Y-65183577D01*
X122934754Y-65113303D01*
X122964247Y-65048723D01*
X122981584Y-65032193D01*
X123101681Y-64937748D01*
X123101691Y-64937739D01*
X123240256Y-64777825D01*
X123240257Y-64777824D01*
X123346054Y-64594577D01*
X123346058Y-64594568D01*
X123415262Y-64394615D01*
X123415264Y-64394609D01*
X123416473Y-64386200D01*
X122334478Y-64386200D01*
X122376878Y-64340141D01*
X122427151Y-64225530D01*
X122437486Y-64100805D01*
X122406763Y-63979481D01*
X122340592Y-63878200D01*
X123412119Y-63878200D01*
X123412119Y-63878199D01*
X123385424Y-63768161D01*
X123385422Y-63768154D01*
X123297522Y-63575684D01*
X123297520Y-63575680D01*
X123174778Y-63403312D01*
X123174777Y-63403311D01*
X123021635Y-63257290D01*
X123021634Y-63257289D01*
X122843624Y-63142891D01*
X122843619Y-63142888D01*
X122647185Y-63064247D01*
X122647179Y-63064246D01*
X122439405Y-63024200D01*
X122312600Y-63024200D01*
X122312600Y-63854696D01*
X122239548Y-63797837D01*
X122121176Y-63757200D01*
X122027527Y-63757200D01*
X121935154Y-63772614D01*
X121825086Y-63832181D01*
X121804600Y-63854434D01*
X121804600Y-63024200D01*
X121730821Y-63024200D01*
X121730799Y-63024201D01*
X121572966Y-63039272D01*
X121572951Y-63039275D01*
X121369922Y-63098889D01*
X121181845Y-63195850D01*
X121015514Y-63326655D01*
X121015508Y-63326660D01*
X120876943Y-63486574D01*
X120876942Y-63486575D01*
X120771145Y-63669822D01*
X120771141Y-63669831D01*
X120701937Y-63869784D01*
X120701935Y-63869790D01*
X120700726Y-63878200D01*
X121782722Y-63878200D01*
X121740322Y-63924259D01*
X121690049Y-64038870D01*
X121679714Y-64163595D01*
X121710437Y-64284919D01*
X121776608Y-64386200D01*
X120705080Y-64386200D01*
X120731775Y-64496238D01*
X120731777Y-64496245D01*
X120819677Y-64688715D01*
X120819679Y-64688719D01*
X120942421Y-64861087D01*
X120942422Y-64861088D01*
X121095561Y-65007107D01*
X121125818Y-65026551D01*
X121172311Y-65080207D01*
X121182416Y-65150480D01*
X121152923Y-65215061D01*
X121135587Y-65231592D01*
X121015165Y-65326293D01*
X120876538Y-65486277D01*
X120876530Y-65486288D01*
X120770689Y-65669612D01*
X120770686Y-65669619D01*
X120701448Y-65869669D01*
X120701445Y-65869680D01*
X120671318Y-66079214D01*
X120681390Y-66290663D01*
X120681391Y-66290671D01*
X120681392Y-66290674D01*
X120695173Y-66347481D01*
X120698215Y-66360020D01*
X120694836Y-66430936D01*
X120653653Y-66488767D01*
X120622134Y-66506882D01*
X120616790Y-66508997D01*
X120609363Y-66511671D01*
X120555921Y-66529037D01*
X120548960Y-66533455D01*
X120527837Y-66544217D01*
X120520183Y-66547247D01*
X120474755Y-66580251D01*
X120468214Y-66584696D01*
X120420786Y-66614796D01*
X120420775Y-66614805D01*
X120415131Y-66620815D01*
X120397362Y-66636481D01*
X120390696Y-66641325D01*
X120390690Y-66641330D01*
X120354897Y-66684596D01*
X120349666Y-66690530D01*
X120311217Y-66731475D01*
X120311214Y-66731479D01*
X120307241Y-66738705D01*
X120293925Y-66758298D01*
X120288668Y-66764652D01*
X120288666Y-66764656D01*
X120264747Y-66815485D01*
X120261156Y-66822532D01*
X120234106Y-66871738D01*
X120234102Y-66871748D01*
X120232053Y-66879727D01*
X120224025Y-66902025D01*
X120220518Y-66909477D01*
X120220516Y-66909484D01*
X120209993Y-66964645D01*
X120208267Y-66972365D01*
X120194300Y-67026768D01*
X120194300Y-67035006D01*
X120192068Y-67058618D01*
X120190525Y-67066703D01*
X120190525Y-67066706D01*
X120192441Y-67097168D01*
X120194051Y-67122750D01*
X120194300Y-67130662D01*
X120194300Y-68673946D01*
X120192551Y-68689788D01*
X120192844Y-68689816D01*
X120192098Y-68697707D01*
X120192098Y-68697709D01*
X120192969Y-68725401D01*
X120194238Y-68765784D01*
X120194300Y-68769743D01*
X120194300Y-68797651D01*
X120194301Y-68797669D01*
X120194807Y-68801677D01*
X120195737Y-68813496D01*
X120197126Y-68857688D01*
X120197127Y-68857693D01*
X120202777Y-68877139D01*
X120206786Y-68896497D01*
X120209325Y-68916593D01*
X120209326Y-68916600D01*
X120225600Y-68957703D01*
X120229444Y-68968929D01*
X120241782Y-69011393D01*
X120252094Y-69028831D01*
X120260788Y-69046579D01*
X120268244Y-69065409D01*
X120268250Y-69065420D01*
X120294232Y-69101181D01*
X120300749Y-69111101D01*
X120323258Y-69149162D01*
X120323259Y-69149163D01*
X120323261Y-69149166D01*
X120337579Y-69163484D01*
X120350417Y-69178514D01*
X120362326Y-69194904D01*
X120362330Y-69194909D01*
X120396398Y-69223092D01*
X120405178Y-69231082D01*
X120659668Y-69485572D01*
X120693694Y-69547884D01*
X120690179Y-69614295D01*
X120685712Y-69627774D01*
X120685712Y-69627775D01*
X120675100Y-69731646D01*
X120675100Y-70532744D01*
X120685712Y-70636625D01*
X120741485Y-70804938D01*
X120834570Y-70955852D01*
X120834575Y-70955858D01*
X120959941Y-71081224D01*
X120959947Y-71081229D01*
X120959948Y-71081230D01*
X121110862Y-71174315D01*
X121279174Y-71230087D01*
X121383055Y-71240700D01*
X122734144Y-71240699D01*
X122838026Y-71230087D01*
X123006338Y-71174315D01*
X123157252Y-71081230D01*
X123282630Y-70955852D01*
X123375715Y-70804938D01*
X123431487Y-70636626D01*
X123442100Y-70532745D01*
X123442099Y-70169899D01*
X123462101Y-70101780D01*
X123515756Y-70055287D01*
X123568099Y-70043900D01*
X125502587Y-70043900D01*
X125570708Y-70063902D01*
X125617201Y-70117558D01*
X125627864Y-70183376D01*
X125627500Y-70186751D01*
X125627500Y-71184049D01*
X125634009Y-71244595D01*
X125634010Y-71244598D01*
X125645860Y-71276370D01*
X125650923Y-71347186D01*
X125645860Y-71364430D01*
X125634010Y-71396201D01*
X125634009Y-71396204D01*
X125627500Y-71456750D01*
X125627500Y-72454049D01*
X125634853Y-72522438D01*
X125633515Y-72522581D01*
X125630151Y-72585264D01*
X125588622Y-72642848D01*
X125575471Y-72651792D01*
X125482546Y-72706748D01*
X125482542Y-72706751D01*
X121886936Y-76302357D01*
X121874501Y-76312321D01*
X121874689Y-76312548D01*
X121868579Y-76317602D01*
X121821970Y-76367235D01*
X121819220Y-76370073D01*
X121799463Y-76389831D01*
X121796974Y-76393039D01*
X121789288Y-76402036D01*
X121759018Y-76434273D01*
X121759011Y-76434283D01*
X121749251Y-76452035D01*
X121738403Y-76468550D01*
X121725986Y-76484558D01*
X121708424Y-76525140D01*
X121703204Y-76535795D01*
X121681905Y-76574539D01*
X121681903Y-76574544D01*
X121676867Y-76594159D01*
X121670464Y-76612862D01*
X121662419Y-76631452D01*
X121655501Y-76675125D01*
X121653095Y-76686742D01*
X121642100Y-76729568D01*
X121642100Y-76749823D01*
X121640549Y-76769533D01*
X121637380Y-76789542D01*
X121641541Y-76833561D01*
X121642100Y-76845419D01*
X121642100Y-77853980D01*
X121622098Y-77922101D01*
X121568442Y-77968594D01*
X121498168Y-77978698D01*
X121453103Y-77963101D01*
X121449955Y-77961284D01*
X121449954Y-77961283D01*
X121449952Y-77961282D01*
X121275488Y-77883606D01*
X121088687Y-77843900D01*
X120897713Y-77843900D01*
X120710911Y-77883606D01*
X120536447Y-77961282D01*
X120381944Y-78073535D01*
X120254165Y-78215448D01*
X120254158Y-78215458D01*
X120158676Y-78380838D01*
X120158673Y-78380844D01*
X120155276Y-78391300D01*
X120099657Y-78562472D01*
X120079696Y-78752400D01*
X119589097Y-78752400D01*
X119531952Y-78710882D01*
X119357488Y-78633206D01*
X119170687Y-78593500D01*
X118979713Y-78593500D01*
X118792911Y-78633206D01*
X118618447Y-78710882D01*
X118463944Y-78823135D01*
X118336165Y-78965048D01*
X118336158Y-78965058D01*
X118240731Y-79130343D01*
X118240673Y-79130444D01*
X118236093Y-79144541D01*
X118181657Y-79312072D01*
X118161696Y-79502000D01*
X117753737Y-79502000D01*
X117772149Y-62811400D01*
X125628000Y-62811400D01*
X126632000Y-62811400D01*
X126632000Y-62107400D01*
X127140000Y-62107400D01*
X127140000Y-62811400D01*
X128144000Y-62811400D01*
X128144000Y-62566814D01*
X128143999Y-62566802D01*
X128137494Y-62506306D01*
X128086444Y-62369435D01*
X128086444Y-62369434D01*
X127998904Y-62252495D01*
X127881965Y-62164955D01*
X127745093Y-62113905D01*
X127684597Y-62107400D01*
X127140000Y-62107400D01*
X126632000Y-62107400D01*
X126087402Y-62107400D01*
X126026906Y-62113905D01*
X125890035Y-62164955D01*
X125890034Y-62164955D01*
X125773095Y-62252495D01*
X125685555Y-62369434D01*
X125685555Y-62369435D01*
X125634505Y-62506306D01*
X125628000Y-62566802D01*
X125628000Y-62811400D01*
X117772149Y-62811400D01*
X117773164Y-61891260D01*
X117793241Y-61823162D01*
X117846948Y-61776729D01*
X117899164Y-61765400D01*
X130543025Y-61765400D01*
X130543929Y-61765402D01*
G37*
%TD.AperFunction*%
%TD*%
M02*
