%TF.GenerationSoftware,KiCad,Pcbnew,7.0.10-7.0.10~ubuntu22.04.1*%
%TF.CreationDate,2024-01-30T00:04:26+01:00*%
%TF.ProjectId,MailBox_LP_Notifier,4d61696c-426f-4785-9f4c-505f4e6f7469,rev?*%
%TF.SameCoordinates,Original*%
%TF.FileFunction,Copper,L1,Top*%
%TF.FilePolarity,Positive*%
%FSLAX46Y46*%
G04 Gerber Fmt 4.6, Leading zero omitted, Abs format (unit mm)*
G04 Created by KiCad (PCBNEW 7.0.10-7.0.10~ubuntu22.04.1) date 2024-01-30 00:04:26*
%MOMM*%
%LPD*%
G01*
G04 APERTURE LIST*
G04 Aperture macros list*
%AMRoundRect*
0 Rectangle with rounded corners*
0 $1 Rounding radius*
0 $2 $3 $4 $5 $6 $7 $8 $9 X,Y pos of 4 corners*
0 Add a 4 corners polygon primitive as box body*
4,1,4,$2,$3,$4,$5,$6,$7,$8,$9,$2,$3,0*
0 Add four circle primitives for the rounded corners*
1,1,$1+$1,$2,$3*
1,1,$1+$1,$4,$5*
1,1,$1+$1,$6,$7*
1,1,$1+$1,$8,$9*
0 Add four rect primitives between the rounded corners*
20,1,$1+$1,$2,$3,$4,$5,0*
20,1,$1+$1,$4,$5,$6,$7,0*
20,1,$1+$1,$6,$7,$8,$9,0*
20,1,$1+$1,$8,$9,$2,$3,0*%
%AMFreePoly0*
4,1,19,0.550000,-0.750000,0.000000,-0.750000,0.000000,-0.744911,-0.071157,-0.744911,-0.207708,-0.704816,-0.327430,-0.627875,-0.420627,-0.520320,-0.479746,-0.390866,-0.500000,-0.250000,-0.500000,0.250000,-0.479746,0.390866,-0.420627,0.520320,-0.327430,0.627875,-0.207708,0.704816,-0.071157,0.744911,0.000000,0.744911,0.000000,0.750000,0.550000,0.750000,0.550000,-0.750000,0.550000,-0.750000,
$1*%
%AMFreePoly1*
4,1,19,0.000000,0.744911,0.071157,0.744911,0.207708,0.704816,0.327430,0.627875,0.420627,0.520320,0.479746,0.390866,0.500000,0.250000,0.500000,-0.250000,0.479746,-0.390866,0.420627,-0.520320,0.327430,-0.627875,0.207708,-0.704816,0.071157,-0.744911,0.000000,-0.744911,0.000000,-0.750000,-0.550000,-0.750000,-0.550000,0.750000,0.000000,0.750000,0.000000,0.744911,0.000000,0.744911,
$1*%
G04 Aperture macros list end*
%ADD10C,0.300000*%
%TA.AperFunction,NonConductor*%
%ADD11C,0.300000*%
%TD*%
%TA.AperFunction,NonConductor*%
%ADD12C,0.200000*%
%TD*%
%TA.AperFunction,HeatsinkPad*%
%ADD13C,0.600000*%
%TD*%
%TA.AperFunction,SMDPad,CuDef*%
%ADD14RoundRect,0.225000X0.375000X-0.225000X0.375000X0.225000X-0.375000X0.225000X-0.375000X-0.225000X0*%
%TD*%
%TA.AperFunction,SMDPad,CuDef*%
%ADD15RoundRect,0.225000X0.225000X0.375000X-0.225000X0.375000X-0.225000X-0.375000X0.225000X-0.375000X0*%
%TD*%
%TA.AperFunction,SMDPad,CuDef*%
%ADD16RoundRect,0.225000X-0.225000X-0.375000X0.225000X-0.375000X0.225000X0.375000X-0.225000X0.375000X0*%
%TD*%
%TA.AperFunction,SMDPad,CuDef*%
%ADD17RoundRect,0.200000X-0.200000X-0.275000X0.200000X-0.275000X0.200000X0.275000X-0.200000X0.275000X0*%
%TD*%
%TA.AperFunction,SMDPad,CuDef*%
%ADD18RoundRect,0.200000X-0.275000X0.200000X-0.275000X-0.200000X0.275000X-0.200000X0.275000X0.200000X0*%
%TD*%
%TA.AperFunction,SMDPad,CuDef*%
%ADD19C,1.000000*%
%TD*%
%TA.AperFunction,SMDPad,CuDef*%
%ADD20R,0.650000X0.400000*%
%TD*%
%TA.AperFunction,SMDPad,CuDef*%
%ADD21RoundRect,0.225000X0.225000X0.250000X-0.225000X0.250000X-0.225000X-0.250000X0.225000X-0.250000X0*%
%TD*%
%TA.AperFunction,SMDPad,CuDef*%
%ADD22RoundRect,0.225000X-0.250000X0.225000X-0.250000X-0.225000X0.250000X-0.225000X0.250000X0.225000X0*%
%TD*%
%TA.AperFunction,SMDPad,CuDef*%
%ADD23RoundRect,0.150000X-0.150000X0.587500X-0.150000X-0.587500X0.150000X-0.587500X0.150000X0.587500X0*%
%TD*%
%TA.AperFunction,SMDPad,CuDef*%
%ADD24RoundRect,0.200000X0.275000X-0.200000X0.275000X0.200000X-0.275000X0.200000X-0.275000X-0.200000X0*%
%TD*%
%TA.AperFunction,SMDPad,CuDef*%
%ADD25RoundRect,0.200000X0.200000X0.275000X-0.200000X0.275000X-0.200000X-0.275000X0.200000X-0.275000X0*%
%TD*%
%TA.AperFunction,SMDPad,CuDef*%
%ADD26RoundRect,0.150000X0.150000X-0.512500X0.150000X0.512500X-0.150000X0.512500X-0.150000X-0.512500X0*%
%TD*%
%TA.AperFunction,SMDPad,CuDef*%
%ADD27RoundRect,0.250000X-0.262500X-0.450000X0.262500X-0.450000X0.262500X0.450000X-0.262500X0.450000X0*%
%TD*%
%TA.AperFunction,SMDPad,CuDef*%
%ADD28R,0.800000X1.000000*%
%TD*%
%TA.AperFunction,SMDPad,CuDef*%
%ADD29R,1.500000X0.700000*%
%TD*%
%TA.AperFunction,SMDPad,CuDef*%
%ADD30FreePoly0,270.000000*%
%TD*%
%TA.AperFunction,SMDPad,CuDef*%
%ADD31R,1.500000X1.000000*%
%TD*%
%TA.AperFunction,SMDPad,CuDef*%
%ADD32FreePoly1,270.000000*%
%TD*%
%TA.AperFunction,SMDPad,CuDef*%
%ADD33RoundRect,0.150000X0.150000X-0.587500X0.150000X0.587500X-0.150000X0.587500X-0.150000X-0.587500X0*%
%TD*%
%TA.AperFunction,ComponentPad*%
%ADD34RoundRect,0.250001X0.499999X0.499999X-0.499999X0.499999X-0.499999X-0.499999X0.499999X-0.499999X0*%
%TD*%
%TA.AperFunction,ComponentPad*%
%ADD35C,1.500000*%
%TD*%
%TA.AperFunction,SMDPad,CuDef*%
%ADD36RoundRect,0.225000X-0.225000X-0.250000X0.225000X-0.250000X0.225000X0.250000X-0.225000X0.250000X0*%
%TD*%
%TA.AperFunction,ComponentPad*%
%ADD37R,1.700000X1.700000*%
%TD*%
%TA.AperFunction,ComponentPad*%
%ADD38O,1.700000X1.700000*%
%TD*%
%TA.AperFunction,SMDPad,CuDef*%
%ADD39RoundRect,0.150000X-0.150000X0.512500X-0.150000X-0.512500X0.150000X-0.512500X0.150000X0.512500X0*%
%TD*%
%TA.AperFunction,SMDPad,CuDef*%
%ADD40RoundRect,0.150000X0.587500X0.150000X-0.587500X0.150000X-0.587500X-0.150000X0.587500X-0.150000X0*%
%TD*%
%TA.AperFunction,SMDPad,CuDef*%
%ADD41RoundRect,0.225000X0.250000X-0.225000X0.250000X0.225000X-0.250000X0.225000X-0.250000X-0.225000X0*%
%TD*%
%TA.AperFunction,ComponentPad*%
%ADD42RoundRect,0.250000X0.625000X-0.350000X0.625000X0.350000X-0.625000X0.350000X-0.625000X-0.350000X0*%
%TD*%
%TA.AperFunction,ComponentPad*%
%ADD43O,1.750000X1.200000*%
%TD*%
%TA.AperFunction,ComponentPad*%
%ADD44RoundRect,0.250000X0.350000X0.625000X-0.350000X0.625000X-0.350000X-0.625000X0.350000X-0.625000X0*%
%TD*%
%TA.AperFunction,ComponentPad*%
%ADD45O,1.200000X1.750000*%
%TD*%
%TA.AperFunction,SMDPad,CuDef*%
%ADD46R,0.800000X0.500000*%
%TD*%
%TA.AperFunction,ViaPad*%
%ADD47C,0.800000*%
%TD*%
%TA.AperFunction,Conductor*%
%ADD48C,0.250000*%
%TD*%
%TA.AperFunction,Conductor*%
%ADD49C,0.500000*%
%TD*%
%TA.AperFunction,Conductor*%
%ADD50C,1.000000*%
%TD*%
G04 APERTURE END LIST*
D10*
D11*
X128534401Y-124196239D02*
X129462973Y-124196239D01*
X129462973Y-124196239D02*
X128962973Y-124767668D01*
X128962973Y-124767668D02*
X129177258Y-124767668D01*
X129177258Y-124767668D02*
X129320116Y-124839096D01*
X129320116Y-124839096D02*
X129391544Y-124910525D01*
X129391544Y-124910525D02*
X129462973Y-125053382D01*
X129462973Y-125053382D02*
X129462973Y-125410525D01*
X129462973Y-125410525D02*
X129391544Y-125553382D01*
X129391544Y-125553382D02*
X129320116Y-125624811D01*
X129320116Y-125624811D02*
X129177258Y-125696239D01*
X129177258Y-125696239D02*
X128748687Y-125696239D01*
X128748687Y-125696239D02*
X128605830Y-125624811D01*
X128605830Y-125624811D02*
X128534401Y-125553382D01*
X130748687Y-124696239D02*
X130748687Y-125696239D01*
X130391544Y-124124811D02*
X130034401Y-125196239D01*
X130034401Y-125196239D02*
X130962972Y-125196239D01*
X131605829Y-125624811D02*
X131605829Y-125696239D01*
X131605829Y-125696239D02*
X131534400Y-125839096D01*
X131534400Y-125839096D02*
X131462972Y-125910525D01*
X132462972Y-124839096D02*
X132320115Y-124767668D01*
X132320115Y-124767668D02*
X132248686Y-124696239D01*
X132248686Y-124696239D02*
X132177258Y-124553382D01*
X132177258Y-124553382D02*
X132177258Y-124481953D01*
X132177258Y-124481953D02*
X132248686Y-124339096D01*
X132248686Y-124339096D02*
X132320115Y-124267668D01*
X132320115Y-124267668D02*
X132462972Y-124196239D01*
X132462972Y-124196239D02*
X132748686Y-124196239D01*
X132748686Y-124196239D02*
X132891544Y-124267668D01*
X132891544Y-124267668D02*
X132962972Y-124339096D01*
X132962972Y-124339096D02*
X133034401Y-124481953D01*
X133034401Y-124481953D02*
X133034401Y-124553382D01*
X133034401Y-124553382D02*
X132962972Y-124696239D01*
X132962972Y-124696239D02*
X132891544Y-124767668D01*
X132891544Y-124767668D02*
X132748686Y-124839096D01*
X132748686Y-124839096D02*
X132462972Y-124839096D01*
X132462972Y-124839096D02*
X132320115Y-124910525D01*
X132320115Y-124910525D02*
X132248686Y-124981953D01*
X132248686Y-124981953D02*
X132177258Y-125124811D01*
X132177258Y-125124811D02*
X132177258Y-125410525D01*
X132177258Y-125410525D02*
X132248686Y-125553382D01*
X132248686Y-125553382D02*
X132320115Y-125624811D01*
X132320115Y-125624811D02*
X132462972Y-125696239D01*
X132462972Y-125696239D02*
X132748686Y-125696239D01*
X132748686Y-125696239D02*
X132891544Y-125624811D01*
X132891544Y-125624811D02*
X132962972Y-125553382D01*
X132962972Y-125553382D02*
X133034401Y-125410525D01*
X133034401Y-125410525D02*
X133034401Y-125124811D01*
X133034401Y-125124811D02*
X132962972Y-124981953D01*
X132962972Y-124981953D02*
X132891544Y-124910525D01*
X132891544Y-124910525D02*
X132748686Y-124839096D01*
X133748686Y-125696239D02*
X134034400Y-125696239D01*
X134034400Y-125696239D02*
X134177257Y-125624811D01*
X134177257Y-125624811D02*
X134248686Y-125553382D01*
X134248686Y-125553382D02*
X134391543Y-125339096D01*
X134391543Y-125339096D02*
X134462972Y-125053382D01*
X134462972Y-125053382D02*
X134462972Y-124481953D01*
X134462972Y-124481953D02*
X134391543Y-124339096D01*
X134391543Y-124339096D02*
X134320115Y-124267668D01*
X134320115Y-124267668D02*
X134177257Y-124196239D01*
X134177257Y-124196239D02*
X133891543Y-124196239D01*
X133891543Y-124196239D02*
X133748686Y-124267668D01*
X133748686Y-124267668D02*
X133677257Y-124339096D01*
X133677257Y-124339096D02*
X133605829Y-124481953D01*
X133605829Y-124481953D02*
X133605829Y-124839096D01*
X133605829Y-124839096D02*
X133677257Y-124981953D01*
X133677257Y-124981953D02*
X133748686Y-125053382D01*
X133748686Y-125053382D02*
X133891543Y-125124811D01*
X133891543Y-125124811D02*
X134177257Y-125124811D01*
X134177257Y-125124811D02*
X134320115Y-125053382D01*
X134320115Y-125053382D02*
X134391543Y-124981953D01*
X134391543Y-124981953D02*
X134462972Y-124839096D01*
X135177257Y-125696239D02*
X135462971Y-125696239D01*
X135462971Y-125696239D02*
X135605828Y-125624811D01*
X135605828Y-125624811D02*
X135677257Y-125553382D01*
X135677257Y-125553382D02*
X135820114Y-125339096D01*
X135820114Y-125339096D02*
X135891543Y-125053382D01*
X135891543Y-125053382D02*
X135891543Y-124481953D01*
X135891543Y-124481953D02*
X135820114Y-124339096D01*
X135820114Y-124339096D02*
X135748686Y-124267668D01*
X135748686Y-124267668D02*
X135605828Y-124196239D01*
X135605828Y-124196239D02*
X135320114Y-124196239D01*
X135320114Y-124196239D02*
X135177257Y-124267668D01*
X135177257Y-124267668D02*
X135105828Y-124339096D01*
X135105828Y-124339096D02*
X135034400Y-124481953D01*
X135034400Y-124481953D02*
X135034400Y-124839096D01*
X135034400Y-124839096D02*
X135105828Y-124981953D01*
X135105828Y-124981953D02*
X135177257Y-125053382D01*
X135177257Y-125053382D02*
X135320114Y-125124811D01*
X135320114Y-125124811D02*
X135605828Y-125124811D01*
X135605828Y-125124811D02*
X135748686Y-125053382D01*
X135748686Y-125053382D02*
X135820114Y-124981953D01*
X135820114Y-124981953D02*
X135891543Y-124839096D01*
X137177257Y-124196239D02*
X136891542Y-124196239D01*
X136891542Y-124196239D02*
X136748685Y-124267668D01*
X136748685Y-124267668D02*
X136677257Y-124339096D01*
X136677257Y-124339096D02*
X136534399Y-124553382D01*
X136534399Y-124553382D02*
X136462971Y-124839096D01*
X136462971Y-124839096D02*
X136462971Y-125410525D01*
X136462971Y-125410525D02*
X136534399Y-125553382D01*
X136534399Y-125553382D02*
X136605828Y-125624811D01*
X136605828Y-125624811D02*
X136748685Y-125696239D01*
X136748685Y-125696239D02*
X137034399Y-125696239D01*
X137034399Y-125696239D02*
X137177257Y-125624811D01*
X137177257Y-125624811D02*
X137248685Y-125553382D01*
X137248685Y-125553382D02*
X137320114Y-125410525D01*
X137320114Y-125410525D02*
X137320114Y-125053382D01*
X137320114Y-125053382D02*
X137248685Y-124910525D01*
X137248685Y-124910525D02*
X137177257Y-124839096D01*
X137177257Y-124839096D02*
X137034399Y-124767668D01*
X137034399Y-124767668D02*
X136748685Y-124767668D01*
X136748685Y-124767668D02*
X136605828Y-124839096D01*
X136605828Y-124839096D02*
X136534399Y-124910525D01*
X136534399Y-124910525D02*
X136462971Y-125053382D01*
X139105827Y-125696239D02*
X139105827Y-124696239D01*
X139105827Y-124839096D02*
X139177256Y-124767668D01*
X139177256Y-124767668D02*
X139320113Y-124696239D01*
X139320113Y-124696239D02*
X139534399Y-124696239D01*
X139534399Y-124696239D02*
X139677256Y-124767668D01*
X139677256Y-124767668D02*
X139748685Y-124910525D01*
X139748685Y-124910525D02*
X139748685Y-125696239D01*
X139748685Y-124910525D02*
X139820113Y-124767668D01*
X139820113Y-124767668D02*
X139962970Y-124696239D01*
X139962970Y-124696239D02*
X140177256Y-124696239D01*
X140177256Y-124696239D02*
X140320113Y-124767668D01*
X140320113Y-124767668D02*
X140391542Y-124910525D01*
X140391542Y-124910525D02*
X140391542Y-125696239D01*
X141105827Y-125696239D02*
X141105827Y-124696239D01*
X141105827Y-124839096D02*
X141177256Y-124767668D01*
X141177256Y-124767668D02*
X141320113Y-124696239D01*
X141320113Y-124696239D02*
X141534399Y-124696239D01*
X141534399Y-124696239D02*
X141677256Y-124767668D01*
X141677256Y-124767668D02*
X141748685Y-124910525D01*
X141748685Y-124910525D02*
X141748685Y-125696239D01*
X141748685Y-124910525D02*
X141820113Y-124767668D01*
X141820113Y-124767668D02*
X141962970Y-124696239D01*
X141962970Y-124696239D02*
X142177256Y-124696239D01*
X142177256Y-124696239D02*
X142320113Y-124767668D01*
X142320113Y-124767668D02*
X142391542Y-124910525D01*
X142391542Y-124910525D02*
X142391542Y-125696239D01*
D12*
X118084600Y-101973000D02*
X118084600Y-127404331D01*
X152984200Y-101973000D02*
X152984200Y-127404331D01*
X118084600Y-126817911D02*
X152984200Y-126817911D01*
X118084600Y-126817911D02*
X152984200Y-126817911D01*
X118084600Y-126817911D02*
X119211104Y-126231490D01*
X118084600Y-126817911D02*
X119211104Y-127404332D01*
X152984200Y-126817911D02*
X151857696Y-127404332D01*
X152984200Y-126817911D02*
X151857696Y-126231490D01*
D10*
D11*
X96121248Y-73028091D02*
X95121289Y-73037105D01*
X96689434Y-72665812D02*
X95614830Y-72318342D01*
X95614830Y-72318342D02*
X95623200Y-73246875D01*
X96634748Y-74523523D02*
X96628310Y-73809267D01*
X96628310Y-73809267D02*
X95913409Y-73744279D01*
X95913409Y-73744279D02*
X95985479Y-73815061D01*
X95985479Y-73815061D02*
X96058192Y-73957269D01*
X96058192Y-73957269D02*
X96061411Y-74314397D01*
X96061411Y-74314397D02*
X95991273Y-74457892D01*
X95991273Y-74457892D02*
X95920492Y-74529962D01*
X95920492Y-74529962D02*
X95778284Y-74602675D01*
X95778284Y-74602675D02*
X95421156Y-74605894D01*
X95421156Y-74605894D02*
X95277661Y-74535756D01*
X95277661Y-74535756D02*
X95205591Y-74464974D01*
X95205591Y-74464974D02*
X95132878Y-74322767D01*
X95132878Y-74322767D02*
X95129659Y-73965638D01*
X95129659Y-73965638D02*
X95199797Y-73822143D01*
X95199797Y-73822143D02*
X95270578Y-73750074D01*
X95213317Y-75322082D02*
X95141891Y-75322726D01*
X95141891Y-75322726D02*
X94998396Y-75252588D01*
X94998396Y-75252588D02*
X94926327Y-75181806D01*
X96650200Y-76237739D02*
X96651488Y-76380591D01*
X96651488Y-76380591D02*
X96581350Y-76524086D01*
X96581350Y-76524086D02*
X96510568Y-76596155D01*
X96510568Y-76596155D02*
X96368361Y-76668869D01*
X96368361Y-76668869D02*
X96083302Y-76742870D01*
X96083302Y-76742870D02*
X95726174Y-76746089D01*
X95726174Y-76746089D02*
X95439827Y-76677238D01*
X95439827Y-76677238D02*
X95296332Y-76607100D01*
X95296332Y-76607100D02*
X95224262Y-76536319D01*
X95224262Y-76536319D02*
X95151549Y-76394111D01*
X95151549Y-76394111D02*
X95150261Y-76251260D01*
X95150261Y-76251260D02*
X95220399Y-76107765D01*
X95220399Y-76107765D02*
X95291181Y-76035695D01*
X95291181Y-76035695D02*
X95433389Y-75962982D01*
X95433389Y-75962982D02*
X95718448Y-75888981D01*
X95718448Y-75888981D02*
X96075576Y-75885762D01*
X96075576Y-75885762D02*
X96361922Y-75954612D01*
X96361922Y-75954612D02*
X96505418Y-76024750D01*
X96505418Y-76024750D02*
X96577487Y-76095532D01*
X96577487Y-76095532D02*
X96650200Y-76237739D01*
X96019602Y-77600621D02*
X96089740Y-77457126D01*
X96089740Y-77457126D02*
X96160522Y-77385056D01*
X96160522Y-77385056D02*
X96302730Y-77312343D01*
X96302730Y-77312343D02*
X96374155Y-77311699D01*
X96374155Y-77311699D02*
X96517650Y-77381837D01*
X96517650Y-77381837D02*
X96589720Y-77452619D01*
X96589720Y-77452619D02*
X96662433Y-77594826D01*
X96662433Y-77594826D02*
X96665009Y-77880529D01*
X96665009Y-77880529D02*
X96594871Y-78024024D01*
X96594871Y-78024024D02*
X96524089Y-78096094D01*
X96524089Y-78096094D02*
X96381881Y-78168807D01*
X96381881Y-78168807D02*
X96310456Y-78169451D01*
X96310456Y-78169451D02*
X96166960Y-78099313D01*
X96166960Y-78099313D02*
X96094891Y-78028531D01*
X96094891Y-78028531D02*
X96022178Y-77886324D01*
X96022178Y-77886324D02*
X96019602Y-77600621D01*
X96019602Y-77600621D02*
X95946889Y-77458414D01*
X95946889Y-77458414D02*
X95874819Y-77387632D01*
X95874819Y-77387632D02*
X95731324Y-77317494D01*
X95731324Y-77317494D02*
X95445622Y-77320069D01*
X95445622Y-77320069D02*
X95303414Y-77392782D01*
X95303414Y-77392782D02*
X95232632Y-77464852D01*
X95232632Y-77464852D02*
X95162494Y-77608347D01*
X95162494Y-77608347D02*
X95165070Y-77894050D01*
X95165070Y-77894050D02*
X95237783Y-78036257D01*
X95237783Y-78036257D02*
X95309852Y-78107039D01*
X95309852Y-78107039D02*
X95453348Y-78177177D01*
X95453348Y-78177177D02*
X95739050Y-78174602D01*
X95739050Y-78174602D02*
X95881258Y-78101888D01*
X95881258Y-78101888D02*
X95952040Y-78029819D01*
X95952040Y-78029819D02*
X96022178Y-77886324D01*
X96679173Y-79451893D02*
X96676598Y-79166191D01*
X96676598Y-79166191D02*
X96603884Y-79023983D01*
X96603884Y-79023983D02*
X96531815Y-78953201D01*
X96531815Y-78953201D02*
X96316250Y-78812282D01*
X96316250Y-78812282D02*
X96029904Y-78743431D01*
X96029904Y-78743431D02*
X95458498Y-78748582D01*
X95458498Y-78748582D02*
X95316291Y-78821295D01*
X95316291Y-78821295D02*
X95245509Y-78893365D01*
X95245509Y-78893365D02*
X95175371Y-79036860D01*
X95175371Y-79036860D02*
X95177946Y-79322563D01*
X95177946Y-79322563D02*
X95250660Y-79464770D01*
X95250660Y-79464770D02*
X95322729Y-79535552D01*
X95322729Y-79535552D02*
X95466224Y-79605690D01*
X95466224Y-79605690D02*
X95823353Y-79602471D01*
X95823353Y-79602471D02*
X95965560Y-79529758D01*
X95965560Y-79529758D02*
X96036342Y-79457688D01*
X96036342Y-79457688D02*
X96106480Y-79314193D01*
X96106480Y-79314193D02*
X96103905Y-79028490D01*
X96103905Y-79028490D02*
X96031191Y-78886283D01*
X96031191Y-78886283D02*
X95959122Y-78815501D01*
X95959122Y-78815501D02*
X95815627Y-78745363D01*
X96045356Y-80457647D02*
X96115494Y-80314152D01*
X96115494Y-80314152D02*
X96186276Y-80242082D01*
X96186276Y-80242082D02*
X96328483Y-80169369D01*
X96328483Y-80169369D02*
X96399909Y-80168725D01*
X96399909Y-80168725D02*
X96543404Y-80238863D01*
X96543404Y-80238863D02*
X96615473Y-80309645D01*
X96615473Y-80309645D02*
X96688187Y-80451852D01*
X96688187Y-80451852D02*
X96690762Y-80737555D01*
X96690762Y-80737555D02*
X96620624Y-80881050D01*
X96620624Y-80881050D02*
X96549842Y-80953120D01*
X96549842Y-80953120D02*
X96407635Y-81025833D01*
X96407635Y-81025833D02*
X96336209Y-81026477D01*
X96336209Y-81026477D02*
X96192714Y-80956339D01*
X96192714Y-80956339D02*
X96120644Y-80885557D01*
X96120644Y-80885557D02*
X96047931Y-80743350D01*
X96047931Y-80743350D02*
X96045356Y-80457647D01*
X96045356Y-80457647D02*
X95972642Y-80315439D01*
X95972642Y-80315439D02*
X95900573Y-80244658D01*
X95900573Y-80244658D02*
X95757078Y-80174520D01*
X95757078Y-80174520D02*
X95471375Y-80177095D01*
X95471375Y-80177095D02*
X95329168Y-80249808D01*
X95329168Y-80249808D02*
X95258386Y-80321878D01*
X95258386Y-80321878D02*
X95188248Y-80465373D01*
X95188248Y-80465373D02*
X95190823Y-80751076D01*
X95190823Y-80751076D02*
X95263536Y-80893283D01*
X95263536Y-80893283D02*
X95335606Y-80964065D01*
X95335606Y-80964065D02*
X95479101Y-81034203D01*
X95479101Y-81034203D02*
X95764804Y-81031628D01*
X95764804Y-81031628D02*
X95907011Y-80958914D01*
X95907011Y-80958914D02*
X95977793Y-80886845D01*
X95977793Y-80886845D02*
X96047931Y-80743350D01*
X95209494Y-82822420D02*
X96209454Y-82813406D01*
X96066602Y-82814693D02*
X96138672Y-82885475D01*
X96138672Y-82885475D02*
X96211385Y-83027683D01*
X96211385Y-83027683D02*
X96213317Y-83241960D01*
X96213317Y-83241960D02*
X96143179Y-83385455D01*
X96143179Y-83385455D02*
X96000971Y-83458168D01*
X96000971Y-83458168D02*
X95215289Y-83465251D01*
X96000971Y-83458168D02*
X96144466Y-83528306D01*
X96144466Y-83528306D02*
X96217180Y-83670514D01*
X96217180Y-83670514D02*
X96219111Y-83884791D01*
X96219111Y-83884791D02*
X96148973Y-84028286D01*
X96148973Y-84028286D02*
X96006766Y-84100999D01*
X96006766Y-84100999D02*
X95221083Y-84108082D01*
X95227522Y-84822338D02*
X96227481Y-84813325D01*
X96084630Y-84814612D02*
X96156699Y-84885394D01*
X96156699Y-84885394D02*
X96229413Y-85027602D01*
X96229413Y-85027602D02*
X96231344Y-85241879D01*
X96231344Y-85241879D02*
X96161206Y-85385374D01*
X96161206Y-85385374D02*
X96018999Y-85458087D01*
X96018999Y-85458087D02*
X95233316Y-85465169D01*
X96018999Y-85458087D02*
X96162494Y-85528225D01*
X96162494Y-85528225D02*
X96235207Y-85670433D01*
X96235207Y-85670433D02*
X96237139Y-85884710D01*
X96237139Y-85884710D02*
X96167001Y-86028205D01*
X96167001Y-86028205D02*
X96024793Y-86100918D01*
X96024793Y-86100918D02*
X95239111Y-86108000D01*
D12*
X110320220Y-56570307D02*
X93266081Y-56724034D01*
X110726620Y-101655307D02*
X93672481Y-101809034D01*
X93852477Y-56718748D02*
X94258877Y-101803748D01*
X93852477Y-56718748D02*
X94258877Y-101803748D01*
X93852477Y-56718748D02*
X94449028Y-57839920D01*
X93852477Y-56718748D02*
X93276234Y-57850492D01*
X94258877Y-101803748D02*
X93662326Y-100682576D01*
X94258877Y-101803748D02*
X94835120Y-100672004D01*
%TA.AperFunction,EtchedComponent*%
%TO.C,JP1*%
G36*
X119700600Y-76612800D02*
G01*
X119300600Y-76612800D01*
X119300600Y-76112800D01*
X119700600Y-76112800D01*
X119700600Y-76612800D01*
G37*
%TD.AperFunction*%
%TA.AperFunction,EtchedComponent*%
G36*
X118900600Y-76612800D02*
G01*
X118500600Y-76612800D01*
X118500600Y-76112800D01*
X118900600Y-76112800D01*
X118900600Y-76612800D01*
G37*
%TD.AperFunction*%
%TD*%
D13*
%TO.P,U3,39,GND*%
%TO.N,GND*%
X137161000Y-71485400D03*
X136436000Y-72185400D03*
X136436000Y-69385400D03*
X137161000Y-70085400D03*
X137836000Y-69385400D03*
X135736000Y-70085400D03*
X137836000Y-70785400D03*
X138536000Y-71485400D03*
X137836000Y-72185400D03*
X135736000Y-71485400D03*
X136436000Y-70785400D03*
X138536000Y-70085400D03*
%TD*%
D14*
%TO.P,D2,1,K*%
%TO.N,Net-(D2-Pad1)*%
X138226800Y-94512400D03*
%TO.P,D2,2,A*%
%TO.N,Net-(D1-Pad2)*%
X138226800Y-91212400D03*
%TD*%
D15*
%TO.P,D4,1,K*%
%TO.N,Net-(D4-Pad1)*%
X133120400Y-68707000D03*
%TO.P,D4,2,A*%
%TO.N,Net-(D4-Pad2)*%
X129820400Y-68707000D03*
%TD*%
D16*
%TO.P,D6,1,K*%
%TO.N,Net-(D4-Pad1)*%
X138558000Y-89306400D03*
%TO.P,D6,2,A*%
%TO.N,SW_REED*%
X141858000Y-89306400D03*
%TD*%
D14*
%TO.P,D5,1,K*%
%TO.N,Net-(D4-Pad1)*%
X136220200Y-87425800D03*
%TO.P,D5,2,A*%
%TO.N,WU_BUT*%
X136220200Y-84125800D03*
%TD*%
D15*
%TO.P,D7,1,K*%
%TO.N,Net-(D7-Pad1)*%
X132663200Y-75717400D03*
%TO.P,D7,2,A*%
%TO.N,MCU_HOLD*%
X129363200Y-75717400D03*
%TD*%
D14*
%TO.P,D1,1,K*%
%TO.N,Net-(D1-Pad1)*%
X127304800Y-94284800D03*
%TO.P,D1,2,A*%
%TO.N,Net-(D1-Pad2)*%
X127304800Y-90984800D03*
%TD*%
D17*
%TO.P,R17,1*%
%TO.N,RTS*%
X137757400Y-62788800D03*
%TO.P,R17,2*%
%TO.N,Net-(Q4-Pad5)*%
X139407400Y-62788800D03*
%TD*%
D18*
%TO.P,R9,1*%
%TO.N,Net-(D4-Pad2)*%
X128320800Y-68212200D03*
%TO.P,R9,2*%
%TO.N,Net-(Q3-Pad3)*%
X128320800Y-69862200D03*
%TD*%
D19*
%TO.P,TP3,1,1*%
%TO.N,SW_REED*%
X138099800Y-100431600D03*
%TD*%
D20*
%TO.P,Q4,1,E1*%
%TO.N,RTS*%
X137673800Y-64446600D03*
%TO.P,Q4,2,B1*%
%TO.N,Net-(Q4-Pad2)*%
X137673800Y-65096600D03*
%TO.P,Q4,3,C2*%
%TO.N,IO0*%
X137673800Y-65746600D03*
%TO.P,Q4,4,E2*%
%TO.N,DRT*%
X139573800Y-65746600D03*
%TO.P,Q4,5,B2*%
%TO.N,Net-(Q4-Pad5)*%
X139573800Y-65096600D03*
%TO.P,Q4,6,C1*%
%TO.N,RST*%
X139573800Y-64446600D03*
%TD*%
D21*
%TO.P,C1,1*%
%TO.N,Net-(C1-Pad1)*%
X141719600Y-92760800D03*
%TO.P,C1,2*%
%TO.N,GND*%
X140169600Y-92760800D03*
%TD*%
D22*
%TO.P,C8,1*%
%TO.N,VDD*%
X122682000Y-79616000D03*
%TO.P,C8,2*%
%TO.N,GND*%
X122682000Y-81166000D03*
%TD*%
D17*
%TO.P,R19,1*%
%TO.N,GND*%
X140068800Y-72593200D03*
%TO.P,R19,2*%
%TO.N,V_SENSE*%
X141718800Y-72593200D03*
%TD*%
D19*
%TO.P,TP2,1,1*%
%TO.N,GND*%
X119456200Y-97739200D03*
%TD*%
D23*
%TO.P,Q1,1,G*%
%TO.N,+3V3*%
X124444800Y-96725500D03*
%TO.P,Q1,2,S*%
%TO.N,GND*%
X122544800Y-96725500D03*
%TO.P,Q1,3,D*%
%TO.N,Net-(Q1-Pad3)*%
X123494800Y-98600500D03*
%TD*%
D17*
%TO.P,R5,1*%
%TO.N,Net-(D1-Pad2)*%
X140145000Y-91236800D03*
%TO.P,R5,2*%
%TO.N,Net-(C1-Pad1)*%
X141795000Y-91236800D03*
%TD*%
D24*
%TO.P,R20,1*%
%TO.N,SDA*%
X123494800Y-74789800D03*
%TO.P,R20,2*%
%TO.N,+3V3*%
X123494800Y-73139800D03*
%TD*%
D19*
%TO.P,TP1,1,1*%
%TO.N,CLKOUT*%
X124409200Y-77089000D03*
%TD*%
D24*
%TO.P,R11,1*%
%TO.N,~{INT}*%
X132207000Y-72935600D03*
%TO.P,R11,2*%
%TO.N,VDD*%
X132207000Y-71285600D03*
%TD*%
D25*
%TO.P,R16,1*%
%TO.N,DRT*%
X139509000Y-67360800D03*
%TO.P,R16,2*%
%TO.N,Net-(Q4-Pad2)*%
X137859000Y-67360800D03*
%TD*%
D26*
%TO.P,U2,1,VIN*%
%TO.N,Net-(C4-Pad1)*%
X124031000Y-87243500D03*
%TO.P,U2,2,GND*%
%TO.N,GND*%
X124981000Y-87243500D03*
%TO.P,U2,3,EN*%
%TO.N,Net-(C4-Pad1)*%
X125931000Y-87243500D03*
%TO.P,U2,4,NC*%
%TO.N,unconnected-(U2-Pad4)*%
X125931000Y-84968500D03*
%TO.P,U2,5,VOUT*%
%TO.N,+3V3*%
X124031000Y-84968500D03*
%TD*%
D27*
%TO.P,R13,1*%
%TO.N,Net-(D7-Pad1)*%
X134571100Y-75717400D03*
%TO.P,R13,2*%
%TO.N,Net-(D4-Pad1)*%
X136396100Y-75717400D03*
%TD*%
D24*
%TO.P,R21,1*%
%TO.N,SCL*%
X125044200Y-74789800D03*
%TO.P,R21,2*%
%TO.N,+3V3*%
X125044200Y-73139800D03*
%TD*%
D28*
%TO.P,SW2,*%
%TO.N,*%
X121016000Y-83091000D03*
X118806000Y-83091000D03*
X121016000Y-90391000D03*
X118806000Y-90391000D03*
D29*
%TO.P,SW2,1,A*%
%TO.N,Net-(C4-Pad1)*%
X121666000Y-84491000D03*
%TO.P,SW2,2,B*%
%TO.N,VCC_SW*%
X121666000Y-87491000D03*
%TO.P,SW2,3,C*%
%TO.N,+3V3*%
X121666000Y-88991000D03*
%TD*%
D30*
%TO.P,JP1,1,A*%
%TO.N,GND*%
X119100600Y-75712800D03*
D31*
%TO.P,JP1,2,C*%
%TO.N,Net-(JP1-Pad2)*%
X119100600Y-77012800D03*
D32*
%TO.P,JP1,3,B*%
%TO.N,VDD*%
X119100600Y-78312800D03*
%TD*%
D24*
%TO.P,R4,1*%
%TO.N,GND*%
X138252200Y-97573600D03*
%TO.P,R4,2*%
%TO.N,Net-(D2-Pad1)*%
X138252200Y-95923600D03*
%TD*%
D21*
%TO.P,C4,1*%
%TO.N,Net-(C4-Pad1)*%
X125527400Y-83185000D03*
%TO.P,C4,2*%
%TO.N,GND*%
X123977400Y-83185000D03*
%TD*%
D33*
%TO.P,Q5,1,G*%
%TO.N,Net-(D4-Pad1)*%
X139156400Y-84981500D03*
%TO.P,Q5,2,S*%
%TO.N,GND*%
X141056400Y-84981500D03*
%TO.P,Q5,3,D*%
%TO.N,Net-(Q5-Pad3)*%
X140106400Y-83106500D03*
%TD*%
D25*
%TO.P,R18,1*%
%TO.N,V_SENSE*%
X141718800Y-74295000D03*
%TO.P,R18,2*%
%TO.N,VCC_SW*%
X140068800Y-74295000D03*
%TD*%
D34*
%TO.P,SW1,1,1*%
%TO.N,Net-(D1-Pad2)*%
X132765800Y-91871800D03*
D35*
%TO.P,SW1,2,2*%
%TO.N,VDD*%
X132765800Y-88871800D03*
%TD*%
D21*
%TO.P,C7,1*%
%TO.N,V_SENSE*%
X141668800Y-70891400D03*
%TO.P,C7,2*%
%TO.N,GND*%
X140118800Y-70891400D03*
%TD*%
%TO.P,C3,1*%
%TO.N,VDD*%
X142354600Y-100228400D03*
%TO.P,C3,2*%
%TO.N,GND*%
X140804600Y-100228400D03*
%TD*%
D36*
%TO.P,C6,1*%
%TO.N,+3V3*%
X124002800Y-89001600D03*
%TO.P,C6,2*%
%TO.N,GND*%
X125552800Y-89001600D03*
%TD*%
D24*
%TO.P,R7,1*%
%TO.N,Net-(Q2-Pad1)*%
X132918200Y-80631800D03*
%TO.P,R7,2*%
%TO.N,VDD*%
X132918200Y-78981800D03*
%TD*%
D18*
%TO.P,R22,1*%
%TO.N,~{INT}*%
X121132600Y-79566000D03*
%TO.P,R22,2*%
%TO.N,VDD*%
X121132600Y-81216000D03*
%TD*%
D21*
%TO.P,C2,1*%
%TO.N,Net-(C1-Pad1)*%
X141706600Y-94259400D03*
%TO.P,C2,2*%
%TO.N,GND*%
X140156600Y-94259400D03*
%TD*%
D37*
%TO.P,J2,1,Pin_1*%
%TO.N,DRT*%
X148437200Y-64332800D03*
D38*
%TO.P,J2,2,Pin_2*%
%TO.N,RTS*%
X148437200Y-66872800D03*
%TO.P,J2,3,Pin_3*%
%TO.N,TX*%
X148437200Y-69412800D03*
%TO.P,J2,4,Pin_4*%
%TO.N,RX*%
X148437200Y-71952800D03*
%TO.P,J2,5,Pin_5*%
%TO.N,+3V3*%
X148437200Y-74492800D03*
%TO.P,J2,6,Pin_6*%
%TO.N,unconnected-(J2-Pad6)*%
X148437200Y-77032800D03*
%TO.P,J2,7,Pin_7*%
%TO.N,GND*%
X148437200Y-79572800D03*
%TD*%
D17*
%TO.P,R3,1*%
%TO.N,Net-(Q1-Pad3)*%
X122746000Y-100457000D03*
%TO.P,R3,2*%
%TO.N,C_REED*%
X124396000Y-100457000D03*
%TD*%
D19*
%TO.P,TP4,1,1*%
%TO.N,+3V3*%
X119405400Y-99796600D03*
%TD*%
D24*
%TO.P,R2,1*%
%TO.N,C_REED*%
X127279400Y-97446600D03*
%TO.P,R2,2*%
%TO.N,Net-(D1-Pad1)*%
X127279400Y-95796600D03*
%TD*%
D17*
%TO.P,R15,1*%
%TO.N,Net-(Q5-Pad3)*%
X139230600Y-81150700D03*
%TO.P,R15,2*%
%TO.N,VDD*%
X140880600Y-81150700D03*
%TD*%
D24*
%TO.P,R10,1*%
%TO.N,WU_BUT*%
X136169400Y-82714600D03*
%TO.P,R10,2*%
%TO.N,Net-(Q2-Pad3)*%
X136169400Y-81064600D03*
%TD*%
D39*
%TO.P,U1,1*%
%TO.N,Net-(D1-Pad2)*%
X142148600Y-95966700D03*
%TO.P,U1,2*%
%TO.N,Net-(C1-Pad1)*%
X141198600Y-95966700D03*
%TO.P,U1,3,GND*%
%TO.N,GND*%
X140248600Y-95966700D03*
%TO.P,U1,4*%
%TO.N,SW_REED*%
X140248600Y-98241700D03*
%TO.P,U1,5,VCC*%
%TO.N,VDD*%
X142148600Y-98241700D03*
%TD*%
D40*
%TO.P,Q2,1,G*%
%TO.N,Net-(Q2-Pad1)*%
X131036300Y-80731400D03*
%TO.P,Q2,2,S*%
%TO.N,VDD*%
X131036300Y-78831400D03*
%TO.P,Q2,3,D*%
%TO.N,Net-(Q2-Pad3)*%
X129161300Y-79781400D03*
%TD*%
D41*
%TO.P,C5,1*%
%TO.N,+3V3*%
X144500600Y-64427400D03*
%TO.P,C5,2*%
%TO.N,GND*%
X144500600Y-62877400D03*
%TD*%
D17*
%TO.P,R1,1*%
%TO.N,GND*%
X122720600Y-94792800D03*
%TO.P,R1,2*%
%TO.N,+3V3*%
X124370600Y-94792800D03*
%TD*%
D33*
%TO.P,Q6,1,G*%
%TO.N,Net-(Q5-Pad3)*%
X139131000Y-79141800D03*
%TO.P,Q6,2,S*%
%TO.N,VDD*%
X141031000Y-79141800D03*
%TO.P,Q6,3,D*%
%TO.N,VCC_SW*%
X140081000Y-77266800D03*
%TD*%
D40*
%TO.P,Q3,1,G*%
%TO.N,~{INT}*%
X130452100Y-73263800D03*
%TO.P,Q3,2,S*%
%TO.N,VDD*%
X130452100Y-71363800D03*
%TO.P,Q3,3,D*%
%TO.N,Net-(Q3-Pad3)*%
X128577100Y-72313800D03*
%TD*%
D25*
%TO.P,R14,1*%
%TO.N,GND*%
X140880600Y-87020400D03*
%TO.P,R14,2*%
%TO.N,Net-(D4-Pad1)*%
X139230600Y-87020400D03*
%TD*%
D42*
%TO.P,J3,1,Pin_1*%
%TO.N,SCL*%
X122058600Y-70132200D03*
D43*
%TO.P,J3,2,Pin_2*%
%TO.N,SDA*%
X122058600Y-68132200D03*
%TO.P,J3,3,Pin_3*%
%TO.N,+3V3*%
X122058600Y-66132200D03*
%TO.P,J3,4,Pin_4*%
%TO.N,GND*%
X122058600Y-64132200D03*
%TD*%
D44*
%TO.P,J1,1,Pin_1*%
%TO.N,GND*%
X147761200Y-98129000D03*
D45*
%TO.P,J1,2,Pin_2*%
%TO.N,VDD*%
X145761200Y-98129000D03*
%TD*%
D46*
%TO.P,U4,1,NC*%
%TO.N,unconnected-(U4-Pad1)*%
X120993200Y-75227200D03*
%TO.P,U4,2,Vss*%
%TO.N,GND*%
X120993200Y-76127200D03*
%TO.P,U4,3,CLKOE*%
%TO.N,Net-(JP1-Pad2)*%
X120993200Y-77027200D03*
%TO.P,U4,4,~{INT}*%
%TO.N,~{INT}*%
X120993200Y-77927200D03*
%TO.P,U4,5,Vdd*%
%TO.N,VDD*%
X122193200Y-77927200D03*
%TO.P,U4,6,CLKOUT*%
%TO.N,CLKOUT*%
X122193200Y-77027200D03*
%TO.P,U4,7,SCL*%
%TO.N,SCL*%
X122193200Y-76127200D03*
%TO.P,U4,8,SDA*%
%TO.N,SDA*%
X122193200Y-75227200D03*
%TD*%
D47*
%TO.N,GND*%
X142468600Y-81153000D03*
X129336800Y-63068200D03*
X129489200Y-92303600D03*
X121818400Y-95580200D03*
X123126500Y-82334100D03*
X149199600Y-99542600D03*
X142468600Y-80314800D03*
X124333000Y-63060400D03*
X124981000Y-88302800D03*
X139340102Y-97667300D03*
X139725400Y-100228400D03*
X142646400Y-63042800D03*
X143306800Y-93624400D03*
X140880600Y-86144600D03*
X145643600Y-63068200D03*
X136271000Y-93878400D03*
X119100600Y-74472800D03*
X125433000Y-63060400D03*
X147751800Y-100025200D03*
X140156600Y-93498000D03*
%TO.N,VDD*%
X141325600Y-98221800D03*
X140081000Y-78917800D03*
X133908800Y-78917800D03*
X144373600Y-99542600D03*
X119075200Y-79502000D03*
X145770600Y-99999800D03*
X123012200Y-77901800D03*
X131089400Y-72288400D03*
%TO.N,+3V3*%
X124942600Y-84480400D03*
X122819600Y-88991000D03*
X142671800Y-64338200D03*
X145618200Y-64312800D03*
X130288800Y-82969600D03*
%TO.N,V_SENSE*%
X142671800Y-71120000D03*
%TO.N,~{INT}*%
X120993200Y-78752400D03*
X128854200Y-74193400D03*
%TO.N,MCU_HOLD*%
X128574800Y-75742800D03*
%TO.N,TX*%
X142319988Y-68119012D03*
%TO.N,RX*%
X142367000Y-69545200D03*
%TO.N,IO0*%
X125526800Y-79603600D03*
%TO.N,RST*%
X141351000Y-64439800D03*
X128346200Y-82829400D03*
%TO.N,VCC_SW*%
X121691400Y-86537800D03*
X139192000Y-77368400D03*
%TO.N,C_REED*%
X127279400Y-97942400D03*
%TO.N,WU_BUT*%
X131955079Y-76858487D03*
%TO.N,Net-(Q2-Pad1)*%
X137617878Y-85298033D03*
%TD*%
D48*
%TO.N,Net-(D4-Pad1)*%
X136396100Y-75717400D02*
X134803700Y-74125000D01*
X134803700Y-74125000D02*
X133300000Y-74125000D01*
X133300000Y-74125000D02*
X133120400Y-73945400D01*
X133120400Y-73945400D02*
X133120400Y-68707000D01*
%TO.N,GND*%
X138430000Y-72263000D02*
X137411100Y-72263000D01*
X137411100Y-72263000D02*
X137078500Y-71930400D01*
D49*
%TO.N,VDD*%
X121132600Y-81216000D02*
X119966000Y-81216000D01*
X119966000Y-81216000D02*
X119075200Y-80325200D01*
X119075200Y-80325200D02*
X119075200Y-79502000D01*
X123012200Y-77901800D02*
X123012200Y-79285800D01*
X123012200Y-79285800D02*
X122682000Y-79616000D01*
X122193200Y-77927200D02*
X122193200Y-79127200D01*
X122193200Y-79127200D02*
X122682000Y-79616000D01*
D50*
X142354600Y-100228400D02*
X143687800Y-100228400D01*
X143687800Y-100228400D02*
X144373600Y-99542600D01*
D48*
%TO.N,Net-(C1-Pad1)*%
X141706600Y-91236800D02*
X141757400Y-91186000D01*
X141706600Y-92710000D02*
X141706600Y-91236800D01*
X141198600Y-95966700D02*
X141198600Y-94767400D01*
X141198600Y-94767400D02*
X141706600Y-94259400D01*
X141706600Y-94259400D02*
X141706600Y-92710000D01*
%TO.N,GND*%
X140118800Y-70891400D02*
X140118800Y-72543200D01*
X124981000Y-87243500D02*
X124981000Y-88302800D01*
X122720600Y-94792800D02*
X122720600Y-95669600D01*
X140068800Y-72593200D02*
X138760200Y-72593200D01*
X123126500Y-82334100D02*
X123977400Y-83185000D01*
X124981000Y-88429800D02*
X125552800Y-89001600D01*
X140880600Y-87020400D02*
X140880600Y-86144600D01*
X145452800Y-62877400D02*
X145643600Y-63068200D01*
D49*
X139170202Y-97497400D02*
X139340102Y-97667300D01*
D48*
X140156600Y-92710000D02*
X140156600Y-93498000D01*
X122682000Y-81889600D02*
X123126500Y-82334100D01*
X122631200Y-95580200D02*
X122720600Y-95669600D01*
X140880600Y-86144600D02*
X140880600Y-85157300D01*
X140248600Y-94351400D02*
X140156600Y-94259400D01*
X119100600Y-75712800D02*
X119100600Y-74472800D01*
X138760200Y-72593200D02*
X138430000Y-72263000D01*
X124981000Y-88302800D02*
X124981000Y-88429800D01*
X142811800Y-62877400D02*
X142646400Y-63042800D01*
X140156600Y-93498000D02*
X140156600Y-94259400D01*
D49*
X144500600Y-62877400D02*
X145452800Y-62877400D01*
D48*
X121615200Y-95580200D02*
X121818400Y-95580200D01*
X122720600Y-95669600D02*
X122720600Y-96549700D01*
X122682000Y-81166000D02*
X122682000Y-81889600D01*
D49*
X144500600Y-62877400D02*
X142811800Y-62877400D01*
D48*
X119456200Y-97739200D02*
X121615200Y-95580200D01*
X122720600Y-96549700D02*
X122544800Y-96725500D01*
X139725400Y-100228400D02*
X140804600Y-100228400D01*
X140880600Y-85157300D02*
X141056400Y-84981500D01*
X120993200Y-76127200D02*
X120678800Y-76127200D01*
X121818400Y-95580200D02*
X122631200Y-95580200D01*
X140118800Y-72543200D02*
X140068800Y-72593200D01*
X120678800Y-76127200D02*
X120264400Y-75712800D01*
D49*
X138252200Y-97497400D02*
X139170202Y-97497400D01*
D48*
X140248600Y-95966700D02*
X140248600Y-94351400D01*
X120264400Y-75712800D02*
X119100600Y-75712800D01*
%TO.N,VDD*%
X130452100Y-71651100D02*
X131089400Y-72288400D01*
X141325600Y-98221800D02*
X142128700Y-98221800D01*
D49*
X132918200Y-78841600D02*
X131186700Y-78841600D01*
D48*
X130530300Y-71285600D02*
X130452100Y-71363800D01*
X131186700Y-78981800D02*
X131036300Y-78831400D01*
X141031000Y-81000300D02*
X140880600Y-81150700D01*
X132207000Y-71285600D02*
X130530300Y-71285600D01*
X141031000Y-79141800D02*
X141031000Y-81000300D01*
D49*
X133908800Y-78917800D02*
X132982200Y-78917800D01*
X121132600Y-81165400D02*
X122682000Y-79616000D01*
D48*
X142128700Y-98221800D02*
X142148600Y-98241700D01*
X140081000Y-78917800D02*
X140807000Y-78917800D01*
X140807000Y-78917800D02*
X141031000Y-79141800D01*
D49*
X132982200Y-78917800D02*
X132918200Y-78981800D01*
D48*
X130452100Y-71363800D02*
X130452100Y-71651100D01*
D49*
%TO.N,Net-(C4-Pad1)*%
X124031000Y-86856000D02*
X121666000Y-84491000D01*
D48*
X125527400Y-83185000D02*
X126555520Y-84213120D01*
X124031000Y-87243500D02*
X124031000Y-86856000D01*
X125304072Y-86233000D02*
X125931000Y-86859928D01*
X125931000Y-86859928D02*
X125931000Y-87243500D01*
X124657928Y-86233000D02*
X125304072Y-86233000D01*
X124031000Y-86859928D02*
X124657928Y-86233000D01*
X126555520Y-84213120D02*
X126555520Y-86618980D01*
X126555520Y-86618980D02*
X125931000Y-87243500D01*
X124031000Y-87243500D02*
X124031000Y-86859928D01*
D49*
%TO.N,+3V3*%
X124256800Y-68186800D02*
X122047000Y-65977000D01*
X144500600Y-64427400D02*
X142761000Y-64427400D01*
X124031000Y-84968500D02*
X124454500Y-84968500D01*
X124454500Y-84968500D02*
X124942600Y-84480400D01*
X124256800Y-73075800D02*
X124256800Y-68186800D01*
D48*
X120882272Y-99796600D02*
X119405400Y-99796600D01*
D50*
X122819600Y-88991000D02*
X123992200Y-88991000D01*
D49*
X124320800Y-73139800D02*
X124256800Y-73075800D01*
X144500600Y-64427400D02*
X145503600Y-64427400D01*
D50*
X123992200Y-88991000D02*
X124002800Y-89001600D01*
X124002800Y-89001600D02*
X124002800Y-94425000D01*
X124002800Y-94425000D02*
X124370600Y-94792800D01*
D49*
X124320800Y-73139800D02*
X123494800Y-73139800D01*
D48*
X124444800Y-96725500D02*
X123953372Y-96725500D01*
X124370600Y-96651300D02*
X124444800Y-96725500D01*
X142761000Y-64427400D02*
X142671800Y-64338200D01*
D50*
X121666000Y-88991000D02*
X122819600Y-88991000D01*
D49*
X124370600Y-94792800D02*
X124370600Y-96651300D01*
D48*
X123953372Y-96725500D02*
X120882272Y-99796600D01*
X145503600Y-64427400D02*
X145618200Y-64312800D01*
D49*
X125044200Y-73139800D02*
X124320800Y-73139800D01*
D48*
%TO.N,V_SENSE*%
X141668800Y-70891400D02*
X141668800Y-72543200D01*
X141668800Y-72543200D02*
X141718800Y-72593200D01*
X141718800Y-72593200D02*
X141718800Y-74295000D01*
X141668800Y-70891400D02*
X142443200Y-70891400D01*
X142443200Y-70891400D02*
X142671800Y-71120000D01*
%TO.N,Net-(D1-Pad1)*%
X127279400Y-95796600D02*
X127279400Y-94310200D01*
X127279400Y-94310200D02*
X127304800Y-94284800D01*
%TO.N,Net-(D1-Pad2)*%
X140130960Y-91236800D02*
X140145000Y-91236800D01*
X139382080Y-96506880D02*
X139382080Y-91985680D01*
X132765800Y-91871800D02*
X133501400Y-91136200D01*
X127304800Y-90984800D02*
X131878800Y-90984800D01*
X142148600Y-96408200D02*
X142148600Y-95966700D01*
X139852400Y-96977200D02*
X139382080Y-96506880D01*
X131878800Y-90984800D02*
X132765800Y-91871800D01*
X133501400Y-91136200D02*
X140057600Y-91136200D01*
X139382080Y-91985680D02*
X140130960Y-91236800D01*
X140057600Y-91136200D02*
X140107400Y-91186000D01*
X141579600Y-96977200D02*
X142148600Y-96408200D01*
X139852400Y-96977200D02*
X141579600Y-96977200D01*
%TO.N,Net-(D2-Pad1)*%
X138226800Y-95898200D02*
X138252200Y-95923600D01*
X138226800Y-94512400D02*
X138226800Y-95898200D01*
%TO.N,~{INT}*%
X128854200Y-74193400D02*
X129522500Y-74193400D01*
X131878800Y-73263800D02*
X132207000Y-72935600D01*
X129522500Y-74193400D02*
X130452100Y-73263800D01*
X120993200Y-77927200D02*
X120993200Y-79426600D01*
X130452100Y-73263800D02*
X131878800Y-73263800D01*
%TO.N,Net-(D4-Pad1)*%
X137472480Y-78118998D02*
X137472480Y-75633520D01*
X136479980Y-75633520D02*
X136396100Y-75717400D01*
X139166600Y-84971300D02*
X139166600Y-82397600D01*
X139156400Y-84981500D02*
X139166600Y-84971300D01*
X138210941Y-78857459D02*
X137472480Y-78118998D01*
X139230600Y-85055700D02*
X139156400Y-84981500D01*
X138558000Y-89306400D02*
X138100800Y-89306400D01*
X138558000Y-89306400D02*
X138558000Y-87693000D01*
X139230600Y-87020400D02*
X139230600Y-85055700D01*
X138558000Y-87693000D02*
X139230600Y-87020400D01*
X139166600Y-82397600D02*
X138210941Y-81441941D01*
X138210941Y-81441941D02*
X138210941Y-78857459D01*
X138100800Y-89306400D02*
X136220200Y-87425800D01*
X137472480Y-75633520D02*
X136479980Y-75633520D01*
%TO.N,SW_REED*%
X142582289Y-95066817D02*
X142773120Y-95257648D01*
X141858000Y-89306400D02*
X142570200Y-90246200D01*
X141235620Y-99228720D02*
X140248600Y-98241700D01*
X140248600Y-98282800D02*
X138099800Y-100431600D01*
X142495152Y-99228720D02*
X141235620Y-99228720D01*
X142773120Y-95257648D02*
X142773120Y-98950752D01*
X142773120Y-98950752D02*
X142495152Y-99228720D01*
X142570200Y-90246200D02*
X142582289Y-95066817D01*
%TO.N,Net-(D4-Pad2)*%
X129325600Y-68212200D02*
X129820400Y-68707000D01*
X128320800Y-68212200D02*
X129325600Y-68212200D01*
D49*
%TO.N,MCU_HOLD*%
X128600200Y-75717400D02*
X128574800Y-75742800D01*
X129363200Y-75717400D02*
X128600200Y-75717400D01*
X129363200Y-75717400D02*
X128837398Y-75717400D01*
X128837398Y-75717400D02*
X128820399Y-75734399D01*
D48*
%TO.N,DRT*%
X139573800Y-65746600D02*
X147023400Y-65746600D01*
X139509000Y-67360800D02*
X139509000Y-65811400D01*
X147023400Y-65746600D02*
X148437200Y-64332800D01*
X139509000Y-65811400D02*
X139573800Y-65746600D01*
%TO.N,RTS*%
X149611711Y-63158289D02*
X149611711Y-65698289D01*
X137757400Y-62788800D02*
X138556920Y-61989280D01*
X137757400Y-62788800D02*
X137757400Y-64363000D01*
X138556920Y-61989280D02*
X148442702Y-61989280D01*
X148442702Y-61989280D02*
X149611711Y-63158289D01*
X149611711Y-65698289D02*
X148437200Y-66872800D01*
X137757400Y-64363000D02*
X137673800Y-64446600D01*
D49*
%TO.N,TX*%
X142319988Y-68119012D02*
X147143412Y-68119012D01*
X147143412Y-68119012D02*
X148437200Y-69412800D01*
%TO.N,RX*%
X144774600Y-71952800D02*
X148437200Y-71952800D01*
X142367000Y-69545200D02*
X144774600Y-71952800D01*
D48*
%TO.N,SCL*%
X123706800Y-76127200D02*
X125044200Y-74789800D01*
X122193200Y-76127200D02*
X123706800Y-76127200D01*
X125044200Y-74789800D02*
X124316363Y-74061963D01*
X124316363Y-74061963D02*
X123200180Y-74061963D01*
X123200180Y-74061963D02*
X122047000Y-72908783D01*
X122047000Y-72908783D02*
X122047000Y-69977000D01*
%TO.N,SDA*%
X120847480Y-69176520D02*
X122047000Y-67977000D01*
X123057400Y-75227200D02*
X123494800Y-74789800D01*
X120827800Y-73101200D02*
X120847480Y-69176520D01*
X122193200Y-75227200D02*
X123057400Y-75227200D01*
X123494800Y-74789800D02*
X120827800Y-73101200D01*
%TO.N,Net-(JP1-Pad2)*%
X119115000Y-77027200D02*
X119100600Y-77012800D01*
X120993200Y-77027200D02*
X119115000Y-77027200D01*
%TO.N,Net-(Q1-Pad3)*%
X123494800Y-99708200D02*
X122746000Y-100457000D01*
X123494800Y-98600500D02*
X123494800Y-99708200D01*
%TO.N,IO0*%
X126593600Y-77927200D02*
X126593600Y-66649600D01*
X125526800Y-79603600D02*
X125526800Y-78994000D01*
X126593600Y-66649600D02*
X127496600Y-65746600D01*
X127496600Y-65746600D02*
X137673800Y-65746600D01*
X125526800Y-78994000D02*
X126593600Y-77927200D01*
%TO.N,RST*%
X141351000Y-64439800D02*
X139580600Y-64439800D01*
X139580600Y-64439800D02*
X139573800Y-64446600D01*
D49*
%TO.N,VCC_SW*%
X139192000Y-77368400D02*
X139979400Y-77368400D01*
D48*
X140068800Y-74295000D02*
X140068800Y-77254600D01*
D49*
X139979400Y-77368400D02*
X140081000Y-77266800D01*
X121666000Y-86563200D02*
X121691400Y-86537800D01*
X121666000Y-87491000D02*
X121666000Y-86563200D01*
D48*
X140068800Y-77254600D02*
X140081000Y-77266800D01*
%TO.N,C_REED*%
X124396000Y-100457000D02*
X124764800Y-100457000D01*
X124764800Y-100457000D02*
X127279400Y-97942400D01*
X127279400Y-97942400D02*
X127279400Y-97446600D01*
D49*
%TO.N,CLKOUT*%
X122193200Y-77027200D02*
X124347400Y-77027200D01*
X124347400Y-77027200D02*
X124409200Y-77089000D01*
D48*
%TO.N,WU_BUT*%
X136169400Y-82714600D02*
X136867320Y-82016680D01*
X136867320Y-82016680D02*
X136867320Y-82004480D01*
X136867320Y-82004480D02*
X136968920Y-81902880D01*
X136968920Y-81902880D02*
X136968920Y-78678080D01*
X136156200Y-82816200D02*
X136156200Y-84061800D01*
X135149327Y-76858487D02*
X131955079Y-76858487D01*
X136156200Y-84061800D02*
X136220200Y-84125800D01*
X136968920Y-78678080D02*
X135149327Y-76858487D01*
%TO.N,Net-(D7-Pad1)*%
X132663200Y-75717400D02*
X134571100Y-75717400D01*
%TO.N,Net-(Q2-Pad1)*%
X133920920Y-81634520D02*
X133920920Y-83349520D01*
X132918200Y-80631800D02*
X133920920Y-81634520D01*
X135869433Y-85298033D02*
X137617878Y-85298033D01*
X132818600Y-80731400D02*
X132918200Y-80631800D01*
X131036300Y-80731400D02*
X132818600Y-80731400D01*
X133920920Y-83349520D02*
X135737600Y-85166200D01*
X135737600Y-85166200D02*
X135869433Y-85298033D01*
%TO.N,Net-(Q2-Pad3)*%
X134886200Y-79781400D02*
X136169400Y-81064600D01*
X129161300Y-79781400D02*
X134886200Y-79781400D01*
D49*
%TO.N,Net-(Q3-Pad3)*%
X128320800Y-69862200D02*
X128320800Y-72057500D01*
D48*
X128320800Y-72057500D02*
X128577100Y-72313800D01*
%TO.N,Net-(Q4-Pad2)*%
X138323311Y-66896489D02*
X137859000Y-67360800D01*
X137673800Y-65096600D02*
X138248800Y-65096600D01*
X138248800Y-65096600D02*
X138323311Y-65171111D01*
X138323311Y-65171111D02*
X138323311Y-66896489D01*
%TO.N,Net-(Q4-Pad5)*%
X138924289Y-65022089D02*
X138924289Y-63271911D01*
X138998800Y-65096600D02*
X138924289Y-65022089D01*
X138924289Y-63271911D02*
X139407400Y-62788800D01*
X139573800Y-65096600D02*
X138998800Y-65096600D01*
%TO.N,Net-(Q5-Pad3)*%
X139131000Y-79141800D02*
X139131000Y-81051100D01*
X140106400Y-83106500D02*
X140106400Y-82026500D01*
X139131000Y-81051100D02*
X139230600Y-81150700D01*
X140106400Y-82026500D02*
X139230600Y-81150700D01*
%TD*%
%TA.AperFunction,Conductor*%
%TO.N,GND*%
G36*
X131283841Y-62174139D02*
G01*
X131330637Y-62227531D01*
X131342317Y-62281590D01*
X131321163Y-64777825D01*
X131319380Y-64988168D01*
X131298802Y-65056117D01*
X131244754Y-65102153D01*
X131193385Y-65113100D01*
X127580453Y-65113100D01*
X127564611Y-65111350D01*
X127564584Y-65111644D01*
X127556691Y-65110897D01*
X127488601Y-65113038D01*
X127484643Y-65113100D01*
X127456744Y-65113100D01*
X127456738Y-65113100D01*
X127456732Y-65113101D01*
X127452733Y-65113606D01*
X127440913Y-65114536D01*
X127396714Y-65115925D01*
X127396707Y-65115927D01*
X127377249Y-65121579D01*
X127357904Y-65125585D01*
X127337806Y-65128125D01*
X127337798Y-65128127D01*
X127296690Y-65144402D01*
X127285466Y-65148245D01*
X127243008Y-65160581D01*
X127225563Y-65170897D01*
X127207819Y-65179589D01*
X127188981Y-65187048D01*
X127188767Y-65187166D01*
X127188518Y-65187231D01*
X127181615Y-65189965D01*
X127181286Y-65189135D01*
X127129628Y-65202738D01*
X123066492Y-65252929D01*
X122998130Y-65233770D01*
X122950978Y-65180693D01*
X122940007Y-65110549D01*
X122968700Y-65045609D01*
X122987048Y-65027896D01*
X123101686Y-64937744D01*
X123101691Y-64937739D01*
X123240256Y-64777825D01*
X123240257Y-64777824D01*
X123346054Y-64594577D01*
X123346058Y-64594568D01*
X123415262Y-64394615D01*
X123415264Y-64394609D01*
X123416473Y-64386200D01*
X122334478Y-64386200D01*
X122376878Y-64340141D01*
X122427151Y-64225530D01*
X122437486Y-64100805D01*
X122406763Y-63979481D01*
X122340592Y-63878200D01*
X123412119Y-63878200D01*
X123412119Y-63878199D01*
X123385424Y-63768161D01*
X123385422Y-63768154D01*
X123297522Y-63575684D01*
X123297520Y-63575680D01*
X123174778Y-63403312D01*
X123174777Y-63403311D01*
X123021635Y-63257290D01*
X123021634Y-63257289D01*
X122843624Y-63142891D01*
X122843619Y-63142888D01*
X122647185Y-63064247D01*
X122647179Y-63064246D01*
X122439405Y-63024200D01*
X122312600Y-63024200D01*
X122312600Y-63854696D01*
X122239548Y-63797837D01*
X122121176Y-63757200D01*
X122027527Y-63757200D01*
X121935154Y-63772614D01*
X121825086Y-63832181D01*
X121804600Y-63854434D01*
X121804600Y-63024200D01*
X121730821Y-63024200D01*
X121730799Y-63024201D01*
X121572966Y-63039272D01*
X121572951Y-63039275D01*
X121369922Y-63098889D01*
X121181845Y-63195850D01*
X121015514Y-63326655D01*
X121015508Y-63326660D01*
X120876943Y-63486574D01*
X120876942Y-63486575D01*
X120771145Y-63669822D01*
X120771141Y-63669831D01*
X120701937Y-63869784D01*
X120701935Y-63869790D01*
X120700726Y-63878200D01*
X121782722Y-63878200D01*
X121740322Y-63924259D01*
X121690049Y-64038870D01*
X121679714Y-64163595D01*
X121710437Y-64284919D01*
X121776608Y-64386200D01*
X120705080Y-64386200D01*
X120731775Y-64496238D01*
X120731777Y-64496245D01*
X120819677Y-64688715D01*
X120819679Y-64688719D01*
X120942421Y-64861087D01*
X120942422Y-64861088D01*
X121095561Y-65007107D01*
X121125818Y-65026551D01*
X121172311Y-65080207D01*
X121182416Y-65150480D01*
X121152923Y-65215061D01*
X121135585Y-65231593D01*
X121110801Y-65251083D01*
X121044890Y-65277470D01*
X121034471Y-65278030D01*
X120307648Y-65287009D01*
X120307647Y-65287010D01*
X120362344Y-68715168D01*
X120343431Y-68783599D01*
X120337034Y-68791903D01*
X120337473Y-68792226D01*
X120332778Y-68798619D01*
X120322004Y-68817987D01*
X120311459Y-68833953D01*
X120297870Y-68851472D01*
X120297864Y-68851482D01*
X120281064Y-68890302D01*
X120275541Y-68901506D01*
X120254970Y-68938486D01*
X120249350Y-68959931D01*
X120243105Y-68978024D01*
X120234299Y-68998373D01*
X120227680Y-69040158D01*
X120225116Y-69052387D01*
X120214388Y-69093316D01*
X120214277Y-69115489D01*
X120212728Y-69134561D01*
X120209260Y-69156459D01*
X120209259Y-69156465D01*
X120213240Y-69198581D01*
X120213797Y-69211068D01*
X120194747Y-73010355D01*
X120194212Y-73018595D01*
X120194297Y-73099681D01*
X120194295Y-73100442D01*
X120194107Y-73137869D01*
X120194136Y-73138359D01*
X120194345Y-73145480D01*
X120194384Y-73181897D01*
X120201860Y-73210887D01*
X120204935Y-73227182D01*
X120208537Y-73256890D01*
X120208537Y-73256892D01*
X120208538Y-73256894D01*
X120213653Y-73270006D01*
X120221097Y-73289088D01*
X120225719Y-73303410D01*
X120234353Y-73336888D01*
X120248803Y-73363106D01*
X120255835Y-73378125D01*
X120266713Y-73406008D01*
X120286878Y-73434057D01*
X120294922Y-73446787D01*
X120311610Y-73477066D01*
X120332126Y-73498867D01*
X120342675Y-73511671D01*
X120360138Y-73535963D01*
X120360143Y-73535968D01*
X120386654Y-73558124D01*
X120397619Y-73568462D01*
X120407066Y-73578502D01*
X120439180Y-73641820D01*
X120441286Y-73662836D01*
X120453004Y-74397272D01*
X120434091Y-74465703D01*
X120381184Y-74513046D01*
X120371055Y-74517337D01*
X120346996Y-74526310D01*
X120229938Y-74613938D01*
X120142312Y-74730992D01*
X120142310Y-74730997D01*
X120091211Y-74867995D01*
X120091209Y-74868003D01*
X120084700Y-74928550D01*
X120084700Y-75374000D01*
X120064698Y-75442121D01*
X120011042Y-75488614D01*
X119958700Y-75500000D01*
X117977026Y-75500000D01*
X117908905Y-75479998D01*
X117862412Y-75426342D01*
X117851030Y-75372978D01*
X117864896Y-73662836D01*
X117932568Y-65316742D01*
X117907854Y-62356330D01*
X117927287Y-62288047D01*
X117980553Y-62241108D01*
X118033132Y-62229283D01*
X131215609Y-62154524D01*
X131283841Y-62174139D01*
G37*
%TD.AperFunction*%
%TD*%
%TA.AperFunction,Conductor*%
%TO.N,GND*%
G36*
X120102626Y-91135747D02*
G01*
X120169554Y-91155795D01*
X120201214Y-91185432D01*
X120252739Y-91254261D01*
X120369796Y-91341889D01*
X120506799Y-91392989D01*
X120534050Y-91395918D01*
X120567345Y-91399499D01*
X120567362Y-91399500D01*
X121464638Y-91399500D01*
X121464654Y-91399499D01*
X121491692Y-91396591D01*
X121525201Y-91392989D01*
X121662204Y-91341889D01*
X121779261Y-91254261D01*
X121823376Y-91195330D01*
X121879308Y-91153459D01*
X121923311Y-91145642D01*
X122604600Y-91149345D01*
X122671529Y-91169393D01*
X122716997Y-91222445D01*
X122727888Y-91270368D01*
X122787994Y-93774799D01*
X122787995Y-93774800D01*
X122836859Y-95810800D01*
X122794800Y-95810800D01*
X122794800Y-96851500D01*
X122775115Y-96918539D01*
X122722311Y-96964294D01*
X122670800Y-96975500D01*
X121744800Y-96975500D01*
X121744800Y-97378649D01*
X121747699Y-97415489D01*
X121747700Y-97415495D01*
X121793516Y-97573193D01*
X121793517Y-97573196D01*
X121877114Y-97714552D01*
X121877121Y-97714561D01*
X121885082Y-97722522D01*
X121918567Y-97783845D01*
X121913583Y-97853537D01*
X121885082Y-97897884D01*
X120944286Y-98838681D01*
X120882963Y-98872166D01*
X120856605Y-98875000D01*
X119947659Y-98875000D01*
X119880620Y-98855315D01*
X119834865Y-98802511D01*
X119824921Y-98733353D01*
X119853946Y-98669797D01*
X119889205Y-98641642D01*
X119964723Y-98601276D01*
X119964723Y-98601275D01*
X119456201Y-98092753D01*
X119456200Y-98092753D01*
X118947676Y-98601276D01*
X119020396Y-98640146D01*
X119070240Y-98689109D01*
X119085700Y-98757246D01*
X119061868Y-98822926D01*
X119020409Y-98858855D01*
X119017611Y-98860351D01*
X118959144Y-98875000D01*
X118249000Y-98875000D01*
X118181961Y-98855315D01*
X118136206Y-98802511D01*
X118125000Y-98751000D01*
X118125000Y-97739200D01*
X118451361Y-97739200D01*
X118470668Y-97935232D01*
X118527851Y-98123737D01*
X118594123Y-98247722D01*
X119102647Y-97739200D01*
X119809753Y-97739200D01*
X120318275Y-98247723D01*
X120318276Y-98247723D01*
X120384548Y-98123737D01*
X120441731Y-97935232D01*
X120461038Y-97739200D01*
X120441731Y-97543167D01*
X120384548Y-97354662D01*
X120318275Y-97230676D01*
X119809753Y-97739199D01*
X119809753Y-97739200D01*
X119102647Y-97739200D01*
X118594123Y-97230676D01*
X118527849Y-97354666D01*
X118470668Y-97543167D01*
X118451361Y-97739200D01*
X118125000Y-97739200D01*
X118125000Y-96877123D01*
X118947676Y-96877123D01*
X119456200Y-97385647D01*
X119456201Y-97385647D01*
X119964722Y-96877123D01*
X119840737Y-96810851D01*
X119652230Y-96753668D01*
X119652234Y-96753668D01*
X119456200Y-96734361D01*
X119260167Y-96753668D01*
X119071666Y-96810849D01*
X118947676Y-96877123D01*
X118125000Y-96877123D01*
X118125000Y-96475500D01*
X121744800Y-96475500D01*
X122294800Y-96475500D01*
X122294800Y-95569000D01*
X122314485Y-95501961D01*
X122367289Y-95456206D01*
X122418800Y-95445000D01*
X122470600Y-95445000D01*
X122470600Y-95042800D01*
X121820601Y-95042800D01*
X121820601Y-95124382D01*
X121827008Y-95194902D01*
X121827009Y-95194907D01*
X121877581Y-95357196D01*
X121969406Y-95509093D01*
X121966803Y-95510666D01*
X121987486Y-95562677D01*
X121974103Y-95631253D01*
X121951702Y-95661858D01*
X121877118Y-95736442D01*
X121877114Y-95736447D01*
X121793517Y-95877803D01*
X121793516Y-95877806D01*
X121747700Y-96035504D01*
X121747699Y-96035510D01*
X121744800Y-96072350D01*
X121744800Y-96475500D01*
X118125000Y-96475500D01*
X118125000Y-94542800D01*
X121820600Y-94542800D01*
X122470600Y-94542800D01*
X122470600Y-93817800D01*
X122470599Y-93817799D01*
X122464036Y-93817800D01*
X122464017Y-93817801D01*
X122393497Y-93824208D01*
X122393492Y-93824209D01*
X122231203Y-93874781D01*
X122085722Y-93962727D01*
X121965527Y-94082922D01*
X121877580Y-94228404D01*
X121827009Y-94390693D01*
X121820600Y-94461227D01*
X121820600Y-94542800D01*
X118125000Y-94542800D01*
X118125000Y-91507505D01*
X118144685Y-91440466D01*
X118197489Y-91394711D01*
X118266647Y-91384767D01*
X118292339Y-91391325D01*
X118296796Y-91392988D01*
X118296799Y-91392989D01*
X118357345Y-91399499D01*
X118357362Y-91399500D01*
X119254638Y-91399500D01*
X119254654Y-91399499D01*
X119281692Y-91396591D01*
X119315201Y-91392989D01*
X119452204Y-91341889D01*
X119569261Y-91254261D01*
X119622333Y-91183364D01*
X119678263Y-91141497D01*
X119722266Y-91133680D01*
X120102626Y-91135747D01*
G37*
%TD.AperFunction*%
%TD*%
%TA.AperFunction,Conductor*%
%TO.N,GND*%
G36*
X150435227Y-78202665D02*
G01*
X150483013Y-78255171D01*
X150495707Y-78309597D01*
X150621302Y-101117706D01*
X150601675Y-101185936D01*
X150548277Y-101232724D01*
X150495304Y-101244400D01*
X147371401Y-101244400D01*
X147303280Y-101224398D01*
X147256787Y-101170742D01*
X147245411Y-101116809D01*
X147250174Y-100739451D01*
X147264100Y-99636407D01*
X147284960Y-99568547D01*
X147339199Y-99522735D01*
X147390090Y-99512000D01*
X147507200Y-99512000D01*
X147507200Y-98406503D01*
X147580252Y-98463363D01*
X147698624Y-98504000D01*
X147792273Y-98504000D01*
X147884646Y-98488586D01*
X147994714Y-98429019D01*
X148015200Y-98406765D01*
X148015200Y-99512000D01*
X148161717Y-99512000D01*
X148161716Y-99511999D01*
X148265518Y-99501394D01*
X148265521Y-99501393D01*
X148433725Y-99445657D01*
X148584539Y-99352634D01*
X148584545Y-99352629D01*
X148709829Y-99227345D01*
X148709834Y-99227339D01*
X148802857Y-99076525D01*
X148858593Y-98908321D01*
X148858594Y-98908318D01*
X148869199Y-98804516D01*
X148869200Y-98804516D01*
X148869200Y-98383000D01*
X148037078Y-98383000D01*
X148079478Y-98336941D01*
X148129751Y-98222330D01*
X148140086Y-98097605D01*
X148109363Y-97976281D01*
X148043192Y-97875000D01*
X148869200Y-97875000D01*
X148869200Y-97453483D01*
X148858594Y-97349681D01*
X148858593Y-97349678D01*
X148802857Y-97181474D01*
X148709834Y-97030660D01*
X148709829Y-97030654D01*
X148584545Y-96905370D01*
X148584539Y-96905365D01*
X148433725Y-96812342D01*
X148265521Y-96756606D01*
X148265518Y-96756605D01*
X148161716Y-96746000D01*
X148015200Y-96746000D01*
X148015200Y-97851496D01*
X147942148Y-97794637D01*
X147823776Y-97754000D01*
X147730127Y-97754000D01*
X147637754Y-97769414D01*
X147527686Y-97828981D01*
X147507200Y-97851234D01*
X147507200Y-96746000D01*
X147428192Y-96746000D01*
X147360071Y-96725998D01*
X147313578Y-96672342D01*
X147302202Y-96618409D01*
X147312744Y-95783400D01*
X144856200Y-95783400D01*
X144551400Y-95783400D01*
X143532620Y-95783400D01*
X143464499Y-95763398D01*
X143418006Y-95709742D01*
X143406620Y-95657400D01*
X143406620Y-95341501D01*
X143408369Y-95325659D01*
X143408076Y-95325632D01*
X143408822Y-95317739D01*
X143406682Y-95249648D01*
X143406620Y-95245690D01*
X143406620Y-95217798D01*
X143406620Y-95217792D01*
X143406113Y-95213783D01*
X143405182Y-95201954D01*
X143403794Y-95157759D01*
X143398137Y-95138290D01*
X143394132Y-95118946D01*
X143391594Y-95098851D01*
X143375316Y-95057740D01*
X143371476Y-95046525D01*
X143359138Y-95004055D01*
X143348826Y-94986618D01*
X143340130Y-94968869D01*
X143332672Y-94950031D01*
X143306672Y-94914246D01*
X143300179Y-94904362D01*
X143277662Y-94866286D01*
X143263334Y-94851958D01*
X143250500Y-94836931D01*
X143239049Y-94821170D01*
X143215194Y-94754301D01*
X143214989Y-94747430D01*
X143214838Y-94687370D01*
X143206228Y-91253765D01*
X146100788Y-91253765D01*
X146130412Y-91523014D01*
X146198928Y-91785090D01*
X146304869Y-92034389D01*
X146304870Y-92034390D01*
X146445982Y-92265610D01*
X146619255Y-92473820D01*
X146619257Y-92473822D01*
X146619259Y-92473824D01*
X146663875Y-92513800D01*
X146820998Y-92654582D01*
X147046910Y-92804044D01*
X147292176Y-92919020D01*
X147551569Y-92997060D01*
X147551572Y-92997060D01*
X147551574Y-92997061D01*
X147819557Y-93036500D01*
X147819561Y-93036500D01*
X148022631Y-93036500D01*
X148225156Y-93021677D01*
X148225160Y-93021676D01*
X148225161Y-93021676D01*
X148335665Y-92997060D01*
X148489553Y-92962780D01*
X148742558Y-92866014D01*
X148978777Y-92733441D01*
X149193177Y-92567888D01*
X149381186Y-92372881D01*
X149538799Y-92152579D01*
X149590120Y-92052760D01*
X149662656Y-91911675D01*
X149662657Y-91911672D01*
X149705842Y-91785088D01*
X149750118Y-91655305D01*
X149774718Y-91522119D01*
X149799318Y-91388941D01*
X149799319Y-91388930D01*
X149809212Y-91118235D01*
X149789478Y-90938882D01*
X149779587Y-90848985D01*
X149732984Y-90670728D01*
X149711072Y-90586912D01*
X149706710Y-90576648D01*
X149605130Y-90337610D01*
X149464018Y-90106390D01*
X149290745Y-89898180D01*
X149290741Y-89898177D01*
X149290740Y-89898175D01*
X149089012Y-89717427D01*
X149089002Y-89717418D01*
X148863090Y-89567956D01*
X148617824Y-89452980D01*
X148460392Y-89405615D01*
X148358425Y-89374938D01*
X148090442Y-89335500D01*
X148090439Y-89335500D01*
X147887369Y-89335500D01*
X147684839Y-89350323D01*
X147684838Y-89350323D01*
X147420456Y-89409217D01*
X147420441Y-89409222D01*
X147167441Y-89505986D01*
X146931229Y-89638555D01*
X146931225Y-89638557D01*
X146716818Y-89804116D01*
X146528815Y-89999117D01*
X146528810Y-89999123D01*
X146371203Y-90219417D01*
X146371196Y-90219427D01*
X146247343Y-90460324D01*
X146247342Y-90460327D01*
X146159883Y-90716689D01*
X146159880Y-90716702D01*
X146110681Y-90983058D01*
X146110680Y-90983069D01*
X146100788Y-91253765D01*
X143206228Y-91253765D01*
X143203800Y-90285658D01*
X143204501Y-90272074D01*
X143206489Y-90253300D01*
X143208605Y-90233322D01*
X143197939Y-90160714D01*
X143197660Y-90158689D01*
X143188274Y-90085853D01*
X143188272Y-90085847D01*
X143186923Y-90080646D01*
X143186886Y-90080462D01*
X143186848Y-90080322D01*
X143186791Y-90080152D01*
X143185347Y-90074965D01*
X143185346Y-90074962D01*
X143156964Y-90007299D01*
X143156144Y-90005293D01*
X143148300Y-89985626D01*
X143128979Y-89937181D01*
X143128974Y-89937175D01*
X143126378Y-89932478D01*
X143126297Y-89932312D01*
X143126218Y-89932172D01*
X143126121Y-89932022D01*
X143123438Y-89927367D01*
X143123435Y-89927364D01*
X143123435Y-89927362D01*
X143079116Y-89868880D01*
X143077864Y-89867197D01*
X143034574Y-89807927D01*
X143034572Y-89807925D01*
X143030877Y-89804010D01*
X143022088Y-89793628D01*
X142990734Y-89752254D01*
X142965532Y-89685881D01*
X142965156Y-89676402D01*
X142962159Y-88049978D01*
X142962158Y-88049978D01*
X141528349Y-88129288D01*
X141459227Y-88113078D01*
X141409842Y-88062072D01*
X141395872Y-87992464D01*
X141421754Y-87926353D01*
X141456207Y-87895651D01*
X141520437Y-87856823D01*
X141520450Y-87856813D01*
X141642013Y-87735250D01*
X141642021Y-87735240D01*
X141730966Y-87588106D01*
X141782118Y-87423953D01*
X141782118Y-87423952D01*
X141788600Y-87352622D01*
X141788600Y-87274400D01*
X140752600Y-87274400D01*
X140684479Y-87254398D01*
X140637986Y-87200742D01*
X140626600Y-87148400D01*
X140626600Y-86766400D01*
X141134600Y-86766400D01*
X141788599Y-86766400D01*
X141788599Y-86688178D01*
X141782118Y-86616846D01*
X141730966Y-86452693D01*
X141642021Y-86305559D01*
X141642013Y-86305549D01*
X141610304Y-86273840D01*
X141576278Y-86211528D01*
X141581343Y-86140713D01*
X141610304Y-86095650D01*
X141730450Y-85975503D01*
X141730451Y-85975501D01*
X141815081Y-85832401D01*
X141861465Y-85672749D01*
X141864400Y-85635456D01*
X141864400Y-85235500D01*
X141310400Y-85235500D01*
X141310400Y-86144000D01*
X141290398Y-86212121D01*
X141236742Y-86258614D01*
X141184400Y-86270000D01*
X141134600Y-86270000D01*
X141134600Y-86766400D01*
X140626600Y-86766400D01*
X140626600Y-86120400D01*
X140646602Y-86052279D01*
X140700258Y-86005786D01*
X140752600Y-85994400D01*
X140802400Y-85994400D01*
X140802400Y-84853500D01*
X140822402Y-84785379D01*
X140876058Y-84738886D01*
X140928400Y-84727500D01*
X141864399Y-84727500D01*
X141864399Y-84327543D01*
X141861465Y-84290250D01*
X141825546Y-84166619D01*
X141825749Y-84095622D01*
X141849997Y-84054274D01*
X141851180Y-82181075D01*
X141865666Y-82122498D01*
X141922888Y-82013722D01*
X141921584Y-78513186D01*
X141941561Y-78445061D01*
X141995199Y-78398548D01*
X142044511Y-78387179D01*
X147551958Y-78252936D01*
X147620542Y-78271272D01*
X147668328Y-78323778D01*
X147680141Y-78393785D01*
X147652231Y-78459066D01*
X147632415Y-78478329D01*
X147514300Y-78570262D01*
X147361874Y-78735841D01*
X147238780Y-78924251D01*
X147148379Y-79130343D01*
X147148376Y-79130350D01*
X147100655Y-79318799D01*
X147100656Y-79318800D01*
X148006084Y-79318800D01*
X147977707Y-79362956D01*
X147937200Y-79500911D01*
X147937200Y-79644689D01*
X147977707Y-79782644D01*
X148006084Y-79826800D01*
X147100655Y-79826800D01*
X147148376Y-80015249D01*
X147148379Y-80015256D01*
X147238780Y-80221348D01*
X147361874Y-80409758D01*
X147514297Y-80575334D01*
X147691898Y-80713567D01*
X147691899Y-80713568D01*
X147889828Y-80820682D01*
X147889830Y-80820683D01*
X148102683Y-80893755D01*
X148102692Y-80893757D01*
X148183200Y-80907191D01*
X148183200Y-80006474D01*
X148294885Y-80057480D01*
X148401437Y-80072800D01*
X148472963Y-80072800D01*
X148579515Y-80057480D01*
X148691200Y-80006474D01*
X148691200Y-80907190D01*
X148771707Y-80893757D01*
X148771716Y-80893755D01*
X148984569Y-80820683D01*
X148984571Y-80820682D01*
X149182500Y-80713568D01*
X149182501Y-80713567D01*
X149360102Y-80575334D01*
X149512525Y-80409758D01*
X149635619Y-80221348D01*
X149726020Y-80015256D01*
X149726023Y-80015249D01*
X149773744Y-79826800D01*
X148868316Y-79826800D01*
X148896693Y-79782644D01*
X148937200Y-79644689D01*
X148937200Y-79500911D01*
X148896693Y-79362956D01*
X148868316Y-79318800D01*
X149773744Y-79318800D01*
X149773744Y-79318799D01*
X149726023Y-79130350D01*
X149726020Y-79130343D01*
X149635619Y-78924251D01*
X149512525Y-78735841D01*
X149360102Y-78570265D01*
X149188408Y-78436630D01*
X149146937Y-78379005D01*
X149143203Y-78308106D01*
X149178393Y-78246444D01*
X149241334Y-78213596D01*
X149262712Y-78211236D01*
X150366641Y-78184328D01*
X150435227Y-78202665D01*
G37*
%TD.AperFunction*%
%TD*%
%TA.AperFunction,Conductor*%
%TO.N,GND*%
G36*
X137089638Y-68119595D02*
G01*
X137157596Y-68140141D01*
X137177724Y-68156496D01*
X137218839Y-68197611D01*
X137218844Y-68197615D01*
X137218845Y-68197616D01*
X137366087Y-68286627D01*
X137530351Y-68337813D01*
X137601735Y-68344300D01*
X137624975Y-68344299D01*
X137693094Y-68364298D01*
X137739589Y-68417952D01*
X137749695Y-68488226D01*
X137720205Y-68552808D01*
X137660480Y-68591194D01*
X137655815Y-68592410D01*
X137483201Y-68652811D01*
X137483200Y-68652812D01*
X137470563Y-68660752D01*
X137470563Y-68660754D01*
X137835999Y-69026190D01*
X137836000Y-69026190D01*
X138201436Y-68660753D01*
X138201435Y-68660752D01*
X138188798Y-68652811D01*
X138188799Y-68652811D01*
X138010256Y-68590336D01*
X138010863Y-68588600D01*
X137957014Y-68558475D01*
X137923630Y-68495817D01*
X137929422Y-68425057D01*
X137972549Y-68368661D01*
X138039321Y-68344534D01*
X138047014Y-68344299D01*
X138116264Y-68344299D01*
X138187649Y-68337813D01*
X138351913Y-68286627D01*
X138499155Y-68197616D01*
X138528047Y-68168723D01*
X138590357Y-68134699D01*
X138618144Y-68131823D01*
X138752946Y-68132901D01*
X138820901Y-68153447D01*
X138841030Y-68169802D01*
X138868839Y-68197611D01*
X138868844Y-68197615D01*
X138868845Y-68197616D01*
X139016087Y-68286627D01*
X139180351Y-68337813D01*
X139251735Y-68344300D01*
X139766264Y-68344299D01*
X139837649Y-68337813D01*
X140001913Y-68286627D01*
X140149155Y-68197616D01*
X140164951Y-68181819D01*
X140227261Y-68147794D01*
X140255047Y-68144918D01*
X140665200Y-68148200D01*
X140692207Y-68148200D01*
X140760328Y-68168202D01*
X140806821Y-68221858D01*
X140818205Y-68273589D01*
X140819243Y-68488226D01*
X140825839Y-69853838D01*
X140806166Y-69922055D01*
X140752735Y-69968806D01*
X140682511Y-69979250D01*
X140660207Y-69974051D01*
X140493041Y-69918657D01*
X140493029Y-69918655D01*
X140392652Y-69908400D01*
X140372800Y-69908400D01*
X140372800Y-71815209D01*
X140352798Y-71883330D01*
X140335895Y-71904304D01*
X140322800Y-71917399D01*
X140322800Y-72721200D01*
X140302798Y-72789321D01*
X140249142Y-72835814D01*
X140196800Y-72847200D01*
X139160801Y-72847200D01*
X139160801Y-72925421D01*
X139167281Y-72996753D01*
X139218433Y-73160906D01*
X139251023Y-73214816D01*
X139269146Y-73283460D01*
X139247281Y-73351006D01*
X139192369Y-73396008D01*
X139143194Y-73406000D01*
X134065800Y-73406000D01*
X133997679Y-73385998D01*
X133951186Y-73332342D01*
X133939800Y-73280000D01*
X133939800Y-72910046D01*
X136070562Y-72910046D01*
X136083199Y-72917987D01*
X136083208Y-72917991D01*
X136255059Y-72978125D01*
X136255070Y-72978127D01*
X136436000Y-72998512D01*
X136616929Y-72978127D01*
X136616937Y-72978126D01*
X136788791Y-72917990D01*
X136788801Y-72917985D01*
X136801434Y-72910046D01*
X137470562Y-72910046D01*
X137483199Y-72917987D01*
X137483208Y-72917991D01*
X137655059Y-72978125D01*
X137655070Y-72978127D01*
X137836000Y-72998512D01*
X138016929Y-72978127D01*
X138016937Y-72978126D01*
X138188791Y-72917990D01*
X138188801Y-72917985D01*
X138201436Y-72910045D01*
X137836001Y-72544610D01*
X137836000Y-72544610D01*
X137470562Y-72910046D01*
X136801434Y-72910046D01*
X136801436Y-72910045D01*
X136436001Y-72544610D01*
X136436000Y-72544610D01*
X136070562Y-72910046D01*
X133939800Y-72910046D01*
X133939800Y-72210046D01*
X135370562Y-72210046D01*
X135383199Y-72217987D01*
X135383208Y-72217991D01*
X135561743Y-72280464D01*
X135560813Y-72283120D01*
X135611657Y-72311561D01*
X135638416Y-72360537D01*
X135640936Y-72359656D01*
X135703411Y-72538199D01*
X135711352Y-72550835D01*
X135711353Y-72550836D01*
X136044297Y-72217892D01*
X136336000Y-72217892D01*
X136374197Y-72270465D01*
X136420162Y-72285400D01*
X136451838Y-72285400D01*
X136497803Y-72270465D01*
X136536000Y-72217892D01*
X136536000Y-72197901D01*
X136807710Y-72197901D01*
X137135999Y-72526190D01*
X137136001Y-72526190D01*
X137444299Y-72217892D01*
X137736000Y-72217892D01*
X137774197Y-72270465D01*
X137820162Y-72285400D01*
X137851838Y-72285400D01*
X137897803Y-72270465D01*
X137936000Y-72217892D01*
X137936000Y-72185401D01*
X138195210Y-72185401D01*
X138560645Y-72550836D01*
X138568585Y-72538201D01*
X138568590Y-72538191D01*
X138631064Y-72359656D01*
X138633723Y-72360586D01*
X138662148Y-72309754D01*
X138711143Y-72283000D01*
X138710256Y-72280464D01*
X138888799Y-72217987D01*
X138967764Y-72168371D01*
X139036085Y-72149065D01*
X139103998Y-72169760D01*
X139149941Y-72223887D01*
X139160800Y-72275058D01*
X139160800Y-72339200D01*
X139814800Y-72339200D01*
X139814800Y-71669391D01*
X139834802Y-71601270D01*
X139851705Y-71580296D01*
X139864800Y-71567201D01*
X139864800Y-71145400D01*
X139235210Y-71145400D01*
X138536001Y-71844610D01*
X138536000Y-71844611D01*
X138195210Y-72185400D01*
X138195210Y-72185401D01*
X137936000Y-72185401D01*
X137936000Y-72152908D01*
X137897803Y-72100335D01*
X137851838Y-72085400D01*
X137820162Y-72085400D01*
X137774197Y-72100335D01*
X137736000Y-72152908D01*
X137736000Y-72217892D01*
X137444299Y-72217892D01*
X137476790Y-72185401D01*
X137476790Y-72185399D01*
X137148501Y-71857110D01*
X137148499Y-71857110D01*
X136807710Y-72197899D01*
X136807710Y-72197901D01*
X136536000Y-72197901D01*
X136536000Y-72152908D01*
X136497803Y-72100335D01*
X136451838Y-72085400D01*
X136420162Y-72085400D01*
X136374197Y-72100335D01*
X136336000Y-72152908D01*
X136336000Y-72217892D01*
X136044297Y-72217892D01*
X136076790Y-72185399D01*
X135736001Y-71844610D01*
X135736000Y-71844610D01*
X135370562Y-72210046D01*
X133939800Y-72210046D01*
X133939800Y-71485400D01*
X134922887Y-71485400D01*
X134943272Y-71666329D01*
X134943273Y-71666337D01*
X135003411Y-71838199D01*
X135011352Y-71850835D01*
X135011353Y-71850836D01*
X135344297Y-71517892D01*
X135636000Y-71517892D01*
X135674197Y-71570465D01*
X135720162Y-71585400D01*
X135751838Y-71585400D01*
X135797803Y-71570465D01*
X135836000Y-71517892D01*
X135836000Y-71485401D01*
X136095210Y-71485401D01*
X136435999Y-71826190D01*
X136436001Y-71826190D01*
X136744299Y-71517892D01*
X137061000Y-71517892D01*
X137099197Y-71570465D01*
X137145162Y-71585400D01*
X137176838Y-71585400D01*
X137222803Y-71570465D01*
X137261000Y-71517892D01*
X137261000Y-71485401D01*
X137520210Y-71485401D01*
X137848499Y-71813690D01*
X137848501Y-71813690D01*
X138144299Y-71517892D01*
X138436000Y-71517892D01*
X138474197Y-71570465D01*
X138520162Y-71585400D01*
X138551838Y-71585400D01*
X138597803Y-71570465D01*
X138636000Y-71517892D01*
X138636000Y-71452908D01*
X138597803Y-71400335D01*
X138551838Y-71385400D01*
X138520162Y-71385400D01*
X138474197Y-71400335D01*
X138436000Y-71452908D01*
X138436000Y-71517892D01*
X138144299Y-71517892D01*
X138176790Y-71485401D01*
X138176790Y-71485399D01*
X137848501Y-71157110D01*
X137848499Y-71157110D01*
X137520210Y-71485399D01*
X137520210Y-71485401D01*
X137261000Y-71485401D01*
X137261000Y-71452908D01*
X137222803Y-71400335D01*
X137176838Y-71385400D01*
X137145162Y-71385400D01*
X137099197Y-71400335D01*
X137061000Y-71452908D01*
X137061000Y-71517892D01*
X136744299Y-71517892D01*
X136776790Y-71485401D01*
X136776790Y-71485399D01*
X136436001Y-71144610D01*
X136435999Y-71144610D01*
X136095210Y-71485399D01*
X136095210Y-71485401D01*
X135836000Y-71485401D01*
X135836000Y-71452908D01*
X135797803Y-71400335D01*
X135751838Y-71385400D01*
X135720162Y-71385400D01*
X135674197Y-71400335D01*
X135636000Y-71452908D01*
X135636000Y-71517892D01*
X135344297Y-71517892D01*
X135376790Y-71485399D01*
X135011354Y-71119963D01*
X135011352Y-71119963D01*
X135003412Y-71132600D01*
X135003411Y-71132601D01*
X134943273Y-71304462D01*
X134943272Y-71304470D01*
X134922887Y-71485400D01*
X133939800Y-71485400D01*
X133939800Y-70785401D01*
X135395210Y-70785401D01*
X135735999Y-71126190D01*
X135736001Y-71126190D01*
X136044299Y-70817892D01*
X136336000Y-70817892D01*
X136374197Y-70870465D01*
X136420162Y-70885400D01*
X136451838Y-70885400D01*
X136497803Y-70870465D01*
X136536000Y-70817892D01*
X136536000Y-70785401D01*
X136820210Y-70785401D01*
X137148499Y-71113690D01*
X137148501Y-71113690D01*
X137444299Y-70817892D01*
X137736000Y-70817892D01*
X137774197Y-70870465D01*
X137820162Y-70885400D01*
X137851838Y-70885400D01*
X137897803Y-70870465D01*
X137936000Y-70817892D01*
X137936000Y-70785401D01*
X138195210Y-70785401D01*
X138535999Y-71126190D01*
X138536000Y-71126190D01*
X138880773Y-70781416D01*
X138943086Y-70747391D01*
X138983977Y-70745303D01*
X139001358Y-70747261D01*
X139042970Y-70721115D01*
X139089781Y-70674305D01*
X139152093Y-70640279D01*
X139178876Y-70637400D01*
X139864800Y-70637400D01*
X139864800Y-69908400D01*
X139844947Y-69908400D01*
X139744570Y-69918655D01*
X139744558Y-69918657D01*
X139581916Y-69972552D01*
X139521460Y-70009841D01*
X139452980Y-70028577D01*
X139385241Y-70007317D01*
X139339750Y-69952809D01*
X139330106Y-69916703D01*
X139328728Y-69904472D01*
X139328725Y-69904459D01*
X139268591Y-69732608D01*
X139268587Y-69732599D01*
X139260646Y-69719963D01*
X139260646Y-69719962D01*
X138536000Y-70444610D01*
X138535999Y-70444610D01*
X138195210Y-70785399D01*
X138195210Y-70785401D01*
X137936000Y-70785401D01*
X137936000Y-70752908D01*
X137897803Y-70700335D01*
X137851838Y-70685400D01*
X137820162Y-70685400D01*
X137774197Y-70700335D01*
X137736000Y-70752908D01*
X137736000Y-70817892D01*
X137444299Y-70817892D01*
X137476790Y-70785401D01*
X137476790Y-70785399D01*
X137148501Y-70457110D01*
X137148499Y-70457110D01*
X136820210Y-70785399D01*
X136820210Y-70785401D01*
X136536000Y-70785401D01*
X136536000Y-70752908D01*
X136497803Y-70700335D01*
X136451838Y-70685400D01*
X136420162Y-70685400D01*
X136374197Y-70700335D01*
X136336000Y-70752908D01*
X136336000Y-70817892D01*
X136044299Y-70817892D01*
X136076790Y-70785401D01*
X136076790Y-70785399D01*
X135736001Y-70444610D01*
X135735999Y-70444610D01*
X135395210Y-70785399D01*
X135395210Y-70785401D01*
X133939800Y-70785401D01*
X133939800Y-70085400D01*
X134922887Y-70085400D01*
X134943272Y-70266329D01*
X134943273Y-70266337D01*
X135003411Y-70438199D01*
X135011352Y-70450835D01*
X135011353Y-70450836D01*
X135344297Y-70117892D01*
X135636000Y-70117892D01*
X135674197Y-70170465D01*
X135720162Y-70185400D01*
X135751838Y-70185400D01*
X135797803Y-70170465D01*
X135836000Y-70117892D01*
X135836000Y-70085401D01*
X136095210Y-70085401D01*
X136435999Y-70426190D01*
X136436001Y-70426190D01*
X136744299Y-70117892D01*
X137061000Y-70117892D01*
X137099197Y-70170465D01*
X137145162Y-70185400D01*
X137176838Y-70185400D01*
X137222803Y-70170465D01*
X137261000Y-70117892D01*
X137261000Y-70085401D01*
X137520210Y-70085401D01*
X137848499Y-70413690D01*
X137848501Y-70413690D01*
X138144299Y-70117892D01*
X138436000Y-70117892D01*
X138474197Y-70170465D01*
X138520162Y-70185400D01*
X138551838Y-70185400D01*
X138597803Y-70170465D01*
X138636000Y-70117892D01*
X138636000Y-70052908D01*
X138597803Y-70000335D01*
X138551838Y-69985400D01*
X138520162Y-69985400D01*
X138474197Y-70000335D01*
X138436000Y-70052908D01*
X138436000Y-70117892D01*
X138144299Y-70117892D01*
X138176790Y-70085401D01*
X138176790Y-70085399D01*
X137848501Y-69757110D01*
X137848499Y-69757110D01*
X137520210Y-70085399D01*
X137520210Y-70085401D01*
X137261000Y-70085401D01*
X137261000Y-70052908D01*
X137222803Y-70000335D01*
X137176838Y-69985400D01*
X137145162Y-69985400D01*
X137099197Y-70000335D01*
X137061000Y-70052908D01*
X137061000Y-70117892D01*
X136744299Y-70117892D01*
X136776790Y-70085401D01*
X136776790Y-70085399D01*
X136436001Y-69744610D01*
X136435999Y-69744610D01*
X136095210Y-70085399D01*
X136095210Y-70085401D01*
X135836000Y-70085401D01*
X135836000Y-70052908D01*
X135797803Y-70000335D01*
X135751838Y-69985400D01*
X135720162Y-69985400D01*
X135674197Y-70000335D01*
X135636000Y-70052908D01*
X135636000Y-70117892D01*
X135344297Y-70117892D01*
X135376790Y-70085399D01*
X135011354Y-69719963D01*
X135011352Y-69719963D01*
X135003412Y-69732600D01*
X135003411Y-69732601D01*
X134943273Y-69904462D01*
X134943272Y-69904470D01*
X134922887Y-70085400D01*
X133939800Y-70085400D01*
X133939800Y-69551267D01*
X133958559Y-69485121D01*
X134014702Y-69394101D01*
X134025752Y-69360754D01*
X135370563Y-69360754D01*
X135735999Y-69726190D01*
X135736001Y-69726190D01*
X136044299Y-69417892D01*
X136336000Y-69417892D01*
X136374197Y-69470465D01*
X136420162Y-69485400D01*
X136451838Y-69485400D01*
X136497803Y-69470465D01*
X136536000Y-69417892D01*
X136536000Y-69372901D01*
X136807710Y-69372901D01*
X137148499Y-69713690D01*
X137148501Y-69713690D01*
X137444299Y-69417892D01*
X137736000Y-69417892D01*
X137774197Y-69470465D01*
X137820162Y-69485400D01*
X137851838Y-69485400D01*
X137897803Y-69470465D01*
X137936000Y-69417892D01*
X137936000Y-69385401D01*
X138195210Y-69385401D01*
X138535999Y-69726190D01*
X138536000Y-69726190D01*
X138901436Y-69360753D01*
X138901435Y-69360752D01*
X138888798Y-69352811D01*
X138888799Y-69352811D01*
X138710256Y-69290336D01*
X138711182Y-69287689D01*
X138660299Y-69259195D01*
X138633592Y-69210258D01*
X138631064Y-69211143D01*
X138568591Y-69032608D01*
X138568587Y-69032599D01*
X138560646Y-69019963D01*
X138560646Y-69019962D01*
X138195210Y-69385399D01*
X138195210Y-69385401D01*
X137936000Y-69385401D01*
X137936000Y-69352908D01*
X137897803Y-69300335D01*
X137851838Y-69285400D01*
X137820162Y-69285400D01*
X137774197Y-69300335D01*
X137736000Y-69352908D01*
X137736000Y-69417892D01*
X137444299Y-69417892D01*
X137476790Y-69385401D01*
X137476790Y-69385399D01*
X137136001Y-69044610D01*
X137135999Y-69044610D01*
X136807710Y-69372899D01*
X136807710Y-69372901D01*
X136536000Y-69372901D01*
X136536000Y-69352908D01*
X136497803Y-69300335D01*
X136451838Y-69285400D01*
X136420162Y-69285400D01*
X136374197Y-69300335D01*
X136336000Y-69352908D01*
X136336000Y-69417892D01*
X136044299Y-69417892D01*
X136076790Y-69385401D01*
X136076790Y-69385399D01*
X135711354Y-69019963D01*
X135711352Y-69019963D01*
X135703412Y-69032600D01*
X135703411Y-69032601D01*
X135640936Y-69211144D01*
X135638291Y-69210218D01*
X135609782Y-69261112D01*
X135560864Y-69287822D01*
X135561744Y-69290336D01*
X135383201Y-69352811D01*
X135383200Y-69352812D01*
X135370563Y-69360752D01*
X135370563Y-69360754D01*
X134025752Y-69360754D01*
X134068636Y-69231336D01*
X134071435Y-69203936D01*
X134078900Y-69130880D01*
X134078900Y-68660754D01*
X136070563Y-68660754D01*
X136435999Y-69026190D01*
X136436000Y-69026190D01*
X136801436Y-68660753D01*
X136801435Y-68660752D01*
X136788798Y-68652811D01*
X136788799Y-68652811D01*
X136616937Y-68592673D01*
X136616929Y-68592672D01*
X136436000Y-68572287D01*
X136255070Y-68592672D01*
X136255062Y-68592673D01*
X136083201Y-68652811D01*
X136083200Y-68652812D01*
X136070563Y-68660752D01*
X136070563Y-68660754D01*
X134078900Y-68660754D01*
X134078900Y-68599745D01*
X134092202Y-68543396D01*
X134280063Y-68167673D01*
X134328417Y-68115691D01*
X134393766Y-68098028D01*
X137089638Y-68119595D01*
G37*
%TD.AperFunction*%
%TD*%
%TA.AperFunction,Conductor*%
%TO.N,VDD*%
G36*
X132400039Y-71055285D02*
G01*
X132445794Y-71108089D01*
X132457000Y-71159600D01*
X132457000Y-71411600D01*
X132437315Y-71478639D01*
X132384511Y-71524394D01*
X132333000Y-71535600D01*
X131732600Y-71535600D01*
X131713560Y-71554639D01*
X131712915Y-71556839D01*
X131701273Y-71566926D01*
X131696281Y-71571919D01*
X131695923Y-71571561D01*
X131660111Y-71602594D01*
X131608600Y-71613800D01*
X130702100Y-71613800D01*
X130702100Y-72163800D01*
X131105234Y-72163800D01*
X131105249Y-72163799D01*
X131142089Y-72160900D01*
X131142092Y-72160899D01*
X131212389Y-72140476D01*
X131282259Y-72140675D01*
X131340929Y-72178616D01*
X131369773Y-72242255D01*
X131359632Y-72311384D01*
X131353102Y-72323702D01*
X131301864Y-72408460D01*
X131250336Y-72455647D01*
X131181477Y-72467486D01*
X131161156Y-72463387D01*
X131143431Y-72458238D01*
X131143425Y-72458237D01*
X131106107Y-72455300D01*
X131106102Y-72455300D01*
X129947100Y-72455300D01*
X129880061Y-72435615D01*
X129834306Y-72382811D01*
X129823100Y-72331300D01*
X129823100Y-72287800D01*
X129842785Y-72220761D01*
X129895589Y-72175006D01*
X129947100Y-72163800D01*
X130202100Y-72163800D01*
X130202100Y-71237800D01*
X130221785Y-71170761D01*
X130274589Y-71125006D01*
X130326100Y-71113800D01*
X131189000Y-71113800D01*
X131208039Y-71094760D01*
X131208685Y-71092561D01*
X131220326Y-71082473D01*
X131225319Y-71077481D01*
X131225676Y-71077838D01*
X131261489Y-71046806D01*
X131313000Y-71035600D01*
X132333000Y-71035600D01*
X132400039Y-71055285D01*
G37*
%TD.AperFunction*%
%TD*%
%TA.AperFunction,Conductor*%
%TO.N,VDD*%
G36*
X146402888Y-96424889D02*
G01*
X146450268Y-96477762D01*
X146462533Y-96533626D01*
X146459608Y-96761204D01*
X146438732Y-96829062D01*
X146384483Y-96874862D01*
X146314085Y-96884062D01*
X146270618Y-96868704D01*
X146223577Y-96841545D01*
X146223568Y-96841541D01*
X146023613Y-96772336D01*
X146023605Y-96772334D01*
X146015200Y-96771124D01*
X146015200Y-97851496D01*
X145942148Y-97794637D01*
X145823776Y-97754000D01*
X145730127Y-97754000D01*
X145637754Y-97769414D01*
X145527686Y-97828981D01*
X145507200Y-97851234D01*
X145507200Y-96775479D01*
X145397161Y-96802175D01*
X145397152Y-96802178D01*
X145204684Y-96890077D01*
X145204680Y-96890079D01*
X145032312Y-97012821D01*
X145032311Y-97012822D01*
X144886290Y-97165964D01*
X144886289Y-97165965D01*
X144771891Y-97343975D01*
X144771888Y-97343980D01*
X144693247Y-97540414D01*
X144693246Y-97540420D01*
X144653200Y-97748194D01*
X144653200Y-97875000D01*
X145485322Y-97875000D01*
X145442922Y-97921059D01*
X145392649Y-98035670D01*
X145382314Y-98160395D01*
X145413037Y-98281719D01*
X145479208Y-98383000D01*
X144653200Y-98383000D01*
X144653200Y-98456779D01*
X144653201Y-98456800D01*
X144668272Y-98614633D01*
X144668275Y-98614648D01*
X144727889Y-98817677D01*
X144824850Y-99005754D01*
X144955655Y-99172085D01*
X144955660Y-99172091D01*
X145115574Y-99310656D01*
X145115575Y-99310657D01*
X145298822Y-99416454D01*
X145298831Y-99416458D01*
X145498784Y-99485662D01*
X145498790Y-99485664D01*
X145507200Y-99486873D01*
X145507200Y-98406503D01*
X145580252Y-98463363D01*
X145698624Y-98504000D01*
X145792273Y-98504000D01*
X145884646Y-98488586D01*
X145994714Y-98429019D01*
X146015200Y-98406765D01*
X146015200Y-99482519D01*
X146125238Y-99455824D01*
X146125240Y-99455823D01*
X146245862Y-99400736D01*
X146316136Y-99390631D01*
X146380717Y-99420124D01*
X146419102Y-99479849D01*
X146424196Y-99516968D01*
X146401624Y-101273596D01*
X146380748Y-101341454D01*
X146326499Y-101387254D01*
X146273602Y-101397961D01*
X143417611Y-101351896D01*
X143349822Y-101330798D01*
X143304200Y-101276399D01*
X143293817Y-101232537D01*
X143268761Y-100756459D01*
X143274983Y-100710203D01*
X143302342Y-100627638D01*
X143302344Y-100627629D01*
X143312599Y-100527252D01*
X143312600Y-100527252D01*
X143312600Y-100482400D01*
X143254337Y-100482400D01*
X143227600Y-99974400D01*
X143312600Y-99974400D01*
X143312600Y-99929547D01*
X143302344Y-99829170D01*
X143302342Y-99829158D01*
X143248447Y-99666516D01*
X143224832Y-99628231D01*
X143206247Y-99568707D01*
X143201438Y-99477322D01*
X143217833Y-99408246D01*
X143238172Y-99381604D01*
X143249255Y-99370522D01*
X143251734Y-99367325D01*
X143259431Y-99358311D01*
X143289706Y-99326073D01*
X143299466Y-99308317D01*
X143310315Y-99291802D01*
X143322734Y-99275793D01*
X143340299Y-99235198D01*
X143345504Y-99224573D01*
X143366815Y-99185812D01*
X143371853Y-99166186D01*
X143378257Y-99147484D01*
X143386300Y-99128899D01*
X143386299Y-99128899D01*
X143386301Y-99128897D01*
X143393216Y-99085233D01*
X143395624Y-99073604D01*
X143406620Y-99030782D01*
X143406620Y-99010527D01*
X143408171Y-98990815D01*
X143411340Y-98970809D01*
X143407179Y-98926788D01*
X143406620Y-98914931D01*
X143406620Y-96544400D01*
X143426622Y-96476279D01*
X143480278Y-96429786D01*
X143532620Y-96418400D01*
X144824556Y-96418400D01*
X144837004Y-96419016D01*
X144940201Y-96429262D01*
X146334445Y-96406024D01*
X146402888Y-96424889D01*
G37*
%TD.AperFunction*%
%TD*%
%TA.AperFunction,Conductor*%
%TO.N,VDD*%
G36*
X118117326Y-77968511D02*
G01*
X118241399Y-78014789D01*
X118268067Y-78017656D01*
X118301945Y-78021299D01*
X118301962Y-78021300D01*
X119899238Y-78021300D01*
X119899249Y-78021299D01*
X119909333Y-78020214D01*
X119947444Y-78016117D01*
X120016202Y-78028521D01*
X120067340Y-78076130D01*
X120084700Y-78139406D01*
X120084700Y-78225854D01*
X120091210Y-78286401D01*
X120128551Y-78386512D01*
X120133535Y-78456203D01*
X120130300Y-78468163D01*
X120099660Y-78562465D01*
X120099658Y-78562470D01*
X120099658Y-78562472D01*
X120079696Y-78752400D01*
X120099658Y-78942328D01*
X120099659Y-78942331D01*
X120160681Y-79130136D01*
X120159525Y-79130511D01*
X120167914Y-79193129D01*
X120163739Y-79211186D01*
X120155588Y-79237346D01*
X120155587Y-79237350D01*
X120149100Y-79308737D01*
X120149100Y-79823272D01*
X120155585Y-79894645D01*
X120155588Y-79894655D01*
X120206771Y-80058909D01*
X120206772Y-80058911D01*
X120206773Y-80058913D01*
X120295784Y-80206155D01*
X120398959Y-80309330D01*
X120432443Y-80370651D01*
X120427459Y-80440343D01*
X120398959Y-80484691D01*
X120302526Y-80581124D01*
X120214580Y-80726604D01*
X120164009Y-80888893D01*
X120157600Y-80959427D01*
X120157600Y-80966000D01*
X120650000Y-80966000D01*
X120650000Y-81466000D01*
X120157601Y-81466000D01*
X120157601Y-81472582D01*
X120164008Y-81543102D01*
X120164009Y-81543107D01*
X120214581Y-81705396D01*
X120302527Y-81850877D01*
X120396237Y-81944587D01*
X120429722Y-82005910D01*
X120424738Y-82075602D01*
X120382866Y-82131535D01*
X120371451Y-82138871D01*
X120252738Y-82227740D01*
X120252735Y-82227742D01*
X120205958Y-82290228D01*
X120150023Y-82332099D01*
X120104396Y-82339895D01*
X119707508Y-82332545D01*
X119640845Y-82311622D01*
X119610538Y-82282877D01*
X119569263Y-82227741D01*
X119569261Y-82227740D01*
X119569261Y-82227739D01*
X119452204Y-82140111D01*
X119315203Y-82089011D01*
X119254654Y-82082500D01*
X119254638Y-82082500D01*
X118357362Y-82082500D01*
X118357345Y-82082500D01*
X118296797Y-82089011D01*
X118296795Y-82089011D01*
X118159796Y-82140111D01*
X118148309Y-82148710D01*
X118082844Y-82173125D01*
X118014571Y-82158272D01*
X117965167Y-82108866D01*
X117950000Y-82049441D01*
X117950000Y-78084695D01*
X117969685Y-78017656D01*
X118022489Y-77971901D01*
X118091647Y-77961957D01*
X118117326Y-77968511D01*
G37*
%TD.AperFunction*%
%TD*%
M02*
