M48
; DRILL file {KiCad 7.0.10-7.0.10~ubuntu22.04.1} date 2024. jan. 30., kedd, 00:04:10 CET
; FORMAT={-:-/ absolute / metric / decimal}
; #@! TF.CreationDate,2024-01-30T00:04:10+01:00
; #@! TF.GenerationSoftware,Kicad,Pcbnew,7.0.10-7.0.10~ubuntu22.04.1
; #@! TF.FileFunction,Plated,1,4,PTH
FMAT,2
METRIC
; #@! TA.AperFunction,Plated,PTH,ComponentDrill
T1C0.200
; #@! TA.AperFunction,Plated,PTH,ViaDrill
T2C0.400
; #@! TA.AperFunction,Plated,PTH,ComponentDrill
T3C0.750
; #@! TA.AperFunction,Plated,PTH,ComponentDrill
T4C1.000
; #@! TA.AperFunction,Plated,PTH,ComponentDrill
T5C1.020
%
G90
G05
T1
X135.736Y-70.085
X135.736Y-71.485
X136.436Y-69.385
X136.436Y-70.785
X136.436Y-72.185
X137.161Y-70.085
X137.161Y-71.485
X137.836Y-69.385
X137.836Y-70.785
X137.836Y-72.185
X138.536Y-70.085
X138.536Y-71.485
T2
X119.075Y-79.502
X119.101Y-74.473
X120.993Y-78.752
X121.691Y-86.538
X121.818Y-95.58
X122.82Y-88.991
X123.012Y-77.902
X123.126Y-82.334
X124.333Y-63.06
X124.943Y-84.48
X124.981Y-88.303
X125.433Y-63.06
X125.527Y-79.604
X127.279Y-97.942
X128.346Y-82.829
X128.575Y-75.743
X128.854Y-74.193
X129.337Y-63.068
X129.489Y-92.304
X130.289Y-82.97
X131.089Y-72.288
X131.955Y-76.858
X133.909Y-78.918
X136.271Y-93.878
X137.618Y-85.298
X139.192Y-77.368
X139.34Y-97.667
X139.725Y-100.228
X140.081Y-78.918
X140.157Y-93.498
X140.881Y-86.145
X141.326Y-98.222
X141.351Y-64.44
X142.32Y-68.119
X142.367Y-69.545
X142.469Y-80.315
X142.469Y-81.153
X142.646Y-63.043
X142.672Y-64.338
X142.672Y-71.12
X143.307Y-93.624
X144.374Y-99.543
X145.618Y-64.313
X145.644Y-63.068
X145.771Y-100.0
X147.752Y-100.025
X149.2Y-99.543
T3
X122.059Y-64.132
X122.059Y-66.132
X122.059Y-68.132
X122.059Y-70.132
X145.761Y-98.129
X147.761Y-98.129
T4
X148.437Y-64.333
X148.437Y-66.873
X148.437Y-69.413
X148.437Y-71.953
X148.437Y-74.493
X148.437Y-77.033
X148.437Y-79.573
T5
X132.766Y-88.872
X132.766Y-91.872
M30
