%TF.GenerationSoftware,KiCad,Pcbnew,7.0.10-7.0.10~ubuntu22.04.1*%
%TF.CreationDate,2024-01-30T00:04:26+01:00*%
%TF.ProjectId,MailBox_LP_Notifier,4d61696c-426f-4785-9f4c-505f4e6f7469,rev?*%
%TF.SameCoordinates,Original*%
%TF.FileFunction,Paste,Bot*%
%TF.FilePolarity,Positive*%
%FSLAX46Y46*%
G04 Gerber Fmt 4.6, Leading zero omitted, Abs format (unit mm)*
G04 Created by KiCad (PCBNEW 7.0.10-7.0.10~ubuntu22.04.1) date 2024-01-30 00:04:26*
%MOMM*%
%LPD*%
G01*
G04 APERTURE LIST*
G04 Aperture macros list*
%AMRoundRect*
0 Rectangle with rounded corners*
0 $1 Rounding radius*
0 $2 $3 $4 $5 $6 $7 $8 $9 X,Y pos of 4 corners*
0 Add a 4 corners polygon primitive as box body*
4,1,4,$2,$3,$4,$5,$6,$7,$8,$9,$2,$3,0*
0 Add four circle primitives for the rounded corners*
1,1,$1+$1,$2,$3*
1,1,$1+$1,$4,$5*
1,1,$1+$1,$6,$7*
1,1,$1+$1,$8,$9*
0 Add four rect primitives between the rounded corners*
20,1,$1+$1,$2,$3,$4,$5,0*
20,1,$1+$1,$4,$5,$6,$7,0*
20,1,$1+$1,$6,$7,$8,$9,0*
20,1,$1+$1,$8,$9,$2,$3,0*%
G04 Aperture macros list end*
%ADD10R,0.900000X0.900000*%
%ADD11R,1.500000X0.900000*%
%ADD12R,0.900000X1.500000*%
%ADD13R,1.500000X1.500000*%
%ADD14RoundRect,0.200000X-0.275000X0.200000X-0.275000X-0.200000X0.275000X-0.200000X0.275000X0.200000X0*%
%ADD15RoundRect,0.250000X-0.262500X-0.450000X0.262500X-0.450000X0.262500X0.450000X-0.262500X0.450000X0*%
%ADD16RoundRect,0.243750X0.243750X0.456250X-0.243750X0.456250X-0.243750X-0.456250X0.243750X-0.456250X0*%
G04 APERTURE END LIST*
D10*
%TO.C,U3*%
X137136000Y-72185400D03*
X135736000Y-70785400D03*
X137136000Y-70785400D03*
X138536000Y-70785400D03*
X135736000Y-69385400D03*
X137136000Y-69385400D03*
X135736000Y-72185400D03*
X138536000Y-69385400D03*
X138536000Y-72185400D03*
D11*
X126886000Y-63065400D03*
X126886000Y-64335400D03*
X126886000Y-65605400D03*
X126886000Y-66875400D03*
X126886000Y-68145400D03*
X126886000Y-69415400D03*
X126886000Y-70685400D03*
X126886000Y-71955400D03*
X126886000Y-73225400D03*
X126886000Y-74495400D03*
X126886000Y-75765400D03*
X126886000Y-77035400D03*
X126886000Y-78305400D03*
X126886000Y-79575400D03*
D12*
X129916000Y-80825400D03*
X131186000Y-80825400D03*
X132456000Y-80825400D03*
X133726000Y-80825400D03*
X134996000Y-80825400D03*
X136266000Y-80825400D03*
X137536000Y-80825400D03*
X138806000Y-80825400D03*
X140076000Y-80825400D03*
X141346000Y-80825400D03*
D11*
X144386000Y-79575400D03*
X144386000Y-78305400D03*
X144386000Y-77035400D03*
X144386000Y-75765400D03*
X144386000Y-74495400D03*
X144386000Y-73225400D03*
X144386000Y-71955400D03*
X144386000Y-70685400D03*
X144386000Y-69415400D03*
X144386000Y-68145400D03*
X144386000Y-66875400D03*
X144386000Y-65605400D03*
X144386000Y-64335400D03*
X144386000Y-63065400D03*
%TD*%
D13*
%TO.C,SW4*%
X136271000Y-92292000D03*
X136271000Y-84492000D03*
%TD*%
D14*
%TO.C,R12*%
X133121400Y-82969600D03*
X133121400Y-84619600D03*
%TD*%
D13*
%TO.C,SW3*%
X143281400Y-92266600D03*
X143281400Y-84466600D03*
%TD*%
D15*
%TO.C,R6*%
X135587100Y-95377000D03*
X137412100Y-95377000D03*
%TD*%
D14*
%TO.C,R8*%
X131394200Y-82969600D03*
X131394200Y-84619600D03*
%TD*%
D16*
%TO.C,D3*%
X137386300Y-97891600D03*
X135511300Y-97891600D03*
%TD*%
D13*
%TO.C,SW5*%
X128117600Y-92292000D03*
X128117600Y-84492000D03*
%TD*%
M02*
